<?xml version="1.0" encoding="UTF-8" standalone="no"?>
<!DOCTYPE svg PUBLIC "-//W3C//DTD SVG 1.1//EN"
 "http://www.w3.org/Graphics/SVG/1.1/DTD/svg11.dtd">
<!-- Generated by graphviz version 2.36.0 (20140111.2315)
 -->
<!-- Title: visioncpp::internal::Device_&lt; backend::sycl, dv &gt;::execute Pages: 1 -->
<svg width="594pt" height="136pt"
 viewBox="0.00 0.00 594.00 136.00" xmlns="http://www.w3.org/2000/svg" xmlns:xlink="http://www.w3.org/1999/xlink">
<g id="graph0" class="graph" transform="scale(1 1) rotate(0) translate(4 132)">
<title>visioncpp::internal::Device_&lt; backend::sycl, dv &gt;::execute</title>
<!-- Node1 -->
<g id="node1" class="node"><title>Node1</title>
<polygon fill="#bfbfbf" stroke="black" points="0,-43.5 0,-84.5 110,-84.5 110,-43.5 0,-43.5"/>
<text text-anchor="start" x="8" y="-72.5" font-family="Helvetica,sans-Serif" font-size="10.00">visioncpp::internal</text>
<text text-anchor="start" x="8" y="-61.5" font-family="Helvetica,sans-Serif" font-size="10.00">::Device_&lt; backend::</text>
<text text-anchor="middle" x="55" y="-50.5" font-family="Helvetica,sans-Serif" font-size="10.00">sycl, dv &gt;::execute</text>
</g>
<!-- Node2 -->
<g id="node2" class="node"><title>Node2</title>
<g id="a_node2"><a xlink:href="namespacevisioncpp_1_1internal_1_1tools_1_1tuple.html#a047c9626073a7719080ae711a7fbcd12" target="_top" xlink:title="append ">
<polygon fill="none" stroke="black" points="146,-98 146,-128 254,-128 254,-98 146,-98"/>
<text text-anchor="start" x="154" y="-116" font-family="Helvetica,sans-Serif" font-size="10.00">visioncpp::internal</text>
<text text-anchor="middle" x="200" y="-105" font-family="Helvetica,sans-Serif" font-size="10.00">::tools::tuple::append</text>
</a>
</g>
</g>
<!-- Node1&#45;&gt;Node2 -->
<g id="edge1" class="edge"><title>Node1&#45;&gt;Node2</title>
<path fill="none" stroke="midnightblue" d="M110.062,-82.5248C121.679,-86.5053 133.949,-90.71 145.543,-94.6826"/>
<polygon fill="midnightblue" stroke="midnightblue" points="144.498,-98.0243 155.093,-97.9549 146.768,-91.4023 144.498,-98.0243"/>
</g>
<!-- Node5 -->
<g id="node5" class="node"><title>Node5</title>
<g id="a_node5"><a xlink:href="namespacevisioncpp.html#a8f27d57b622ce39d23ed3634c53824a7" target="_top" xlink:title="visioncpp::extract\l_accessors">
<polygon fill="none" stroke="black" points="153,-49 153,-79 247,-79 247,-49 153,-49"/>
<text text-anchor="start" x="161" y="-67" font-family="Helvetica,sans-Serif" font-size="10.00">visioncpp::extract</text>
<text text-anchor="middle" x="200" y="-56" font-family="Helvetica,sans-Serif" font-size="10.00">_accessors</text>
</a>
</g>
</g>
<!-- Node1&#45;&gt;Node5 -->
<g id="edge4" class="edge"><title>Node1&#45;&gt;Node5</title>
<path fill="none" stroke="midnightblue" d="M110.062,-64C120.731,-64 131.951,-64 142.692,-64"/>
<polygon fill="midnightblue" stroke="midnightblue" points="142.81,-67.5001 152.81,-64 142.81,-60.5001 142.81,-67.5001"/>
</g>
<!-- Node6 -->
<g id="node6" class="node"><title>Node6</title>
<g id="a_node6"><a xlink:href="namespacevisioncpp_1_1internal_1_1tools_1_1tuple.html#a6babc75b888e56853b3fc1e46efafb93" target="_top" xlink:title="size ">
<polygon fill="none" stroke="black" points="152.5,-0 152.5,-30 247.5,-30 247.5,-0 152.5,-0"/>
<text text-anchor="start" x="160.5" y="-18" font-family="Helvetica,sans-Serif" font-size="10.00">visioncpp::internal</text>
<text text-anchor="middle" x="200" y="-7" font-family="Helvetica,sans-Serif" font-size="10.00">::tools::tuple::size</text>
</a>
</g>
</g>
<!-- Node1&#45;&gt;Node6 -->
<g id="edge5" class="edge"><title>Node1&#45;&gt;Node6</title>
<path fill="none" stroke="midnightblue" d="M110.062,-45.4752C121.679,-41.4947 133.949,-37.29 145.543,-33.3174"/>
<polygon fill="midnightblue" stroke="midnightblue" points="146.768,-36.5977 155.093,-30.0451 144.498,-29.9757 146.768,-36.5977"/>
</g>
<!-- Node3 -->
<g id="node3" class="node"><title>Node3</title>
<g id="a_node3"><a xlink:href="namespacevisioncpp_1_1internal_1_1tools_1_1tuple.html#a0739601d962b2f5d67f9733bdd49624b" target="_top" xlink:title="append_impl ">
<polygon fill="none" stroke="black" points="290.5,-98 290.5,-128 421.5,-128 421.5,-98 290.5,-98"/>
<text text-anchor="start" x="298.5" y="-116" font-family="Helvetica,sans-Serif" font-size="10.00">visioncpp::internal</text>
<text text-anchor="middle" x="356" y="-105" font-family="Helvetica,sans-Serif" font-size="10.00">::tools::tuple::append_impl</text>
</a>
</g>
</g>
<!-- Node2&#45;&gt;Node3 -->
<g id="edge2" class="edge"><title>Node2&#45;&gt;Node3</title>
<path fill="none" stroke="midnightblue" d="M254.43,-113C262.734,-113 271.443,-113 280.117,-113"/>
<polygon fill="midnightblue" stroke="midnightblue" points="280.256,-116.5 290.256,-113 280.256,-109.5 280.256,-116.5"/>
</g>
<!-- Node4 -->
<g id="node4" class="node"><title>Node4</title>
<g id="a_node4"><a xlink:href="namespacevisioncpp_1_1internal_1_1tools_1_1tuple.html#a327306360f5729315416bf96f49a4d73" target="_top" xlink:title="make_tuple ">
<polygon fill="none" stroke="black" points="458.5,-98 458.5,-128 585.5,-128 585.5,-98 458.5,-98"/>
<text text-anchor="start" x="466.5" y="-116" font-family="Helvetica,sans-Serif" font-size="10.00">visioncpp::internal</text>
<text text-anchor="middle" x="522" y="-105" font-family="Helvetica,sans-Serif" font-size="10.00">::tools::tuple::make_tuple</text>
</a>
</g>
</g>
<!-- Node3&#45;&gt;Node4 -->
<g id="edge3" class="edge"><title>Node3&#45;&gt;Node4</title>
<path fill="none" stroke="midnightblue" d="M421.817,-113C430.44,-113 439.329,-113 448.078,-113"/>
<polygon fill="midnightblue" stroke="midnightblue" points="448.26,-116.5 458.26,-113 448.26,-109.5 448.26,-116.5"/>
</g>
</g>
</svg>
