<?xml version="1.0" encoding="UTF-8" standalone="no"?>
<!DOCTYPE svg PUBLIC "-//W3C//DTD SVG 1.1//EN"
 "http://www.w3.org/Graphics/SVG/1.1/DTD/svg11.dtd">
<!-- Generated by graphviz version 2.43.0 (0)
 -->
<!-- Title: complex_ops.hpp Pages: 1 -->
<svg width="110pt" height="196pt"
 viewBox="0.00 0.00 110.00 196.00" xmlns="http://www.w3.org/2000/svg" xmlns:xlink="http://www.w3.org/1999/xlink">
<g id="graph0" class="graph" transform="scale(1 1) rotate(0) translate(4 192)">
<title>complex_ops.hpp</title>
<!-- Node1 -->
<g id="node1" class="node">
<title>Node1</title>
<g id="a_node1"><a xlink:title="This file contains a set of includes and forward declaration required to build complex operations lik...">
<polygon fill="#bfbfbf" stroke="black" points="0,-168.5 0,-187.5 102,-187.5 102,-168.5 0,-168.5"/>
<text text-anchor="middle" x="51" y="-175.5" font-family="Helvetica,sans-Serif" font-size="10.00">complex_ops.hpp</text>
</a>
</g>
</g>
<!-- Node2 -->
<g id="node2" class="node">
<title>Node2</title>
<g id="a_node2"><a xlink:href="expr__tree_8hpp.html" target="_top" xlink:title="This file contains the forward declarations and all the necessary include headers for the constructio...">
<polygon fill="none" stroke="black" points="9,-112.5 9,-131.5 93,-131.5 93,-112.5 9,-112.5"/>
<text text-anchor="middle" x="51" y="-119.5" font-family="Helvetica,sans-Serif" font-size="10.00">expr_tree.hpp</text>
</a>
</g>
</g>
<!-- Node1&#45;&gt;Node2 -->
<g id="edge1" class="edge">
<title>Node1&#45;&gt;Node2</title>
<path fill="none" stroke="midnightblue" d="M51,-157.8C51,-148.91 51,-138.78 51,-131.75"/>
<polygon fill="midnightblue" stroke="midnightblue" points="47.5,-158.08 51,-168.08 54.5,-158.08 47.5,-158.08"/>
</g>
<!-- Node3 -->
<g id="node3" class="node">
<title>Node3</title>
<g id="a_node3"><a xlink:href="framework_8hpp.html" target="_top" xlink:title="Collection of VisionCpp framework headers.">
<polygon fill="none" stroke="black" points="5.5,-56.5 5.5,-75.5 96.5,-75.5 96.5,-56.5 5.5,-56.5"/>
<text text-anchor="middle" x="51" y="-63.5" font-family="Helvetica,sans-Serif" font-size="10.00">framework.hpp</text>
</a>
</g>
</g>
<!-- Node2&#45;&gt;Node3 -->
<g id="edge2" class="edge">
<title>Node2&#45;&gt;Node3</title>
<path fill="none" stroke="midnightblue" d="M51,-101.8C51,-92.91 51,-82.78 51,-75.75"/>
<polygon fill="midnightblue" stroke="midnightblue" points="47.5,-102.08 51,-112.08 54.5,-102.08 47.5,-102.08"/>
</g>
<!-- Node4 -->
<g id="node4" class="node">
<title>Node4</title>
<g id="a_node4"><a xlink:href="visioncpp_8hpp.html" target="_top" xlink:title="This file is collection of headers that makes VisionCpp library.">
<polygon fill="none" stroke="black" points="9,-0.5 9,-19.5 93,-19.5 93,-0.5 9,-0.5"/>
<text text-anchor="middle" x="51" y="-7.5" font-family="Helvetica,sans-Serif" font-size="10.00">visioncpp.hpp</text>
</a>
</g>
</g>
<!-- Node3&#45;&gt;Node4 -->
<g id="edge3" class="edge">
<title>Node3&#45;&gt;Node4</title>
<path fill="none" stroke="midnightblue" d="M51,-45.8C51,-36.91 51,-26.78 51,-19.75"/>
<polygon fill="midnightblue" stroke="midnightblue" points="47.5,-46.08 51,-56.08 54.5,-46.08 47.5,-46.08"/>
</g>
</g>
</svg>
