<?xml version="1.0" encoding="UTF-8" standalone="no"?>
<!DOCTYPE svg PUBLIC "-//W3C//DTD SVG 1.1//EN"
 "http://www.w3.org/Graphics/SVG/1.1/DTD/svg11.dtd">
<!-- Generated by graphviz version 2.43.0 (0)
 -->
<!-- Title: complex_ops.hpp Pages: 1 -->
<svg width="435pt" height="95pt"
 viewBox="0.00 0.00 435.00 95.00" xmlns="http://www.w3.org/2000/svg" xmlns:xlink="http://www.w3.org/1999/xlink">
<g id="graph0" class="graph" transform="scale(1 1) rotate(0) translate(4 91)">
<title>complex_ops.hpp</title>
<!-- Node1 -->
<g id="node1" class="node">
<title>Node1</title>
<g id="a_node1"><a xlink:title="This file contains a set of includes and forward declaration required to build complex operations lik...">
<polygon fill="#bfbfbf" stroke="black" points="146.5,-67.5 146.5,-86.5 248.5,-86.5 248.5,-67.5 146.5,-67.5"/>
<text text-anchor="middle" x="197.5" y="-74.5" font-family="Helvetica,sans-Serif" font-size="10.00">complex_ops.hpp</text>
</a>
</g>
</g>
<!-- Node2 -->
<g id="node2" class="node">
<title>Node2</title>
<g id="a_node2"><a xlink:href="pyramid__mem_8hpp.html" target="_top" xlink:title="This file is used to create a pyramid output memory when the auto generate output memory is selected....">
<polygon fill="none" stroke="black" points="0,-6 0,-25 109,-25 109,-6 0,-6"/>
<text text-anchor="middle" x="54.5" y="-13" font-family="Helvetica,sans-Serif" font-size="10.00">pyramid_mem.hpp</text>
</a>
</g>
</g>
<!-- Node1&#45;&gt;Node2 -->
<g id="edge1" class="edge">
<title>Node1&#45;&gt;Node2</title>
<path fill="none" stroke="midnightblue" d="M177.01,-67.48C152.69,-57.36 111.95,-40.4 84.18,-28.85"/>
<polygon fill="midnightblue" stroke="midnightblue" points="85.53,-25.62 74.95,-25.01 82.84,-32.08 85.53,-25.62"/>
</g>
<!-- Node3 -->
<g id="node3" class="node">
<title>Node3</title>
<g id="a_node3"><a xlink:href="pyramid__with__auto__mem__gen_8hpp.html" target="_top" xlink:title="This file contains the construction of the pyramid node where a user can pass general filter2d functo...">
<polygon fill="none" stroke="black" points="127,-0.5 127,-30.5 268,-30.5 268,-0.5 127,-0.5"/>
<text text-anchor="start" x="135" y="-18.5" font-family="Helvetica,sans-Serif" font-size="10.00">pyramid_with_auto_mem</text>
<text text-anchor="middle" x="197.5" y="-7.5" font-family="Helvetica,sans-Serif" font-size="10.00">_gen.hpp</text>
</a>
</g>
</g>
<!-- Node1&#45;&gt;Node3 -->
<g id="edge2" class="edge">
<title>Node1&#45;&gt;Node3</title>
<path fill="none" stroke="midnightblue" d="M197.5,-67.48C197.5,-60.47 197.5,-50.19 197.5,-40.7"/>
<polygon fill="midnightblue" stroke="midnightblue" points="201,-40.52 197.5,-30.52 194,-40.52 201,-40.52"/>
</g>
<!-- Node4 -->
<g id="node4" class="node">
<title>Node4</title>
<g id="a_node4"><a xlink:href="pyramid__with__auto__mem__sep_8hpp.html" target="_top" xlink:title="This file contains the construction of the pyramid node where a user can pass separable filter2d func...">
<polygon fill="none" stroke="black" points="286,-0.5 286,-30.5 427,-30.5 427,-0.5 286,-0.5"/>
<text text-anchor="start" x="294" y="-18.5" font-family="Helvetica,sans-Serif" font-size="10.00">pyramid_with_auto_mem</text>
<text text-anchor="middle" x="356.5" y="-7.5" font-family="Helvetica,sans-Serif" font-size="10.00">_sep.hpp</text>
</a>
</g>
</g>
<!-- Node1&#45;&gt;Node4 -->
<g id="edge3" class="edge">
<title>Node1&#45;&gt;Node4</title>
<path fill="none" stroke="midnightblue" d="M220.28,-67.48C243.43,-58.81 279.95,-45.15 309.36,-34.14"/>
<polygon fill="midnightblue" stroke="midnightblue" points="310.89,-37.31 319.03,-30.52 308.43,-30.75 310.89,-37.31"/>
</g>
</g>
</svg>
