<?xml version="1.0" encoding="UTF-8" standalone="no"?>
<!DOCTYPE svg PUBLIC "-//W3C//DTD SVG 1.1//EN"
 "http://www.w3.org/Graphics/SVG/1.1/DTD/svg11.dtd">
<!-- Generated by graphviz version 2.36.0 (20140111.2315)
 -->
<!-- Title: complex_ops.hpp Pages: 1 -->
<svg width="390pt" height="96pt"
 viewBox="0.00 0.00 390.00 96.00" xmlns="http://www.w3.org/2000/svg" xmlns:xlink="http://www.w3.org/1999/xlink">
<g id="graph0" class="graph" transform="scale(1 1) rotate(0) translate(4 92)">
<title>complex_ops.hpp</title>
<!-- Node1 -->
<g id="node1" class="node"><title>Node1</title>
<polygon fill="#bfbfbf" stroke="black" points="130.5,-68.5 130.5,-87.5 223.5,-87.5 223.5,-68.5 130.5,-68.5"/>
<text text-anchor="middle" x="177" y="-75.5" font-family="Helvetica,sans-Serif" font-size="10.00">complex_ops.hpp</text>
</g>
<!-- Node2 -->
<g id="node2" class="node"><title>Node2</title>
<g id="a_node2"><a xlink:href="pyramid__mem_8hpp.html" target="_top" xlink:title="This file is used to create a pyramid output memory when the auto generate output memory is selected...">
<polygon fill="none" stroke="black" points="-0.5,-6.5 -0.5,-25.5 96.5,-25.5 96.5,-6.5 -0.5,-6.5"/>
<text text-anchor="middle" x="48" y="-13.5" font-family="Helvetica,sans-Serif" font-size="10.00">pyramid_mem.hpp</text>
</a>
</g>
</g>
<!-- Node1&#45;&gt;Node2 -->
<g id="edge1" class="edge"><title>Node1&#45;&gt;Node2</title>
<path fill="none" stroke="midnightblue" d="M158.517,-68.4035C136.868,-58.3341 100.787,-41.5522 75.7675,-29.9151"/>
<polygon fill="midnightblue" stroke="midnightblue" points="76.9916,-26.6244 66.4483,-25.5806 74.0394,-32.9715 76.9916,-26.6244"/>
</g>
<!-- Node3 -->
<g id="node3" class="node"><title>Node3</title>
<g id="a_node3"><a xlink:href="pyramid__with__auto__mem__gen_8hpp.html" target="_top" xlink:title="This file contains the construction of the pyramid node where a user can pass general filter2d functo...">
<polygon fill="none" stroke="black" points="114.5,-1 114.5,-31 239.5,-31 239.5,-1 114.5,-1"/>
<text text-anchor="start" x="122.5" y="-19" font-family="Helvetica,sans-Serif" font-size="10.00">pyramid_with_auto_mem</text>
<text text-anchor="middle" x="177" y="-8" font-family="Helvetica,sans-Serif" font-size="10.00">_gen.hpp</text>
</a>
</g>
</g>
<!-- Node1&#45;&gt;Node3 -->
<g id="edge2" class="edge"><title>Node1&#45;&gt;Node3</title>
<path fill="none" stroke="midnightblue" d="M177,-68.4035C177,-61.3405 177,-50.975 177,-41.399"/>
<polygon fill="midnightblue" stroke="midnightblue" points="180.5,-41.1408 177,-31.1408 173.5,-41.1408 180.5,-41.1408"/>
</g>
<!-- Node4 -->
<g id="node4" class="node"><title>Node4</title>
<g id="a_node4"><a xlink:href="pyramid__with__auto__mem__sep_8hpp.html" target="_top" xlink:title="This file contains the construction of the pyramid node where a user can pass separable filter2d func...">
<polygon fill="none" stroke="black" points="257.5,-1 257.5,-31 382.5,-31 382.5,-1 257.5,-1"/>
<text text-anchor="start" x="265.5" y="-19" font-family="Helvetica,sans-Serif" font-size="10.00">pyramid_with_auto_mem</text>
<text text-anchor="middle" x="320" y="-8" font-family="Helvetica,sans-Serif" font-size="10.00">_sep.hpp</text>
</a>
</g>
</g>
<!-- Node1&#45;&gt;Node4 -->
<g id="edge3" class="edge"><title>Node1&#45;&gt;Node4</title>
<path fill="none" stroke="midnightblue" d="M197.488,-68.4035C218.192,-59.7168 250.801,-46.0346 277.173,-34.9694"/>
<polygon fill="midnightblue" stroke="midnightblue" points="278.706,-38.1218 286.573,-31.0253 275.998,-31.667 278.706,-38.1218"/>
</g>
</g>
</svg>
