<?xml version="1.0" encoding="UTF-8" standalone="no"?>
<!DOCTYPE svg PUBLIC "-//W3C//DTD SVG 1.1//EN"
 "http://www.w3.org/Graphics/SVG/1.1/DTD/svg11.dtd">
<!-- Generated by graphviz version 2.43.0 (0)
 -->
<!-- Title: framework Pages: 1 -->
<svg width="438pt" height="183pt"
 viewBox="0.00 0.00 438.00 183.00" xmlns="http://www.w3.org/2000/svg" xmlns:xlink="http://www.w3.org/1999/xlink">
<g id="graph0" class="graph" transform="scale(1 1) rotate(0) translate(4 179)">
<title>framework</title>
<g id="clust1" class="cluster">
<title>clusterdir_d44c64559bbebec7f509842c48db8b23</title>
<g id="a_clust1"><a xlink:href="dir_d44c64559bbebec7f509842c48db8b23.html" target="_top" xlink:title="include">
<polygon fill="#ddddee" stroke="black" points="8,-8 8,-167 422,-167 422,-8 8,-8"/>
<text text-anchor="middle" x="215" y="-155" font-family="Helvetica,sans-Serif" font-size="10.00">include</text>
</a>
</g>
</g>
<g id="clust2" class="cluster">
<title>clusterdir_83443285122052e1a9eda09d5fe5f578</title>
<g id="a_clust2"><a xlink:href="dir_83443285122052e1a9eda09d5fe5f578.html" target="_top">
<polygon fill="#eeeeff" stroke="black" points="16,-16 16,-140 414,-140 414,-16 16,-16"/>
</a>
</g>
</g>
<!-- dir_83443285122052e1a9eda09d5fe5f578 -->
<g id="node1" class="node">
<title>dir_83443285122052e1a9eda09d5fe5f578</title>
<text text-anchor="middle" x="371" y="-111.5" font-family="Helvetica,sans-Serif" font-size="10.00">framework</text>
</g>
<!-- dir_326b5306042eb63dfe44d163b297ac2c -->
<g id="node5" class="node">
<title>dir_326b5306042eb63dfe44d163b297ac2c</title>
<g id="a_node5"><a xlink:href="dir_326b5306042eb63dfe44d163b297ac2c.html" target="_top" xlink:title="expr_convertor">
<polygon fill="white" stroke="black" points="258,-60 168,-60 168,-24 258,-24 258,-60"/>
<text text-anchor="middle" x="213" y="-39.5" font-family="Helvetica,sans-Serif" font-size="10.00">expr_convertor</text>
</a>
</g>
</g>
<!-- dir_83443285122052e1a9eda09d5fe5f578&#45;&gt;dir_326b5306042eb63dfe44d163b297ac2c -->
<g id="edge2" class="edge">
<title>dir_83443285122052e1a9eda09d5fe5f578&#45;&gt;dir_326b5306042eb63dfe44d163b297ac2c</title>
<path fill="none" stroke="black" d="M335.93,-97.46C313.86,-87.69 285.08,-74.94 260.92,-64.23"/>
<polygon fill="black" stroke="black" points="262.13,-60.94 251.57,-60.09 259.29,-67.34 262.13,-60.94"/>
<g id="a_edge2&#45;headlabel"><a xlink:href="dir_000001_000014.html" target="_top" xlink:title="1">
<text text-anchor="middle" x="266.56" y="-57.3" font-family="Helvetica,sans-Serif" font-size="10.00">1</text>
</a>
</g>
</g>
<!-- dir_cb17e8f20748a2cab1f578324966e046 -->
<g id="node7" class="node">
<title>dir_cb17e8f20748a2cab1f578324966e046</title>
<g id="a_node7"><a xlink:href="dir_cb17e8f20748a2cab1f578324966e046.html" target="_top" xlink:title="memory">
<polygon fill="white" stroke="red" points="334,-60 276,-60 276,-24 334,-24 334,-60"/>
<text text-anchor="middle" x="305" y="-39.5" font-family="Helvetica,sans-Serif" font-size="10.00">memory</text>
</a>
</g>
</g>
<!-- dir_83443285122052e1a9eda09d5fe5f578&#45;&gt;dir_cb17e8f20748a2cab1f578324966e046 -->
<g id="edge3" class="edge">
<title>dir_83443285122052e1a9eda09d5fe5f578&#45;&gt;dir_cb17e8f20748a2cab1f578324966e046</title>
<path fill="none" stroke="black" d="M354.69,-95.7C346.69,-87.22 336.93,-76.86 328.18,-67.58"/>
<polygon fill="black" stroke="black" points="330.53,-64.98 321.13,-60.1 325.44,-69.78 330.53,-64.98"/>
<g id="a_edge3&#45;headlabel"><a xlink:href="dir_000001_000016.html" target="_top" xlink:title="2">
<text text-anchor="middle" x="335.07" y="-63.15" font-family="Helvetica,sans-Serif" font-size="10.00">2</text>
</a>
</g>
</g>
<!-- dir_28e3876090690b0d30fb32816b0988c3 -->
<g id="node8" class="node">
<title>dir_28e3876090690b0d30fb32816b0988c3</title>
<g id="a_node8"><a xlink:href="dir_28e3876090690b0d30fb32816b0988c3.html" target="_top" xlink:title="tools">
<polygon fill="white" stroke="black" points="406,-60 352,-60 352,-24 406,-24 406,-60"/>
<text text-anchor="middle" x="379" y="-39.5" font-family="Helvetica,sans-Serif" font-size="10.00">tools</text>
</a>
</g>
</g>
<!-- dir_83443285122052e1a9eda09d5fe5f578&#45;&gt;dir_28e3876090690b0d30fb32816b0988c3 -->
<g id="edge1" class="edge">
<title>dir_83443285122052e1a9eda09d5fe5f578&#45;&gt;dir_28e3876090690b0d30fb32816b0988c3</title>
<path fill="none" stroke="black" d="M372.98,-95.7C373.86,-87.98 374.92,-78.71 375.9,-70.11"/>
<polygon fill="black" stroke="black" points="379.39,-70.44 377.05,-60.1 372.43,-69.64 379.39,-70.44"/>
<g id="a_edge1&#45;headlabel"><a xlink:href="dir_000001_000005.html" target="_top" xlink:title="1">
<text text-anchor="middle" x="381.8" y="-71.83" font-family="Helvetica,sans-Serif" font-size="10.00">1</text>
</a>
</g>
</g>
<!-- dir_389ebb753c6356c838e23fbf56ab0207 -->
<g id="node2" class="node">
<title>dir_389ebb753c6356c838e23fbf56ab0207</title>
<g id="a_node2"><a xlink:href="dir_389ebb753c6356c838e23fbf56ab0207.html" target="_top" xlink:title="device">
<polygon fill="white" stroke="red" points="318,-132 264,-132 264,-96 318,-96 318,-132"/>
<text text-anchor="middle" x="291" y="-111.5" font-family="Helvetica,sans-Serif" font-size="10.00">device</text>
</a>
</g>
</g>
<!-- dir_04b666dd8724989f1af94f41ef5ab13b -->
<g id="node3" class="node">
<title>dir_04b666dd8724989f1af94f41ef5ab13b</title>
<g id="a_node3"><a xlink:href="dir_04b666dd8724989f1af94f41ef5ab13b.html" target="_top" xlink:title="evaluator">
<polygon fill="white" stroke="red" points="245.5,-132 182.5,-132 182.5,-96 245.5,-96 245.5,-132"/>
<text text-anchor="middle" x="214" y="-111.5" font-family="Helvetica,sans-Serif" font-size="10.00">evaluator</text>
</a>
</g>
</g>
<!-- dir_10fb780f6a3e0870a00042f33917f310 -->
<g id="node4" class="node">
<title>dir_10fb780f6a3e0870a00042f33917f310</title>
<g id="a_node4"><a xlink:href="dir_10fb780f6a3e0870a00042f33917f310.html" target="_top" xlink:title="executor">
<polygon fill="white" stroke="red" points="164.5,-132 105.5,-132 105.5,-96 164.5,-96 164.5,-132"/>
<text text-anchor="middle" x="135" y="-111.5" font-family="Helvetica,sans-Serif" font-size="10.00">executor</text>
</a>
</g>
</g>
<!-- dir_4f0ee70c904390457cd24b607efe9a0d -->
<g id="node6" class="node">
<title>dir_4f0ee70c904390457cd24b607efe9a0d</title>
<g id="a_node6"><a xlink:href="dir_4f0ee70c904390457cd24b607efe9a0d.html" target="_top" xlink:title="expr_tree">
<polygon fill="white" stroke="red" points="87.5,-132 24.5,-132 24.5,-96 87.5,-96 87.5,-132"/>
<text text-anchor="middle" x="56" y="-111.5" font-family="Helvetica,sans-Serif" font-size="10.00">expr_tree</text>
</a>
</g>
</g>
</g>
</svg>
