<?xml version="1.0" encoding="UTF-8" standalone="no"?>
<!DOCTYPE svg PUBLIC "-//W3C//DTD SVG 1.1//EN"
 "http://www.w3.org/Graphics/SVG/1.1/DTD/svg11.dtd">
<!-- Generated by graphviz version 2.36.0 (20140111.2315)
 -->
<!-- Title: framework Pages: 1 -->
<svg width="412pt" height="183pt"
 viewBox="0.00 0.00 412.00 183.00" xmlns="http://www.w3.org/2000/svg" xmlns:xlink="http://www.w3.org/1999/xlink">
<g id="graph0" class="graph" transform="scale(1 1) rotate(0) translate(4 179)">
<title>framework</title>
<g id="clust1" class="cluster"><title>clusterdir_d44c64559bbebec7f509842c48db8b23</title>
<g id="a_clust1"><a xlink:href="dir_d44c64559bbebec7f509842c48db8b23.html" target="_top" xlink:title="include">
<polygon fill="#ddddee" stroke="black" points="8,-8 8,-167 396,-167 396,-8 8,-8"/>
<text text-anchor="middle" x="202" y="-155" font-family="Helvetica,sans-Serif" font-size="10.00">include</text>
</a>
</g>
</g>
<g id="clust2" class="cluster"><title>clusterdir_83443285122052e1a9eda09d5fe5f578</title>
<g id="a_clust2"><a xlink:href="dir_83443285122052e1a9eda09d5fe5f578.html" target="_top">
<polygon fill="#eeeeff" stroke="black" points="16,-16 16,-140 388,-140 388,-16 16,-16"/>
</a>
</g>
</g>
<!-- dir_83443285122052e1a9eda09d5fe5f578 -->
<g id="node1" class="node"><title>dir_83443285122052e1a9eda09d5fe5f578</title>
<text text-anchor="middle" x="349" y="-111.5" font-family="Helvetica,sans-Serif" font-size="10.00">framework</text>
</g>
<!-- dir_326b5306042eb63dfe44d163b297ac2c -->
<g id="node5" class="node"><title>dir_326b5306042eb63dfe44d163b297ac2c</title>
<g id="a_node5"><a xlink:href="dir_326b5306042eb63dfe44d163b297ac2c.html" target="_top" xlink:title="expr_convertor">
<polygon fill="white" stroke="black" points="235.25,-60 154.75,-60 154.75,-24 235.25,-24 235.25,-60"/>
<text text-anchor="middle" x="195" y="-39.5" font-family="Helvetica,sans-Serif" font-size="10.00">expr_convertor</text>
</a>
</g>
</g>
<!-- dir_83443285122052e1a9eda09d5fe5f578&#45;&gt;dir_326b5306042eb63dfe44d163b297ac2c -->
<g id="edge1" class="edge"><title>dir_83443285122052e1a9eda09d5fe5f578&#45;&gt;dir_326b5306042eb63dfe44d163b297ac2c</title>
<path fill="none" stroke="black" d="M318.206,-99.0027C296.335,-89.0614 266.572,-75.5327 241.778,-64.2628"/>
<polygon fill="black" stroke="black" points="243.098,-61.018 232.546,-60.0662 240.201,-67.3906 243.098,-61.018"/>
<g id="a_edge1&#45;headlabel"><a xlink:href="dir_000001_000014.html" target="_top" xlink:title="1">
<text text-anchor="middle" x="247.545" y="-57.4206" font-family="Helvetica,sans-Serif" font-size="10.00">1</text>
</a>
</g>
</g>
<!-- dir_cb17e8f20748a2cab1f578324966e046 -->
<g id="node7" class="node"><title>dir_cb17e8f20748a2cab1f578324966e046</title>
<g id="a_node7"><a xlink:href="dir_cb17e8f20748a2cab1f578324966e046.html" target="_top" xlink:title="memory">
<polygon fill="white" stroke="red" points="308,-60 254,-60 254,-24 308,-24 308,-60"/>
<text text-anchor="middle" x="281" y="-39.5" font-family="Helvetica,sans-Serif" font-size="10.00">memory</text>
</a>
</g>
</g>
<!-- dir_83443285122052e1a9eda09d5fe5f578&#45;&gt;dir_cb17e8f20748a2cab1f578324966e046 -->
<g id="edge2" class="edge"><title>dir_83443285122052e1a9eda09d5fe5f578&#45;&gt;dir_cb17e8f20748a2cab1f578324966e046</title>
<path fill="none" stroke="black" d="M332.191,-95.6966C323.874,-87.135 313.695,-76.6562 304.61,-67.3045"/>
<polygon fill="black" stroke="black" points="307.094,-64.8384 297.616,-60.1043 302.073,-69.7159 307.094,-64.8384"/>
<g id="a_edge2&#45;headlabel"><a xlink:href="dir_000001_000016.html" target="_top" xlink:title="2">
<text text-anchor="middle" x="311.635" y="-62.9384" font-family="Helvetica,sans-Serif" font-size="10.00">2</text>
</a>
</g>
</g>
<!-- dir_28e3876090690b0d30fb32816b0988c3 -->
<g id="node8" class="node"><title>dir_28e3876090690b0d30fb32816b0988c3</title>
<g id="a_node8"><a xlink:href="dir_28e3876090690b0d30fb32816b0988c3.html" target="_top" xlink:title="tools">
<polygon fill="white" stroke="black" points="380,-60 326,-60 326,-24 380,-24 380,-60"/>
<text text-anchor="middle" x="353" y="-39.5" font-family="Helvetica,sans-Serif" font-size="10.00">tools</text>
</a>
</g>
</g>
<!-- dir_83443285122052e1a9eda09d5fe5f578&#45;&gt;dir_28e3876090690b0d30fb32816b0988c3 -->
<g id="edge3" class="edge"><title>dir_83443285122052e1a9eda09d5fe5f578&#45;&gt;dir_28e3876090690b0d30fb32816b0988c3</title>
<path fill="none" stroke="black" d="M349.989,-95.6966C350.43,-87.9827 350.959,-78.7125 351.451,-70.1124"/>
<polygon fill="black" stroke="black" points="354.946,-70.2878 352.023,-60.1043 347.958,-69.8883 354.946,-70.2878"/>
<g id="a_edge3&#45;headlabel"><a xlink:href="dir_000001_000005.html" target="_top" xlink:title="1">
<text text-anchor="middle" x="357.576" y="-71.5385" font-family="Helvetica,sans-Serif" font-size="10.00">1</text>
</a>
</g>
</g>
<!-- dir_389ebb753c6356c838e23fbf56ab0207 -->
<g id="node2" class="node"><title>dir_389ebb753c6356c838e23fbf56ab0207</title>
<g id="a_node2"><a xlink:href="dir_389ebb753c6356c838e23fbf56ab0207.html" target="_top" xlink:title="device">
<polygon fill="white" stroke="red" points="300,-132 246,-132 246,-96 300,-96 300,-132"/>
<text text-anchor="middle" x="273" y="-111.5" font-family="Helvetica,sans-Serif" font-size="10.00">device</text>
</a>
</g>
</g>
<!-- dir_04b666dd8724989f1af94f41ef5ab13b -->
<g id="node3" class="node"><title>dir_04b666dd8724989f1af94f41ef5ab13b</title>
<g id="a_node3"><a xlink:href="dir_04b666dd8724989f1af94f41ef5ab13b.html" target="_top" xlink:title="evaluator">
<polygon fill="white" stroke="red" points="227.5,-132 172.5,-132 172.5,-96 227.5,-96 227.5,-132"/>
<text text-anchor="middle" x="200" y="-111.5" font-family="Helvetica,sans-Serif" font-size="10.00">evaluator</text>
</a>
</g>
</g>
<!-- dir_10fb780f6a3e0870a00042f33917f310 -->
<g id="node4" class="node"><title>dir_10fb780f6a3e0870a00042f33917f310</title>
<g id="a_node4"><a xlink:href="dir_10fb780f6a3e0870a00042f33917f310.html" target="_top" xlink:title="executor">
<polygon fill="white" stroke="red" points="154,-132 100,-132 100,-96 154,-96 154,-132"/>
<text text-anchor="middle" x="127" y="-111.5" font-family="Helvetica,sans-Serif" font-size="10.00">executor</text>
</a>
</g>
</g>
<!-- dir_4f0ee70c904390457cd24b607efe9a0d -->
<g id="node6" class="node"><title>dir_4f0ee70c904390457cd24b607efe9a0d</title>
<g id="a_node6"><a xlink:href="dir_4f0ee70c904390457cd24b607efe9a0d.html" target="_top" xlink:title="expr_tree">
<polygon fill="white" stroke="red" points="81.25,-132 24.75,-132 24.75,-96 81.25,-96 81.25,-132"/>
<text text-anchor="middle" x="53" y="-111.5" font-family="Helvetica,sans-Serif" font-size="10.00">expr_tree</text>
</a>
</g>
</g>
</g>
</svg>
