<?xml version="1.0" encoding="UTF-8" standalone="no"?>
<!DOCTYPE svg PUBLIC "-//W3C//DTD SVG 1.1//EN"
 "http://www.w3.org/Graphics/SVG/1.1/DTD/svg11.dtd">
<!-- Generated by graphviz version 2.43.0 (0)
 -->
<!-- Title: include Pages: 1 -->
<svg width="176pt" height="220pt"
 viewBox="0.00 0.00 176.00 220.00" xmlns="http://www.w3.org/2000/svg" xmlns:xlink="http://www.w3.org/1999/xlink">
<g id="graph0" class="graph" transform="scale(1 1) rotate(0) translate(4 216)">
<title>include</title>
<g id="clust1" class="cluster">
<title>clusterdir_d44c64559bbebec7f509842c48db8b23</title>
<g id="a_clust1"><a xlink:href="dir_d44c64559bbebec7f509842c48db8b23.html" target="_top">
<polygon fill="#eeeeff" stroke="black" points="8,-8 8,-204 160,-204 160,-8 8,-8"/>
</a>
</g>
</g>
<!-- dir_d44c64559bbebec7f509842c48db8b23 -->
<g id="node1" class="node">
<title>dir_d44c64559bbebec7f509842c48db8b23</title>
<text text-anchor="middle" x="86" y="-175.5" font-family="Helvetica,sans-Serif" font-size="10.00">include</text>
</g>
<!-- dir_25195d3308bac8cd1082ed7a447aeb6c -->
<g id="node3" class="node">
<title>dir_25195d3308bac8cd1082ed7a447aeb6c</title>
<g id="a_node3"><a xlink:href="dir_25195d3308bac8cd1082ed7a447aeb6c.html" target="_top" xlink:title="operators">
<polygon fill="white" stroke="red" points="79.5,-124 16.5,-124 16.5,-88 79.5,-88 79.5,-124"/>
<text text-anchor="middle" x="48" y="-103.5" font-family="Helvetica,sans-Serif" font-size="10.00">operators</text>
</a>
</g>
</g>
<!-- dir_d44c64559bbebec7f509842c48db8b23&#45;&gt;dir_25195d3308bac8cd1082ed7a447aeb6c -->
<g id="edge1" class="edge">
<title>dir_d44c64559bbebec7f509842c48db8b23&#45;&gt;dir_25195d3308bac8cd1082ed7a447aeb6c</title>
<path fill="none" stroke="black" d="M76.61,-159.7C72.24,-151.64 66.94,-141.89 62.1,-132.98"/>
<polygon fill="black" stroke="black" points="65.13,-131.22 57.29,-124.1 58.98,-134.56 65.13,-131.22"/>
<g id="a_edge1&#45;headlabel"><a xlink:href="dir_000000_000012.html" target="_top" xlink:title="5">
<text text-anchor="middle" x="69.34" y="-130.53" font-family="Helvetica,sans-Serif" font-size="10.00">5</text>
</a>
</g>
</g>
<!-- dir_a046220c41b7f6faaa7c7b10adeeeb95 -->
<g id="node4" class="node">
<title>dir_a046220c41b7f6faaa7c7b10adeeeb95</title>
<g id="a_node4"><a xlink:href="dir_a046220c41b7f6faaa7c7b10adeeeb95.html" target="_top" xlink:title="pixel">
<polygon fill="white" stroke="black" points="152,-124 98,-124 98,-88 152,-88 152,-124"/>
<text text-anchor="middle" x="125" y="-103.5" font-family="Helvetica,sans-Serif" font-size="10.00">pixel</text>
</a>
</g>
</g>
<!-- dir_d44c64559bbebec7f509842c48db8b23&#45;&gt;dir_a046220c41b7f6faaa7c7b10adeeeb95 -->
<g id="edge2" class="edge">
<title>dir_d44c64559bbebec7f509842c48db8b23&#45;&gt;dir_a046220c41b7f6faaa7c7b10adeeeb95</title>
<path fill="none" stroke="black" d="M95.64,-159.7C100.13,-151.64 105.56,-141.89 110.52,-132.98"/>
<polygon fill="black" stroke="black" points="113.66,-134.54 115.47,-124.1 107.55,-131.14 113.66,-134.54"/>
<g id="a_edge2&#45;headlabel"><a xlink:href="dir_000000_000022.html" target="_top" xlink:title="1">
<text text-anchor="middle" x="114.39" y="-136.57" font-family="Helvetica,sans-Serif" font-size="10.00">1</text>
</a>
</g>
</g>
<!-- dir_83443285122052e1a9eda09d5fe5f578 -->
<g id="node2" class="node">
<title>dir_83443285122052e1a9eda09d5fe5f578</title>
<g id="a_node2"><a xlink:href="dir_83443285122052e1a9eda09d5fe5f578.html" target="_top" xlink:title="framework">
<polygon fill="white" stroke="red" points="152,-52 82,-52 82,-16 152,-16 152,-52"/>
<text text-anchor="middle" x="117" y="-31.5" font-family="Helvetica,sans-Serif" font-size="10.00">framework</text>
</a>
</g>
</g>
<!-- dir_a046220c41b7f6faaa7c7b10adeeeb95&#45;&gt;dir_83443285122052e1a9eda09d5fe5f578 -->
<g id="edge3" class="edge">
<title>dir_a046220c41b7f6faaa7c7b10adeeeb95&#45;&gt;dir_83443285122052e1a9eda09d5fe5f578</title>
<path fill="none" stroke="black" d="M123.02,-87.7C122.14,-79.98 121.08,-70.71 120.1,-62.11"/>
<polygon fill="black" stroke="black" points="123.57,-61.64 118.95,-52.1 116.61,-62.44 123.57,-61.64"/>
<g id="a_edge3&#45;headlabel"><a xlink:href="dir_000022_000001.html" target="_top" xlink:title="1">
<text text-anchor="middle" x="126.8" y="-62.39" font-family="Helvetica,sans-Serif" font-size="10.00">1</text>
</a>
</g>
</g>
</g>
</svg>
