<?xml version="1.0" encoding="UTF-8" standalone="no"?>
<!DOCTYPE svg PUBLIC "-//W3C//DTD SVG 1.1//EN"
 "http://www.w3.org/Graphics/SVG/1.1/DTD/svg11.dtd">
<!-- Generated by graphviz version 2.36.0 (20140111.2315)
 -->
<!-- Title: operators Pages: 1 -->
<svg width="382pt" height="183pt"
 viewBox="0.00 0.00 382.00 183.00" xmlns="http://www.w3.org/2000/svg" xmlns:xlink="http://www.w3.org/1999/xlink">
<g id="graph0" class="graph" transform="scale(1 1) rotate(0) translate(4 179)">
<title>operators</title>
<g id="clust1" class="cluster"><title>clusterdir_d44c64559bbebec7f509842c48db8b23</title>
<g id="a_clust1"><a xlink:href="dir_d44c64559bbebec7f509842c48db8b23.html" target="_top" xlink:title="include">
<polygon fill="#ddddee" stroke="black" points="8,-8 8,-167 366,-167 366,-8 8,-8"/>
<text text-anchor="middle" x="187" y="-155" font-family="Helvetica,sans-Serif" font-size="10.00">include</text>
</a>
</g>
</g>
<g id="clust2" class="cluster"><title>clusterdir_25195d3308bac8cd1082ed7a447aeb6c</title>
<g id="a_clust2"><a xlink:href="dir_25195d3308bac8cd1082ed7a447aeb6c.html" target="_top">
<polygon fill="#eeeeff" stroke="black" points="16,-16 16,-140 358,-140 358,-16 16,-16"/>
</a>
</g>
</g>
<!-- dir_25195d3308bac8cd1082ed7a447aeb6c -->
<g id="node1" class="node"><title>dir_25195d3308bac8cd1082ed7a447aeb6c</title>
<text text-anchor="middle" x="174" y="-111.5" font-family="Helvetica,sans-Serif" font-size="10.00">operators</text>
</g>
<!-- dir_4e28d03358d26cc7ef852270dfdc4b1e -->
<g id="node2" class="node"><title>dir_4e28d03358d26cc7ef852270dfdc4b1e</title>
<g id="a_node2"><a xlink:href="dir_4e28d03358d26cc7ef852270dfdc4b1e.html" target="_top" xlink:title="convert">
<polygon fill="white" stroke="black" points="78,-60 24,-60 24,-24 78,-24 78,-60"/>
<text text-anchor="middle" x="51" y="-39.5" font-family="Helvetica,sans-Serif" font-size="10.00">convert</text>
</a>
</g>
</g>
<!-- dir_25195d3308bac8cd1082ed7a447aeb6c&#45;&gt;dir_4e28d03358d26cc7ef852270dfdc4b1e -->
<g id="edge2" class="edge"><title>dir_25195d3308bac8cd1082ed7a447aeb6c&#45;&gt;dir_4e28d03358d26cc7ef852270dfdc4b1e</title>
<path fill="none" stroke="black" d="M145.472,-96.7646C128.03,-86.838 105.563,-74.0523 86.9157,-63.4399"/>
<polygon fill="black" stroke="black" points="88.5293,-60.3311 78.107,-58.4268 85.067,-66.4149 88.5293,-60.3311"/>
<g id="a_edge2&#45;headlabel"><a xlink:href="dir_000012_000019.html" target="_top" xlink:title="1">
<text text-anchor="middle" x="93.0578" y="-57.1414" font-family="Helvetica,sans-Serif" font-size="10.00">1</text>
</a>
</g>
</g>
<!-- dir_f16b7fa74ba7d1f6f478371b55ad29c1 -->
<g id="node3" class="node"><title>dir_f16b7fa74ba7d1f6f478371b55ad29c1</title>
<g id="a_node3"><a xlink:href="dir_f16b7fa74ba7d1f6f478371b55ad29c1.html" target="_top" xlink:title="convolution">
<polygon fill="white" stroke="black" points="162,-60 96,-60 96,-24 162,-24 162,-60"/>
<text text-anchor="middle" x="129" y="-39.5" font-family="Helvetica,sans-Serif" font-size="10.00">convolution</text>
</a>
</g>
</g>
<!-- dir_25195d3308bac8cd1082ed7a447aeb6c&#45;&gt;dir_f16b7fa74ba7d1f6f478371b55ad29c1 -->
<g id="edge4" class="edge"><title>dir_25195d3308bac8cd1082ed7a447aeb6c&#45;&gt;dir_f16b7fa74ba7d1f6f478371b55ad29c1</title>
<path fill="none" stroke="black" d="M162.876,-95.6966C157.645,-87.5589 151.3,-77.689 145.522,-68.7013"/>
<polygon fill="black" stroke="black" points="148.347,-66.6235 139.996,-60.1043 142.459,-70.4088 148.347,-66.6235"/>
<g id="a_edge4&#45;headlabel"><a xlink:href="dir_000012_000021.html" target="_top" xlink:title="1">
<text text-anchor="middle" x="152.679" y="-65.6118" font-family="Helvetica,sans-Serif" font-size="10.00">1</text>
</a>
</g>
</g>
<!-- dir_6f014f6a24df670545cd7a4546998a98 -->
<g id="node4" class="node"><title>dir_6f014f6a24df670545cd7a4546998a98</title>
<g id="a_node4"><a xlink:href="dir_6f014f6a24df670545cd7a4546998a98.html" target="_top" xlink:title="downsampling">
<polygon fill="white" stroke="black" points="259.25,-60 180.75,-60 180.75,-24 259.25,-24 259.25,-60"/>
<text text-anchor="middle" x="220" y="-39.5" font-family="Helvetica,sans-Serif" font-size="10.00">downsampling</text>
</a>
</g>
</g>
<!-- dir_25195d3308bac8cd1082ed7a447aeb6c&#45;&gt;dir_6f014f6a24df670545cd7a4546998a98 -->
<g id="edge3" class="edge"><title>dir_25195d3308bac8cd1082ed7a447aeb6c&#45;&gt;dir_6f014f6a24df670545cd7a4546998a98</title>
<path fill="none" stroke="black" d="M185.371,-95.6966C190.718,-87.5589 197.204,-77.689 203.111,-68.7013"/>
<polygon fill="black" stroke="black" points="206.193,-70.3835 208.76,-60.1043 200.343,-66.5393 206.193,-70.3835"/>
<g id="a_edge3&#45;headlabel"><a xlink:href="dir_000012_000020.html" target="_top" xlink:title="1">
<text text-anchor="middle" x="206.592" y="-72.4468" font-family="Helvetica,sans-Serif" font-size="10.00">1</text>
</a>
</g>
</g>
<!-- dir_dd9e72c0b4aa3d24d877e51d1860c913 -->
<g id="node5" class="node"><title>dir_dd9e72c0b4aa3d24d877e51d1860c913</title>
<g id="a_node5"><a xlink:href="dir_dd9e72c0b4aa3d24d877e51d1860c913.html" target="_top" xlink:title="experimental">
<polygon fill="white" stroke="black" points="350,-60 278,-60 278,-24 350,-24 350,-60"/>
<text text-anchor="middle" x="314" y="-39.5" font-family="Helvetica,sans-Serif" font-size="10.00">experimental</text>
</a>
</g>
</g>
<!-- dir_25195d3308bac8cd1082ed7a447aeb6c&#45;&gt;dir_dd9e72c0b4aa3d24d877e51d1860c913 -->
<g id="edge1" class="edge"><title>dir_25195d3308bac8cd1082ed7a447aeb6c&#45;&gt;dir_dd9e72c0b4aa3d24d877e51d1860c913</title>
<path fill="none" stroke="black" d="M202.331,-98.8345C221.906,-89.0468 248.317,-75.8414 270.539,-64.7303"/>
<polygon fill="black" stroke="black" points="272.396,-67.7154 279.775,-60.1127 269.265,-61.4544 272.396,-67.7154"/>
<g id="a_edge1&#45;headlabel"><a xlink:href="dir_000012_000013.html" target="_top" xlink:title="1">
<text text-anchor="middle" x="270.45" y="-69.3624" font-family="Helvetica,sans-Serif" font-size="10.00">1</text>
</a>
</g>
</g>
</g>
</svg>
