<?xml version="1.0" encoding="UTF-8" standalone="no"?>
<!DOCTYPE svg PUBLIC "-//W3C//DTD SVG 1.1//EN"
 "http://www.w3.org/Graphics/SVG/1.1/DTD/svg11.dtd">
<!-- Generated by graphviz version 2.43.0 (0)
 -->
<!-- Title: operators Pages: 1 -->
<svg width="408pt" height="183pt"
 viewBox="0.00 0.00 408.00 183.00" xmlns="http://www.w3.org/2000/svg" xmlns:xlink="http://www.w3.org/1999/xlink">
<g id="graph0" class="graph" transform="scale(1 1) rotate(0) translate(4 179)">
<title>operators</title>
<g id="clust1" class="cluster">
<title>clusterdir_d44c64559bbebec7f509842c48db8b23</title>
<g id="a_clust1"><a xlink:href="dir_d44c64559bbebec7f509842c48db8b23.html" target="_top" xlink:title="include">
<polygon fill="#ddddee" stroke="black" points="8,-8 8,-167 392,-167 392,-8 8,-8"/>
<text text-anchor="middle" x="200" y="-155" font-family="Helvetica,sans-Serif" font-size="10.00">include</text>
</a>
</g>
</g>
<g id="clust2" class="cluster">
<title>clusterdir_25195d3308bac8cd1082ed7a447aeb6c</title>
<g id="a_clust2"><a xlink:href="dir_25195d3308bac8cd1082ed7a447aeb6c.html" target="_top">
<polygon fill="#eeeeff" stroke="black" points="16,-16 16,-140 384,-140 384,-16 16,-16"/>
</a>
</g>
</g>
<!-- dir_25195d3308bac8cd1082ed7a447aeb6c -->
<g id="node1" class="node">
<title>dir_25195d3308bac8cd1082ed7a447aeb6c</title>
<text text-anchor="middle" x="182" y="-111.5" font-family="Helvetica,sans-Serif" font-size="10.00">operators</text>
</g>
<!-- dir_4e28d03358d26cc7ef852270dfdc4b1e -->
<g id="node2" class="node">
<title>dir_4e28d03358d26cc7ef852270dfdc4b1e</title>
<g id="a_node2"><a xlink:href="dir_4e28d03358d26cc7ef852270dfdc4b1e.html" target="_top" xlink:title="convert">
<polygon fill="white" stroke="black" points="78,-60 24,-60 24,-24 78,-24 78,-60"/>
<text text-anchor="middle" x="51" y="-39.5" font-family="Helvetica,sans-Serif" font-size="10.00">convert</text>
</a>
</g>
</g>
<!-- dir_25195d3308bac8cd1082ed7a447aeb6c&#45;&gt;dir_4e28d03358d26cc7ef852270dfdc4b1e -->
<g id="edge1" class="edge">
<title>dir_25195d3308bac8cd1082ed7a447aeb6c&#45;&gt;dir_4e28d03358d26cc7ef852270dfdc4b1e</title>
<path fill="none" stroke="black" d="M150.29,-96.05C131.33,-85.93 107.17,-73.02 87.43,-62.47"/>
<polygon fill="black" stroke="black" points="88.9,-59.28 78.43,-57.66 85.6,-65.46 88.9,-59.28"/>
<g id="a_edge1&#45;headlabel"><a xlink:href="dir_000012_000019.html" target="_top" xlink:title="1">
<text text-anchor="middle" x="93.4" y="-55.97" font-family="Helvetica,sans-Serif" font-size="10.00">1</text>
</a>
</g>
</g>
<!-- dir_f16b7fa74ba7d1f6f478371b55ad29c1 -->
<g id="node3" class="node">
<title>dir_f16b7fa74ba7d1f6f478371b55ad29c1</title>
<g id="a_node3"><a xlink:href="dir_f16b7fa74ba7d1f6f478371b55ad29c1.html" target="_top" xlink:title="convolution">
<polygon fill="white" stroke="black" points="170,-60 96,-60 96,-24 170,-24 170,-60"/>
<text text-anchor="middle" x="133" y="-39.5" font-family="Helvetica,sans-Serif" font-size="10.00">convolution</text>
</a>
</g>
</g>
<!-- dir_25195d3308bac8cd1082ed7a447aeb6c&#45;&gt;dir_f16b7fa74ba7d1f6f478371b55ad29c1 -->
<g id="edge4" class="edge">
<title>dir_25195d3308bac8cd1082ed7a447aeb6c&#45;&gt;dir_f16b7fa74ba7d1f6f478371b55ad29c1</title>
<path fill="none" stroke="black" d="M169.89,-95.7C164.13,-87.47 157.14,-77.48 150.79,-68.42"/>
<polygon fill="black" stroke="black" points="153.58,-66.29 144.97,-60.1 147.84,-70.3 153.58,-66.29"/>
<g id="a_edge4&#45;headlabel"><a xlink:href="dir_000012_000021.html" target="_top" xlink:title="1">
<text text-anchor="middle" x="157.96" y="-65.11" font-family="Helvetica,sans-Serif" font-size="10.00">1</text>
</a>
</g>
</g>
<!-- dir_6f014f6a24df670545cd7a4546998a98 -->
<g id="node4" class="node">
<title>dir_6f014f6a24df670545cd7a4546998a98</title>
<g id="a_node4"><a xlink:href="dir_6f014f6a24df670545cd7a4546998a98.html" target="_top" xlink:title="downsampling">
<polygon fill="white" stroke="black" points="276,-60 188,-60 188,-24 276,-24 276,-60"/>
<text text-anchor="middle" x="232" y="-39.5" font-family="Helvetica,sans-Serif" font-size="10.00">downsampling</text>
</a>
</g>
</g>
<!-- dir_25195d3308bac8cd1082ed7a447aeb6c&#45;&gt;dir_6f014f6a24df670545cd7a4546998a98 -->
<g id="edge2" class="edge">
<title>dir_25195d3308bac8cd1082ed7a447aeb6c&#45;&gt;dir_6f014f6a24df670545cd7a4546998a98</title>
<path fill="none" stroke="black" d="M194.36,-95.7C200.23,-87.47 207.37,-77.48 213.84,-68.42"/>
<polygon fill="black" stroke="black" points="216.82,-70.28 219.78,-60.1 211.12,-66.21 216.82,-70.28"/>
<g id="a_edge2&#45;headlabel"><a xlink:href="dir_000012_000020.html" target="_top" xlink:title="1">
<text text-anchor="middle" x="217.04" y="-72.35" font-family="Helvetica,sans-Serif" font-size="10.00">1</text>
</a>
</g>
</g>
<!-- dir_dd9e72c0b4aa3d24d877e51d1860c913 -->
<g id="node5" class="node">
<title>dir_dd9e72c0b4aa3d24d877e51d1860c913</title>
<g id="a_node5"><a xlink:href="dir_dd9e72c0b4aa3d24d877e51d1860c913.html" target="_top" xlink:title="experimental">
<polygon fill="white" stroke="black" points="376,-60 294,-60 294,-24 376,-24 376,-60"/>
<text text-anchor="middle" x="335" y="-39.5" font-family="Helvetica,sans-Serif" font-size="10.00">experimental</text>
</a>
</g>
</g>
<!-- dir_25195d3308bac8cd1082ed7a447aeb6c&#45;&gt;dir_dd9e72c0b4aa3d24d877e51d1860c913 -->
<g id="edge3" class="edge">
<title>dir_25195d3308bac8cd1082ed7a447aeb6c&#45;&gt;dir_dd9e72c0b4aa3d24d877e51d1860c913</title>
<path fill="none" stroke="black" d="M213.7,-98.5C235.26,-88.63 264.15,-75.42 288.32,-64.36"/>
<polygon fill="black" stroke="black" points="290.04,-67.42 297.67,-60.08 287.12,-61.05 290.04,-67.42"/>
<g id="a_edge3&#45;headlabel"><a xlink:href="dir_000012_000013.html" target="_top" xlink:title="1">
<text text-anchor="middle" x="287.95" y="-69" font-family="Helvetica,sans-Serif" font-size="10.00">1</text>
</a>
</g>
</g>
</g>
</svg>
