<?xml version="1.0" encoding="UTF-8" standalone="no"?>
<!DOCTYPE svg PUBLIC "-//W3C//DTD SVG 1.1//EN"
 "http://www.w3.org/Graphics/SVG/1.1/DTD/svg11.dtd">
<!-- Generated by graphviz version 2.43.0 (0)
 -->
<!-- Title: evaluator Pages: 1 -->
<svg width="340pt" height="183pt"
 viewBox="0.00 0.00 340.00 183.00" xmlns="http://www.w3.org/2000/svg" xmlns:xlink="http://www.w3.org/1999/xlink">
<g id="graph0" class="graph" transform="scale(1 1) rotate(0) translate(4 179)">
<title>evaluator</title>
<g id="clust1" class="cluster">
<title>clusterdir_83443285122052e1a9eda09d5fe5f578</title>
<g id="a_clust1"><a xlink:href="dir_83443285122052e1a9eda09d5fe5f578.html" target="_top" xlink:title="framework">
<polygon fill="#ddddee" stroke="black" points="8,-8 8,-167 324,-167 324,-8 8,-8"/>
<text text-anchor="middle" x="166" y="-155" font-family="Helvetica,sans-Serif" font-size="10.00">framework</text>
</a>
</g>
</g>
<g id="clust2" class="cluster">
<title>clusterdir_04b666dd8724989f1af94f41ef5ab13b</title>
<g id="a_clust2"><a xlink:href="dir_04b666dd8724989f1af94f41ef5ab13b.html" target="_top">
<polygon fill="#eeeeff" stroke="black" points="16,-16 16,-140 316,-140 316,-16 16,-16"/>
</a>
</g>
</g>
<!-- dir_04b666dd8724989f1af94f41ef5ab13b -->
<g id="node1" class="node">
<title>dir_04b666dd8724989f1af94f41ef5ab13b</title>
<text text-anchor="middle" x="164" y="-111.5" font-family="Helvetica,sans-Serif" font-size="10.00">evaluator</text>
</g>
<!-- dir_18a7efce2d48db32d5db4196eb0a5fe8 -->
<g id="node2" class="node">
<title>dir_18a7efce2d48db32d5db4196eb0a5fe8</title>
<g id="a_node2"><a xlink:href="dir_18a7efce2d48db32d5db4196eb0a5fe8.html" target="_top" xlink:title="eval_assign">
<polygon fill="white" stroke="black" points="98,-60 24,-60 24,-24 98,-24 98,-60"/>
<text text-anchor="middle" x="61" y="-39.5" font-family="Helvetica,sans-Serif" font-size="10.00">eval_assign</text>
</a>
</g>
</g>
<!-- dir_04b666dd8724989f1af94f41ef5ab13b&#45;&gt;dir_18a7efce2d48db32d5db4196eb0a5fe8 -->
<g id="edge3" class="edge">
<title>dir_04b666dd8724989f1af94f41ef5ab13b&#45;&gt;dir_18a7efce2d48db32d5db4196eb0a5fe8</title>
<path fill="none" stroke="black" d="M138.8,-95.88C125.59,-86.89 109.21,-75.76 94.89,-66.03"/>
<polygon fill="black" stroke="black" points="96.53,-62.92 86.29,-60.19 92.6,-68.71 96.53,-62.92"/>
<g id="a_edge3&#45;headlabel"><a xlink:href="dir_000008_000009.html" target="_top" xlink:title="2">
<text text-anchor="middle" x="101.1" y="-60.09" font-family="Helvetica,sans-Serif" font-size="10.00">2</text>
</a>
</g>
</g>
<!-- dir_4234c64fe88554b4313dc5a5e499d89f -->
<g id="node3" class="node">
<title>dir_4234c64fe88554b4313dc5a5e499d89f</title>
<g id="a_node3"><a xlink:href="dir_4234c64fe88554b4313dc5a5e499d89f.html" target="_top" xlink:title="eval_expression">
<polygon fill="white" stroke="black" points="212,-60 116,-60 116,-24 212,-24 212,-60"/>
<text text-anchor="middle" x="164" y="-39.5" font-family="Helvetica,sans-Serif" font-size="10.00">eval_expression</text>
</a>
</g>
</g>
<!-- dir_04b666dd8724989f1af94f41ef5ab13b&#45;&gt;dir_4234c64fe88554b4313dc5a5e499d89f -->
<g id="edge1" class="edge">
<title>dir_04b666dd8724989f1af94f41ef5ab13b&#45;&gt;dir_4234c64fe88554b4313dc5a5e499d89f</title>
<path fill="none" stroke="black" d="M164,-95.7C164,-87.98 164,-78.71 164,-70.11"/>
<polygon fill="black" stroke="black" points="167.5,-70.1 164,-60.1 160.5,-70.1 167.5,-70.1"/>
<g id="a_edge1&#45;headlabel"><a xlink:href="dir_000008_000010.html" target="_top" xlink:title="1">
<text text-anchor="middle" x="170.34" y="-71.2" font-family="Helvetica,sans-Serif" font-size="10.00">1</text>
</a>
</g>
</g>
<!-- dir_5de23e2c86dc921e208436556fff6349 -->
<g id="node4" class="node">
<title>dir_5de23e2c86dc921e208436556fff6349</title>
<g id="a_node4"><a xlink:href="dir_5de23e2c86dc921e208436556fff6349.html" target="_top" xlink:title="load_pattern">
<polygon fill="white" stroke="black" points="308,-60 230,-60 230,-24 308,-24 308,-60"/>
<text text-anchor="middle" x="269" y="-39.5" font-family="Helvetica,sans-Serif" font-size="10.00">load_pattern</text>
</a>
</g>
</g>
<!-- dir_04b666dd8724989f1af94f41ef5ab13b&#45;&gt;dir_5de23e2c86dc921e208436556fff6349 -->
<g id="edge2" class="edge">
<title>dir_04b666dd8724989f1af94f41ef5ab13b&#45;&gt;dir_5de23e2c86dc921e208436556fff6349</title>
<path fill="none" stroke="black" d="M189.69,-95.88C203.29,-86.81 220.17,-75.55 234.86,-65.76"/>
<polygon fill="black" stroke="black" points="236.84,-68.65 243.22,-60.19 232.95,-62.82 236.84,-68.65"/>
<g id="a_edge2&#45;headlabel"><a xlink:href="dir_000008_000023.html" target="_top" xlink:title="1">
<text text-anchor="middle" x="235.42" y="-70.51" font-family="Helvetica,sans-Serif" font-size="10.00">1</text>
</a>
</g>
</g>
</g>
</svg>
