<?xml version="1.0" encoding="UTF-8" standalone="no"?>
<!DOCTYPE svg PUBLIC "-//W3C//DTD SVG 1.1//EN"
 "http://www.w3.org/Graphics/SVG/1.1/DTD/svg11.dtd">
<!-- Generated by graphviz version 2.43.0 (0)
 -->
<!-- Title: expr_tree Pages: 1 -->
<svg width="326pt" height="183pt"
 viewBox="0.00 0.00 326.00 183.00" xmlns="http://www.w3.org/2000/svg" xmlns:xlink="http://www.w3.org/1999/xlink">
<g id="graph0" class="graph" transform="scale(1 1) rotate(0) translate(4 179)">
<title>expr_tree</title>
<g id="clust1" class="cluster">
<title>clusterdir_83443285122052e1a9eda09d5fe5f578</title>
<g id="a_clust1"><a xlink:href="dir_83443285122052e1a9eda09d5fe5f578.html" target="_top" xlink:title="framework">
<polygon fill="#ddddee" stroke="black" points="8,-8 8,-167 310,-167 310,-8 8,-8"/>
<text text-anchor="middle" x="159" y="-155" font-family="Helvetica,sans-Serif" font-size="10.00">framework</text>
</a>
</g>
</g>
<g id="clust2" class="cluster">
<title>clusterdir_4f0ee70c904390457cd24b607efe9a0d</title>
<g id="a_clust2"><a xlink:href="dir_4f0ee70c904390457cd24b607efe9a0d.html" target="_top">
<polygon fill="#eeeeff" stroke="black" points="16,-16 16,-140 302,-140 302,-16 16,-16"/>
</a>
</g>
</g>
<!-- dir_4f0ee70c904390457cd24b607efe9a0d -->
<g id="node1" class="node">
<title>dir_4f0ee70c904390457cd24b607efe9a0d</title>
<text text-anchor="middle" x="168" y="-111.5" font-family="Helvetica,sans-Serif" font-size="10.00">expr_tree</text>
</g>
<!-- dir_a71567db66ec33abb4b53e669d109bfe -->
<g id="node2" class="node">
<title>dir_a71567db66ec33abb4b53e669d109bfe</title>
<g id="a_node2"><a xlink:href="dir_a71567db66ec33abb4b53e669d109bfe.html" target="_top" xlink:title="complex_ops">
<polygon fill="white" stroke="black" points="105.5,-60 24.5,-60 24.5,-24 105.5,-24 105.5,-60"/>
<text text-anchor="middle" x="65" y="-39.5" font-family="Helvetica,sans-Serif" font-size="10.00">complex_ops</text>
</a>
</g>
</g>
<!-- dir_4f0ee70c904390457cd24b607efe9a0d&#45;&gt;dir_a71567db66ec33abb4b53e669d109bfe -->
<g id="edge3" class="edge">
<title>dir_4f0ee70c904390457cd24b607efe9a0d&#45;&gt;dir_a71567db66ec33abb4b53e669d109bfe</title>
<path fill="none" stroke="black" d="M142.8,-95.88C129.59,-86.89 113.21,-75.76 98.89,-66.03"/>
<polygon fill="black" stroke="black" points="100.53,-62.92 90.29,-60.19 96.6,-68.71 100.53,-62.92"/>
<g id="a_edge3&#45;headlabel"><a xlink:href="dir_000002_000004.html" target="_top" xlink:title="1">
<text text-anchor="middle" x="105.1" y="-60.09" font-family="Helvetica,sans-Serif" font-size="10.00">1</text>
</a>
</g>
</g>
<!-- dir_11f4dfcee43d8ecc5922c85cdf43ea65 -->
<g id="node3" class="node">
<title>dir_11f4dfcee43d8ecc5922c85cdf43ea65</title>
<g id="a_node3"><a xlink:href="dir_11f4dfcee43d8ecc5922c85cdf43ea65.html" target="_top" xlink:title="neighbour_ops">
<polygon fill="white" stroke="black" points="212,-60 124,-60 124,-24 212,-24 212,-60"/>
<text text-anchor="middle" x="168" y="-39.5" font-family="Helvetica,sans-Serif" font-size="10.00">neighbour_ops</text>
</a>
</g>
</g>
<!-- dir_4f0ee70c904390457cd24b607efe9a0d&#45;&gt;dir_11f4dfcee43d8ecc5922c85cdf43ea65 -->
<g id="edge1" class="edge">
<title>dir_4f0ee70c904390457cd24b607efe9a0d&#45;&gt;dir_11f4dfcee43d8ecc5922c85cdf43ea65</title>
<path fill="none" stroke="black" d="M168,-95.7C168,-87.98 168,-78.71 168,-70.11"/>
<polygon fill="black" stroke="black" points="171.5,-70.1 168,-60.1 164.5,-70.1 171.5,-70.1"/>
<g id="a_edge1&#45;headlabel"><a xlink:href="dir_000002_000018.html" target="_top" xlink:title="1">
<text text-anchor="middle" x="174.34" y="-71.2" font-family="Helvetica,sans-Serif" font-size="10.00">1</text>
</a>
</g>
</g>
<!-- dir_55fcb38f0c99c6eee646dff84fb67bd1 -->
<g id="node4" class="node">
<title>dir_55fcb38f0c99c6eee646dff84fb67bd1</title>
<g id="a_node4"><a xlink:href="dir_55fcb38f0c99c6eee646dff84fb67bd1.html" target="_top" xlink:title="point_ops">
<polygon fill="white" stroke="black" points="294,-60 230,-60 230,-24 294,-24 294,-60"/>
<text text-anchor="middle" x="262" y="-39.5" font-family="Helvetica,sans-Serif" font-size="10.00">point_ops</text>
</a>
</g>
</g>
<!-- dir_4f0ee70c904390457cd24b607efe9a0d&#45;&gt;dir_55fcb38f0c99c6eee646dff84fb67bd1 -->
<g id="edge2" class="edge">
<title>dir_4f0ee70c904390457cd24b607efe9a0d&#45;&gt;dir_55fcb38f0c99c6eee646dff84fb67bd1</title>
<path fill="none" stroke="black" d="M191.24,-95.7C203.19,-86.8 217.92,-75.82 230.85,-66.2"/>
<polygon fill="black" stroke="black" points="233.1,-68.88 239.03,-60.1 228.92,-63.27 233.1,-68.88"/>
<g id="a_edge2&#45;headlabel"><a xlink:href="dir_000002_000003.html" target="_top" xlink:title="1">
<text text-anchor="middle" x="231.91" y="-70.81" font-family="Helvetica,sans-Serif" font-size="10.00">1</text>
</a>
</g>
</g>
</g>
</svg>
