<?xml version="1.0" encoding="UTF-8" standalone="no"?>
<!DOCTYPE svg PUBLIC "-//W3C//DTD SVG 1.1//EN"
 "http://www.w3.org/Graphics/SVG/1.1/DTD/svg11.dtd">
<!-- Generated by graphviz version 2.36.0 (20140111.2315)
 -->
<!-- Title: expr_tree Pages: 1 -->
<svg width="306pt" height="183pt"
 viewBox="0.00 0.00 306.00 183.00" xmlns="http://www.w3.org/2000/svg" xmlns:xlink="http://www.w3.org/1999/xlink">
<g id="graph0" class="graph" transform="scale(1 1) rotate(0) translate(4 179)">
<title>expr_tree</title>
<g id="clust1" class="cluster"><title>clusterdir_83443285122052e1a9eda09d5fe5f578</title>
<g id="a_clust1"><a xlink:href="dir_83443285122052e1a9eda09d5fe5f578.html" target="_top" xlink:title="framework">
<polygon fill="#ddddee" stroke="black" points="8,-8 8,-167 290,-167 290,-8 8,-8"/>
<text text-anchor="middle" x="149" y="-155" font-family="Helvetica,sans-Serif" font-size="10.00">framework</text>
</a>
</g>
</g>
<g id="clust2" class="cluster"><title>clusterdir_4f0ee70c904390457cd24b607efe9a0d</title>
<g id="a_clust2"><a xlink:href="dir_4f0ee70c904390457cd24b607efe9a0d.html" target="_top">
<polygon fill="#eeeeff" stroke="black" points="16,-16 16,-140 282,-140 282,-16 16,-16"/>
</a>
</g>
</g>
<!-- dir_4f0ee70c904390457cd24b607efe9a0d -->
<g id="node1" class="node"><title>dir_4f0ee70c904390457cd24b607efe9a0d</title>
<text text-anchor="middle" x="156" y="-111.5" font-family="Helvetica,sans-Serif" font-size="10.00">expr_tree</text>
</g>
<!-- dir_a71567db66ec33abb4b53e669d109bfe -->
<g id="node2" class="node"><title>dir_a71567db66ec33abb4b53e669d109bfe</title>
<g id="a_node2"><a xlink:href="dir_a71567db66ec33abb4b53e669d109bfe.html" target="_top" xlink:title="complex_ops">
<polygon fill="white" stroke="black" points="98,-60 24,-60 24,-24 98,-24 98,-60"/>
<text text-anchor="middle" x="61" y="-39.5" font-family="Helvetica,sans-Serif" font-size="10.00">complex_ops</text>
</a>
</g>
</g>
<!-- dir_4f0ee70c904390457cd24b607efe9a0d&#45;&gt;dir_a71567db66ec33abb4b53e669d109bfe -->
<g id="edge1" class="edge"><title>dir_4f0ee70c904390457cd24b607efe9a0d&#45;&gt;dir_a71567db66ec33abb4b53e669d109bfe</title>
<path fill="none" stroke="black" d="M132.517,-95.6966C120.437,-86.796 105.546,-75.8232 92.4842,-66.1989"/>
<polygon fill="black" stroke="black" points="94.3398,-63.2187 84.213,-60.1043 90.1874,-68.8541 94.3398,-63.2187"/>
<g id="a_edge1&#45;headlabel"><a xlink:href="dir_000002_000004.html" target="_top" xlink:title="1">
<text text-anchor="middle" x="98.9179" y="-60.5652" font-family="Helvetica,sans-Serif" font-size="10.00">1</text>
</a>
</g>
</g>
<!-- dir_11f4dfcee43d8ecc5922c85cdf43ea65 -->
<g id="node3" class="node"><title>dir_11f4dfcee43d8ecc5922c85cdf43ea65</title>
<g id="a_node3"><a xlink:href="dir_11f4dfcee43d8ecc5922c85cdf43ea65.html" target="_top" xlink:title="neighbour_ops">
<polygon fill="white" stroke="black" points="196,-60 116,-60 116,-24 196,-24 196,-60"/>
<text text-anchor="middle" x="156" y="-39.5" font-family="Helvetica,sans-Serif" font-size="10.00">neighbour_ops</text>
</a>
</g>
</g>
<!-- dir_4f0ee70c904390457cd24b607efe9a0d&#45;&gt;dir_11f4dfcee43d8ecc5922c85cdf43ea65 -->
<g id="edge3" class="edge"><title>dir_4f0ee70c904390457cd24b607efe9a0d&#45;&gt;dir_11f4dfcee43d8ecc5922c85cdf43ea65</title>
<path fill="none" stroke="black" d="M156,-95.6966C156,-87.9827 156,-78.7125 156,-70.1124"/>
<polygon fill="black" stroke="black" points="159.5,-70.1043 156,-60.1043 152.5,-70.1044 159.5,-70.1043"/>
<g id="a_edge3&#45;headlabel"><a xlink:href="dir_000002_000018.html" target="_top" xlink:title="1">
<text text-anchor="middle" x="162.339" y="-71.199" font-family="Helvetica,sans-Serif" font-size="10.00">1</text>
</a>
</g>
</g>
<!-- dir_55fcb38f0c99c6eee646dff84fb67bd1 -->
<g id="node4" class="node"><title>dir_55fcb38f0c99c6eee646dff84fb67bd1</title>
<g id="a_node4"><a xlink:href="dir_55fcb38f0c99c6eee646dff84fb67bd1.html" target="_top" xlink:title="point_ops">
<polygon fill="white" stroke="black" points="273.25,-60 214.75,-60 214.75,-24 273.25,-24 273.25,-60"/>
<text text-anchor="middle" x="244" y="-39.5" font-family="Helvetica,sans-Serif" font-size="10.00">point_ops</text>
</a>
</g>
</g>
<!-- dir_4f0ee70c904390457cd24b607efe9a0d&#45;&gt;dir_55fcb38f0c99c6eee646dff84fb67bd1 -->
<g id="edge2" class="edge"><title>dir_4f0ee70c904390457cd24b607efe9a0d&#45;&gt;dir_55fcb38f0c99c6eee646dff84fb67bd1</title>
<path fill="none" stroke="black" d="M177.753,-95.6966C188.836,-86.8807 202.474,-76.0321 214.49,-66.4742"/>
<polygon fill="black" stroke="black" points="216.85,-69.0687 222.497,-60.1043 212.493,-63.5905 216.85,-69.0687"/>
<g id="a_edge2&#45;headlabel"><a xlink:href="dir_000002_000003.html" target="_top" xlink:title="1">
<text text-anchor="middle" x="215.805" y="-71.0284" font-family="Helvetica,sans-Serif" font-size="10.00">1</text>
</a>
</g>
</g>
</g>
</svg>
