<?xml version="1.0" encoding="UTF-8" standalone="no"?>
<!DOCTYPE svg PUBLIC "-//W3C//DTD SVG 1.1//EN"
 "http://www.w3.org/Graphics/SVG/1.1/DTD/svg11.dtd">
<!-- Generated by graphviz version 2.43.0 (0)
 -->
<!-- Title: pixel Pages: 1 -->
<svg width="110pt" height="167pt"
 viewBox="0.00 0.00 110.00 167.00" xmlns="http://www.w3.org/2000/svg" xmlns:xlink="http://www.w3.org/1999/xlink">
<g id="graph0" class="graph" transform="scale(1 1) rotate(0) translate(4 163)">
<title>pixel</title>
<g id="clust1" class="cluster">
<title>clusterdir_d44c64559bbebec7f509842c48db8b23</title>
<g id="a_clust1"><a xlink:href="dir_d44c64559bbebec7f509842c48db8b23.html" target="_top" xlink:title="include">
<polygon fill="#ddddee" stroke="black" points="8,-8 8,-151 94,-151 94,-8 8,-8"/>
<text text-anchor="middle" x="51" y="-139" font-family="Helvetica,sans-Serif" font-size="10.00">include</text>
</a>
</g>
</g>
<!-- dir_83443285122052e1a9eda09d5fe5f578 -->
<g id="node1" class="node">
<title>dir_83443285122052e1a9eda09d5fe5f578</title>
<g id="a_node1"><a xlink:href="dir_83443285122052e1a9eda09d5fe5f578.html" target="_top" xlink:title="framework">
<polygon fill="none" stroke="red" points="86,-52 16,-52 16,-16 86,-16 86,-52"/>
<text text-anchor="middle" x="51" y="-31.5" font-family="Helvetica,sans-Serif" font-size="10.00">framework</text>
</a>
</g>
</g>
<!-- dir_a046220c41b7f6faaa7c7b10adeeeb95 -->
<g id="node2" class="node">
<title>dir_a046220c41b7f6faaa7c7b10adeeeb95</title>
<g id="a_node2"><a xlink:href="dir_a046220c41b7f6faaa7c7b10adeeeb95.html" target="_top" xlink:title="pixel">
<polygon fill="#eeeeff" stroke="black" points="78,-124 24,-124 24,-88 78,-88 78,-124"/>
<text text-anchor="middle" x="51" y="-103.5" font-family="Helvetica,sans-Serif" font-size="10.00">pixel</text>
</a>
</g>
</g>
<!-- dir_a046220c41b7f6faaa7c7b10adeeeb95&#45;&gt;dir_83443285122052e1a9eda09d5fe5f578 -->
<g id="edge1" class="edge">
<title>dir_a046220c41b7f6faaa7c7b10adeeeb95&#45;&gt;dir_83443285122052e1a9eda09d5fe5f578</title>
<path fill="none" stroke="black" d="M51,-87.7C51,-79.98 51,-70.71 51,-62.11"/>
<polygon fill="black" stroke="black" points="54.5,-62.1 51,-52.1 47.5,-62.1 54.5,-62.1"/>
<g id="a_edge1&#45;headlabel"><a xlink:href="dir_000022_000001.html" target="_top" xlink:title="1">
<text text-anchor="middle" x="57.34" y="-63.2" font-family="Helvetica,sans-Serif" font-size="10.00">1</text>
</a>
</g>
</g>
</g>
</svg>
