<?xml version="1.0" encoding="UTF-8" standalone="no"?>
<!DOCTYPE svg PUBLIC "-//W3C//DTD SVG 1.1//EN"
 "http://www.w3.org/Graphics/SVG/1.1/DTD/svg11.dtd">
<!-- Generated by graphviz version 2.36.0 (20140111.2315)
 -->
<!-- Title: evaluator Pages: 1 -->
<svg width="318pt" height="183pt"
 viewBox="0.00 0.00 318.00 183.00" xmlns="http://www.w3.org/2000/svg" xmlns:xlink="http://www.w3.org/1999/xlink">
<g id="graph0" class="graph" transform="scale(1 1) rotate(0) translate(4 179)">
<title>evaluator</title>
<g id="clust1" class="cluster"><title>clusterdir_83443285122052e1a9eda09d5fe5f578</title>
<g id="a_clust1"><a xlink:href="dir_83443285122052e1a9eda09d5fe5f578.html" target="_top" xlink:title="framework">
<polygon fill="#ddddee" stroke="black" points="8,-8 8,-167 302,-167 302,-8 8,-8"/>
<text text-anchor="middle" x="155" y="-155" font-family="Helvetica,sans-Serif" font-size="10.00">framework</text>
</a>
</g>
</g>
<g id="clust2" class="cluster"><title>clusterdir_04b666dd8724989f1af94f41ef5ab13b</title>
<g id="a_clust2"><a xlink:href="dir_04b666dd8724989f1af94f41ef5ab13b.html" target="_top">
<polygon fill="#eeeeff" stroke="black" points="16,-16 16,-140 294,-140 294,-16 16,-16"/>
</a>
</g>
</g>
<!-- dir_04b666dd8724989f1af94f41ef5ab13b -->
<g id="node1" class="node"><title>dir_04b666dd8724989f1af94f41ef5ab13b</title>
<text text-anchor="middle" x="154" y="-111.5" font-family="Helvetica,sans-Serif" font-size="10.00">evaluator</text>
</g>
<!-- dir_18a7efce2d48db32d5db4196eb0a5fe8 -->
<g id="node2" class="node"><title>dir_18a7efce2d48db32d5db4196eb0a5fe8</title>
<g id="a_node2"><a xlink:href="dir_18a7efce2d48db32d5db4196eb0a5fe8.html" target="_top" xlink:title="eval_assign">
<polygon fill="white" stroke="black" points="92,-60 24,-60 24,-24 92,-24 92,-60"/>
<text text-anchor="middle" x="58" y="-39.5" font-family="Helvetica,sans-Serif" font-size="10.00">eval_assign</text>
</a>
</g>
</g>
<!-- dir_04b666dd8724989f1af94f41ef5ab13b&#45;&gt;dir_18a7efce2d48db32d5db4196eb0a5fe8 -->
<g id="edge3" class="edge"><title>dir_04b666dd8724989f1af94f41ef5ab13b&#45;&gt;dir_18a7efce2d48db32d5db4196eb0a5fe8</title>
<path fill="none" stroke="black" d="M130.27,-95.6966C118.063,-86.796 103.015,-75.8232 89.8156,-66.1989"/>
<polygon fill="black" stroke="black" points="91.5996,-63.1681 81.4574,-60.1043 87.4753,-68.8241 91.5996,-63.1681"/>
<g id="a_edge3&#45;headlabel"><a xlink:href="dir_000008_000009.html" target="_top" xlink:title="2">
<text text-anchor="middle" x="96.1768" y="-60.4917" font-family="Helvetica,sans-Serif" font-size="10.00">2</text>
</a>
</g>
</g>
<!-- dir_4234c64fe88554b4313dc5a5e499d89f -->
<g id="node3" class="node"><title>dir_4234c64fe88554b4313dc5a5e499d89f</title>
<g id="a_node3"><a xlink:href="dir_4234c64fe88554b4313dc5a5e499d89f.html" target="_top" xlink:title="eval_expression">
<polygon fill="white" stroke="black" points="197.25,-60 110.75,-60 110.75,-24 197.25,-24 197.25,-60"/>
<text text-anchor="middle" x="154" y="-39.5" font-family="Helvetica,sans-Serif" font-size="10.00">eval_expression</text>
</a>
</g>
</g>
<!-- dir_04b666dd8724989f1af94f41ef5ab13b&#45;&gt;dir_4234c64fe88554b4313dc5a5e499d89f -->
<g id="edge1" class="edge"><title>dir_04b666dd8724989f1af94f41ef5ab13b&#45;&gt;dir_4234c64fe88554b4313dc5a5e499d89f</title>
<path fill="none" stroke="black" d="M154,-95.6966C154,-87.9827 154,-78.7125 154,-70.1124"/>
<polygon fill="black" stroke="black" points="157.5,-70.1043 154,-60.1043 150.5,-70.1044 157.5,-70.1043"/>
<g id="a_edge1&#45;headlabel"><a xlink:href="dir_000008_000010.html" target="_top" xlink:title="1">
<text text-anchor="middle" x="160.339" y="-71.199" font-family="Helvetica,sans-Serif" font-size="10.00">1</text>
</a>
</g>
</g>
<!-- dir_5de23e2c86dc921e208436556fff6349 -->
<g id="node4" class="node"><title>dir_5de23e2c86dc921e208436556fff6349</title>
<g id="a_node4"><a xlink:href="dir_5de23e2c86dc921e208436556fff6349.html" target="_top" xlink:title="load_pattern">
<polygon fill="white" stroke="black" points="286,-60 216,-60 216,-24 286,-24 286,-60"/>
<text text-anchor="middle" x="251" y="-39.5" font-family="Helvetica,sans-Serif" font-size="10.00">load_pattern</text>
</a>
</g>
</g>
<!-- dir_04b666dd8724989f1af94f41ef5ab13b&#45;&gt;dir_5de23e2c86dc921e208436556fff6349 -->
<g id="edge2" class="edge"><title>dir_04b666dd8724989f1af94f41ef5ab13b&#45;&gt;dir_5de23e2c86dc921e208436556fff6349</title>
<path fill="none" stroke="black" d="M177.978,-95.6966C190.311,-86.796 205.516,-75.8232 218.853,-66.1989"/>
<polygon fill="black" stroke="black" points="221.237,-68.7944 227.298,-60.1043 217.141,-63.1181 221.237,-68.7944"/>
<g id="a_edge2&#45;headlabel"><a xlink:href="dir_000008_000023.html" target="_top" xlink:title="1">
<text text-anchor="middle" x="219.984" y="-70.7002" font-family="Helvetica,sans-Serif" font-size="10.00">1</text>
</a>
</g>
</g>
</g>
</svg>
