<?xml version="1.0" encoding="UTF-8" standalone="no"?>
<!DOCTYPE svg PUBLIC "-//W3C//DTD SVG 1.1//EN"
 "http://www.w3.org/Graphics/SVG/1.1/DTD/svg11.dtd">
<!-- Generated by graphviz version 2.36.0 (20140111.2315)
 -->
<!-- Title: evaluator.hpp Pages: 1 -->
<svg width="946pt" height="152pt"
 viewBox="0.00 0.00 946.00 152.00" xmlns="http://www.w3.org/2000/svg" xmlns:xlink="http://www.w3.org/1999/xlink">
<g id="graph0" class="graph" transform="scale(1 1) rotate(0) translate(4 148)">
<title>evaluator.hpp</title>
<!-- Node1 -->
<g id="node1" class="node"><title>Node1</title>
<polygon fill="#bfbfbf" stroke="black" points="359.5,-124.5 359.5,-143.5 434.5,-143.5 434.5,-124.5 359.5,-124.5"/>
<text text-anchor="middle" x="397" y="-131.5" font-family="Helvetica,sans-Serif" font-size="10.00">evaluator.hpp</text>
</g>
<!-- Node2 -->
<g id="node2" class="node"><title>Node2</title>
<g id="a_node2"><a xlink:href="eval__assign_8hpp.html" target="_top" xlink:title="This file contains the specialisation of the Evaluator struct for assign when it is a root struct...">
<polygon fill="none" stroke="black" points="108,-62.5 108,-81.5 250,-81.5 250,-62.5 108,-62.5"/>
<text text-anchor="middle" x="179" y="-69.5" font-family="Helvetica,sans-Serif" font-size="10.00">eval_assign/eval_assign.hpp</text>
</a>
</g>
</g>
<!-- Node1&#45;&gt;Node2 -->
<g id="edge1" class="edge"><title>Node1&#45;&gt;Node2</title>
<path fill="none" stroke="midnightblue" d="M365.766,-124.403C327.4,-113.844 262.213,-95.9027 219.889,-84.2538"/>
<polygon fill="midnightblue" stroke="midnightblue" points="220.746,-80.8598 210.176,-81.5806 218.889,-87.6088 220.746,-80.8598"/>
</g>
<!-- Node3 -->
<g id="node3" class="node"><title>Node3</title>
<g id="a_node3"><a xlink:href="eval__assign__partial_8hpp.html" target="_top" xlink:title="This file contains the specialisation of the Evaluator struct for assign when it is a root struct...">
<polygon fill="none" stroke="black" points="268.5,-57 268.5,-87 391.5,-87 391.5,-57 268.5,-57"/>
<text text-anchor="start" x="276.5" y="-75" font-family="Helvetica,sans-Serif" font-size="10.00">eval_assign/eval_assign</text>
<text text-anchor="middle" x="330" y="-64" font-family="Helvetica,sans-Serif" font-size="10.00">_partial.hpp</text>
</a>
</g>
</g>
<!-- Node1&#45;&gt;Node3 -->
<g id="edge2" class="edge"><title>Node1&#45;&gt;Node3</title>
<path fill="none" stroke="midnightblue" d="M387.401,-124.403C378.581,-116.505 365.149,-104.477 353.496,-94.0409"/>
<polygon fill="midnightblue" stroke="midnightblue" points="355.575,-91.2047 345.791,-87.1408 350.905,-96.4194 355.575,-91.2047"/>
</g>
<!-- Node4 -->
<g id="node4" class="node"><title>Node4</title>
<g id="a_node4"><a xlink:href="eval__expression_8hpp.html" target="_top" xlink:title="This file contains a collection of headers that required for eval_expression. ">
<polygon fill="none" stroke="black" points="410,-57 410,-87 518,-87 518,-57 410,-57"/>
<text text-anchor="start" x="418" y="-75" font-family="Helvetica,sans-Serif" font-size="10.00">eval_expression/eval</text>
<text text-anchor="middle" x="464" y="-64" font-family="Helvetica,sans-Serif" font-size="10.00">_expression.hpp</text>
</a>
</g>
</g>
<!-- Node1&#45;&gt;Node4 -->
<g id="edge3" class="edge"><title>Node1&#45;&gt;Node4</title>
<path fill="none" stroke="midnightblue" d="M406.599,-124.403C415.419,-116.505 428.851,-104.477 440.504,-94.0409"/>
<polygon fill="midnightblue" stroke="midnightblue" points="443.095,-96.4194 448.209,-87.1408 438.425,-91.2047 443.095,-96.4194"/>
</g>
<!-- Node12 -->
<g id="node12" class="node"><title>Node12</title>
<g id="a_node12"><a xlink:href="square__pattern_8hpp.html" target="_top" xlink:title="this file contains the partial specialisation of the Fill for LeafNode ">
<polygon fill="none" stroke="black" points="536,-57 536,-87 638,-87 638,-57 536,-57"/>
<text text-anchor="start" x="544" y="-75" font-family="Helvetica,sans-Serif" font-size="10.00">load_pattern/square</text>
<text text-anchor="middle" x="587" y="-64" font-family="Helvetica,sans-Serif" font-size="10.00">_pattern.hpp</text>
</a>
</g>
</g>
<!-- Node1&#45;&gt;Node12 -->
<g id="edge11" class="edge"><title>Node1&#45;&gt;Node12</title>
<path fill="none" stroke="midnightblue" d="M424.222,-124.403C452.454,-115.488 497.349,-101.311 532.845,-90.1014"/>
<polygon fill="midnightblue" stroke="midnightblue" points="534.105,-93.3742 542.587,-87.0253 531.997,-86.6992 534.105,-93.3742"/>
</g>
<!-- Node5 -->
<g id="node5" class="node"><title>Node5</title>
<g id="a_node5"><a xlink:href="eval__expr__assign_8hpp.html" target="_top" xlink:title="this file contains the specialisation of EvalExpr for Assign when it is not a root ...">
<polygon fill="none" stroke="black" points="-0.5,-0.5 -0.5,-19.5 110.5,-19.5 110.5,-0.5 -0.5,-0.5"/>
<text text-anchor="middle" x="55" y="-7.5" font-family="Helvetica,sans-Serif" font-size="10.00">eval_expr_assign.hpp</text>
</a>
</g>
</g>
<!-- Node4&#45;&gt;Node5 -->
<g id="edge4" class="edge"><title>Node4&#45;&gt;Node5</title>
<path fill="none" stroke="midnightblue" d="M409.96,-57.9241C406.597,-57.2377 403.257,-56.5894 400,-56 279.672,-34.2226 246.058,-36.471 120.655,-20.0646"/>
<polygon fill="midnightblue" stroke="midnightblue" points="121.037,-16.5847 110.664,-18.7436 120.119,-23.5243 121.037,-16.5847"/>
</g>
<!-- Node6 -->
<g id="node6" class="node"><title>Node6</title>
<g id="a_node6"><a xlink:href="eval__expr__leaf__node_8hpp.html" target="_top" xlink:title="This file contains the specialisation of the EvalExpr for LeafNode. ">
<polygon fill="none" stroke="black" points="128.5,-0.5 128.5,-19.5 253.5,-19.5 253.5,-0.5 128.5,-0.5"/>
<text text-anchor="middle" x="191" y="-7.5" font-family="Helvetica,sans-Serif" font-size="10.00">eval_expr_leaf_node.hpp</text>
</a>
</g>
</g>
<!-- Node4&#45;&gt;Node6 -->
<g id="edge5" class="edge"><title>Node4&#45;&gt;Node6</title>
<path fill="none" stroke="midnightblue" d="M409.894,-58.2462C406.548,-57.4799 403.229,-56.7259 400,-56 346.025,-43.8652 284.053,-30.6063 241.692,-21.6458"/>
<polygon fill="midnightblue" stroke="midnightblue" points="242.404,-18.219 231.897,-19.5764 240.957,-25.0679 242.404,-18.219"/>
</g>
<!-- Node7 -->
<g id="node7" class="node"><title>Node7</title>
<g id="a_node7"><a xlink:href="eval__expr__r__binary_8hpp.html" target="_top" xlink:title="This file contains the specialisation of the EvalExpr for RBiOP( pointwise Binary operation node)...">
<polygon fill="none" stroke="black" points="271.5,-0.5 271.5,-19.5 388.5,-19.5 388.5,-0.5 271.5,-0.5"/>
<text text-anchor="middle" x="330" y="-7.5" font-family="Helvetica,sans-Serif" font-size="10.00">eval_expr_r_binary.hpp</text>
</a>
</g>
</g>
<!-- Node4&#45;&gt;Node7 -->
<g id="edge6" class="edge"><title>Node4&#45;&gt;Node7</title>
<path fill="none" stroke="midnightblue" d="M432.583,-56.9327C410.177,-46.9004 380.293,-33.5193 358.562,-23.7888"/>
<polygon fill="midnightblue" stroke="midnightblue" points="359.764,-20.4923 349.207,-19.6 356.903,-26.8811 359.764,-20.4923"/>
</g>
<!-- Node8 -->
<g id="node8" class="node"><title>Node8</title>
<g id="a_node8"><a xlink:href="eval__expr__r__unary_8hpp.html" target="_top" xlink:title="This file contains the specialisation of the EvalExpr for RUnOP( pointwise Unary operation node)...">
<polygon fill="none" stroke="black" points="406.5,-0.5 406.5,-19.5 521.5,-19.5 521.5,-0.5 406.5,-0.5"/>
<text text-anchor="middle" x="464" y="-7.5" font-family="Helvetica,sans-Serif" font-size="10.00">eval_expr_r_unary.hpp</text>
</a>
</g>
</g>
<!-- Node4&#45;&gt;Node8 -->
<g id="edge7" class="edge"><title>Node4&#45;&gt;Node8</title>
<path fill="none" stroke="midnightblue" d="M464,-56.7808C464,-48.7812 464,-38.6887 464,-30.0168"/>
<polygon fill="midnightblue" stroke="midnightblue" points="467.5,-29.7305 464,-19.7305 460.5,-29.7306 467.5,-29.7305"/>
</g>
<!-- Node9 -->
<g id="node9" class="node"><title>Node9</title>
<g id="a_node9"><a xlink:href="eval__expr__reduction_8hpp.html" target="_top" xlink:title="This file contains the specialisation of the EvalExpr for RDCN( reduction operation node)...">
<polygon fill="none" stroke="black" points="540,-0.5 540,-19.5 662,-19.5 662,-0.5 540,-0.5"/>
<text text-anchor="middle" x="601" y="-7.5" font-family="Helvetica,sans-Serif" font-size="10.00">eval_expr_reduction.hpp</text>
</a>
</g>
</g>
<!-- Node4&#45;&gt;Node9 -->
<g id="edge8" class="edge"><title>Node4&#45;&gt;Node9</title>
<path fill="none" stroke="midnightblue" d="M496.12,-56.9327C519.131,-46.8552 549.856,-33.3986 572.099,-23.6575"/>
<polygon fill="midnightblue" stroke="midnightblue" points="573.607,-26.8178 581.363,-19.6 570.799,-20.4058 573.607,-26.8178"/>
</g>
<!-- Node10 -->
<g id="node10" class="node"><title>Node10</title>
<g id="a_node10"><a xlink:href="eval__expr__stn__filt_8hpp.html" target="_top" xlink:title="This file contains the specialisation of the EvalExpr for StnFilt( stencil node with filter )...">
<polygon fill="none" stroke="black" points="680,-0.5 680,-19.5 792,-19.5 792,-0.5 680,-0.5"/>
<text text-anchor="middle" x="736" y="-7.5" font-family="Helvetica,sans-Serif" font-size="10.00">eval_expr_stn_filt.hpp</text>
</a>
</g>
</g>
<!-- Node4&#45;&gt;Node10 -->
<g id="edge9" class="edge"><title>Node4&#45;&gt;Node10</title>
<path fill="none" stroke="midnightblue" d="M518.279,-57.9976C521.227,-57.3159 524.149,-56.6462 527,-56 580.953,-43.7701 642.929,-30.5268 685.296,-21.596"/>
<polygon fill="midnightblue" stroke="midnightblue" points="686.029,-25.0186 695.094,-19.534 684.587,-18.1687 686.029,-25.0186"/>
</g>
<!-- Node11 -->
<g id="node11" class="node"><title>Node11</title>
<g id="a_node11"><a xlink:href="eval__expr__stn__no__filt_8hpp.html" target="_top" xlink:title="This file contains the specialisation of the EvalExpr for StnFilt( stencil node without filter)...">
<polygon fill="none" stroke="black" points="810,-0.5 810,-19.5 938,-19.5 938,-0.5 810,-0.5"/>
<text text-anchor="middle" x="874" y="-7.5" font-family="Helvetica,sans-Serif" font-size="10.00">eval_expr_stn_no_filt.hpp</text>
</a>
</g>
</g>
<!-- Node4&#45;&gt;Node11 -->
<g id="edge10" class="edge"><title>Node4&#45;&gt;Node11</title>
<path fill="none" stroke="midnightblue" d="M518.22,-57.7095C521.184,-57.1021 524.125,-56.5272 527,-56 553.159,-51.2033 705.903,-31.9119 799.809,-20.2008"/>
<polygon fill="midnightblue" stroke="midnightblue" points="800.34,-23.6618 809.83,-18.9519 799.474,-16.7155 800.34,-23.6618"/>
</g>
</g>
</svg>
