<?xml version="1.0" encoding="UTF-8" standalone="no"?>
<!DOCTYPE svg PUBLIC "-//W3C//DTD SVG 1.1//EN"
 "http://www.w3.org/Graphics/SVG/1.1/DTD/svg11.dtd">
<!-- Generated by graphviz version 2.43.0 (0)
 -->
<!-- Title: evaluator.hpp Pages: 1 -->
<svg width="1037pt" height="151pt"
 viewBox="0.00 0.00 1036.50 151.00" xmlns="http://www.w3.org/2000/svg" xmlns:xlink="http://www.w3.org/1999/xlink">
<g id="graph0" class="graph" transform="scale(1 1) rotate(0) translate(4 147)">
<title>evaluator.hpp</title>
<!-- Node1 -->
<g id="node1" class="node">
<title>Node1</title>
<g id="a_node1"><a xlink:title="This file contains a collection of headers and forward declaration for evaluating an expression tree.">
<polygon fill="#bfbfbf" stroke="black" points="393.5,-123.5 393.5,-142.5 476.5,-142.5 476.5,-123.5 393.5,-123.5"/>
<text text-anchor="middle" x="435" y="-130.5" font-family="Helvetica,sans-Serif" font-size="10.00">evaluator.hpp</text>
</a>
</g>
</g>
<!-- Node2 -->
<g id="node2" class="node">
<title>Node2</title>
<g id="a_node2"><a xlink:href="eval__assign_8hpp.html" target="_top" xlink:title="This file contains the specialisation of the Evaluator struct for assign when it is a root struct.">
<polygon fill="none" stroke="black" points="120,-62 120,-81 276,-81 276,-62 120,-62"/>
<text text-anchor="middle" x="198" y="-69" font-family="Helvetica,sans-Serif" font-size="10.00">eval_assign/eval_assign.hpp</text>
</a>
</g>
</g>
<!-- Node1&#45;&gt;Node2 -->
<g id="edge1" class="edge">
<title>Node1&#45;&gt;Node2</title>
<path fill="none" stroke="midnightblue" d="M401.04,-123.48C359.16,-112.96 287.87,-95.06 241.87,-83.51"/>
<polygon fill="midnightblue" stroke="midnightblue" points="242.44,-80.05 231.89,-81.01 240.74,-86.84 242.44,-80.05"/>
</g>
<!-- Node3 -->
<g id="node3" class="node">
<title>Node3</title>
<g id="a_node3"><a xlink:href="eval__assign__partial_8hpp.html" target="_top" xlink:title="This file contains the specialisation of the Evaluator struct for assign when it is a root struct.">
<polygon fill="none" stroke="black" points="294.5,-56.5 294.5,-86.5 429.5,-86.5 429.5,-56.5 294.5,-56.5"/>
<text text-anchor="start" x="302.5" y="-74.5" font-family="Helvetica,sans-Serif" font-size="10.00">eval_assign/eval_assign</text>
<text text-anchor="middle" x="362" y="-63.5" font-family="Helvetica,sans-Serif" font-size="10.00">_partial.hpp</text>
</a>
</g>
</g>
<!-- Node1&#45;&gt;Node3 -->
<g id="edge2" class="edge">
<title>Node1&#45;&gt;Node3</title>
<path fill="none" stroke="midnightblue" d="M424.54,-123.48C414.84,-115.57 400.01,-103.48 387.23,-93.07"/>
<polygon fill="midnightblue" stroke="midnightblue" points="389.17,-90.13 379.2,-86.52 384.74,-95.55 389.17,-90.13"/>
</g>
<!-- Node4 -->
<g id="node4" class="node">
<title>Node4</title>
<g id="a_node4"><a xlink:href="eval__expression_8hpp.html" target="_top" xlink:title="This file contains a collection of headers that required for eval_expression.">
<polygon fill="none" stroke="black" points="448,-56.5 448,-86.5 568,-86.5 568,-56.5 448,-56.5"/>
<text text-anchor="start" x="456" y="-74.5" font-family="Helvetica,sans-Serif" font-size="10.00">eval_expression/eval</text>
<text text-anchor="middle" x="508" y="-63.5" font-family="Helvetica,sans-Serif" font-size="10.00">_expression.hpp</text>
</a>
</g>
</g>
<!-- Node1&#45;&gt;Node4 -->
<g id="edge3" class="edge">
<title>Node1&#45;&gt;Node4</title>
<path fill="none" stroke="midnightblue" d="M445.46,-123.48C455.16,-115.57 469.99,-103.48 482.77,-93.07"/>
<polygon fill="midnightblue" stroke="midnightblue" points="485.26,-95.55 490.8,-86.52 480.83,-90.13 485.26,-95.55"/>
</g>
<!-- Node12 -->
<g id="node12" class="node">
<title>Node12</title>
<g id="a_node12"><a xlink:href="square__pattern_8hpp.html" target="_top" xlink:title="this file contains the partial specialisation of the Fill for LeafNode">
<polygon fill="none" stroke="black" points="586,-56.5 586,-86.5 700,-86.5 700,-56.5 586,-56.5"/>
<text text-anchor="start" x="594" y="-74.5" font-family="Helvetica,sans-Serif" font-size="10.00">load_pattern/square</text>
<text text-anchor="middle" x="643" y="-63.5" font-family="Helvetica,sans-Serif" font-size="10.00">_pattern.hpp</text>
</a>
</g>
</g>
<!-- Node1&#45;&gt;Node12 -->
<g id="edge11" class="edge">
<title>Node1&#45;&gt;Node12</title>
<path fill="none" stroke="midnightblue" d="M464.8,-123.48C495.87,-114.59 545.37,-100.43 584.32,-89.29"/>
<polygon fill="midnightblue" stroke="midnightblue" points="585.33,-92.64 593.98,-86.52 583.4,-85.91 585.33,-92.64"/>
</g>
<!-- Node5 -->
<g id="node5" class="node">
<title>Node5</title>
<g id="a_node5"><a xlink:href="eval__expr__assign_8hpp.html" target="_top" xlink:title="this file contains the specialisation of EvalExpr for Assign when it is not a root">
<polygon fill="none" stroke="black" points="0,-0.5 0,-19.5 122,-19.5 122,-0.5 0,-0.5"/>
<text text-anchor="middle" x="61" y="-7.5" font-family="Helvetica,sans-Serif" font-size="10.00">eval_expr_assign.hpp</text>
</a>
</g>
</g>
<!-- Node4&#45;&gt;Node5 -->
<g id="edge4" class="edge">
<title>Node4&#45;&gt;Node5</title>
<path fill="none" stroke="midnightblue" d="M447.73,-57.67C444.45,-57.08 441.19,-56.52 438,-56 305.56,-34.56 269.05,-36.65 132.11,-20.12"/>
<polygon fill="midnightblue" stroke="midnightblue" points="132.43,-16.63 122.08,-18.89 131.58,-23.58 132.43,-16.63"/>
</g>
<!-- Node6 -->
<g id="node6" class="node">
<title>Node6</title>
<g id="a_node6"><a xlink:href="eval__expr__leaf__node_8hpp.html" target="_top" xlink:title="This file contains the specialisation of the EvalExpr for LeafNode.">
<polygon fill="none" stroke="black" points="140.5,-0.5 140.5,-19.5 279.5,-19.5 279.5,-0.5 140.5,-0.5"/>
<text text-anchor="middle" x="210" y="-7.5" font-family="Helvetica,sans-Serif" font-size="10.00">eval_expr_leaf_node.hpp</text>
</a>
</g>
</g>
<!-- Node4&#45;&gt;Node6 -->
<g id="edge5" class="edge">
<title>Node4&#45;&gt;Node6</title>
<path fill="none" stroke="midnightblue" d="M447.68,-57.97C444.41,-57.3 441.16,-56.64 438,-56 378.44,-43.95 310.05,-30.51 263.83,-21.48"/>
<polygon fill="midnightblue" stroke="midnightblue" points="264.22,-17.99 253.73,-19.51 262.88,-24.86 264.22,-17.99"/>
</g>
<!-- Node7 -->
<g id="node7" class="node">
<title>Node7</title>
<g id="a_node7"><a xlink:href="eval__expr__r__binary_8hpp.html" target="_top" xlink:title="This file contains the specialisation of the EvalExpr for RBiOP( pointwise Binary operation node).">
<polygon fill="none" stroke="black" points="297.5,-0.5 297.5,-19.5 426.5,-19.5 426.5,-0.5 297.5,-0.5"/>
<text text-anchor="middle" x="362" y="-7.5" font-family="Helvetica,sans-Serif" font-size="10.00">eval_expr_r_binary.hpp</text>
</a>
</g>
</g>
<!-- Node4&#45;&gt;Node7 -->
<g id="edge6" class="edge">
<title>Node4&#45;&gt;Node7</title>
<path fill="none" stroke="midnightblue" d="M473.4,-56.4C448.9,-46.42 416.34,-33.15 392.75,-23.53"/>
<polygon fill="midnightblue" stroke="midnightblue" points="393.83,-20.19 383.24,-19.66 391.18,-26.67 393.83,-20.19"/>
</g>
<!-- Node8 -->
<g id="node8" class="node">
<title>Node8</title>
<g id="a_node8"><a xlink:href="eval__expr__r__unary_8hpp.html" target="_top" xlink:title="This file contains the specialisation of the EvalExpr for RUnOP( pointwise Unary operation node).">
<polygon fill="none" stroke="black" points="445,-0.5 445,-19.5 571,-19.5 571,-0.5 445,-0.5"/>
<text text-anchor="middle" x="508" y="-7.5" font-family="Helvetica,sans-Serif" font-size="10.00">eval_expr_r_unary.hpp</text>
</a>
</g>
</g>
<!-- Node4&#45;&gt;Node8 -->
<g id="edge7" class="edge">
<title>Node4&#45;&gt;Node8</title>
<path fill="none" stroke="midnightblue" d="M508,-56.4C508,-48.47 508,-38.46 508,-29.86"/>
<polygon fill="midnightblue" stroke="midnightblue" points="511.5,-29.66 508,-19.66 504.5,-29.66 511.5,-29.66"/>
</g>
<!-- Node9 -->
<g id="node9" class="node">
<title>Node9</title>
<g id="a_node9"><a xlink:href="eval__expr__reduction_8hpp.html" target="_top" xlink:title="This file contains the specialisation of the EvalExpr for RDCN( reduction operation node).">
<polygon fill="none" stroke="black" points="589.5,-0.5 589.5,-19.5 726.5,-19.5 726.5,-0.5 589.5,-0.5"/>
<text text-anchor="middle" x="658" y="-7.5" font-family="Helvetica,sans-Serif" font-size="10.00">eval_expr_reduction.hpp</text>
</a>
</g>
</g>
<!-- Node4&#45;&gt;Node9 -->
<g id="edge8" class="edge">
<title>Node4&#45;&gt;Node9</title>
<path fill="none" stroke="midnightblue" d="M543.55,-56.4C568.83,-46.37 602.47,-33.03 626.73,-23.4"/>
<polygon fill="midnightblue" stroke="midnightblue" points="628.17,-26.6 636.17,-19.66 625.59,-20.09 628.17,-26.6"/>
</g>
<!-- Node10 -->
<g id="node10" class="node">
<title>Node10</title>
<g id="a_node10"><a xlink:href="eval__expr__stn__filt_8hpp.html" target="_top" xlink:title="This file contains the specialisation of the EvalExpr for StnFilt( stencil node with filter ).">
<polygon fill="none" stroke="black" points="745,-0.5 745,-19.5 869,-19.5 869,-0.5 745,-0.5"/>
<text text-anchor="middle" x="807" y="-7.5" font-family="Helvetica,sans-Serif" font-size="10.00">eval_expr_stn_filt.hpp</text>
</a>
</g>
</g>
<!-- Node4&#45;&gt;Node10 -->
<g id="edge9" class="edge">
<title>Node4&#45;&gt;Node10</title>
<path fill="none" stroke="midnightblue" d="M568.2,-57.8C571.18,-57.19 574.12,-56.58 577,-56 637,-43.83 705.92,-30.42 752.55,-21.43"/>
<polygon fill="midnightblue" stroke="midnightblue" points="753.28,-24.86 762.44,-19.53 751.96,-17.98 753.28,-24.86"/>
</g>
<!-- Node11 -->
<g id="node11" class="node">
<title>Node11</title>
<g id="a_node11"><a xlink:href="eval__expr__stn__no__filt_8hpp.html" target="_top" xlink:title="This file contains the specialisation of the EvalExpr for StnFilt( stencil node without filter).">
<polygon fill="none" stroke="black" points="887.5,-0.5 887.5,-19.5 1028.5,-19.5 1028.5,-0.5 887.5,-0.5"/>
<text text-anchor="middle" x="958" y="-7.5" font-family="Helvetica,sans-Serif" font-size="10.00">eval_expr_stn_no_filt.hpp</text>
</a>
</g>
</g>
<!-- Node4&#45;&gt;Node11 -->
<g id="edge10" class="edge">
<title>Node4&#45;&gt;Node11</title>
<path fill="none" stroke="midnightblue" d="M568.15,-57.53C571.14,-56.99 574.1,-56.47 577,-56 605.82,-51.28 774.02,-31.9 877.07,-20.17"/>
<polygon fill="midnightblue" stroke="midnightblue" points="877.6,-23.63 887.14,-19.02 876.8,-16.67 877.6,-23.63"/>
</g>
</g>
</svg>
