<?xml version="1.0" encoding="UTF-8" standalone="no"?>
<!DOCTYPE svg PUBLIC "-//W3C//DTD SVG 1.1//EN"
 "http://www.w3.org/Graphics/SVG/1.1/DTD/svg11.dtd">
<!-- Generated by graphviz version 2.36.0 (20140111.2315)
 -->
<!-- Title: executor.hpp Pages: 1 -->
<svg width="324pt" height="96pt"
 viewBox="0.00 0.00 324.00 96.00" xmlns="http://www.w3.org/2000/svg" xmlns:xlink="http://www.w3.org/1999/xlink">
<g id="graph0" class="graph" transform="scale(1 1) rotate(0) translate(4 92)">
<title>executor.hpp</title>
<!-- Node1 -->
<g id="node1" class="node"><title>Node1</title>
<polygon fill="#bfbfbf" stroke="black" points="127.5,-68.5 127.5,-87.5 200.5,-87.5 200.5,-68.5 127.5,-68.5"/>
<text text-anchor="middle" x="164" y="-75.5" font-family="Helvetica,sans-Serif" font-size="10.00">executor.hpp</text>
</g>
<!-- Node2 -->
<g id="node2" class="node"><title>Node2</title>
<g id="a_node2"><a xlink:href="executor__subexpr__if__needed_8hpp.html" target="_top" xlink:title="This file contains required classes for break an expression tree into subexpression trees for particu...">
<polygon fill="none" stroke="black" points="0,-1 0,-31 104,-31 104,-1 0,-1"/>
<text text-anchor="start" x="8" y="-19" font-family="Helvetica,sans-Serif" font-size="10.00">executor_subexpr_if</text>
<text text-anchor="middle" x="52" y="-8" font-family="Helvetica,sans-Serif" font-size="10.00">_needed.hpp</text>
</a>
</g>
</g>
<!-- Node1&#45;&gt;Node2 -->
<g id="edge1" class="edge"><title>Node1&#45;&gt;Node2</title>
<path fill="none" stroke="midnightblue" d="M147.953,-68.4035C132.217,-59.9735 107.699,-46.8389 87.3865,-35.957"/>
<polygon fill="midnightblue" stroke="midnightblue" points="88.8638,-32.7779 78.3962,-31.1408 85.5582,-38.9483 88.8638,-32.7779"/>
</g>
<!-- Node3 -->
<g id="node3" class="node"><title>Node3</title>
<g id="a_node3"><a xlink:href="fuse_8hpp.html" target="_top" xlink:title="This file contains the specialisation of the FuseExpr for terminal and non&#45;terminal nodes...">
<polygon fill="none" stroke="black" points="122.5,-6.5 122.5,-25.5 205.5,-25.5 205.5,-6.5 122.5,-6.5"/>
<text text-anchor="middle" x="164" y="-13.5" font-family="Helvetica,sans-Serif" font-size="10.00">policy/fuse.hpp</text>
</a>
</g>
</g>
<!-- Node1&#45;&gt;Node3 -->
<g id="edge2" class="edge"><title>Node1&#45;&gt;Node3</title>
<path fill="none" stroke="midnightblue" d="M164,-68.4035C164,-59.9381 164,-46.7283 164,-35.8199"/>
<polygon fill="midnightblue" stroke="midnightblue" points="167.5,-35.5806 164,-25.5806 160.5,-35.5806 167.5,-35.5806"/>
</g>
<!-- Node4 -->
<g id="node4" class="node"><title>Node4</title>
<g id="a_node4"><a xlink:href="nofuse_8hpp.html" target="_top" xlink:title="This file contains the specialisation of the NoFuse for different nodes. ">
<polygon fill="none" stroke="black" points="223.5,-6.5 223.5,-25.5 316.5,-25.5 316.5,-6.5 223.5,-6.5"/>
<text text-anchor="middle" x="270" y="-13.5" font-family="Helvetica,sans-Serif" font-size="10.00">policy/nofuse.hpp</text>
</a>
</g>
</g>
<!-- Node1&#45;&gt;Node4 -->
<g id="edge3" class="edge"><title>Node1&#45;&gt;Node4</title>
<path fill="none" stroke="midnightblue" d="M179.187,-68.4035C196.662,-58.5123 225.579,-42.1442 246.083,-30.5378"/>
<polygon fill="midnightblue" stroke="midnightblue" points="247.862,-33.5525 254.841,-25.5806 244.414,-27.4607 247.862,-33.5525"/>
</g>
</g>
</svg>
