<?xml version="1.0" encoding="UTF-8" standalone="no"?>
<!DOCTYPE svg PUBLIC "-//W3C//DTD SVG 1.1//EN"
 "http://www.w3.org/Graphics/SVG/1.1/DTD/svg11.dtd">
<!-- Generated by graphviz version 2.43.0 (0)
 -->
<!-- Title: executor.hpp Pages: 1 -->
<svg width="353pt" height="95pt"
 viewBox="0.00 0.00 353.00 95.00" xmlns="http://www.w3.org/2000/svg" xmlns:xlink="http://www.w3.org/1999/xlink">
<g id="graph0" class="graph" transform="scale(1 1) rotate(0) translate(4 91)">
<title>executor.hpp</title>
<!-- Node1 -->
<g id="node1" class="node">
<title>Node1</title>
<g id="a_node1"><a xlink:title="This files contains a series of forward declaration and include files required for executing an expre...">
<polygon fill="#bfbfbf" stroke="black" points="139,-67.5 139,-86.5 218,-86.5 218,-67.5 139,-67.5"/>
<text text-anchor="middle" x="178.5" y="-74.5" font-family="Helvetica,sans-Serif" font-size="10.00">executor.hpp</text>
</a>
</g>
</g>
<!-- Node2 -->
<g id="node2" class="node">
<title>Node2</title>
<g id="a_node2"><a xlink:href="executor__subexpr__if__needed_8hpp.html" target="_top" xlink:title="This file contains required classes for break an expression tree into subexpression trees for particu...">
<polygon fill="none" stroke="black" points="0,-0.5 0,-30.5 115,-30.5 115,-0.5 0,-0.5"/>
<text text-anchor="start" x="8" y="-18.5" font-family="Helvetica,sans-Serif" font-size="10.00">executor_subexpr_if</text>
<text text-anchor="middle" x="57.5" y="-7.5" font-family="Helvetica,sans-Serif" font-size="10.00">_needed.hpp</text>
</a>
</g>
</g>
<!-- Node1&#45;&gt;Node2 -->
<g id="edge1" class="edge">
<title>Node1&#45;&gt;Node2</title>
<path fill="none" stroke="midnightblue" d="M161.16,-67.48C144.01,-59.04 117.2,-45.86 95.14,-35.01"/>
<polygon fill="midnightblue" stroke="midnightblue" points="96.54,-31.79 86.02,-30.52 93.45,-38.08 96.54,-31.79"/>
</g>
<!-- Node3 -->
<g id="node3" class="node">
<title>Node3</title>
<g id="a_node3"><a xlink:href="fuse_8hpp.html" target="_top" xlink:title="This file contains the specialisation of the FuseExpr for terminal and non&#45;terminal nodes.">
<polygon fill="none" stroke="black" points="133,-6 133,-25 224,-25 224,-6 133,-6"/>
<text text-anchor="middle" x="178.5" y="-13" font-family="Helvetica,sans-Serif" font-size="10.00">policy/fuse.hpp</text>
</a>
</g>
</g>
<!-- Node1&#45;&gt;Node3 -->
<g id="edge2" class="edge">
<title>Node1&#45;&gt;Node3</title>
<path fill="none" stroke="midnightblue" d="M178.5,-67.48C178.5,-59.08 178.5,-45.98 178.5,-35.16"/>
<polygon fill="midnightblue" stroke="midnightblue" points="182,-35.01 178.5,-25.01 175,-35.01 182,-35.01"/>
</g>
<!-- Node4 -->
<g id="node4" class="node">
<title>Node4</title>
<g id="a_node4"><a xlink:href="nofuse_8hpp.html" target="_top" xlink:title="This file contains the specialisation of the NoFuseExpr for different nodes.">
<polygon fill="none" stroke="black" points="242,-6 242,-25 345,-25 345,-6 242,-6"/>
<text text-anchor="middle" x="293.5" y="-13" font-family="Helvetica,sans-Serif" font-size="10.00">policy/nofuse.hpp</text>
</a>
</g>
</g>
<!-- Node1&#45;&gt;Node4 -->
<g id="edge3" class="edge">
<title>Node1&#45;&gt;Node4</title>
<path fill="none" stroke="midnightblue" d="M194.98,-67.48C214.11,-57.58 245.87,-41.14 268.15,-29.62"/>
<polygon fill="midnightblue" stroke="midnightblue" points="269.78,-32.71 277.05,-25.01 266.56,-26.5 269.78,-32.71"/>
</g>
</g>
</svg>
