<?xml version="1.0" encoding="UTF-8" standalone="no"?>
<!DOCTYPE svg PUBLIC "-//W3C//DTD SVG 1.1//EN"
 "http://www.w3.org/Graphics/SVG/1.1/DTD/svg11.dtd">
<!-- Generated by graphviz version 2.43.0 (0)
 -->
<!-- Title: executor_subexpr_if_needed.hpp Pages: 1 -->
<svg width="123pt" height="207pt"
 viewBox="0.00 0.00 123.00 207.00" xmlns="http://www.w3.org/2000/svg" xmlns:xlink="http://www.w3.org/1999/xlink">
<g id="graph0" class="graph" transform="scale(1 1) rotate(0) translate(4 203)">
<title>executor_subexpr_if_needed.hpp</title>
<!-- Node1 -->
<g id="node1" class="node">
<title>Node1</title>
<g id="a_node1"><a xlink:title="This file contains required classes for break an expression tree into subexpression trees for particu...">
<polygon fill="#bfbfbf" stroke="black" points="0,-168.5 0,-198.5 115,-198.5 115,-168.5 0,-168.5"/>
<text text-anchor="start" x="8" y="-186.5" font-family="Helvetica,sans-Serif" font-size="10.00">executor_subexpr_if</text>
<text text-anchor="middle" x="57.5" y="-175.5" font-family="Helvetica,sans-Serif" font-size="10.00">_needed.hpp</text>
</a>
</g>
</g>
<!-- Node2 -->
<g id="node2" class="node">
<title>Node2</title>
<g id="a_node2"><a xlink:href="executor_8hpp.html" target="_top" xlink:title="This files contains a series of forward declaration and include files required for executing an expre...">
<polygon fill="none" stroke="black" points="18,-112.5 18,-131.5 97,-131.5 97,-112.5 18,-112.5"/>
<text text-anchor="middle" x="57.5" y="-119.5" font-family="Helvetica,sans-Serif" font-size="10.00">executor.hpp</text>
</a>
</g>
</g>
<!-- Node1&#45;&gt;Node2 -->
<g id="edge1" class="edge">
<title>Node1&#45;&gt;Node2</title>
<path fill="none" stroke="midnightblue" d="M57.5,-158.29C57.5,-148.86 57.5,-138.65 57.5,-131.66"/>
<polygon fill="midnightblue" stroke="midnightblue" points="54,-158.4 57.5,-168.4 61,-158.4 54,-158.4"/>
</g>
<!-- Node3 -->
<g id="node3" class="node">
<title>Node3</title>
<g id="a_node3"><a xlink:href="framework_8hpp.html" target="_top" xlink:title="Collection of VisionCpp framework headers.">
<polygon fill="none" stroke="black" points="12,-56.5 12,-75.5 103,-75.5 103,-56.5 12,-56.5"/>
<text text-anchor="middle" x="57.5" y="-63.5" font-family="Helvetica,sans-Serif" font-size="10.00">framework.hpp</text>
</a>
</g>
</g>
<!-- Node2&#45;&gt;Node3 -->
<g id="edge2" class="edge">
<title>Node2&#45;&gt;Node3</title>
<path fill="none" stroke="midnightblue" d="M57.5,-101.8C57.5,-92.91 57.5,-82.78 57.5,-75.75"/>
<polygon fill="midnightblue" stroke="midnightblue" points="54,-102.08 57.5,-112.08 61,-102.08 54,-102.08"/>
</g>
<!-- Node4 -->
<g id="node4" class="node">
<title>Node4</title>
<g id="a_node4"><a xlink:href="visioncpp_8hpp.html" target="_top" xlink:title="This file is collection of headers that makes VisionCpp library.">
<polygon fill="none" stroke="black" points="15.5,-0.5 15.5,-19.5 99.5,-19.5 99.5,-0.5 15.5,-0.5"/>
<text text-anchor="middle" x="57.5" y="-7.5" font-family="Helvetica,sans-Serif" font-size="10.00">visioncpp.hpp</text>
</a>
</g>
</g>
<!-- Node3&#45;&gt;Node4 -->
<g id="edge3" class="edge">
<title>Node3&#45;&gt;Node4</title>
<path fill="none" stroke="midnightblue" d="M57.5,-45.8C57.5,-36.91 57.5,-26.78 57.5,-19.75"/>
<polygon fill="midnightblue" stroke="midnightblue" points="54,-46.08 57.5,-56.08 61,-46.08 54,-46.08"/>
</g>
</g>
</svg>
