<?xml version="1.0" encoding="UTF-8" standalone="no"?>
<!DOCTYPE svg PUBLIC "-//W3C//DTD SVG 1.1//EN"
 "http://www.w3.org/Graphics/SVG/1.1/DTD/svg11.dtd">
<!-- Generated by graphviz version 2.36.0 (20140111.2315)
 -->
<!-- Title: experimental.hpp Pages: 1 -->
<svg width="1244pt" height="84pt"
 viewBox="0.00 0.00 1244.00 84.00" xmlns="http://www.w3.org/2000/svg" xmlns:xlink="http://www.w3.org/1999/xlink">
<g id="graph0" class="graph" transform="scale(1 1) rotate(0) translate(4 80)">
<title>experimental.hpp</title>
<!-- Node1 -->
<g id="node1" class="node"><title>Node1</title>
<polygon fill="#bfbfbf" stroke="black" points="580.5,-56.5 580.5,-75.5 671.5,-75.5 671.5,-56.5 580.5,-56.5"/>
<text text-anchor="middle" x="626" y="-63.5" font-family="Helvetica,sans-Serif" font-size="10.00">experimental.hpp</text>
</g>
<!-- Node2 -->
<g id="node2" class="node"><title>Node2</title>
<g id="a_node2"><a xlink:href="OP__AbsSub_8hpp.html" target="_top" xlink:title="It gets the absolute difference between 2 images. ">
<polygon fill="none" stroke="black" points="-0.5,-0.5 -0.5,-19.5 88.5,-19.5 88.5,-0.5 -0.5,-0.5"/>
<text text-anchor="middle" x="44" y="-7.5" font-family="Helvetica,sans-Serif" font-size="10.00">OP_AbsSub.hpp</text>
</a>
</g>
</g>
<!-- Node1&#45;&gt;Node2 -->
<g id="edge1" class="edge"><title>Node1&#45;&gt;Node2</title>
<path fill="none" stroke="midnightblue" d="M580.317,-62.3434C490.29,-56.8402 283.42,-42.8698 98.9094,-20.0124"/>
<polygon fill="midnightblue" stroke="midnightblue" points="99.1057,-16.5098 88.7486,-18.7418 98.237,-23.4557 99.1057,-16.5098"/>
</g>
<!-- Node3 -->
<g id="node3" class="node"><title>Node3</title>
<g id="a_node3"><a xlink:href="OP__Add_8hpp.html" target="_top" xlink:title="It adds the values pixel by pixel of two images. ">
<polygon fill="none" stroke="black" points="107,-0.5 107,-19.5 179,-19.5 179,-0.5 107,-0.5"/>
<text text-anchor="middle" x="143" y="-7.5" font-family="Helvetica,sans-Serif" font-size="10.00">OP_Add.hpp</text>
</a>
</g>
</g>
<!-- Node1&#45;&gt;Node3 -->
<g id="edge2" class="edge"><title>Node1&#45;&gt;Node3</title>
<path fill="none" stroke="midnightblue" d="M580.421,-61.752C502.402,-55.8799 338.075,-42.152 189.512,-20.1004"/>
<polygon fill="midnightblue" stroke="midnightblue" points="189.706,-16.5905 179.297,-18.5672 188.667,-23.5129 189.706,-16.5905"/>
</g>
<!-- Node4 -->
<g id="node4" class="node"><title>Node4</title>
<g id="a_node4"><a xlink:href="OP__AniDiff_8hpp.html" target="_top" xlink:title="It applies a simplified version of the anisotropic diffusion. ">
<polygon fill="none" stroke="black" points="197.5,-0.5 197.5,-19.5 282.5,-19.5 282.5,-0.5 197.5,-0.5"/>
<text text-anchor="middle" x="240" y="-7.5" font-family="Helvetica,sans-Serif" font-size="10.00">OP_AniDiff.hpp</text>
</a>
</g>
</g>
<!-- Node1&#45;&gt;Node4 -->
<g id="edge3" class="edge"><title>Node1&#45;&gt;Node4</title>
<path fill="none" stroke="midnightblue" d="M580.271,-59.3898C517.749,-51.5976 401.837,-36.719 292.432,-20.0146"/>
<polygon fill="midnightblue" stroke="midnightblue" points="292.961,-16.5548 282.546,-18.4973 291.899,-23.4738 292.961,-16.5548"/>
</g>
<!-- Node5 -->
<g id="node5" class="node"><title>Node5</title>
<g id="a_node5"><a xlink:href="OP__Div_8hpp.html" target="_top" xlink:title="It divides two matrices element&#45;wise. ">
<polygon fill="none" stroke="black" points="301,-0.5 301,-19.5 371,-19.5 371,-0.5 301,-0.5"/>
<text text-anchor="middle" x="336" y="-7.5" font-family="Helvetica,sans-Serif" font-size="10.00">OP_Div.hpp</text>
</a>
</g>
</g>
<!-- Node1&#45;&gt;Node5 -->
<g id="edge4" class="edge"><title>Node1&#45;&gt;Node5</title>
<path fill="none" stroke="midnightblue" d="M580.154,-56.908C532.831,-48.4896 456.595,-34.7451 381.199,-20.2015"/>
<polygon fill="midnightblue" stroke="midnightblue" points="381.534,-16.7015 371.051,-18.2381 380.204,-23.5741 381.534,-16.7015"/>
</g>
<!-- Node6 -->
<g id="node6" class="node"><title>Node6</title>
<g id="a_node6"><a xlink:href="OP__FloatToF32C3_8hpp.html" target="_top" xlink:title="Converts from uchar to float and float to uchar. ">
<polygon fill="none" stroke="black" points="389.5,-0.5 389.5,-19.5 506.5,-19.5 506.5,-0.5 389.5,-0.5"/>
<text text-anchor="middle" x="448" y="-7.5" font-family="Helvetica,sans-Serif" font-size="10.00">OP_FloatToF32C3.hpp</text>
</a>
</g>
</g>
<!-- Node1&#45;&gt;Node6 -->
<g id="edge5" class="edge"><title>Node1&#45;&gt;Node6</title>
<path fill="none" stroke="midnightblue" d="M597.795,-56.4435C567.59,-47.2801 519.489,-32.6876 485.971,-22.5192"/>
<polygon fill="midnightblue" stroke="midnightblue" points="486.658,-19.0703 476.073,-19.5164 484.626,-25.7688 486.658,-19.0703"/>
</g>
<!-- Node7 -->
<g id="node7" class="node"><title>Node7</title>
<g id="a_node7"><a xlink:href="OP__Median_8hpp.html" target="_top" xlink:title="It applies the median filter in an image. ">
<polygon fill="none" stroke="black" points="525,-0.5 525,-19.5 611,-19.5 611,-0.5 525,-0.5"/>
<text text-anchor="middle" x="568" y="-7.5" font-family="Helvetica,sans-Serif" font-size="10.00">OP_Median.hpp</text>
</a>
</g>
</g>
<!-- Node1&#45;&gt;Node7 -->
<g id="edge6" class="edge"><title>Node1&#45;&gt;Node7</title>
<path fill="none" stroke="midnightblue" d="M616.681,-56.324C608.107,-48.3414 595.188,-36.3128 584.812,-26.6529"/>
<polygon fill="midnightblue" stroke="midnightblue" points="587.192,-24.0865 577.488,-19.8339 582.422,-29.2098 587.192,-24.0865"/>
</g>
<!-- Node8 -->
<g id="node8" class="node"><title>Node8</title>
<g id="a_node8"><a xlink:href="OP__Merge2Chns_8hpp.html" target="_top" xlink:title="It merges 2 matrices of one channels into one matrix of 2 channels. ">
<polygon fill="none" stroke="black" points="629,-0.5 629,-19.5 739,-19.5 739,-0.5 629,-0.5"/>
<text text-anchor="middle" x="684" y="-7.5" font-family="Helvetica,sans-Serif" font-size="10.00">OP_Merge2Chns.hpp</text>
</a>
</g>
</g>
<!-- Node1&#45;&gt;Node8 -->
<g id="edge7" class="edge"><title>Node1&#45;&gt;Node8</title>
<path fill="none" stroke="midnightblue" d="M635.319,-56.324C643.893,-48.3414 656.812,-36.3128 667.188,-26.6529"/>
<polygon fill="midnightblue" stroke="midnightblue" points="669.578,-29.2098 674.512,-19.8339 664.808,-24.0865 669.578,-29.2098"/>
</g>
<!-- Node9 -->
<g id="node9" class="node"><title>Node9</title>
<g id="a_node9"><a xlink:href="OP__Mul_8hpp.html" target="_top" xlink:title="Element&#45;wise matrix multiplication. ">
<polygon fill="none" stroke="black" points="757.5,-0.5 757.5,-19.5 828.5,-19.5 828.5,-0.5 757.5,-0.5"/>
<text text-anchor="middle" x="793" y="-7.5" font-family="Helvetica,sans-Serif" font-size="10.00">OP_Mul.hpp</text>
</a>
</g>
</g>
<!-- Node1&#45;&gt;Node9 -->
<g id="edge8" class="edge"><title>Node1&#45;&gt;Node9</title>
<path fill="none" stroke="midnightblue" d="M652.462,-56.4435C680.678,-47.3196 725.54,-32.8133 756.968,-22.6509"/>
<polygon fill="midnightblue" stroke="midnightblue" points="758.224,-25.9234 766.662,-19.5164 756.07,-19.263 758.224,-25.9234"/>
</g>
<!-- Node10 -->
<g id="node10" class="node"><title>Node10</title>
<g id="a_node10"><a xlink:href="OP__PowerOf2_8hpp.html" target="_top" xlink:title="It calculates the power of 2 of a matrix. ">
<polygon fill="none" stroke="black" points="847,-0.5 847,-19.5 945,-19.5 945,-0.5 847,-0.5"/>
<text text-anchor="middle" x="896" y="-7.5" font-family="Helvetica,sans-Serif" font-size="10.00">OP_PowerOf2.hpp</text>
</a>
</g>
</g>
<!-- Node1&#45;&gt;Node10 -->
<g id="edge9" class="edge"><title>Node1&#45;&gt;Node10</title>
<path fill="none" stroke="midnightblue" d="M668.782,-56.4435C716.179,-46.9641 792.626,-31.6747 843.583,-21.4835"/>
<polygon fill="midnightblue" stroke="midnightblue" points="844.298,-24.9097 853.418,-19.5164 842.926,-18.0456 844.298,-24.9097"/>
</g>
<!-- Node11 -->
<g id="node11" class="node"><title>Node11</title>
<g id="a_node11"><a xlink:href="OP__Scale_8hpp.html" target="_top" xlink:title="It scales the pixel value of an image by a factor. ">
<polygon fill="none" stroke="black" points="963,-0.5 963,-19.5 1043,-19.5 1043,-0.5 963,-0.5"/>
<text text-anchor="middle" x="1003" y="-7.5" font-family="Helvetica,sans-Serif" font-size="10.00">OP_Scale.hpp</text>
</a>
</g>
</g>
<!-- Node1&#45;&gt;Node11 -->
<g id="edge10" class="edge"><title>Node1&#45;&gt;Node11</title>
<path fill="none" stroke="midnightblue" d="M671.582,-59.3318C734.852,-51.3264 852.823,-35.9019 953,-20 953.101,-19.984 953.202,-19.968 953.302,-19.9519"/>
<polygon fill="midnightblue" stroke="midnightblue" points="953.611,-23.4484 962.908,-18.3671 952.471,-16.5418 953.611,-23.4484"/>
</g>
<!-- Node12 -->
<g id="node12" class="node"><title>Node12</title>
<g id="a_node12"><a xlink:href="OP__Sub_8hpp.html" target="_top" xlink:title="It calculates the difference between 2 images. ">
<polygon fill="none" stroke="black" points="1061,-0.5 1061,-19.5 1133,-19.5 1133,-0.5 1061,-0.5"/>
<text text-anchor="middle" x="1097" y="-7.5" font-family="Helvetica,sans-Serif" font-size="10.00">OP_Sub.hpp</text>
</a>
</g>
</g>
<!-- Node1&#45;&gt;Node12 -->
<g id="edge11" class="edge"><title>Node1&#45;&gt;Node12</title>
<path fill="none" stroke="midnightblue" d="M671.57,-61.5735C747.95,-55.5278 906.806,-41.6614 1050.8,-20.0595"/>
<polygon fill="midnightblue" stroke="midnightblue" points="1051.34,-23.5179 1060.7,-18.5582 1050.29,-16.597 1051.34,-23.5179"/>
</g>
<!-- Node13 -->
<g id="node13" class="node"><title>Node13</title>
<g id="a_node13"><a xlink:href="OP__Thresh_8hpp.html" target="_top" xlink:title="it applies a threshold operation in the image ">
<polygon fill="none" stroke="black" points="1151.5,-0.5 1151.5,-19.5 1236.5,-19.5 1236.5,-0.5 1151.5,-0.5"/>
<text text-anchor="middle" x="1194" y="-7.5" font-family="Helvetica,sans-Serif" font-size="10.00">OP_Thresh.hpp</text>
</a>
</g>
</g>
<!-- Node1&#45;&gt;Node13 -->
<g id="edge12" class="edge"><title>Node1&#45;&gt;Node13</title>
<path fill="none" stroke="midnightblue" d="M671.696,-62.3147C760.203,-56.8319 961.356,-42.9997 1141.3,-19.9762"/>
<polygon fill="midnightblue" stroke="midnightblue" points="1142.01,-23.4133 1151.48,-18.6606 1141.11,-16.471 1142.01,-23.4133"/>
</g>
</g>
</svg>
