<?xml version="1.0" encoding="UTF-8" standalone="no"?>
<!DOCTYPE svg PUBLIC "-//W3C//DTD SVG 1.1//EN"
 "http://www.w3.org/Graphics/SVG/1.1/DTD/svg11.dtd">
<!-- Generated by graphviz version 2.43.0 (0)
 -->
<!-- Title: experimental.hpp Pages: 1 -->
<svg width="1293pt" height="84pt"
 viewBox="0.00 0.00 1292.50 84.00" xmlns="http://www.w3.org/2000/svg" xmlns:xlink="http://www.w3.org/1999/xlink">
<g id="graph0" class="graph" transform="scale(1 1) rotate(0) translate(4 80)">
<title>experimental.hpp</title>
<!-- Node1 -->
<g id="node1" class="node">
<title>Node1</title>
<g id="a_node1"><a xlink:title="This header gathers all experimental operations.">
<polygon fill="#bfbfbf" stroke="black" points="596.5,-56.5 596.5,-75.5 699.5,-75.5 699.5,-56.5 596.5,-56.5"/>
<text text-anchor="middle" x="648" y="-63.5" font-family="Helvetica,sans-Serif" font-size="10.00">experimental.hpp</text>
</a>
</g>
</g>
<!-- Node2 -->
<g id="node2" class="node">
<title>Node2</title>
<g id="a_node2"><a xlink:href="OP__AbsSub_8hpp.html" target="_top" xlink:title="It gets the absolute difference between 2 images.">
<polygon fill="none" stroke="black" points="0,-0.5 0,-19.5 92,-19.5 92,-0.5 0,-0.5"/>
<text text-anchor="middle" x="46" y="-7.5" font-family="Helvetica,sans-Serif" font-size="10.00">OP_AbsSub.hpp</text>
</a>
</g>
</g>
<!-- Node1&#45;&gt;Node2 -->
<g id="edge1" class="edge">
<title>Node1&#45;&gt;Node2</title>
<path fill="none" stroke="midnightblue" d="M596.2,-62.13C500.63,-56.52 289.93,-42.76 102.23,-20.06"/>
<polygon fill="midnightblue" stroke="midnightblue" points="102.53,-16.57 92.17,-18.83 101.68,-23.52 102.53,-16.57"/>
</g>
<!-- Node3 -->
<g id="node3" class="node">
<title>Node3</title>
<g id="a_node3"><a xlink:href="OP__Add_8hpp.html" target="_top" xlink:title="It adds the values pixel by pixel of two images.">
<polygon fill="none" stroke="black" points="110.5,-0.5 110.5,-19.5 185.5,-19.5 185.5,-0.5 110.5,-0.5"/>
<text text-anchor="middle" x="148" y="-7.5" font-family="Helvetica,sans-Serif" font-size="10.00">OP_Add.hpp</text>
</a>
</g>
</g>
<!-- Node1&#45;&gt;Node3 -->
<g id="edge2" class="edge">
<title>Node1&#45;&gt;Node3</title>
<path fill="none" stroke="midnightblue" d="M596.4,-61.48C513.79,-55.49 346.55,-41.95 195.53,-20.11"/>
<polygon fill="midnightblue" stroke="midnightblue" points="196.01,-16.64 185.61,-18.66 194.99,-23.57 196.01,-16.64"/>
</g>
<!-- Node4 -->
<g id="node4" class="node">
<title>Node4</title>
<g id="a_node4"><a xlink:href="OP__AniDiff_8hpp.html" target="_top" xlink:title="It applies a simplified version of the anisotropic diffusion.">
<polygon fill="none" stroke="black" points="203.5,-0.5 203.5,-19.5 292.5,-19.5 292.5,-0.5 203.5,-0.5"/>
<text text-anchor="middle" x="248" y="-7.5" font-family="Helvetica,sans-Serif" font-size="10.00">OP_AniDiff.hpp</text>
</a>
</g>
</g>
<!-- Node1&#45;&gt;Node4 -->
<g id="edge3" class="edge">
<title>Node1&#45;&gt;Node4</title>
<path fill="none" stroke="midnightblue" d="M596.33,-58.87C530.62,-50.93 413.38,-36.35 302.77,-20.07"/>
<polygon fill="midnightblue" stroke="midnightblue" points="303.17,-16.59 292.77,-18.59 302.15,-23.51 303.17,-16.59"/>
</g>
<!-- Node5 -->
<g id="node5" class="node">
<title>Node5</title>
<g id="a_node5"><a xlink:href="OP__Div_8hpp.html" target="_top" xlink:title="It divides two matrices element&#45;wise.">
<polygon fill="none" stroke="black" points="311,-0.5 311,-19.5 383,-19.5 383,-0.5 311,-0.5"/>
<text text-anchor="middle" x="347" y="-7.5" font-family="Helvetica,sans-Serif" font-size="10.00">OP_Div.hpp</text>
</a>
</g>
</g>
<!-- Node1&#45;&gt;Node5 -->
<g id="edge4" class="edge">
<title>Node1&#45;&gt;Node5</title>
<path fill="none" stroke="midnightblue" d="M597.42,-56.47C547.85,-48.03 469.9,-34.54 393.17,-20.19"/>
<polygon fill="midnightblue" stroke="midnightblue" points="393.81,-16.75 383.34,-18.34 392.52,-23.63 393.81,-16.75"/>
</g>
<!-- Node6 -->
<g id="node6" class="node">
<title>Node6</title>
<g id="a_node6"><a xlink:href="OP__FloatToF32C3_8hpp.html" target="_top" xlink:title="Converts from uchar to float and float to uchar.">
<polygon fill="none" stroke="black" points="401,-0.5 401,-19.5 523,-19.5 523,-0.5 401,-0.5"/>
<text text-anchor="middle" x="462" y="-7.5" font-family="Helvetica,sans-Serif" font-size="10.00">OP_FloatToF32C3.hpp</text>
</a>
</g>
</g>
<!-- Node1&#45;&gt;Node6 -->
<g id="edge5" class="edge">
<title>Node1&#45;&gt;Node6</title>
<path fill="none" stroke="midnightblue" d="M618.53,-56.44C586.83,-47.24 536.27,-32.56 501.23,-22.39"/>
<polygon fill="midnightblue" stroke="midnightblue" points="501.91,-18.94 491.33,-19.52 499.96,-25.67 501.91,-18.94"/>
</g>
<!-- Node7 -->
<g id="node7" class="node">
<title>Node7</title>
<g id="a_node7"><a xlink:href="OP__Median_8hpp.html" target="_top" xlink:title="It applies the median filter in an image. It gets the median value of a neighbour after sorted.">
<polygon fill="none" stroke="black" points="541,-0.5 541,-19.5 633,-19.5 633,-0.5 541,-0.5"/>
<text text-anchor="middle" x="587" y="-7.5" font-family="Helvetica,sans-Serif" font-size="10.00">OP_Median.hpp</text>
</a>
</g>
</g>
<!-- Node1&#45;&gt;Node7 -->
<g id="edge6" class="edge">
<title>Node1&#45;&gt;Node7</title>
<path fill="none" stroke="midnightblue" d="M638.2,-56.32C629.18,-48.34 615.59,-36.31 604.68,-26.65"/>
<polygon fill="midnightblue" stroke="midnightblue" points="606.79,-23.84 596.98,-19.83 602.15,-29.08 606.79,-23.84"/>
</g>
<!-- Node8 -->
<g id="node8" class="node">
<title>Node8</title>
<g id="a_node8"><a xlink:href="OP__Merge2Chns_8hpp.html" target="_top" xlink:title="It merges 2 matrices of one channels into one matrix of 2 channels.">
<polygon fill="none" stroke="black" points="651.5,-0.5 651.5,-19.5 768.5,-19.5 768.5,-0.5 651.5,-0.5"/>
<text text-anchor="middle" x="710" y="-7.5" font-family="Helvetica,sans-Serif" font-size="10.00">OP_Merge2Chns.hpp</text>
</a>
</g>
</g>
<!-- Node1&#45;&gt;Node8 -->
<g id="edge7" class="edge">
<title>Node1&#45;&gt;Node8</title>
<path fill="none" stroke="midnightblue" d="M657.96,-56.32C667.13,-48.34 680.94,-36.31 692.03,-26.65"/>
<polygon fill="midnightblue" stroke="midnightblue" points="694.62,-29.04 699.86,-19.83 690.02,-23.76 694.62,-29.04"/>
</g>
<!-- Node9 -->
<g id="node9" class="node">
<title>Node9</title>
<g id="a_node9"><a xlink:href="OP__Mul_8hpp.html" target="_top" xlink:title="Element&#45;wise matrix multiplication.">
<polygon fill="none" stroke="black" points="787,-0.5 787,-19.5 861,-19.5 861,-0.5 787,-0.5"/>
<text text-anchor="middle" x="824" y="-7.5" font-family="Helvetica,sans-Serif" font-size="10.00">OP_Mul.hpp</text>
</a>
</g>
</g>
<!-- Node1&#45;&gt;Node9 -->
<g id="edge8" class="edge">
<title>Node1&#45;&gt;Node9</title>
<path fill="none" stroke="midnightblue" d="M675.89,-56.44C705.75,-47.28 753.31,-32.69 786.46,-22.52"/>
<polygon fill="midnightblue" stroke="midnightblue" points="787.71,-25.8 796.24,-19.52 785.66,-19.1 787.71,-25.8"/>
</g>
<!-- Node10 -->
<g id="node10" class="node">
<title>Node10</title>
<g id="a_node10"><a xlink:href="OP__PowerOf2_8hpp.html" target="_top" xlink:title="It calculates the power of 2 of a matrix.">
<polygon fill="none" stroke="black" points="879,-0.5 879,-19.5 983,-19.5 983,-0.5 879,-0.5"/>
<text text-anchor="middle" x="931" y="-7.5" font-family="Helvetica,sans-Serif" font-size="10.00">OP_PowerOf2.hpp</text>
</a>
</g>
</g>
<!-- Node1&#45;&gt;Node10 -->
<g id="edge9" class="edge">
<title>Node1&#45;&gt;Node10</title>
<path fill="none" stroke="midnightblue" d="M692.84,-56.44C742.62,-46.94 822.98,-31.61 876.39,-21.42"/>
<polygon fill="midnightblue" stroke="midnightblue" points="877.2,-24.83 886.37,-19.52 875.89,-17.95 877.2,-24.83"/>
</g>
<!-- Node11 -->
<g id="node11" class="node">
<title>Node11</title>
<g id="a_node11"><a xlink:href="OP__Scale_8hpp.html" target="_top" xlink:title="It scales the pixel value of an image by a factor.">
<polygon fill="none" stroke="black" points="1001.5,-0.5 1001.5,-19.5 1084.5,-19.5 1084.5,-0.5 1001.5,-0.5"/>
<text text-anchor="middle" x="1043" y="-7.5" font-family="Helvetica,sans-Serif" font-size="10.00">OP_Scale.hpp</text>
</a>
</g>
</g>
<!-- Node1&#45;&gt;Node11 -->
<g id="edge10" class="edge">
<title>Node1&#45;&gt;Node11</title>
<path fill="none" stroke="midnightblue" d="M699.68,-58.97C765.09,-51.17 881.49,-36.76 991.35,-20.04"/>
<polygon fill="midnightblue" stroke="midnightblue" points="991.92,-23.49 1001.28,-18.52 990.86,-16.57 991.92,-23.49"/>
</g>
<!-- Node12 -->
<g id="node12" class="node">
<title>Node12</title>
<g id="a_node12"><a xlink:href="OP__Sub_8hpp.html" target="_top" xlink:title="It calculates the difference between 2 images.">
<polygon fill="none" stroke="black" points="1103,-0.5 1103,-19.5 1177,-19.5 1177,-0.5 1103,-0.5"/>
<text text-anchor="middle" x="1140" y="-7.5" font-family="Helvetica,sans-Serif" font-size="10.00">OP_Sub.hpp</text>
</a>
</g>
</g>
<!-- Node1&#45;&gt;Node12 -->
<g id="edge11" class="edge">
<title>Node1&#45;&gt;Node12</title>
<path fill="none" stroke="midnightblue" d="M699.7,-61.35C781.13,-55.25 944.41,-41.64 1092.7,-20.07"/>
<polygon fill="midnightblue" stroke="midnightblue" points="1093.51,-23.48 1102.89,-18.57 1092.49,-16.56 1093.51,-23.48"/>
</g>
<!-- Node13 -->
<g id="node13" class="node">
<title>Node13</title>
<g id="a_node13"><a xlink:href="OP__Thresh_8hpp.html" target="_top" xlink:title="it applies a threshold operation in the image">
<polygon fill="none" stroke="black" points="1195.5,-0.5 1195.5,-19.5 1284.5,-19.5 1284.5,-0.5 1195.5,-0.5"/>
<text text-anchor="middle" x="1240" y="-7.5" font-family="Helvetica,sans-Serif" font-size="10.00">OP_Thresh.hpp</text>
</a>
</g>
</g>
<!-- Node1&#45;&gt;Node13 -->
<g id="edge12" class="edge">
<title>Node1&#45;&gt;Node13</title>
<path fill="none" stroke="midnightblue" d="M699.71,-62.09C794.02,-56.46 1000.49,-42.73 1185.09,-20.01"/>
<polygon fill="midnightblue" stroke="midnightblue" points="1185.76,-23.45 1195.25,-18.75 1184.9,-16.51 1185.76,-23.45"/>
</g>
</g>
</svg>
