<?xml version="1.0" encoding="UTF-8" standalone="no"?>
<!DOCTYPE svg PUBLIC "-//W3C//DTD SVG 1.1//EN"
 "http://www.w3.org/Graphics/SVG/1.1/DTD/svg11.dtd">
<!-- Generated by graphviz version 2.43.0 (0)
 -->
<!-- Title: expr_convertor.hpp Pages: 1 -->
<svg width="702pt" height="84pt"
 viewBox="0.00 0.00 702.00 84.00" xmlns="http://www.w3.org/2000/svg" xmlns:xlink="http://www.w3.org/1999/xlink">
<g id="graph0" class="graph" transform="scale(1 1) rotate(0) translate(4 80)">
<title>expr_convertor.hpp</title>
<!-- Node1 -->
<g id="node1" class="node">
<title>Node1</title>
<g id="a_node1"><a xlink:title="this is used to replace the leaf node with a PlaceHolder node.">
<polygon fill="#bfbfbf" stroke="black" points="242.5,-56.5 242.5,-75.5 352.5,-75.5 352.5,-56.5 242.5,-56.5"/>
<text text-anchor="middle" x="297.5" y="-63.5" font-family="Helvetica,sans-Serif" font-size="10.00">expr_convertor.hpp</text>
</a>
</g>
</g>
<!-- Node2 -->
<g id="node2" class="node">
<title>Node2</title>
<g id="a_node2"><a xlink:href="leaf__count_8hpp.html" target="_top" xlink:title="LeafCount used to counting terminal nodes.">
<polygon fill="none" stroke="black" points="0,-0.5 0,-19.5 89,-19.5 89,-0.5 0,-0.5"/>
<text text-anchor="middle" x="44.5" y="-7.5" font-family="Helvetica,sans-Serif" font-size="10.00">leaf_count.hpp</text>
</a>
</g>
</g>
<!-- Node1&#45;&gt;Node2 -->
<g id="edge1" class="edge">
<title>Node1&#45;&gt;Node2</title>
<path fill="none" stroke="midnightblue" d="M257.41,-56.44C213.18,-47 141.96,-31.8 94.22,-21.61"/>
<polygon fill="midnightblue" stroke="midnightblue" points="94.91,-18.18 84.4,-19.52 93.45,-25.03 94.91,-18.18"/>
</g>
<!-- Node3 -->
<g id="node3" class="node">
<title>Node3</title>
<g id="a_node3"><a xlink:href="local__mem__count_8hpp.html" target="_top" xlink:title="LocalmemCount used to counting terminal nodes.">
<polygon fill="none" stroke="black" points="106.5,-0.5 106.5,-19.5 230.5,-19.5 230.5,-0.5 106.5,-0.5"/>
<text text-anchor="middle" x="168.5" y="-7.5" font-family="Helvetica,sans-Serif" font-size="10.00">local_mem_count.hpp</text>
</a>
</g>
</g>
<!-- Node1&#45;&gt;Node3 -->
<g id="edge2" class="edge">
<title>Node1&#45;&gt;Node3</title>
<path fill="none" stroke="midnightblue" d="M277.06,-56.44C255.83,-47.56 222.4,-33.56 198.25,-23.45"/>
<polygon fill="midnightblue" stroke="midnightblue" points="199.42,-20.15 188.84,-19.52 196.72,-26.61 199.42,-20.15"/>
</g>
<!-- Node4 -->
<g id="node4" class="node">
<title>Node4</title>
<g id="a_node4"><a xlink:href="local__output_8hpp.html" target="_top" xlink:title="This file contains the different specialisations of the LocalOutput.">
<polygon fill="none" stroke="black" points="248.5,-0.5 248.5,-19.5 346.5,-19.5 346.5,-0.5 248.5,-0.5"/>
<text text-anchor="middle" x="297.5" y="-7.5" font-family="Helvetica,sans-Serif" font-size="10.00">local_output.hpp</text>
</a>
</g>
</g>
<!-- Node1&#45;&gt;Node4 -->
<g id="edge3" class="edge">
<title>Node1&#45;&gt;Node4</title>
<path fill="none" stroke="midnightblue" d="M297.5,-56.08C297.5,-49.01 297.5,-38.86 297.5,-29.99"/>
<polygon fill="midnightblue" stroke="midnightblue" points="301,-29.75 297.5,-19.75 294,-29.75 301,-29.75"/>
</g>
<!-- Node5 -->
<g id="node5" class="node">
<title>Node5</title>
<g id="a_node5"><a xlink:href="make__place__holder__expr_8hpp.html" target="_top" xlink:title="PlaceHolder expression helper is used to create an expression in which the leafNodes of visionMemorie...">
<polygon fill="none" stroke="black" points="364.5,-0.5 364.5,-19.5 522.5,-19.5 522.5,-0.5 364.5,-0.5"/>
<text text-anchor="middle" x="443.5" y="-7.5" font-family="Helvetica,sans-Serif" font-size="10.00">make_place_holder_expr.hpp</text>
</a>
</g>
</g>
<!-- Node1&#45;&gt;Node5 -->
<g id="edge4" class="edge">
<title>Node1&#45;&gt;Node5</title>
<path fill="none" stroke="midnightblue" d="M320.63,-56.44C344.98,-47.44 383.51,-33.19 410.92,-23.05"/>
<polygon fill="midnightblue" stroke="midnightblue" points="412.31,-26.27 420.47,-19.52 409.88,-19.7 412.31,-26.27"/>
</g>
<!-- Node6 -->
<g id="node6" class="node">
<title>Node6</title>
<g id="a_node6"><a xlink:href="place__holder__leaf__node_8hpp.html" target="_top" xlink:title="This file contains different specialisations leafNodes for different types of memory.">
<polygon fill="none" stroke="black" points="541,-0.5 541,-19.5 694,-19.5 694,-0.5 541,-0.5"/>
<text text-anchor="middle" x="617.5" y="-7.5" font-family="Helvetica,sans-Serif" font-size="10.00">place_holder_leaf_node.hpp</text>
</a>
</g>
</g>
<!-- Node1&#45;&gt;Node6 -->
<g id="edge5" class="edge">
<title>Node1&#45;&gt;Node6</title>
<path fill="none" stroke="midnightblue" d="M348.2,-56.44C404.85,-46.89 496.5,-31.42 556.88,-21.23"/>
<polygon fill="midnightblue" stroke="midnightblue" points="557.75,-24.63 567.03,-19.52 556.59,-17.73 557.75,-24.63"/>
</g>
</g>
</svg>
