<?xml version="1.0" encoding="UTF-8" standalone="no"?>
<!DOCTYPE svg PUBLIC "-//W3C//DTD SVG 1.1//EN"
 "http://www.w3.org/Graphics/SVG/1.1/DTD/svg11.dtd">
<!-- Generated by graphviz version 2.43.0 (0)
 -->
<!-- Title: expr_tree.hpp Pages: 1 -->
<svg width="1387pt" height="162pt"
 viewBox="0.00 0.00 1387.00 162.00" xmlns="http://www.w3.org/2000/svg" xmlns:xlink="http://www.w3.org/1999/xlink">
<g id="graph0" class="graph" transform="scale(1 1) rotate(0) translate(4 158)">
<title>expr_tree.hpp</title>
<!-- Node1 -->
<g id="node1" class="node">
<title>Node1</title>
<g id="a_node1"><a xlink:title="This file contains the forward declarations and all the necessary include headers for the constructio...">
<polygon fill="#bfbfbf" stroke="black" points="575.5,-134.5 575.5,-153.5 659.5,-153.5 659.5,-134.5 575.5,-134.5"/>
<text text-anchor="middle" x="617.5" y="-141.5" font-family="Helvetica,sans-Serif" font-size="10.00">expr_tree.hpp</text>
</a>
</g>
</g>
<!-- Node2 -->
<g id="node2" class="node">
<title>Node2</title>
<g id="a_node2"><a xlink:href="neighbour__ops_8hpp.html" target="_top" xlink:title="This file contains a set of includes used to construct neighbour nodes in expression tree.">
<polygon fill="none" stroke="black" points="157.5,-67.5 157.5,-97.5 297.5,-97.5 297.5,-67.5 157.5,-67.5"/>
<text text-anchor="start" x="165.5" y="-85.5" font-family="Helvetica,sans-Serif" font-size="10.00">neighbour_ops/neighbour</text>
<text text-anchor="middle" x="227.5" y="-74.5" font-family="Helvetica,sans-Serif" font-size="10.00">_ops.hpp</text>
</a>
</g>
</g>
<!-- Node1&#45;&gt;Node2 -->
<g id="edge1" class="edge">
<title>Node1&#45;&gt;Node2</title>
<path fill="none" stroke="midnightblue" d="M575.39,-136.58C511.55,-126.84 389.11,-108.16 307.85,-95.76"/>
<polygon fill="midnightblue" stroke="midnightblue" points="308.08,-92.25 297.66,-94.2 307.02,-99.17 308.08,-92.25"/>
</g>
<!-- Node6 -->
<g id="node6" class="node">
<title>Node6</title>
<g id="a_node6"><a xlink:href="point__ops_8hpp.html" target="_top" xlink:title="This files contains a set of include headers for point operation node in the expression tree.">
<polygon fill="none" stroke="black" points="550,-73 550,-92 685,-92 685,-73 550,-73"/>
<text text-anchor="middle" x="617.5" y="-80" font-family="Helvetica,sans-Serif" font-size="10.00">point_ops/point_ops.hpp</text>
</a>
</g>
</g>
<!-- Node1&#45;&gt;Node6 -->
<g id="edge5" class="edge">
<title>Node1&#45;&gt;Node6</title>
<path fill="none" stroke="midnightblue" d="M617.5,-134.48C617.5,-126.08 617.5,-112.98 617.5,-102.16"/>
<polygon fill="midnightblue" stroke="midnightblue" points="621,-102.01 617.5,-92.01 614,-102.01 621,-102.01"/>
</g>
<!-- Node12 -->
<g id="node12" class="node">
<title>Node12</title>
<g id="a_node12"><a xlink:href="complex__ops_8hpp.html" target="_top" xlink:title="This file contains a set of includes and forward declaration required to build complex operations lik...">
<polygon fill="none" stroke="black" points="1014.5,-67.5 1014.5,-97.5 1140.5,-97.5 1140.5,-67.5 1014.5,-67.5"/>
<text text-anchor="start" x="1022.5" y="-85.5" font-family="Helvetica,sans-Serif" font-size="10.00">complex_ops/complex</text>
<text text-anchor="middle" x="1077.5" y="-74.5" font-family="Helvetica,sans-Serif" font-size="10.00">_ops.hpp</text>
</a>
</g>
</g>
<!-- Node1&#45;&gt;Node12 -->
<g id="edge11" class="edge">
<title>Node1&#45;&gt;Node12</title>
<path fill="none" stroke="midnightblue" d="M659.54,-137.56C737.83,-127.43 906.85,-105.57 1004.27,-92.97"/>
<polygon fill="midnightblue" stroke="midnightblue" points="1004.87,-96.42 1014.34,-91.67 1003.97,-89.48 1004.87,-96.42"/>
</g>
<!-- Node3 -->
<g id="node3" class="node">
<title>Node3</title>
<g id="a_node3"><a xlink:href="reduction_8hpp.html" target="_top" xlink:title="This file contains RDCN struct which is used to construct a node to shrink an image.">
<polygon fill="none" stroke="black" points="0,-6 0,-25 83,-25 83,-6 0,-6"/>
<text text-anchor="middle" x="41.5" y="-13" font-family="Helvetica,sans-Serif" font-size="10.00">reduction.hpp</text>
</a>
</g>
</g>
<!-- Node2&#45;&gt;Node3 -->
<g id="edge2" class="edge">
<title>Node2&#45;&gt;Node3</title>
<path fill="none" stroke="midnightblue" d="M187.14,-67.4C153.78,-55.74 106.95,-39.37 75.48,-28.38"/>
<polygon fill="midnightblue" stroke="midnightblue" points="76.44,-25 65.84,-25.01 74.13,-31.61 76.44,-25"/>
</g>
<!-- Node4 -->
<g id="node4" class="node">
<title>Node4</title>
<g id="a_node4"><a xlink:href="stencil__no__filter_8hpp.html" target="_top" xlink:title="This file contains StnNoFilt struct which is used to construct a convolutional operation when the val...">
<polygon fill="none" stroke="black" points="101.5,-6 101.5,-25 215.5,-25 215.5,-6 101.5,-6"/>
<text text-anchor="middle" x="158.5" y="-13" font-family="Helvetica,sans-Serif" font-size="10.00">stencil_no_filter.hpp</text>
</a>
</g>
</g>
<!-- Node2&#45;&gt;Node4 -->
<g id="edge3" class="edge">
<title>Node2&#45;&gt;Node4</title>
<path fill="none" stroke="midnightblue" d="M212.53,-67.4C201.56,-57.06 186.66,-43.02 175.28,-32.31"/>
<polygon fill="midnightblue" stroke="midnightblue" points="177.41,-29.5 167.73,-25.19 172.61,-34.6 177.41,-29.5"/>
</g>
<!-- Node5 -->
<g id="node5" class="node">
<title>Node5</title>
<g id="a_node5"><a xlink:href="stencil__with__filter_8hpp.html" target="_top" xlink:title="This file contains the StnNoFilt struct which is used to construct a convolutional operation when the...">
<polygon fill="none" stroke="black" points="234,-6 234,-25 357,-25 357,-6 234,-6"/>
<text text-anchor="middle" x="295.5" y="-13" font-family="Helvetica,sans-Serif" font-size="10.00">stencil_with_filter.hpp</text>
</a>
</g>
</g>
<!-- Node2&#45;&gt;Node5 -->
<g id="edge4" class="edge">
<title>Node2&#45;&gt;Node5</title>
<path fill="none" stroke="midnightblue" d="M242.25,-67.4C253.07,-57.06 267.75,-43.02 278.96,-32.31"/>
<polygon fill="midnightblue" stroke="midnightblue" points="281.59,-34.63 286.4,-25.19 276.76,-29.57 281.59,-34.63"/>
</g>
<!-- Node7 -->
<g id="node7" class="node">
<title>Node7</title>
<g id="a_node7"><a xlink:href="assign_8hpp.html" target="_top" xlink:title="This file contains the Assign struct which is used to allocate the result of the right hand side expr...">
<polygon fill="none" stroke="black" points="375,-6 375,-25 444,-25 444,-6 375,-6"/>
<text text-anchor="middle" x="409.5" y="-13" font-family="Helvetica,sans-Serif" font-size="10.00">assign.hpp</text>
</a>
</g>
</g>
<!-- Node6&#45;&gt;Node7 -->
<g id="edge6" class="edge">
<title>Node6&#45;&gt;Node7</title>
<path fill="none" stroke="midnightblue" d="M589.3,-73C556.58,-63.1 501.04,-46.15 453.5,-31 450.6,-30.08 447.61,-29.11 444.6,-28.13"/>
<polygon fill="midnightblue" stroke="midnightblue" points="445.66,-24.8 435.07,-25.02 443.48,-31.45 445.66,-24.8"/>
</g>
<!-- Node8 -->
<g id="node8" class="node">
<title>Node8</title>
<g id="a_node8"><a xlink:href="leaf__node_8hpp.html" target="_top" xlink:title="This file contains the LeafNode struct which is a general representation of our terminal node in the ...">
<polygon fill="none" stroke="black" points="462.5,-6 462.5,-25 548.5,-25 548.5,-6 462.5,-6"/>
<text text-anchor="middle" x="505.5" y="-13" font-family="Helvetica,sans-Serif" font-size="10.00">leaf_node.hpp</text>
</a>
</g>
</g>
<!-- Node6&#45;&gt;Node8 -->
<g id="edge7" class="edge">
<title>Node6&#45;&gt;Node8</title>
<path fill="none" stroke="midnightblue" d="M602.4,-72.73C583.59,-61.82 551.25,-43.05 529.14,-30.22"/>
<polygon fill="midnightblue" stroke="midnightblue" points="530.77,-27.12 520.37,-25.13 527.26,-33.17 530.77,-27.12"/>
</g>
<!-- Node9 -->
<g id="node9" class="node">
<title>Node9</title>
<g id="a_node9"><a xlink:href="parallel__copy_8hpp.html" target="_top" xlink:title="This file contains the ParallelCopy struct which is used to allocate the partial result of the right&#45;...">
<polygon fill="none" stroke="black" points="567,-6 567,-25 668,-25 668,-6 567,-6"/>
<text text-anchor="middle" x="617.5" y="-13" font-family="Helvetica,sans-Serif" font-size="10.00">parallel_copy.hpp</text>
</a>
</g>
</g>
<!-- Node6&#45;&gt;Node9 -->
<g id="edge8" class="edge">
<title>Node6&#45;&gt;Node9</title>
<path fill="none" stroke="midnightblue" d="M617.5,-72.73C617.5,-63.18 617.5,-47.62 617.5,-35.28"/>
<polygon fill="midnightblue" stroke="midnightblue" points="621,-35.13 617.5,-25.13 614,-35.13 621,-35.13"/>
</g>
<!-- Node10 -->
<g id="node10" class="node">
<title>Node10</title>
<g id="a_node10"><a xlink:href="resizable__binary_8hpp.html" target="_top" xlink:title="This file contains RBiOP (Binary Operation) struct which is used to apply Binary Operation on left ha...">
<polygon fill="none" stroke="black" points="686.5,-6 686.5,-25 802.5,-25 802.5,-6 686.5,-6"/>
<text text-anchor="middle" x="744.5" y="-13" font-family="Helvetica,sans-Serif" font-size="10.00">resizable_binary.hpp</text>
</a>
</g>
</g>
<!-- Node6&#45;&gt;Node10 -->
<g id="edge9" class="edge">
<title>Node6&#45;&gt;Node10</title>
<path fill="none" stroke="midnightblue" d="M634.36,-72.87C655.9,-61.84 693.4,-42.66 718.58,-29.77"/>
<polygon fill="midnightblue" stroke="midnightblue" points="720.26,-32.84 727.57,-25.17 717.07,-26.61 720.26,-32.84"/>
</g>
<!-- Node11 -->
<g id="node11" class="node">
<title>Node11</title>
<g id="a_node11"><a xlink:href="resizable__unary_8hpp.html" target="_top" xlink:title="This file contains RUnOP (Unary Operation) struct which is used to apply Unary Operation on the right...">
<polygon fill="none" stroke="black" points="821,-6 821,-25 934,-25 934,-6 821,-6"/>
<text text-anchor="middle" x="877.5" y="-13" font-family="Helvetica,sans-Serif" font-size="10.00">resizable_unary.hpp</text>
</a>
</g>
</g>
<!-- Node6&#45;&gt;Node11 -->
<g id="edge10" class="edge">
<title>Node6&#45;&gt;Node11</title>
<path fill="none" stroke="midnightblue" d="M651.76,-72.94C698.43,-61.27 782.03,-40.37 833.35,-27.54"/>
<polygon fill="midnightblue" stroke="midnightblue" points="834.31,-30.9 843.17,-25.08 832.62,-24.11 834.31,-30.9"/>
</g>
<!-- Node13 -->
<g id="node13" class="node">
<title>Node13</title>
<g id="a_node13"><a xlink:href="pyramid__mem_8hpp.html" target="_top" xlink:title="This file is used to create a pyramid output memory when the auto generate output memory is selected....">
<polygon fill="none" stroke="black" points="952,-6 952,-25 1061,-25 1061,-6 952,-6"/>
<text text-anchor="middle" x="1006.5" y="-13" font-family="Helvetica,sans-Serif" font-size="10.00">pyramid_mem.hpp</text>
</a>
</g>
</g>
<!-- Node12&#45;&gt;Node13 -->
<g id="edge12" class="edge">
<title>Node12&#45;&gt;Node13</title>
<path fill="none" stroke="midnightblue" d="M1062.09,-67.4C1050.69,-56.96 1035.17,-42.75 1023.43,-32"/>
<polygon fill="midnightblue" stroke="midnightblue" points="1025.74,-29.37 1016,-25.19 1021.01,-34.53 1025.74,-29.37"/>
</g>
<!-- Node14 -->
<g id="node14" class="node">
<title>Node14</title>
<g id="a_node14"><a xlink:href="pyramid__with__auto__mem__gen_8hpp.html" target="_top" xlink:title="This file contains the construction of the pyramid node where a user can pass general filter2d functo...">
<polygon fill="none" stroke="black" points="1079,-0.5 1079,-30.5 1220,-30.5 1220,-0.5 1079,-0.5"/>
<text text-anchor="start" x="1087" y="-18.5" font-family="Helvetica,sans-Serif" font-size="10.00">pyramid_with_auto_mem</text>
<text text-anchor="middle" x="1149.5" y="-7.5" font-family="Helvetica,sans-Serif" font-size="10.00">_gen.hpp</text>
</a>
</g>
</g>
<!-- Node12&#45;&gt;Node14 -->
<g id="edge13" class="edge">
<title>Node12&#45;&gt;Node14</title>
<path fill="none" stroke="midnightblue" d="M1093.12,-67.4C1102.84,-58.62 1115.51,-47.18 1126.38,-37.37"/>
<polygon fill="midnightblue" stroke="midnightblue" points="1128.83,-39.88 1133.91,-30.58 1124.14,-34.68 1128.83,-39.88"/>
</g>
<!-- Node15 -->
<g id="node15" class="node">
<title>Node15</title>
<g id="a_node15"><a xlink:href="pyramid__with__auto__mem__sep_8hpp.html" target="_top" xlink:title="This file contains the construction of the pyramid node where a user can pass separable filter2d func...">
<polygon fill="none" stroke="black" points="1238,-0.5 1238,-30.5 1379,-30.5 1379,-0.5 1238,-0.5"/>
<text text-anchor="start" x="1246" y="-18.5" font-family="Helvetica,sans-Serif" font-size="10.00">pyramid_with_auto_mem</text>
<text text-anchor="middle" x="1308.5" y="-7.5" font-family="Helvetica,sans-Serif" font-size="10.00">_sep.hpp</text>
</a>
</g>
</g>
<!-- Node12&#45;&gt;Node15 -->
<g id="edge14" class="edge">
<title>Node12&#45;&gt;Node15</title>
<path fill="none" stroke="midnightblue" d="M1127.34,-67.48C1162.89,-57.47 1210.87,-43.97 1248.52,-33.38"/>
<polygon fill="midnightblue" stroke="midnightblue" points="1249.67,-36.69 1258.35,-30.61 1247.78,-29.95 1249.67,-36.69"/>
</g>
</g>
</svg>
