<?xml version="1.0" encoding="UTF-8" standalone="no"?>
<!DOCTYPE svg PUBLIC "-//W3C//DTD SVG 1.1//EN"
 "http://www.w3.org/Graphics/SVG/1.1/DTD/svg11.dtd">
<!-- Generated by graphviz version 2.36.0 (20140111.2315)
 -->
<!-- Title: expr_tree.hpp Pages: 1 -->
<svg width="1270pt" height="164pt"
 viewBox="0.00 0.00 1270.00 164.00" xmlns="http://www.w3.org/2000/svg" xmlns:xlink="http://www.w3.org/1999/xlink">
<g id="graph0" class="graph" transform="scale(1 1) rotate(0) translate(4 160)">
<title>expr_tree.hpp</title>
<!-- Node1 -->
<g id="node1" class="node"><title>Node1</title>
<polygon fill="#bfbfbf" stroke="black" points="531,-136.5 531,-155.5 607,-155.5 607,-136.5 531,-136.5"/>
<text text-anchor="middle" x="569" y="-143.5" font-family="Helvetica,sans-Serif" font-size="10.00">expr_tree.hpp</text>
</g>
<!-- Node2 -->
<g id="node2" class="node"><title>Node2</title>
<g id="a_node2"><a xlink:href="neighbour__ops_8hpp.html" target="_top" xlink:title="This file contains a set of includes used to construct neighbour nodes in expression tree...">
<polygon fill="none" stroke="black" points="145.5,-69 145.5,-99 270.5,-99 270.5,-69 145.5,-69"/>
<text text-anchor="start" x="153.5" y="-87" font-family="Helvetica,sans-Serif" font-size="10.00">neighbour_ops/neighbour</text>
<text text-anchor="middle" x="208" y="-76" font-family="Helvetica,sans-Serif" font-size="10.00">_ops.hpp</text>
</a>
</g>
</g>
<!-- Node1&#45;&gt;Node2 -->
<g id="edge1" class="edge"><title>Node1&#45;&gt;Node2</title>
<path fill="none" stroke="midnightblue" d="M530.708,-138.636C471.316,-128.764 355.98,-109.595 280.498,-97.0495"/>
<polygon fill="midnightblue" stroke="midnightblue" points="281.019,-93.5882 270.58,-95.4012 279.871,-100.493 281.019,-93.5882"/>
</g>
<!-- Node6 -->
<g id="node6" class="node"><title>Node6</title>
<g id="a_node6"><a xlink:href="point__ops_8hpp.html" target="_top" xlink:title="This files contains a set of include headers for point operation node in the expression tree...">
<polygon fill="none" stroke="black" points="508,-74.5 508,-93.5 630,-93.5 630,-74.5 508,-74.5"/>
<text text-anchor="middle" x="569" y="-81.5" font-family="Helvetica,sans-Serif" font-size="10.00">point_ops/point_ops.hpp</text>
</a>
</g>
</g>
<!-- Node1&#45;&gt;Node6 -->
<g id="edge5" class="edge"><title>Node1&#45;&gt;Node6</title>
<path fill="none" stroke="midnightblue" d="M569,-136.403C569,-127.938 569,-114.728 569,-103.82"/>
<polygon fill="midnightblue" stroke="midnightblue" points="572.5,-103.581 569,-93.5806 565.5,-103.581 572.5,-103.581"/>
</g>
<!-- Node12 -->
<g id="node12" class="node"><title>Node12</title>
<g id="a_node12"><a xlink:href="complex__ops_8hpp.html" target="_top" xlink:title="This file contains a set of includes and forward declaration required to build complex operations lik...">
<polygon fill="none" stroke="black" points="935,-69 935,-99 1049,-99 1049,-69 935,-69"/>
<text text-anchor="start" x="943" y="-87" font-family="Helvetica,sans-Serif" font-size="10.00">complex_ops/complex</text>
<text text-anchor="middle" x="992" y="-76" font-family="Helvetica,sans-Serif" font-size="10.00">_ops.hpp</text>
</a>
</g>
</g>
<!-- Node1&#45;&gt;Node12 -->
<g id="edge11" class="edge"><title>Node1&#45;&gt;Node12</title>
<path fill="none" stroke="midnightblue" d="M607.284,-139.57C679.151,-129.376 835.081,-107.258 924.799,-94.5321"/>
<polygon fill="midnightblue" stroke="midnightblue" points="925.459,-97.9736 934.868,-93.1038 924.476,-91.043 925.459,-97.9736"/>
</g>
<!-- Node3 -->
<g id="node3" class="node"><title>Node3</title>
<g id="a_node3"><a xlink:href="reduction_8hpp.html" target="_top" xlink:title="This file contains RDCN struct which is used to construct a node to shrink an image. ">
<polygon fill="none" stroke="black" points="-0.5,-6.5 -0.5,-25.5 74.5,-25.5 74.5,-6.5 -0.5,-6.5"/>
<text text-anchor="middle" x="37" y="-13.5" font-family="Helvetica,sans-Serif" font-size="10.00">reduction.hpp</text>
</a>
</g>
</g>
<!-- Node2&#45;&gt;Node3 -->
<g id="edge2" class="edge"><title>Node2&#45;&gt;Node3</title>
<path fill="none" stroke="midnightblue" d="M171.316,-68.8413C140.942,-57.1181 98.208,-40.6241 69.1565,-29.4113"/>
<polygon fill="midnightblue" stroke="midnightblue" points="70.0835,-26.0175 59.494,-25.6819 67.5629,-32.5479 70.0835,-26.0175"/>
</g>
<!-- Node4 -->
<g id="node4" class="node"><title>Node4</title>
<g id="a_node4"><a xlink:href="stencil__no__filter_8hpp.html" target="_top" xlink:title="This file contains StnNoFilt struct which is used to construct a convolutional operation when the val...">
<polygon fill="none" stroke="black" points="93,-6.5 93,-25.5 197,-25.5 197,-6.5 93,-6.5"/>
<text text-anchor="middle" x="145" y="-13.5" font-family="Helvetica,sans-Serif" font-size="10.00">stencil_no_filter.hpp</text>
</a>
</g>
</g>
<!-- Node2&#45;&gt;Node4 -->
<g id="edge3" class="edge"><title>Node2&#45;&gt;Node4</title>
<path fill="none" stroke="midnightblue" d="M194.33,-68.679C184.41,-58.2863 170.971,-44.2081 160.626,-33.37"/>
<polygon fill="midnightblue" stroke="midnightblue" points="162.864,-30.6452 153.427,-25.8283 157.8,-35.4786 162.864,-30.6452"/>
</g>
<!-- Node5 -->
<g id="node5" class="node"><title>Node5</title>
<g id="a_node5"><a xlink:href="stencil__with__filter_8hpp.html" target="_top" xlink:title="This file contains the StnNoFilt struct which is used to construct a convolutional operation when the...">
<polygon fill="none" stroke="black" points="215.5,-6.5 215.5,-25.5 326.5,-25.5 326.5,-6.5 215.5,-6.5"/>
<text text-anchor="middle" x="271" y="-13.5" font-family="Helvetica,sans-Serif" font-size="10.00">stencil_with_filter.hpp</text>
</a>
</g>
</g>
<!-- Node2&#45;&gt;Node5 -->
<g id="edge4" class="edge"><title>Node2&#45;&gt;Node5</title>
<path fill="none" stroke="midnightblue" d="M221.67,-68.679C231.59,-58.2863 245.029,-44.2081 255.374,-33.37"/>
<polygon fill="midnightblue" stroke="midnightblue" points="258.2,-35.4786 262.573,-25.8283 253.136,-30.6452 258.2,-35.4786"/>
</g>
<!-- Node7 -->
<g id="node7" class="node"><title>Node7</title>
<g id="a_node7"><a xlink:href="assign_8hpp.html" target="_top" xlink:title="This file contains the Assign struct which is used to allocate the result of the right hand side expr...">
<polygon fill="none" stroke="black" points="345,-6.5 345,-25.5 409,-25.5 409,-6.5 345,-6.5"/>
<text text-anchor="middle" x="377" y="-13.5" font-family="Helvetica,sans-Serif" font-size="10.00">assign.hpp</text>
</a>
</g>
</g>
<!-- Node6&#45;&gt;Node7 -->
<g id="edge6" class="edge"><title>Node6&#45;&gt;Node7</title>
<path fill="none" stroke="midnightblue" d="M543.014,-74.4428C512.873,-64.4662 461.722,-47.3786 418,-32 415.252,-31.0333 412.404,-30.0188 409.55,-28.9925"/>
<polygon fill="midnightblue" stroke="midnightblue" points="410.543,-25.6299 399.949,-25.5108 408.157,-32.2105 410.543,-25.6299"/>
</g>
<!-- Node8 -->
<g id="node8" class="node"><title>Node8</title>
<g id="a_node8"><a xlink:href="leaf__node_8hpp.html" target="_top" xlink:title="This file contains the LeafNode struct which is a general representation of our terminal node in the ...">
<polygon fill="none" stroke="black" points="427.5,-6.5 427.5,-25.5 504.5,-25.5 504.5,-6.5 427.5,-6.5"/>
<text text-anchor="middle" x="466" y="-13.5" font-family="Helvetica,sans-Serif" font-size="10.00">leaf_node.hpp</text>
</a>
</g>
</g>
<!-- Node6&#45;&gt;Node8 -->
<g id="edge7" class="edge"><title>Node6&#45;&gt;Node8</title>
<path fill="none" stroke="midnightblue" d="M555.535,-74.3717C538.416,-63.4027 508.631,-44.317 488.147,-31.1912"/>
<polygon fill="midnightblue" stroke="midnightblue" points="489.777,-28.0788 479.469,-25.6305 486,-33.9726 489.777,-28.0788"/>
</g>
<!-- Node9 -->
<g id="node9" class="node"><title>Node9</title>
<g id="a_node9"><a xlink:href="parallel__copy_8hpp.html" target="_top" xlink:title="This file contains the ParallelCopy struct which is used to allocate the partial result of the right&#45;...">
<polygon fill="none" stroke="black" points="523,-6.5 523,-25.5 615,-25.5 615,-6.5 523,-6.5"/>
<text text-anchor="middle" x="569" y="-13.5" font-family="Helvetica,sans-Serif" font-size="10.00">parallel_copy.hpp</text>
</a>
</g>
</g>
<!-- Node6&#45;&gt;Node9 -->
<g id="edge8" class="edge"><title>Node6&#45;&gt;Node9</title>
<path fill="none" stroke="midnightblue" d="M569,-74.3717C569,-64.6426 569,-48.528 569,-35.8504"/>
<polygon fill="midnightblue" stroke="midnightblue" points="572.5,-35.8411 569,-25.8411 565.5,-35.8412 572.5,-35.8411"/>
</g>
<!-- Node10 -->
<g id="node10" class="node"><title>Node10</title>
<g id="a_node10"><a xlink:href="resizable__binary_8hpp.html" target="_top" xlink:title="This file contains RBiOP (Binary Operation) struct which is used to apply Binary Operation on left ha...">
<polygon fill="none" stroke="black" points="633,-6.5 633,-25.5 739,-25.5 739,-6.5 633,-6.5"/>
<text text-anchor="middle" x="686" y="-13.5" font-family="Helvetica,sans-Serif" font-size="10.00">resizable_binary.hpp</text>
</a>
</g>
</g>
<!-- Node6&#45;&gt;Node10 -->
<g id="edge9" class="edge"><title>Node6&#45;&gt;Node10</title>
<path fill="none" stroke="midnightblue" d="M584.296,-74.3717C604.003,-63.2545 638.491,-43.7997 661.78,-30.6624"/>
<polygon fill="midnightblue" stroke="midnightblue" points="663.71,-33.5922 670.701,-25.6305 660.271,-27.4953 663.71,-33.5922"/>
</g>
<!-- Node11 -->
<g id="node11" class="node"><title>Node11</title>
<g id="a_node11"><a xlink:href="resizable__unary_8hpp.html" target="_top" xlink:title="This file contains RUnOP (Unary Operation) struct which is used to apply Unary Operation on the right...">
<polygon fill="none" stroke="black" points="757,-6.5 757,-25.5 861,-25.5 861,-6.5 757,-6.5"/>
<text text-anchor="middle" x="809" y="-13.5" font-family="Helvetica,sans-Serif" font-size="10.00">resizable_unary.hpp</text>
</a>
</g>
</g>
<!-- Node6&#45;&gt;Node11 -->
<g id="edge10" class="edge"><title>Node6&#45;&gt;Node11</title>
<path fill="none" stroke="midnightblue" d="M600.376,-74.3717C643.436,-62.5301 720.894,-41.2291 768.349,-28.179"/>
<polygon fill="midnightblue" stroke="midnightblue" points="769.283,-31.5522 777.997,-25.5259 767.427,-24.8028 769.283,-31.5522"/>
</g>
<!-- Node13 -->
<g id="node13" class="node"><title>Node13</title>
<g id="a_node13"><a xlink:href="pyramid__mem_8hpp.html" target="_top" xlink:title="This file is used to create a pyramid output memory when the auto generate output memory is selected...">
<polygon fill="none" stroke="black" points="879.5,-6.5 879.5,-25.5 976.5,-25.5 976.5,-6.5 879.5,-6.5"/>
<text text-anchor="middle" x="928" y="-13.5" font-family="Helvetica,sans-Serif" font-size="10.00">pyramid_mem.hpp</text>
</a>
</g>
</g>
<!-- Node12&#45;&gt;Node13 -->
<g id="edge12" class="edge"><title>Node12&#45;&gt;Node13</title>
<path fill="none" stroke="midnightblue" d="M978.113,-68.679C967.936,-58.1844 954.116,-43.9317 943.566,-33.0522"/>
<polygon fill="midnightblue" stroke="midnightblue" points="946.035,-30.5708 936.561,-25.8283 941.01,-35.4438 946.035,-30.5708"/>
</g>
<!-- Node14 -->
<g id="node14" class="node"><title>Node14</title>
<g id="a_node14"><a xlink:href="pyramid__with__auto__mem__gen_8hpp.html" target="_top" xlink:title="This file contains the construction of the pyramid node where a user can pass general filter2d functo...">
<polygon fill="none" stroke="black" points="994.5,-1 994.5,-31 1119.5,-31 1119.5,-1 994.5,-1"/>
<text text-anchor="start" x="1002.5" y="-19" font-family="Helvetica,sans-Serif" font-size="10.00">pyramid_with_auto_mem</text>
<text text-anchor="middle" x="1057" y="-8" font-family="Helvetica,sans-Serif" font-size="10.00">_gen.hpp</text>
</a>
</g>
</g>
<!-- Node12&#45;&gt;Node14 -->
<g id="edge13" class="edge"><title>Node12&#45;&gt;Node14</title>
<path fill="none" stroke="midnightblue" d="M1006.1,-68.679C1014.79,-59.8572 1026.1,-48.3801 1035.84,-38.4831"/>
<polygon fill="midnightblue" stroke="midnightblue" points="1038.4,-40.8739 1042.92,-31.2931 1033.41,-35.962 1038.4,-40.8739"/>
</g>
<!-- Node15 -->
<g id="node15" class="node"><title>Node15</title>
<g id="a_node15"><a xlink:href="pyramid__with__auto__mem__sep_8hpp.html" target="_top" xlink:title="This file contains the construction of the pyramid node where a user can pass separable filter2d func...">
<polygon fill="none" stroke="black" points="1137.5,-1 1137.5,-31 1262.5,-31 1262.5,-1 1137.5,-1"/>
<text text-anchor="start" x="1145.5" y="-19" font-family="Helvetica,sans-Serif" font-size="10.00">pyramid_with_auto_mem</text>
<text text-anchor="middle" x="1200" y="-8" font-family="Helvetica,sans-Serif" font-size="10.00">_sep.hpp</text>
</a>
</g>
</g>
<!-- Node12&#45;&gt;Node15 -->
<g id="edge14" class="edge"><title>Node12&#45;&gt;Node15</title>
<path fill="none" stroke="midnightblue" d="M1036.37,-68.9223C1068.4,-58.7575 1111.84,-44.9749 1145.91,-34.1643"/>
<polygon fill="midnightblue" stroke="midnightblue" points="1147.23,-37.4167 1155.7,-31.0561 1145.11,-30.7445 1147.23,-37.4167"/>
</g>
</g>
</svg>
