<?xml version="1.0" encoding="UTF-8" standalone="no"?>
<!DOCTYPE svg PUBLIC "-//W3C//DTD SVG 1.1//EN"
 "http://www.w3.org/Graphics/SVG/1.1/DTD/svg11.dtd">
<!-- Generated by graphviz version 2.36.0 (20140111.2315)
 -->
<!-- Title: expr_convertor.hpp Pages: 1 -->
<svg width="640pt" height="84pt"
 viewBox="0.00 0.00 640.00 84.00" xmlns="http://www.w3.org/2000/svg" xmlns:xlink="http://www.w3.org/1999/xlink">
<g id="graph0" class="graph" transform="scale(1 1) rotate(0) translate(4 80)">
<title>expr_convertor.hpp</title>
<!-- Node1 -->
<g id="node1" class="node"><title>Node1</title>
<polygon fill="#bfbfbf" stroke="black" points="222,-56.5 222,-75.5 322,-75.5 322,-56.5 222,-56.5"/>
<text text-anchor="middle" x="272" y="-63.5" font-family="Helvetica,sans-Serif" font-size="10.00">expr_convertor.hpp</text>
</g>
<!-- Node2 -->
<g id="node2" class="node"><title>Node2</title>
<g id="a_node2"><a xlink:href="leaf__count_8hpp.html" target="_top" xlink:title="LeafCount used to counting terminal nodes. ">
<polygon fill="none" stroke="black" points="0,-0.5 0,-19.5 80,-19.5 80,-0.5 0,-0.5"/>
<text text-anchor="middle" x="40" y="-7.5" font-family="Helvetica,sans-Serif" font-size="10.00">leaf_count.hpp</text>
</a>
</g>
</g>
<!-- Node1&#45;&gt;Node2 -->
<g id="edge1" class="edge"><title>Node1&#45;&gt;Node2</title>
<path fill="none" stroke="midnightblue" d="M235.239,-56.4435C194.937,-47.0629 130.191,-31.9926 86.4154,-21.8036"/>
<polygon fill="midnightblue" stroke="midnightblue" points="87.1222,-18.3746 76.5891,-19.5164 85.5353,-25.1924 87.1222,-18.3746"/>
</g>
<!-- Node3 -->
<g id="node3" class="node"><title>Node3</title>
<g id="a_node3"><a xlink:href="local__mem__count_8hpp.html" target="_top" xlink:title="LocalmemCount used to counting terminal nodes. ">
<polygon fill="none" stroke="black" points="98,-0.5 98,-19.5 210,-19.5 210,-0.5 98,-0.5"/>
<text text-anchor="middle" x="154" y="-7.5" font-family="Helvetica,sans-Serif" font-size="10.00">local_mem_count.hpp</text>
</a>
</g>
</g>
<!-- Node1&#45;&gt;Node3 -->
<g id="edge2" class="edge"><title>Node1&#45;&gt;Node3</title>
<path fill="none" stroke="midnightblue" d="M253.303,-56.4435C234.056,-47.6356 203.848,-33.8116 181.8,-23.722"/>
<polygon fill="midnightblue" stroke="midnightblue" points="183.16,-20.4951 172.61,-19.5164 180.247,-26.8603 183.16,-20.4951"/>
</g>
<!-- Node4 -->
<g id="node4" class="node"><title>Node4</title>
<g id="a_node4"><a xlink:href="local__output_8hpp.html" target="_top" xlink:title="This file contains the different specialisations of the LocalOutput. ">
<polygon fill="none" stroke="black" points="228,-0.5 228,-19.5 316,-19.5 316,-0.5 228,-0.5"/>
<text text-anchor="middle" x="272" y="-7.5" font-family="Helvetica,sans-Serif" font-size="10.00">local_output.hpp</text>
</a>
</g>
</g>
<!-- Node1&#45;&gt;Node4 -->
<g id="edge3" class="edge"><title>Node1&#45;&gt;Node4</title>
<path fill="none" stroke="midnightblue" d="M272,-56.083C272,-49.0059 272,-38.8611 272,-29.9865"/>
<polygon fill="midnightblue" stroke="midnightblue" points="275.5,-29.751 272,-19.7511 268.5,-29.7511 275.5,-29.751"/>
</g>
<!-- Node5 -->
<g id="node5" class="node"><title>Node5</title>
<g id="a_node5"><a xlink:href="make__place__holder__expr_8hpp.html" target="_top" xlink:title="PlaceHolder expression helper is used to create an expression in which the leafNodes of visionMemorie...">
<polygon fill="none" stroke="black" points="334.5,-0.5 334.5,-19.5 477.5,-19.5 477.5,-0.5 334.5,-0.5"/>
<text text-anchor="middle" x="406" y="-7.5" font-family="Helvetica,sans-Serif" font-size="10.00">make_place_holder_expr.hpp</text>
</a>
</g>
</g>
<!-- Node1&#45;&gt;Node5 -->
<g id="edge4" class="edge"><title>Node1&#45;&gt;Node5</title>
<path fill="none" stroke="midnightblue" d="M293.233,-56.4435C315.384,-47.5171 350.319,-33.4387 375.436,-23.3168"/>
<polygon fill="midnightblue" stroke="midnightblue" points="376.9,-26.5006 384.867,-19.5164 374.283,-20.0079 376.9,-26.5006"/>
</g>
<!-- Node6 -->
<g id="node6" class="node"><title>Node6</title>
<g id="a_node6"><a xlink:href="place__holder__leaf__node_8hpp.html" target="_top" xlink:title="This file contains different specialisations leafNodes for different types of memory. ">
<polygon fill="none" stroke="black" points="495.5,-0.5 495.5,-19.5 632.5,-19.5 632.5,-0.5 495.5,-0.5"/>
<text text-anchor="middle" x="564" y="-7.5" font-family="Helvetica,sans-Serif" font-size="10.00">place_holder_leaf_node.hpp</text>
</a>
</g>
</g>
<!-- Node1&#45;&gt;Node6 -->
<g id="edge5" class="edge"><title>Node1&#45;&gt;Node6</title>
<path fill="none" stroke="midnightblue" d="M318.268,-56.4435C369.741,-46.9246 452.893,-31.5472 507.999,-21.3563"/>
<polygon fill="midnightblue" stroke="midnightblue" points="508.751,-24.7766 517.948,-19.5164 507.478,-17.8933 508.751,-24.7766"/>
</g>
</g>
</svg>
