<?xml version="1.0" encoding="UTF-8" standalone="no"?>
<!DOCTYPE svg PUBLIC "-//W3C//DTD SVG 1.1//EN"
 "http://www.w3.org/Graphics/SVG/1.1/DTD/svg11.dtd">
<!-- Generated by graphviz version 2.36.0 (20140111.2315)
 -->
<!-- Title: framework.hpp Pages: 1 -->
<svg width="3707pt" height="232pt"
 viewBox="0.00 0.00 3707.00 232.00" xmlns="http://www.w3.org/2000/svg" xmlns:xlink="http://www.w3.org/1999/xlink">
<g id="graph0" class="graph" transform="scale(1 1) rotate(0) translate(4 228)">
<title>framework.hpp</title>
<!-- Node1 -->
<g id="node1" class="node"><title>Node1</title>
<polygon fill="#bfbfbf" stroke="black" points="1603.5,-204.5 1603.5,-223.5 1684.5,-223.5 1684.5,-204.5 1603.5,-204.5"/>
<text text-anchor="middle" x="1644" y="-211.5" font-family="Helvetica,sans-Serif" font-size="10.00">framework.hpp</text>
</g>
<!-- Node2 -->
<g id="node2" class="node"><title>Node2</title>
<g id="a_node2"><a xlink:href="forward__declarations_8hpp.html" target="_top" xlink:title="forward declarations for the library ">
<polygon fill="none" stroke="black" points="90.5,-142.5 90.5,-161.5 215.5,-161.5 215.5,-142.5 90.5,-142.5"/>
<text text-anchor="middle" x="153" y="-149.5" font-family="Helvetica,sans-Serif" font-size="10.00">forward_declarations.hpp</text>
</a>
</g>
</g>
<!-- Node1&#45;&gt;Node2 -->
<g id="edge1" class="edge"><title>Node1&#45;&gt;Node2</title>
<path fill="none" stroke="midnightblue" d="M1603.19,-212.663C1400.68,-210.846 502.33,-201.032 225,-168 216.157,-166.947 206.787,-165.354 197.835,-163.594"/>
<polygon fill="midnightblue" stroke="midnightblue" points="198.456,-160.148 187.955,-161.555 197.042,-167.004 198.456,-160.148"/>
</g>
<!-- Node3 -->
<g id="node3" class="node"><title>Node3</title>
<g id="a_node3"><a xlink:href="tools_8hpp.html" target="_top" xlink:title="Collection of tools headers. ">
<polygon fill="none" stroke="black" points="234,-142.5 234,-161.5 314,-161.5 314,-142.5 234,-142.5"/>
<text text-anchor="middle" x="274" y="-149.5" font-family="Helvetica,sans-Serif" font-size="10.00">tools/tools.hpp</text>
</a>
</g>
</g>
<!-- Node1&#45;&gt;Node3 -->
<g id="edge2" class="edge"><title>Node1&#45;&gt;Node3</title>
<path fill="none" stroke="midnightblue" d="M1603.37,-211.221C1405.44,-202.552 542.887,-164.776 324.429,-155.209"/>
<polygon fill="midnightblue" stroke="midnightblue" points="324.363,-151.702 314.22,-154.761 324.057,-158.696 324.363,-151.702"/>
</g>
<!-- Node10 -->
<g id="node10" class="node"><title>Node10</title>
<g id="a_node10"><a xlink:href="memory_8hpp.html" target="_top" xlink:title="this file contains a set of forward declarations and include headers required for constructing and ac...">
<polygon fill="none" stroke="black" points="698.5,-142.5 698.5,-161.5 807.5,-161.5 807.5,-142.5 698.5,-142.5"/>
<text text-anchor="middle" x="753" y="-149.5" font-family="Helvetica,sans-Serif" font-size="10.00">memory/memory.hpp</text>
</a>
</g>
</g>
<!-- Node1&#45;&gt;Node10 -->
<g id="edge9" class="edge"><title>Node1&#45;&gt;Node10</title>
<path fill="none" stroke="midnightblue" d="M1603.4,-210.266C1462.04,-200.747 990.647,-169.003 817.504,-157.344"/>
<polygon fill="midnightblue" stroke="midnightblue" points="817.73,-153.851 807.517,-156.671 817.26,-160.835 817.73,-153.851"/>
</g>
<!-- Node18 -->
<g id="node18" class="node"><title>Node18</title>
<g id="a_node18"><a xlink:href="expr__convertor_8hpp.html" target="_top" xlink:title="this is used to replace the leaf node with a PlaceHolder node. ">
<polygon fill="none" stroke="black" points="1301.5,-137 1301.5,-167 1404.5,-167 1404.5,-137 1301.5,-137"/>
<text text-anchor="start" x="1309.5" y="-155" font-family="Helvetica,sans-Serif" font-size="10.00">expr_convertor/expr</text>
<text text-anchor="middle" x="1353" y="-144" font-family="Helvetica,sans-Serif" font-size="10.00">_convertor.hpp</text>
</a>
</g>
</g>
<!-- Node1&#45;&gt;Node18 -->
<g id="edge17" class="edge"><title>Node1&#45;&gt;Node18</title>
<path fill="none" stroke="midnightblue" d="M1603.23,-204.594C1554.17,-194.478 1471.3,-177.392 1414.47,-165.674"/>
<polygon fill="midnightblue" stroke="midnightblue" points="1415.03,-162.215 1404.53,-163.624 1413.61,-169.071 1415.03,-162.215"/>
</g>
<!-- Node24 -->
<g id="node24" class="node"><title>Node24</title>
<g id="a_node24"><a xlink:href="expr__tree_8hpp.html" target="_top" xlink:title="This file contains the forward declarations and all the necessary include headers for the constructio...">
<polygon fill="none" stroke="black" points="1738.5,-142.5 1738.5,-161.5 1857.5,-161.5 1857.5,-142.5 1738.5,-142.5"/>
<text text-anchor="middle" x="1798" y="-149.5" font-family="Helvetica,sans-Serif" font-size="10.00">expr_tree/expr_tree.hpp</text>
</a>
</g>
</g>
<!-- Node1&#45;&gt;Node24 -->
<g id="edge23" class="edge"><title>Node1&#45;&gt;Node24</title>
<path fill="none" stroke="midnightblue" d="M1666.06,-204.403C1692.37,-194.156 1736.51,-176.956 1766.42,-165.302"/>
<polygon fill="midnightblue" stroke="midnightblue" points="1767.93,-168.472 1775.98,-161.581 1765.39,-161.95 1767.93,-168.472"/>
</g>
<!-- Node39 -->
<g id="node39" class="node"><title>Node39</title>
<g id="a_node39"><a xlink:href="evaluator_8hpp.html" target="_top" xlink:title="This file contains a collection of headers and forward declaration for evaluating an expression tree...">
<polygon fill="none" stroke="black" points="2659,-142.5 2659,-161.5 2777,-161.5 2777,-142.5 2659,-142.5"/>
<text text-anchor="middle" x="2718" y="-149.5" font-family="Helvetica,sans-Serif" font-size="10.00">evaluator/evaluator.hpp</text>
</a>
</g>
</g>
<!-- Node1&#45;&gt;Node39 -->
<g id="edge38" class="edge"><title>Node1&#45;&gt;Node39</title>
<path fill="none" stroke="midnightblue" d="M1684.79,-210.721C1846.63,-201.68 2444.58,-168.275 2648.97,-156.856"/>
<polygon fill="midnightblue" stroke="midnightblue" points="2649.2,-160.349 2658.99,-156.297 2648.81,-153.36 2649.2,-160.349"/>
</g>
<!-- Node51 -->
<g id="node51" class="node"><title>Node51</title>
<g id="a_node51"><a xlink:href="executor_8hpp.html" target="_top" xlink:title="This files contains a series of forward declaration and include files required for executing an expre...">
<polygon fill="none" stroke="black" points="3095.5,-142.5 3095.5,-161.5 3208.5,-161.5 3208.5,-142.5 3095.5,-142.5"/>
<text text-anchor="middle" x="3152" y="-149.5" font-family="Helvetica,sans-Serif" font-size="10.00">executor/executor.hpp</text>
</a>
</g>
</g>
<!-- Node1&#45;&gt;Node51 -->
<g id="edge50" class="edge"><title>Node1&#45;&gt;Node51</title>
<path fill="none" stroke="midnightblue" d="M1684.71,-211.419C1832.56,-205.672 2355.04,-185.322 2786,-168 2890.54,-163.798 3011.86,-158.802 3085.23,-155.768"/>
<polygon fill="midnightblue" stroke="midnightblue" points="3085.41,-159.264 3095.26,-155.353 3085.12,-152.27 3085.41,-159.264"/>
</g>
<!-- Node55 -->
<g id="node55" class="node"><title>Node55</title>
<g id="a_node55"><a xlink:href="device_8hpp.html" target="_top" xlink:title="include headers for adding different devices. ">
<polygon fill="none" stroke="black" points="3329.5,-142.5 3329.5,-161.5 3424.5,-161.5 3424.5,-142.5 3329.5,-142.5"/>
<text text-anchor="middle" x="3377" y="-149.5" font-family="Helvetica,sans-Serif" font-size="10.00">device/device.hpp</text>
</a>
</g>
</g>
<!-- Node1&#45;&gt;Node55 -->
<g id="edge54" class="edge"><title>Node1&#45;&gt;Node55</title>
<path fill="none" stroke="midnightblue" d="M1684.75,-212.806C1864.96,-211.742 2608.21,-205.206 3217,-168 3251.03,-165.921 3289.02,-162.409 3319.44,-159.306"/>
<polygon fill="midnightblue" stroke="midnightblue" points="3319.87,-162.781 3329.46,-158.272 3319.15,-155.818 3319.87,-162.781"/>
</g>
<!-- Node4 -->
<g id="node4" class="node"><title>Node4</title>
<g id="a_node4"><a xlink:href="convert_8hpp.html" target="_top" xlink:title="Series of pixel convert functions. ">
<polygon fill="none" stroke="black" points="0,-74.5 0,-93.5 68,-93.5 68,-74.5 0,-74.5"/>
<text text-anchor="middle" x="34" y="-81.5" font-family="Helvetica,sans-Serif" font-size="10.00">convert.hpp</text>
</a>
</g>
</g>
<!-- Node3&#45;&gt;Node4 -->
<g id="edge3" class="edge"><title>Node3&#45;&gt;Node4</title>
<path fill="none" stroke="midnightblue" d="M246.565,-142.493C239.254,-140.302 231.345,-138 224,-136 159.098,-118.33 141.495,-119.099 77,-100 73.6383,-99.0045 70.151,-97.9038 66.6825,-96.7642"/>
<polygon fill="midnightblue" stroke="midnightblue" points="67.6715,-93.4038 57.0771,-93.5047 65.422,-100.033 67.6715,-93.4038"/>
</g>
<!-- Node5 -->
<g id="node5" class="node"><title>Node5</title>
<g id="a_node5"><a xlink:href="static__if_8hpp.html" target="_top" xlink:title="This file provides a set of static_if functions used at to calculate the result of if statement at co...">
<polygon fill="none" stroke="black" points="86,-74.5 86,-93.5 156,-93.5 156,-74.5 86,-74.5"/>
<text text-anchor="middle" x="121" y="-81.5" font-family="Helvetica,sans-Serif" font-size="10.00">static_if.hpp</text>
</a>
</g>
</g>
<!-- Node3&#45;&gt;Node5 -->
<g id="edge4" class="edge"><title>Node3&#45;&gt;Node5</title>
<path fill="none" stroke="midnightblue" d="M253.998,-142.372C227.539,-130.958 180.707,-110.756 150.268,-97.6252"/>
<polygon fill="midnightblue" stroke="midnightblue" points="151.575,-94.3777 141.007,-93.6305 148.803,-100.805 151.575,-94.3777"/>
</g>
<!-- Node6 -->
<g id="node6" class="node"><title>Node6</title>
<g id="a_node6"><a xlink:href="time_8hpp.html" target="_top" xlink:title="Basic time operations. ">
<polygon fill="none" stroke="black" points="174,-74.5 174,-93.5 228,-93.5 228,-74.5 174,-74.5"/>
<text text-anchor="middle" x="201" y="-81.5" font-family="Helvetica,sans-Serif" font-size="10.00">time.hpp</text>
</a>
</g>
</g>
<!-- Node3&#45;&gt;Node6 -->
<g id="edge5" class="edge"><title>Node3&#45;&gt;Node6</title>
<path fill="none" stroke="midnightblue" d="M264.457,-142.372C252.826,-131.856 232.945,-113.882 218.531,-100.85"/>
<polygon fill="midnightblue" stroke="midnightblue" points="220.544,-97.9514 210.779,-93.8411 215.849,-103.144 220.544,-97.9514"/>
</g>
<!-- Node8 -->
<g id="node8" class="node"><title>Node8</title>
<g id="a_node8"><a xlink:href="tuple_8hpp.html" target="_top" xlink:title="Tuples standard layout implementation. ">
<polygon fill="none" stroke="black" points="246,-74.5 246,-93.5 302,-93.5 302,-74.5 246,-74.5"/>
<text text-anchor="middle" x="274" y="-81.5" font-family="Helvetica,sans-Serif" font-size="10.00">tuple.hpp</text>
</a>
</g>
</g>
<!-- Node3&#45;&gt;Node8 -->
<g id="edge7" class="edge"><title>Node3&#45;&gt;Node8</title>
<path fill="none" stroke="midnightblue" d="M274,-142.372C274,-132.643 274,-116.528 274,-103.85"/>
<polygon fill="midnightblue" stroke="midnightblue" points="277.5,-103.841 274,-93.8411 270.5,-103.841 277.5,-103.841"/>
</g>
<!-- Node9 -->
<g id="node9" class="node"><title>Node9</title>
<g id="a_node9"><a xlink:href="type__dereferencer_8hpp.html" target="_top" xlink:title="These methods are used to remove all the &amp; const and * from a type. ">
<polygon fill="none" stroke="black" points="320.5,-74.5 320.5,-93.5 433.5,-93.5 433.5,-74.5 320.5,-74.5"/>
<text text-anchor="middle" x="377" y="-81.5" font-family="Helvetica,sans-Serif" font-size="10.00">type_dereferencer.hpp</text>
</a>
</g>
</g>
<!-- Node3&#45;&gt;Node9 -->
<g id="edge8" class="edge"><title>Node3&#45;&gt;Node9</title>
<path fill="none" stroke="midnightblue" d="M287.465,-142.372C304.584,-131.403 334.369,-112.317 354.853,-99.1912"/>
<polygon fill="midnightblue" stroke="midnightblue" points="357,-101.973 363.531,-93.6305 353.223,-96.0788 357,-101.973"/>
</g>
<!-- Node7 -->
<g id="node7" class="node"><title>Node7</title>
<polygon fill="none" stroke="#bfbfbf" points="178,-6.5 178,-25.5 224,-25.5 224,-6.5 178,-6.5"/>
<text text-anchor="middle" x="201" y="-13.5" font-family="Helvetica,sans-Serif" font-size="10.00">chrono</text>
</g>
<!-- Node6&#45;&gt;Node7 -->
<g id="edge6" class="edge"><title>Node6&#45;&gt;Node7</title>
<path fill="none" stroke="midnightblue" d="M201,-74.3717C201,-64.6426 201,-48.528 201,-35.8504"/>
<polygon fill="midnightblue" stroke="midnightblue" points="204.5,-35.8411 201,-25.8411 197.5,-35.8412 204.5,-35.8411"/>
</g>
<!-- Node11 -->
<g id="node11" class="node"><title>Node11</title>
<g id="a_node11"><a xlink:href="mem__const_8hpp.html" target="_top" xlink:title="specialisations of SyclMem type when we are passing constant variable to the device. ">
<polygon fill="none" stroke="black" points="452,-74.5 452,-93.5 538,-93.5 538,-74.5 452,-74.5"/>
<text text-anchor="middle" x="495" y="-81.5" font-family="Helvetica,sans-Serif" font-size="10.00">mem_const.hpp</text>
</a>
</g>
</g>
<!-- Node10&#45;&gt;Node11 -->
<g id="edge10" class="edge"><title>Node10&#45;&gt;Node11</title>
<path fill="none" stroke="midnightblue" d="M716.797,-142.479C675.572,-132.674 606.255,-115.875 547,-100 542.645,-98.8332 538.096,-97.5769 533.578,-96.3055"/>
<polygon fill="midnightblue" stroke="midnightblue" points="534.402,-92.9011 523.826,-93.5272 532.484,-99.6332 534.402,-92.9011"/>
</g>
<!-- Node12 -->
<g id="node12" class="node"><title>Node12</title>
<g id="a_node12"><a xlink:href="mem__prop_8hpp.html" target="_top" xlink:title="Series of pixel convert functions. ">
<polygon fill="none" stroke="black" points="556.5,-74.5 556.5,-93.5 637.5,-93.5 637.5,-74.5 556.5,-74.5"/>
<text text-anchor="middle" x="597" y="-81.5" font-family="Helvetica,sans-Serif" font-size="10.00">mem_prop.hpp</text>
</a>
</g>
</g>
<!-- Node10&#45;&gt;Node12 -->
<g id="edge11" class="edge"><title>Node10&#45;&gt;Node12</title>
<path fill="none" stroke="midnightblue" d="M732.606,-142.372C705.628,-130.958 657.878,-110.756 626.841,-97.6252"/>
<polygon fill="midnightblue" stroke="midnightblue" points="627.973,-94.3035 617.399,-93.6305 625.245,-100.75 627.973,-94.3035"/>
</g>
<!-- Node13 -->
<g id="node13" class="node"><title>Node13</title>
<g id="a_node13"><a xlink:href="mem__virtual_8hpp.html" target="_top" xlink:title="This file contains the VirtualMemory struct. ">
<polygon fill="none" stroke="black" points="655.5,-74.5 655.5,-93.5 744.5,-93.5 744.5,-74.5 655.5,-74.5"/>
<text text-anchor="middle" x="700" y="-81.5" font-family="Helvetica,sans-Serif" font-size="10.00">mem_virtual.hpp</text>
</a>
</g>
</g>
<!-- Node10&#45;&gt;Node13 -->
<g id="edge12" class="edge"><title>Node10&#45;&gt;Node13</title>
<path fill="none" stroke="midnightblue" d="M746.071,-142.372C737.864,-132.151 723.998,-114.884 713.617,-101.957"/>
<polygon fill="midnightblue" stroke="midnightblue" points="716.09,-99.4468 707.1,-93.8411 710.632,-103.83 716.09,-99.4468"/>
</g>
<!-- Node14 -->
<g id="node14" class="node"><title>Node14</title>
<g id="a_node14"><a xlink:href="mem__vision_8hpp.html" target="_top" xlink:title="this file contains the memory struct used to store {Sycl buffer , Host pointer or Sycl image}...">
<polygon fill="none" stroke="black" points="762,-74.5 762,-93.5 850,-93.5 850,-74.5 762,-74.5"/>
<text text-anchor="middle" x="806" y="-81.5" font-family="Helvetica,sans-Serif" font-size="10.00">mem_vision.hpp</text>
</a>
</g>
</g>
<!-- Node10&#45;&gt;Node14 -->
<g id="edge13" class="edge"><title>Node10&#45;&gt;Node14</title>
<path fill="none" stroke="midnightblue" d="M759.929,-142.372C768.136,-132.151 782.002,-114.884 792.383,-101.957"/>
<polygon fill="midnightblue" stroke="midnightblue" points="795.368,-103.83 798.9,-93.8411 789.91,-99.4468 795.368,-103.83"/>
</g>
<!-- Node15 -->
<g id="node15" class="node"><title>Node15</title>
<g id="a_node15"><a xlink:href="memory__access_8hpp.html" target="_top" xlink:title="this file contains a set of forward declarations and include headers required for constructing and ac...">
<polygon fill="none" stroke="black" points="868.5,-69 868.5,-99 995.5,-99 995.5,-69 868.5,-69"/>
<text text-anchor="start" x="876.5" y="-87" font-family="Helvetica,sans-Serif" font-size="10.00">memory_access/memory</text>
<text text-anchor="middle" x="932" y="-76" font-family="Helvetica,sans-Serif" font-size="10.00">_access.hpp</text>
</a>
</g>
</g>
<!-- Node10&#45;&gt;Node15 -->
<g id="edge14" class="edge"><title>Node10&#45;&gt;Node15</title>
<path fill="none" stroke="midnightblue" d="M776.401,-142.372C803.687,-132.311 849.492,-115.422 884.358,-102.566"/>
<polygon fill="midnightblue" stroke="midnightblue" points="885.706,-105.8 893.878,-99.0562 883.284,-99.2319 885.706,-105.8"/>
</g>
<!-- Node16 -->
<g id="node16" class="node"><title>Node16</title>
<g id="a_node16"><a xlink:href="mem__coordinate_8hpp.html" target="_top" xlink:title="This files contains the Coordinate struct which is used to specify local/global offset for local/glob...">
<polygon fill="none" stroke="black" points="816.5,-6.5 816.5,-25.5 923.5,-25.5 923.5,-6.5 816.5,-6.5"/>
<text text-anchor="middle" x="870" y="-13.5" font-family="Helvetica,sans-Serif" font-size="10.00">mem_coordinate.hpp</text>
</a>
</g>
</g>
<!-- Node15&#45;&gt;Node16 -->
<g id="edge15" class="edge"><title>Node15&#45;&gt;Node16</title>
<path fill="none" stroke="midnightblue" d="M918.547,-68.679C908.784,-58.2863 895.559,-44.2081 885.378,-33.37"/>
<polygon fill="midnightblue" stroke="midnightblue" points="887.691,-30.7204 878.293,-25.8283 882.589,-35.5132 887.691,-30.7204"/>
</g>
<!-- Node17 -->
<g id="node17" class="node"><title>Node17</title>
<g id="a_node17"><a xlink:href="mem__neighbour_8hpp.html" target="_top" xlink:title="this file contains different types of memory required for executing neighbour operation to calculate ...">
<polygon fill="none" stroke="black" points="942,-6.5 942,-25.5 1046,-25.5 1046,-6.5 942,-6.5"/>
<text text-anchor="middle" x="994" y="-13.5" font-family="Helvetica,sans-Serif" font-size="10.00">mem_neighbour.hpp</text>
</a>
</g>
</g>
<!-- Node15&#45;&gt;Node17 -->
<g id="edge16" class="edge"><title>Node15&#45;&gt;Node17</title>
<path fill="none" stroke="midnightblue" d="M945.453,-68.679C955.216,-58.2863 968.441,-44.2081 978.622,-33.37"/>
<polygon fill="midnightblue" stroke="midnightblue" points="981.411,-35.5132 985.707,-25.8283 976.309,-30.7204 981.411,-35.5132"/>
</g>
<!-- Node19 -->
<g id="node19" class="node"><title>Node19</title>
<g id="a_node19"><a xlink:href="leaf__count_8hpp.html" target="_top" xlink:title="LeafCount used to counting terminal nodes. ">
<polygon fill="none" stroke="black" points="1014,-74.5 1014,-93.5 1094,-93.5 1094,-74.5 1014,-74.5"/>
<text text-anchor="middle" x="1054" y="-81.5" font-family="Helvetica,sans-Serif" font-size="10.00">leaf_count.hpp</text>
</a>
</g>
</g>
<!-- Node18&#45;&gt;Node19 -->
<g id="edge18" class="edge"><title>Node18&#45;&gt;Node19</title>
<path fill="none" stroke="midnightblue" d="M1301.44,-141.976C1250.66,-132.737 1171.04,-117.313 1103,-100 1098.83,-98.9388 1094.48,-97.743 1090.18,-96.5014"/>
<polygon fill="midnightblue" stroke="midnightblue" points="1090.9,-93.0633 1080.32,-93.563 1088.9,-99.7721 1090.9,-93.0633"/>
</g>
<!-- Node20 -->
<g id="node20" class="node"><title>Node20</title>
<g id="a_node20"><a xlink:href="local__mem__count_8hpp.html" target="_top" xlink:title="LocalmemCount used to counting terminal nodes. ">
<polygon fill="none" stroke="black" points="1112,-74.5 1112,-93.5 1224,-93.5 1224,-74.5 1112,-74.5"/>
<text text-anchor="middle" x="1168" y="-81.5" font-family="Helvetica,sans-Serif" font-size="10.00">local_mem_count.hpp</text>
</a>
</g>
</g>
<!-- Node18&#45;&gt;Node20 -->
<g id="edge19" class="edge"><title>Node18&#45;&gt;Node20</title>
<path fill="none" stroke="midnightblue" d="M1313.31,-136.841C1280.07,-124.982 1233.14,-108.239 1201.7,-97.0216"/>
<polygon fill="midnightblue" stroke="midnightblue" points="1202.66,-93.6505 1192.07,-93.5868 1200.31,-100.244 1202.66,-93.6505"/>
</g>
<!-- Node21 -->
<g id="node21" class="node"><title>Node21</title>
<g id="a_node21"><a xlink:href="local__output_8hpp.html" target="_top" xlink:title="This file contains the different specialisations of the LocalOutput. ">
<polygon fill="none" stroke="black" points="1242,-74.5 1242,-93.5 1330,-93.5 1330,-74.5 1242,-74.5"/>
<text text-anchor="middle" x="1286" y="-81.5" font-family="Helvetica,sans-Serif" font-size="10.00">local_output.hpp</text>
</a>
</g>
</g>
<!-- Node18&#45;&gt;Node21 -->
<g id="edge20" class="edge"><title>Node18&#45;&gt;Node21</title>
<path fill="none" stroke="midnightblue" d="M1338.46,-136.679C1327.81,-126.184 1313.34,-111.932 1302.3,-101.052"/>
<polygon fill="midnightblue" stroke="midnightblue" points="1304.54,-98.3526 1294.96,-93.8283 1299.63,-103.339 1304.54,-98.3526"/>
</g>
<!-- Node22 -->
<g id="node22" class="node"><title>Node22</title>
<g id="a_node22"><a xlink:href="make__place__holder__expr_8hpp.html" target="_top" xlink:title="PlaceHolder expression helper is used to create an expression in which the leafNodes of visionMemorie...">
<polygon fill="none" stroke="black" points="1348.5,-74.5 1348.5,-93.5 1491.5,-93.5 1491.5,-74.5 1348.5,-74.5"/>
<text text-anchor="middle" x="1420" y="-81.5" font-family="Helvetica,sans-Serif" font-size="10.00">make_place_holder_expr.hpp</text>
</a>
</g>
</g>
<!-- Node18&#45;&gt;Node22 -->
<g id="edge21" class="edge"><title>Node18&#45;&gt;Node22</title>
<path fill="none" stroke="midnightblue" d="M1367.54,-136.679C1378.19,-126.184 1392.66,-111.932 1403.7,-101.052"/>
<polygon fill="midnightblue" stroke="midnightblue" points="1406.37,-103.339 1411.04,-93.8283 1401.46,-98.3526 1406.37,-103.339"/>
</g>
<!-- Node23 -->
<g id="node23" class="node"><title>Node23</title>
<g id="a_node23"><a xlink:href="place__holder__leaf__node_8hpp.html" target="_top" xlink:title="This file contains different specialisations leafNodes for different types of memory. ">
<polygon fill="none" stroke="black" points="1509.5,-74.5 1509.5,-93.5 1646.5,-93.5 1646.5,-74.5 1509.5,-74.5"/>
<text text-anchor="middle" x="1578" y="-81.5" font-family="Helvetica,sans-Serif" font-size="10.00">place_holder_leaf_node.hpp</text>
</a>
</g>
</g>
<!-- Node18&#45;&gt;Node23 -->
<g id="edge22" class="edge"><title>Node18&#45;&gt;Node23</title>
<path fill="none" stroke="midnightblue" d="M1400.99,-136.922C1442.22,-124.828 1500.91,-107.613 1539.22,-96.3753"/>
<polygon fill="midnightblue" stroke="midnightblue" points="1540.37,-99.6871 1548.98,-93.5138 1538.39,-92.9701 1540.37,-99.6871"/>
</g>
<!-- Node25 -->
<g id="node25" class="node"><title>Node25</title>
<g id="a_node25"><a xlink:href="neighbour__ops_8hpp.html" target="_top" xlink:title="This file contains a set of includes used to construct neighbour nodes in expression tree...">
<polygon fill="none" stroke="black" points="1664.5,-69 1664.5,-99 1789.5,-99 1789.5,-69 1664.5,-69"/>
<text text-anchor="start" x="1672.5" y="-87" font-family="Helvetica,sans-Serif" font-size="10.00">neighbour_ops/neighbour</text>
<text text-anchor="middle" x="1727" y="-76" font-family="Helvetica,sans-Serif" font-size="10.00">_ops.hpp</text>
</a>
</g>
</g>
<!-- Node24&#45;&gt;Node25 -->
<g id="edge24" class="edge"><title>Node24&#45;&gt;Node25</title>
<path fill="none" stroke="midnightblue" d="M1788.72,-142.372C1778.85,-133.2 1762.88,-118.354 1749.66,-106.062"/>
<polygon fill="midnightblue" stroke="midnightblue" points="1751.96,-103.426 1742.26,-99.1815 1747.2,-108.553 1751.96,-103.426"/>
</g>
<!-- Node29 -->
<g id="node29" class="node"><title>Node29</title>
<g id="a_node29"><a xlink:href="point__ops_8hpp.html" target="_top" xlink:title="This files contains a set of include headers for point operation node in the expression tree...">
<polygon fill="none" stroke="black" points="1808,-74.5 1808,-93.5 1930,-93.5 1930,-74.5 1808,-74.5"/>
<text text-anchor="middle" x="1869" y="-81.5" font-family="Helvetica,sans-Serif" font-size="10.00">point_ops/point_ops.hpp</text>
</a>
</g>
</g>
<!-- Node24&#45;&gt;Node29 -->
<g id="edge28" class="edge"><title>Node24&#45;&gt;Node29</title>
<path fill="none" stroke="midnightblue" d="M1807.28,-142.372C1818.59,-131.856 1837.93,-113.882 1851.95,-100.85"/>
<polygon fill="midnightblue" stroke="midnightblue" points="1854.55,-103.213 1859.49,-93.8411 1849.78,-98.0861 1854.55,-103.213"/>
</g>
<!-- Node35 -->
<g id="node35" class="node"><title>Node35</title>
<g id="a_node35"><a xlink:href="complex__ops_8hpp.html" target="_top" xlink:title="This file contains a set of includes and forward declaration required to build complex operations lik...">
<polygon fill="none" stroke="black" points="2176,-69 2176,-99 2290,-99 2290,-69 2176,-69"/>
<text text-anchor="start" x="2184" y="-87" font-family="Helvetica,sans-Serif" font-size="10.00">complex_ops/complex</text>
<text text-anchor="middle" x="2233" y="-76" font-family="Helvetica,sans-Serif" font-size="10.00">_ops.hpp</text>
</a>
</g>
</g>
<!-- Node24&#45;&gt;Node35 -->
<g id="edge34" class="edge"><title>Node24&#45;&gt;Node35</title>
<path fill="none" stroke="midnightblue" d="M1854.42,-142.439C1934.39,-130.306 2080.45,-108.146 2165.88,-95.1841"/>
<polygon fill="midnightblue" stroke="midnightblue" points="2166.62,-98.6109 2175.99,-93.6503 2165.57,-91.6901 2166.62,-98.6109"/>
</g>
<!-- Node26 -->
<g id="node26" class="node"><title>Node26</title>
<g id="a_node26"><a xlink:href="reduction_8hpp.html" target="_top" xlink:title="This file contains RDCN struct which is used to construct a node to shrink an image. ">
<polygon fill="none" stroke="black" points="1240.5,-6.5 1240.5,-25.5 1315.5,-25.5 1315.5,-6.5 1240.5,-6.5"/>
<text text-anchor="middle" x="1278" y="-13.5" font-family="Helvetica,sans-Serif" font-size="10.00">reduction.hpp</text>
</a>
</g>
</g>
<!-- Node25&#45;&gt;Node26 -->
<g id="edge25" class="edge"><title>Node25&#45;&gt;Node26</title>
<path fill="none" stroke="midnightblue" d="M1664.24,-69.5515C1661.12,-69.0004 1658.03,-68.4792 1655,-68 1509.28,-44.9276 1469.33,-62.5818 1325,-32 1320.54,-31.0557 1315.91,-29.8563 1311.37,-28.5486"/>
<polygon fill="midnightblue" stroke="midnightblue" points="1312.25,-25.1586 1301.66,-25.5696 1310.19,-31.8503 1312.25,-25.1586"/>
</g>
<!-- Node27 -->
<g id="node27" class="node"><title>Node27</title>
<g id="a_node27"><a xlink:href="stencil__no__filter_8hpp.html" target="_top" xlink:title="This file contains StnNoFilt struct which is used to construct a convolutional operation when the val...">
<polygon fill="none" stroke="black" points="1334,-6.5 1334,-25.5 1438,-25.5 1438,-6.5 1334,-6.5"/>
<text text-anchor="middle" x="1386" y="-13.5" font-family="Helvetica,sans-Serif" font-size="10.00">stencil_no_filter.hpp</text>
</a>
</g>
</g>
<!-- Node25&#45;&gt;Node27 -->
<g id="edge26" class="edge"><title>Node25&#45;&gt;Node27</title>
<path fill="none" stroke="midnightblue" d="M1664.2,-69.7848C1661.09,-69.172 1658.01,-68.5739 1655,-68 1562.84,-50.4301 1538.83,-51.2131 1447,-32 1441.12,-30.7695 1434.94,-29.374 1428.87,-27.9413"/>
<polygon fill="midnightblue" stroke="midnightblue" points="1429.37,-24.4607 1418.83,-25.5179 1427.73,-31.2655 1429.37,-24.4607"/>
</g>
<!-- Node28 -->
<g id="node28" class="node"><title>Node28</title>
<g id="a_node28"><a xlink:href="stencil__with__filter_8hpp.html" target="_top" xlink:title="This file contains the StnNoFilt struct which is used to construct a convolutional operation when the...">
<polygon fill="none" stroke="black" points="1456.5,-6.5 1456.5,-25.5 1567.5,-25.5 1567.5,-6.5 1456.5,-6.5"/>
<text text-anchor="middle" x="1512" y="-13.5" font-family="Helvetica,sans-Serif" font-size="10.00">stencil_with_filter.hpp</text>
</a>
</g>
</g>
<!-- Node25&#45;&gt;Node28 -->
<g id="edge27" class="edge"><title>Node25&#45;&gt;Node28</title>
<path fill="none" stroke="midnightblue" d="M1681.14,-68.9223C1641.91,-56.8798 1586.14,-39.7595 1549.52,-28.5191"/>
<polygon fill="midnightblue" stroke="midnightblue" points="1550.32,-25.1025 1539.73,-25.5138 1548.27,-31.7943 1550.32,-25.1025"/>
</g>
<!-- Node30 -->
<g id="node30" class="node"><title>Node30</title>
<g id="a_node30"><a xlink:href="assign_8hpp.html" target="_top" xlink:title="This file contains the Assign struct which is used to allocate the result of the right hand side expr...">
<polygon fill="none" stroke="black" points="1586,-6.5 1586,-25.5 1650,-25.5 1650,-6.5 1586,-6.5"/>
<text text-anchor="middle" x="1618" y="-13.5" font-family="Helvetica,sans-Serif" font-size="10.00">assign.hpp</text>
</a>
</g>
</g>
<!-- Node29&#45;&gt;Node30 -->
<g id="edge29" class="edge"><title>Node29&#45;&gt;Node30</title>
<path fill="none" stroke="midnightblue" d="M1827.98,-74.4715C1785.38,-65.281 1716.98,-49.5866 1659,-32 1655.88,-31.054 1652.65,-30.0026 1649.44,-28.9079"/>
<polygon fill="midnightblue" stroke="midnightblue" points="1650.57,-25.595 1639.98,-25.556 1648.23,-32.1934 1650.57,-25.595"/>
</g>
<!-- Node31 -->
<g id="node31" class="node"><title>Node31</title>
<g id="a_node31"><a xlink:href="leaf__node_8hpp.html" target="_top" xlink:title="This file contains the LeafNode struct which is a general representation of our terminal node in the ...">
<polygon fill="none" stroke="black" points="1668.5,-6.5 1668.5,-25.5 1745.5,-25.5 1745.5,-6.5 1668.5,-6.5"/>
<text text-anchor="middle" x="1707" y="-13.5" font-family="Helvetica,sans-Serif" font-size="10.00">leaf_node.hpp</text>
</a>
</g>
</g>
<!-- Node29&#45;&gt;Node31 -->
<g id="edge30" class="edge"><title>Node29&#45;&gt;Node31</title>
<path fill="none" stroke="midnightblue" d="M1847.82,-74.3717C1819.61,-62.877 1769.51,-42.4687 1737.3,-29.3465"/>
<polygon fill="midnightblue" stroke="midnightblue" points="1738.51,-26.0576 1727.93,-25.5259 1735.87,-32.5402 1738.51,-26.0576"/>
</g>
<!-- Node32 -->
<g id="node32" class="node"><title>Node32</title>
<g id="a_node32"><a xlink:href="parallel__copy_8hpp.html" target="_top" xlink:title="This file contains the ParallelCopy struct which is used to allocate the partial result of the right&#45;...">
<polygon fill="none" stroke="black" points="1764,-6.5 1764,-25.5 1856,-25.5 1856,-6.5 1764,-6.5"/>
<text text-anchor="middle" x="1810" y="-13.5" font-family="Helvetica,sans-Serif" font-size="10.00">parallel_copy.hpp</text>
</a>
</g>
</g>
<!-- Node29&#45;&gt;Node32 -->
<g id="edge31" class="edge"><title>Node29&#45;&gt;Node32</title>
<path fill="none" stroke="midnightblue" d="M1861.29,-74.3717C1852.06,-64.053 1836.42,-46.5513 1824.83,-33.5854"/>
<polygon fill="midnightblue" stroke="midnightblue" points="1827.18,-30.9639 1817.9,-25.8411 1821.96,-35.6291 1827.18,-30.9639"/>
</g>
<!-- Node33 -->
<g id="node33" class="node"><title>Node33</title>
<g id="a_node33"><a xlink:href="resizable__binary_8hpp.html" target="_top" xlink:title="This file contains RBiOP (Binary Operation) struct which is used to apply Binary Operation on left ha...">
<polygon fill="none" stroke="black" points="1874,-6.5 1874,-25.5 1980,-25.5 1980,-6.5 1874,-6.5"/>
<text text-anchor="middle" x="1927" y="-13.5" font-family="Helvetica,sans-Serif" font-size="10.00">resizable_binary.hpp</text>
</a>
</g>
</g>
<!-- Node29&#45;&gt;Node33 -->
<g id="edge32" class="edge"><title>Node29&#45;&gt;Node33</title>
<path fill="none" stroke="midnightblue" d="M1876.58,-74.3717C1885.65,-64.053 1901.03,-46.5513 1912.42,-33.5854"/>
<polygon fill="midnightblue" stroke="midnightblue" points="1915.26,-35.6632 1919.23,-25.8411 1910,-31.0424 1915.26,-35.6632"/>
</g>
<!-- Node34 -->
<g id="node34" class="node"><title>Node34</title>
<g id="a_node34"><a xlink:href="resizable__unary_8hpp.html" target="_top" xlink:title="This file contains RUnOP (Unary Operation) struct which is used to apply Unary Operation on the right...">
<polygon fill="none" stroke="black" points="1998,-6.5 1998,-25.5 2102,-25.5 2102,-6.5 1998,-6.5"/>
<text text-anchor="middle" x="2050" y="-13.5" font-family="Helvetica,sans-Serif" font-size="10.00">resizable_unary.hpp</text>
</a>
</g>
</g>
<!-- Node29&#45;&gt;Node34 -->
<g id="edge33" class="edge"><title>Node29&#45;&gt;Node34</title>
<path fill="none" stroke="midnightblue" d="M1892.66,-74.3717C1924.46,-62.7779 1981.12,-42.1162 2017.07,-29.0087"/>
<polygon fill="midnightblue" stroke="midnightblue" points="2018.42,-32.2399 2026.62,-25.5259 2016.02,-25.6635 2018.42,-32.2399"/>
</g>
<!-- Node36 -->
<g id="node36" class="node"><title>Node36</title>
<g id="a_node36"><a xlink:href="pyramid__mem_8hpp.html" target="_top" xlink:title="This file is used to create a pyramid output memory when the auto generate output memory is selected...">
<polygon fill="none" stroke="black" points="2120.5,-6.5 2120.5,-25.5 2217.5,-25.5 2217.5,-6.5 2120.5,-6.5"/>
<text text-anchor="middle" x="2169" y="-13.5" font-family="Helvetica,sans-Serif" font-size="10.00">pyramid_mem.hpp</text>
</a>
</g>
</g>
<!-- Node35&#45;&gt;Node36 -->
<g id="edge35" class="edge"><title>Node35&#45;&gt;Node36</title>
<path fill="none" stroke="midnightblue" d="M2219.11,-68.679C2208.94,-58.1844 2195.12,-43.9317 2184.57,-33.0522"/>
<polygon fill="midnightblue" stroke="midnightblue" points="2187.03,-30.5708 2177.56,-25.8283 2182.01,-35.4438 2187.03,-30.5708"/>
</g>
<!-- Node37 -->
<g id="node37" class="node"><title>Node37</title>
<g id="a_node37"><a xlink:href="pyramid__with__auto__mem__gen_8hpp.html" target="_top" xlink:title="This file contains the construction of the pyramid node where a user can pass general filter2d functo...">
<polygon fill="none" stroke="black" points="2235.5,-1 2235.5,-31 2360.5,-31 2360.5,-1 2235.5,-1"/>
<text text-anchor="start" x="2243.5" y="-19" font-family="Helvetica,sans-Serif" font-size="10.00">pyramid_with_auto_mem</text>
<text text-anchor="middle" x="2298" y="-8" font-family="Helvetica,sans-Serif" font-size="10.00">_gen.hpp</text>
</a>
</g>
</g>
<!-- Node35&#45;&gt;Node37 -->
<g id="edge36" class="edge"><title>Node35&#45;&gt;Node37</title>
<path fill="none" stroke="midnightblue" d="M2247.1,-68.679C2255.79,-59.8572 2267.1,-48.3801 2276.84,-38.4831"/>
<polygon fill="midnightblue" stroke="midnightblue" points="2279.4,-40.8739 2283.92,-31.2931 2274.41,-35.962 2279.4,-40.8739"/>
</g>
<!-- Node38 -->
<g id="node38" class="node"><title>Node38</title>
<g id="a_node38"><a xlink:href="pyramid__with__auto__mem__sep_8hpp.html" target="_top" xlink:title="This file contains the construction of the pyramid node where a user can pass separable filter2d func...">
<polygon fill="none" stroke="black" points="2378.5,-1 2378.5,-31 2503.5,-31 2503.5,-1 2378.5,-1"/>
<text text-anchor="start" x="2386.5" y="-19" font-family="Helvetica,sans-Serif" font-size="10.00">pyramid_with_auto_mem</text>
<text text-anchor="middle" x="2441" y="-8" font-family="Helvetica,sans-Serif" font-size="10.00">_sep.hpp</text>
</a>
</g>
</g>
<!-- Node35&#45;&gt;Node38 -->
<g id="edge37" class="edge"><title>Node35&#45;&gt;Node38</title>
<path fill="none" stroke="midnightblue" d="M2277.37,-68.9223C2309.4,-58.7575 2352.84,-44.9749 2386.91,-34.1643"/>
<polygon fill="midnightblue" stroke="midnightblue" points="2388.23,-37.4167 2396.7,-31.0561 2386.11,-30.7445 2388.23,-37.4167"/>
</g>
<!-- Node40 -->
<g id="node40" class="node"><title>Node40</title>
<g id="a_node40"><a xlink:href="eval__assign_8hpp.html" target="_top" xlink:title="This file contains the specialisation of the Evaluator struct for assign when it is a root struct...">
<polygon fill="none" stroke="black" points="2496,-74.5 2496,-93.5 2638,-93.5 2638,-74.5 2496,-74.5"/>
<text text-anchor="middle" x="2567" y="-81.5" font-family="Helvetica,sans-Serif" font-size="10.00">eval_assign/eval_assign.hpp</text>
</a>
</g>
</g>
<!-- Node39&#45;&gt;Node40 -->
<g id="edge39" class="edge"><title>Node39&#45;&gt;Node40</title>
<path fill="none" stroke="midnightblue" d="M2698.26,-142.372C2672.26,-131.007 2626.33,-110.931 2596.28,-97.7961"/>
<polygon fill="midnightblue" stroke="midnightblue" points="2597.31,-94.4285 2586.75,-93.6305 2594.51,-100.843 2597.31,-94.4285"/>
</g>
<!-- Node41 -->
<g id="node41" class="node"><title>Node41</title>
<g id="a_node41"><a xlink:href="eval__assign__partial_8hpp.html" target="_top" xlink:title="This file contains the specialisation of the Evaluator struct for assign when it is a root struct...">
<polygon fill="none" stroke="black" points="2656.5,-69 2656.5,-99 2779.5,-99 2779.5,-69 2656.5,-69"/>
<text text-anchor="start" x="2664.5" y="-87" font-family="Helvetica,sans-Serif" font-size="10.00">eval_assign/eval_assign</text>
<text text-anchor="middle" x="2718" y="-76" font-family="Helvetica,sans-Serif" font-size="10.00">_partial.hpp</text>
</a>
</g>
</g>
<!-- Node39&#45;&gt;Node41 -->
<g id="edge40" class="edge"><title>Node39&#45;&gt;Node41</title>
<path fill="none" stroke="midnightblue" d="M2718,-142.372C2718,-133.971 2718,-120.811 2718,-109.213"/>
<polygon fill="midnightblue" stroke="midnightblue" points="2721.5,-109.181 2718,-99.1815 2714.5,-109.181 2721.5,-109.181"/>
</g>
<!-- Node42 -->
<g id="node42" class="node"><title>Node42</title>
<g id="a_node42"><a xlink:href="eval__expression_8hpp.html" target="_top" xlink:title="This file contains a collection of headers that required for eval_expression. ">
<polygon fill="none" stroke="black" points="2798,-69 2798,-99 2906,-99 2906,-69 2798,-69"/>
<text text-anchor="start" x="2806" y="-87" font-family="Helvetica,sans-Serif" font-size="10.00">eval_expression/eval</text>
<text text-anchor="middle" x="2852" y="-76" font-family="Helvetica,sans-Serif" font-size="10.00">_expression.hpp</text>
</a>
</g>
</g>
<!-- Node39&#45;&gt;Node42 -->
<g id="edge41" class="edge"><title>Node39&#45;&gt;Node42</title>
<path fill="none" stroke="midnightblue" d="M2735.52,-142.372C2755.42,-132.569 2788.49,-116.283 2814.31,-103.563"/>
<polygon fill="midnightblue" stroke="midnightblue" points="2816.04,-106.615 2823.46,-99.0562 2812.94,-100.335 2816.04,-106.615"/>
</g>
<!-- Node50 -->
<g id="node50" class="node"><title>Node50</title>
<g id="a_node50"><a xlink:href="square__pattern_8hpp.html" target="_top" xlink:title="this file contains the partial specialisation of the Fill for LeafNode ">
<polygon fill="none" stroke="black" points="2924,-69 2924,-99 3026,-99 3026,-69 2924,-69"/>
<text text-anchor="start" x="2932" y="-87" font-family="Helvetica,sans-Serif" font-size="10.00">load_pattern/square</text>
<text text-anchor="middle" x="2975" y="-76" font-family="Helvetica,sans-Serif" font-size="10.00">_pattern.hpp</text>
</a>
</g>
</g>
<!-- Node39&#45;&gt;Node50 -->
<g id="edge49" class="edge"><title>Node39&#45;&gt;Node50</title>
<path fill="none" stroke="midnightblue" d="M2751.33,-142.439C2792.33,-131.91 2862.74,-113.83 2913.62,-100.762"/>
<polygon fill="midnightblue" stroke="midnightblue" points="2914.71,-104.097 2923.52,-98.2194 2912.97,-97.3169 2914.71,-104.097"/>
</g>
<!-- Node43 -->
<g id="node43" class="node"><title>Node43</title>
<g id="a_node43"><a xlink:href="eval__expr__assign_8hpp.html" target="_top" xlink:title="this file contains the specialisation of EvalExpr for Assign when it is not a root ...">
<polygon fill="none" stroke="black" points="2521.5,-6.5 2521.5,-25.5 2632.5,-25.5 2632.5,-6.5 2521.5,-6.5"/>
<text text-anchor="middle" x="2577" y="-13.5" font-family="Helvetica,sans-Serif" font-size="10.00">eval_expr_assign.hpp</text>
</a>
</g>
</g>
<!-- Node42&#45;&gt;Node43 -->
<g id="edge42" class="edge"><title>Node42&#45;&gt;Node43</title>
<path fill="none" stroke="midnightblue" d="M2798,-70.0393C2746.74,-57.7374 2670.57,-39.4561 2622.37,-27.8885"/>
<polygon fill="midnightblue" stroke="midnightblue" points="2623.07,-24.457 2612.53,-25.5265 2621.43,-31.2637 2623.07,-24.457"/>
</g>
<!-- Node44 -->
<g id="node44" class="node"><title>Node44</title>
<g id="a_node44"><a xlink:href="eval__expr__leaf__node_8hpp.html" target="_top" xlink:title="This file contains the specialisation of the EvalExpr for LeafNode. ">
<polygon fill="none" stroke="black" points="2650.5,-6.5 2650.5,-25.5 2775.5,-25.5 2775.5,-6.5 2650.5,-6.5"/>
<text text-anchor="middle" x="2713" y="-13.5" font-family="Helvetica,sans-Serif" font-size="10.00">eval_expr_leaf_node.hpp</text>
</a>
</g>
</g>
<!-- Node42&#45;&gt;Node44 -->
<g id="edge43" class="edge"><title>Node42&#45;&gt;Node44</title>
<path fill="none" stroke="midnightblue" d="M2822.18,-68.8413C2797.92,-57.3229 2763.96,-41.1989 2740.39,-30.0036"/>
<polygon fill="midnightblue" stroke="midnightblue" points="2741.82,-26.8095 2731.28,-25.6819 2738.82,-33.1329 2741.82,-26.8095"/>
</g>
<!-- Node45 -->
<g id="node45" class="node"><title>Node45</title>
<g id="a_node45"><a xlink:href="eval__expr__r__binary_8hpp.html" target="_top" xlink:title="This file contains the specialisation of the EvalExpr for RBiOP( pointwise Binary operation node)...">
<polygon fill="none" stroke="black" points="2793.5,-6.5 2793.5,-25.5 2910.5,-25.5 2910.5,-6.5 2793.5,-6.5"/>
<text text-anchor="middle" x="2852" y="-13.5" font-family="Helvetica,sans-Serif" font-size="10.00">eval_expr_r_binary.hpp</text>
</a>
</g>
</g>
<!-- Node42&#45;&gt;Node45 -->
<g id="edge44" class="edge"><title>Node42&#45;&gt;Node45</title>
<path fill="none" stroke="midnightblue" d="M2852,-68.679C2852,-59.1014 2852,-46.3938 2852,-35.9766"/>
<polygon fill="midnightblue" stroke="midnightblue" points="2855.5,-35.8283 2852,-25.8283 2848.5,-35.8283 2855.5,-35.8283"/>
</g>
<!-- Node46 -->
<g id="node46" class="node"><title>Node46</title>
<g id="a_node46"><a xlink:href="eval__expr__r__unary_8hpp.html" target="_top" xlink:title="This file contains the specialisation of the EvalExpr for RUnOP( pointwise Unary operation node)...">
<polygon fill="none" stroke="black" points="2928.5,-6.5 2928.5,-25.5 3043.5,-25.5 3043.5,-6.5 2928.5,-6.5"/>
<text text-anchor="middle" x="2986" y="-13.5" font-family="Helvetica,sans-Serif" font-size="10.00">eval_expr_r_unary.hpp</text>
</a>
</g>
</g>
<!-- Node42&#45;&gt;Node46 -->
<g id="edge45" class="edge"><title>Node42&#45;&gt;Node46</title>
<path fill="none" stroke="midnightblue" d="M2880.75,-68.8413C2904.03,-57.3741 2936.58,-41.3421 2959.3,-30.1532"/>
<polygon fill="midnightblue" stroke="midnightblue" points="2960.95,-33.2403 2968.37,-25.6819 2957.86,-26.9606 2960.95,-33.2403"/>
</g>
<!-- Node47 -->
<g id="node47" class="node"><title>Node47</title>
<g id="a_node47"><a xlink:href="eval__expr__reduction_8hpp.html" target="_top" xlink:title="This file contains the specialisation of the EvalExpr for RDCN( reduction operation node)...">
<polygon fill="none" stroke="black" points="3062,-6.5 3062,-25.5 3184,-25.5 3184,-6.5 3062,-6.5"/>
<text text-anchor="middle" x="3123" y="-13.5" font-family="Helvetica,sans-Serif" font-size="10.00">eval_expr_reduction.hpp</text>
</a>
</g>
</g>
<!-- Node42&#45;&gt;Node47 -->
<g id="edge46" class="edge"><title>Node42&#45;&gt;Node47</title>
<path fill="none" stroke="midnightblue" d="M2906.19,-69.8025C2956.56,-57.5362 3030.71,-39.4774 3077.92,-27.9793"/>
<polygon fill="midnightblue" stroke="midnightblue" points="3078.97,-31.326 3087.86,-25.5591 3077.31,-24.5248 3078.97,-31.326"/>
</g>
<!-- Node48 -->
<g id="node48" class="node"><title>Node48</title>
<g id="a_node48"><a xlink:href="eval__expr__stn__filt_8hpp.html" target="_top" xlink:title="This file contains the specialisation of the EvalExpr for StnFilt( stencil node with filter )...">
<polygon fill="none" stroke="black" points="3202,-6.5 3202,-25.5 3314,-25.5 3314,-6.5 3202,-6.5"/>
<text text-anchor="middle" x="3258" y="-13.5" font-family="Helvetica,sans-Serif" font-size="10.00">eval_expr_stn_filt.hpp</text>
</a>
</g>
</g>
<!-- Node42&#45;&gt;Node48 -->
<g id="edge47" class="edge"><title>Node42&#45;&gt;Node48</title>
<path fill="none" stroke="midnightblue" d="M2906.22,-69.7089C2909.18,-69.1016 2912.12,-68.527 2915,-68 3037.55,-45.5406 3070.38,-54.0338 3193,-32 3199.74,-30.789 3206.83,-29.3373 3213.76,-27.8206"/>
<polygon fill="midnightblue" stroke="midnightblue" points="3214.74,-31.1877 3223.72,-25.5725 3213.2,-24.3594 3214.74,-31.1877"/>
</g>
<!-- Node49 -->
<g id="node49" class="node"><title>Node49</title>
<g id="a_node49"><a xlink:href="eval__expr__stn__no__filt_8hpp.html" target="_top" xlink:title="This file contains the specialisation of the EvalExpr for StnFilt( stencil node without filter)...">
<polygon fill="none" stroke="black" points="3332,-6.5 3332,-25.5 3460,-25.5 3460,-6.5 3332,-6.5"/>
<text text-anchor="middle" x="3396" y="-13.5" font-family="Helvetica,sans-Serif" font-size="10.00">eval_expr_stn_no_filt.hpp</text>
</a>
</g>
</g>
<!-- Node42&#45;&gt;Node49 -->
<g id="edge48" class="edge"><title>Node42&#45;&gt;Node49</title>
<path fill="none" stroke="midnightblue" d="M2906.2,-69.5674C2909.17,-68.9967 2912.11,-68.4686 2915,-68 3094.25,-38.8924 3142.29,-58.0788 3322,-32 3330.48,-30.7687 3339.46,-29.1875 3348.13,-27.5154"/>
<polygon fill="midnightblue" stroke="midnightblue" points="3348.99,-30.9129 3358.12,-25.5264 3347.62,-24.0478 3348.99,-30.9129"/>
</g>
<!-- Node52 -->
<g id="node52" class="node"><title>Node52</title>
<g id="a_node52"><a xlink:href="executor__subexpr__if__needed_8hpp.html" target="_top" xlink:title="This file contains required classes for break an expression tree into subexpression trees for particu...">
<polygon fill="none" stroke="black" points="3044,-69 3044,-99 3148,-99 3148,-69 3044,-69"/>
<text text-anchor="start" x="3052" y="-87" font-family="Helvetica,sans-Serif" font-size="10.00">executor_subexpr_if</text>
<text text-anchor="middle" x="3096" y="-76" font-family="Helvetica,sans-Serif" font-size="10.00">_needed.hpp</text>
</a>
</g>
</g>
<!-- Node51&#45;&gt;Node52 -->
<g id="edge51" class="edge"><title>Node51&#45;&gt;Node52</title>
<path fill="none" stroke="midnightblue" d="M3144.68,-142.372C3137.12,-133.457 3125,-119.182 3114.75,-107.101"/>
<polygon fill="midnightblue" stroke="midnightblue" points="3117.17,-104.542 3108.03,-99.1815 3111.83,-109.071 3117.17,-104.542"/>
</g>
<!-- Node53 -->
<g id="node53" class="node"><title>Node53</title>
<g id="a_node53"><a xlink:href="fuse_8hpp.html" target="_top" xlink:title="This file contains the specialisation of the FuseExpr for terminal and non&#45;terminal nodes...">
<polygon fill="none" stroke="black" points="3166.5,-74.5 3166.5,-93.5 3249.5,-93.5 3249.5,-74.5 3166.5,-74.5"/>
<text text-anchor="middle" x="3208" y="-81.5" font-family="Helvetica,sans-Serif" font-size="10.00">policy/fuse.hpp</text>
</a>
</g>
</g>
<!-- Node51&#45;&gt;Node53 -->
<g id="edge52" class="edge"><title>Node51&#45;&gt;Node53</title>
<path fill="none" stroke="midnightblue" d="M3159.32,-142.372C3168.08,-132.053 3182.93,-114.551 3193.93,-101.585"/>
<polygon fill="midnightblue" stroke="midnightblue" points="3196.7,-103.731 3200.5,-93.8411 3191.36,-99.2018 3196.7,-103.731"/>
</g>
<!-- Node54 -->
<g id="node54" class="node"><title>Node54</title>
<g id="a_node54"><a xlink:href="nofuse_8hpp.html" target="_top" xlink:title="This file contains the specialisation of the NoFuse for different nodes. ">
<polygon fill="none" stroke="black" points="3267.5,-74.5 3267.5,-93.5 3360.5,-93.5 3360.5,-74.5 3267.5,-74.5"/>
<text text-anchor="middle" x="3314" y="-81.5" font-family="Helvetica,sans-Serif" font-size="10.00">policy/nofuse.hpp</text>
</a>
</g>
</g>
<!-- Node51&#45;&gt;Node54 -->
<g id="edge53" class="edge"><title>Node51&#45;&gt;Node54</title>
<path fill="none" stroke="midnightblue" d="M3173.18,-142.372C3201.39,-130.877 3251.49,-110.469 3283.7,-97.3465"/>
<polygon fill="midnightblue" stroke="midnightblue" points="3285.13,-100.54 3293.07,-93.5259 3282.49,-94.0576 3285.13,-100.54"/>
</g>
<!-- Node56 -->
<g id="node56" class="node"><title>Node56</title>
<g id="a_node56"><a xlink:href="sycl_2device_8hpp.html" target="_top" xlink:title="This file contains the include headers for sycl devices. ">
<polygon fill="none" stroke="black" points="3493.5,-74.5 3493.5,-93.5 3578.5,-93.5 3578.5,-74.5 3493.5,-74.5"/>
<text text-anchor="middle" x="3536" y="-81.5" font-family="Helvetica,sans-Serif" font-size="10.00">sycl/device.hpp</text>
</a>
</g>
</g>
<!-- Node55&#45;&gt;Node56 -->
<g id="edge55" class="edge"><title>Node55&#45;&gt;Node56</title>
<path fill="none" stroke="midnightblue" d="M3397.79,-142.372C3425.36,-130.927 3474.22,-110.644 3505.85,-97.5165"/>
<polygon fill="midnightblue" stroke="midnightblue" points="3507.57,-100.592 3515.46,-93.5259 3504.88,-94.1271 3507.57,-100.592"/>
</g>
<!-- Node57 -->
<g id="node57" class="node"><title>Node57</title>
<g id="a_node57"><a xlink:href="extract__accessors_8hpp.html" target="_top" xlink:title="This files is used to provide an access mechanism for terminal nodes on the device. ">
<polygon fill="none" stroke="black" points="3478,-6.5 3478,-25.5 3594,-25.5 3594,-6.5 3478,-6.5"/>
<text text-anchor="middle" x="3536" y="-13.5" font-family="Helvetica,sans-Serif" font-size="10.00">extract_accessors.hpp</text>
</a>
</g>
</g>
<!-- Node56&#45;&gt;Node57 -->
<g id="edge56" class="edge"><title>Node56&#45;&gt;Node57</title>
<path fill="none" stroke="midnightblue" d="M3536,-74.3717C3536,-64.6426 3536,-48.528 3536,-35.8504"/>
<polygon fill="midnightblue" stroke="midnightblue" points="3539.5,-35.8411 3536,-25.8411 3532.5,-35.8412 3539.5,-35.8411"/>
</g>
<!-- Node58 -->
<g id="node58" class="node"><title>Node58</title>
<g id="a_node58"><a xlink:href="sycl__device_8hpp.html" target="_top" xlink:title="This fill contains features related to sycl devices. ">
<polygon fill="none" stroke="black" points="3612.5,-6.5 3612.5,-25.5 3699.5,-25.5 3699.5,-6.5 3612.5,-6.5"/>
<text text-anchor="middle" x="3656" y="-13.5" font-family="Helvetica,sans-Serif" font-size="10.00">sycl_device.hpp</text>
</a>
</g>
</g>
<!-- Node56&#45;&gt;Node58 -->
<g id="edge57" class="edge"><title>Node56&#45;&gt;Node58</title>
<path fill="none" stroke="midnightblue" d="M3551.69,-74.3717C3571.99,-63.2051 3607.59,-43.6266 3631.48,-30.4876"/>
<polygon fill="midnightblue" stroke="midnightblue" points="3633.23,-33.5165 3640.31,-25.6305 3629.86,-27.3829 3633.23,-33.5165"/>
</g>
</g>
</svg>
