<?xml version="1.0" encoding="UTF-8" standalone="no"?>
<!DOCTYPE svg PUBLIC "-//W3C//DTD SVG 1.1//EN"
 "http://www.w3.org/Graphics/SVG/1.1/DTD/svg11.dtd">
<!-- Generated by graphviz version 2.43.0 (0)
 -->
<!-- Title: framework.hpp Pages: 1 -->
<svg width="4050pt" height="229pt"
 viewBox="0.00 0.00 4049.50 229.00" xmlns="http://www.w3.org/2000/svg" xmlns:xlink="http://www.w3.org/1999/xlink">
<g id="graph0" class="graph" transform="scale(1 1) rotate(0) translate(4 225)">
<title>framework.hpp</title>
<!-- Node1 -->
<g id="node1" class="node">
<title>Node1</title>
<g id="a_node1"><a xlink:title="Collection of VisionCpp framework headers.">
<polygon fill="#bfbfbf" stroke="black" points="1669.5,-201.5 1669.5,-220.5 1760.5,-220.5 1760.5,-201.5 1669.5,-201.5"/>
<text text-anchor="middle" x="1715" y="-208.5" font-family="Helvetica,sans-Serif" font-size="10.00">framework.hpp</text>
</a>
</g>
</g>
<!-- Node2 -->
<g id="node2" class="node">
<title>Node2</title>
<g id="a_node2"><a xlink:href="forward__declarations_8hpp.html" target="_top" xlink:title="forward declarations for the library">
<polygon fill="none" stroke="black" points="92,-140 92,-159 232,-159 232,-140 92,-140"/>
<text text-anchor="middle" x="162" y="-147" font-family="Helvetica,sans-Serif" font-size="10.00">forward_declarations.hpp</text>
</a>
</g>
</g>
<!-- Node1&#45;&gt;Node2 -->
<g id="edge1" class="edge">
<title>Node1&#45;&gt;Node2</title>
<path fill="none" stroke="midnightblue" d="M1669.44,-209.54C1453.09,-207.19 528.04,-195.55 241,-165 231.53,-163.99 221.49,-162.49 211.86,-160.83"/>
<polygon fill="midnightblue" stroke="midnightblue" points="212.48,-157.38 202.02,-159.06 211.24,-164.27 212.48,-157.38"/>
</g>
<!-- Node3 -->
<g id="node3" class="node">
<title>Node3</title>
<g id="a_node3"><a xlink:href="tools_8hpp.html" target="_top" xlink:title="Collection of tools headers.">
<polygon fill="none" stroke="black" points="250.5,-140 250.5,-159 339.5,-159 339.5,-140 250.5,-140"/>
<text text-anchor="middle" x="295" y="-147" font-family="Helvetica,sans-Serif" font-size="10.00">tools/tools.hpp</text>
</a>
</g>
</g>
<!-- Node1&#45;&gt;Node3 -->
<g id="edge2" class="edge">
<title>Node1&#45;&gt;Node3</title>
<path fill="none" stroke="midnightblue" d="M1669.36,-208.09C1458.51,-199.25 579.15,-162.41 349.87,-152.8"/>
<polygon fill="midnightblue" stroke="midnightblue" points="349.9,-149.3 339.76,-152.38 349.6,-156.29 349.9,-149.3"/>
</g>
<!-- Node10 -->
<g id="node10" class="node">
<title>Node10</title>
<g id="a_node10"><a xlink:href="memory_8hpp.html" target="_top" xlink:title=" ">
<polygon fill="none" stroke="black" points="757,-140 757,-159 879,-159 879,-140 757,-140"/>
<text text-anchor="middle" x="818" y="-147" font-family="Helvetica,sans-Serif" font-size="10.00">memory/memory.hpp</text>
</a>
</g>
</g>
<!-- Node1&#45;&gt;Node10 -->
<g id="edge9" class="edge">
<title>Node1&#45;&gt;Node10</title>
<path fill="none" stroke="midnightblue" d="M1669.28,-206.97C1523.07,-197.27 1066.08,-166.96 889.05,-155.21"/>
<polygon fill="midnightblue" stroke="midnightblue" points="889.27,-151.72 879.06,-154.55 888.81,-158.7 889.27,-151.72"/>
</g>
<!-- Node18 -->
<g id="node18" class="node">
<title>Node18</title>
<g id="a_node18"><a xlink:href="expr__convertor_8hpp.html" target="_top" xlink:title="this is used to replace the leaf node with a PlaceHolder node.">
<polygon fill="none" stroke="black" points="1415.5,-134.5 1415.5,-164.5 1530.5,-164.5 1530.5,-134.5 1415.5,-134.5"/>
<text text-anchor="start" x="1423.5" y="-152.5" font-family="Helvetica,sans-Serif" font-size="10.00">expr_convertor/expr</text>
<text text-anchor="middle" x="1473" y="-141.5" font-family="Helvetica,sans-Serif" font-size="10.00">_convertor.hpp</text>
</a>
</g>
</g>
<!-- Node1&#45;&gt;Node18 -->
<g id="edge17" class="edge">
<title>Node1&#45;&gt;Node18</title>
<path fill="none" stroke="midnightblue" d="M1680.33,-201.48C1643.8,-192.49 1585.37,-178.13 1539.84,-166.93"/>
<polygon fill="midnightblue" stroke="midnightblue" points="1540.58,-163.51 1530.03,-164.52 1538.91,-170.31 1540.58,-163.51"/>
</g>
<!-- Node24 -->
<g id="node24" class="node">
<title>Node24</title>
<g id="a_node24"><a xlink:href="expr__tree_8hpp.html" target="_top" xlink:title="This file contains the forward declarations and all the necessary include headers for the constructio...">
<polygon fill="none" stroke="black" points="1896,-140 1896,-159 2030,-159 2030,-140 1896,-140"/>
<text text-anchor="middle" x="1963" y="-147" font-family="Helvetica,sans-Serif" font-size="10.00">expr_tree/expr_tree.hpp</text>
</a>
</g>
</g>
<!-- Node1&#45;&gt;Node24 -->
<g id="edge23" class="edge">
<title>Node1&#45;&gt;Node24</title>
<path fill="none" stroke="midnightblue" d="M1750.53,-201.48C1794.55,-190.92 1869.59,-172.91 1917.7,-161.37"/>
<polygon fill="midnightblue" stroke="midnightblue" points="1918.63,-164.75 1927.53,-159.01 1916.99,-157.94 1918.63,-164.75"/>
</g>
<!-- Node39 -->
<g id="node39" class="node">
<title>Node39</title>
<g id="a_node39"><a xlink:href="evaluator_8hpp.html" target="_top" xlink:title="This file contains a collection of headers and forward declaration for evaluating an expression tree.">
<polygon fill="none" stroke="black" points="2906.5,-140 2906.5,-159 3039.5,-159 3039.5,-140 2906.5,-140"/>
<text text-anchor="middle" x="2973" y="-147" font-family="Helvetica,sans-Serif" font-size="10.00">evaluator/evaluator.hpp</text>
</a>
</g>
</g>
<!-- Node1&#45;&gt;Node39 -->
<g id="edge38" class="edge">
<title>Node1&#45;&gt;Node39</title>
<path fill="none" stroke="midnightblue" d="M1760.52,-207.85C1947.7,-198.99 2659.35,-165.33 2895.98,-154.14"/>
<polygon fill="midnightblue" stroke="midnightblue" points="2896.39,-157.63 2906.21,-153.66 2896.06,-150.64 2896.39,-157.63"/>
</g>
<!-- Node51 -->
<g id="node51" class="node">
<title>Node51</title>
<g id="a_node51"><a xlink:href="executor_8hpp.html" target="_top" xlink:title="This files contains a series of forward declaration and include files required for executing an expre...">
<polygon fill="none" stroke="black" points="3385,-140 3385,-159 3509,-159 3509,-140 3385,-140"/>
<text text-anchor="middle" x="3447" y="-147" font-family="Helvetica,sans-Serif" font-size="10.00">executor/executor.hpp</text>
</a>
</g>
</g>
<!-- Node1&#45;&gt;Node51 -->
<g id="edge50" class="edge">
<title>Node1&#45;&gt;Node51</title>
<path fill="none" stroke="midnightblue" d="M1760.75,-208.5C1930.89,-202.9 2543.23,-182.69 3048,-165 3162.03,-161 3294.39,-156.15 3374.35,-153.2"/>
<polygon fill="midnightblue" stroke="midnightblue" points="3374.94,-156.68 3384.8,-152.81 3374.68,-149.68 3374.94,-156.68"/>
</g>
<!-- Node55 -->
<g id="node55" class="node">
<title>Node55</title>
<g id="a_node55"><a xlink:href="device_8hpp.html" target="_top" xlink:title="include headers for adding different devices. Currently we only support sycl backend">
<polygon fill="none" stroke="black" points="3700.5,-140 3700.5,-159 3805.5,-159 3805.5,-140 3700.5,-140"/>
<text text-anchor="middle" x="3753" y="-147" font-family="Helvetica,sans-Serif" font-size="10.00">device/device.hpp</text>
</a>
</g>
</g>
<!-- Node1&#45;&gt;Node55 -->
<g id="edge54" class="edge">
<title>Node1&#45;&gt;Node55</title>
<path fill="none" stroke="midnightblue" d="M1760.65,-209.48C1965.26,-207 2818.45,-195.3 3518,-165 3576.4,-162.47 3642.89,-158.24 3690.2,-155"/>
<polygon fill="midnightblue" stroke="midnightblue" points="3690.56,-158.49 3700.3,-154.31 3690.08,-151.5 3690.56,-158.49"/>
</g>
<!-- Node4 -->
<g id="node4" class="node">
<title>Node4</title>
<g id="a_node4"><a xlink:href="convert_8hpp.html" target="_top" xlink:title="Series of pixel convert functions.">
<polygon fill="none" stroke="black" points="0,-73 0,-92 74,-92 74,-73 0,-73"/>
<text text-anchor="middle" x="37" y="-80" font-family="Helvetica,sans-Serif" font-size="10.00">convert.hpp</text>
</a>
</g>
</g>
<!-- Node3&#45;&gt;Node4 -->
<g id="edge3" class="edge">
<title>Node3&#45;&gt;Node4</title>
<path fill="none" stroke="midnightblue" d="M263.93,-139.94C256.43,-137.93 248.44,-135.85 241,-134 171.1,-116.66 152.51,-116.84 83,-98 79.58,-97.07 76.04,-96.06 72.51,-95.01"/>
<polygon fill="midnightblue" stroke="midnightblue" points="73.27,-91.58 62.68,-92 71.22,-98.27 73.27,-91.58"/>
</g>
<!-- Node5 -->
<g id="node5" class="node">
<title>Node5</title>
<g id="a_node5"><a xlink:href="static__if_8hpp.html" target="_top" xlink:title="This file provides a set of static_if functions used at to calculate the result of if statement at co...">
<polygon fill="none" stroke="black" points="92,-73 92,-92 168,-92 168,-73 92,-73"/>
<text text-anchor="middle" x="130" y="-80" font-family="Helvetica,sans-Serif" font-size="10.00">static_if.hpp</text>
</a>
</g>
</g>
<!-- Node3&#45;&gt;Node5 -->
<g id="edge4" class="edge">
<title>Node3&#45;&gt;Node5</title>
<path fill="none" stroke="midnightblue" d="M273.09,-139.87C244.41,-128.57 193.96,-108.7 161.27,-95.82"/>
<polygon fill="midnightblue" stroke="midnightblue" points="162.33,-92.47 151.74,-92.06 159.76,-98.99 162.33,-92.47"/>
</g>
<!-- Node6 -->
<g id="node6" class="node">
<title>Node6</title>
<g id="a_node6"><a xlink:href="time_8hpp.html" target="_top" xlink:title="Basic time operations.">
<polygon fill="none" stroke="black" points="186,-73 186,-92 246,-92 246,-73 186,-73"/>
<text text-anchor="middle" x="216" y="-80" font-family="Helvetica,sans-Serif" font-size="10.00">time.hpp</text>
</a>
</g>
</g>
<!-- Node3&#45;&gt;Node6 -->
<g id="edge5" class="edge">
<title>Node3&#45;&gt;Node6</title>
<path fill="none" stroke="midnightblue" d="M284.35,-139.73C271.55,-129.21 249.88,-111.38 234.37,-98.62"/>
<polygon fill="midnightblue" stroke="midnightblue" points="236.43,-95.78 226.49,-92.13 231.98,-101.18 236.43,-95.78"/>
</g>
<!-- Node8 -->
<g id="node8" class="node">
<title>Node8</title>
<g id="a_node8"><a xlink:href="tuple_8hpp.html" target="_top" xlink:title="Tuples standard layout implementation. http://en.cppreference.com/w/cpp/utility/tuple.">
<polygon fill="none" stroke="black" points="264,-73 264,-92 326,-92 326,-73 264,-73"/>
<text text-anchor="middle" x="295" y="-80" font-family="Helvetica,sans-Serif" font-size="10.00">tuple.hpp</text>
</a>
</g>
</g>
<!-- Node3&#45;&gt;Node8 -->
<g id="edge7" class="edge">
<title>Node3&#45;&gt;Node8</title>
<path fill="none" stroke="midnightblue" d="M295,-139.73C295,-130.18 295,-114.62 295,-102.28"/>
<polygon fill="midnightblue" stroke="midnightblue" points="298.5,-102.13 295,-92.13 291.5,-102.13 298.5,-102.13"/>
</g>
<!-- Node9 -->
<g id="node9" class="node">
<title>Node9</title>
<g id="a_node9"><a xlink:href="type__dereferencer_8hpp.html" target="_top" xlink:title="These methods are used to remove all the &amp; const and * from a type.">
<polygon fill="none" stroke="black" points="344,-73 344,-92 470,-92 470,-73 344,-73"/>
<text text-anchor="middle" x="407" y="-80" font-family="Helvetica,sans-Serif" font-size="10.00">type_dereferencer.hpp</text>
</a>
</g>
</g>
<!-- Node3&#45;&gt;Node9 -->
<g id="edge8" class="edge">
<title>Node3&#45;&gt;Node9</title>
<path fill="none" stroke="midnightblue" d="M310.1,-139.73C328.91,-128.82 361.25,-110.05 383.36,-97.22"/>
<polygon fill="midnightblue" stroke="midnightblue" points="385.24,-100.17 392.13,-92.13 381.73,-94.12 385.24,-100.17"/>
</g>
<!-- Node7 -->
<g id="node7" class="node">
<title>Node7</title>
<g id="a_node7"><a xlink:title=" ">
<polygon fill="none" stroke="#bfbfbf" points="191,-6 191,-25 241,-25 241,-6 191,-6"/>
<text text-anchor="middle" x="216" y="-13" font-family="Helvetica,sans-Serif" font-size="10.00">chrono</text>
</a>
</g>
</g>
<!-- Node6&#45;&gt;Node7 -->
<g id="edge6" class="edge">
<title>Node6&#45;&gt;Node7</title>
<path fill="none" stroke="midnightblue" d="M216,-72.73C216,-63.18 216,-47.62 216,-35.28"/>
<polygon fill="midnightblue" stroke="midnightblue" points="219.5,-35.13 216,-25.13 212.5,-35.13 219.5,-35.13"/>
</g>
<!-- Node11 -->
<g id="node11" class="node">
<title>Node11</title>
<g id="a_node11"><a xlink:href="mem__const_8hpp.html" target="_top" xlink:title="specialisations of SyclMem type when we are passing constant variable to the device....">
<polygon fill="none" stroke="black" points="488.5,-73 488.5,-92 583.5,-92 583.5,-73 488.5,-73"/>
<text text-anchor="middle" x="536" y="-80" font-family="Helvetica,sans-Serif" font-size="10.00">mem_const.hpp</text>
</a>
</g>
</g>
<!-- Node10&#45;&gt;Node11 -->
<g id="edge10" class="edge">
<title>Node10&#45;&gt;Node11</title>
<path fill="none" stroke="midnightblue" d="M778.5,-139.99C733.5,-130.21 657.83,-113.52 593,-98 588.34,-96.89 583.48,-95.69 578.64,-94.49"/>
<polygon fill="midnightblue" stroke="midnightblue" points="579.37,-91.06 568.81,-92.02 577.66,-97.85 579.37,-91.06"/>
</g>
<!-- Node12 -->
<g id="node12" class="node">
<title>Node12</title>
<g id="a_node12"><a xlink:href="mem__prop_8hpp.html" target="_top" xlink:title="Series of pixel convert functions.">
<polygon fill="none" stroke="black" points="602,-73 602,-92 692,-92 692,-73 602,-73"/>
<text text-anchor="middle" x="647" y="-80" font-family="Helvetica,sans-Serif" font-size="10.00">mem_prop.hpp</text>
</a>
</g>
</g>
<!-- Node10&#45;&gt;Node12 -->
<g id="edge11" class="edge">
<title>Node10&#45;&gt;Node12</title>
<path fill="none" stroke="midnightblue" d="M795.29,-139.87C765.44,-128.52 712.83,-108.52 678.97,-95.65"/>
<polygon fill="midnightblue" stroke="midnightblue" points="680.12,-92.35 669.53,-92.06 677.63,-98.89 680.12,-92.35"/>
</g>
<!-- Node13 -->
<g id="node13" class="node">
<title>Node13</title>
<g id="a_node13"><a xlink:href="mem__virtual_8hpp.html" target="_top" xlink:title=" ">
<polygon fill="none" stroke="black" points="710,-73 710,-92 810,-92 810,-73 710,-73"/>
<text text-anchor="middle" x="760" y="-80" font-family="Helvetica,sans-Serif" font-size="10.00">mem_virtual.hpp</text>
</a>
</g>
</g>
<!-- Node10&#45;&gt;Node13 -->
<g id="edge12" class="edge">
<title>Node10&#45;&gt;Node13</title>
<path fill="none" stroke="midnightblue" d="M810.18,-139.73C801.05,-129.5 785.76,-112.36 774.45,-99.69"/>
<polygon fill="midnightblue" stroke="midnightblue" points="776.97,-97.26 767.7,-92.13 771.74,-101.92 776.97,-97.26"/>
</g>
<!-- Node14 -->
<g id="node14" class="node">
<title>Node14</title>
<g id="a_node14"><a xlink:href="mem__vision_8hpp.html" target="_top" xlink:title="this file contains the memory struct used to store {Sycl buffer , Host pointer or Sycl image}.">
<polygon fill="none" stroke="black" points="828,-73 828,-92 926,-92 926,-73 828,-73"/>
<text text-anchor="middle" x="877" y="-80" font-family="Helvetica,sans-Serif" font-size="10.00">mem_vision.hpp</text>
</a>
</g>
</g>
<!-- Node10&#45;&gt;Node14 -->
<g id="edge13" class="edge">
<title>Node10&#45;&gt;Node14</title>
<path fill="none" stroke="midnightblue" d="M825.96,-139.73C835.25,-129.5 850.8,-112.36 862.3,-99.69"/>
<polygon fill="midnightblue" stroke="midnightblue" points="865.04,-101.88 869.17,-92.13 859.86,-97.18 865.04,-101.88"/>
</g>
<!-- Node15 -->
<g id="node15" class="node">
<title>Node15</title>
<g id="a_node15"><a xlink:href="memory__access_8hpp.html" target="_top" xlink:title=" ">
<polygon fill="none" stroke="black" points="944,-67.5 944,-97.5 1084,-97.5 1084,-67.5 944,-67.5"/>
<text text-anchor="start" x="952" y="-85.5" font-family="Helvetica,sans-Serif" font-size="10.00">memory_access/memory</text>
<text text-anchor="middle" x="1014" y="-74.5" font-family="Helvetica,sans-Serif" font-size="10.00">_access.hpp</text>
</a>
</g>
</g>
<!-- Node10&#45;&gt;Node15 -->
<g id="edge14" class="edge">
<title>Node10&#45;&gt;Node15</title>
<path fill="none" stroke="midnightblue" d="M844.03,-139.87C873.95,-129.95 923.81,-113.41 961.82,-100.81"/>
<polygon fill="midnightblue" stroke="midnightblue" points="963.31,-104 971.7,-97.53 961.11,-97.35 963.31,-104"/>
</g>
<!-- Node16 -->
<g id="node16" class="node">
<title>Node16</title>
<g id="a_node16"><a xlink:href="mem__coordinate_8hpp.html" target="_top" xlink:title="This files contains the Coordinate struct which is used to specify local/global offset for local/glob...">
<polygon fill="none" stroke="black" points="886,-6 886,-25 1006,-25 1006,-6 886,-6"/>
<text text-anchor="middle" x="946" y="-13" font-family="Helvetica,sans-Serif" font-size="10.00">mem_coordinate.hpp</text>
</a>
</g>
</g>
<!-- Node15&#45;&gt;Node16 -->
<g id="edge15" class="edge">
<title>Node15&#45;&gt;Node16</title>
<path fill="none" stroke="midnightblue" d="M999.25,-67.4C988.43,-57.06 973.75,-43.02 962.54,-32.31"/>
<polygon fill="midnightblue" stroke="midnightblue" points="964.74,-29.57 955.1,-25.19 959.91,-34.63 964.74,-29.57"/>
</g>
<!-- Node17 -->
<g id="node17" class="node">
<title>Node17</title>
<g id="a_node17"><a xlink:href="mem__neighbour_8hpp.html" target="_top" xlink:title=" ">
<polygon fill="none" stroke="black" points="1024,-6 1024,-25 1140,-25 1140,-6 1024,-6"/>
<text text-anchor="middle" x="1082" y="-13" font-family="Helvetica,sans-Serif" font-size="10.00">mem_neighbour.hpp</text>
</a>
</g>
</g>
<!-- Node15&#45;&gt;Node17 -->
<g id="edge16" class="edge">
<title>Node15&#45;&gt;Node17</title>
<path fill="none" stroke="midnightblue" d="M1028.75,-67.4C1039.57,-57.06 1054.25,-43.02 1065.46,-32.31"/>
<polygon fill="midnightblue" stroke="midnightblue" points="1068.09,-34.63 1072.9,-25.19 1063.26,-29.57 1068.09,-34.63"/>
</g>
<!-- Node19 -->
<g id="node19" class="node">
<title>Node19</title>
<g id="a_node19"><a xlink:href="leaf__count_8hpp.html" target="_top" xlink:title="LeafCount used to counting terminal nodes. The total number of leaf nodes is used by MakePlaceHolderE...">
<polygon fill="none" stroke="black" points="1102.5,-73 1102.5,-92 1191.5,-92 1191.5,-73 1102.5,-73"/>
<text text-anchor="middle" x="1147" y="-80" font-family="Helvetica,sans-Serif" font-size="10.00">leaf_count.hpp</text>
</a>
</g>
</g>
<!-- Node18&#45;&gt;Node19 -->
<g id="edge18" class="edge">
<title>Node18&#45;&gt;Node19</title>
<path fill="none" stroke="midnightblue" d="M1415.46,-139.3C1360.01,-130.1 1273.88,-114.91 1200,-98 1195.59,-96.99 1191,-95.86 1186.44,-94.68"/>
<polygon fill="midnightblue" stroke="midnightblue" points="1187.17,-91.25 1176.6,-92.07 1185.37,-98.02 1187.17,-91.25"/>
</g>
<!-- Node20 -->
<g id="node20" class="node">
<title>Node20</title>
<g id="a_node20"><a xlink:href="local__mem__count_8hpp.html" target="_top" xlink:title="LocalmemCount used to counting terminal nodes. The total number of leaf nodes is used by MakePlaceHol...">
<polygon fill="none" stroke="black" points="1209,-73 1209,-92 1333,-92 1333,-73 1209,-73"/>
<text text-anchor="middle" x="1271" y="-80" font-family="Helvetica,sans-Serif" font-size="10.00">local_mem_count.hpp</text>
</a>
</g>
</g>
<!-- Node18&#45;&gt;Node20 -->
<g id="edge19" class="edge">
<title>Node18&#45;&gt;Node20</title>
<path fill="none" stroke="midnightblue" d="M1429.17,-134.4C1392.63,-122.64 1341.2,-106.09 1307.02,-95.09"/>
<polygon fill="midnightblue" stroke="midnightblue" points="1308.03,-91.74 1297.44,-92.01 1305.88,-98.4 1308.03,-91.74"/>
</g>
<!-- Node21 -->
<g id="node21" class="node">
<title>Node21</title>
<g id="a_node21"><a xlink:href="local__output_8hpp.html" target="_top" xlink:title="This file contains the different specialisations of the LocalOutput.">
<polygon fill="none" stroke="black" points="1351,-73 1351,-92 1449,-92 1449,-73 1351,-73"/>
<text text-anchor="middle" x="1400" y="-80" font-family="Helvetica,sans-Serif" font-size="10.00">local_output.hpp</text>
</a>
</g>
</g>
<!-- Node18&#45;&gt;Node21 -->
<g id="edge20" class="edge">
<title>Node18&#45;&gt;Node21</title>
<path fill="none" stroke="midnightblue" d="M1457.16,-134.4C1445.44,-123.96 1429.48,-109.75 1417.41,-99"/>
<polygon fill="midnightblue" stroke="midnightblue" points="1419.56,-96.23 1409.76,-92.19 1414.91,-101.46 1419.56,-96.23"/>
</g>
<!-- Node22 -->
<g id="node22" class="node">
<title>Node22</title>
<g id="a_node22"><a xlink:href="make__place__holder__expr_8hpp.html" target="_top" xlink:title="PlaceHolder expression helper is used to create an expression in which the leafNodes of visionMemorie...">
<polygon fill="none" stroke="black" points="1467,-73 1467,-92 1625,-92 1625,-73 1467,-73"/>
<text text-anchor="middle" x="1546" y="-80" font-family="Helvetica,sans-Serif" font-size="10.00">make_place_holder_expr.hpp</text>
</a>
</g>
</g>
<!-- Node18&#45;&gt;Node22 -->
<g id="edge21" class="edge">
<title>Node18&#45;&gt;Node22</title>
<path fill="none" stroke="midnightblue" d="M1488.84,-134.4C1500.56,-123.96 1516.52,-109.75 1528.59,-99"/>
<polygon fill="midnightblue" stroke="midnightblue" points="1531.09,-101.46 1536.24,-92.19 1526.44,-96.23 1531.09,-101.46"/>
</g>
<!-- Node23 -->
<g id="node23" class="node">
<title>Node23</title>
<g id="a_node23"><a xlink:href="place__holder__leaf__node_8hpp.html" target="_top" xlink:title="This file contains different specialisations leafNodes for different types of memory.">
<polygon fill="none" stroke="black" points="1643.5,-73 1643.5,-92 1796.5,-92 1796.5,-73 1643.5,-73"/>
<text text-anchor="middle" x="1720" y="-80" font-family="Helvetica,sans-Serif" font-size="10.00">place_holder_leaf_node.hpp</text>
</a>
</g>
</g>
<!-- Node18&#45;&gt;Node23 -->
<g id="edge22" class="edge">
<title>Node18&#45;&gt;Node23</title>
<path fill="none" stroke="midnightblue" d="M1526.29,-134.48C1571.62,-122.55 1635.85,-105.64 1677.72,-94.63"/>
<polygon fill="midnightblue" stroke="midnightblue" points="1678.81,-97.96 1687.59,-92.03 1677.03,-91.19 1678.81,-97.96"/>
</g>
<!-- Node25 -->
<g id="node25" class="node">
<title>Node25</title>
<g id="a_node25"><a xlink:href="neighbour__ops_8hpp.html" target="_top" xlink:title="This file contains a set of includes used to construct neighbour nodes in expression tree.">
<polygon fill="none" stroke="black" points="1815,-67.5 1815,-97.5 1955,-97.5 1955,-67.5 1815,-67.5"/>
<text text-anchor="start" x="1823" y="-85.5" font-family="Helvetica,sans-Serif" font-size="10.00">neighbour_ops/neighbour</text>
<text text-anchor="middle" x="1885" y="-74.5" font-family="Helvetica,sans-Serif" font-size="10.00">_ops.hpp</text>
</a>
</g>
</g>
<!-- Node24&#45;&gt;Node25 -->
<g id="edge24" class="edge">
<title>Node24&#45;&gt;Node25</title>
<path fill="none" stroke="midnightblue" d="M1952.48,-139.73C1941.64,-130.7 1924.33,-116.27 1909.96,-104.3"/>
<polygon fill="midnightblue" stroke="midnightblue" points="1911.83,-101.3 1901.91,-97.59 1907.35,-106.68 1911.83,-101.3"/>
</g>
<!-- Node29 -->
<g id="node29" class="node">
<title>Node29</title>
<g id="a_node29"><a xlink:href="point__ops_8hpp.html" target="_top" xlink:title="This files contains a set of include headers for point operation node in the expression tree.">
<polygon fill="none" stroke="black" points="1973.5,-73 1973.5,-92 2108.5,-92 2108.5,-73 1973.5,-73"/>
<text text-anchor="middle" x="2041" y="-80" font-family="Helvetica,sans-Serif" font-size="10.00">point_ops/point_ops.hpp</text>
</a>
</g>
</g>
<!-- Node24&#45;&gt;Node29 -->
<g id="edge28" class="edge">
<title>Node24&#45;&gt;Node29</title>
<path fill="none" stroke="midnightblue" d="M1973.52,-139.73C1986.15,-129.21 2007.54,-111.38 2022.86,-98.62"/>
<polygon fill="midnightblue" stroke="midnightblue" points="2025.21,-101.22 2030.65,-92.13 2020.72,-95.84 2025.21,-101.22"/>
</g>
<!-- Node35 -->
<g id="node35" class="node">
<title>Node35</title>
<g id="a_node35"><a xlink:href="complex__ops_8hpp.html" target="_top" xlink:title="This file contains a set of includes and forward declaration required to build complex operations lik...">
<polygon fill="none" stroke="black" points="2375,-67.5 2375,-97.5 2501,-97.5 2501,-67.5 2375,-67.5"/>
<text text-anchor="start" x="2383" y="-85.5" font-family="Helvetica,sans-Serif" font-size="10.00">complex_ops/complex</text>
<text text-anchor="middle" x="2438" y="-74.5" font-family="Helvetica,sans-Serif" font-size="10.00">_ops.hpp</text>
</a>
</g>
</g>
<!-- Node24&#45;&gt;Node35 -->
<g id="edge34" class="edge">
<title>Node24&#45;&gt;Node35</title>
<path fill="none" stroke="midnightblue" d="M2025.59,-139.94C2113.12,-127.96 2271.79,-106.24 2364.73,-93.53"/>
<polygon fill="midnightblue" stroke="midnightblue" points="2365.46,-96.96 2374.9,-92.14 2364.51,-90.02 2365.46,-96.96"/>
</g>
<!-- Node26 -->
<g id="node26" class="node">
<title>Node26</title>
<g id="a_node26"><a xlink:href="reduction_8hpp.html" target="_top" xlink:title="This file contains RDCN struct which is used to construct a node to shrink an image.">
<polygon fill="none" stroke="black" points="1359.5,-6 1359.5,-25 1442.5,-25 1442.5,-6 1359.5,-6"/>
<text text-anchor="middle" x="1401" y="-13" font-family="Helvetica,sans-Serif" font-size="10.00">reduction.hpp</text>
</a>
</g>
</g>
<!-- Node25&#45;&gt;Node26 -->
<g id="edge25" class="edge">
<title>Node25&#45;&gt;Node26</title>
<path fill="none" stroke="midnightblue" d="M1814.81,-68.46C1811.5,-67.94 1808.21,-67.45 1805,-67 1648.85,-44.92 1606.88,-60.68 1452,-31 1447.28,-30.09 1442.36,-28.96 1437.52,-27.71"/>
<polygon fill="midnightblue" stroke="midnightblue" points="1438.35,-24.31 1427.79,-25.07 1436.52,-31.07 1438.35,-24.31"/>
</g>
<!-- Node27 -->
<g id="node27" class="node">
<title>Node27</title>
<g id="a_node27"><a xlink:href="stencil__no__filter_8hpp.html" target="_top" xlink:title="This file contains StnNoFilt struct which is used to construct a convolutional operation when the val...">
<polygon fill="none" stroke="black" points="1461,-6 1461,-25 1575,-25 1575,-6 1461,-6"/>
<text text-anchor="middle" x="1518" y="-13" font-family="Helvetica,sans-Serif" font-size="10.00">stencil_no_filter.hpp</text>
</a>
</g>
</g>
<!-- Node25&#45;&gt;Node27 -->
<g id="edge26" class="edge">
<title>Node25&#45;&gt;Node27</title>
<path fill="none" stroke="midnightblue" d="M1814.77,-68.7C1811.47,-68.12 1808.2,-67.55 1805,-67 1706.92,-50.13 1681.75,-49.68 1584,-31 1577.87,-29.83 1571.45,-28.52 1565.11,-27.18"/>
<polygon fill="midnightblue" stroke="midnightblue" points="1565.79,-23.74 1555.27,-25.06 1564.31,-30.59 1565.79,-23.74"/>
</g>
<!-- Node28 -->
<g id="node28" class="node">
<title>Node28</title>
<g id="a_node28"><a xlink:href="stencil__with__filter_8hpp.html" target="_top" xlink:title="This file contains the StnNoFilt struct which is used to construct a convolutional operation when the...">
<polygon fill="none" stroke="black" points="1593.5,-6 1593.5,-25 1716.5,-25 1716.5,-6 1593.5,-6"/>
<text text-anchor="middle" x="1655" y="-13" font-family="Helvetica,sans-Serif" font-size="10.00">stencil_with_filter.hpp</text>
</a>
</g>
</g>
<!-- Node25&#45;&gt;Node28 -->
<g id="edge27" class="edge">
<title>Node25&#45;&gt;Node28</title>
<path fill="none" stroke="midnightblue" d="M1835.38,-67.48C1793.43,-55.62 1734.11,-38.86 1695.12,-27.84"/>
<polygon fill="midnightblue" stroke="midnightblue" points="1695.75,-24.38 1685.18,-25.03 1693.85,-31.12 1695.75,-24.38"/>
</g>
<!-- Node30 -->
<g id="node30" class="node">
<title>Node30</title>
<g id="a_node30"><a xlink:href="assign_8hpp.html" target="_top" xlink:title="This file contains the Assign struct which is used to allocate the result of the right hand side expr...">
<polygon fill="none" stroke="black" points="1734.5,-6 1734.5,-25 1803.5,-25 1803.5,-6 1734.5,-6"/>
<text text-anchor="middle" x="1769" y="-13" font-family="Helvetica,sans-Serif" font-size="10.00">assign.hpp</text>
</a>
</g>
</g>
<!-- Node29&#45;&gt;Node30 -->
<g id="edge29" class="edge">
<title>Node29&#45;&gt;Node30</title>
<path fill="none" stroke="midnightblue" d="M1996.11,-72.94C1949.89,-63.81 1875.94,-48.29 1813,-31 1809.82,-30.13 1806.53,-29.16 1803.25,-28.15"/>
<polygon fill="midnightblue" stroke="midnightblue" points="1804.13,-24.76 1793.53,-25.07 1802.01,-31.43 1804.13,-24.76"/>
</g>
<!-- Node31 -->
<g id="node31" class="node">
<title>Node31</title>
<g id="a_node31"><a xlink:href="leaf__node_8hpp.html" target="_top" xlink:title="This file contains the LeafNode struct which is a general representation of our terminal node in the ...">
<polygon fill="none" stroke="black" points="1822,-6 1822,-25 1908,-25 1908,-6 1822,-6"/>
<text text-anchor="middle" x="1865" y="-13" font-family="Helvetica,sans-Serif" font-size="10.00">leaf_node.hpp</text>
</a>
</g>
</g>
<!-- Node29&#45;&gt;Node31 -->
<g id="edge30" class="edge">
<title>Node29&#45;&gt;Node31</title>
<path fill="none" stroke="midnightblue" d="M2017.63,-72.87C1986.91,-61.52 1932.76,-41.52 1897.9,-28.65"/>
<polygon fill="midnightblue" stroke="midnightblue" points="1898.78,-25.24 1888.19,-25.06 1896.36,-31.81 1898.78,-25.24"/>
</g>
<!-- Node32 -->
<g id="node32" class="node">
<title>Node32</title>
<g id="a_node32"><a xlink:href="parallel__copy_8hpp.html" target="_top" xlink:title="This file contains the ParallelCopy struct which is used to allocate the partial result of the right&#45;...">
<polygon fill="none" stroke="black" points="1926.5,-6 1926.5,-25 2027.5,-25 2027.5,-6 1926.5,-6"/>
<text text-anchor="middle" x="1977" y="-13" font-family="Helvetica,sans-Serif" font-size="10.00">parallel_copy.hpp</text>
</a>
</g>
</g>
<!-- Node29&#45;&gt;Node32 -->
<g id="edge31" class="edge">
<title>Node29&#45;&gt;Node32</title>
<path fill="none" stroke="midnightblue" d="M2032.37,-72.73C2022.2,-62.4 2005.1,-45.04 1992.59,-32.33"/>
<polygon fill="midnightblue" stroke="midnightblue" points="1995,-29.8 1985.49,-25.13 1990.02,-34.71 1995,-29.8"/>
</g>
<!-- Node33 -->
<g id="node33" class="node">
<title>Node33</title>
<g id="a_node33"><a xlink:href="resizable__binary_8hpp.html" target="_top" xlink:title="This file contains RBiOP (Binary Operation) struct which is used to apply Binary Operation on left ha...">
<polygon fill="none" stroke="black" points="2046,-6 2046,-25 2162,-25 2162,-6 2046,-6"/>
<text text-anchor="middle" x="2104" y="-13" font-family="Helvetica,sans-Serif" font-size="10.00">resizable_binary.hpp</text>
</a>
</g>
</g>
<!-- Node29&#45;&gt;Node33 -->
<g id="edge32" class="edge">
<title>Node29&#45;&gt;Node33</title>
<path fill="none" stroke="midnightblue" d="M2049.5,-72.73C2059.51,-62.4 2076.34,-45.04 2088.66,-32.33"/>
<polygon fill="midnightblue" stroke="midnightblue" points="2091.19,-34.74 2095.64,-25.13 2086.17,-29.87 2091.19,-34.74"/>
</g>
<!-- Node34 -->
<g id="node34" class="node">
<title>Node34</title>
<g id="a_node34"><a xlink:href="resizable__unary_8hpp.html" target="_top" xlink:title="This file contains RUnOP (Unary Operation) struct which is used to apply Unary Operation on the right...">
<polygon fill="none" stroke="black" points="2180.5,-6 2180.5,-25 2293.5,-25 2293.5,-6 2180.5,-6"/>
<text text-anchor="middle" x="2237" y="-13" font-family="Helvetica,sans-Serif" font-size="10.00">resizable_unary.hpp</text>
</a>
</g>
</g>
<!-- Node29&#45;&gt;Node34 -->
<g id="edge33" class="edge">
<title>Node29&#45;&gt;Node34</title>
<path fill="none" stroke="midnightblue" d="M2067.03,-72.87C2101.54,-61.42 2162.58,-41.18 2201.35,-28.32"/>
<polygon fill="midnightblue" stroke="midnightblue" points="2202.79,-31.53 2211.18,-25.06 2200.58,-24.89 2202.79,-31.53"/>
</g>
<!-- Node36 -->
<g id="node36" class="node">
<title>Node36</title>
<g id="a_node36"><a xlink:href="pyramid__mem_8hpp.html" target="_top" xlink:title="This file is used to create a pyramid output memory when the auto generate output memory is selected....">
<polygon fill="none" stroke="black" points="2311.5,-6 2311.5,-25 2420.5,-25 2420.5,-6 2311.5,-6"/>
<text text-anchor="middle" x="2366" y="-13" font-family="Helvetica,sans-Serif" font-size="10.00">pyramid_mem.hpp</text>
</a>
</g>
</g>
<!-- Node35&#45;&gt;Node36 -->
<g id="edge35" class="edge">
<title>Node35&#45;&gt;Node36</title>
<path fill="none" stroke="midnightblue" d="M2422.38,-67.4C2410.82,-56.96 2395.08,-42.75 2383.17,-32"/>
<polygon fill="midnightblue" stroke="midnightblue" points="2385.4,-29.3 2375.63,-25.19 2380.71,-34.49 2385.4,-29.3"/>
</g>
<!-- Node37 -->
<g id="node37" class="node">
<title>Node37</title>
<g id="a_node37"><a xlink:href="pyramid__with__auto__mem__gen_8hpp.html" target="_top" xlink:title="This file contains the construction of the pyramid node where a user can pass general filter2d functo...">
<polygon fill="none" stroke="black" points="2438.5,-0.5 2438.5,-30.5 2579.5,-30.5 2579.5,-0.5 2438.5,-0.5"/>
<text text-anchor="start" x="2446.5" y="-18.5" font-family="Helvetica,sans-Serif" font-size="10.00">pyramid_with_auto_mem</text>
<text text-anchor="middle" x="2509" y="-7.5" font-family="Helvetica,sans-Serif" font-size="10.00">_gen.hpp</text>
</a>
</g>
</g>
<!-- Node35&#45;&gt;Node37 -->
<g id="edge36" class="edge">
<title>Node35&#45;&gt;Node37</title>
<path fill="none" stroke="midnightblue" d="M2453.41,-67.4C2462.99,-58.62 2475.49,-47.18 2486.2,-37.37"/>
<polygon fill="midnightblue" stroke="midnightblue" points="2488.61,-39.91 2493.62,-30.58 2483.88,-34.75 2488.61,-39.91"/>
</g>
<!-- Node38 -->
<g id="node38" class="node">
<title>Node38</title>
<g id="a_node38"><a xlink:href="pyramid__with__auto__mem__sep_8hpp.html" target="_top" xlink:title="This file contains the construction of the pyramid node where a user can pass separable filter2d func...">
<polygon fill="none" stroke="black" points="2597.5,-0.5 2597.5,-30.5 2738.5,-30.5 2738.5,-0.5 2597.5,-0.5"/>
<text text-anchor="start" x="2605.5" y="-18.5" font-family="Helvetica,sans-Serif" font-size="10.00">pyramid_with_auto_mem</text>
<text text-anchor="middle" x="2668" y="-7.5" font-family="Helvetica,sans-Serif" font-size="10.00">_sep.hpp</text>
</a>
</g>
</g>
<!-- Node35&#45;&gt;Node38 -->
<g id="edge37" class="edge">
<title>Node35&#45;&gt;Node38</title>
<path fill="none" stroke="midnightblue" d="M2487.62,-67.48C2523.02,-57.47 2570.79,-43.97 2608.28,-33.38"/>
<polygon fill="midnightblue" stroke="midnightblue" points="2609.4,-36.7 2618.07,-30.61 2607.49,-29.96 2609.4,-36.7"/>
</g>
<!-- Node40 -->
<g id="node40" class="node">
<title>Node40</title>
<g id="a_node40"><a xlink:href="eval__assign_8hpp.html" target="_top" xlink:title="This file contains the specialisation of the Evaluator struct for assign when it is a root struct.">
<polygon fill="none" stroke="black" points="2731,-73 2731,-92 2887,-92 2887,-73 2731,-73"/>
<text text-anchor="middle" x="2809" y="-80" font-family="Helvetica,sans-Serif" font-size="10.00">eval_assign/eval_assign.hpp</text>
</a>
</g>
</g>
<!-- Node39&#45;&gt;Node40 -->
<g id="edge39" class="edge">
<title>Node39&#45;&gt;Node40</title>
<path fill="none" stroke="midnightblue" d="M2951.22,-139.87C2922.72,-128.57 2872.57,-108.7 2840.08,-95.82"/>
<polygon fill="midnightblue" stroke="midnightblue" points="2841.19,-92.49 2830.61,-92.06 2838.61,-99 2841.19,-92.49"/>
</g>
<!-- Node41 -->
<g id="node41" class="node">
<title>Node41</title>
<g id="a_node41"><a xlink:href="eval__assign__partial_8hpp.html" target="_top" xlink:title=" ">
<polygon fill="none" stroke="black" points="2905.5,-67.5 2905.5,-97.5 3040.5,-97.5 3040.5,-67.5 2905.5,-67.5"/>
<text text-anchor="start" x="2913.5" y="-85.5" font-family="Helvetica,sans-Serif" font-size="10.00">eval_assign/eval_assign</text>
<text text-anchor="middle" x="2973" y="-74.5" font-family="Helvetica,sans-Serif" font-size="10.00">_partial.hpp</text>
</a>
</g>
</g>
<!-- Node39&#45;&gt;Node41 -->
<g id="edge40" class="edge">
<title>Node39&#45;&gt;Node41</title>
<path fill="none" stroke="midnightblue" d="M2973,-139.73C2973,-131.54 2973,-118.92 2973,-107.71"/>
<polygon fill="midnightblue" stroke="midnightblue" points="2976.5,-107.59 2973,-97.59 2969.5,-107.59 2976.5,-107.59"/>
</g>
<!-- Node42 -->
<g id="node42" class="node">
<title>Node42</title>
<g id="a_node42"><a xlink:href="eval__expression_8hpp.html" target="_top" xlink:title="This file contains a collection of headers that required for eval_expression.">
<polygon fill="none" stroke="black" points="3059,-67.5 3059,-97.5 3179,-97.5 3179,-67.5 3059,-67.5"/>
<text text-anchor="start" x="3067" y="-85.5" font-family="Helvetica,sans-Serif" font-size="10.00">eval_expression/eval</text>
<text text-anchor="middle" x="3119" y="-74.5" font-family="Helvetica,sans-Serif" font-size="10.00">_expression.hpp</text>
</a>
</g>
</g>
<!-- Node39&#45;&gt;Node42 -->
<g id="edge41" class="edge">
<title>Node39&#45;&gt;Node42</title>
<path fill="none" stroke="midnightblue" d="M2992.39,-139.87C3014.2,-130.16 3050.25,-114.11 3078.31,-101.61"/>
<polygon fill="midnightblue" stroke="midnightblue" points="3079.78,-104.79 3087.49,-97.53 3076.93,-98.4 3079.78,-104.79"/>
</g>
<!-- Node50 -->
<g id="node50" class="node">
<title>Node50</title>
<g id="a_node50"><a xlink:href="square__pattern_8hpp.html" target="_top" xlink:title="this file contains the partial specialisation of the Fill for LeafNode">
<polygon fill="none" stroke="black" points="3197,-67.5 3197,-97.5 3311,-97.5 3311,-67.5 3197,-67.5"/>
<text text-anchor="start" x="3205" y="-85.5" font-family="Helvetica,sans-Serif" font-size="10.00">load_pattern/square</text>
<text text-anchor="middle" x="3254" y="-74.5" font-family="Helvetica,sans-Serif" font-size="10.00">_pattern.hpp</text>
</a>
</g>
</g>
<!-- Node39&#45;&gt;Node50 -->
<g id="edge49" class="edge">
<title>Node39&#45;&gt;Node50</title>
<path fill="none" stroke="midnightblue" d="M3010.02,-139.94C3054.92,-129.55 3131.45,-111.85 3186.84,-99.04"/>
<polygon fill="midnightblue" stroke="midnightblue" points="3187.97,-102.37 3196.92,-96.7 3186.39,-95.55 3187.97,-102.37"/>
</g>
<!-- Node43 -->
<g id="node43" class="node">
<title>Node43</title>
<g id="a_node43"><a xlink:href="eval__expr__assign_8hpp.html" target="_top" xlink:title=" ">
<polygon fill="none" stroke="black" points="2757,-6 2757,-25 2879,-25 2879,-6 2757,-6"/>
<text text-anchor="middle" x="2818" y="-13" font-family="Helvetica,sans-Serif" font-size="10.00">eval_expr_assign.hpp</text>
</a>
</g>
</g>
<!-- Node42&#45;&gt;Node43 -->
<g id="edge42" class="edge">
<title>Node42&#45;&gt;Node43</title>
<path fill="none" stroke="midnightblue" d="M3058.81,-68.5C3002.68,-56.38 2919.95,-38.52 2867.54,-27.2"/>
<polygon fill="midnightblue" stroke="midnightblue" points="2867.99,-23.71 2857.47,-25.02 2866.51,-30.56 2867.99,-23.71"/>
</g>
<!-- Node44 -->
<g id="node44" class="node">
<title>Node44</title>
<g id="a_node44"><a xlink:href="eval__expr__leaf__node_8hpp.html" target="_top" xlink:title="This file contains the specialisation of the EvalExpr for LeafNode.">
<polygon fill="none" stroke="black" points="2897.5,-6 2897.5,-25 3036.5,-25 3036.5,-6 2897.5,-6"/>
<text text-anchor="middle" x="2967" y="-13" font-family="Helvetica,sans-Serif" font-size="10.00">eval_expr_leaf_node.hpp</text>
</a>
</g>
</g>
<!-- Node42&#45;&gt;Node44 -->
<g id="edge43" class="edge">
<title>Node42&#45;&gt;Node44</title>
<path fill="none" stroke="midnightblue" d="M3086.02,-67.4C3059.23,-55.94 3021.81,-39.94 2996.12,-28.95"/>
<polygon fill="midnightblue" stroke="midnightblue" points="2997.46,-25.72 2986.89,-25.01 2994.71,-32.16 2997.46,-25.72"/>
</g>
<!-- Node45 -->
<g id="node45" class="node">
<title>Node45</title>
<g id="a_node45"><a xlink:href="eval__expr__r__binary_8hpp.html" target="_top" xlink:title="This file contains the specialisation of the EvalExpr for RBiOP( pointwise Binary operation node).">
<polygon fill="none" stroke="black" points="3054.5,-6 3054.5,-25 3183.5,-25 3183.5,-6 3054.5,-6"/>
<text text-anchor="middle" x="3119" y="-13" font-family="Helvetica,sans-Serif" font-size="10.00">eval_expr_r_binary.hpp</text>
</a>
</g>
</g>
<!-- Node42&#45;&gt;Node45 -->
<g id="edge44" class="edge">
<title>Node42&#45;&gt;Node45</title>
<path fill="none" stroke="midnightblue" d="M3119,-67.4C3119,-58.06 3119,-45.71 3119,-35.52"/>
<polygon fill="midnightblue" stroke="midnightblue" points="3122.5,-35.19 3119,-25.19 3115.5,-35.19 3122.5,-35.19"/>
</g>
<!-- Node46 -->
<g id="node46" class="node">
<title>Node46</title>
<g id="a_node46"><a xlink:href="eval__expr__r__unary_8hpp.html" target="_top" xlink:title="This file contains the specialisation of the EvalExpr for RUnOP( pointwise Unary operation node).">
<polygon fill="none" stroke="black" points="3202,-6 3202,-25 3328,-25 3328,-6 3202,-6"/>
<text text-anchor="middle" x="3265" y="-13" font-family="Helvetica,sans-Serif" font-size="10.00">eval_expr_r_unary.hpp</text>
</a>
</g>
</g>
<!-- Node42&#45;&gt;Node46 -->
<g id="edge45" class="edge">
<title>Node42&#45;&gt;Node46</title>
<path fill="none" stroke="midnightblue" d="M3150.68,-67.4C3176.3,-55.99 3212.04,-40.08 3236.7,-29.1"/>
<polygon fill="midnightblue" stroke="midnightblue" points="3238.18,-32.27 3245.89,-25.01 3235.33,-25.88 3238.18,-32.27"/>
</g>
<!-- Node47 -->
<g id="node47" class="node">
<title>Node47</title>
<g id="a_node47"><a xlink:href="eval__expr__reduction_8hpp.html" target="_top" xlink:title="This file contains the specialisation of the EvalExpr for RDCN( reduction operation node).">
<polygon fill="none" stroke="black" points="3346.5,-6 3346.5,-25 3483.5,-25 3483.5,-6 3346.5,-6"/>
<text text-anchor="middle" x="3415" y="-13" font-family="Helvetica,sans-Serif" font-size="10.00">eval_expr_reduction.hpp</text>
</a>
</g>
</g>
<!-- Node42&#45;&gt;Node47 -->
<g id="edge46" class="edge">
<title>Node42&#45;&gt;Node47</title>
<path fill="none" stroke="midnightblue" d="M3179.26,-68.27C3234.4,-56.16 3314.99,-38.46 3366.2,-27.22"/>
<polygon fill="midnightblue" stroke="midnightblue" points="3367.02,-30.62 3376.04,-25.06 3365.52,-23.78 3367.02,-30.62"/>
</g>
<!-- Node48 -->
<g id="node48" class="node">
<title>Node48</title>
<g id="a_node48"><a xlink:href="eval__expr__stn__filt_8hpp.html" target="_top" xlink:title="This file contains the specialisation of the EvalExpr for StnFilt( stencil node with filter ).">
<polygon fill="none" stroke="black" points="3502,-6 3502,-25 3626,-25 3626,-6 3502,-6"/>
<text text-anchor="middle" x="3564" y="-13" font-family="Helvetica,sans-Serif" font-size="10.00">eval_expr_stn_filt.hpp</text>
</a>
</g>
</g>
<!-- Node42&#45;&gt;Node48 -->
<g id="edge47" class="edge">
<title>Node42&#45;&gt;Node48</title>
<path fill="none" stroke="midnightblue" d="M3179.15,-68.53C3182.14,-67.99 3185.1,-67.48 3188,-67 3322.26,-44.99 3357.65,-52.45 3492,-31 3499.35,-29.83 3507.1,-28.43 3514.68,-26.98"/>
<polygon fill="midnightblue" stroke="midnightblue" points="3515.35,-30.42 3524.49,-25.05 3514.01,-23.55 3515.35,-30.42"/>
</g>
<!-- Node49 -->
<g id="node49" class="node">
<title>Node49</title>
<g id="a_node49"><a xlink:href="eval__expr__stn__no__filt_8hpp.html" target="_top" xlink:title="This file contains the specialisation of the EvalExpr for StnFilt( stencil node without filter).">
<polygon fill="none" stroke="black" points="3644.5,-6 3644.5,-25 3785.5,-25 3785.5,-6 3644.5,-6"/>
<text text-anchor="middle" x="3715" y="-13" font-family="Helvetica,sans-Serif" font-size="10.00">eval_expr_stn_no_filt.hpp</text>
</a>
</g>
</g>
<!-- Node42&#45;&gt;Node49 -->
<g id="edge48" class="edge">
<title>Node42&#45;&gt;Node49</title>
<path fill="none" stroke="midnightblue" d="M3179.13,-68.4C3182.12,-67.89 3185.09,-67.42 3188,-67 3385.25,-38.45 3437.37,-56.8 3635,-31 3643.85,-29.84 3653.2,-28.38 3662.28,-26.82"/>
<polygon fill="midnightblue" stroke="midnightblue" points="3663.12,-30.22 3672.36,-25.04 3661.9,-23.33 3663.12,-30.22"/>
</g>
<!-- Node52 -->
<g id="node52" class="node">
<title>Node52</title>
<g id="a_node52"><a xlink:href="executor__subexpr__if__needed_8hpp.html" target="_top" xlink:title="This file contains required classes for break an expression tree into subexpression trees for particu...">
<polygon fill="none" stroke="black" points="3329.5,-67.5 3329.5,-97.5 3444.5,-97.5 3444.5,-67.5 3329.5,-67.5"/>
<text text-anchor="start" x="3337.5" y="-85.5" font-family="Helvetica,sans-Serif" font-size="10.00">executor_subexpr_if</text>
<text text-anchor="middle" x="3387" y="-74.5" font-family="Helvetica,sans-Serif" font-size="10.00">_needed.hpp</text>
</a>
</g>
</g>
<!-- Node51&#45;&gt;Node52 -->
<g id="edge51" class="edge">
<title>Node51&#45;&gt;Node52</title>
<path fill="none" stroke="midnightblue" d="M3438.91,-139.73C3430.72,-130.86 3417.75,-116.81 3406.82,-104.97"/>
<polygon fill="midnightblue" stroke="midnightblue" points="3409.36,-102.56 3400.01,-97.59 3404.22,-107.31 3409.36,-102.56"/>
</g>
<!-- Node53 -->
<g id="node53" class="node">
<title>Node53</title>
<g id="a_node53"><a xlink:href="fuse_8hpp.html" target="_top" xlink:title="This file contains the specialisation of the FuseExpr for terminal and non&#45;terminal nodes.">
<polygon fill="none" stroke="black" points="3462.5,-73 3462.5,-92 3553.5,-92 3553.5,-73 3462.5,-73"/>
<text text-anchor="middle" x="3508" y="-80" font-family="Helvetica,sans-Serif" font-size="10.00">policy/fuse.hpp</text>
</a>
</g>
</g>
<!-- Node51&#45;&gt;Node53 -->
<g id="edge52" class="edge">
<title>Node51&#45;&gt;Node53</title>
<path fill="none" stroke="midnightblue" d="M3455.23,-139.73C3464.83,-129.5 3480.91,-112.36 3492.8,-99.69"/>
<polygon fill="midnightblue" stroke="midnightblue" points="3495.61,-101.81 3499.9,-92.13 3490.51,-97.02 3495.61,-101.81"/>
</g>
<!-- Node54 -->
<g id="node54" class="node">
<title>Node54</title>
<g id="a_node54"><a xlink:href="nofuse_8hpp.html" target="_top" xlink:title="This file contains the specialisation of the NoFuseExpr for different nodes.">
<polygon fill="none" stroke="black" points="3571.5,-73 3571.5,-92 3674.5,-92 3674.5,-73 3571.5,-73"/>
<text text-anchor="middle" x="3623" y="-80" font-family="Helvetica,sans-Serif" font-size="10.00">policy/nofuse.hpp</text>
</a>
</g>
</g>
<!-- Node51&#45;&gt;Node54 -->
<g id="edge53" class="edge">
<title>Node51&#45;&gt;Node54</title>
<path fill="none" stroke="midnightblue" d="M3470.37,-139.87C3501.09,-128.52 3555.24,-108.52 3590.1,-95.65"/>
<polygon fill="midnightblue" stroke="midnightblue" points="3591.64,-98.81 3599.81,-92.06 3589.22,-92.24 3591.64,-98.81"/>
</g>
<!-- Node56 -->
<g id="node56" class="node">
<title>Node56</title>
<g id="a_node56"><a xlink:href="sycl_2device_8hpp.html" target="_top" xlink:title="This file contains the include headers for sycl devices.">
<polygon fill="none" stroke="black" points="3820,-73 3820,-92 3912,-92 3912,-73 3820,-73"/>
<text text-anchor="middle" x="3866" y="-80" font-family="Helvetica,sans-Serif" font-size="10.00">sycl/device.hpp</text>
</a>
</g>
</g>
<!-- Node55&#45;&gt;Node56 -->
<g id="edge55" class="edge">
<title>Node55&#45;&gt;Node56</title>
<path fill="none" stroke="midnightblue" d="M3768.24,-139.73C3787.22,-128.82 3819.85,-110.05 3842.15,-97.22"/>
<polygon fill="midnightblue" stroke="midnightblue" points="3844.08,-100.15 3851,-92.13 3840.59,-94.08 3844.08,-100.15"/>
</g>
<!-- Node57 -->
<g id="node57" class="node">
<title>Node57</title>
<g id="a_node57"><a xlink:href="extract__accessors_8hpp.html" target="_top" xlink:title="This files is used to provide an access mechanism for terminal nodes on the device.">
<polygon fill="none" stroke="black" points="3803.5,-6 3803.5,-25 3928.5,-25 3928.5,-6 3803.5,-6"/>
<text text-anchor="middle" x="3866" y="-13" font-family="Helvetica,sans-Serif" font-size="10.00">extract_accessors.hpp</text>
</a>
</g>
</g>
<!-- Node56&#45;&gt;Node57 -->
<g id="edge56" class="edge">
<title>Node56&#45;&gt;Node57</title>
<path fill="none" stroke="midnightblue" d="M3866,-72.73C3866,-63.18 3866,-47.62 3866,-35.28"/>
<polygon fill="midnightblue" stroke="midnightblue" points="3869.5,-35.13 3866,-25.13 3862.5,-35.13 3869.5,-35.13"/>
</g>
<!-- Node58 -->
<g id="node58" class="node">
<title>Node58</title>
<g id="a_node58"><a xlink:href="sycl__device_8hpp.html" target="_top" xlink:title="This fill contains features related to sycl devices.">
<polygon fill="none" stroke="black" points="3946.5,-6 3946.5,-25 4041.5,-25 4041.5,-6 3946.5,-6"/>
<text text-anchor="middle" x="3994" y="-13" font-family="Helvetica,sans-Serif" font-size="10.00">sycl_device.hpp</text>
</a>
</g>
</g>
<!-- Node56&#45;&gt;Node58 -->
<g id="edge57" class="edge">
<title>Node56&#45;&gt;Node58</title>
<path fill="none" stroke="midnightblue" d="M3883,-72.87C3904.71,-61.84 3942.49,-42.66 3967.87,-29.77"/>
<polygon fill="midnightblue" stroke="midnightblue" points="3969.6,-32.82 3976.93,-25.17 3966.43,-26.57 3969.6,-32.82"/>
</g>
</g>
</svg>
