<?xml version="1.0" encoding="UTF-8" standalone="no"?>
<!DOCTYPE svg PUBLIC "-//W3C//DTD SVG 1.1//EN"
 "http://www.w3.org/Graphics/SVG/1.1/DTD/svg11.dtd">
<!-- Generated by graphviz version 2.43.0 (0)
 -->
<!-- Title: local_mem_count.hpp Pages: 1 -->
<svg width="132pt" height="196pt"
 viewBox="0.00 0.00 132.00 196.00" xmlns="http://www.w3.org/2000/svg" xmlns:xlink="http://www.w3.org/1999/xlink">
<g id="graph0" class="graph" transform="scale(1 1) rotate(0) translate(4 192)">
<title>local_mem_count.hpp</title>
<!-- Node1 -->
<g id="node1" class="node">
<title>Node1</title>
<g id="a_node1"><a xlink:title="LocalmemCount used to counting terminal nodes.">
<polygon fill="#bfbfbf" stroke="black" points="0,-168.5 0,-187.5 124,-187.5 124,-168.5 0,-168.5"/>
<text text-anchor="middle" x="62" y="-175.5" font-family="Helvetica,sans-Serif" font-size="10.00">local_mem_count.hpp</text>
</a>
</g>
</g>
<!-- Node2 -->
<g id="node2" class="node">
<title>Node2</title>
<g id="a_node2"><a xlink:href="expr__convertor_8hpp.html" target="_top" xlink:title="this is used to replace the leaf node with a PlaceHolder node.">
<polygon fill="none" stroke="black" points="7,-112.5 7,-131.5 117,-131.5 117,-112.5 7,-112.5"/>
<text text-anchor="middle" x="62" y="-119.5" font-family="Helvetica,sans-Serif" font-size="10.00">expr_convertor.hpp</text>
</a>
</g>
</g>
<!-- Node1&#45;&gt;Node2 -->
<g id="edge1" class="edge">
<title>Node1&#45;&gt;Node2</title>
<path fill="none" stroke="midnightblue" d="M62,-157.8C62,-148.91 62,-138.78 62,-131.75"/>
<polygon fill="midnightblue" stroke="midnightblue" points="58.5,-158.08 62,-168.08 65.5,-158.08 58.5,-158.08"/>
</g>
<!-- Node3 -->
<g id="node3" class="node">
<title>Node3</title>
<g id="a_node3"><a xlink:href="framework_8hpp.html" target="_top" xlink:title="Collection of VisionCpp framework headers.">
<polygon fill="none" stroke="black" points="16.5,-56.5 16.5,-75.5 107.5,-75.5 107.5,-56.5 16.5,-56.5"/>
<text text-anchor="middle" x="62" y="-63.5" font-family="Helvetica,sans-Serif" font-size="10.00">framework.hpp</text>
</a>
</g>
</g>
<!-- Node2&#45;&gt;Node3 -->
<g id="edge2" class="edge">
<title>Node2&#45;&gt;Node3</title>
<path fill="none" stroke="midnightblue" d="M62,-101.8C62,-92.91 62,-82.78 62,-75.75"/>
<polygon fill="midnightblue" stroke="midnightblue" points="58.5,-102.08 62,-112.08 65.5,-102.08 58.5,-102.08"/>
</g>
<!-- Node4 -->
<g id="node4" class="node">
<title>Node4</title>
<g id="a_node4"><a xlink:href="visioncpp_8hpp.html" target="_top" xlink:title="This file is collection of headers that makes VisionCpp library.">
<polygon fill="none" stroke="black" points="20,-0.5 20,-19.5 104,-19.5 104,-0.5 20,-0.5"/>
<text text-anchor="middle" x="62" y="-7.5" font-family="Helvetica,sans-Serif" font-size="10.00">visioncpp.hpp</text>
</a>
</g>
</g>
<!-- Node3&#45;&gt;Node4 -->
<g id="edge3" class="edge">
<title>Node3&#45;&gt;Node4</title>
<path fill="none" stroke="midnightblue" d="M62,-45.8C62,-36.91 62,-26.78 62,-19.75"/>
<polygon fill="midnightblue" stroke="midnightblue" points="58.5,-46.08 62,-56.08 65.5,-46.08 58.5,-46.08"/>
</g>
</g>
</svg>
