<?xml version="1.0" encoding="UTF-8" standalone="no"?>
<!DOCTYPE svg PUBLIC "-//W3C//DTD SVG 1.1//EN"
 "http://www.w3.org/Graphics/SVG/1.1/DTD/svg11.dtd">
<!-- Generated by graphviz version 2.36.0 (20140111.2315)
 -->
<!-- Title: memory.hpp Pages: 1 -->
<svg width="602pt" height="152pt"
 viewBox="0.00 0.00 602.00 152.00" xmlns="http://www.w3.org/2000/svg" xmlns:xlink="http://www.w3.org/1999/xlink">
<g id="graph0" class="graph" transform="scale(1 1) rotate(0) translate(4 148)">
<title>memory.hpp</title>
<!-- Node1 -->
<g id="node1" class="node"><title>Node1</title>
<polygon fill="#bfbfbf" stroke="black" points="212.5,-124.5 212.5,-143.5 283.5,-143.5 283.5,-124.5 212.5,-124.5"/>
<text text-anchor="middle" x="248" y="-131.5" font-family="Helvetica,sans-Serif" font-size="10.00">memory.hpp</text>
</g>
<!-- Node2 -->
<g id="node2" class="node"><title>Node2</title>
<g id="a_node2"><a xlink:href="mem__const_8hpp.html" target="_top" xlink:title="specialisations of SyclMem type when we are passing constant variable to the device. ">
<polygon fill="none" stroke="black" points="0,-62.5 0,-81.5 86,-81.5 86,-62.5 0,-62.5"/>
<text text-anchor="middle" x="43" y="-69.5" font-family="Helvetica,sans-Serif" font-size="10.00">mem_const.hpp</text>
</a>
</g>
</g>
<!-- Node1&#45;&gt;Node2 -->
<g id="edge1" class="edge"><title>Node1&#45;&gt;Node2</title>
<path fill="none" stroke="midnightblue" d="M218.628,-124.403C182.703,-113.889 121.768,-96.0539 81.9555,-84.4016"/>
<polygon fill="midnightblue" stroke="midnightblue" points="82.8976,-81.0306 72.317,-81.5806 80.9312,-87.7487 82.8976,-81.0306"/>
</g>
<!-- Node3 -->
<g id="node3" class="node"><title>Node3</title>
<g id="a_node3"><a xlink:href="mem__prop_8hpp.html" target="_top" xlink:title="Series of pixel convert functions. ">
<polygon fill="none" stroke="black" points="104.5,-62.5 104.5,-81.5 185.5,-81.5 185.5,-62.5 104.5,-62.5"/>
<text text-anchor="middle" x="145" y="-69.5" font-family="Helvetica,sans-Serif" font-size="10.00">mem_prop.hpp</text>
</a>
</g>
</g>
<!-- Node1&#45;&gt;Node3 -->
<g id="edge2" class="edge"><title>Node1&#45;&gt;Node3</title>
<path fill="none" stroke="midnightblue" d="M233.243,-124.403C216.339,-114.557 188.417,-98.2915 168.51,-86.6949"/>
<polygon fill="midnightblue" stroke="midnightblue" points="170.133,-83.5898 159.73,-81.5806 166.609,-89.6384 170.133,-83.5898"/>
</g>
<!-- Node4 -->
<g id="node4" class="node"><title>Node4</title>
<g id="a_node4"><a xlink:href="mem__virtual_8hpp.html" target="_top" xlink:title="This file contains the VirtualMemory struct. ">
<polygon fill="none" stroke="black" points="203.5,-62.5 203.5,-81.5 292.5,-81.5 292.5,-62.5 203.5,-62.5"/>
<text text-anchor="middle" x="248" y="-69.5" font-family="Helvetica,sans-Serif" font-size="10.00">mem_virtual.hpp</text>
</a>
</g>
</g>
<!-- Node1&#45;&gt;Node4 -->
<g id="edge3" class="edge"><title>Node1&#45;&gt;Node4</title>
<path fill="none" stroke="midnightblue" d="M248,-124.403C248,-115.938 248,-102.728 248,-91.8199"/>
<polygon fill="midnightblue" stroke="midnightblue" points="251.5,-91.5806 248,-81.5806 244.5,-91.5806 251.5,-91.5806"/>
</g>
<!-- Node5 -->
<g id="node5" class="node"><title>Node5</title>
<g id="a_node5"><a xlink:href="mem__vision_8hpp.html" target="_top" xlink:title="this file contains the memory struct used to store {Sycl buffer , Host pointer or Sycl image}...">
<polygon fill="none" stroke="black" points="310,-62.5 310,-81.5 398,-81.5 398,-62.5 310,-62.5"/>
<text text-anchor="middle" x="354" y="-69.5" font-family="Helvetica,sans-Serif" font-size="10.00">mem_vision.hpp</text>
</a>
</g>
</g>
<!-- Node1&#45;&gt;Node5 -->
<g id="edge4" class="edge"><title>Node1&#45;&gt;Node5</title>
<path fill="none" stroke="midnightblue" d="M263.187,-124.403C280.662,-114.512 309.579,-98.1442 330.083,-86.5378"/>
<polygon fill="midnightblue" stroke="midnightblue" points="331.862,-89.5525 338.841,-81.5806 328.414,-83.4607 331.862,-89.5525"/>
</g>
<!-- Node6 -->
<g id="node6" class="node"><title>Node6</title>
<g id="a_node6"><a xlink:href="memory__access_8hpp.html" target="_top" xlink:title="this file contains a set of forward declarations and include headers required for constructing and ac...">
<polygon fill="none" stroke="black" points="416.5,-57 416.5,-87 543.5,-87 543.5,-57 416.5,-57"/>
<text text-anchor="start" x="424.5" y="-75" font-family="Helvetica,sans-Serif" font-size="10.00">memory_access/memory</text>
<text text-anchor="middle" x="480" y="-64" font-family="Helvetica,sans-Serif" font-size="10.00">_access.hpp</text>
</a>
</g>
</g>
<!-- Node1&#45;&gt;Node6 -->
<g id="edge5" class="edge"><title>Node1&#45;&gt;Node6</title>
<path fill="none" stroke="midnightblue" d="M281.24,-124.403C316.301,-115.336 372.411,-100.825 416.087,-89.5292"/>
<polygon fill="midnightblue" stroke="midnightblue" points="416.964,-92.9177 425.769,-87.0253 415.211,-86.1407 416.964,-92.9177"/>
</g>
<!-- Node7 -->
<g id="node7" class="node"><title>Node7</title>
<g id="a_node7"><a xlink:href="mem__coordinate_8hpp.html" target="_top" xlink:title="This files contains the Coordinate struct which is used to specify local/global offset for local/glob...">
<polygon fill="none" stroke="black" points="364.5,-0.5 364.5,-19.5 471.5,-19.5 471.5,-0.5 364.5,-0.5"/>
<text text-anchor="middle" x="418" y="-7.5" font-family="Helvetica,sans-Serif" font-size="10.00">mem_coordinate.hpp</text>
</a>
</g>
</g>
<!-- Node6&#45;&gt;Node7 -->
<g id="edge6" class="edge"><title>Node6&#45;&gt;Node7</title>
<path fill="none" stroke="midnightblue" d="M465.307,-56.7808C456.019,-47.7925 444.001,-36.162 434.402,-26.8731"/>
<polygon fill="midnightblue" stroke="midnightblue" points="436.642,-24.1697 427.022,-19.7305 431.774,-29.1999 436.642,-24.1697"/>
</g>
<!-- Node8 -->
<g id="node8" class="node"><title>Node8</title>
<g id="a_node8"><a xlink:href="mem__neighbour_8hpp.html" target="_top" xlink:title="this file contains different types of memory required for executing neighbour operation to calculate ...">
<polygon fill="none" stroke="black" points="490,-0.5 490,-19.5 594,-19.5 594,-0.5 490,-0.5"/>
<text text-anchor="middle" x="542" y="-7.5" font-family="Helvetica,sans-Serif" font-size="10.00">mem_neighbour.hpp</text>
</a>
</g>
</g>
<!-- Node6&#45;&gt;Node8 -->
<g id="edge7" class="edge"><title>Node6&#45;&gt;Node8</title>
<path fill="none" stroke="midnightblue" d="M494.693,-56.7808C503.981,-47.7925 515.999,-36.162 525.598,-26.8731"/>
<polygon fill="midnightblue" stroke="midnightblue" points="528.226,-29.1999 532.978,-19.7305 523.358,-24.1697 528.226,-29.1999"/>
</g>
</g>
</svg>
