<?xml version="1.0" encoding="UTF-8" standalone="no"?>
<!DOCTYPE svg PUBLIC "-//W3C//DTD SVG 1.1//EN"
 "http://www.w3.org/Graphics/SVG/1.1/DTD/svg11.dtd">
<!-- Generated by graphviz version 2.43.0 (0)
 -->
<!-- Title: memory.hpp Pages: 1 -->
<svg width="660pt" height="151pt"
 viewBox="0.00 0.00 659.50 151.00" xmlns="http://www.w3.org/2000/svg" xmlns:xlink="http://www.w3.org/1999/xlink">
<g id="graph0" class="graph" transform="scale(1 1) rotate(0) translate(4 147)">
<title>memory.hpp</title>
<!-- Node1 -->
<g id="node1" class="node">
<title>Node1</title>
<g id="a_node1"><a xlink:title="this file contains a set of forward declarations and include headers required for constructing and ac...">
<polygon fill="#bfbfbf" stroke="black" points="233,-123.5 233,-142.5 310,-142.5 310,-123.5 233,-123.5"/>
<text text-anchor="middle" x="271.5" y="-130.5" font-family="Helvetica,sans-Serif" font-size="10.00">memory.hpp</text>
</a>
</g>
</g>
<!-- Node2 -->
<g id="node2" class="node">
<title>Node2</title>
<g id="a_node2"><a xlink:href="mem__const_8hpp.html" target="_top" xlink:title="specialisations of SyclMem type when we are passing constant variable to the device.">
<polygon fill="none" stroke="black" points="0,-62 0,-81 95,-81 95,-62 0,-62"/>
<text text-anchor="middle" x="47.5" y="-69" font-family="Helvetica,sans-Serif" font-size="10.00">mem_const.hpp</text>
</a>
</g>
</g>
<!-- Node1&#45;&gt;Node2 -->
<g id="edge1" class="edge">
<title>Node1&#45;&gt;Node2</title>
<path fill="none" stroke="midnightblue" d="M239.41,-123.48C199.9,-112.98 132.72,-95.14 89.24,-83.59"/>
<polygon fill="midnightblue" stroke="midnightblue" points="90.1,-80.19 79.53,-81.01 88.3,-86.96 90.1,-80.19"/>
</g>
<!-- Node3 -->
<g id="node3" class="node">
<title>Node3</title>
<g id="a_node3"><a xlink:href="mem__prop_8hpp.html" target="_top" xlink:title="Series of pixel convert functions.">
<polygon fill="none" stroke="black" points="113.5,-62 113.5,-81 203.5,-81 203.5,-62 113.5,-62"/>
<text text-anchor="middle" x="158.5" y="-69" font-family="Helvetica,sans-Serif" font-size="10.00">mem_prop.hpp</text>
</a>
</g>
</g>
<!-- Node1&#45;&gt;Node3 -->
<g id="edge2" class="edge">
<title>Node1&#45;&gt;Node3</title>
<path fill="none" stroke="midnightblue" d="M255.31,-123.48C236.6,-113.62 205.58,-97.29 183.7,-85.77"/>
<polygon fill="midnightblue" stroke="midnightblue" points="185.14,-82.57 174.66,-81.01 181.88,-88.77 185.14,-82.57"/>
</g>
<!-- Node4 -->
<g id="node4" class="node">
<title>Node4</title>
<g id="a_node4"><a xlink:href="mem__virtual_8hpp.html" target="_top" xlink:title="This file contains the VirtualMemory struct.">
<polygon fill="none" stroke="black" points="221.5,-62 221.5,-81 321.5,-81 321.5,-62 221.5,-62"/>
<text text-anchor="middle" x="271.5" y="-69" font-family="Helvetica,sans-Serif" font-size="10.00">mem_virtual.hpp</text>
</a>
</g>
</g>
<!-- Node1&#45;&gt;Node4 -->
<g id="edge3" class="edge">
<title>Node1&#45;&gt;Node4</title>
<path fill="none" stroke="midnightblue" d="M271.5,-123.48C271.5,-115.08 271.5,-101.98 271.5,-91.16"/>
<polygon fill="midnightblue" stroke="midnightblue" points="275,-91.01 271.5,-81.01 268,-91.01 275,-91.01"/>
</g>
<!-- Node5 -->
<g id="node5" class="node">
<title>Node5</title>
<g id="a_node5"><a xlink:href="mem__vision_8hpp.html" target="_top" xlink:title="this file contains the memory struct used to store {Sycl buffer , Host pointer or Sycl image}.">
<polygon fill="none" stroke="black" points="339.5,-62 339.5,-81 437.5,-81 437.5,-62 339.5,-62"/>
<text text-anchor="middle" x="388.5" y="-69" font-family="Helvetica,sans-Serif" font-size="10.00">mem_vision.hpp</text>
</a>
</g>
</g>
<!-- Node1&#45;&gt;Node5 -->
<g id="edge4" class="edge">
<title>Node1&#45;&gt;Node5</title>
<path fill="none" stroke="midnightblue" d="M288.26,-123.48C307.72,-113.58 340.05,-97.14 362.71,-85.62"/>
<polygon fill="midnightblue" stroke="midnightblue" points="364.44,-88.66 371.77,-81.01 361.27,-82.42 364.44,-88.66"/>
</g>
<!-- Node6 -->
<g id="node6" class="node">
<title>Node6</title>
<g id="a_node6"><a xlink:href="memory__access_8hpp.html" target="_top" xlink:title="this file contains a set of forward declarations and include headers required for constructing and ac...">
<polygon fill="none" stroke="black" points="455.5,-56.5 455.5,-86.5 595.5,-86.5 595.5,-56.5 455.5,-56.5"/>
<text text-anchor="start" x="463.5" y="-74.5" font-family="Helvetica,sans-Serif" font-size="10.00">memory_access/memory</text>
<text text-anchor="middle" x="525.5" y="-63.5" font-family="Helvetica,sans-Serif" font-size="10.00">_access.hpp</text>
</a>
</g>
</g>
<!-- Node1&#45;&gt;Node6 -->
<g id="edge5" class="edge">
<title>Node1&#45;&gt;Node6</title>
<path fill="none" stroke="midnightblue" d="M307.89,-123.48C346.31,-114.48 407.81,-100.07 455.65,-88.86"/>
<polygon fill="midnightblue" stroke="midnightblue" points="456.7,-92.21 465.64,-86.52 455.1,-85.4 456.7,-92.21"/>
</g>
<!-- Node7 -->
<g id="node7" class="node">
<title>Node7</title>
<g id="a_node7"><a xlink:href="mem__coordinate_8hpp.html" target="_top" xlink:title="This files contains the Coordinate struct which is used to specify local/global offset for local/glob...">
<polygon fill="none" stroke="black" points="397.5,-0.5 397.5,-19.5 517.5,-19.5 517.5,-0.5 397.5,-0.5"/>
<text text-anchor="middle" x="457.5" y="-7.5" font-family="Helvetica,sans-Serif" font-size="10.00">mem_coordinate.hpp</text>
</a>
</g>
</g>
<!-- Node6&#45;&gt;Node7 -->
<g id="edge6" class="edge">
<title>Node6&#45;&gt;Node7</title>
<path fill="none" stroke="midnightblue" d="M509.38,-56.4C499.1,-47.4 485.75,-35.72 475.17,-26.47"/>
<polygon fill="midnightblue" stroke="midnightblue" points="477.23,-23.61 467.39,-19.66 472.62,-28.88 477.23,-23.61"/>
</g>
<!-- Node8 -->
<g id="node8" class="node">
<title>Node8</title>
<g id="a_node8"><a xlink:href="mem__neighbour_8hpp.html" target="_top" xlink:title="this file contains different types of memory required for executing neighbour operation to calculate ...">
<polygon fill="none" stroke="black" points="535.5,-0.5 535.5,-19.5 651.5,-19.5 651.5,-0.5 535.5,-0.5"/>
<text text-anchor="middle" x="593.5" y="-7.5" font-family="Helvetica,sans-Serif" font-size="10.00">mem_neighbour.hpp</text>
</a>
</g>
</g>
<!-- Node6&#45;&gt;Node8 -->
<g id="edge7" class="edge">
<title>Node6&#45;&gt;Node8</title>
<path fill="none" stroke="midnightblue" d="M541.62,-56.4C551.9,-47.4 565.25,-35.72 575.83,-26.47"/>
<polygon fill="midnightblue" stroke="midnightblue" points="578.38,-28.88 583.61,-19.66 573.77,-23.61 578.38,-28.88"/>
</g>
</g>
</svg>
