<?xml version="1.0" encoding="UTF-8" standalone="no"?>
<!DOCTYPE svg PUBLIC "-//W3C//DTD SVG 1.1//EN"
 "http://www.w3.org/Graphics/SVG/1.1/DTD/svg11.dtd">
<!-- Generated by graphviz version 2.43.0 (0)
 -->
<!-- Title: visioncpp::internal::tools::tuple::append Pages: 1 -->
<svg width="485pt" height="39pt"
 viewBox="0.00 0.00 485.00 39.00" xmlns="http://www.w3.org/2000/svg" xmlns:xlink="http://www.w3.org/1999/xlink">
<g id="graph0" class="graph" transform="scale(1 1) rotate(0) translate(4 35)">
<title>visioncpp::internal::tools::tuple::append</title>
<!-- Node1 -->
<g id="node1" class="node">
<title>Node1</title>
<g id="a_node1"><a xlink:title="append">
<polygon fill="#bfbfbf" stroke="black" points="0,-0.5 0,-30.5 119,-30.5 119,-0.5 0,-0.5"/>
<text text-anchor="start" x="8" y="-18.5" font-family="Helvetica,sans-Serif" font-size="10.00">visioncpp::internal</text>
<text text-anchor="middle" x="59.5" y="-7.5" font-family="Helvetica,sans-Serif" font-size="10.00">::tools::tuple::append</text>
</a>
</g>
</g>
<!-- Node2 -->
<g id="node2" class="node">
<title>Node2</title>
<g id="a_node2"><a xlink:href="namespacevisioncpp_1_1internal_1_1tools_1_1tuple.html#a250b510103551795245a4f26c6472dc5" target="_top" xlink:title="append_impl">
<polygon fill="none" stroke="black" points="155,-0.5 155,-30.5 301,-30.5 301,-0.5 155,-0.5"/>
<text text-anchor="start" x="163" y="-18.5" font-family="Helvetica,sans-Serif" font-size="10.00">visioncpp::internal</text>
<text text-anchor="middle" x="228" y="-7.5" font-family="Helvetica,sans-Serif" font-size="10.00">::tools::tuple::append_impl</text>
</a>
</g>
</g>
<!-- Node1&#45;&gt;Node2 -->
<g id="edge1" class="edge">
<title>Node1&#45;&gt;Node2</title>
<path fill="none" stroke="midnightblue" d="M119.2,-15.5C127.48,-15.5 136.11,-15.5 144.73,-15.5"/>
<polygon fill="midnightblue" stroke="midnightblue" points="144.82,-19 154.82,-15.5 144.82,-12 144.82,-19"/>
</g>
<!-- Node3 -->
<g id="node3" class="node">
<title>Node3</title>
<g id="a_node3"><a xlink:href="namespacevisioncpp_1_1internal_1_1tools_1_1tuple.html#ab2c7fe8e219c5f9e016a8ea40356005f" target="_top" xlink:title="make_tuple">
<polygon fill="none" stroke="black" points="337,-0.5 337,-30.5 477,-30.5 477,-0.5 337,-0.5"/>
<text text-anchor="start" x="345" y="-18.5" font-family="Helvetica,sans-Serif" font-size="10.00">visioncpp::internal</text>
<text text-anchor="middle" x="407" y="-7.5" font-family="Helvetica,sans-Serif" font-size="10.00">::tools::tuple::make_tuple</text>
</a>
</g>
</g>
<!-- Node2&#45;&gt;Node3 -->
<g id="edge2" class="edge">
<title>Node2&#45;&gt;Node3</title>
<path fill="none" stroke="midnightblue" d="M301.25,-15.5C309.61,-15.5 318.17,-15.5 326.61,-15.5"/>
<polygon fill="midnightblue" stroke="midnightblue" points="326.84,-19 336.84,-15.5 326.84,-12 326.84,-19"/>
</g>
</g>
</svg>
