<?xml version="1.0" encoding="UTF-8" standalone="no"?>
<!DOCTYPE svg PUBLIC "-//W3C//DTD SVG 1.1//EN"
 "http://www.w3.org/Graphics/SVG/1.1/DTD/svg11.dtd">
<!-- Generated by graphviz version 2.36.0 (20140111.2315)
 -->
<!-- Title: visioncpp::internal::calculate_index Pages: 1 -->
<svg width="352pt" height="1315pt"
 viewBox="0.00 0.00 352.00 1315.00" xmlns="http://www.w3.org/2000/svg" xmlns:xlink="http://www.w3.org/1999/xlink">
<g id="graph0" class="graph" transform="scale(1 1) rotate(0) translate(4 1311)">
<title>visioncpp::internal::calculate_index</title>
<!-- Node1 -->
<g id="node1" class="node"><title>Node1</title>
<polygon fill="#bfbfbf" stroke="black" points="0.5,-678 0.5,-708 95.5,-708 95.5,-678 0.5,-678"/>
<text text-anchor="start" x="8.5" y="-696" font-family="Helvetica,sans-Serif" font-size="10.00">visioncpp::internal</text>
<text text-anchor="middle" x="48" y="-685" font-family="Helvetica,sans-Serif" font-size="10.00">::calculate_index</text>
</g>
<!-- Node2 -->
<g id="node2" class="node"><title>Node2</title>
<g id="a_node2"><a xlink:href="structvisioncpp_1_1internal_1_1LocalNeighbour.html#a767b29ff66023dd060cfd37528b5dc7f" target="_top" xlink:title="function at provides access to a specific Coordinate for a 2d buffer parameters: ">
<polygon fill="none" stroke="black" points="167,-1277 167,-1307 309,-1307 309,-1277 167,-1277"/>
<text text-anchor="start" x="175" y="-1295" font-family="Helvetica,sans-Serif" font-size="10.00">visioncpp::internal</text>
<text text-anchor="middle" x="238" y="-1284" font-family="Helvetica,sans-Serif" font-size="10.00">::LocalNeighbour&lt; InTp &gt;::at</text>
</a>
</g>
</g>
<!-- Node1&#45;&gt;Node2 -->
<g id="edge1" class="edge"><title>Node1&#45;&gt;Node2</title>
<path fill="none" stroke="midnightblue" d="M49.0259,-718.346C49.6571,-818.479 57.1257,-1185.05 132,-1267 141.227,-1277.1 153.73,-1283.47 166.89,-1287.42"/>
<polygon fill="midnightblue" stroke="midnightblue" points="52.5255,-718.221 48.9806,-708.237 45.5256,-718.252 52.5255,-718.221"/>
</g>
<!-- Node3 -->
<g id="node3" class="node"><title>Node3</title>
<g id="a_node3"><a xlink:href="structvisioncpp_1_1internal_1_1GlobalNeighbour.html#ad9addd91689be7ec805fd66bd1048324" target="_top" xlink:title="function at provides access to a specific Coordinate for a 2d buffer parameters: ">
<polygon fill="none" stroke="black" points="165,-1228 165,-1258 311,-1258 311,-1228 165,-1228"/>
<text text-anchor="start" x="173" y="-1246" font-family="Helvetica,sans-Serif" font-size="10.00">visioncpp::internal</text>
<text text-anchor="middle" x="238" y="-1235" font-family="Helvetica,sans-Serif" font-size="10.00">::GlobalNeighbour&lt; InTp &gt;::at</text>
</a>
</g>
</g>
<!-- Node1&#45;&gt;Node3 -->
<g id="edge2" class="edge"><title>Node1&#45;&gt;Node3</title>
<path fill="none" stroke="midnightblue" d="M49.4028,-718.297C51.4328,-812.857 63.4035,-1143.91 132,-1218 140.784,-1227.49 152.461,-1233.68 164.833,-1237.66"/>
<polygon fill="midnightblue" stroke="midnightblue" points="52.9004,-718.137 49.2055,-708.208 45.9018,-718.274 52.9004,-718.137"/>
</g>
<!-- Node4 -->
<g id="node4" class="node"><title>Node4</title>
<g id="a_node4"><a xlink:href="structvisioncpp_1_1internal_1_1ConstNeighbour.html#a53d1674b214e3374a09f6c1de6b91783" target="_top" xlink:title="function at provides access to a specific coordinate for a 2d buffer parameters: ">
<polygon fill="none" stroke="black" points="163,-1179 163,-1209 313,-1209 313,-1179 163,-1179"/>
<text text-anchor="start" x="171" y="-1197" font-family="Helvetica,sans-Serif" font-size="10.00">visioncpp::internal</text>
<text text-anchor="middle" x="238" y="-1186" font-family="Helvetica,sans-Serif" font-size="10.00">::ConstNeighbour&lt; InTp2 &gt;::at</text>
</a>
</g>
</g>
<!-- Node1&#45;&gt;Node4 -->
<g id="edge3" class="edge"><title>Node1&#45;&gt;Node4</title>
<path fill="none" stroke="midnightblue" d="M49.8632,-718.491C53.4024,-807.52 69.7155,-1102.79 132,-1169 140.346,-1177.87 151.222,-1183.85 162.807,-1187.83"/>
<polygon fill="midnightblue" stroke="midnightblue" points="53.3508,-718.095 49.4766,-708.234 46.3558,-718.359 53.3508,-718.095"/>
</g>
<!-- Node5 -->
<g id="node5" class="node"><title>Node5</title>
<g id="a_node5"><a xlink:href="structvisioncpp_1_1internal_1_1Evaluator_3_01ops__category_1_1PointOP_00_01OutputIndex_00_01Offsef80864089ffa765ba84268825fe6b8e.html#a1a1a66f71cc24ceac1ad75d033c76f8b" target="_top" xlink:title="visioncpp::internal\l::Evaluator\&lt; ops_category\l::PointOP, OutputIndex,\l Offset, LC, LR, ParallelCopy\l\&lt; LHS, RHS, Cols, Rows, OffsetColIn,\l OffsetRowIn, OffsetColOut, OffsetRowOut,\l LfType, LVL \&gt;, Loc, Params...\&gt;::eval">
<polygon fill="none" stroke="black" points="132.5,-1074.5 132.5,-1159.5 343.5,-1159.5 343.5,-1074.5 132.5,-1074.5"/>
<text text-anchor="start" x="140.5" y="-1147.5" font-family="Helvetica,sans-Serif" font-size="10.00">visioncpp::internal</text>
<text text-anchor="start" x="140.5" y="-1136.5" font-family="Helvetica,sans-Serif" font-size="10.00">::Evaluator&lt; ops_category</text>
<text text-anchor="start" x="140.5" y="-1125.5" font-family="Helvetica,sans-Serif" font-size="10.00">::PointOP, OutputIndex,</text>
<text text-anchor="start" x="140.5" y="-1114.5" font-family="Helvetica,sans-Serif" font-size="10.00"> Offset, LC, LR, ParallelCopy</text>
<text text-anchor="start" x="140.5" y="-1103.5" font-family="Helvetica,sans-Serif" font-size="10.00">&lt; LHS, RHS, Cols, Rows, OffsetColIn,</text>
<text text-anchor="start" x="140.5" y="-1092.5" font-family="Helvetica,sans-Serif" font-size="10.00"> OffsetRowIn, OffsetColOut, OffsetRowOut,</text>
<text text-anchor="middle" x="238" y="-1081.5" font-family="Helvetica,sans-Serif" font-size="10.00"> LfType, LVL &gt;, Loc, Params...&gt;::eval</text>
</a>
</g>
</g>
<!-- Node1&#45;&gt;Node5 -->
<g id="edge4" class="edge"><title>Node1&#45;&gt;Node5</title>
<path fill="none" stroke="midnightblue" d="M51.8369,-718.687C60.551,-793.626 88.9736,-1010.16 132,-1065 134.637,-1068.36 137.548,-1071.52 140.67,-1074.49"/>
<polygon fill="midnightblue" stroke="midnightblue" points="55.2635,-717.844 50.6513,-708.306 48.3087,-718.639 55.2635,-717.844"/>
</g>
<!-- Node6 -->
<g id="node6" class="node"><title>Node6</title>
<g id="a_node6"><a xlink:href="structvisioncpp_1_1internal_1_1Evaluator_3_01internal_1_1ops__category_1_1PointOP_00_01Output__I9011a37d33a327fdebe3f77a125fadbb.html#a57caeb7339ed7a0546957efae59c22ec" target="_top" xlink:title="visioncpp::internal\l::Evaluator\&lt; internal\l::ops_category::PointOP,\l Output_Index, Offset, LC,\l LR, internal::Assign\&lt; LHS,\l RHS, Cols, Rows, LfType, LVL\l \&gt;, Loc, Params...\&gt;::eval">
<polygon fill="none" stroke="black" points="159,-970.5 159,-1055.5 317,-1055.5 317,-970.5 159,-970.5"/>
<text text-anchor="start" x="167" y="-1043.5" font-family="Helvetica,sans-Serif" font-size="10.00">visioncpp::internal</text>
<text text-anchor="start" x="167" y="-1032.5" font-family="Helvetica,sans-Serif" font-size="10.00">::Evaluator&lt; internal</text>
<text text-anchor="start" x="167" y="-1021.5" font-family="Helvetica,sans-Serif" font-size="10.00">::ops_category::PointOP,</text>
<text text-anchor="start" x="167" y="-1010.5" font-family="Helvetica,sans-Serif" font-size="10.00"> Output_Index, Offset, LC,</text>
<text text-anchor="start" x="167" y="-999.5" font-family="Helvetica,sans-Serif" font-size="10.00"> LR, internal::Assign&lt; LHS,</text>
<text text-anchor="start" x="167" y="-988.5" font-family="Helvetica,sans-Serif" font-size="10.00"> RHS, Cols, Rows, LfType, LVL</text>
<text text-anchor="middle" x="238" y="-977.5" font-family="Helvetica,sans-Serif" font-size="10.00"> &gt;, Loc, Params...&gt;::eval</text>
</a>
</g>
</g>
<!-- Node1&#45;&gt;Node6 -->
<g id="edge5" class="edge"><title>Node1&#45;&gt;Node6</title>
<path fill="none" stroke="midnightblue" d="M50.3596,-718.57C54.3823,-770.269 70.1987,-888.463 132,-961 139.52,-969.826 148.896,-977.3 158.93,-983.586"/>
<polygon fill="midnightblue" stroke="midnightblue" points="53.8316,-718.043 49.651,-708.308 46.8482,-718.525 53.8316,-718.043"/>
</g>
<!-- Node7 -->
<g id="node7" class="node"><title>Node7</title>
<g id="a_node7"><a xlink:href="structvisioncpp_1_1internal_1_1Evaluator_3_01ops__category_1_1NeighbourOP_00_01OutputIndex_00_01ca2d77a648a16a5db213e3a2c9bf9ea1.html#a59be16385892735826ae13fa6a0d9d38" target="_top" xlink:title="visioncpp::internal\l::Evaluator\&lt; ops_category\l::NeighbourOP, OutputIndex,\l Offset, LC, LR, ParallelCopy\l\&lt; LHS, RHS, Cols, Rows, OffsetColIn,\l OffsetRowIn, OffsetColOut, OffsetRowOut,\l LfType, LVL \&gt;, Loc, Params...\&gt;::eval">
<polygon fill="none" stroke="black" points="132.5,-866.5 132.5,-951.5 343.5,-951.5 343.5,-866.5 132.5,-866.5"/>
<text text-anchor="start" x="140.5" y="-939.5" font-family="Helvetica,sans-Serif" font-size="10.00">visioncpp::internal</text>
<text text-anchor="start" x="140.5" y="-928.5" font-family="Helvetica,sans-Serif" font-size="10.00">::Evaluator&lt; ops_category</text>
<text text-anchor="start" x="140.5" y="-917.5" font-family="Helvetica,sans-Serif" font-size="10.00">::NeighbourOP, OutputIndex,</text>
<text text-anchor="start" x="140.5" y="-906.5" font-family="Helvetica,sans-Serif" font-size="10.00"> Offset, LC, LR, ParallelCopy</text>
<text text-anchor="start" x="140.5" y="-895.5" font-family="Helvetica,sans-Serif" font-size="10.00">&lt; LHS, RHS, Cols, Rows, OffsetColIn,</text>
<text text-anchor="start" x="140.5" y="-884.5" font-family="Helvetica,sans-Serif" font-size="10.00"> OffsetRowIn, OffsetColOut, OffsetRowOut,</text>
<text text-anchor="middle" x="238" y="-873.5" font-family="Helvetica,sans-Serif" font-size="10.00"> LfType, LVL &gt;, Loc, Params...&gt;::eval</text>
</a>
</g>
</g>
<!-- Node1&#45;&gt;Node7 -->
<g id="edge6" class="edge"><title>Node1&#45;&gt;Node7</title>
<path fill="none" stroke="midnightblue" d="M56.0868,-717.946C67.1462,-752.964 91.5409,-816.891 132,-857 135.323,-860.294 138.896,-863.416 142.648,-866.37"/>
<polygon fill="midnightblue" stroke="midnightblue" points="59.3397,-716.613 53.0798,-708.065 52.6429,-718.651 59.3397,-716.613"/>
</g>
<!-- Node8 -->
<g id="node8" class="node"><title>Node8</title>
<g id="a_node8"><a xlink:href="structvisioncpp_1_1internal_1_1EvalExpr_3_01RDCN_3_01C__OP_00_01RHS_00_01Cols_00_01Rows_00_01LfTbaaf6d19bb6434d2d27b08eb325a7b47.html#a15e3f1796f102b4851eb84b9332262c4" target="_top" xlink:title="visioncpp::internal\l::EvalExpr\&lt; RDCN\&lt; C\l_OP, RHS, Cols, Rows,\l LfType, LVL \&gt;, Loc, Params...\&gt;\l::eval_global_neighbour">
<polygon fill="none" stroke="black" points="159,-784.5 159,-847.5 317,-847.5 317,-784.5 159,-784.5"/>
<text text-anchor="start" x="167" y="-835.5" font-family="Helvetica,sans-Serif" font-size="10.00">visioncpp::internal</text>
<text text-anchor="start" x="167" y="-824.5" font-family="Helvetica,sans-Serif" font-size="10.00">::EvalExpr&lt; RDCN&lt; C</text>
<text text-anchor="start" x="167" y="-813.5" font-family="Helvetica,sans-Serif" font-size="10.00">_OP, RHS, Cols, Rows,</text>
<text text-anchor="start" x="167" y="-802.5" font-family="Helvetica,sans-Serif" font-size="10.00"> LfType, LVL &gt;, Loc, Params...&gt;</text>
<text text-anchor="middle" x="238" y="-791.5" font-family="Helvetica,sans-Serif" font-size="10.00">::eval_global_neighbour</text>
</a>
</g>
</g>
<!-- Node1&#45;&gt;Node8 -->
<g id="edge7" class="edge"><title>Node1&#45;&gt;Node8</title>
<path fill="none" stroke="midnightblue" d="M67.6102,-715.965C83.229,-734.014 106.953,-758.74 132,-775 140.371,-780.434 149.574,-785.331 158.945,-789.688"/>
<polygon fill="midnightblue" stroke="midnightblue" points="70.1632,-713.564 61.0287,-708.196 64.8222,-718.089 70.1632,-713.564"/>
</g>
<!-- Node9 -->
<g id="node9" class="node"><title>Node9</title>
<g id="a_node9"><a xlink:href="structvisioncpp_1_1internal_1_1EvalExpr_3_01Assign_3_01LHS_00_01RHS_00_01Cols_00_01Rows_00_01LfT43be900b4dfda243112cb67c417c428f.html#a38fc33e52fc804821dd5c5a5f84c4b59" target="_top" xlink:title="evaluate function when the internal::ops_category is GlobalNeighbour. ">
<polygon fill="none" stroke="black" points="159,-702.5 159,-765.5 317,-765.5 317,-702.5 159,-702.5"/>
<text text-anchor="start" x="167" y="-753.5" font-family="Helvetica,sans-Serif" font-size="10.00">visioncpp::internal</text>
<text text-anchor="start" x="167" y="-742.5" font-family="Helvetica,sans-Serif" font-size="10.00">::EvalExpr&lt; Assign&lt;</text>
<text text-anchor="start" x="167" y="-731.5" font-family="Helvetica,sans-Serif" font-size="10.00"> LHS, RHS, Cols, Rows,</text>
<text text-anchor="start" x="167" y="-720.5" font-family="Helvetica,sans-Serif" font-size="10.00"> LfType, LVL &gt;, Loc, Params...&gt;</text>
<text text-anchor="middle" x="238" y="-709.5" font-family="Helvetica,sans-Serif" font-size="10.00">::eval_global_neighbour</text>
</a>
</g>
</g>
<!-- Node1&#45;&gt;Node9 -->
<g id="edge8" class="edge"><title>Node1&#45;&gt;Node9</title>
<path fill="none" stroke="midnightblue" d="M106.053,-705.442C122.689,-709.07 141.161,-713.099 158.861,-716.959"/>
<polygon fill="midnightblue" stroke="midnightblue" points="106.472,-701.951 95.9554,-703.24 104.98,-708.791 106.472,-701.951"/>
</g>
<!-- Node10 -->
<g id="node10" class="node"><title>Node10</title>
<g id="a_node10"><a xlink:href="structvisioncpp_1_1internal_1_1EvalExpr_3_01RDCN_3_01C__OP_00_01RHS_00_01Cols_00_01Rows_00_01LfTbaaf6d19bb6434d2d27b08eb325a7b47.html#abfb3d8e56648bba45068964b48a5f1f5" target="_top" xlink:title="evaluate function when the internal::ops_category is NeighbourOP. ">
<polygon fill="none" stroke="black" points="159,-620.5 159,-683.5 317,-683.5 317,-620.5 159,-620.5"/>
<text text-anchor="start" x="167" y="-671.5" font-family="Helvetica,sans-Serif" font-size="10.00">visioncpp::internal</text>
<text text-anchor="start" x="167" y="-660.5" font-family="Helvetica,sans-Serif" font-size="10.00">::EvalExpr&lt; RDCN&lt; C</text>
<text text-anchor="start" x="167" y="-649.5" font-family="Helvetica,sans-Serif" font-size="10.00">_OP, RHS, Cols, Rows,</text>
<text text-anchor="start" x="167" y="-638.5" font-family="Helvetica,sans-Serif" font-size="10.00"> LfType, LVL &gt;, Loc, Params...&gt;</text>
<text text-anchor="middle" x="238" y="-627.5" font-family="Helvetica,sans-Serif" font-size="10.00">::eval_neighbour</text>
</a>
</g>
</g>
<!-- Node1&#45;&gt;Node10 -->
<g id="edge9" class="edge"><title>Node1&#45;&gt;Node10</title>
<path fill="none" stroke="midnightblue" d="M106.053,-680.558C122.689,-676.93 141.161,-672.901 158.861,-669.041"/>
<polygon fill="midnightblue" stroke="midnightblue" points="104.98,-677.209 95.9554,-682.76 106.472,-684.049 104.98,-677.209"/>
</g>
<!-- Node11 -->
<g id="node11" class="node"><title>Node11</title>
<g id="a_node11"><a xlink:href="structvisioncpp_1_1internal_1_1EvalExpr_3_01StnFilt_3_01C__OP_00_01Halo__T_00_01Halo__L_00_01Hal2050e544c871a5a0495aaad89df1957c.html#a0d19ab079d18adf58770c53a1698bcfb" target="_top" xlink:title="evaluate function when the internal::ops_category is NeighbourOP. ">
<polygon fill="none" stroke="black" points="169,-516.5 169,-601.5 307,-601.5 307,-516.5 169,-516.5"/>
<text text-anchor="start" x="177" y="-589.5" font-family="Helvetica,sans-Serif" font-size="10.00">visioncpp::internal</text>
<text text-anchor="start" x="177" y="-578.5" font-family="Helvetica,sans-Serif" font-size="10.00">::EvalExpr&lt; StnFilt</text>
<text text-anchor="start" x="177" y="-567.5" font-family="Helvetica,sans-Serif" font-size="10.00">&lt; C_OP, Halo_T, Halo</text>
<text text-anchor="start" x="177" y="-556.5" font-family="Helvetica,sans-Serif" font-size="10.00">_L, Halo_B, Halo_R, LHS,</text>
<text text-anchor="start" x="177" y="-545.5" font-family="Helvetica,sans-Serif" font-size="10.00"> RHS, Cols, Rows, LfType,</text>
<text text-anchor="start" x="177" y="-534.5" font-family="Helvetica,sans-Serif" font-size="10.00"> LVL &gt;, Loc, Params...&gt;::</text>
<text text-anchor="middle" x="238" y="-523.5" font-family="Helvetica,sans-Serif" font-size="10.00">eval_neighbour</text>
</a>
</g>
</g>
<!-- Node1&#45;&gt;Node11 -->
<g id="edge10" class="edge"><title>Node1&#45;&gt;Node11</title>
<path fill="none" stroke="midnightblue" d="M68.2876,-670.305C84.1335,-652.614 107.832,-628.239 132,-611 143.344,-602.908 156.135,-595.424 168.787,-588.801"/>
<polygon fill="midnightblue" stroke="midnightblue" points="65.5695,-668.096 61.5862,-677.913 70.8224,-672.722 65.5695,-668.096"/>
</g>
<!-- Node12 -->
<g id="node12" class="node"><title>Node12</title>
<g id="a_node12"><a xlink:href="structvisioncpp_1_1internal_1_1EvalExpr_3_01StnNoFilt_3_01C__OP_00_01Halo__T_00_01Halo__L_00_01H81c3c41de78d96a4150f926c942e83b9.html#ace2e9ffa560dfaf1fe4715618c9f09a9" target="_top" xlink:title="evaluate function when the internal::ops_category is NeighbourOP. ">
<polygon fill="none" stroke="black" points="164,-423 164,-497 312,-497 312,-423 164,-423"/>
<text text-anchor="start" x="172" y="-485" font-family="Helvetica,sans-Serif" font-size="10.00">visioncpp::internal</text>
<text text-anchor="start" x="172" y="-474" font-family="Helvetica,sans-Serif" font-size="10.00">::EvalExpr&lt; StnNoFilt</text>
<text text-anchor="start" x="172" y="-463" font-family="Helvetica,sans-Serif" font-size="10.00">&lt; C_OP, Halo_T, Halo_L,</text>
<text text-anchor="start" x="172" y="-452" font-family="Helvetica,sans-Serif" font-size="10.00"> Halo_B, Halo_R, RHS, Cols,</text>
<text text-anchor="start" x="172" y="-441" font-family="Helvetica,sans-Serif" font-size="10.00"> Rows, LfType, LVL &gt;, Loc,</text>
<text text-anchor="middle" x="238" y="-430" font-family="Helvetica,sans-Serif" font-size="10.00"> Params...&gt;::eval_neighbour</text>
</a>
</g>
</g>
<!-- Node1&#45;&gt;Node12 -->
<g id="edge11" class="edge"><title>Node1&#45;&gt;Node12</title>
<path fill="none" stroke="midnightblue" d="M54.1328,-667.887C63.3256,-628.756 86.0876,-552.965 132,-507 141.104,-497.886 152.285,-490.381 163.92,-484.253"/>
<polygon fill="midnightblue" stroke="midnightblue" points="50.6612,-667.373 51.8918,-677.896 57.4921,-668.903 50.6612,-667.373"/>
</g>
<!-- Node13 -->
<g id="node13" class="node"><title>Node13</title>
<g id="a_node13"><a xlink:href="structvisioncpp_1_1internal_1_1EvalExpr_3_01RUnOP_3_01UN__OP_00_01Nested_00_01Cols_00_01Rows_00_7ba66833c9b555552c4410d2251c1377.html#a882040fe125f79a5ad23af91887c44f4" target="_top" xlink:title="evaluate function when the internal::ops_category is NeighbourOP. ">
<polygon fill="none" stroke="black" points="159,-340.5 159,-403.5 317,-403.5 317,-340.5 159,-340.5"/>
<text text-anchor="start" x="167" y="-391.5" font-family="Helvetica,sans-Serif" font-size="10.00">visioncpp::internal</text>
<text text-anchor="start" x="167" y="-380.5" font-family="Helvetica,sans-Serif" font-size="10.00">::EvalExpr&lt; RUnOP&lt; UN</text>
<text text-anchor="start" x="167" y="-369.5" font-family="Helvetica,sans-Serif" font-size="10.00">_OP, Nested, Cols, Rows,</text>
<text text-anchor="start" x="167" y="-358.5" font-family="Helvetica,sans-Serif" font-size="10.00"> LfType, LVL &gt;, Loc, Params...&gt;</text>
<text text-anchor="middle" x="238" y="-347.5" font-family="Helvetica,sans-Serif" font-size="10.00">::eval_neighbour</text>
</a>
</g>
</g>
<!-- Node1&#45;&gt;Node13 -->
<g id="edge12" class="edge"><title>Node1&#45;&gt;Node13</title>
<path fill="none" stroke="midnightblue" d="M49.4689,-667.8C51.8032,-614.221 64.5961,-487.861 132,-414 139.544,-405.734 148.934,-399.066 158.973,-393.696"/>
<polygon fill="midnightblue" stroke="midnightblue" points="45.971,-667.681 49.1209,-677.797 52.9668,-667.924 45.971,-667.681"/>
</g>
<!-- Node14 -->
<g id="node14" class="node"><title>Node14</title>
<g id="a_node14"><a xlink:href="structvisioncpp_1_1internal_1_1EvalExpr_3_01RBiOP_3_01BI__OP_00_01LHS_00_01RHS_00_01Cols_00_01Robff28872e27b399b52eeb97274fd2895.html#a35e15c5050836600b40ea2f047f62c7b" target="_top" xlink:title="evaluate function when the internal::ops_category is NeighbourOP. ">
<polygon fill="none" stroke="black" points="159,-258.5 159,-321.5 317,-321.5 317,-258.5 159,-258.5"/>
<text text-anchor="start" x="167" y="-309.5" font-family="Helvetica,sans-Serif" font-size="10.00">visioncpp::internal</text>
<text text-anchor="start" x="167" y="-298.5" font-family="Helvetica,sans-Serif" font-size="10.00">::EvalExpr&lt; RBiOP&lt; BI</text>
<text text-anchor="start" x="167" y="-287.5" font-family="Helvetica,sans-Serif" font-size="10.00">_OP, LHS, RHS, Cols, Rows,</text>
<text text-anchor="start" x="167" y="-276.5" font-family="Helvetica,sans-Serif" font-size="10.00"> LfType, LVL &gt;, Loc, Params...&gt;</text>
<text text-anchor="middle" x="238" y="-265.5" font-family="Helvetica,sans-Serif" font-size="10.00">::eval_neighbour</text>
</a>
</g>
</g>
<!-- Node1&#45;&gt;Node14 -->
<g id="edge13" class="edge"><title>Node1&#45;&gt;Node14</title>
<path fill="none" stroke="midnightblue" d="M51.7101,-667.821C60.0736,-594.39 87.6251,-382.423 132,-331 139.351,-322.481 148.698,-315.72 158.772,-310.358"/>
<polygon fill="midnightblue" stroke="midnightblue" points="48.2056,-667.667 50.5741,-677.994 55.1623,-668.444 48.2056,-667.667"/>
</g>
<!-- Node15 -->
<g id="node15" class="node"><title>Node15</title>
<g id="a_node15"><a xlink:href="structvisioncpp_1_1internal_1_1EvalExpr_3_01Assign_3_01LHS_00_01RHS_00_01Cols_00_01Rows_00_01LfT43be900b4dfda243112cb67c417c428f.html#a8e25010545a89cdd62e472aee4d5a51c" target="_top" xlink:title="evaluate function when the internal::ops_category is NeighbourOP. ">
<polygon fill="none" stroke="black" points="159,-176.5 159,-239.5 317,-239.5 317,-176.5 159,-176.5"/>
<text text-anchor="start" x="167" y="-227.5" font-family="Helvetica,sans-Serif" font-size="10.00">visioncpp::internal</text>
<text text-anchor="start" x="167" y="-216.5" font-family="Helvetica,sans-Serif" font-size="10.00">::EvalExpr&lt; Assign&lt;</text>
<text text-anchor="start" x="167" y="-205.5" font-family="Helvetica,sans-Serif" font-size="10.00"> LHS, RHS, Cols, Rows,</text>
<text text-anchor="start" x="167" y="-194.5" font-family="Helvetica,sans-Serif" font-size="10.00"> LfType, LVL &gt;, Loc, Params...&gt;</text>
<text text-anchor="middle" x="238" y="-183.5" font-family="Helvetica,sans-Serif" font-size="10.00">::eval_neighbour</text>
</a>
</g>
</g>
<!-- Node1&#45;&gt;Node15 -->
<g id="edge14" class="edge"><title>Node1&#45;&gt;Node15</title>
<path fill="none" stroke="midnightblue" d="M50.5617,-667.564C56.2194,-583.149 78.2135,-313.949 132,-249 139.302,-240.183 148.75,-233.254 158.981,-227.812"/>
<polygon fill="midnightblue" stroke="midnightblue" points="47.0676,-667.36 49.9106,-677.567 54.0529,-667.815 47.0676,-667.36"/>
</g>
<!-- Node16 -->
<g id="node16" class="node"><title>Node16</title>
<g id="a_node16"><a xlink:href="structvisioncpp_1_1internal_1_1EvalExpr_3_01LeafNode_3_01PlaceHolder_3_01Memory__Type_00_01N_00_dfb8ec0f3aac93da6cdbf4a64dcd6044.html#a260451872243d8706630d320ef246410" target="_top" xlink:title="evaluate function when the internal::ops_category is PointOP. ">
<polygon fill="none" stroke="black" points="163.5,-83 163.5,-157 312.5,-157 312.5,-83 163.5,-83"/>
<text text-anchor="start" x="171.5" y="-145" font-family="Helvetica,sans-Serif" font-size="10.00">visioncpp::internal</text>
<text text-anchor="start" x="171.5" y="-134" font-family="Helvetica,sans-Serif" font-size="10.00">::EvalExpr&lt; LeafNode</text>
<text text-anchor="start" x="171.5" y="-123" font-family="Helvetica,sans-Serif" font-size="10.00">&lt; PlaceHolder&lt; Memory</text>
<text text-anchor="start" x="171.5" y="-112" font-family="Helvetica,sans-Serif" font-size="10.00">_Type, N, Cols, Rows,</text>
<text text-anchor="start" x="171.5" y="-101" font-family="Helvetica,sans-Serif" font-size="10.00"> Sc &gt;, LVL &gt;, Loc, Params...&gt;</text>
<text text-anchor="middle" x="238" y="-90" font-family="Helvetica,sans-Serif" font-size="10.00">::eval_point</text>
</a>
</g>
</g>
<!-- Node1&#45;&gt;Node16 -->
<g id="edge15" class="edge"><title>Node1&#45;&gt;Node16</title>
<path fill="none" stroke="midnightblue" d="M49.8641,-667.756C53.5346,-574.022 70.5857,-247.25 132,-167 140.193,-156.294 151.365,-147.966 163.376,-141.507"/>
<polygon fill="midnightblue" stroke="midnightblue" points="46.3573,-667.875 49.4807,-677.999 53.3524,-668.137 46.3573,-667.875"/>
</g>
<!-- Node17 -->
<g id="node17" class="node"><title>Node17</title>
<g id="a_node17"><a xlink:href="structvisioncpp_1_1internal_1_1Fill_3_01LeafNode_3_01PlaceHolder_3_01Memory__Type_00_01N_00_01Cof0399f7a786b33683835a8628a6d974a.html#a0339bff1274e6491c7678a83171e0f9a" target="_top" xlink:title="visioncpp::internal\l::Fill\&lt; LeafNode\&lt; PlaceHolder\l\&lt; Memory_Type, N, Cols, Rows,\l Sc \&gt;, LVL \&gt;, Loc, Params...\&gt;\l::fill_neighbour">
<polygon fill="none" stroke="black" points="157,-0.5 157,-63.5 319,-63.5 319,-0.5 157,-0.5"/>
<text text-anchor="start" x="165" y="-51.5" font-family="Helvetica,sans-Serif" font-size="10.00">visioncpp::internal</text>
<text text-anchor="start" x="165" y="-40.5" font-family="Helvetica,sans-Serif" font-size="10.00">::Fill&lt; LeafNode&lt; PlaceHolder</text>
<text text-anchor="start" x="165" y="-29.5" font-family="Helvetica,sans-Serif" font-size="10.00">&lt; Memory_Type, N, Cols, Rows,</text>
<text text-anchor="start" x="165" y="-18.5" font-family="Helvetica,sans-Serif" font-size="10.00"> Sc &gt;, LVL &gt;, Loc, Params...&gt;</text>
<text text-anchor="middle" x="238" y="-7.5" font-family="Helvetica,sans-Serif" font-size="10.00">::fill_neighbour</text>
</a>
</g>
</g>
<!-- Node1&#45;&gt;Node17 -->
<g id="edge16" class="edge"><title>Node1&#45;&gt;Node17</title>
<path fill="none" stroke="midnightblue" d="M49.0932,-667.709C49.9609,-563.551 58.1477,-168.807 132,-74 138.696,-65.4038 147.424,-58.5608 156.988,-53.1149"/>
<polygon fill="midnightblue" stroke="midnightblue" points="45.592,-667.886 49.0247,-677.909 52.5919,-667.933 45.592,-667.886"/>
</g>
</g>
</svg>
