<?xml version="1.0" encoding="UTF-8" standalone="no"?>
<!DOCTYPE svg PUBLIC "-//W3C//DTD SVG 1.1//EN"
 "http://www.w3.org/Graphics/SVG/1.1/DTD/svg11.dtd">
<!-- Generated by graphviz version 2.36.0 (20140111.2315)
 -->
<!-- Title: visioncpp::execute Pages: 1 -->
<svg width="410pt" height="60pt"
 viewBox="0.00 0.00 410.00 60.00" xmlns="http://www.w3.org/2000/svg" xmlns:xlink="http://www.w3.org/1999/xlink">
<g id="graph0" class="graph" transform="scale(1 1) rotate(0) translate(4 56)">
<title>visioncpp::execute</title>
<!-- Node1 -->
<g id="node1" class="node"><title>Node1</title>
<polygon fill="#bfbfbf" stroke="black" points="0,-16.5 0,-35.5 98,-35.5 98,-16.5 0,-16.5"/>
<text text-anchor="middle" x="49" y="-23.5" font-family="Helvetica,sans-Serif" font-size="10.00">visioncpp::execute</text>
</g>
<!-- Node2 -->
<g id="node2" class="node"><title>Node2</title>
<g id="a_node2"><a xlink:href="namespacevisioncpp.html#a76942b49bab20ba8ffc240a9790c548d" target="_top" xlink:title="special case of the execute function with default value for local memory and workgroup size template ...">
<polygon fill="none" stroke="black" points="134,-16.5 134,-35.5 232,-35.5 232,-16.5 134,-16.5"/>
<text text-anchor="middle" x="183" y="-23.5" font-family="Helvetica,sans-Serif" font-size="10.00">visioncpp::execute</text>
</a>
</g>
</g>
<!-- Node1&#45;&gt;Node2 -->
<g id="edge1" class="edge"><title>Node1&#45;&gt;Node2</title>
<path fill="none" stroke="midnightblue" d="M108.292,-26C116.809,-26 125.5,-26 133.786,-26"/>
<polygon fill="midnightblue" stroke="midnightblue" points="108.028,-22.5001 98.0284,-26 108.028,-29.5001 108.028,-22.5001"/>
</g>
<!-- Node3 -->
<g id="node3" class="node"><title>Node3</title>
<g id="a_node3"><a xlink:href="structvisioncpp_1_1internal_1_1SubExprExecute_3_01false_00_01ExecPolicy_00_01LC_00_01LR_00_01LCT_00_01LRT_00_01Expr_01_4.html#a234890036e24b667311232b40fa75a4e" target="_top" xlink:title="visioncpp::internal\l::SubExprExecute\&lt; false,\l ExecPolicy, LC, LR, LCT,\l LRT, Expr \&gt;::execute">
<polygon fill="none" stroke="black" points="268,-0 268,-52 402,-52 402,-0 268,-0"/>
<text text-anchor="start" x="276" y="-40" font-family="Helvetica,sans-Serif" font-size="10.00">visioncpp::internal</text>
<text text-anchor="start" x="276" y="-29" font-family="Helvetica,sans-Serif" font-size="10.00">::SubExprExecute&lt; false,</text>
<text text-anchor="start" x="276" y="-18" font-family="Helvetica,sans-Serif" font-size="10.00"> ExecPolicy, LC, LR, LCT,</text>
<text text-anchor="middle" x="335" y="-7" font-family="Helvetica,sans-Serif" font-size="10.00"> LRT, Expr &gt;::execute</text>
</a>
</g>
</g>
<!-- Node2&#45;&gt;Node3 -->
<g id="edge2" class="edge"><title>Node2&#45;&gt;Node3</title>
<path fill="none" stroke="midnightblue" d="M242.294,-26C250.641,-26 259.278,-26 267.764,-26"/>
<polygon fill="midnightblue" stroke="midnightblue" points="242.287,-22.5001 232.287,-26 242.287,-29.5001 242.287,-22.5001"/>
</g>
</g>
</svg>
