<?xml version="1.0" encoding="UTF-8" standalone="no"?>
<!DOCTYPE svg PUBLIC "-//W3C//DTD SVG 1.1//EN"
 "http://www.w3.org/Graphics/SVG/1.1/DTD/svg11.dtd">
<!-- Generated by graphviz version 2.36.0 (20140111.2315)
 -->
<!-- Title: visioncpp::internal::tools::convert Pages: 1 -->
<svg width="302pt" height="680pt"
 viewBox="0.00 0.00 302.00 680.00" xmlns="http://www.w3.org/2000/svg" xmlns:xlink="http://www.w3.org/1999/xlink">
<g id="graph0" class="graph" transform="scale(1 1) rotate(0) translate(4 676)">
<title>visioncpp::internal::tools::convert</title>
<!-- Node1 -->
<g id="node1" class="node"><title>Node1</title>
<polygon fill="#bfbfbf" stroke="black" points="0.5,-309 0.5,-339 95.5,-339 95.5,-309 0.5,-309"/>
<text text-anchor="start" x="8.5" y="-327" font-family="Helvetica,sans-Serif" font-size="10.00">visioncpp::internal</text>
<text text-anchor="middle" x="48" y="-316" font-family="Helvetica,sans-Serif" font-size="10.00">::tools::convert</text>
</g>
<!-- Node2 -->
<g id="node2" class="node"><title>Node2</title>
<g id="a_node2"><a xlink:href="structvisioncpp_1_1internal_1_1EvalExpr_3_01RDCN_3_01C__OP_00_01RHS_00_01Cols_00_01Rows_00_01LfTbaaf6d19bb6434d2d27b08eb325a7b47.html#a15e3f1796f102b4851eb84b9332262c4" target="_top" xlink:title="visioncpp::internal\l::EvalExpr\&lt; RDCN\&lt; C\l_OP, RHS, Cols, Rows,\l LfType, LVL \&gt;, Loc, Params...\&gt;\l::eval_global_neighbour">
<polygon fill="none" stroke="black" points="134,-608.5 134,-671.5 292,-671.5 292,-608.5 134,-608.5"/>
<text text-anchor="start" x="142" y="-659.5" font-family="Helvetica,sans-Serif" font-size="10.00">visioncpp::internal</text>
<text text-anchor="start" x="142" y="-648.5" font-family="Helvetica,sans-Serif" font-size="10.00">::EvalExpr&lt; RDCN&lt; C</text>
<text text-anchor="start" x="142" y="-637.5" font-family="Helvetica,sans-Serif" font-size="10.00">_OP, RHS, Cols, Rows,</text>
<text text-anchor="start" x="142" y="-626.5" font-family="Helvetica,sans-Serif" font-size="10.00"> LfType, LVL &gt;, Loc, Params...&gt;</text>
<text text-anchor="middle" x="213" y="-615.5" font-family="Helvetica,sans-Serif" font-size="10.00">::eval_global_neighbour</text>
</a>
</g>
</g>
<!-- Node1&#45;&gt;Node2 -->
<g id="edge1" class="edge"><title>Node1&#45;&gt;Node2</title>
<path fill="none" stroke="midnightblue" d="M50.1672,-349.075C53.8459,-401.389 69.0773,-523.558 132,-599 134.799,-602.356 137.943,-605.468 141.322,-608.35"/>
<polygon fill="midnightblue" stroke="midnightblue" points="53.6557,-348.778 49.5446,-339.014 46.669,-349.211 53.6557,-348.778"/>
</g>
<!-- Node3 -->
<g id="node3" class="node"><title>Node3</title>
<g id="a_node3"><a xlink:href="structvisioncpp_1_1internal_1_1EvalExpr_3_01RDCN_3_01C__OP_00_01RHS_00_01Cols_00_01Rows_00_01LfTbaaf6d19bb6434d2d27b08eb325a7b47.html#abfb3d8e56648bba45068964b48a5f1f5" target="_top" xlink:title="evaluate function when the internal::ops_category is NeighbourOP. ">
<polygon fill="none" stroke="black" points="134,-526.5 134,-589.5 292,-589.5 292,-526.5 134,-526.5"/>
<text text-anchor="start" x="142" y="-577.5" font-family="Helvetica,sans-Serif" font-size="10.00">visioncpp::internal</text>
<text text-anchor="start" x="142" y="-566.5" font-family="Helvetica,sans-Serif" font-size="10.00">::EvalExpr&lt; RDCN&lt; C</text>
<text text-anchor="start" x="142" y="-555.5" font-family="Helvetica,sans-Serif" font-size="10.00">_OP, RHS, Cols, Rows,</text>
<text text-anchor="start" x="142" y="-544.5" font-family="Helvetica,sans-Serif" font-size="10.00"> LfType, LVL &gt;, Loc, Params...&gt;</text>
<text text-anchor="middle" x="213" y="-533.5" font-family="Helvetica,sans-Serif" font-size="10.00">::eval_neighbour</text>
</a>
</g>
</g>
<!-- Node1&#45;&gt;Node3 -->
<g id="edge2" class="edge"><title>Node1&#45;&gt;Node3</title>
<path fill="none" stroke="midnightblue" d="M54.1342,-349.019C63.4218,-388.764 86.4242,-466.851 132,-516 135.413,-519.681 139.223,-523.098 143.277,-526.259"/>
<polygon fill="midnightblue" stroke="midnightblue" points="57.5155,-348.101 51.9186,-339.105 50.6841,-349.628 57.5155,-348.101"/>
</g>
<!-- Node4 -->
<g id="node4" class="node"><title>Node4</title>
<g id="a_node4"><a xlink:href="structvisioncpp_1_1internal_1_1EvalExpr_3_01StnNoFilt_3_01C__OP_00_01Halo__T_00_01Halo__L_00_01H81c3c41de78d96a4150f926c942e83b9.html#ace2e9ffa560dfaf1fe4715618c9f09a9" target="_top" xlink:title="evaluate function when the internal::ops_category is NeighbourOP. ">
<polygon fill="none" stroke="black" points="139,-433 139,-507 287,-507 287,-433 139,-433"/>
<text text-anchor="start" x="147" y="-495" font-family="Helvetica,sans-Serif" font-size="10.00">visioncpp::internal</text>
<text text-anchor="start" x="147" y="-484" font-family="Helvetica,sans-Serif" font-size="10.00">::EvalExpr&lt; StnNoFilt</text>
<text text-anchor="start" x="147" y="-473" font-family="Helvetica,sans-Serif" font-size="10.00">&lt; C_OP, Halo_T, Halo_L,</text>
<text text-anchor="start" x="147" y="-462" font-family="Helvetica,sans-Serif" font-size="10.00"> Halo_B, Halo_R, RHS, Cols,</text>
<text text-anchor="start" x="147" y="-451" font-family="Helvetica,sans-Serif" font-size="10.00"> Rows, LfType, LVL &gt;, Loc,</text>
<text text-anchor="middle" x="213" y="-440" font-family="Helvetica,sans-Serif" font-size="10.00"> Params...&gt;::eval_neighbour</text>
</a>
</g>
</g>
<!-- Node1&#45;&gt;Node4 -->
<g id="edge3" class="edge"><title>Node1&#45;&gt;Node4</title>
<path fill="none" stroke="midnightblue" d="M65.0008,-347.351C80.4484,-368.76 105.361,-400.465 132,-423 136.058,-426.433 140.4,-429.762 144.884,-432.957"/>
<polygon fill="midnightblue" stroke="midnightblue" points="67.8159,-345.27 59.175,-339.14 62.1067,-349.321 67.8159,-345.27"/>
</g>
<!-- Node5 -->
<g id="node5" class="node"><title>Node5</title>
<g id="a_node5"><a xlink:href="structvisioncpp_1_1internal_1_1EvalExpr_3_01StnFilt_3_01C__OP_00_01Halo__T_00_01Halo__L_00_01Hal2050e544c871a5a0495aaad89df1957c.html#a0d19ab079d18adf58770c53a1698bcfb" target="_top" xlink:title="evaluate function when the internal::ops_category is NeighbourOP. ">
<polygon fill="none" stroke="black" points="144,-328.5 144,-413.5 282,-413.5 282,-328.5 144,-328.5"/>
<text text-anchor="start" x="152" y="-401.5" font-family="Helvetica,sans-Serif" font-size="10.00">visioncpp::internal</text>
<text text-anchor="start" x="152" y="-390.5" font-family="Helvetica,sans-Serif" font-size="10.00">::EvalExpr&lt; StnFilt</text>
<text text-anchor="start" x="152" y="-379.5" font-family="Helvetica,sans-Serif" font-size="10.00">&lt; C_OP, Halo_T, Halo</text>
<text text-anchor="start" x="152" y="-368.5" font-family="Helvetica,sans-Serif" font-size="10.00">_L, Halo_B, Halo_R, LHS,</text>
<text text-anchor="start" x="152" y="-357.5" font-family="Helvetica,sans-Serif" font-size="10.00"> RHS, Cols, Rows, LfType,</text>
<text text-anchor="start" x="152" y="-346.5" font-family="Helvetica,sans-Serif" font-size="10.00"> LVL &gt;, Loc, Params...&gt;::</text>
<text text-anchor="middle" x="213" y="-335.5" font-family="Helvetica,sans-Serif" font-size="10.00">eval_neighbour</text>
</a>
</g>
</g>
<!-- Node1&#45;&gt;Node5 -->
<g id="edge4" class="edge"><title>Node1&#45;&gt;Node5</title>
<path fill="none" stroke="midnightblue" d="M105.407,-340.265C117.758,-343.826 130.96,-347.633 143.719,-351.312"/>
<polygon fill="midnightblue" stroke="midnightblue" points="106.288,-336.876 95.7093,-337.468 104.348,-343.602 106.288,-336.876"/>
</g>
<!-- Node6 -->
<g id="node6" class="node"><title>Node6</title>
<g id="a_node6"><a xlink:href="structvisioncpp_1_1internal_1_1EvalExpr_3_01RUnOP_3_01UN__OP_00_01Nested_00_01Cols_00_01Rows_00_7ba66833c9b555552c4410d2251c1377.html#a882040fe125f79a5ad23af91887c44f4" target="_top" xlink:title="evaluate function when the internal::ops_category is NeighbourOP. ">
<polygon fill="none" stroke="black" points="134,-246.5 134,-309.5 292,-309.5 292,-246.5 134,-246.5"/>
<text text-anchor="start" x="142" y="-297.5" font-family="Helvetica,sans-Serif" font-size="10.00">visioncpp::internal</text>
<text text-anchor="start" x="142" y="-286.5" font-family="Helvetica,sans-Serif" font-size="10.00">::EvalExpr&lt; RUnOP&lt; UN</text>
<text text-anchor="start" x="142" y="-275.5" font-family="Helvetica,sans-Serif" font-size="10.00">_OP, Nested, Cols, Rows,</text>
<text text-anchor="start" x="142" y="-264.5" font-family="Helvetica,sans-Serif" font-size="10.00"> LfType, LVL &gt;, Loc, Params...&gt;</text>
<text text-anchor="middle" x="213" y="-253.5" font-family="Helvetica,sans-Serif" font-size="10.00">::eval_neighbour</text>
</a>
</g>
</g>
<!-- Node1&#45;&gt;Node6 -->
<g id="edge5" class="edge"><title>Node1&#45;&gt;Node6</title>
<path fill="none" stroke="midnightblue" d="M105.465,-308.065C114.648,-305.474 124.301,-302.749 133.891,-300.043"/>
<polygon fill="midnightblue" stroke="midnightblue" points="104.383,-304.734 95.7093,-310.818 106.284,-311.471 104.383,-304.734"/>
</g>
<!-- Node7 -->
<g id="node7" class="node"><title>Node7</title>
<g id="a_node7"><a xlink:href="structvisioncpp_1_1internal_1_1EvalExpr_3_01RBiOP_3_01BI__OP_00_01LHS_00_01RHS_00_01Cols_00_01Robff28872e27b399b52eeb97274fd2895.html#a35e15c5050836600b40ea2f047f62c7b" target="_top" xlink:title="evaluate function when the internal::ops_category is NeighbourOP. ">
<polygon fill="none" stroke="black" points="134,-164.5 134,-227.5 292,-227.5 292,-164.5 134,-164.5"/>
<text text-anchor="start" x="142" y="-215.5" font-family="Helvetica,sans-Serif" font-size="10.00">visioncpp::internal</text>
<text text-anchor="start" x="142" y="-204.5" font-family="Helvetica,sans-Serif" font-size="10.00">::EvalExpr&lt; RBiOP&lt; BI</text>
<text text-anchor="start" x="142" y="-193.5" font-family="Helvetica,sans-Serif" font-size="10.00">_OP, LHS, RHS, Cols, Rows,</text>
<text text-anchor="start" x="142" y="-182.5" font-family="Helvetica,sans-Serif" font-size="10.00"> LfType, LVL &gt;, Loc, Params...&gt;</text>
<text text-anchor="middle" x="213" y="-171.5" font-family="Helvetica,sans-Serif" font-size="10.00">::eval_neighbour</text>
</a>
</g>
</g>
<!-- Node1&#45;&gt;Node7 -->
<g id="edge6" class="edge"><title>Node1&#45;&gt;Node7</title>
<path fill="none" stroke="midnightblue" d="M67.0542,-301.174C82.78,-282.32 106.936,-255.71 132,-237 136.377,-233.732 141.053,-230.592 145.864,-227.605"/>
<polygon fill="midnightblue" stroke="midnightblue" points="64.2847,-299.032 60.6509,-308.984 69.6978,-303.47 64.2847,-299.032"/>
</g>
<!-- Node8 -->
<g id="node8" class="node"><title>Node8</title>
<g id="a_node8"><a xlink:href="structvisioncpp_1_1internal_1_1EvalExpr_3_01Assign_3_01LHS_00_01RHS_00_01Cols_00_01Rows_00_01LfT43be900b4dfda243112cb67c417c428f.html#a8e25010545a89cdd62e472aee4d5a51c" target="_top" xlink:title="evaluate function when the internal::ops_category is NeighbourOP. ">
<polygon fill="none" stroke="black" points="134,-82.5 134,-145.5 292,-145.5 292,-82.5 134,-82.5"/>
<text text-anchor="start" x="142" y="-133.5" font-family="Helvetica,sans-Serif" font-size="10.00">visioncpp::internal</text>
<text text-anchor="start" x="142" y="-122.5" font-family="Helvetica,sans-Serif" font-size="10.00">::EvalExpr&lt; Assign&lt;</text>
<text text-anchor="start" x="142" y="-111.5" font-family="Helvetica,sans-Serif" font-size="10.00"> LHS, RHS, Cols, Rows,</text>
<text text-anchor="start" x="142" y="-100.5" font-family="Helvetica,sans-Serif" font-size="10.00"> LfType, LVL &gt;, Loc, Params...&gt;</text>
<text text-anchor="middle" x="213" y="-89.5" font-family="Helvetica,sans-Serif" font-size="10.00">::eval_neighbour</text>
</a>
</g>
</g>
<!-- Node1&#45;&gt;Node8 -->
<g id="edge7" class="edge"><title>Node1&#45;&gt;Node8</title>
<path fill="none" stroke="midnightblue" d="M55.8222,-298.835C66.6639,-262.948 90.9122,-196.795 132,-155 135.282,-151.661 138.894,-148.542 142.713,-145.636"/>
<polygon fill="midnightblue" stroke="midnightblue" points="52.4359,-297.946 53.0002,-308.525 59.1567,-299.903 52.4359,-297.946"/>
</g>
<!-- Node9 -->
<g id="node9" class="node"><title>Node9</title>
<g id="a_node9"><a xlink:href="structvisioncpp_1_1internal_1_1Fill_3_01LeafNode_3_01PlaceHolder_3_01Memory__Type_00_01N_00_01Cof0399f7a786b33683835a8628a6d974a.html#a0339bff1274e6491c7678a83171e0f9a" target="_top" xlink:title="visioncpp::internal\l::Fill\&lt; LeafNode\&lt; PlaceHolder\l\&lt; Memory_Type, N, Cols, Rows,\l Sc \&gt;, LVL \&gt;, Loc, Params...\&gt;\l::fill_neighbour">
<polygon fill="none" stroke="black" points="132,-0.5 132,-63.5 294,-63.5 294,-0.5 132,-0.5"/>
<text text-anchor="start" x="140" y="-51.5" font-family="Helvetica,sans-Serif" font-size="10.00">visioncpp::internal</text>
<text text-anchor="start" x="140" y="-40.5" font-family="Helvetica,sans-Serif" font-size="10.00">::Fill&lt; LeafNode&lt; PlaceHolder</text>
<text text-anchor="start" x="140" y="-29.5" font-family="Helvetica,sans-Serif" font-size="10.00">&lt; Memory_Type, N, Cols, Rows,</text>
<text text-anchor="start" x="140" y="-18.5" font-family="Helvetica,sans-Serif" font-size="10.00"> Sc &gt;, LVL &gt;, Loc, Params...&gt;</text>
<text text-anchor="middle" x="213" y="-7.5" font-family="Helvetica,sans-Serif" font-size="10.00">::fill_neighbour</text>
</a>
</g>
</g>
<!-- Node1&#45;&gt;Node9 -->
<g id="edge8" class="edge"><title>Node1&#45;&gt;Node9</title>
<path fill="none" stroke="midnightblue" d="M51.0675,-298.742C56.3077,-249.719 74.1247,-140.569 132,-73 134.843,-69.6812 138.021,-66.5978 141.426,-63.7382"/>
<polygon fill="midnightblue" stroke="midnightblue" points="47.575,-298.495 50.0825,-308.789 54.5416,-299.178 47.575,-298.495"/>
</g>
</g>
</svg>
