<?xml version="1.0" encoding="UTF-8" standalone="no"?>
<!DOCTYPE svg PUBLIC "-//W3C//DTD SVG 1.1//EN"
 "http://www.w3.org/Graphics/SVG/1.1/DTD/svg11.dtd">
<!-- Generated by graphviz version 2.43.0 (0)
 -->
<!-- Title: visioncpp::internal::tools::tuple::make_tuple Pages: 1 -->
<svg width="837pt" height="1021pt"
 viewBox="0.00 0.00 837.00 1020.50" xmlns="http://www.w3.org/2000/svg" xmlns:xlink="http://www.w3.org/1999/xlink">
<g id="graph0" class="graph" transform="scale(1 1) rotate(0) translate(4 1016.5)">
<title>visioncpp::internal::tools::tuple::make_tuple</title>
<!-- Node1 -->
<g id="node1" class="node">
<title>Node1</title>
<g id="a_node1"><a xlink:title="make_tuple">
<polygon fill="#bfbfbf" stroke="black" points="689,-491.5 689,-521.5 829,-521.5 829,-491.5 689,-491.5"/>
<text text-anchor="start" x="697" y="-509.5" font-family="Helvetica,sans-Serif" font-size="10.00">visioncpp::internal</text>
<text text-anchor="middle" x="759" y="-498.5" font-family="Helvetica,sans-Serif" font-size="10.00">::tools::tuple::make_tuple</text>
</a>
</g>
</g>
<!-- Node2 -->
<g id="node2" class="node">
<title>Node2</title>
<g id="a_node2"><a xlink:href="namespacevisioncpp_1_1internal_1_1tools_1_1tuple.html#a250b510103551795245a4f26c6472dc5" target="_top" xlink:title="append_impl">
<polygon fill="none" stroke="black" points="468,-628.5 468,-658.5 614,-658.5 614,-628.5 468,-628.5"/>
<text text-anchor="start" x="476" y="-646.5" font-family="Helvetica,sans-Serif" font-size="10.00">visioncpp::internal</text>
<text text-anchor="middle" x="541" y="-635.5" font-family="Helvetica,sans-Serif" font-size="10.00">::tools::tuple::append_impl</text>
</a>
</g>
</g>
<!-- Node1&#45;&gt;Node2 -->
<g id="edge1" class="edge">
<title>Node1&#45;&gt;Node2</title>
<path fill="none" stroke="midnightblue" d="M741.24,-529.81C722.45,-554.23 689.77,-591.98 653,-613.5 641.11,-620.46 627.57,-625.84 614.12,-630"/>
<polygon fill="midnightblue" stroke="midnightblue" points="744.07,-531.87 747.28,-521.77 738.47,-527.66 744.07,-531.87"/>
</g>
<!-- Node4 -->
<g id="node4" class="node">
<title>Node4</title>
<g id="a_node4"><a xlink:href="structvisioncpp_1_1internal_1_1CreatePyramidTuple.html#aff671884b9830eef220597855a3004bf" target="_top" xlink:title="create_tuple function:">
<polygon fill="none" stroke="black" points="54,-971 54,-1012 175,-1012 175,-971 54,-971"/>
<text text-anchor="start" x="62" y="-1000" font-family="Helvetica,sans-Serif" font-size="10.00">visioncpp::internal</text>
<text text-anchor="start" x="62" y="-989" font-family="Helvetica,sans-Serif" font-size="10.00">::CreatePyramidTuple</text>
<text text-anchor="middle" x="114.5" y="-978" font-family="Helvetica,sans-Serif" font-size="10.00">::create_tuple</text>
</a>
</g>
</g>
<!-- Node1&#45;&gt;Node4 -->
<g id="edge13" class="edge">
<title>Node1&#45;&gt;Node4</title>
<path fill="none" stroke="midnightblue" d="M746.12,-530.83C728.88,-564.45 694.43,-625.82 653,-668.5 493.45,-832.85 437.06,-865.69 229,-961.5 212.15,-969.26 192.94,-975.29 175.18,-979.85"/>
<polygon fill="midnightblue" stroke="midnightblue" points="749.33,-532.23 750.71,-521.72 743.08,-529.08 749.33,-532.23"/>
</g>
<!-- Node14 -->
<g id="node14" class="node">
<title>Node14</title>
<g id="a_node14"><a xlink:href="structvisioncpp_1_1internal_1_1CreatePyramidTuple_3_01true_00_01Cols_00_01Rows_00_01LeafType_00_c3515e3676f2f298ffd0b791cd97f1c4.html#a700aa73fd19efdf9816ce282e4f6ef1a" target="_top" xlink:title="create_tuple function:">
<polygon fill="none" stroke="black" points="461.5,-508 461.5,-571 620.5,-571 620.5,-508 461.5,-508"/>
<text text-anchor="start" x="469.5" y="-559" font-family="Helvetica,sans-Serif" font-size="10.00">visioncpp::internal</text>
<text text-anchor="start" x="469.5" y="-548" font-family="Helvetica,sans-Serif" font-size="10.00">::CreatePyramidTuple</text>
<text text-anchor="start" x="469.5" y="-537" font-family="Helvetica,sans-Serif" font-size="10.00">&lt; true, Cols, Rows, LeafType,</text>
<text text-anchor="start" x="469.5" y="-526" font-family="Helvetica,sans-Serif" font-size="10.00"> Depth, CurrentDepth, LHS</text>
<text text-anchor="middle" x="541" y="-515" font-family="Helvetica,sans-Serif" font-size="10.00"> &gt;::create_tuple</text>
</a>
</g>
</g>
<!-- Node1&#45;&gt;Node14 -->
<g id="edge14" class="edge">
<title>Node1&#45;&gt;Node14</title>
<path fill="none" stroke="midnightblue" d="M678.69,-518.62C659.74,-521.51 639.52,-524.6 620.6,-527.49"/>
<polygon fill="midnightblue" stroke="midnightblue" points="679.41,-522.05 688.76,-517.08 678.35,-515.13 679.41,-522.05"/>
</g>
<!-- Node15 -->
<g id="node15" class="node">
<title>Node15</title>
<g id="a_node15"><a xlink:href="structvisioncpp_1_1internal_1_1OutputAccessor.html#a317f13dda352fcc86386dc21b6a0c859" target="_top" xlink:title=" ">
<polygon fill="none" stroke="black" points="468,-458.5 468,-488.5 614,-488.5 614,-458.5 468,-458.5"/>
<text text-anchor="start" x="476" y="-476.5" font-family="Helvetica,sans-Serif" font-size="10.00">visioncpp::internal</text>
<text text-anchor="middle" x="541" y="-465.5" font-family="Helvetica,sans-Serif" font-size="10.00">::OutputAccessor::getTuple</text>
</a>
</g>
</g>
<!-- Node1&#45;&gt;Node15 -->
<g id="edge15" class="edge">
<title>Node1&#45;&gt;Node15</title>
<path fill="none" stroke="midnightblue" d="M678.85,-494.41C657.69,-491.18 634.95,-487.7 614.19,-484.53"/>
<polygon fill="midnightblue" stroke="midnightblue" points="678.35,-497.87 688.76,-495.92 679.41,-490.95 678.35,-497.87"/>
</g>
<!-- Node16 -->
<g id="node16" class="node">
<title>Node16</title>
<g id="a_node16"><a xlink:href="structvisioncpp_1_1internal_1_1LocalOutput.html#abc63292a957140f2a601692f3c2983c4" target="_top" xlink:title="getTuple function is used to create and wrap local memory into a tuple">
<polygon fill="none" stroke="black" points="265,-368.5 265,-398.5 393,-398.5 393,-368.5 265,-368.5"/>
<text text-anchor="start" x="273" y="-386.5" font-family="Helvetica,sans-Serif" font-size="10.00">visioncpp::internal</text>
<text text-anchor="middle" x="329" y="-375.5" font-family="Helvetica,sans-Serif" font-size="10.00">::LocalOutput::getTuple</text>
</a>
</g>
</g>
<!-- Node1&#45;&gt;Node16 -->
<g id="edge16" class="edge">
<title>Node1&#45;&gt;Node16</title>
<path fill="none" stroke="midnightblue" d="M735.42,-528.75C715.58,-546.63 684.95,-570.37 653,-580.5 558.1,-610.58 513.74,-632.75 429,-580.5 362.05,-539.21 338.79,-437.27 332.22,-398.65"/>
<polygon fill="midnightblue" stroke="midnightblue" points="738.02,-531.11 742.98,-521.75 733.27,-525.97 738.02,-531.11"/>
</g>
<!-- Node19 -->
<g id="node19" class="node">
<title>Node19</title>
<g id="a_node19"><a xlink:href="structvisioncpp_1_1internal_1_1LocalOutput_3_01false_00_01IsRoot_00_01LC_00_01LR_00_01LeafNode_3ad2e76c561065a363672c4f018afa544.html#a1da6f466f7bbafe87dde5faa4e89d0d3" target="_top" xlink:title=" ">
<polygon fill="none" stroke="black" points="453,-343.5 453,-439.5 629,-439.5 629,-343.5 453,-343.5"/>
<text text-anchor="start" x="461" y="-427.5" font-family="Helvetica,sans-Serif" font-size="10.00">visioncpp::internal</text>
<text text-anchor="start" x="461" y="-416.5" font-family="Helvetica,sans-Serif" font-size="10.00">::LocalOutput&lt; false,</text>
<text text-anchor="start" x="461" y="-405.5" font-family="Helvetica,sans-Serif" font-size="10.00"> IsRoot, LC, LR, LeafNode</text>
<text text-anchor="start" x="461" y="-394.5" font-family="Helvetica,sans-Serif" font-size="10.00">&lt; VisionMemory&lt; in, element</text>
<text text-anchor="start" x="461" y="-383.5" font-family="Helvetica,sans-Serif" font-size="10.00">_category, memory_type::Const,</text>
<text text-anchor="start" x="461" y="-372.5" font-family="Helvetica,sans-Serif" font-size="10.00"> Sclr, Width, Height, Sclr, 1,</text>
<text text-anchor="start" x="461" y="-361.5" font-family="Helvetica,sans-Serif" font-size="10.00"> scope::Global, LVL &gt;, LVL &gt; &gt;</text>
<text text-anchor="middle" x="541" y="-350.5" font-family="Helvetica,sans-Serif" font-size="10.00">::getTuple</text>
</a>
</g>
</g>
<!-- Node1&#45;&gt;Node19 -->
<g id="edge24" class="edge">
<title>Node1&#45;&gt;Node19</title>
<path fill="none" stroke="midnightblue" d="M722.48,-486.53C702.21,-475.22 676.27,-460.9 653,-448.5 645.26,-444.37 637.19,-440.13 629.08,-435.9"/>
<polygon fill="midnightblue" stroke="midnightblue" points="720.93,-489.67 731.36,-491.5 724.34,-483.56 720.93,-489.67"/>
</g>
<!-- Node20 -->
<g id="node20" class="node">
<title>Node20</title>
<g id="a_node20"><a xlink:href="structvisioncpp_1_1internal_1_1LocalOutput_3_01false_00_01IsRoot_00_01LC_00_01LR_00_01LeafNode_3fe8871ad58f0f38f156e00013cb5a346.html#a91a60c0bce9205340862fff96887fd4e" target="_top" xlink:title=" ">
<polygon fill="none" stroke="black" points="429,-239 429,-324 653,-324 653,-239 429,-239"/>
<text text-anchor="start" x="437" y="-312" font-family="Helvetica,sans-Serif" font-size="10.00">visioncpp::internal</text>
<text text-anchor="start" x="437" y="-301" font-family="Helvetica,sans-Serif" font-size="10.00">::LocalOutput&lt; false,</text>
<text text-anchor="start" x="437" y="-290" font-family="Helvetica,sans-Serif" font-size="10.00"> IsRoot, LC, LR, LeafNode</text>
<text text-anchor="start" x="437" y="-279" font-family="Helvetica,sans-Serif" font-size="10.00">&lt; VisionMemory&lt; in, element</text>
<text text-anchor="start" x="437" y="-268" font-family="Helvetica,sans-Serif" font-size="10.00">_category, Memory_Type, Scalar,</text>
<text text-anchor="start" x="437" y="-257" font-family="Helvetica,sans-Serif" font-size="10.00"> Width, Height, ElementTp, Elements,</text>
<text text-anchor="middle" x="541" y="-246" font-family="Helvetica,sans-Serif" font-size="10.00"> scope::Constant, LVL &gt;, LVL &gt; &gt;::getTuple</text>
</a>
</g>
</g>
<!-- Node1&#45;&gt;Node20 -->
<g id="edge25" class="edge">
<title>Node1&#45;&gt;Node20</title>
<path fill="none" stroke="midnightblue" d="M748.42,-481.59C733.21,-444.87 700.31,-375.98 653,-333.5 649.36,-330.23 645.47,-327.13 641.42,-324.19"/>
<polygon fill="midnightblue" stroke="midnightblue" points="745.25,-483.08 752.24,-491.04 751.74,-480.46 745.25,-483.08"/>
</g>
<!-- Node21 -->
<g id="node21" class="node">
<title>Node21</title>
<g id="a_node21"><a xlink:href="structvisioncpp_1_1pixel_1_1Storage.html#aa3406259403c9cb457c83ecefb2cd1d9" target="_top" xlink:title=" ">
<polygon fill="none" stroke="black" points="473,-189.5 473,-219.5 609,-219.5 609,-189.5 473,-189.5"/>
<text text-anchor="start" x="481" y="-207.5" font-family="Helvetica,sans-Serif" font-size="10.00">visioncpp::pixel::Storage</text>
<text text-anchor="middle" x="541" y="-196.5" font-family="Helvetica,sans-Serif" font-size="10.00">::Storage</text>
</a>
</g>
</g>
<!-- Node1&#45;&gt;Node21 -->
<g id="edge26" class="edge">
<title>Node1&#45;&gt;Node21</title>
<path fill="none" stroke="midnightblue" d="M756.18,-481.24C750.82,-426.5 730.2,-296.53 653,-229.5 640.77,-218.88 624.98,-212.5 609.18,-208.73"/>
<polygon fill="midnightblue" stroke="midnightblue" points="752.71,-481.78 757.08,-491.43 759.69,-481.16 752.71,-481.78"/>
</g>
<!-- Node3 -->
<g id="node3" class="node">
<title>Node3</title>
<g id="a_node3"><a xlink:href="namespacevisioncpp_1_1internal_1_1tools_1_1tuple.html#a8c1631050539cb92a3ac408ab976fb96" target="_top" xlink:title="append">
<polygon fill="none" stroke="black" points="269.5,-628.5 269.5,-658.5 388.5,-658.5 388.5,-628.5 269.5,-628.5"/>
<text text-anchor="start" x="277.5" y="-646.5" font-family="Helvetica,sans-Serif" font-size="10.00">visioncpp::internal</text>
<text text-anchor="middle" x="329" y="-635.5" font-family="Helvetica,sans-Serif" font-size="10.00">::tools::tuple::append</text>
</a>
</g>
</g>
<!-- Node2&#45;&gt;Node3 -->
<g id="edge2" class="edge">
<title>Node2&#45;&gt;Node3</title>
<path fill="none" stroke="midnightblue" d="M457.6,-643.5C434.51,-643.5 409.89,-643.5 388.5,-643.5"/>
<polygon fill="midnightblue" stroke="midnightblue" points="457.73,-647 467.73,-643.5 457.73,-640 457.73,-647"/>
</g>
<!-- Node3&#45;&gt;Node4 -->
<g id="edge3" class="edge">
<title>Node3&#45;&gt;Node4</title>
<path fill="none" stroke="midnightblue" d="M320.22,-668.77C297.11,-743.79 230.38,-960.18 229,-961.5 214.5,-975.38 194.35,-983.03 175.06,-987.17"/>
<polygon fill="midnightblue" stroke="midnightblue" points="323.7,-669.35 323.3,-658.76 317.01,-667.29 323.7,-669.35"/>
</g>
<!-- Node5 -->
<g id="node5" class="node">
<title>Node5</title>
<g id="a_node5"><a xlink:href="classvisioncpp_1_1internal_1_1Device___3_01backend_1_1sycl_00_01dv_01_4.html#afcdfa0256e3cae4ed2702b6c79d02e8c" target="_top" xlink:title=" ">
<polygon fill="none" stroke="black" points="55,-911 55,-952 174,-952 174,-911 55,-911"/>
<text text-anchor="start" x="63" y="-940" font-family="Helvetica,sans-Serif" font-size="10.00">visioncpp::internal</text>
<text text-anchor="start" x="63" y="-929" font-family="Helvetica,sans-Serif" font-size="10.00">::Device_&lt; backend::</text>
<text text-anchor="middle" x="114.5" y="-918" font-family="Helvetica,sans-Serif" font-size="10.00">sycl, dv &gt;::execute</text>
</a>
</g>
</g>
<!-- Node3&#45;&gt;Node5 -->
<g id="edge4" class="edge">
<title>Node3&#45;&gt;Node5</title>
<path fill="none" stroke="midnightblue" d="M321.55,-668.43C306.02,-726.64 265.13,-869.07 229,-901.5 213.98,-914.98 193.61,-922.52 174.26,-926.7"/>
<polygon fill="midnightblue" stroke="midnightblue" points="324.98,-669.14 324.15,-658.58 318.21,-667.36 324.98,-669.14"/>
</g>
<!-- Node6 -->
<g id="node6" class="node">
<title>Node6</title>
<g id="a_node6"><a xlink:href="structvisioncpp_1_1internal_1_1ExtractAccessor_3_01expr__category_1_1Binary_00_01Expr_01_4.html#a5d116934fc21c31523d1e3c8e2becc94" target="_top" xlink:title=" ">
<polygon fill="none" stroke="black" points="47.5,-839.5 47.5,-891.5 181.5,-891.5 181.5,-839.5 47.5,-839.5"/>
<text text-anchor="start" x="55.5" y="-879.5" font-family="Helvetica,sans-Serif" font-size="10.00">visioncpp::internal</text>
<text text-anchor="start" x="55.5" y="-868.5" font-family="Helvetica,sans-Serif" font-size="10.00">::ExtractAccessor&lt; expr</text>
<text text-anchor="start" x="55.5" y="-857.5" font-family="Helvetica,sans-Serif" font-size="10.00">_category::Binary, Expr</text>
<text text-anchor="middle" x="114.5" y="-846.5" font-family="Helvetica,sans-Serif" font-size="10.00"> &gt;::getTuple</text>
</a>
</g>
</g>
<!-- Node3&#45;&gt;Node6 -->
<g id="edge5" class="edge">
<title>Node3&#45;&gt;Node6</title>
<path fill="none" stroke="midnightblue" d="M321.54,-668.39C309.87,-708.44 281.47,-787.06 229,-830.5 215.5,-841.68 198.45,-849.29 181.7,-854.47"/>
<polygon fill="midnightblue" stroke="midnightblue" points="324.95,-669.21 324.27,-658.63 318.21,-667.32 324.95,-669.21"/>
</g>
<!-- Node7 -->
<g id="node7" class="node">
<title>Node7</title>
<g id="a_node7"><a xlink:href="structvisioncpp_1_1internal_1_1ExtractAccessor_3_01expr__category_1_1Binary_00_01Assign_3_01LHSEfc4abae0aea7202de83232c2cd152bfb.html#aa4086a76436635bb7049586e7110310c" target="_top" xlink:title=" ">
<polygon fill="none" stroke="black" points="41.5,-746.5 41.5,-820.5 187.5,-820.5 187.5,-746.5 41.5,-746.5"/>
<text text-anchor="start" x="49.5" y="-808.5" font-family="Helvetica,sans-Serif" font-size="10.00">visioncpp::internal</text>
<text text-anchor="start" x="49.5" y="-797.5" font-family="Helvetica,sans-Serif" font-size="10.00">::ExtractAccessor&lt; expr</text>
<text text-anchor="start" x="49.5" y="-786.5" font-family="Helvetica,sans-Serif" font-size="10.00">_category::Binary, Assign</text>
<text text-anchor="start" x="49.5" y="-775.5" font-family="Helvetica,sans-Serif" font-size="10.00">&lt; LHSExpr, RHSExpr, Cols,</text>
<text text-anchor="start" x="49.5" y="-764.5" font-family="Helvetica,sans-Serif" font-size="10.00"> Rows, LeafType, LVL &gt; &gt;::</text>
<text text-anchor="middle" x="114.5" y="-753.5" font-family="Helvetica,sans-Serif" font-size="10.00">getTuple</text>
</a>
</g>
</g>
<!-- Node3&#45;&gt;Node7 -->
<g id="edge6" class="edge">
<title>Node3&#45;&gt;Node7</title>
<path fill="none" stroke="midnightblue" d="M308.49,-666.41C289.81,-687.2 259.96,-717.56 229,-737.5 216.31,-745.68 201.93,-752.85 187.77,-758.96"/>
<polygon fill="midnightblue" stroke="midnightblue" points="311.31,-668.5 315.31,-658.68 306.07,-663.86 311.31,-668.5"/>
</g>
<!-- Node8 -->
<g id="node8" class="node">
<title>Node8</title>
<g id="a_node8"><a xlink:href="structvisioncpp_1_1internal_1_1ExtractAccessor_3_01expr__category_1_1Binary_00_01ParallelCopy_3_72ed56ce6c8a26655ece6832b967cb17.html#ab943e0d7457334ea1861bc3f0155cf74" target="_top" xlink:title=" ">
<polygon fill="none" stroke="black" points="0,-653.5 0,-727.5 229,-727.5 229,-653.5 0,-653.5"/>
<text text-anchor="start" x="8" y="-715.5" font-family="Helvetica,sans-Serif" font-size="10.00">visioncpp::internal</text>
<text text-anchor="start" x="8" y="-704.5" font-family="Helvetica,sans-Serif" font-size="10.00">::ExtractAccessor&lt; expr</text>
<text text-anchor="start" x="8" y="-693.5" font-family="Helvetica,sans-Serif" font-size="10.00">_category::Binary, ParallelCopy</text>
<text text-anchor="start" x="8" y="-682.5" font-family="Helvetica,sans-Serif" font-size="10.00">&lt; LHSExpr, RHSExpr, Cols, Rows,</text>
<text text-anchor="start" x="8" y="-671.5" font-family="Helvetica,sans-Serif" font-size="10.00"> OffsetColIn, OffsetRowIn, OffsetColOut,</text>
<text text-anchor="middle" x="114.5" y="-660.5" font-family="Helvetica,sans-Serif" font-size="10.00"> OffsetRowOut, LeafType, LVL &gt; &gt;::getTuple</text>
</a>
</g>
</g>
<!-- Node3&#45;&gt;Node8 -->
<g id="edge7" class="edge">
<title>Node3&#45;&gt;Node8</title>
<path fill="none" stroke="midnightblue" d="M259.47,-658.66C249.79,-660.8 239.63,-663.04 229.38,-665.31"/>
<polygon fill="midnightblue" stroke="midnightblue" points="260.36,-662.04 269.37,-656.47 258.85,-655.21 260.36,-662.04"/>
</g>
<!-- Node9 -->
<g id="node9" class="node">
<title>Node9</title>
<g id="a_node9"><a xlink:href="structvisioncpp_1_1internal_1_1LocalOutput_3_01false_00_01IsRoot_00_01LC_00_01LR_00_01RUnOP_3_01222dc31e6f7adbfd1b3ba76b431263e2.html#a17c779f1e6fa85ef39237eb5db93cec8" target="_top" xlink:title=" ">
<polygon fill="none" stroke="black" points="37,-396 37,-459 192,-459 192,-396 37,-396"/>
<text text-anchor="start" x="45" y="-447" font-family="Helvetica,sans-Serif" font-size="10.00">visioncpp::internal</text>
<text text-anchor="start" x="45" y="-436" font-family="Helvetica,sans-Serif" font-size="10.00">::LocalOutput&lt; false,</text>
<text text-anchor="start" x="45" y="-425" font-family="Helvetica,sans-Serif" font-size="10.00"> IsRoot, LC, LR, RUnOP</text>
<text text-anchor="start" x="45" y="-414" font-family="Helvetica,sans-Serif" font-size="10.00">&lt; OP, RHSExpr, Cols, Rows,</text>
<text text-anchor="middle" x="114.5" y="-403" font-family="Helvetica,sans-Serif" font-size="10.00"> LeafType, LVL &gt; &gt;::getTuple</text>
</a>
</g>
</g>
<!-- Node3&#45;&gt;Node9 -->
<g id="edge8" class="edge">
<title>Node3&#45;&gt;Node9</title>
<path fill="none" stroke="midnightblue" d="M320.21,-618.58C307.21,-580.93 277.63,-509.57 229,-468.5 218.28,-459.44 205.39,-452.32 192.21,-446.73"/>
<polygon fill="midnightblue" stroke="midnightblue" points="316.95,-619.88 323.44,-628.26 323.59,-617.66 316.95,-619.88"/>
</g>
<!-- Node10 -->
<g id="node10" class="node">
<title>Node10</title>
<g id="a_node10"><a xlink:href="structvisioncpp_1_1internal_1_1LocalOutput_3_01false_00_01IsRoot_00_01LC_00_01LR_00_01RBiOP_3_012aff2f4a38a6baec8f8e4876a21ac04d.html#af800e26ee624f9e5e3b021015a89f457" target="_top" xlink:title=" ">
<polygon fill="none" stroke="black" points="42,-302.5 42,-376.5 187,-376.5 187,-302.5 42,-302.5"/>
<text text-anchor="start" x="50" y="-364.5" font-family="Helvetica,sans-Serif" font-size="10.00">visioncpp::internal</text>
<text text-anchor="start" x="50" y="-353.5" font-family="Helvetica,sans-Serif" font-size="10.00">::LocalOutput&lt; false,</text>
<text text-anchor="start" x="50" y="-342.5" font-family="Helvetica,sans-Serif" font-size="10.00"> IsRoot, LC, LR, RBiOP</text>
<text text-anchor="start" x="50" y="-331.5" font-family="Helvetica,sans-Serif" font-size="10.00">&lt; OP, LHSExpr, RHSExpr,</text>
<text text-anchor="start" x="50" y="-320.5" font-family="Helvetica,sans-Serif" font-size="10.00"> Cols, Rows, LeafType, LVL</text>
<text text-anchor="middle" x="114.5" y="-309.5" font-family="Helvetica,sans-Serif" font-size="10.00"> &gt; &gt;::getTuple</text>
</a>
</g>
</g>
<!-- Node3&#45;&gt;Node10 -->
<g id="edge9" class="edge">
<title>Node3&#45;&gt;Node10</title>
<path fill="none" stroke="midnightblue" d="M324.93,-618.19C317.51,-567.63 294.16,-453.31 229,-386.5 217.46,-374.67 202.5,-365.69 187.26,-358.93"/>
<polygon fill="midnightblue" stroke="midnightblue" points="321.48,-618.81 326.31,-628.24 328.41,-617.86 321.48,-618.81"/>
</g>
<!-- Node11 -->
<g id="node11" class="node">
<title>Node11</title>
<g id="a_node11"><a xlink:href="structvisioncpp_1_1internal_1_1LocalOutput_3_01false_00_01IsRoot_00_01LC_00_01LR_00_01StnFilt_3_78467c599a542dd94fd0a9e3d6a02a30.html#a50566348e971a8dd50644cbdec9725e5" target="_top" xlink:title=" ">
<polygon fill="none" stroke="black" points="31,-198 31,-283 198,-283 198,-198 31,-198"/>
<text text-anchor="start" x="39" y="-271" font-family="Helvetica,sans-Serif" font-size="10.00">visioncpp::internal</text>
<text text-anchor="start" x="39" y="-260" font-family="Helvetica,sans-Serif" font-size="10.00">::LocalOutput&lt; false,</text>
<text text-anchor="start" x="39" y="-249" font-family="Helvetica,sans-Serif" font-size="10.00"> IsRoot, LC, LR, StnFilt</text>
<text text-anchor="start" x="39" y="-238" font-family="Helvetica,sans-Serif" font-size="10.00">&lt; OP, Halo_T, Halo_L, Halo</text>
<text text-anchor="start" x="39" y="-227" font-family="Helvetica,sans-Serif" font-size="10.00">_B, Halo_R, LHSExpr, RHSExpr,</text>
<text text-anchor="start" x="39" y="-216" font-family="Helvetica,sans-Serif" font-size="10.00"> Cols, Rows, LeafType, LVL &gt;</text>
<text text-anchor="middle" x="114.5" y="-205" font-family="Helvetica,sans-Serif" font-size="10.00"> &gt;::getTuple</text>
</a>
</g>
</g>
<!-- Node3&#45;&gt;Node11 -->
<g id="edge10" class="edge">
<title>Node3&#45;&gt;Node11</title>
<path fill="none" stroke="midnightblue" d="M321.16,-618.18C299.66,-538.67 234.49,-298.92 229,-292.5 220.47,-282.54 209.64,-274.38 198.06,-267.73"/>
<polygon fill="midnightblue" stroke="midnightblue" points="317.91,-619.55 323.9,-628.29 324.67,-617.72 317.91,-619.55"/>
</g>
<!-- Node12 -->
<g id="node12" class="node">
<title>Node12</title>
<g id="a_node12"><a xlink:href="structvisioncpp_1_1internal_1_1LocalOutput_3_01false_00_01IsRoot_00_01LC_00_01LR_00_01StnNoFilt_d45bb2f039daef54effcd1874753b2c3.html#a7ca4ad4544d257ccaa61badc635beb37" target="_top" xlink:title=" ">
<polygon fill="none" stroke="black" points="20.5,-560.5 20.5,-634.5 208.5,-634.5 208.5,-560.5 20.5,-560.5"/>
<text text-anchor="start" x="28.5" y="-622.5" font-family="Helvetica,sans-Serif" font-size="10.00">visioncpp::internal</text>
<text text-anchor="start" x="28.5" y="-611.5" font-family="Helvetica,sans-Serif" font-size="10.00">::LocalOutput&lt; false,</text>
<text text-anchor="start" x="28.5" y="-600.5" font-family="Helvetica,sans-Serif" font-size="10.00"> IsRoot, LC, LR, StnNoFilt</text>
<text text-anchor="start" x="28.5" y="-589.5" font-family="Helvetica,sans-Serif" font-size="10.00">&lt; OP, Halo_T, Halo_L, Halo</text>
<text text-anchor="start" x="28.5" y="-578.5" font-family="Helvetica,sans-Serif" font-size="10.00">_B, Halo_R, RHSExpr, Cols,</text>
<text text-anchor="middle" x="114.5" y="-567.5" font-family="Helvetica,sans-Serif" font-size="10.00"> Rows, LeafType, LVL &gt; &gt;::getTuple</text>
</a>
</g>
</g>
<!-- Node3&#45;&gt;Node12 -->
<g id="edge11" class="edge">
<title>Node3&#45;&gt;Node12</title>
<path fill="none" stroke="midnightblue" d="M259.47,-628.67C243.27,-625.16 225.73,-621.36 208.64,-617.66"/>
<polygon fill="midnightblue" stroke="midnightblue" points="258.86,-632.11 269.37,-630.81 260.34,-625.27 258.86,-632.11"/>
</g>
<!-- Node13 -->
<g id="node13" class="node">
<title>Node13</title>
<g id="a_node13"><a xlink:href="structvisioncpp_1_1internal_1_1LocalOutput_3_01false_00_01IsRoot_00_01LC_00_01LR_00_01RDCN_3_01O985b5cf5bfc049f9ae66cfbe725d4e32.html#a85cc60fe30b8670638b13c098a889ad6" target="_top" xlink:title=" ">
<polygon fill="none" stroke="black" points="37,-478 37,-541 192,-541 192,-478 37,-478"/>
<text text-anchor="start" x="45" y="-529" font-family="Helvetica,sans-Serif" font-size="10.00">visioncpp::internal</text>
<text text-anchor="start" x="45" y="-518" font-family="Helvetica,sans-Serif" font-size="10.00">::LocalOutput&lt; false,</text>
<text text-anchor="start" x="45" y="-507" font-family="Helvetica,sans-Serif" font-size="10.00"> IsRoot, LC, LR, RDCN</text>
<text text-anchor="start" x="45" y="-496" font-family="Helvetica,sans-Serif" font-size="10.00">&lt; OP, RHSExpr, Cols, Rows,</text>
<text text-anchor="middle" x="114.5" y="-485" font-family="Helvetica,sans-Serif" font-size="10.00"> LeafType, LVL &gt; &gt;::getTuple</text>
</a>
</g>
</g>
<!-- Node3&#45;&gt;Node13 -->
<g id="edge12" class="edge">
<title>Node3&#45;&gt;Node13</title>
<path fill="none" stroke="midnightblue" d="M308.21,-620.54C289.54,-600.07 259.87,-570.5 229,-551.5 217.64,-544.51 204.93,-538.4 192.24,-533.17"/>
<polygon fill="midnightblue" stroke="midnightblue" points="305.76,-623.05 315.04,-628.16 310.97,-618.38 305.76,-623.05"/>
</g>
<!-- Node16&#45;&gt;Node9 -->
<g id="edge17" class="edge">
<title>Node16&#45;&gt;Node9</title>
<path fill="none" stroke="midnightblue" d="M254.77,-398.66C234.61,-402.84 212.7,-407.37 192.34,-411.59"/>
<polygon fill="midnightblue" stroke="midnightblue" points="255.74,-402.04 264.82,-396.58 254.32,-395.18 255.74,-402.04"/>
</g>
<!-- Node16&#45;&gt;Node10 -->
<g id="edge18" class="edge">
<title>Node16&#45;&gt;Node10</title>
<path fill="none" stroke="midnightblue" d="M254.89,-368.36C232.93,-363.81 208.87,-358.83 187.01,-354.31"/>
<polygon fill="midnightblue" stroke="midnightblue" points="254.32,-371.82 264.82,-370.42 255.74,-364.96 254.32,-371.82"/>
</g>
<!-- Node16&#45;&gt;Node11 -->
<g id="edge19" class="edge">
<title>Node16&#45;&gt;Node11</title>
<path fill="none" stroke="midnightblue" d="M307.49,-361C288.54,-341.14 258.87,-312.35 229,-292.5 219.34,-286.08 208.76,-280.08 198.07,-274.59"/>
<polygon fill="midnightblue" stroke="midnightblue" points="305.05,-363.51 314.45,-368.39 310.14,-358.71 305.05,-363.51"/>
</g>
<!-- Node16&#45;&gt;Node12 -->
<g id="edge20" class="edge">
<title>Node16&#45;&gt;Node12</title>
<path fill="none" stroke="midnightblue" d="M319.18,-408.28C305.24,-444.19 274.9,-510.72 229,-550.5 222.8,-555.88 215.89,-560.7 208.63,-565.02"/>
<polygon fill="midnightblue" stroke="midnightblue" points="322.57,-409.19 322.82,-398.6 316.02,-406.73 322.57,-409.19"/>
</g>
<!-- Node16&#45;&gt;Node13 -->
<g id="edge21" class="edge">
<title>Node16&#45;&gt;Node13</title>
<path fill="none" stroke="midnightblue" d="M306.42,-406.16C287.49,-424.96 258.45,-451.32 229,-468.5 217.51,-475.2 204.73,-481.1 192.02,-486.19"/>
<polygon fill="midnightblue" stroke="midnightblue" points="309.35,-408.18 313.89,-398.61 304.37,-403.26 309.35,-408.18"/>
</g>
<!-- Node17 -->
<g id="node17" class="node">
<title>Node17</title>
<g id="a_node17"><a xlink:href="structvisioncpp_1_1internal_1_1LocalOutput_3_01false_00_01IsRoot_00_01LC_00_01LR_00_01ParallelCo0635c30aec900fbff57bf53b317d8606.html#a9c82dc26017dc8a4ab0af214d0686e90" target="_top" xlink:title=" ">
<polygon fill="none" stroke="black" points="10.5,-94 10.5,-179 218.5,-179 218.5,-94 10.5,-94"/>
<text text-anchor="start" x="18.5" y="-167" font-family="Helvetica,sans-Serif" font-size="10.00">visioncpp::internal</text>
<text text-anchor="start" x="18.5" y="-156" font-family="Helvetica,sans-Serif" font-size="10.00">::LocalOutput&lt; false,</text>
<text text-anchor="start" x="18.5" y="-145" font-family="Helvetica,sans-Serif" font-size="10.00"> IsRoot, LC, LR, ParallelCopy</text>
<text text-anchor="start" x="18.5" y="-134" font-family="Helvetica,sans-Serif" font-size="10.00">&lt; LHSExpr, RHSExpr, Cols,</text>
<text text-anchor="start" x="18.5" y="-123" font-family="Helvetica,sans-Serif" font-size="10.00"> Rows, OffsetColIn, OffsetRowIn,</text>
<text text-anchor="start" x="18.5" y="-112" font-family="Helvetica,sans-Serif" font-size="10.00"> OffsetColOut, OffsetRowOut, LeafType,</text>
<text text-anchor="middle" x="114.5" y="-101" font-family="Helvetica,sans-Serif" font-size="10.00"> LVL &gt; &gt;::getTuple</text>
</a>
</g>
</g>
<!-- Node16&#45;&gt;Node17 -->
<g id="edge22" class="edge">
<title>Node16&#45;&gt;Node17</title>
<path fill="none" stroke="midnightblue" d="M321.24,-358.63C309.08,-318.1 279.9,-237.39 229,-188.5 225.56,-185.2 221.88,-182.08 218.01,-179.13"/>
<polygon fill="midnightblue" stroke="midnightblue" points="317.95,-359.86 324.1,-368.49 324.68,-357.91 317.95,-359.86"/>
</g>
<!-- Node18 -->
<g id="node18" class="node">
<title>Node18</title>
<g id="a_node18"><a xlink:href="structvisioncpp_1_1internal_1_1LocalOutput_3_01false_00_01IsRoot_00_01LC_00_01LR_00_01Assign_3_06265906cf16848ff64f1f1331ad98423.html#aa583c6c4056fc0f4273b5f7eff7603ed" target="_top" xlink:title=" ">
<polygon fill="none" stroke="black" points="41.5,-0.5 41.5,-74.5 187.5,-74.5 187.5,-0.5 41.5,-0.5"/>
<text text-anchor="start" x="49.5" y="-62.5" font-family="Helvetica,sans-Serif" font-size="10.00">visioncpp::internal</text>
<text text-anchor="start" x="49.5" y="-51.5" font-family="Helvetica,sans-Serif" font-size="10.00">::LocalOutput&lt; false,</text>
<text text-anchor="start" x="49.5" y="-40.5" font-family="Helvetica,sans-Serif" font-size="10.00"> IsRoot, LC, LR, Assign</text>
<text text-anchor="start" x="49.5" y="-29.5" font-family="Helvetica,sans-Serif" font-size="10.00">&lt; LHSExpr, RHSExpr, Cols,</text>
<text text-anchor="start" x="49.5" y="-18.5" font-family="Helvetica,sans-Serif" font-size="10.00"> Rows, LeafType, LVL &gt; &gt;</text>
<text text-anchor="middle" x="114.5" y="-7.5" font-family="Helvetica,sans-Serif" font-size="10.00">::getTuple</text>
</a>
</g>
</g>
<!-- Node16&#45;&gt;Node18 -->
<g id="edge23" class="edge">
<title>Node16&#45;&gt;Node18</title>
<path fill="none" stroke="midnightblue" d="M326.53,-358.07C321.94,-301.61 303.35,-164.47 229,-84.5 217.75,-72.39 202.9,-63.31 187.68,-56.53"/>
<polygon fill="midnightblue" stroke="midnightblue" points="323.05,-358.53 327.27,-368.25 330.03,-358.02 323.05,-358.53"/>
</g>
</g>
</svg>
