<?xml version="1.0" encoding="UTF-8" standalone="no"?>
<!DOCTYPE svg PUBLIC "-//W3C//DTD SVG 1.1//EN"
 "http://www.w3.org/Graphics/SVG/1.1/DTD/svg11.dtd">
<!-- Generated by graphviz version 2.43.0 (0)
 -->
<!-- Title: visioncpp::internal::tools::tuple::get Pages: 1 -->
<svg width="309pt" height="276pt"
 viewBox="0.00 0.00 309.00 275.50" xmlns="http://www.w3.org/2000/svg" xmlns:xlink="http://www.w3.org/1999/xlink">
<g id="graph0" class="graph" transform="scale(1 1) rotate(0) translate(4 271.5)">
<title>visioncpp::internal::tools::tuple::get</title>
<!-- Node1 -->
<g id="node1" class="node">
<title>Node1</title>
<g id="a_node1"><a xlink:title="get">
<polygon fill="#bfbfbf" stroke="black" points="194,-94 194,-124 301,-124 301,-94 194,-94"/>
<text text-anchor="start" x="202" y="-112" font-family="Helvetica,sans-Serif" font-size="10.00">visioncpp::internal</text>
<text text-anchor="middle" x="247.5" y="-101" font-family="Helvetica,sans-Serif" font-size="10.00">::tools::tuple::get</text>
</a>
</g>
</g>
<!-- Node2 -->
<g id="node2" class="node">
<title>Node2</title>
<g id="a_node2"><a xlink:href="structvisioncpp_1_1internal_1_1EvalExpr_3_01LeafNode_3_01PlaceHolder_3_01Memory__Type_00_01N_00_a373babff85953e27c959c84832290e8.html#a1a6e8adbe76da30a153462e51549c7ee" target="_top" xlink:title="evaluate function when the internal::ops_category is NeighbourOP.">
<polygon fill="none" stroke="black" points="4.5,-193 4.5,-267 153.5,-267 153.5,-193 4.5,-193"/>
<text text-anchor="start" x="12.5" y="-255" font-family="Helvetica,sans-Serif" font-size="10.00">visioncpp::internal</text>
<text text-anchor="start" x="12.5" y="-244" font-family="Helvetica,sans-Serif" font-size="10.00">::EvalExpr&lt; LeafNode</text>
<text text-anchor="start" x="12.5" y="-233" font-family="Helvetica,sans-Serif" font-size="10.00">&lt; PlaceHolder&lt; Memory</text>
<text text-anchor="start" x="12.5" y="-222" font-family="Helvetica,sans-Serif" font-size="10.00">_Type, N, Cols, Rows,</text>
<text text-anchor="start" x="12.5" y="-211" font-family="Helvetica,sans-Serif" font-size="10.00"> Sc &gt;, LVL &gt;, Loc, Params...</text>
<text text-anchor="middle" x="79" y="-200" font-family="Helvetica,sans-Serif" font-size="10.00"> &gt;::eval_neighbour</text>
</a>
</g>
</g>
<!-- Node1&#45;&gt;Node2 -->
<g id="edge1" class="edge">
<title>Node1&#45;&gt;Node2</title>
<path fill="none" stroke="midnightblue" d="M221.9,-131.33C204.59,-146.6 180.56,-166.91 158,-183 153.37,-186.3 148.49,-189.61 143.54,-192.85"/>
<polygon fill="midnightblue" stroke="midnightblue" points="224.69,-133.54 229.83,-124.28 220.03,-128.31 224.69,-133.54"/>
</g>
<!-- Node3 -->
<g id="node3" class="node">
<title>Node3</title>
<g id="a_node3"><a xlink:href="structvisioncpp_1_1internal_1_1EvalExpr_3_01Assign_3_01LHS_00_01RHS_00_01Cols_00_01Rows_00_01LfTeef9e8bb9ee55fb68584e2a0065c5dfc.html#a74179b14c4b68fb166bb9d2f6960684f" target="_top" xlink:title="evaluate function when the internal::ops_category is NeighbourOP.">
<polygon fill="none" stroke="black" points="0,-110.5 0,-173.5 158,-173.5 158,-110.5 0,-110.5"/>
<text text-anchor="start" x="8" y="-161.5" font-family="Helvetica,sans-Serif" font-size="10.00">visioncpp::internal</text>
<text text-anchor="start" x="8" y="-150.5" font-family="Helvetica,sans-Serif" font-size="10.00">::EvalExpr&lt; Assign&lt;</text>
<text text-anchor="start" x="8" y="-139.5" font-family="Helvetica,sans-Serif" font-size="10.00"> LHS, RHS, Cols, Rows,</text>
<text text-anchor="start" x="8" y="-128.5" font-family="Helvetica,sans-Serif" font-size="10.00"> LfType, LVL &gt;, Loc, Params...</text>
<text text-anchor="middle" x="79" y="-117.5" font-family="Helvetica,sans-Serif" font-size="10.00"> &gt;::eval_neighbour</text>
</a>
</g>
</g>
<!-- Node1&#45;&gt;Node3 -->
<g id="edge2" class="edge">
<title>Node1&#45;&gt;Node3</title>
<path fill="none" stroke="midnightblue" d="M183.79,-121.43C175.43,-123.09 166.78,-124.8 158.19,-126.5"/>
<polygon fill="midnightblue" stroke="midnightblue" points="184.69,-124.82 193.82,-119.44 183.33,-117.95 184.69,-124.82"/>
</g>
<!-- Node4 -->
<g id="node4" class="node">
<title>Node4</title>
<g id="a_node4"><a xlink:href="namespacevisioncpp_1_1internal_1_1tools_1_1tuple.html#a413e9f9e829e9722fbdc7529adac358f" target="_top" xlink:title="get">
<polygon fill="none" stroke="black" points="25.5,-61 25.5,-91 132.5,-91 132.5,-61 25.5,-61"/>
<text text-anchor="start" x="33.5" y="-79" font-family="Helvetica,sans-Serif" font-size="10.00">visioncpp::internal</text>
<text text-anchor="middle" x="79" y="-68" font-family="Helvetica,sans-Serif" font-size="10.00">::tools::tuple::get</text>
</a>
</g>
</g>
<!-- Node1&#45;&gt;Node4 -->
<g id="edge3" class="edge">
<title>Node1&#45;&gt;Node4</title>
<path fill="none" stroke="midnightblue" d="M183.54,-96.52C166.76,-93.19 148.79,-89.63 132.62,-86.43"/>
<polygon fill="midnightblue" stroke="midnightblue" points="183.33,-100.05 193.82,-98.56 184.69,-93.18 183.33,-100.05"/>
</g>
<!-- Node5 -->
<g id="node5" class="node">
<title>Node5</title>
<g id="a_node5"><a xlink:href="structvisioncpp_1_1internal_1_1ParallelCopy.html#a60fc8f865599b5153363c4b60099aadf" target="_top" xlink:title="sub_expression_evaluation">
<polygon fill="none" stroke="black" points="13,-0.5 13,-41.5 145,-41.5 145,-0.5 13,-0.5"/>
<text text-anchor="start" x="21" y="-29.5" font-family="Helvetica,sans-Serif" font-size="10.00">visioncpp::internal</text>
<text text-anchor="start" x="21" y="-18.5" font-family="Helvetica,sans-Serif" font-size="10.00">::ParallelCopy::sub</text>
<text text-anchor="middle" x="79" y="-7.5" font-family="Helvetica,sans-Serif" font-size="10.00">_expression_evaluation</text>
</a>
</g>
</g>
<!-- Node1&#45;&gt;Node5 -->
<g id="edge4" class="edge">
<title>Node1&#45;&gt;Node5</title>
<path fill="none" stroke="midnightblue" d="M217.41,-88.22C200.54,-76.71 178.62,-62.61 158,-52 150.87,-48.33 143.21,-44.81 135.57,-41.54"/>
<polygon fill="midnightblue" stroke="midnightblue" points="215.52,-91.17 225.73,-93.98 219.5,-85.41 215.52,-91.17"/>
</g>
</g>
</svg>
