<?xml version="1.0" encoding="UTF-8" standalone="no"?>
<!DOCTYPE svg PUBLIC "-//W3C//DTD SVG 1.1//EN"
 "http://www.w3.org/Graphics/SVG/1.1/DTD/svg11.dtd">
<!-- Generated by graphviz version 2.43.0 (0)
 -->
<!-- Title: visioncpp::internal::tools::tuple::make_tuple Pages: 1 -->
<svg width="837pt" height="1020pt"
 viewBox="0.00 0.00 837.00 1019.50" xmlns="http://www.w3.org/2000/svg" xmlns:xlink="http://www.w3.org/1999/xlink">
<g id="graph0" class="graph" transform="scale(1 1) rotate(0) translate(4 1015.5)">
<title>visioncpp::internal::tools::tuple::make_tuple</title>
<!-- Node1 -->
<g id="node1" class="node">
<title>Node1</title>
<g id="a_node1"><a xlink:title="make_tuple">
<polygon fill="#bfbfbf" stroke="black" points="689,-471.5 689,-501.5 829,-501.5 829,-471.5 689,-471.5"/>
<text text-anchor="start" x="697" y="-489.5" font-family="Helvetica,sans-Serif" font-size="10.00">visioncpp::internal</text>
<text text-anchor="middle" x="759" y="-478.5" font-family="Helvetica,sans-Serif" font-size="10.00">::tools::tuple::make_tuple</text>
</a>
</g>
</g>
<!-- Node2 -->
<g id="node2" class="node">
<title>Node2</title>
<g id="a_node2"><a xlink:href="namespacevisioncpp_1_1internal_1_1tools_1_1tuple.html#a250b510103551795245a4f26c6472dc5" target="_top" xlink:title="append_impl">
<polygon fill="none" stroke="black" points="468,-625.5 468,-655.5 614,-655.5 614,-625.5 468,-625.5"/>
<text text-anchor="start" x="476" y="-643.5" font-family="Helvetica,sans-Serif" font-size="10.00">visioncpp::internal</text>
<text text-anchor="middle" x="541" y="-632.5" font-family="Helvetica,sans-Serif" font-size="10.00">::tools::tuple::append_impl</text>
</a>
</g>
</g>
<!-- Node1&#45;&gt;Node2 -->
<g id="edge1" class="edge">
<title>Node1&#45;&gt;Node2</title>
<path fill="none" stroke="midnightblue" d="M744.05,-510.47C726.42,-538.64 693.43,-584.81 653,-610.5 641.29,-617.94 627.76,-623.55 614.25,-627.78"/>
<polygon fill="midnightblue" stroke="midnightblue" points="747.21,-512.02 749.43,-501.66 741.24,-508.37 747.21,-512.02"/>
</g>
<!-- Node4 -->
<g id="node4" class="node">
<title>Node4</title>
<g id="a_node4"><a xlink:href="structvisioncpp_1_1internal_1_1CreatePyramidTuple.html#aff671884b9830eef220597855a3004bf" target="_top" xlink:title="create_tuple function:">
<polygon fill="none" stroke="black" points="54,-970 54,-1011 175,-1011 175,-970 54,-970"/>
<text text-anchor="start" x="62" y="-999" font-family="Helvetica,sans-Serif" font-size="10.00">visioncpp::internal</text>
<text text-anchor="start" x="62" y="-988" font-family="Helvetica,sans-Serif" font-size="10.00">::CreatePyramidTuple</text>
<text text-anchor="middle" x="114.5" y="-977" font-family="Helvetica,sans-Serif" font-size="10.00">::create_tuple</text>
</a>
</g>
</g>
<!-- Node1&#45;&gt;Node4 -->
<g id="edge14" class="edge">
<title>Node1&#45;&gt;Node4</title>
<path fill="none" stroke="midnightblue" d="M747.64,-511.27C731.44,-547.99 697.29,-617.64 653,-665.5 497.07,-833.99 437.37,-864.15 229,-960.5 212.17,-968.28 192.96,-974.33 175.19,-978.88"/>
<polygon fill="midnightblue" stroke="midnightblue" points="750.97,-512.41 751.73,-501.84 744.55,-509.62 750.97,-512.41"/>
</g>
<!-- Node14 -->
<g id="node14" class="node">
<title>Node14</title>
<g id="a_node14"><a xlink:href="structvisioncpp_1_1internal_1_1CreatePyramidTuple_3_01true_00_01Cols_00_01Rows_00_01LeafType_00_c3515e3676f2f298ffd0b791cd97f1c4.html#a700aa73fd19efdf9816ce282e4f6ef1a" target="_top" xlink:title="create_tuple function:">
<polygon fill="none" stroke="black" points="461.5,-505 461.5,-568 620.5,-568 620.5,-505 461.5,-505"/>
<text text-anchor="start" x="469.5" y="-556" font-family="Helvetica,sans-Serif" font-size="10.00">visioncpp::internal</text>
<text text-anchor="start" x="469.5" y="-545" font-family="Helvetica,sans-Serif" font-size="10.00">::CreatePyramidTuple</text>
<text text-anchor="start" x="469.5" y="-534" font-family="Helvetica,sans-Serif" font-size="10.00">&lt; true, Cols, Rows, LeafType,</text>
<text text-anchor="start" x="469.5" y="-523" font-family="Helvetica,sans-Serif" font-size="10.00"> Depth, CurrentDepth, LHS</text>
<text text-anchor="middle" x="541" y="-512" font-family="Helvetica,sans-Serif" font-size="10.00"> &gt;::create_tuple</text>
</a>
</g>
</g>
<!-- Node1&#45;&gt;Node14 -->
<g id="edge13" class="edge">
<title>Node1&#45;&gt;Node14</title>
<path fill="none" stroke="midnightblue" d="M683.43,-503.76C663.24,-508.44 641.31,-513.51 620.89,-518.24"/>
<polygon fill="midnightblue" stroke="midnightblue" points="684.24,-507.17 693.19,-501.5 682.66,-500.35 684.24,-507.17"/>
</g>
<!-- Node15 -->
<g id="node15" class="node">
<title>Node15</title>
<g id="a_node15"><a xlink:href="structvisioncpp_1_1internal_1_1LocalOutput.html#abc63292a957140f2a601692f3c2983c4" target="_top" xlink:title="getTuple function is used to create and wrap local memory into a tuple">
<polygon fill="none" stroke="black" points="265,-340.5 265,-370.5 393,-370.5 393,-340.5 265,-340.5"/>
<text text-anchor="start" x="273" y="-358.5" font-family="Helvetica,sans-Serif" font-size="10.00">visioncpp::internal</text>
<text text-anchor="middle" x="329" y="-347.5" font-family="Helvetica,sans-Serif" font-size="10.00">::LocalOutput::getTuple</text>
</a>
</g>
</g>
<!-- Node1&#45;&gt;Node15 -->
<g id="edge15" class="edge">
<title>Node1&#45;&gt;Node15</title>
<path fill="none" stroke="midnightblue" d="M739.89,-509.77C720.98,-531.99 689.07,-564.04 653,-577.5 559.72,-612.3 512.51,-631.7 429,-577.5 355.19,-529.6 335.94,-412.46 331.34,-370.65"/>
<polygon fill="midnightblue" stroke="midnightblue" points="742.82,-511.72 746.49,-501.79 737.42,-507.26 742.82,-511.72"/>
</g>
<!-- Node18 -->
<g id="node18" class="node">
<title>Node18</title>
<g id="a_node18"><a xlink:href="structvisioncpp_1_1internal_1_1LocalOutput_3_01false_00_01IsRoot_00_01LC_00_01LR_00_01LeafNode_3ad2e76c561065a363672c4f018afa544.html#a1da6f466f7bbafe87dde5faa4e89d0d3" target="_top" xlink:title=" ">
<polygon fill="none" stroke="black" points="453,-389.5 453,-485.5 629,-485.5 629,-389.5 453,-389.5"/>
<text text-anchor="start" x="461" y="-473.5" font-family="Helvetica,sans-Serif" font-size="10.00">visioncpp::internal</text>
<text text-anchor="start" x="461" y="-462.5" font-family="Helvetica,sans-Serif" font-size="10.00">::LocalOutput&lt; false,</text>
<text text-anchor="start" x="461" y="-451.5" font-family="Helvetica,sans-Serif" font-size="10.00"> IsRoot, LC, LR, LeafNode</text>
<text text-anchor="start" x="461" y="-440.5" font-family="Helvetica,sans-Serif" font-size="10.00">&lt; VisionMemory&lt; in, element</text>
<text text-anchor="start" x="461" y="-429.5" font-family="Helvetica,sans-Serif" font-size="10.00">_category, memory_type::Const,</text>
<text text-anchor="start" x="461" y="-418.5" font-family="Helvetica,sans-Serif" font-size="10.00"> Sclr, Width, Height, Sclr, 1,</text>
<text text-anchor="start" x="461" y="-407.5" font-family="Helvetica,sans-Serif" font-size="10.00"> scope::Global, LVL &gt;, LVL &gt; &gt;</text>
<text text-anchor="middle" x="541" y="-396.5" font-family="Helvetica,sans-Serif" font-size="10.00">::getTuple</text>
</a>
</g>
</g>
<!-- Node1&#45;&gt;Node18 -->
<g id="edge23" class="edge">
<title>Node1&#45;&gt;Node18</title>
<path fill="none" stroke="midnightblue" d="M681.86,-469.23C664.85,-465.37 646.68,-461.25 629.26,-457.29"/>
<polygon fill="midnightblue" stroke="midnightblue" points="681.2,-472.67 691.72,-471.47 682.75,-465.84 681.2,-472.67"/>
</g>
<!-- Node19 -->
<g id="node19" class="node">
<title>Node19</title>
<g id="a_node19"><a xlink:href="structvisioncpp_1_1internal_1_1LocalOutput_3_01false_00_01IsRoot_00_01LC_00_01LR_00_01LeafNode_3fe8871ad58f0f38f156e00013cb5a346.html#a91a60c0bce9205340862fff96887fd4e" target="_top" xlink:title=" ">
<polygon fill="none" stroke="black" points="429,-285 429,-370 653,-370 653,-285 429,-285"/>
<text text-anchor="start" x="437" y="-358" font-family="Helvetica,sans-Serif" font-size="10.00">visioncpp::internal</text>
<text text-anchor="start" x="437" y="-347" font-family="Helvetica,sans-Serif" font-size="10.00">::LocalOutput&lt; false,</text>
<text text-anchor="start" x="437" y="-336" font-family="Helvetica,sans-Serif" font-size="10.00"> IsRoot, LC, LR, LeafNode</text>
<text text-anchor="start" x="437" y="-325" font-family="Helvetica,sans-Serif" font-size="10.00">&lt; VisionMemory&lt; in, element</text>
<text text-anchor="start" x="437" y="-314" font-family="Helvetica,sans-Serif" font-size="10.00">_category, Memory_Type, Scalar,</text>
<text text-anchor="start" x="437" y="-303" font-family="Helvetica,sans-Serif" font-size="10.00"> Width, Height, ElementTp, Elements,</text>
<text text-anchor="middle" x="541" y="-292" font-family="Helvetica,sans-Serif" font-size="10.00"> scope::Constant, LVL &gt;, LVL &gt; &gt;::getTuple</text>
</a>
</g>
</g>
<!-- Node1&#45;&gt;Node19 -->
<g id="edge24" class="edge">
<title>Node1&#45;&gt;Node19</title>
<path fill="none" stroke="midnightblue" d="M739.55,-463.33C719.99,-439.89 687.23,-403.76 653,-379.5 648.4,-376.24 643.56,-373.1 638.58,-370.08"/>
<polygon fill="midnightblue" stroke="midnightblue" points="737.09,-465.84 746.14,-471.34 742.49,-461.4 737.09,-465.84"/>
</g>
<!-- Node20 -->
<g id="node20" class="node">
<title>Node20</title>
<g id="a_node20"><a xlink:href="structvisioncpp_1_1internal_1_1OutputAccessor.html#a317f13dda352fcc86386dc21b6a0c859" target="_top" xlink:title=" ">
<polygon fill="none" stroke="black" points="468,-235.5 468,-265.5 614,-265.5 614,-235.5 468,-235.5"/>
<text text-anchor="start" x="476" y="-253.5" font-family="Helvetica,sans-Serif" font-size="10.00">visioncpp::internal</text>
<text text-anchor="middle" x="541" y="-242.5" font-family="Helvetica,sans-Serif" font-size="10.00">::OutputAccessor::getTuple</text>
</a>
</g>
</g>
<!-- Node1&#45;&gt;Node20 -->
<g id="edge25" class="edge">
<title>Node1&#45;&gt;Node20</title>
<path fill="none" stroke="midnightblue" d="M752.91,-461.44C742.47,-416.77 714.26,-323.57 653,-275.5 641.81,-266.72 628.13,-260.9 614.26,-257.07"/>
<polygon fill="midnightblue" stroke="midnightblue" points="749.55,-462.45 755.14,-471.45 756.38,-460.93 749.55,-462.45"/>
</g>
<!-- Node21 -->
<g id="node21" class="node">
<title>Node21</title>
<g id="a_node21"><a xlink:href="structvisioncpp_1_1pixel_1_1Storage.html#aa3406259403c9cb457c83ecefb2cd1d9" target="_top" xlink:title=" ">
<polygon fill="none" stroke="black" points="473,-186.5 473,-216.5 609,-216.5 609,-186.5 473,-186.5"/>
<text text-anchor="start" x="481" y="-204.5" font-family="Helvetica,sans-Serif" font-size="10.00">visioncpp::pixel::Storage</text>
<text text-anchor="middle" x="541" y="-193.5" font-family="Helvetica,sans-Serif" font-size="10.00">::Storage</text>
</a>
</g>
</g>
<!-- Node1&#45;&gt;Node21 -->
<g id="edge26" class="edge">
<title>Node1&#45;&gt;Node21</title>
<path fill="none" stroke="midnightblue" d="M755.56,-461.18C749.08,-408.64 726.55,-287.53 653,-225.5 640.64,-215.08 624.81,-208.87 609,-205.24"/>
<polygon fill="midnightblue" stroke="midnightblue" points="752.1,-461.76 756.71,-471.3 759.06,-460.97 752.1,-461.76"/>
</g>
<!-- Node3 -->
<g id="node3" class="node">
<title>Node3</title>
<g id="a_node3"><a xlink:href="namespacevisioncpp_1_1internal_1_1tools_1_1tuple.html#a8c1631050539cb92a3ac408ab976fb96" target="_top" xlink:title="append">
<polygon fill="none" stroke="black" points="269.5,-625.5 269.5,-655.5 388.5,-655.5 388.5,-625.5 269.5,-625.5"/>
<text text-anchor="start" x="277.5" y="-643.5" font-family="Helvetica,sans-Serif" font-size="10.00">visioncpp::internal</text>
<text text-anchor="middle" x="329" y="-632.5" font-family="Helvetica,sans-Serif" font-size="10.00">::tools::tuple::append</text>
</a>
</g>
</g>
<!-- Node2&#45;&gt;Node3 -->
<g id="edge2" class="edge">
<title>Node2&#45;&gt;Node3</title>
<path fill="none" stroke="midnightblue" d="M457.6,-640.5C434.51,-640.5 409.89,-640.5 388.5,-640.5"/>
<polygon fill="midnightblue" stroke="midnightblue" points="457.73,-644 467.73,-640.5 457.73,-637 457.73,-644"/>
</g>
<!-- Node3&#45;&gt;Node4 -->
<g id="edge3" class="edge">
<title>Node3&#45;&gt;Node4</title>
<path fill="none" stroke="midnightblue" d="M320.35,-665.8C297.6,-740.96 231.78,-957.84 229,-960.5 214.51,-974.4 194.37,-982.04 175.07,-986.19"/>
<polygon fill="midnightblue" stroke="midnightblue" points="323.83,-666.37 323.38,-655.79 317.13,-664.34 323.83,-666.37"/>
</g>
<!-- Node5 -->
<g id="node5" class="node">
<title>Node5</title>
<g id="a_node5"><a xlink:href="classvisioncpp_1_1internal_1_1Device___3_01backend_1_1sycl_00_01dv_01_4.html#afcdfa0256e3cae4ed2702b6c79d02e8c" target="_top" xlink:title=" ">
<polygon fill="none" stroke="black" points="55,-910 55,-951 174,-951 174,-910 55,-910"/>
<text text-anchor="start" x="63" y="-939" font-family="Helvetica,sans-Serif" font-size="10.00">visioncpp::internal</text>
<text text-anchor="start" x="63" y="-928" font-family="Helvetica,sans-Serif" font-size="10.00">::Device_&lt; backend::</text>
<text text-anchor="middle" x="114.5" y="-917" font-family="Helvetica,sans-Serif" font-size="10.00">sycl, dv &gt;::execute</text>
</a>
</g>
</g>
<!-- Node3&#45;&gt;Node5 -->
<g id="edge4" class="edge">
<title>Node3&#45;&gt;Node5</title>
<path fill="none" stroke="midnightblue" d="M321.61,-665.73C306.2,-724.67 265.57,-868.82 229,-901.5 213.99,-914.92 193.61,-922.29 174.26,-926.29"/>
<polygon fill="midnightblue" stroke="midnightblue" points="325.07,-666.33 324.18,-655.77 318.29,-664.57 325.07,-666.33"/>
</g>
<!-- Node6 -->
<g id="node6" class="node">
<title>Node6</title>
<g id="a_node6"><a xlink:href="structvisioncpp_1_1internal_1_1LocalOutput_3_01false_00_01IsRoot_00_01LC_00_01LR_00_01StnNoFilt_d45bb2f039daef54effcd1874753b2c3.html#a7ca4ad4544d257ccaa61badc635beb37" target="_top" xlink:title=" ">
<polygon fill="none" stroke="black" points="20.5,-362.5 20.5,-436.5 208.5,-436.5 208.5,-362.5 20.5,-362.5"/>
<text text-anchor="start" x="28.5" y="-424.5" font-family="Helvetica,sans-Serif" font-size="10.00">visioncpp::internal</text>
<text text-anchor="start" x="28.5" y="-413.5" font-family="Helvetica,sans-Serif" font-size="10.00">::LocalOutput&lt; false,</text>
<text text-anchor="start" x="28.5" y="-402.5" font-family="Helvetica,sans-Serif" font-size="10.00"> IsRoot, LC, LR, StnNoFilt</text>
<text text-anchor="start" x="28.5" y="-391.5" font-family="Helvetica,sans-Serif" font-size="10.00">&lt; OP, Halo_T, Halo_L, Halo</text>
<text text-anchor="start" x="28.5" y="-380.5" font-family="Helvetica,sans-Serif" font-size="10.00">_B, Halo_R, RHSExpr, Cols,</text>
<text text-anchor="middle" x="114.5" y="-369.5" font-family="Helvetica,sans-Serif" font-size="10.00"> Rows, LeafType, LVL &gt; &gt;::getTuple</text>
</a>
</g>
</g>
<!-- Node3&#45;&gt;Node6 -->
<g id="edge5" class="edge">
<title>Node3&#45;&gt;Node6</title>
<path fill="none" stroke="midnightblue" d="M321.41,-615.55C309.48,-574.91 280.63,-494.19 229,-446.5 222.89,-440.86 216.01,-435.84 208.73,-431.39"/>
<polygon fill="midnightblue" stroke="midnightblue" points="318.11,-616.76 324.21,-625.43 324.85,-614.86 318.11,-616.76"/>
</g>
<!-- Node7 -->
<g id="node7" class="node">
<title>Node7</title>
<g id="a_node7"><a xlink:href="structvisioncpp_1_1internal_1_1LocalOutput_3_01false_00_01IsRoot_00_01LC_00_01LR_00_01RUnOP_3_01222dc31e6f7adbfd1b3ba76b431263e2.html#a17c779f1e6fa85ef39237eb5db93cec8" target="_top" xlink:title=" ">
<polygon fill="none" stroke="black" points="37,-280 37,-343 192,-343 192,-280 37,-280"/>
<text text-anchor="start" x="45" y="-331" font-family="Helvetica,sans-Serif" font-size="10.00">visioncpp::internal</text>
<text text-anchor="start" x="45" y="-320" font-family="Helvetica,sans-Serif" font-size="10.00">::LocalOutput&lt; false,</text>
<text text-anchor="start" x="45" y="-309" font-family="Helvetica,sans-Serif" font-size="10.00"> IsRoot, LC, LR, RUnOP</text>
<text text-anchor="start" x="45" y="-298" font-family="Helvetica,sans-Serif" font-size="10.00">&lt; OP, RHSExpr, Cols, Rows,</text>
<text text-anchor="middle" x="114.5" y="-287" font-family="Helvetica,sans-Serif" font-size="10.00"> LeafType, LVL &gt; &gt;::getTuple</text>
</a>
</g>
</g>
<!-- Node3&#45;&gt;Node7 -->
<g id="edge6" class="edge">
<title>Node3&#45;&gt;Node7</title>
<path fill="none" stroke="midnightblue" d="M326.43,-615.01C321.66,-559.65 302.74,-427.4 229,-352.5 218.78,-342.12 205.75,-334.36 192.18,-328.55"/>
<polygon fill="midnightblue" stroke="midnightblue" points="322.96,-615.61 327.22,-625.31 329.94,-615.07 322.96,-615.61"/>
</g>
<!-- Node8 -->
<g id="node8" class="node">
<title>Node8</title>
<g id="a_node8"><a xlink:href="structvisioncpp_1_1internal_1_1LocalOutput_3_01false_00_01IsRoot_00_01LC_00_01LR_00_01RDCN_3_01O985b5cf5bfc049f9ae66cfbe725d4e32.html#a85cc60fe30b8670638b13c098a889ad6" target="_top" xlink:title=" ">
<polygon fill="none" stroke="black" points="37,-198 37,-261 192,-261 192,-198 37,-198"/>
<text text-anchor="start" x="45" y="-249" font-family="Helvetica,sans-Serif" font-size="10.00">visioncpp::internal</text>
<text text-anchor="start" x="45" y="-238" font-family="Helvetica,sans-Serif" font-size="10.00">::LocalOutput&lt; false,</text>
<text text-anchor="start" x="45" y="-227" font-family="Helvetica,sans-Serif" font-size="10.00"> IsRoot, LC, LR, RDCN</text>
<text text-anchor="start" x="45" y="-216" font-family="Helvetica,sans-Serif" font-size="10.00">&lt; OP, RHSExpr, Cols, Rows,</text>
<text text-anchor="middle" x="114.5" y="-205" font-family="Helvetica,sans-Serif" font-size="10.00"> LeafType, LVL &gt; &gt;::getTuple</text>
</a>
</g>
</g>
<!-- Node3&#45;&gt;Node8 -->
<g id="edge7" class="edge">
<title>Node3&#45;&gt;Node8</title>
<path fill="none" stroke="midnightblue" d="M321.95,-615.38C302.34,-534.23 241.05,-283.62 229,-270.5 219.01,-259.62 205.91,-251.62 192.18,-245.75"/>
<polygon fill="midnightblue" stroke="midnightblue" points="318.59,-616.34 324.34,-625.24 325.39,-614.7 318.59,-616.34"/>
</g>
<!-- Node9 -->
<g id="node9" class="node">
<title>Node9</title>
<g id="a_node9"><a xlink:href="structvisioncpp_1_1internal_1_1LocalOutput_3_01false_00_01IsRoot_00_01LC_00_01LR_00_01StnFilt_3_78467c599a542dd94fd0a9e3d6a02a30.html#a50566348e971a8dd50644cbdec9725e5" target="_top" xlink:title=" ">
<polygon fill="none" stroke="black" points="31,-549 31,-634 198,-634 198,-549 31,-549"/>
<text text-anchor="start" x="39" y="-622" font-family="Helvetica,sans-Serif" font-size="10.00">visioncpp::internal</text>
<text text-anchor="start" x="39" y="-611" font-family="Helvetica,sans-Serif" font-size="10.00">::LocalOutput&lt; false,</text>
<text text-anchor="start" x="39" y="-600" font-family="Helvetica,sans-Serif" font-size="10.00"> IsRoot, LC, LR, StnFilt</text>
<text text-anchor="start" x="39" y="-589" font-family="Helvetica,sans-Serif" font-size="10.00">&lt; OP, Halo_T, Halo_L, Halo</text>
<text text-anchor="start" x="39" y="-578" font-family="Helvetica,sans-Serif" font-size="10.00">_B, Halo_R, LHSExpr, RHSExpr,</text>
<text text-anchor="start" x="39" y="-567" font-family="Helvetica,sans-Serif" font-size="10.00"> Cols, Rows, LeafType, LVL &gt;</text>
<text text-anchor="middle" x="114.5" y="-556" font-family="Helvetica,sans-Serif" font-size="10.00"> &gt;::getTuple</text>
</a>
</g>
</g>
<!-- Node3&#45;&gt;Node9 -->
<g id="edge8" class="edge">
<title>Node3&#45;&gt;Node9</title>
<path fill="none" stroke="midnightblue" d="M259.37,-624.67C239.87,-620.18 218.43,-615.23 198.19,-610.57"/>
<polygon fill="midnightblue" stroke="midnightblue" points="258.84,-628.14 269.37,-626.98 260.41,-621.32 258.84,-628.14"/>
</g>
<!-- Node10 -->
<g id="node10" class="node">
<title>Node10</title>
<g id="a_node10"><a xlink:href="structvisioncpp_1_1internal_1_1LocalOutput_3_01false_00_01IsRoot_00_01LC_00_01LR_00_01RBiOP_3_012aff2f4a38a6baec8f8e4876a21ac04d.html#af800e26ee624f9e5e3b021015a89f457" target="_top" xlink:title=" ">
<polygon fill="none" stroke="black" points="42,-455.5 42,-529.5 187,-529.5 187,-455.5 42,-455.5"/>
<text text-anchor="start" x="50" y="-517.5" font-family="Helvetica,sans-Serif" font-size="10.00">visioncpp::internal</text>
<text text-anchor="start" x="50" y="-506.5" font-family="Helvetica,sans-Serif" font-size="10.00">::LocalOutput&lt; false,</text>
<text text-anchor="start" x="50" y="-495.5" font-family="Helvetica,sans-Serif" font-size="10.00"> IsRoot, LC, LR, RBiOP</text>
<text text-anchor="start" x="50" y="-484.5" font-family="Helvetica,sans-Serif" font-size="10.00">&lt; OP, LHSExpr, RHSExpr,</text>
<text text-anchor="start" x="50" y="-473.5" font-family="Helvetica,sans-Serif" font-size="10.00"> Cols, Rows, LeafType, LVL</text>
<text text-anchor="middle" x="114.5" y="-462.5" font-family="Helvetica,sans-Serif" font-size="10.00"> &gt; &gt;::getTuple</text>
</a>
</g>
</g>
<!-- Node3&#45;&gt;Node10 -->
<g id="edge9" class="edge">
<title>Node3&#45;&gt;Node10</title>
<path fill="none" stroke="midnightblue" d="M309.97,-617.28C291.6,-594.9 261.3,-561.31 229,-539.5 216.19,-530.85 201.53,-523.32 187.1,-516.99"/>
<polygon fill="midnightblue" stroke="midnightblue" points="307.4,-619.67 316.4,-625.26 312.85,-615.28 307.4,-619.67"/>
</g>
<!-- Node11 -->
<g id="node11" class="node">
<title>Node11</title>
<g id="a_node11"><a xlink:href="structvisioncpp_1_1internal_1_1ExtractAccessor_3_01expr__category_1_1Binary_00_01Assign_3_01LHSEfc4abae0aea7202de83232c2cd152bfb.html#aa4086a76436635bb7049586e7110310c" target="_top" xlink:title=" ">
<polygon fill="none" stroke="black" points="41.5,-817.5 41.5,-891.5 187.5,-891.5 187.5,-817.5 41.5,-817.5"/>
<text text-anchor="start" x="49.5" y="-879.5" font-family="Helvetica,sans-Serif" font-size="10.00">visioncpp::internal</text>
<text text-anchor="start" x="49.5" y="-868.5" font-family="Helvetica,sans-Serif" font-size="10.00">::ExtractAccessor&lt; expr</text>
<text text-anchor="start" x="49.5" y="-857.5" font-family="Helvetica,sans-Serif" font-size="10.00">_category::Binary, Assign</text>
<text text-anchor="start" x="49.5" y="-846.5" font-family="Helvetica,sans-Serif" font-size="10.00">&lt; LHSExpr, RHSExpr, Cols,</text>
<text text-anchor="start" x="49.5" y="-835.5" font-family="Helvetica,sans-Serif" font-size="10.00"> Rows, LeafType, LVL &gt; &gt;::</text>
<text text-anchor="middle" x="114.5" y="-824.5" font-family="Helvetica,sans-Serif" font-size="10.00">getTuple</text>
</a>
</g>
</g>
<!-- Node3&#45;&gt;Node11 -->
<g id="edge10" class="edge">
<title>Node3&#45;&gt;Node11</title>
<path fill="none" stroke="midnightblue" d="M319.25,-665.48C305.41,-701.66 275.2,-768.65 229,-808.5 217,-818.85 202.38,-827.06 187.67,-833.52"/>
<polygon fill="midnightblue" stroke="midnightblue" points="322.68,-666.31 322.87,-655.72 316.11,-663.88 322.68,-666.31"/>
</g>
<!-- Node12 -->
<g id="node12" class="node">
<title>Node12</title>
<g id="a_node12"><a xlink:href="structvisioncpp_1_1internal_1_1ExtractAccessor_3_01expr__category_1_1Binary_00_01Expr_01_4.html#a5d116934fc21c31523d1e3c8e2becc94" target="_top" xlink:title=" ">
<polygon fill="none" stroke="black" points="47.5,-746.5 47.5,-798.5 181.5,-798.5 181.5,-746.5 47.5,-746.5"/>
<text text-anchor="start" x="55.5" y="-786.5" font-family="Helvetica,sans-Serif" font-size="10.00">visioncpp::internal</text>
<text text-anchor="start" x="55.5" y="-775.5" font-family="Helvetica,sans-Serif" font-size="10.00">::ExtractAccessor&lt; expr</text>
<text text-anchor="start" x="55.5" y="-764.5" font-family="Helvetica,sans-Serif" font-size="10.00">_category::Binary, Expr</text>
<text text-anchor="middle" x="114.5" y="-753.5" font-family="Helvetica,sans-Serif" font-size="10.00"> &gt;::getTuple</text>
</a>
</g>
</g>
<!-- Node3&#45;&gt;Node12 -->
<g id="edge11" class="edge">
<title>Node3&#45;&gt;Node12</title>
<path fill="none" stroke="midnightblue" d="M310.19,-663.41C291.99,-685.36 261.81,-717.96 229,-737.5 214.56,-746.1 197.81,-752.77 181.69,-757.87"/>
<polygon fill="midnightblue" stroke="midnightblue" points="312.98,-665.53 316.56,-655.57 307.54,-661.12 312.98,-665.53"/>
</g>
<!-- Node13 -->
<g id="node13" class="node">
<title>Node13</title>
<g id="a_node13"><a xlink:href="structvisioncpp_1_1internal_1_1ExtractAccessor_3_01expr__category_1_1Binary_00_01ParallelCopy_3_72ed56ce6c8a26655ece6832b967cb17.html#ab943e0d7457334ea1861bc3f0155cf74" target="_top" xlink:title=" ">
<polygon fill="none" stroke="black" points="0,-653.5 0,-727.5 229,-727.5 229,-653.5 0,-653.5"/>
<text text-anchor="start" x="8" y="-715.5" font-family="Helvetica,sans-Serif" font-size="10.00">visioncpp::internal</text>
<text text-anchor="start" x="8" y="-704.5" font-family="Helvetica,sans-Serif" font-size="10.00">::ExtractAccessor&lt; expr</text>
<text text-anchor="start" x="8" y="-693.5" font-family="Helvetica,sans-Serif" font-size="10.00">_category::Binary, ParallelCopy</text>
<text text-anchor="start" x="8" y="-682.5" font-family="Helvetica,sans-Serif" font-size="10.00">&lt; LHSExpr, RHSExpr, Cols, Rows,</text>
<text text-anchor="start" x="8" y="-671.5" font-family="Helvetica,sans-Serif" font-size="10.00"> OffsetColIn, OffsetRowIn, OffsetColOut,</text>
<text text-anchor="middle" x="114.5" y="-660.5" font-family="Helvetica,sans-Serif" font-size="10.00"> OffsetRowOut, LeafType, LVL &gt; &gt;::getTuple</text>
</a>
</g>
</g>
<!-- Node3&#45;&gt;Node13 -->
<g id="edge12" class="edge">
<title>Node3&#45;&gt;Node13</title>
<path fill="none" stroke="midnightblue" d="M259.47,-656.62C249.79,-658.9 239.63,-661.29 229.38,-663.71"/>
<polygon fill="midnightblue" stroke="midnightblue" points="260.44,-659.99 269.37,-654.3 258.84,-653.18 260.44,-659.99"/>
</g>
<!-- Node15&#45;&gt;Node6 -->
<g id="edge18" class="edge">
<title>Node15&#45;&gt;Node6</title>
<path fill="none" stroke="midnightblue" d="M254.72,-370.67C239.9,-373.74 224.13,-377.01 208.72,-380.2"/>
<polygon fill="midnightblue" stroke="midnightblue" points="255.74,-374.04 264.82,-368.58 254.32,-367.18 255.74,-374.04"/>
</g>
<!-- Node15&#45;&gt;Node7 -->
<g id="edge19" class="edge">
<title>Node15&#45;&gt;Node7</title>
<path fill="none" stroke="midnightblue" d="M254.77,-340.34C234.61,-336.16 212.7,-331.63 192.34,-327.41"/>
<polygon fill="midnightblue" stroke="midnightblue" points="254.32,-343.82 264.82,-342.42 255.74,-336.96 254.32,-343.82"/>
</g>
<!-- Node15&#45;&gt;Node8 -->
<g id="edge20" class="edge">
<title>Node15&#45;&gt;Node8</title>
<path fill="none" stroke="midnightblue" d="M306.42,-332.84C287.49,-314.04 258.45,-287.68 229,-270.5 217.51,-263.8 204.73,-257.9 192.02,-252.81"/>
<polygon fill="midnightblue" stroke="midnightblue" points="304.37,-335.74 313.89,-340.39 309.35,-330.82 304.37,-335.74"/>
</g>
<!-- Node15&#45;&gt;Node9 -->
<g id="edge21" class="edge">
<title>Node15&#45;&gt;Node9</title>
<path fill="none" stroke="midnightblue" d="M320.31,-380.6C307.29,-419.36 277.49,-494.02 229,-539.5 219.99,-547.95 209.36,-555.22 198.29,-561.41"/>
<polygon fill="midnightblue" stroke="midnightblue" points="323.77,-381.27 323.54,-370.68 317.12,-379.11 323.77,-381.27"/>
</g>
<!-- Node15&#45;&gt;Node10 -->
<g id="edge22" class="edge">
<title>Node15&#45;&gt;Node10</title>
<path fill="none" stroke="midnightblue" d="M307.62,-378C288.75,-397.81 259.13,-426.39 229,-445.5 216.03,-453.72 201.38,-461.04 187.02,-467.31"/>
<polygon fill="midnightblue" stroke="midnightblue" points="310.25,-380.31 314.54,-370.62 305.15,-375.52 310.25,-380.31"/>
</g>
<!-- Node16 -->
<g id="node16" class="node">
<title>Node16</title>
<g id="a_node16"><a xlink:href="structvisioncpp_1_1internal_1_1LocalOutput_3_01false_00_01IsRoot_00_01LC_00_01LR_00_01ParallelCo0635c30aec900fbff57bf53b317d8606.html#a9c82dc26017dc8a4ab0af214d0686e90" target="_top" xlink:title=" ">
<polygon fill="none" stroke="black" points="10.5,-94 10.5,-179 218.5,-179 218.5,-94 10.5,-94"/>
<text text-anchor="start" x="18.5" y="-167" font-family="Helvetica,sans-Serif" font-size="10.00">visioncpp::internal</text>
<text text-anchor="start" x="18.5" y="-156" font-family="Helvetica,sans-Serif" font-size="10.00">::LocalOutput&lt; false,</text>
<text text-anchor="start" x="18.5" y="-145" font-family="Helvetica,sans-Serif" font-size="10.00"> IsRoot, LC, LR, ParallelCopy</text>
<text text-anchor="start" x="18.5" y="-134" font-family="Helvetica,sans-Serif" font-size="10.00">&lt; LHSExpr, RHSExpr, Cols,</text>
<text text-anchor="start" x="18.5" y="-123" font-family="Helvetica,sans-Serif" font-size="10.00"> Rows, OffsetColIn, OffsetRowIn,</text>
<text text-anchor="start" x="18.5" y="-112" font-family="Helvetica,sans-Serif" font-size="10.00"> OffsetColOut, OffsetRowOut, LeafType,</text>
<text text-anchor="middle" x="114.5" y="-101" font-family="Helvetica,sans-Serif" font-size="10.00"> LVL &gt; &gt;::getTuple</text>
</a>
</g>
</g>
<!-- Node15&#45;&gt;Node16 -->
<g id="edge16" class="edge">
<title>Node15&#45;&gt;Node16</title>
<path fill="none" stroke="midnightblue" d="M318.76,-330.4C304.48,-294.64 273.93,-228.92 229,-188.5 225.29,-185.17 221.34,-182.01 217.21,-179.03"/>
<polygon fill="midnightblue" stroke="midnightblue" points="315.63,-332 322.51,-340.05 322.16,-329.47 315.63,-332"/>
</g>
<!-- Node17 -->
<g id="node17" class="node">
<title>Node17</title>
<g id="a_node17"><a xlink:href="structvisioncpp_1_1internal_1_1LocalOutput_3_01false_00_01IsRoot_00_01LC_00_01LR_00_01Assign_3_06265906cf16848ff64f1f1331ad98423.html#aa583c6c4056fc0f4273b5f7eff7603ed" target="_top" xlink:title=" ">
<polygon fill="none" stroke="black" points="41.5,-0.5 41.5,-74.5 187.5,-74.5 187.5,-0.5 41.5,-0.5"/>
<text text-anchor="start" x="49.5" y="-62.5" font-family="Helvetica,sans-Serif" font-size="10.00">visioncpp::internal</text>
<text text-anchor="start" x="49.5" y="-51.5" font-family="Helvetica,sans-Serif" font-size="10.00">::LocalOutput&lt; false,</text>
<text text-anchor="start" x="49.5" y="-40.5" font-family="Helvetica,sans-Serif" font-size="10.00"> IsRoot, LC, LR, Assign</text>
<text text-anchor="start" x="49.5" y="-29.5" font-family="Helvetica,sans-Serif" font-size="10.00">&lt; LHSExpr, RHSExpr, Cols,</text>
<text text-anchor="start" x="49.5" y="-18.5" font-family="Helvetica,sans-Serif" font-size="10.00"> Rows, LeafType, LVL &gt; &gt;</text>
<text text-anchor="middle" x="114.5" y="-7.5" font-family="Helvetica,sans-Serif" font-size="10.00">::getTuple</text>
</a>
</g>
</g>
<!-- Node15&#45;&gt;Node17 -->
<g id="edge17" class="edge">
<title>Node15&#45;&gt;Node17</title>
<path fill="none" stroke="midnightblue" d="M325.53,-330.29C319.1,-277.8 297.28,-155.73 229,-84.5 217.64,-72.64 202.84,-63.67 187.7,-56.91"/>
<polygon fill="midnightblue" stroke="midnightblue" points="322.07,-330.86 326.68,-340.4 329.02,-330.06 322.07,-330.86"/>
</g>
</g>
</svg>
