<?xml version="1.0" encoding="UTF-8" standalone="no"?>
<!DOCTYPE svg PUBLIC "-//W3C//DTD SVG 1.1//EN"
 "http://www.w3.org/Graphics/SVG/1.1/DTD/svg11.dtd">
<!-- Generated by graphviz version 2.36.0 (20140111.2315)
 -->
<!-- Title: visioncpp::internal::tools::tuple::append_impl Pages: 1 -->
<svg width="534pt" height="824pt"
 viewBox="0.00 0.00 534.00 824.00" xmlns="http://www.w3.org/2000/svg" xmlns:xlink="http://www.w3.org/1999/xlink">
<g id="graph0" class="graph" transform="scale(1 1) rotate(0) translate(4 820)">
<title>visioncpp::internal::tools::tuple::append_impl</title>
<!-- Node1 -->
<g id="node1" class="node"><title>Node1</title>
<polygon fill="#bfbfbf" stroke="black" points="0.5,-435 0.5,-465 131.5,-465 131.5,-435 0.5,-435"/>
<text text-anchor="start" x="8.5" y="-453" font-family="Helvetica,sans-Serif" font-size="10.00">visioncpp::internal</text>
<text text-anchor="middle" x="66" y="-442" font-family="Helvetica,sans-Serif" font-size="10.00">::tools::tuple::append_impl</text>
</g>
<!-- Node2 -->
<g id="node2" class="node"><title>Node2</title>
<g id="a_node2"><a xlink:href="namespacevisioncpp_1_1internal_1_1tools_1_1tuple.html#a047c9626073a7719080ae711a7fbcd12" target="_top" xlink:title="append ">
<polygon fill="none" stroke="black" points="168,-435 168,-465 276,-465 276,-435 168,-435"/>
<text text-anchor="start" x="176" y="-453" font-family="Helvetica,sans-Serif" font-size="10.00">visioncpp::internal</text>
<text text-anchor="middle" x="222" y="-442" font-family="Helvetica,sans-Serif" font-size="10.00">::tools::tuple::append</text>
</a>
</g>
</g>
<!-- Node1&#45;&gt;Node2 -->
<g id="edge1" class="edge"><title>Node1&#45;&gt;Node2</title>
<path fill="none" stroke="midnightblue" d="M142.059,-450C150.779,-450 159.533,-450 167.872,-450"/>
<polygon fill="midnightblue" stroke="midnightblue" points="141.864,-446.5 131.864,-450 141.863,-453.5 141.864,-446.5"/>
</g>
<!-- Node3 -->
<g id="node3" class="node"><title>Node3</title>
<g id="a_node3"><a xlink:href="structvisioncpp_1_1internal_1_1CreatePyramidTuple.html#a29e836c4b66a03b79893cd3da650da06" target="_top" xlink:title="create_tuple function: ">
<polygon fill="none" stroke="black" points="363,-774.5 363,-815.5 475,-815.5 475,-774.5 363,-774.5"/>
<text text-anchor="start" x="371" y="-803.5" font-family="Helvetica,sans-Serif" font-size="10.00">visioncpp::internal</text>
<text text-anchor="start" x="371" y="-792.5" font-family="Helvetica,sans-Serif" font-size="10.00">::CreatePyramidTuple</text>
<text text-anchor="middle" x="419" y="-781.5" font-family="Helvetica,sans-Serif" font-size="10.00">::create_tuple</text>
</a>
</g>
</g>
<!-- Node2&#45;&gt;Node3 -->
<g id="edge2" class="edge"><title>Node2&#45;&gt;Node3</title>
<path fill="none" stroke="midnightblue" d="M222.452,-475.601C222.629,-534.928 231.599,-682.927 312,-764 325.501,-777.614 344.629,-785.322 362.927,-789.661"/>
<polygon fill="midnightblue" stroke="midnightblue" points="225.954,-475.296 222.511,-465.276 218.954,-475.256 225.954,-475.296"/>
</g>
<!-- Node4 -->
<g id="node4" class="node"><title>Node4</title>
<g id="a_node4"><a xlink:href="classvisioncpp_1_1internal_1_1Device___3_01backend_1_1sycl_00_01dv_01_4.html#a9ffe0526cc128163653426e6ab12b7a8" target="_top" xlink:title="visioncpp::internal\l::Device_\&lt; backend::\lsycl, dv \&gt;::execute">
<polygon fill="none" stroke="black" points="364,-714.5 364,-755.5 474,-755.5 474,-714.5 364,-714.5"/>
<text text-anchor="start" x="372" y="-743.5" font-family="Helvetica,sans-Serif" font-size="10.00">visioncpp::internal</text>
<text text-anchor="start" x="372" y="-732.5" font-family="Helvetica,sans-Serif" font-size="10.00">::Device_&lt; backend::</text>
<text text-anchor="middle" x="419" y="-721.5" font-family="Helvetica,sans-Serif" font-size="10.00">sycl, dv &gt;::execute</text>
</a>
</g>
</g>
<!-- Node2&#45;&gt;Node4 -->
<g id="edge3" class="edge"><title>Node2&#45;&gt;Node4</title>
<path fill="none" stroke="midnightblue" d="M224.45,-475.206C228.749,-525.98 245.684,-641.078 312,-704 326.048,-717.329 345.511,-724.966 363.929,-729.328"/>
<polygon fill="midnightblue" stroke="midnightblue" points="227.931,-474.824 223.693,-465.114 220.951,-475.348 227.931,-474.824"/>
</g>
<!-- Node5 -->
<g id="node5" class="node"><title>Node5</title>
<g id="a_node5"><a xlink:href="structvisioncpp_1_1internal_1_1ExtractAccessor_3_01expr__category_1_1Binary_00_01Expr_01_4.html#a5d116934fc21c31523d1e3c8e2becc94" target="_top" xlink:title="visioncpp::internal\l::ExtractAccessor\&lt; expr\l_category::Binary, Expr\l \&gt;::getTuple">
<polygon fill="none" stroke="black" points="357.5,-643 357.5,-695 480.5,-695 480.5,-643 357.5,-643"/>
<text text-anchor="start" x="365.5" y="-683" font-family="Helvetica,sans-Serif" font-size="10.00">visioncpp::internal</text>
<text text-anchor="start" x="365.5" y="-672" font-family="Helvetica,sans-Serif" font-size="10.00">::ExtractAccessor&lt; expr</text>
<text text-anchor="start" x="365.5" y="-661" font-family="Helvetica,sans-Serif" font-size="10.00">_category::Binary, Expr</text>
<text text-anchor="middle" x="419" y="-650" font-family="Helvetica,sans-Serif" font-size="10.00"> &gt;::getTuple</text>
</a>
</g>
</g>
<!-- Node2&#45;&gt;Node5 -->
<g id="edge4" class="edge"><title>Node2&#45;&gt;Node5</title>
<path fill="none" stroke="midnightblue" d="M228.571,-475.004C238.567,-514.177 263.216,-589.974 312,-633 324.754,-644.249 341.173,-652.014 357.261,-657.362"/>
<polygon fill="midnightblue" stroke="midnightblue" points="231.952,-474.094 226.184,-465.207 225.151,-475.751 231.952,-474.094"/>
</g>
<!-- Node6 -->
<g id="node6" class="node"><title>Node6</title>
<g id="a_node6"><a xlink:href="structvisioncpp_1_1internal_1_1ExtractAccessor_3_01expr__category_1_1Binary_00_01Assign_3_01LHSEfc4abae0aea7202de83232c2cd152bfb.html#aa4086a76436635bb7049586e7110310c" target="_top" xlink:title="visioncpp::internal\l::ExtractAccessor\&lt; expr\l_category::Binary, Assign\l\&lt; LHSExpr, RHSExpr, Cols,\l Rows, LeafType, LVL \&gt; \&gt;::\lgetTuple">
<polygon fill="none" stroke="black" points="347.5,-550 347.5,-624 490.5,-624 490.5,-550 347.5,-550"/>
<text text-anchor="start" x="355.5" y="-612" font-family="Helvetica,sans-Serif" font-size="10.00">visioncpp::internal</text>
<text text-anchor="start" x="355.5" y="-601" font-family="Helvetica,sans-Serif" font-size="10.00">::ExtractAccessor&lt; expr</text>
<text text-anchor="start" x="355.5" y="-590" font-family="Helvetica,sans-Serif" font-size="10.00">_category::Binary, Assign</text>
<text text-anchor="start" x="355.5" y="-579" font-family="Helvetica,sans-Serif" font-size="10.00">&lt; LHSExpr, RHSExpr, Cols,</text>
<text text-anchor="start" x="355.5" y="-568" font-family="Helvetica,sans-Serif" font-size="10.00"> Rows, LeafType, LVL &gt; &gt;::</text>
<text text-anchor="middle" x="419" y="-557" font-family="Helvetica,sans-Serif" font-size="10.00">getTuple</text>
</a>
</g>
</g>
<!-- Node2&#45;&gt;Node6 -->
<g id="edge5" class="edge"><title>Node2&#45;&gt;Node6</title>
<path fill="none" stroke="midnightblue" d="M241.438,-473C258.203,-492.762 284.466,-520.994 312,-540 322.851,-547.49 335.089,-554.225 347.293,-560.099"/>
<polygon fill="midnightblue" stroke="midnightblue" points="243.948,-470.545 234.859,-465.101 238.57,-475.025 243.948,-470.545"/>
</g>
<!-- Node7 -->
<g id="node7" class="node"><title>Node7</title>
<g id="a_node7"><a xlink:href="structvisioncpp_1_1internal_1_1ExtractAccessor_3_01expr__category_1_1Binary_00_01ParallelCopy_3_72ed56ce6c8a26655ece6832b967cb17.html#ab943e0d7457334ea1861bc3f0155cf74" target="_top" xlink:title="visioncpp::internal\l::ExtractAccessor\&lt; expr\l_category::Binary, ParallelCopy\l\&lt; LHSExpr, RHSExpr, Cols, Rows,\l OffsetColIn, OffsetRowIn, OffsetColOut,\l OffsetRowOut, LeafType, LVL \&gt; \&gt;::getTuple">
<polygon fill="none" stroke="black" points="312,-457 312,-531 526,-531 526,-457 312,-457"/>
<text text-anchor="start" x="320" y="-519" font-family="Helvetica,sans-Serif" font-size="10.00">visioncpp::internal</text>
<text text-anchor="start" x="320" y="-508" font-family="Helvetica,sans-Serif" font-size="10.00">::ExtractAccessor&lt; expr</text>
<text text-anchor="start" x="320" y="-497" font-family="Helvetica,sans-Serif" font-size="10.00">_category::Binary, ParallelCopy</text>
<text text-anchor="start" x="320" y="-486" font-family="Helvetica,sans-Serif" font-size="10.00">&lt; LHSExpr, RHSExpr, Cols, Rows,</text>
<text text-anchor="start" x="320" y="-475" font-family="Helvetica,sans-Serif" font-size="10.00"> OffsetColIn, OffsetRowIn, OffsetColOut,</text>
<text text-anchor="middle" x="419" y="-464" font-family="Helvetica,sans-Serif" font-size="10.00"> OffsetRowOut, LeafType, LVL &gt; &gt;::getTuple</text>
</a>
</g>
</g>
<!-- Node2&#45;&gt;Node7 -->
<g id="edge6" class="edge"><title>Node2&#45;&gt;Node7</title>
<path fill="none" stroke="midnightblue" d="M285.938,-464.201C294.236,-466.074 302.916,-468.032 311.693,-470.013"/>
<polygon fill="midnightblue" stroke="midnightblue" points="286.552,-460.752 276.027,-461.965 285.011,-467.58 286.552,-460.752"/>
</g>
<!-- Node8 -->
<g id="node8" class="node"><title>Node8</title>
<g id="a_node8"><a xlink:href="structvisioncpp_1_1internal_1_1LocalOutput_3_01false_00_01IsRoot_00_01LC_00_01LR_00_01RUnOP_3_01222dc31e6f7adbfd1b3ba76b431263e2.html#a17c779f1e6fa85ef39237eb5db93cec8" target="_top" xlink:title="visioncpp::internal\l::LocalOutput\&lt; false,\l IsRoot, LC, LR, RUnOP\l\&lt; OP, RHSExpr, Cols, Rows,\l LeafType, LVL \&gt; \&gt;::getTuple">
<polygon fill="none" stroke="black" points="344.5,-374.5 344.5,-437.5 493.5,-437.5 493.5,-374.5 344.5,-374.5"/>
<text text-anchor="start" x="352.5" y="-425.5" font-family="Helvetica,sans-Serif" font-size="10.00">visioncpp::internal</text>
<text text-anchor="start" x="352.5" y="-414.5" font-family="Helvetica,sans-Serif" font-size="10.00">::LocalOutput&lt; false,</text>
<text text-anchor="start" x="352.5" y="-403.5" font-family="Helvetica,sans-Serif" font-size="10.00"> IsRoot, LC, LR, RUnOP</text>
<text text-anchor="start" x="352.5" y="-392.5" font-family="Helvetica,sans-Serif" font-size="10.00">&lt; OP, RHSExpr, Cols, Rows,</text>
<text text-anchor="middle" x="419" y="-381.5" font-family="Helvetica,sans-Serif" font-size="10.00"> LeafType, LVL &gt; &gt;::getTuple</text>
</a>
</g>
</g>
<!-- Node2&#45;&gt;Node8 -->
<g id="edge7" class="edge"><title>Node2&#45;&gt;Node8</title>
<path fill="none" stroke="midnightblue" d="M285.839,-435.821C304.419,-431.629 324.929,-427.001 344.137,-422.667"/>
<polygon fill="midnightblue" stroke="midnightblue" points="285.011,-432.42 276.027,-438.035 286.552,-439.248 285.011,-432.42"/>
</g>
<!-- Node9 -->
<g id="node9" class="node"><title>Node9</title>
<g id="a_node9"><a xlink:href="structvisioncpp_1_1internal_1_1LocalOutput_3_01false_00_01IsRoot_00_01LC_00_01LR_00_01RBiOP_3_012aff2f4a38a6baec8f8e4876a21ac04d.html#af800e26ee624f9e5e3b021015a89f457" target="_top" xlink:title="visioncpp::internal\l::LocalOutput\&lt; false,\l IsRoot, LC, LR, RBiOP\l\&lt; OP, LHSExpr, RHSExpr,\l Cols, Rows, LeafType, LVL\l \&gt; \&gt;::getTuple">
<polygon fill="none" stroke="black" points="348.5,-281 348.5,-355 489.5,-355 489.5,-281 348.5,-281"/>
<text text-anchor="start" x="356.5" y="-343" font-family="Helvetica,sans-Serif" font-size="10.00">visioncpp::internal</text>
<text text-anchor="start" x="356.5" y="-332" font-family="Helvetica,sans-Serif" font-size="10.00">::LocalOutput&lt; false,</text>
<text text-anchor="start" x="356.5" y="-321" font-family="Helvetica,sans-Serif" font-size="10.00"> IsRoot, LC, LR, RBiOP</text>
<text text-anchor="start" x="356.5" y="-310" font-family="Helvetica,sans-Serif" font-size="10.00">&lt; OP, LHSExpr, RHSExpr,</text>
<text text-anchor="start" x="356.5" y="-299" font-family="Helvetica,sans-Serif" font-size="10.00"> Cols, Rows, LeafType, LVL</text>
<text text-anchor="middle" x="419" y="-288" font-family="Helvetica,sans-Serif" font-size="10.00"> &gt; &gt;::getTuple</text>
</a>
</g>
</g>
<!-- Node2&#45;&gt;Node9 -->
<g id="edge8" class="edge"><title>Node2&#45;&gt;Node9</title>
<path fill="none" stroke="midnightblue" d="M242.569,-427.379C259.519,-408.816 285.433,-382.783 312,-365 323.208,-357.497 335.81,-350.703 348.309,-344.759"/>
<polygon fill="midnightblue" stroke="midnightblue" points="239.954,-425.053 235.878,-434.832 245.163,-429.729 239.954,-425.053"/>
</g>
<!-- Node10 -->
<g id="node10" class="node"><title>Node10</title>
<g id="a_node10"><a xlink:href="structvisioncpp_1_1internal_1_1LocalOutput_3_01false_00_01IsRoot_00_01LC_00_01LR_00_01StnFilt_3_78467c599a542dd94fd0a9e3d6a02a30.html#a50566348e971a8dd50644cbdec9725e5" target="_top" xlink:title="visioncpp::internal\l::LocalOutput\&lt; false,\l IsRoot, LC, LR, StnFilt\l\&lt; OP, Halo_T, Halo_L, Halo\l_B, Halo_R, LHSExpr, RHSExpr,\l Cols, Rows, LeafType, LVL \&gt;\l \&gt;::getTuple">
<polygon fill="none" stroke="black" points="337,-176.5 337,-261.5 501,-261.5 501,-176.5 337,-176.5"/>
<text text-anchor="start" x="345" y="-249.5" font-family="Helvetica,sans-Serif" font-size="10.00">visioncpp::internal</text>
<text text-anchor="start" x="345" y="-238.5" font-family="Helvetica,sans-Serif" font-size="10.00">::LocalOutput&lt; false,</text>
<text text-anchor="start" x="345" y="-227.5" font-family="Helvetica,sans-Serif" font-size="10.00"> IsRoot, LC, LR, StnFilt</text>
<text text-anchor="start" x="345" y="-216.5" font-family="Helvetica,sans-Serif" font-size="10.00">&lt; OP, Halo_T, Halo_L, Halo</text>
<text text-anchor="start" x="345" y="-205.5" font-family="Helvetica,sans-Serif" font-size="10.00">_B, Halo_R, LHSExpr, RHSExpr,</text>
<text text-anchor="start" x="345" y="-194.5" font-family="Helvetica,sans-Serif" font-size="10.00"> Cols, Rows, LeafType, LVL &gt;</text>
<text text-anchor="middle" x="419" y="-183.5" font-family="Helvetica,sans-Serif" font-size="10.00"> &gt;::getTuple</text>
</a>
</g>
</g>
<!-- Node2&#45;&gt;Node10 -->
<g id="edge9" class="edge"><title>Node2&#45;&gt;Node10</title>
<path fill="none" stroke="midnightblue" d="M229.798,-425.344C241.208,-387.951 267.449,-316.551 312,-272 319.347,-264.653 327.92,-258.142 336.95,-252.423"/>
<polygon fill="midnightblue" stroke="midnightblue" points="226.44,-424.357 226.97,-434.938 233.154,-426.336 226.44,-424.357"/>
</g>
<!-- Node11 -->
<g id="node11" class="node"><title>Node11</title>
<g id="a_node11"><a xlink:href="structvisioncpp_1_1internal_1_1LocalOutput_3_01false_00_01IsRoot_00_01LC_00_01LR_00_01StnNoFilt_d45bb2f039daef54effcd1874753b2c3.html#a7ca4ad4544d257ccaa61badc635beb37" target="_top" xlink:title="visioncpp::internal\l::LocalOutput\&lt; false,\l IsRoot, LC, LR, StnNoFilt\l\&lt; OP, Halo_T, Halo_L, Halo\l_B, Halo_R, RHSExpr, Cols,\l Rows, LeafType, LVL \&gt; \&gt;::getTuple">
<polygon fill="none" stroke="black" points="331,-83 331,-157 507,-157 507,-83 331,-83"/>
<text text-anchor="start" x="339" y="-145" font-family="Helvetica,sans-Serif" font-size="10.00">visioncpp::internal</text>
<text text-anchor="start" x="339" y="-134" font-family="Helvetica,sans-Serif" font-size="10.00">::LocalOutput&lt; false,</text>
<text text-anchor="start" x="339" y="-123" font-family="Helvetica,sans-Serif" font-size="10.00"> IsRoot, LC, LR, StnNoFilt</text>
<text text-anchor="start" x="339" y="-112" font-family="Helvetica,sans-Serif" font-size="10.00">&lt; OP, Halo_T, Halo_L, Halo</text>
<text text-anchor="start" x="339" y="-101" font-family="Helvetica,sans-Serif" font-size="10.00">_B, Halo_R, RHSExpr, Cols,</text>
<text text-anchor="middle" x="419" y="-90" font-family="Helvetica,sans-Serif" font-size="10.00"> Rows, LeafType, LVL &gt; &gt;::getTuple</text>
</a>
</g>
</g>
<!-- Node2&#45;&gt;Node11 -->
<g id="edge10" class="edge"><title>Node2&#45;&gt;Node11</title>
<path fill="none" stroke="midnightblue" d="M224.181,-424.607C227.998,-370.585 244.109,-243.004 312,-167 317.498,-160.845 323.954,-155.455 330.92,-150.744"/>
<polygon fill="midnightblue" stroke="midnightblue" points="220.682,-424.486 223.555,-434.684 227.669,-424.92 220.682,-424.486"/>
</g>
<!-- Node12 -->
<g id="node12" class="node"><title>Node12</title>
<g id="a_node12"><a xlink:href="structvisioncpp_1_1internal_1_1LocalOutput_3_01false_00_01IsRoot_00_01LC_00_01LR_00_01RDCN_3_01O985b5cf5bfc049f9ae66cfbe725d4e32.html#a85cc60fe30b8670638b13c098a889ad6" target="_top" xlink:title="visioncpp::internal\l::LocalOutput\&lt; false,\l IsRoot, LC, LR, RDCN\l\&lt; OP, RHSExpr, Cols, Rows,\l LeafType, LVL \&gt; \&gt;::getTuple">
<polygon fill="none" stroke="black" points="344.5,-0.5 344.5,-63.5 493.5,-63.5 493.5,-0.5 344.5,-0.5"/>
<text text-anchor="start" x="352.5" y="-51.5" font-family="Helvetica,sans-Serif" font-size="10.00">visioncpp::internal</text>
<text text-anchor="start" x="352.5" y="-40.5" font-family="Helvetica,sans-Serif" font-size="10.00">::LocalOutput&lt; false,</text>
<text text-anchor="start" x="352.5" y="-29.5" font-family="Helvetica,sans-Serif" font-size="10.00"> IsRoot, LC, LR, RDCN</text>
<text text-anchor="start" x="352.5" y="-18.5" font-family="Helvetica,sans-Serif" font-size="10.00">&lt; OP, RHSExpr, Cols, Rows,</text>
<text text-anchor="middle" x="419" y="-7.5" font-family="Helvetica,sans-Serif" font-size="10.00"> LeafType, LVL &gt; &gt;::getTuple</text>
</a>
</g>
</g>
<!-- Node2&#45;&gt;Node12 -->
<g id="edge11" class="edge"><title>Node2&#45;&gt;Node12</title>
<path fill="none" stroke="midnightblue" d="M225.914,-424.83C235.094,-349.494 265.579,-127.683 312,-74 320.74,-63.8933 332.24,-56.1963 344.437,-50.3409"/>
<polygon fill="midnightblue" stroke="midnightblue" points="222.429,-424.5 224.715,-434.845 229.379,-425.332 222.429,-424.5"/>
</g>
</g>
</svg>
