<?xml version="1.0" encoding="UTF-8" standalone="no"?>
<!DOCTYPE svg PUBLIC "-//W3C//DTD SVG 1.1//EN"
 "http://www.w3.org/Graphics/SVG/1.1/DTD/svg11.dtd">
<!-- Generated by graphviz version 2.36.0 (20140111.2315)
 -->
<!-- Title: visioncpp::internal::tools::tuple::append Pages: 1 -->
<svg width="366pt" height="824pt"
 viewBox="0.00 0.00 366.00 824.00" xmlns="http://www.w3.org/2000/svg" xmlns:xlink="http://www.w3.org/1999/xlink">
<g id="graph0" class="graph" transform="scale(1 1) rotate(0) translate(4 820)">
<title>visioncpp::internal::tools::tuple::append</title>
<!-- Node1 -->
<g id="node1" class="node"><title>Node1</title>
<polygon fill="#bfbfbf" stroke="black" points="0,-435 0,-465 108,-465 108,-435 0,-435"/>
<text text-anchor="start" x="8" y="-453" font-family="Helvetica,sans-Serif" font-size="10.00">visioncpp::internal</text>
<text text-anchor="middle" x="54" y="-442" font-family="Helvetica,sans-Serif" font-size="10.00">::tools::tuple::append</text>
</g>
<!-- Node2 -->
<g id="node2" class="node"><title>Node2</title>
<g id="a_node2"><a xlink:href="structvisioncpp_1_1internal_1_1CreatePyramidTuple.html#a29e836c4b66a03b79893cd3da650da06" target="_top" xlink:title="create_tuple function: ">
<polygon fill="none" stroke="black" points="195,-774.5 195,-815.5 307,-815.5 307,-774.5 195,-774.5"/>
<text text-anchor="start" x="203" y="-803.5" font-family="Helvetica,sans-Serif" font-size="10.00">visioncpp::internal</text>
<text text-anchor="start" x="203" y="-792.5" font-family="Helvetica,sans-Serif" font-size="10.00">::CreatePyramidTuple</text>
<text text-anchor="middle" x="251" y="-781.5" font-family="Helvetica,sans-Serif" font-size="10.00">::create_tuple</text>
</a>
</g>
</g>
<!-- Node1&#45;&gt;Node2 -->
<g id="edge1" class="edge"><title>Node1&#45;&gt;Node2</title>
<path fill="none" stroke="midnightblue" d="M54.4524,-475.601C54.6288,-534.928 63.5994,-682.927 144,-764 157.501,-777.614 176.629,-785.322 194.927,-789.661"/>
<polygon fill="midnightblue" stroke="midnightblue" points="57.9541,-475.296 54.5111,-465.276 50.9542,-475.256 57.9541,-475.296"/>
</g>
<!-- Node3 -->
<g id="node3" class="node"><title>Node3</title>
<g id="a_node3"><a xlink:href="classvisioncpp_1_1internal_1_1Device___3_01backend_1_1sycl_00_01dv_01_4.html#a9ffe0526cc128163653426e6ab12b7a8" target="_top" xlink:title="visioncpp::internal\l::Device_\&lt; backend::\lsycl, dv \&gt;::execute">
<polygon fill="none" stroke="black" points="196,-714.5 196,-755.5 306,-755.5 306,-714.5 196,-714.5"/>
<text text-anchor="start" x="204" y="-743.5" font-family="Helvetica,sans-Serif" font-size="10.00">visioncpp::internal</text>
<text text-anchor="start" x="204" y="-732.5" font-family="Helvetica,sans-Serif" font-size="10.00">::Device_&lt; backend::</text>
<text text-anchor="middle" x="251" y="-721.5" font-family="Helvetica,sans-Serif" font-size="10.00">sycl, dv &gt;::execute</text>
</a>
</g>
</g>
<!-- Node1&#45;&gt;Node3 -->
<g id="edge2" class="edge"><title>Node1&#45;&gt;Node3</title>
<path fill="none" stroke="midnightblue" d="M56.45,-475.206C60.7491,-525.98 77.6841,-641.078 144,-704 158.048,-717.329 177.511,-724.966 195.929,-729.328"/>
<polygon fill="midnightblue" stroke="midnightblue" points="59.9313,-474.824 55.6932,-465.114 52.9509,-475.348 59.9313,-474.824"/>
</g>
<!-- Node4 -->
<g id="node4" class="node"><title>Node4</title>
<g id="a_node4"><a xlink:href="structvisioncpp_1_1internal_1_1ExtractAccessor_3_01expr__category_1_1Binary_00_01Expr_01_4.html#a5d116934fc21c31523d1e3c8e2becc94" target="_top" xlink:title="visioncpp::internal\l::ExtractAccessor\&lt; expr\l_category::Binary, Expr\l \&gt;::getTuple">
<polygon fill="none" stroke="black" points="189.5,-643 189.5,-695 312.5,-695 312.5,-643 189.5,-643"/>
<text text-anchor="start" x="197.5" y="-683" font-family="Helvetica,sans-Serif" font-size="10.00">visioncpp::internal</text>
<text text-anchor="start" x="197.5" y="-672" font-family="Helvetica,sans-Serif" font-size="10.00">::ExtractAccessor&lt; expr</text>
<text text-anchor="start" x="197.5" y="-661" font-family="Helvetica,sans-Serif" font-size="10.00">_category::Binary, Expr</text>
<text text-anchor="middle" x="251" y="-650" font-family="Helvetica,sans-Serif" font-size="10.00"> &gt;::getTuple</text>
</a>
</g>
</g>
<!-- Node1&#45;&gt;Node4 -->
<g id="edge3" class="edge"><title>Node1&#45;&gt;Node4</title>
<path fill="none" stroke="midnightblue" d="M60.5715,-475.004C70.5673,-514.177 95.216,-589.974 144,-633 156.754,-644.249 173.173,-652.014 189.261,-657.362"/>
<polygon fill="midnightblue" stroke="midnightblue" points="63.9522,-474.094 58.1843,-465.207 57.1511,-475.751 63.9522,-474.094"/>
</g>
<!-- Node5 -->
<g id="node5" class="node"><title>Node5</title>
<g id="a_node5"><a xlink:href="structvisioncpp_1_1internal_1_1ExtractAccessor_3_01expr__category_1_1Binary_00_01Assign_3_01LHSEfc4abae0aea7202de83232c2cd152bfb.html#aa4086a76436635bb7049586e7110310c" target="_top" xlink:title="visioncpp::internal\l::ExtractAccessor\&lt; expr\l_category::Binary, Assign\l\&lt; LHSExpr, RHSExpr, Cols,\l Rows, LeafType, LVL \&gt; \&gt;::\lgetTuple">
<polygon fill="none" stroke="black" points="179.5,-550 179.5,-624 322.5,-624 322.5,-550 179.5,-550"/>
<text text-anchor="start" x="187.5" y="-612" font-family="Helvetica,sans-Serif" font-size="10.00">visioncpp::internal</text>
<text text-anchor="start" x="187.5" y="-601" font-family="Helvetica,sans-Serif" font-size="10.00">::ExtractAccessor&lt; expr</text>
<text text-anchor="start" x="187.5" y="-590" font-family="Helvetica,sans-Serif" font-size="10.00">_category::Binary, Assign</text>
<text text-anchor="start" x="187.5" y="-579" font-family="Helvetica,sans-Serif" font-size="10.00">&lt; LHSExpr, RHSExpr, Cols,</text>
<text text-anchor="start" x="187.5" y="-568" font-family="Helvetica,sans-Serif" font-size="10.00"> Rows, LeafType, LVL &gt; &gt;::</text>
<text text-anchor="middle" x="251" y="-557" font-family="Helvetica,sans-Serif" font-size="10.00">getTuple</text>
</a>
</g>
</g>
<!-- Node1&#45;&gt;Node5 -->
<g id="edge4" class="edge"><title>Node1&#45;&gt;Node5</title>
<path fill="none" stroke="midnightblue" d="M73.4383,-473C90.2033,-492.762 116.466,-520.994 144,-540 154.851,-547.49 167.089,-554.225 179.293,-560.099"/>
<polygon fill="midnightblue" stroke="midnightblue" points="75.9482,-470.545 66.8588,-465.101 70.5695,-475.025 75.9482,-470.545"/>
</g>
<!-- Node6 -->
<g id="node6" class="node"><title>Node6</title>
<g id="a_node6"><a xlink:href="structvisioncpp_1_1internal_1_1ExtractAccessor_3_01expr__category_1_1Binary_00_01ParallelCopy_3_72ed56ce6c8a26655ece6832b967cb17.html#ab943e0d7457334ea1861bc3f0155cf74" target="_top" xlink:title="visioncpp::internal\l::ExtractAccessor\&lt; expr\l_category::Binary, ParallelCopy\l\&lt; LHSExpr, RHSExpr, Cols, Rows,\l OffsetColIn, OffsetRowIn, OffsetColOut,\l OffsetRowOut, LeafType, LVL \&gt; \&gt;::getTuple">
<polygon fill="none" stroke="black" points="144,-457 144,-531 358,-531 358,-457 144,-457"/>
<text text-anchor="start" x="152" y="-519" font-family="Helvetica,sans-Serif" font-size="10.00">visioncpp::internal</text>
<text text-anchor="start" x="152" y="-508" font-family="Helvetica,sans-Serif" font-size="10.00">::ExtractAccessor&lt; expr</text>
<text text-anchor="start" x="152" y="-497" font-family="Helvetica,sans-Serif" font-size="10.00">_category::Binary, ParallelCopy</text>
<text text-anchor="start" x="152" y="-486" font-family="Helvetica,sans-Serif" font-size="10.00">&lt; LHSExpr, RHSExpr, Cols, Rows,</text>
<text text-anchor="start" x="152" y="-475" font-family="Helvetica,sans-Serif" font-size="10.00"> OffsetColIn, OffsetRowIn, OffsetColOut,</text>
<text text-anchor="middle" x="251" y="-464" font-family="Helvetica,sans-Serif" font-size="10.00"> OffsetRowOut, LeafType, LVL &gt; &gt;::getTuple</text>
</a>
</g>
</g>
<!-- Node1&#45;&gt;Node6 -->
<g id="edge5" class="edge"><title>Node1&#45;&gt;Node6</title>
<path fill="none" stroke="midnightblue" d="M117.938,-464.201C126.236,-466.074 134.916,-468.032 143.693,-470.013"/>
<polygon fill="midnightblue" stroke="midnightblue" points="118.552,-460.752 108.027,-461.965 117.011,-467.58 118.552,-460.752"/>
</g>
<!-- Node7 -->
<g id="node7" class="node"><title>Node7</title>
<g id="a_node7"><a xlink:href="structvisioncpp_1_1internal_1_1LocalOutput_3_01false_00_01IsRoot_00_01LC_00_01LR_00_01RUnOP_3_01222dc31e6f7adbfd1b3ba76b431263e2.html#a17c779f1e6fa85ef39237eb5db93cec8" target="_top" xlink:title="visioncpp::internal\l::LocalOutput\&lt; false,\l IsRoot, LC, LR, RUnOP\l\&lt; OP, RHSExpr, Cols, Rows,\l LeafType, LVL \&gt; \&gt;::getTuple">
<polygon fill="none" stroke="black" points="176.5,-374.5 176.5,-437.5 325.5,-437.5 325.5,-374.5 176.5,-374.5"/>
<text text-anchor="start" x="184.5" y="-425.5" font-family="Helvetica,sans-Serif" font-size="10.00">visioncpp::internal</text>
<text text-anchor="start" x="184.5" y="-414.5" font-family="Helvetica,sans-Serif" font-size="10.00">::LocalOutput&lt; false,</text>
<text text-anchor="start" x="184.5" y="-403.5" font-family="Helvetica,sans-Serif" font-size="10.00"> IsRoot, LC, LR, RUnOP</text>
<text text-anchor="start" x="184.5" y="-392.5" font-family="Helvetica,sans-Serif" font-size="10.00">&lt; OP, RHSExpr, Cols, Rows,</text>
<text text-anchor="middle" x="251" y="-381.5" font-family="Helvetica,sans-Serif" font-size="10.00"> LeafType, LVL &gt; &gt;::getTuple</text>
</a>
</g>
</g>
<!-- Node1&#45;&gt;Node7 -->
<g id="edge6" class="edge"><title>Node1&#45;&gt;Node7</title>
<path fill="none" stroke="midnightblue" d="M117.839,-435.821C136.419,-431.629 156.929,-427.001 176.137,-422.667"/>
<polygon fill="midnightblue" stroke="midnightblue" points="117.011,-432.42 108.027,-438.035 118.552,-439.248 117.011,-432.42"/>
</g>
<!-- Node8 -->
<g id="node8" class="node"><title>Node8</title>
<g id="a_node8"><a xlink:href="structvisioncpp_1_1internal_1_1LocalOutput_3_01false_00_01IsRoot_00_01LC_00_01LR_00_01RBiOP_3_012aff2f4a38a6baec8f8e4876a21ac04d.html#af800e26ee624f9e5e3b021015a89f457" target="_top" xlink:title="visioncpp::internal\l::LocalOutput\&lt; false,\l IsRoot, LC, LR, RBiOP\l\&lt; OP, LHSExpr, RHSExpr,\l Cols, Rows, LeafType, LVL\l \&gt; \&gt;::getTuple">
<polygon fill="none" stroke="black" points="180.5,-281 180.5,-355 321.5,-355 321.5,-281 180.5,-281"/>
<text text-anchor="start" x="188.5" y="-343" font-family="Helvetica,sans-Serif" font-size="10.00">visioncpp::internal</text>
<text text-anchor="start" x="188.5" y="-332" font-family="Helvetica,sans-Serif" font-size="10.00">::LocalOutput&lt; false,</text>
<text text-anchor="start" x="188.5" y="-321" font-family="Helvetica,sans-Serif" font-size="10.00"> IsRoot, LC, LR, RBiOP</text>
<text text-anchor="start" x="188.5" y="-310" font-family="Helvetica,sans-Serif" font-size="10.00">&lt; OP, LHSExpr, RHSExpr,</text>
<text text-anchor="start" x="188.5" y="-299" font-family="Helvetica,sans-Serif" font-size="10.00"> Cols, Rows, LeafType, LVL</text>
<text text-anchor="middle" x="251" y="-288" font-family="Helvetica,sans-Serif" font-size="10.00"> &gt; &gt;::getTuple</text>
</a>
</g>
</g>
<!-- Node1&#45;&gt;Node8 -->
<g id="edge7" class="edge"><title>Node1&#45;&gt;Node8</title>
<path fill="none" stroke="midnightblue" d="M74.569,-427.379C91.5186,-408.816 117.433,-382.783 144,-365 155.208,-357.497 167.81,-350.703 180.309,-344.759"/>
<polygon fill="midnightblue" stroke="midnightblue" points="71.9542,-425.053 67.878,-434.832 77.163,-429.729 71.9542,-425.053"/>
</g>
<!-- Node9 -->
<g id="node9" class="node"><title>Node9</title>
<g id="a_node9"><a xlink:href="structvisioncpp_1_1internal_1_1LocalOutput_3_01false_00_01IsRoot_00_01LC_00_01LR_00_01StnFilt_3_78467c599a542dd94fd0a9e3d6a02a30.html#a50566348e971a8dd50644cbdec9725e5" target="_top" xlink:title="visioncpp::internal\l::LocalOutput\&lt; false,\l IsRoot, LC, LR, StnFilt\l\&lt; OP, Halo_T, Halo_L, Halo\l_B, Halo_R, LHSExpr, RHSExpr,\l Cols, Rows, LeafType, LVL \&gt;\l \&gt;::getTuple">
<polygon fill="none" stroke="black" points="169,-176.5 169,-261.5 333,-261.5 333,-176.5 169,-176.5"/>
<text text-anchor="start" x="177" y="-249.5" font-family="Helvetica,sans-Serif" font-size="10.00">visioncpp::internal</text>
<text text-anchor="start" x="177" y="-238.5" font-family="Helvetica,sans-Serif" font-size="10.00">::LocalOutput&lt; false,</text>
<text text-anchor="start" x="177" y="-227.5" font-family="Helvetica,sans-Serif" font-size="10.00"> IsRoot, LC, LR, StnFilt</text>
<text text-anchor="start" x="177" y="-216.5" font-family="Helvetica,sans-Serif" font-size="10.00">&lt; OP, Halo_T, Halo_L, Halo</text>
<text text-anchor="start" x="177" y="-205.5" font-family="Helvetica,sans-Serif" font-size="10.00">_B, Halo_R, LHSExpr, RHSExpr,</text>
<text text-anchor="start" x="177" y="-194.5" font-family="Helvetica,sans-Serif" font-size="10.00"> Cols, Rows, LeafType, LVL &gt;</text>
<text text-anchor="middle" x="251" y="-183.5" font-family="Helvetica,sans-Serif" font-size="10.00"> &gt;::getTuple</text>
</a>
</g>
</g>
<!-- Node1&#45;&gt;Node9 -->
<g id="edge8" class="edge"><title>Node1&#45;&gt;Node9</title>
<path fill="none" stroke="midnightblue" d="M61.7977,-425.344C73.2084,-387.951 99.4491,-316.551 144,-272 151.347,-264.653 159.92,-258.142 168.95,-252.423"/>
<polygon fill="midnightblue" stroke="midnightblue" points="58.4399,-424.357 58.9697,-434.938 65.1543,-426.336 58.4399,-424.357"/>
</g>
<!-- Node10 -->
<g id="node10" class="node"><title>Node10</title>
<g id="a_node10"><a xlink:href="structvisioncpp_1_1internal_1_1LocalOutput_3_01false_00_01IsRoot_00_01LC_00_01LR_00_01StnNoFilt_d45bb2f039daef54effcd1874753b2c3.html#a7ca4ad4544d257ccaa61badc635beb37" target="_top" xlink:title="visioncpp::internal\l::LocalOutput\&lt; false,\l IsRoot, LC, LR, StnNoFilt\l\&lt; OP, Halo_T, Halo_L, Halo\l_B, Halo_R, RHSExpr, Cols,\l Rows, LeafType, LVL \&gt; \&gt;::getTuple">
<polygon fill="none" stroke="black" points="163,-83 163,-157 339,-157 339,-83 163,-83"/>
<text text-anchor="start" x="171" y="-145" font-family="Helvetica,sans-Serif" font-size="10.00">visioncpp::internal</text>
<text text-anchor="start" x="171" y="-134" font-family="Helvetica,sans-Serif" font-size="10.00">::LocalOutput&lt; false,</text>
<text text-anchor="start" x="171" y="-123" font-family="Helvetica,sans-Serif" font-size="10.00"> IsRoot, LC, LR, StnNoFilt</text>
<text text-anchor="start" x="171" y="-112" font-family="Helvetica,sans-Serif" font-size="10.00">&lt; OP, Halo_T, Halo_L, Halo</text>
<text text-anchor="start" x="171" y="-101" font-family="Helvetica,sans-Serif" font-size="10.00">_B, Halo_R, RHSExpr, Cols,</text>
<text text-anchor="middle" x="251" y="-90" font-family="Helvetica,sans-Serif" font-size="10.00"> Rows, LeafType, LVL &gt; &gt;::getTuple</text>
</a>
</g>
</g>
<!-- Node1&#45;&gt;Node10 -->
<g id="edge9" class="edge"><title>Node1&#45;&gt;Node10</title>
<path fill="none" stroke="midnightblue" d="M56.1813,-424.607C59.9978,-370.585 76.1095,-243.004 144,-167 149.498,-160.845 155.954,-155.455 162.92,-150.744"/>
<polygon fill="midnightblue" stroke="midnightblue" points="52.6821,-424.486 55.5546,-434.684 59.6686,-424.92 52.6821,-424.486"/>
</g>
<!-- Node11 -->
<g id="node11" class="node"><title>Node11</title>
<g id="a_node11"><a xlink:href="structvisioncpp_1_1internal_1_1LocalOutput_3_01false_00_01IsRoot_00_01LC_00_01LR_00_01RDCN_3_01O985b5cf5bfc049f9ae66cfbe725d4e32.html#a85cc60fe30b8670638b13c098a889ad6" target="_top" xlink:title="visioncpp::internal\l::LocalOutput\&lt; false,\l IsRoot, LC, LR, RDCN\l\&lt; OP, RHSExpr, Cols, Rows,\l LeafType, LVL \&gt; \&gt;::getTuple">
<polygon fill="none" stroke="black" points="176.5,-0.5 176.5,-63.5 325.5,-63.5 325.5,-0.5 176.5,-0.5"/>
<text text-anchor="start" x="184.5" y="-51.5" font-family="Helvetica,sans-Serif" font-size="10.00">visioncpp::internal</text>
<text text-anchor="start" x="184.5" y="-40.5" font-family="Helvetica,sans-Serif" font-size="10.00">::LocalOutput&lt; false,</text>
<text text-anchor="start" x="184.5" y="-29.5" font-family="Helvetica,sans-Serif" font-size="10.00"> IsRoot, LC, LR, RDCN</text>
<text text-anchor="start" x="184.5" y="-18.5" font-family="Helvetica,sans-Serif" font-size="10.00">&lt; OP, RHSExpr, Cols, Rows,</text>
<text text-anchor="middle" x="251" y="-7.5" font-family="Helvetica,sans-Serif" font-size="10.00"> LeafType, LVL &gt; &gt;::getTuple</text>
</a>
</g>
</g>
<!-- Node1&#45;&gt;Node11 -->
<g id="edge10" class="edge"><title>Node1&#45;&gt;Node11</title>
<path fill="none" stroke="midnightblue" d="M57.9144,-424.83C67.0937,-349.494 97.5787,-127.683 144,-74 152.74,-63.8933 164.24,-56.1963 176.437,-50.3409"/>
<polygon fill="midnightblue" stroke="midnightblue" points="54.4291,-424.5 56.7153,-434.845 61.3794,-425.332 54.4291,-424.5"/>
</g>
</g>
</svg>
