<?xml version="1.0" encoding="UTF-8" standalone="no"?>
<!DOCTYPE svg PUBLIC "-//W3C//DTD SVG 1.1//EN"
 "http://www.w3.org/Graphics/SVG/1.1/DTD/svg11.dtd">
<!-- Generated by graphviz version 2.43.0 (0)
 -->
<!-- Title: visioncpp::internal::tools::convert Pages: 1 -->
<svg width="323pt" height="680pt"
 viewBox="0.00 0.00 323.00 680.00" xmlns="http://www.w3.org/2000/svg" xmlns:xlink="http://www.w3.org/1999/xlink">
<g id="graph0" class="graph" transform="scale(1 1) rotate(0) translate(4 676)">
<title>visioncpp::internal::tools::convert</title>
<!-- Node1 -->
<g id="node1" class="node">
<title>Node1</title>
<g id="a_node1"><a xlink:title="function convert">
<polygon fill="#bfbfbf" stroke="black" points="208,-307 208,-337 315,-337 315,-307 208,-307"/>
<text text-anchor="start" x="216" y="-325" font-family="Helvetica,sans-Serif" font-size="10.00">visioncpp::internal</text>
<text text-anchor="middle" x="261.5" y="-314" font-family="Helvetica,sans-Serif" font-size="10.00">::tools::convert</text>
</a>
</g>
</g>
<!-- Node2 -->
<g id="node2" class="node">
<title>Node2</title>
<g id="a_node2"><a xlink:href="structvisioncpp_1_1internal_1_1EvalExpr_3_01RDCN_3_01C__OP_00_01RHS_00_01Cols_00_01Rows_00_01LfT8c8d43150999b006086b237539962930.html#ae4f791078ea9036bdb1afbeec7c1a499" target="_top" xlink:title=" ">
<polygon fill="none" stroke="black" points="7,-608.5 7,-671.5 165,-671.5 165,-608.5 7,-608.5"/>
<text text-anchor="start" x="15" y="-659.5" font-family="Helvetica,sans-Serif" font-size="10.00">visioncpp::internal</text>
<text text-anchor="start" x="15" y="-648.5" font-family="Helvetica,sans-Serif" font-size="10.00">::EvalExpr&lt; RDCN&lt; C</text>
<text text-anchor="start" x="15" y="-637.5" font-family="Helvetica,sans-Serif" font-size="10.00">_OP, RHS, Cols, Rows,</text>
<text text-anchor="start" x="15" y="-626.5" font-family="Helvetica,sans-Serif" font-size="10.00"> LfType, LVL &gt;, Loc, Params...</text>
<text text-anchor="middle" x="86" y="-615.5" font-family="Helvetica,sans-Serif" font-size="10.00"> &gt;::eval_global_neighbour</text>
</a>
</g>
</g>
<!-- Node1&#45;&gt;Node2 -->
<g id="edge1" class="edge">
<title>Node1&#45;&gt;Node2</title>
<path fill="none" stroke="midnightblue" d="M258.96,-347.4C254.47,-400.37 237.22,-523.93 172,-599 169.1,-602.34 165.86,-605.43 162.4,-608.29"/>
<polygon fill="midnightblue" stroke="midnightblue" points="262.46,-347.45 259.73,-337.21 255.48,-346.92 262.46,-347.45"/>
</g>
<!-- Node3 -->
<g id="node3" class="node">
<title>Node3</title>
<g id="a_node3"><a xlink:href="structvisioncpp_1_1internal_1_1EvalExpr_3_01RDCN_3_01C__OP_00_01RHS_00_01Cols_00_01Rows_00_01LfT8c8d43150999b006086b237539962930.html#a6aae6e1e368e345822c332f4c0c97054" target="_top" xlink:title="evaluate function when the internal::ops_category is NeighbourOP.">
<polygon fill="none" stroke="black" points="7,-526.5 7,-589.5 165,-589.5 165,-526.5 7,-526.5"/>
<text text-anchor="start" x="15" y="-577.5" font-family="Helvetica,sans-Serif" font-size="10.00">visioncpp::internal</text>
<text text-anchor="start" x="15" y="-566.5" font-family="Helvetica,sans-Serif" font-size="10.00">::EvalExpr&lt; RDCN&lt; C</text>
<text text-anchor="start" x="15" y="-555.5" font-family="Helvetica,sans-Serif" font-size="10.00">_OP, RHS, Cols, Rows,</text>
<text text-anchor="start" x="15" y="-544.5" font-family="Helvetica,sans-Serif" font-size="10.00"> LfType, LVL &gt;, Loc, Params...</text>
<text text-anchor="middle" x="86" y="-533.5" font-family="Helvetica,sans-Serif" font-size="10.00"> &gt;::eval_neighbour</text>
</a>
</g>
</g>
<!-- Node1&#45;&gt;Node3 -->
<g id="edge2" class="edge">
<title>Node1&#45;&gt;Node3</title>
<path fill="none" stroke="midnightblue" d="M255.01,-347.04C244.99,-387.5 220.17,-467.69 172,-517 168.68,-520.4 165.02,-523.55 161.14,-526.48"/>
<polygon fill="midnightblue" stroke="midnightblue" points="258.45,-347.74 257.35,-337.2 251.64,-346.12 258.45,-347.74"/>
</g>
<!-- Node4 -->
<g id="node4" class="node">
<title>Node4</title>
<g id="a_node4"><a xlink:href="structvisioncpp_1_1internal_1_1EvalExpr_3_01StnFilt_3_01C__OP_00_01Halo__T_00_01Halo__L_00_01Hal3690e60d43e39520bd684a51e78c32a1.html#a1b2187d5c9d69078ec7380ca2ef43930" target="_top" xlink:title="evaluate function when the internal::ops_category is NeighbourOP.">
<polygon fill="none" stroke="black" points="16,-422.5 16,-507.5 156,-507.5 156,-422.5 16,-422.5"/>
<text text-anchor="start" x="24" y="-495.5" font-family="Helvetica,sans-Serif" font-size="10.00">visioncpp::internal</text>
<text text-anchor="start" x="24" y="-484.5" font-family="Helvetica,sans-Serif" font-size="10.00">::EvalExpr&lt; StnFilt</text>
<text text-anchor="start" x="24" y="-473.5" font-family="Helvetica,sans-Serif" font-size="10.00">&lt; C_OP, Halo_T, Halo</text>
<text text-anchor="start" x="24" y="-462.5" font-family="Helvetica,sans-Serif" font-size="10.00">_L, Halo_B, Halo_R, LHS,</text>
<text text-anchor="start" x="24" y="-451.5" font-family="Helvetica,sans-Serif" font-size="10.00"> RHS, Cols, Rows, LfType,</text>
<text text-anchor="start" x="24" y="-440.5" font-family="Helvetica,sans-Serif" font-size="10.00"> LVL &gt;, Loc, Params... &gt;</text>
<text text-anchor="middle" x="86" y="-429.5" font-family="Helvetica,sans-Serif" font-size="10.00">::eval_neighbour</text>
</a>
</g>
</g>
<!-- Node1&#45;&gt;Node4 -->
<g id="edge3" class="edge">
<title>Node1&#45;&gt;Node4</title>
<path fill="none" stroke="midnightblue" d="M241,-345.08C223.94,-364.48 197.91,-392.3 172,-413 167,-417 161.67,-420.92 156.21,-424.72"/>
<polygon fill="midnightblue" stroke="midnightblue" points="243.82,-347.17 247.73,-337.32 238.53,-342.58 243.82,-347.17"/>
</g>
<!-- Node5 -->
<g id="node5" class="node">
<title>Node5</title>
<g id="a_node5"><a xlink:href="structvisioncpp_1_1internal_1_1EvalExpr_3_01StnNoFilt_3_01C__OP_00_01Halo__T_00_01Halo__L_00_01Hc8751eddb8d9925ba96b0bc205f2035f.html#ad99b1ceb5e6045a4b2c5444d3a364e40" target="_top" xlink:title="evaluate function when the internal::ops_category is NeighbourOP.">
<polygon fill="none" stroke="black" points="7.5,-329 7.5,-403 164.5,-403 164.5,-329 7.5,-329"/>
<text text-anchor="start" x="15.5" y="-391" font-family="Helvetica,sans-Serif" font-size="10.00">visioncpp::internal</text>
<text text-anchor="start" x="15.5" y="-380" font-family="Helvetica,sans-Serif" font-size="10.00">::EvalExpr&lt; StnNoFilt</text>
<text text-anchor="start" x="15.5" y="-369" font-family="Helvetica,sans-Serif" font-size="10.00">&lt; C_OP, Halo_T, Halo_L,</text>
<text text-anchor="start" x="15.5" y="-358" font-family="Helvetica,sans-Serif" font-size="10.00"> Halo_B, Halo_R, RHS, Cols,</text>
<text text-anchor="start" x="15.5" y="-347" font-family="Helvetica,sans-Serif" font-size="10.00"> Rows, LfType, LVL &gt;, Loc,</text>
<text text-anchor="middle" x="86" y="-336" font-family="Helvetica,sans-Serif" font-size="10.00"> Params... &gt;::eval_neighbour</text>
</a>
</g>
</g>
<!-- Node1&#45;&gt;Node5 -->
<g id="edge4" class="edge">
<title>Node1&#45;&gt;Node5</title>
<path fill="none" stroke="midnightblue" d="M198.17,-337.81C187.29,-340.57 175.86,-343.46 164.63,-346.31"/>
<polygon fill="midnightblue" stroke="midnightblue" points="199.14,-341.17 207.97,-335.32 197.42,-334.39 199.14,-341.17"/>
</g>
<!-- Node6 -->
<g id="node6" class="node">
<title>Node6</title>
<g id="a_node6"><a xlink:href="structvisioncpp_1_1internal_1_1EvalExpr_3_01RUnOP_3_01UN__OP_00_01Nested_00_01Cols_00_01Rows_00_798d17f6ff6a8c924dcf80fd69add3c4.html#a120ba27b1540b24b9bd713f1c2bc09ce" target="_top" xlink:title="evaluate function when the internal::ops_category is NeighbourOP.">
<polygon fill="none" stroke="black" points="7,-246.5 7,-309.5 165,-309.5 165,-246.5 7,-246.5"/>
<text text-anchor="start" x="15" y="-297.5" font-family="Helvetica,sans-Serif" font-size="10.00">visioncpp::internal</text>
<text text-anchor="start" x="15" y="-286.5" font-family="Helvetica,sans-Serif" font-size="10.00">::EvalExpr&lt; RUnOP&lt; UN</text>
<text text-anchor="start" x="15" y="-275.5" font-family="Helvetica,sans-Serif" font-size="10.00">_OP, Nested, Cols, Rows,</text>
<text text-anchor="start" x="15" y="-264.5" font-family="Helvetica,sans-Serif" font-size="10.00"> LfType, LVL &gt;, Loc, Params...</text>
<text text-anchor="middle" x="86" y="-253.5" font-family="Helvetica,sans-Serif" font-size="10.00"> &gt;::eval_neighbour</text>
</a>
</g>
</g>
<!-- Node1&#45;&gt;Node6 -->
<g id="edge5" class="edge">
<title>Node1&#45;&gt;Node6</title>
<path fill="none" stroke="midnightblue" d="M197.98,-306.15C187.37,-303.45 176.23,-300.63 165.28,-297.85"/>
<polygon fill="midnightblue" stroke="midnightblue" points="197.42,-309.61 207.97,-308.68 199.14,-302.83 197.42,-309.61"/>
</g>
<!-- Node7 -->
<g id="node7" class="node">
<title>Node7</title>
<g id="a_node7"><a xlink:href="structvisioncpp_1_1internal_1_1EvalExpr_3_01RBiOP_3_01BI__OP_00_01LHS_00_01RHS_00_01Cols_00_01Roa9f52694509ef22e8d940c587e28326e.html#ab36078d7b10a148fed01295f20da2d1e" target="_top" xlink:title="evaluate function when the internal::ops_category is NeighbourOP.">
<polygon fill="none" stroke="black" points="7,-164.5 7,-227.5 165,-227.5 165,-164.5 7,-164.5"/>
<text text-anchor="start" x="15" y="-215.5" font-family="Helvetica,sans-Serif" font-size="10.00">visioncpp::internal</text>
<text text-anchor="start" x="15" y="-204.5" font-family="Helvetica,sans-Serif" font-size="10.00">::EvalExpr&lt; RBiOP&lt; BI</text>
<text text-anchor="start" x="15" y="-193.5" font-family="Helvetica,sans-Serif" font-size="10.00">_OP, LHS, RHS, Cols, Rows,</text>
<text text-anchor="start" x="15" y="-182.5" font-family="Helvetica,sans-Serif" font-size="10.00"> LfType, LVL &gt;, Loc, Params...</text>
<text text-anchor="middle" x="86" y="-171.5" font-family="Helvetica,sans-Serif" font-size="10.00"> &gt;::eval_neighbour</text>
</a>
</g>
</g>
<!-- Node1&#45;&gt;Node7 -->
<g id="edge6" class="edge">
<title>Node1&#45;&gt;Node7</title>
<path fill="none" stroke="midnightblue" d="M240.46,-299.09C223.52,-280.69 197.94,-255.03 172,-237 167.29,-233.73 162.28,-230.58 157.14,-227.59"/>
<polygon fill="midnightblue" stroke="midnightblue" points="238.3,-301.92 247.6,-306.99 243.49,-297.22 238.3,-301.92"/>
</g>
<!-- Node8 -->
<g id="node8" class="node">
<title>Node8</title>
<g id="a_node8"><a xlink:href="structvisioncpp_1_1internal_1_1EvalExpr_3_01Assign_3_01LHS_00_01RHS_00_01Cols_00_01Rows_00_01LfTeef9e8bb9ee55fb68584e2a0065c5dfc.html#a74179b14c4b68fb166bb9d2f6960684f" target="_top" xlink:title="evaluate function when the internal::ops_category is NeighbourOP.">
<polygon fill="none" stroke="black" points="7,-82.5 7,-145.5 165,-145.5 165,-82.5 7,-82.5"/>
<text text-anchor="start" x="15" y="-133.5" font-family="Helvetica,sans-Serif" font-size="10.00">visioncpp::internal</text>
<text text-anchor="start" x="15" y="-122.5" font-family="Helvetica,sans-Serif" font-size="10.00">::EvalExpr&lt; Assign&lt;</text>
<text text-anchor="start" x="15" y="-111.5" font-family="Helvetica,sans-Serif" font-size="10.00"> LHS, RHS, Cols, Rows,</text>
<text text-anchor="start" x="15" y="-100.5" font-family="Helvetica,sans-Serif" font-size="10.00"> LfType, LVL &gt;, Loc, Params...</text>
<text text-anchor="middle" x="86" y="-89.5" font-family="Helvetica,sans-Serif" font-size="10.00"> &gt;::eval_neighbour</text>
</a>
</g>
</g>
<!-- Node1&#45;&gt;Node8 -->
<g id="edge7" class="edge">
<title>Node1&#45;&gt;Node8</title>
<path fill="none" stroke="midnightblue" d="M252.84,-297C240.81,-261.37 214.38,-195.81 172,-155 168.58,-151.7 164.84,-148.63 160.9,-145.77"/>
<polygon fill="midnightblue" stroke="midnightblue" points="249.55,-298.2 255.98,-306.62 256.21,-296.03 249.55,-298.2"/>
</g>
<!-- Node9 -->
<g id="node9" class="node">
<title>Node9</title>
<g id="a_node9"><a xlink:href="structvisioncpp_1_1internal_1_1Fill_3_01LeafNode_3_01PlaceHolder_3_01Memory__Type_00_01N_00_01Cob4f49ce9b4cd65c2744937e3f744a267.html#a64046a2bcc570986c628aa2240f6a590" target="_top" xlink:title=" ">
<polygon fill="none" stroke="black" points="0,-0.5 0,-63.5 172,-63.5 172,-0.5 0,-0.5"/>
<text text-anchor="start" x="8" y="-51.5" font-family="Helvetica,sans-Serif" font-size="10.00">visioncpp::internal</text>
<text text-anchor="start" x="8" y="-40.5" font-family="Helvetica,sans-Serif" font-size="10.00">::Fill&lt; LeafNode&lt; PlaceHolder</text>
<text text-anchor="start" x="8" y="-29.5" font-family="Helvetica,sans-Serif" font-size="10.00">&lt; Memory_Type, N, Cols, Rows,</text>
<text text-anchor="start" x="8" y="-18.5" font-family="Helvetica,sans-Serif" font-size="10.00"> Sc &gt;, LVL &gt;, Loc, Params...</text>
<text text-anchor="middle" x="86" y="-7.5" font-family="Helvetica,sans-Serif" font-size="10.00"> &gt;::fill_neighbour</text>
</a>
</g>
</g>
<!-- Node1&#45;&gt;Node9 -->
<g id="edge8" class="edge">
<title>Node1&#45;&gt;Node9</title>
<path fill="none" stroke="midnightblue" d="M257.89,-296.79C251.59,-247.9 231.4,-139.18 172,-73 168.94,-69.59 165.53,-66.43 161.88,-63.51"/>
<polygon fill="midnightblue" stroke="midnightblue" points="254.42,-297.3 259.09,-306.82 261.37,-296.47 254.42,-297.3"/>
</g>
</g>
</svg>
