<?xml version="1.0" encoding="UTF-8" standalone="no"?>
<!DOCTYPE svg PUBLIC "-//W3C//DTD SVG 1.1//EN"
 "http://www.w3.org/Graphics/SVG/1.1/DTD/svg11.dtd">
<!-- Generated by graphviz version 2.43.0 (0)
 -->
<!-- Title: visioncpp::internal::calculate_index Pages: 1 -->
<svg width="375pt" height="1316pt"
 viewBox="0.00 0.00 375.00 1315.50" xmlns="http://www.w3.org/2000/svg" xmlns:xlink="http://www.w3.org/1999/xlink">
<g id="graph0" class="graph" transform="scale(1 1) rotate(0) translate(4 1311.5)">
<title>visioncpp::internal::calculate_index</title>
<!-- Node1 -->
<g id="node1" class="node">
<title>Node1</title>
<g id="a_node1"><a xlink:title="function calculate_index">
<polygon fill="#bfbfbf" stroke="black" points="260,-678 260,-708 367,-708 367,-678 260,-678"/>
<text text-anchor="start" x="268" y="-696" font-family="Helvetica,sans-Serif" font-size="10.00">visioncpp::internal</text>
<text text-anchor="middle" x="313.5" y="-685" font-family="Helvetica,sans-Serif" font-size="10.00">::calculate_index</text>
</a>
</g>
</g>
<!-- Node2 -->
<g id="node2" class="node">
<title>Node2</title>
<g id="a_node2"><a xlink:href="structvisioncpp_1_1internal_1_1LocalNeighbour.html#abd86db7284e43f07e0e143dcb3f9b349" target="_top" xlink:title="function at provides access to a specific Coordinate for a 2d buffer parameters:">
<polygon fill="none" stroke="black" points="33,-1277 33,-1307 191,-1307 191,-1277 33,-1277"/>
<text text-anchor="start" x="41" y="-1295" font-family="Helvetica,sans-Serif" font-size="10.00">visioncpp::internal</text>
<text text-anchor="middle" x="112" y="-1284" font-family="Helvetica,sans-Serif" font-size="10.00">::LocalNeighbour&lt; InTp &gt;::at</text>
</a>
</g>
</g>
<!-- Node1&#45;&gt;Node2 -->
<g id="edge1" class="edge">
<title>Node1&#45;&gt;Node2</title>
<path fill="none" stroke="midnightblue" d="M312.27,-718.12C310.85,-818.18 300.41,-1186.84 224,-1268 215.15,-1277.4 203.56,-1283.56 191.21,-1287.53"/>
<polygon fill="midnightblue" stroke="midnightblue" points="315.78,-718.07 312.4,-708.03 308.78,-717.99 315.78,-718.07"/>
</g>
<!-- Node3 -->
<g id="node3" class="node">
<title>Node3</title>
<g id="a_node3"><a xlink:href="structvisioncpp_1_1internal_1_1GlobalNeighbour.html#a6d80b58a64c1b9c6f86071f22dff4b09" target="_top" xlink:title="function at provides access to a specific Coordinate for a 2d buffer parameters:">
<polygon fill="none" stroke="black" points="30,-1228 30,-1258 194,-1258 194,-1228 30,-1228"/>
<text text-anchor="start" x="38" y="-1246" font-family="Helvetica,sans-Serif" font-size="10.00">visioncpp::internal</text>
<text text-anchor="middle" x="112" y="-1235" font-family="Helvetica,sans-Serif" font-size="10.00">::GlobalNeighbour&lt; InTp &gt;::at</text>
</a>
</g>
</g>
<!-- Node1&#45;&gt;Node3 -->
<g id="edge2" class="edge">
<title>Node1&#45;&gt;Node3</title>
<path fill="none" stroke="midnightblue" d="M311.88,-718.09C309.02,-812.63 294.05,-1145.64 224,-1219 215.83,-1227.56 205.39,-1233.42 194.2,-1237.38"/>
<polygon fill="midnightblue" stroke="midnightblue" points="315.38,-718.11 312.17,-708.02 308.38,-717.91 315.38,-718.11"/>
</g>
<!-- Node4 -->
<g id="node4" class="node">
<title>Node4</title>
<g id="a_node4"><a xlink:href="structvisioncpp_1_1internal_1_1ConstNeighbour.html#a0dca7d426a9612f4a1ad09f576a785a1" target="_top" xlink:title="function at provides access to a specific coordinate for a 2d buffer parameters:">
<polygon fill="none" stroke="black" points="29,-1179 29,-1209 195,-1209 195,-1179 29,-1179"/>
<text text-anchor="start" x="37" y="-1197" font-family="Helvetica,sans-Serif" font-size="10.00">visioncpp::internal</text>
<text text-anchor="middle" x="112" y="-1186" font-family="Helvetica,sans-Serif" font-size="10.00">::ConstNeighbour&lt; InTp2 &gt;::at</text>
</a>
</g>
</g>
<!-- Node1&#45;&gt;Node4 -->
<g id="edge3" class="edge">
<title>Node1&#45;&gt;Node4</title>
<path fill="none" stroke="midnightblue" d="M311.37,-718.26C306.86,-807.1 287.25,-1103.32 224,-1169 216.05,-1177.25 206.01,-1183.05 195.23,-1187.08"/>
<polygon fill="midnightblue" stroke="midnightblue" points="314.86,-718.42 311.85,-708.26 307.87,-718.08 314.86,-718.42"/>
</g>
<!-- Node5 -->
<g id="node5" class="node">
<title>Node5</title>
<g id="a_node5"><a xlink:href="structvisioncpp_1_1internal_1_1Evaluator_3_01ops__category_1_1PointOP_00_01OutputIndex_00_01Offs0b8899129ecfb73ef2c5ef3275f568e8.html#a647fb0ca0a8835901d3c86c510cc692e" target="_top" xlink:title=" ">
<polygon fill="none" stroke="black" points="0,-1074.5 0,-1159.5 224,-1159.5 224,-1074.5 0,-1074.5"/>
<text text-anchor="start" x="8" y="-1147.5" font-family="Helvetica,sans-Serif" font-size="10.00">visioncpp::internal</text>
<text text-anchor="start" x="8" y="-1136.5" font-family="Helvetica,sans-Serif" font-size="10.00">::Evaluator&lt; ops_category</text>
<text text-anchor="start" x="8" y="-1125.5" font-family="Helvetica,sans-Serif" font-size="10.00">::PointOP, OutputIndex,</text>
<text text-anchor="start" x="8" y="-1114.5" font-family="Helvetica,sans-Serif" font-size="10.00"> Offset, LC, LR, ParallelCopy</text>
<text text-anchor="start" x="8" y="-1103.5" font-family="Helvetica,sans-Serif" font-size="10.00">&lt; LHS, RHS, Cols, Rows, OffsetColIn,</text>
<text text-anchor="start" x="8" y="-1092.5" font-family="Helvetica,sans-Serif" font-size="10.00"> OffsetRowIn, OffsetColOut, OffsetRowOut,</text>
<text text-anchor="middle" x="112" y="-1081.5" font-family="Helvetica,sans-Serif" font-size="10.00"> LfType, LVL &gt;, Loc, Params... &gt;::eval</text>
</a>
</g>
</g>
<!-- Node1&#45;&gt;Node5 -->
<g id="edge4" class="edge">
<title>Node1&#45;&gt;Node5</title>
<path fill="none" stroke="midnightblue" d="M309.37,-718.28C299.7,-792.95 268.23,-1010.65 224,-1065 221.31,-1068.3 218.37,-1071.4 215.22,-1074.32"/>
<polygon fill="midnightblue" stroke="midnightblue" points="312.85,-718.7 310.64,-708.34 305.9,-717.82 312.85,-718.7"/>
</g>
<!-- Node6 -->
<g id="node6" class="node">
<title>Node6</title>
<g id="a_node6"><a xlink:href="structvisioncpp_1_1internal_1_1Evaluator_3_01internal_1_1ops__category_1_1PointOP_00_01Output__I849edaebbb65e3c18fe700550b74d862.html#a49701f742b4b4d459ce87de353560d86" target="_top" xlink:title=" ">
<polygon fill="none" stroke="black" points="32.5,-970.5 32.5,-1055.5 191.5,-1055.5 191.5,-970.5 32.5,-970.5"/>
<text text-anchor="start" x="40.5" y="-1043.5" font-family="Helvetica,sans-Serif" font-size="10.00">visioncpp::internal</text>
<text text-anchor="start" x="40.5" y="-1032.5" font-family="Helvetica,sans-Serif" font-size="10.00">::Evaluator&lt; internal</text>
<text text-anchor="start" x="40.5" y="-1021.5" font-family="Helvetica,sans-Serif" font-size="10.00">::ops_category::PointOP,</text>
<text text-anchor="start" x="40.5" y="-1010.5" font-family="Helvetica,sans-Serif" font-size="10.00"> Output_Index, Offset, LC,</text>
<text text-anchor="start" x="40.5" y="-999.5" font-family="Helvetica,sans-Serif" font-size="10.00"> LR, internal::Assign&lt; LHS,</text>
<text text-anchor="start" x="40.5" y="-988.5" font-family="Helvetica,sans-Serif" font-size="10.00"> RHS, Cols, Rows, LfType, LVL</text>
<text text-anchor="middle" x="112" y="-977.5" font-family="Helvetica,sans-Serif" font-size="10.00"> &gt;, Loc, Params... &gt;::eval</text>
</a>
</g>
</g>
<!-- Node1&#45;&gt;Node6 -->
<g id="edge5" class="edge">
<title>Node1&#45;&gt;Node6</title>
<path fill="none" stroke="midnightblue" d="M310.71,-718.34C305.78,-770.1 287.78,-889.13 224,-961 215.03,-971.11 203.68,-979.4 191.68,-986.16"/>
<polygon fill="midnightblue" stroke="midnightblue" points="314.22,-718.34 311.59,-708.08 307.25,-717.74 314.22,-718.34"/>
</g>
<!-- Node7 -->
<g id="node7" class="node">
<title>Node7</title>
<g id="a_node7"><a xlink:href="structvisioncpp_1_1internal_1_1Evaluator_3_01ops__category_1_1NeighbourOP_00_01OutputIndex_00_01ffb772ea5d06a981b55226ede1ed30f7.html#a40bd7a30d54d216453200a014dd80470" target="_top" xlink:title=" ">
<polygon fill="none" stroke="black" points="0,-866.5 0,-951.5 224,-951.5 224,-866.5 0,-866.5"/>
<text text-anchor="start" x="8" y="-939.5" font-family="Helvetica,sans-Serif" font-size="10.00">visioncpp::internal</text>
<text text-anchor="start" x="8" y="-928.5" font-family="Helvetica,sans-Serif" font-size="10.00">::Evaluator&lt; ops_category</text>
<text text-anchor="start" x="8" y="-917.5" font-family="Helvetica,sans-Serif" font-size="10.00">::NeighbourOP, OutputIndex,</text>
<text text-anchor="start" x="8" y="-906.5" font-family="Helvetica,sans-Serif" font-size="10.00"> Offset, LC, LR, ParallelCopy</text>
<text text-anchor="start" x="8" y="-895.5" font-family="Helvetica,sans-Serif" font-size="10.00">&lt; LHS, RHS, Cols, Rows, OffsetColIn,</text>
<text text-anchor="start" x="8" y="-884.5" font-family="Helvetica,sans-Serif" font-size="10.00"> OffsetRowIn, OffsetColOut, OffsetRowOut,</text>
<text text-anchor="middle" x="112" y="-873.5" font-family="Helvetica,sans-Serif" font-size="10.00"> LfType, LVL &gt;, Loc, Params... &gt;::eval</text>
</a>
</g>
</g>
<!-- Node1&#45;&gt;Node7 -->
<g id="edge6" class="edge">
<title>Node1&#45;&gt;Node7</title>
<path fill="none" stroke="midnightblue" d="M304.63,-718.07C292.45,-753.23 265.99,-817.33 224,-857 220.52,-860.29 216.79,-863.4 212.89,-866.34"/>
<polygon fill="midnightblue" stroke="midnightblue" points="308.09,-718.74 307.95,-708.14 301.45,-716.52 308.09,-718.74"/>
</g>
<!-- Node8 -->
<g id="node8" class="node">
<title>Node8</title>
<g id="a_node8"><a xlink:href="structvisioncpp_1_1internal_1_1EvalExpr_3_01RDCN_3_01C__OP_00_01RHS_00_01Cols_00_01Rows_00_01LfT8c8d43150999b006086b237539962930.html#ae4f791078ea9036bdb1afbeec7c1a499" target="_top" xlink:title=" ">
<polygon fill="none" stroke="black" points="33,-784.5 33,-847.5 191,-847.5 191,-784.5 33,-784.5"/>
<text text-anchor="start" x="41" y="-835.5" font-family="Helvetica,sans-Serif" font-size="10.00">visioncpp::internal</text>
<text text-anchor="start" x="41" y="-824.5" font-family="Helvetica,sans-Serif" font-size="10.00">::EvalExpr&lt; RDCN&lt; C</text>
<text text-anchor="start" x="41" y="-813.5" font-family="Helvetica,sans-Serif" font-size="10.00">_OP, RHS, Cols, Rows,</text>
<text text-anchor="start" x="41" y="-802.5" font-family="Helvetica,sans-Serif" font-size="10.00"> LfType, LVL &gt;, Loc, Params...</text>
<text text-anchor="middle" x="112" y="-791.5" font-family="Helvetica,sans-Serif" font-size="10.00"> &gt;::eval_global_neighbour</text>
</a>
</g>
</g>
<!-- Node1&#45;&gt;Node8 -->
<g id="edge7" class="edge">
<title>Node1&#45;&gt;Node8</title>
<path fill="none" stroke="midnightblue" d="M292.45,-716.02C275.67,-734.1 250.32,-758.85 224,-775 213.85,-781.23 202.59,-786.75 191.27,-791.55"/>
<polygon fill="midnightblue" stroke="midnightblue" points="295.39,-717.99 299.52,-708.24 290.21,-713.28 295.39,-717.99"/>
</g>
<!-- Node9 -->
<g id="node9" class="node">
<title>Node9</title>
<g id="a_node9"><a xlink:href="structvisioncpp_1_1internal_1_1EvalExpr_3_01Assign_3_01LHS_00_01RHS_00_01Cols_00_01Rows_00_01LfTeef9e8bb9ee55fb68584e2a0065c5dfc.html#a215d4b84bc7b6b246bc2ae90832ae8a8" target="_top" xlink:title="evaluate function when the internal::ops_category is GlobalNeighbour.">
<polygon fill="none" stroke="black" points="33,-702.5 33,-765.5 191,-765.5 191,-702.5 33,-702.5"/>
<text text-anchor="start" x="41" y="-753.5" font-family="Helvetica,sans-Serif" font-size="10.00">visioncpp::internal</text>
<text text-anchor="start" x="41" y="-742.5" font-family="Helvetica,sans-Serif" font-size="10.00">::EvalExpr&lt; Assign&lt;</text>
<text text-anchor="start" x="41" y="-731.5" font-family="Helvetica,sans-Serif" font-size="10.00"> LHS, RHS, Cols, Rows,</text>
<text text-anchor="start" x="41" y="-720.5" font-family="Helvetica,sans-Serif" font-size="10.00"> LfType, LVL &gt;, Loc, Params...</text>
<text text-anchor="middle" x="112" y="-709.5" font-family="Helvetica,sans-Serif" font-size="10.00"> &gt;::eval_global_neighbour</text>
</a>
</g>
</g>
<!-- Node1&#45;&gt;Node9 -->
<g id="edge8" class="edge">
<title>Node1&#45;&gt;Node9</title>
<path fill="none" stroke="midnightblue" d="M249.99,-705.85C231.35,-709.68 210.68,-713.93 191.17,-717.93"/>
<polygon fill="midnightblue" stroke="midnightblue" points="250.73,-709.27 259.82,-703.83 249.32,-702.41 250.73,-709.27"/>
</g>
<!-- Node10 -->
<g id="node10" class="node">
<title>Node10</title>
<g id="a_node10"><a xlink:href="structvisioncpp_1_1internal_1_1EvalExpr_3_01RDCN_3_01C__OP_00_01RHS_00_01Cols_00_01Rows_00_01LfT8c8d43150999b006086b237539962930.html#a6aae6e1e368e345822c332f4c0c97054" target="_top" xlink:title="evaluate function when the internal::ops_category is NeighbourOP.">
<polygon fill="none" stroke="black" points="33,-620.5 33,-683.5 191,-683.5 191,-620.5 33,-620.5"/>
<text text-anchor="start" x="41" y="-671.5" font-family="Helvetica,sans-Serif" font-size="10.00">visioncpp::internal</text>
<text text-anchor="start" x="41" y="-660.5" font-family="Helvetica,sans-Serif" font-size="10.00">::EvalExpr&lt; RDCN&lt; C</text>
<text text-anchor="start" x="41" y="-649.5" font-family="Helvetica,sans-Serif" font-size="10.00">_OP, RHS, Cols, Rows,</text>
<text text-anchor="start" x="41" y="-638.5" font-family="Helvetica,sans-Serif" font-size="10.00"> LfType, LVL &gt;, Loc, Params...</text>
<text text-anchor="middle" x="112" y="-627.5" font-family="Helvetica,sans-Serif" font-size="10.00"> &gt;::eval_neighbour</text>
</a>
</g>
</g>
<!-- Node1&#45;&gt;Node10 -->
<g id="edge9" class="edge">
<title>Node1&#45;&gt;Node10</title>
<path fill="none" stroke="midnightblue" d="M249.99,-680.15C231.35,-676.32 210.68,-672.07 191.17,-668.07"/>
<polygon fill="midnightblue" stroke="midnightblue" points="249.32,-683.59 259.82,-682.17 250.73,-676.73 249.32,-683.59"/>
</g>
<!-- Node11 -->
<g id="node11" class="node">
<title>Node11</title>
<g id="a_node11"><a xlink:href="structvisioncpp_1_1internal_1_1EvalExpr_3_01StnFilt_3_01C__OP_00_01Halo__T_00_01Halo__L_00_01Hal3690e60d43e39520bd684a51e78c32a1.html#a1b2187d5c9d69078ec7380ca2ef43930" target="_top" xlink:title="evaluate function when the internal::ops_category is NeighbourOP.">
<polygon fill="none" stroke="black" points="42,-516.5 42,-601.5 182,-601.5 182,-516.5 42,-516.5"/>
<text text-anchor="start" x="50" y="-589.5" font-family="Helvetica,sans-Serif" font-size="10.00">visioncpp::internal</text>
<text text-anchor="start" x="50" y="-578.5" font-family="Helvetica,sans-Serif" font-size="10.00">::EvalExpr&lt; StnFilt</text>
<text text-anchor="start" x="50" y="-567.5" font-family="Helvetica,sans-Serif" font-size="10.00">&lt; C_OP, Halo_T, Halo</text>
<text text-anchor="start" x="50" y="-556.5" font-family="Helvetica,sans-Serif" font-size="10.00">_L, Halo_B, Halo_R, LHS,</text>
<text text-anchor="start" x="50" y="-545.5" font-family="Helvetica,sans-Serif" font-size="10.00"> RHS, Cols, Rows, LfType,</text>
<text text-anchor="start" x="50" y="-534.5" font-family="Helvetica,sans-Serif" font-size="10.00"> LVL &gt;, Loc, Params... &gt;</text>
<text text-anchor="middle" x="112" y="-523.5" font-family="Helvetica,sans-Serif" font-size="10.00">::eval_neighbour</text>
</a>
</g>
</g>
<!-- Node1&#45;&gt;Node11 -->
<g id="edge10" class="edge">
<title>Node1&#45;&gt;Node11</title>
<path fill="none" stroke="midnightblue" d="M291.77,-670.25C274.78,-652.54 249.46,-628.15 224,-611 211.03,-602.26 196.35,-594.26 182.02,-587.28"/>
<polygon fill="midnightblue" stroke="midnightblue" points="289.55,-673.01 298.96,-677.88 294.64,-668.2 289.55,-673.01"/>
</g>
<!-- Node12 -->
<g id="node12" class="node">
<title>Node12</title>
<g id="a_node12"><a xlink:href="structvisioncpp_1_1internal_1_1EvalExpr_3_01StnNoFilt_3_01C__OP_00_01Halo__T_00_01Halo__L_00_01Hc8751eddb8d9925ba96b0bc205f2035f.html#ad99b1ceb5e6045a4b2c5444d3a364e40" target="_top" xlink:title="evaluate function when the internal::ops_category is NeighbourOP.">
<polygon fill="none" stroke="black" points="33.5,-423 33.5,-497 190.5,-497 190.5,-423 33.5,-423"/>
<text text-anchor="start" x="41.5" y="-485" font-family="Helvetica,sans-Serif" font-size="10.00">visioncpp::internal</text>
<text text-anchor="start" x="41.5" y="-474" font-family="Helvetica,sans-Serif" font-size="10.00">::EvalExpr&lt; StnNoFilt</text>
<text text-anchor="start" x="41.5" y="-463" font-family="Helvetica,sans-Serif" font-size="10.00">&lt; C_OP, Halo_T, Halo_L,</text>
<text text-anchor="start" x="41.5" y="-452" font-family="Helvetica,sans-Serif" font-size="10.00"> Halo_B, Halo_R, RHS, Cols,</text>
<text text-anchor="start" x="41.5" y="-441" font-family="Helvetica,sans-Serif" font-size="10.00"> Rows, LfType, LVL &gt;, Loc,</text>
<text text-anchor="middle" x="112" y="-430" font-family="Helvetica,sans-Serif" font-size="10.00"> Params... &gt;::eval_neighbour</text>
</a>
</g>
</g>
<!-- Node1&#45;&gt;Node12 -->
<g id="edge11" class="edge">
<title>Node1&#45;&gt;Node12</title>
<path fill="none" stroke="midnightblue" d="M306.74,-668.01C296.49,-628.78 271.56,-552.53 224,-507 214.4,-497.81 202.73,-490.29 190.62,-484.17"/>
<polygon fill="midnightblue" stroke="midnightblue" points="303.37,-668.97 309.19,-677.82 310.16,-667.27 303.37,-668.97"/>
</g>
<!-- Node13 -->
<g id="node13" class="node">
<title>Node13</title>
<g id="a_node13"><a xlink:href="structvisioncpp_1_1internal_1_1EvalExpr_3_01RUnOP_3_01UN__OP_00_01Nested_00_01Cols_00_01Rows_00_798d17f6ff6a8c924dcf80fd69add3c4.html#a120ba27b1540b24b9bd713f1c2bc09ce" target="_top" xlink:title="evaluate function when the internal::ops_category is NeighbourOP.">
<polygon fill="none" stroke="black" points="33,-340.5 33,-403.5 191,-403.5 191,-340.5 33,-340.5"/>
<text text-anchor="start" x="41" y="-391.5" font-family="Helvetica,sans-Serif" font-size="10.00">visioncpp::internal</text>
<text text-anchor="start" x="41" y="-380.5" font-family="Helvetica,sans-Serif" font-size="10.00">::EvalExpr&lt; RUnOP&lt; UN</text>
<text text-anchor="start" x="41" y="-369.5" font-family="Helvetica,sans-Serif" font-size="10.00">_OP, Nested, Cols, Rows,</text>
<text text-anchor="start" x="41" y="-358.5" font-family="Helvetica,sans-Serif" font-size="10.00"> LfType, LVL &gt;, Loc, Params...</text>
<text text-anchor="middle" x="112" y="-347.5" font-family="Helvetica,sans-Serif" font-size="10.00"> &gt;::eval_neighbour</text>
</a>
</g>
</g>
<!-- Node1&#45;&gt;Node13 -->
<g id="edge12" class="edge">
<title>Node1&#45;&gt;Node13</title>
<path fill="none" stroke="midnightblue" d="M311.58,-667.67C308.27,-613.84 293.13,-487.01 224,-414 214.86,-404.35 203.28,-396.9 191.07,-391.15"/>
<polygon fill="midnightblue" stroke="midnightblue" points="308.08,-667.91 312.11,-677.71 315.07,-667.54 308.08,-667.91"/>
</g>
<!-- Node14 -->
<g id="node14" class="node">
<title>Node14</title>
<g id="a_node14"><a xlink:href="structvisioncpp_1_1internal_1_1EvalExpr_3_01RBiOP_3_01BI__OP_00_01LHS_00_01RHS_00_01Cols_00_01Roa9f52694509ef22e8d940c587e28326e.html#ab36078d7b10a148fed01295f20da2d1e" target="_top" xlink:title="evaluate function when the internal::ops_category is NeighbourOP.">
<polygon fill="none" stroke="black" points="33,-258.5 33,-321.5 191,-321.5 191,-258.5 33,-258.5"/>
<text text-anchor="start" x="41" y="-309.5" font-family="Helvetica,sans-Serif" font-size="10.00">visioncpp::internal</text>
<text text-anchor="start" x="41" y="-298.5" font-family="Helvetica,sans-Serif" font-size="10.00">::EvalExpr&lt; RBiOP&lt; BI</text>
<text text-anchor="start" x="41" y="-287.5" font-family="Helvetica,sans-Serif" font-size="10.00">_OP, LHS, RHS, Cols, Rows,</text>
<text text-anchor="start" x="41" y="-276.5" font-family="Helvetica,sans-Serif" font-size="10.00"> LfType, LVL &gt;, Loc, Params...</text>
<text text-anchor="middle" x="112" y="-265.5" font-family="Helvetica,sans-Serif" font-size="10.00"> &gt;::eval_neighbour</text>
</a>
</g>
</g>
<!-- Node1&#45;&gt;Node14 -->
<g id="edge13" class="edge">
<title>Node1&#45;&gt;Node14</title>
<path fill="none" stroke="midnightblue" d="M309.43,-667.77C300,-594.19 269.37,-381.86 224,-331 215.04,-320.96 203.4,-313.37 191.04,-307.64"/>
<polygon fill="midnightblue" stroke="midnightblue" points="305.99,-668.48 310.71,-677.96 312.93,-667.6 305.99,-668.48"/>
</g>
<!-- Node15 -->
<g id="node15" class="node">
<title>Node15</title>
<g id="a_node15"><a xlink:href="structvisioncpp_1_1internal_1_1EvalExpr_3_01Assign_3_01LHS_00_01RHS_00_01Cols_00_01Rows_00_01LfTeef9e8bb9ee55fb68584e2a0065c5dfc.html#a74179b14c4b68fb166bb9d2f6960684f" target="_top" xlink:title="evaluate function when the internal::ops_category is NeighbourOP.">
<polygon fill="none" stroke="black" points="33,-176.5 33,-239.5 191,-239.5 191,-176.5 33,-176.5"/>
<text text-anchor="start" x="41" y="-227.5" font-family="Helvetica,sans-Serif" font-size="10.00">visioncpp::internal</text>
<text text-anchor="start" x="41" y="-216.5" font-family="Helvetica,sans-Serif" font-size="10.00">::EvalExpr&lt; Assign&lt;</text>
<text text-anchor="start" x="41" y="-205.5" font-family="Helvetica,sans-Serif" font-size="10.00"> LHS, RHS, Cols, Rows,</text>
<text text-anchor="start" x="41" y="-194.5" font-family="Helvetica,sans-Serif" font-size="10.00"> LfType, LVL &gt;, Loc, Params...</text>
<text text-anchor="middle" x="112" y="-183.5" font-family="Helvetica,sans-Serif" font-size="10.00"> &gt;::eval_neighbour</text>
</a>
</g>
</g>
<!-- Node1&#45;&gt;Node15 -->
<g id="edge14" class="edge">
<title>Node1&#45;&gt;Node15</title>
<path fill="none" stroke="midnightblue" d="M310.65,-667.51C304.02,-582.93 278.89,-313.27 224,-249 215.19,-238.69 203.55,-230.97 191.12,-225.19"/>
<polygon fill="midnightblue" stroke="midnightblue" points="307.16,-667.83 311.41,-677.53 314.14,-667.3 307.16,-667.83"/>
</g>
<!-- Node16 -->
<g id="node16" class="node">
<title>Node16</title>
<g id="a_node16"><a xlink:href="structvisioncpp_1_1internal_1_1EvalExpr_3_01LeafNode_3_01PlaceHolder_3_01Memory__Type_00_01N_00_a373babff85953e27c959c84832290e8.html#a267de44de54a7b41add769da536239e5" target="_top" xlink:title="evaluate function when the internal::ops_category is PointOP.">
<polygon fill="none" stroke="black" points="37.5,-83 37.5,-157 186.5,-157 186.5,-83 37.5,-83"/>
<text text-anchor="start" x="45.5" y="-145" font-family="Helvetica,sans-Serif" font-size="10.00">visioncpp::internal</text>
<text text-anchor="start" x="45.5" y="-134" font-family="Helvetica,sans-Serif" font-size="10.00">::EvalExpr&lt; LeafNode</text>
<text text-anchor="start" x="45.5" y="-123" font-family="Helvetica,sans-Serif" font-size="10.00">&lt; PlaceHolder&lt; Memory</text>
<text text-anchor="start" x="45.5" y="-112" font-family="Helvetica,sans-Serif" font-size="10.00">_Type, N, Cols, Rows,</text>
<text text-anchor="start" x="45.5" y="-101" font-family="Helvetica,sans-Serif" font-size="10.00"> Sc &gt;, LVL &gt;, Loc, Params...</text>
<text text-anchor="middle" x="112" y="-90" font-family="Helvetica,sans-Serif" font-size="10.00"> &gt;::eval_point</text>
</a>
</g>
</g>
<!-- Node1&#45;&gt;Node16 -->
<g id="edge15" class="edge">
<title>Node1&#45;&gt;Node16</title>
<path fill="none" stroke="midnightblue" d="M311.4,-667.7C306.86,-573.78 286.74,-246.44 224,-167 214.34,-154.76 200.9,-145.67 186.7,-138.93"/>
<polygon fill="midnightblue" stroke="midnightblue" points="307.92,-668.14 311.88,-677.97 314.91,-667.82 307.92,-668.14"/>
</g>
<!-- Node17 -->
<g id="node17" class="node">
<title>Node17</title>
<g id="a_node17"><a xlink:href="structvisioncpp_1_1internal_1_1Fill_3_01LeafNode_3_01PlaceHolder_3_01Memory__Type_00_01N_00_01Cob4f49ce9b4cd65c2744937e3f744a267.html#a64046a2bcc570986c628aa2240f6a590" target="_top" xlink:title=" ">
<polygon fill="none" stroke="black" points="26,-0.5 26,-63.5 198,-63.5 198,-0.5 26,-0.5"/>
<text text-anchor="start" x="34" y="-51.5" font-family="Helvetica,sans-Serif" font-size="10.00">visioncpp::internal</text>
<text text-anchor="start" x="34" y="-40.5" font-family="Helvetica,sans-Serif" font-size="10.00">::Fill&lt; LeafNode&lt; PlaceHolder</text>
<text text-anchor="start" x="34" y="-29.5" font-family="Helvetica,sans-Serif" font-size="10.00">&lt; Memory_Type, N, Cols, Rows,</text>
<text text-anchor="start" x="34" y="-18.5" font-family="Helvetica,sans-Serif" font-size="10.00"> Sc &gt;, LVL &gt;, Loc, Params...</text>
<text text-anchor="middle" x="112" y="-7.5" font-family="Helvetica,sans-Serif" font-size="10.00"> &gt;::fill_neighbour</text>
</a>
</g>
</g>
<!-- Node1&#45;&gt;Node17 -->
<g id="edge16" class="edge">
<title>Node1&#45;&gt;Node17</title>
<path fill="none" stroke="midnightblue" d="M312.21,-667.66C310.54,-563.31 299.24,-167.9 224,-74 217.04,-65.32 208.08,-58.43 198.27,-52.96"/>
<polygon fill="midnightblue" stroke="midnightblue" points="308.71,-667.93 312.36,-677.88 315.71,-667.83 308.71,-667.93"/>
</g>
</g>
</svg>
