<?xml version="1.0" encoding="UTF-8" standalone="no"?>
<!DOCTYPE svg PUBLIC "-//W3C//DTD SVG 1.1//EN"
 "http://www.w3.org/Graphics/SVG/1.1/DTD/svg11.dtd">
<!-- Generated by graphviz version 2.36.0 (20140111.2315)
 -->
<!-- Title: visioncpp::internal::tools::tuple::make_tuple Pages: 1 -->
<svg width="788pt" height="961pt"
 viewBox="0.00 0.00 788.00 961.00" xmlns="http://www.w3.org/2000/svg" xmlns:xlink="http://www.w3.org/1999/xlink">
<g id="graph0" class="graph" transform="scale(1 1) rotate(0) translate(4 957)">
<title>visioncpp::internal::tools::tuple::make_tuple</title>
<!-- Node1 -->
<g id="node1" class="node"><title>Node1</title>
<polygon fill="#bfbfbf" stroke="black" points="0.5,-446 0.5,-476 127.5,-476 127.5,-446 0.5,-446"/>
<text text-anchor="start" x="8.5" y="-464" font-family="Helvetica,sans-Serif" font-size="10.00">visioncpp::internal</text>
<text text-anchor="middle" x="64" y="-453" font-family="Helvetica,sans-Serif" font-size="10.00">::tools::tuple::make_tuple</text>
</g>
<!-- Node2 -->
<g id="node2" class="node"><title>Node2</title>
<g id="a_node2"><a xlink:href="namespacevisioncpp_1_1internal_1_1tools_1_1tuple.html#a0739601d962b2f5d67f9733bdd49624b" target="_top" xlink:title="append_impl ">
<polygon fill="none" stroke="black" points="203.5,-583 203.5,-613 334.5,-613 334.5,-583 203.5,-583"/>
<text text-anchor="start" x="211.5" y="-601" font-family="Helvetica,sans-Serif" font-size="10.00">visioncpp::internal</text>
<text text-anchor="middle" x="269" y="-590" font-family="Helvetica,sans-Serif" font-size="10.00">::tools::tuple::append_impl</text>
</a>
</g>
</g>
<!-- Node1&#45;&gt;Node2 -->
<g id="edge1" class="edge"><title>Node1&#45;&gt;Node2</title>
<path fill="none" stroke="midnightblue" d="M80.8061,-484.539C98.3579,-508.898 128.89,-546.351 164,-568 175.917,-575.348 189.705,-580.959 203.267,-585.223"/>
<polygon fill="midnightblue" stroke="midnightblue" points="83.5612,-482.372 74.9425,-476.21 77.8375,-486.402 83.5612,-482.372"/>
</g>
<!-- Node4 -->
<g id="node4" class="node"><title>Node4</title>
<g id="a_node4"><a xlink:href="structvisioncpp_1_1internal_1_1CreatePyramidTuple.html#a29e836c4b66a03b79893cd3da650da06" target="_top" xlink:title="create_tuple function: ">
<polygon fill="none" stroke="black" points="617,-911.5 617,-952.5 729,-952.5 729,-911.5 617,-911.5"/>
<text text-anchor="start" x="625" y="-940.5" font-family="Helvetica,sans-Serif" font-size="10.00">visioncpp::internal</text>
<text text-anchor="start" x="625" y="-929.5" font-family="Helvetica,sans-Serif" font-size="10.00">::CreatePyramidTuple</text>
<text text-anchor="middle" x="673" y="-918.5" font-family="Helvetica,sans-Serif" font-size="10.00">::create_tuple</text>
</a>
</g>
</g>
<!-- Node1&#45;&gt;Node4 -->
<g id="edge12" class="edge"><title>Node1&#45;&gt;Node4</title>
<path fill="none" stroke="midnightblue" d="M76.1376,-485.64C92.1407,-519.189 124.149,-579.877 164,-622 313.464,-779.982 369.757,-807.263 566,-901 581.917,-908.603 600.084,-914.745 616.827,-919.494"/>
<polygon fill="midnightblue" stroke="midnightblue" points="79.1044,-483.722 71.694,-476.15 72.7649,-486.691 79.1044,-483.722"/>
</g>
<!-- Node13 -->
<g id="node13" class="node"><title>Node13</title>
<g id="a_node13"><a xlink:href="structvisioncpp_1_1internal_1_1CreatePyramidTuple_3_01true_00_01Cols_00_01Rows_00_01LeafType_00_c3515e3676f2f298ffd0b791cd97f1c4.html#a700aa73fd19efdf9816ce282e4f6ef1a" target="_top" xlink:title="create_tuple function: ">
<polygon fill="none" stroke="black" points="194.5,-462.5 194.5,-525.5 343.5,-525.5 343.5,-462.5 194.5,-462.5"/>
<text text-anchor="start" x="202.5" y="-513.5" font-family="Helvetica,sans-Serif" font-size="10.00">visioncpp::internal</text>
<text text-anchor="start" x="202.5" y="-502.5" font-family="Helvetica,sans-Serif" font-size="10.00">::CreatePyramidTuple</text>
<text text-anchor="start" x="202.5" y="-491.5" font-family="Helvetica,sans-Serif" font-size="10.00">&lt; true, Cols, Rows, LeafType,</text>
<text text-anchor="start" x="202.5" y="-480.5" font-family="Helvetica,sans-Serif" font-size="10.00"> Depth, CurrentDepth, LHS</text>
<text text-anchor="middle" x="269" y="-469.5" font-family="Helvetica,sans-Serif" font-size="10.00"> &gt;::create_tuple</text>
</a>
</g>
</g>
<!-- Node1&#45;&gt;Node13 -->
<g id="edge13" class="edge"><title>Node1&#45;&gt;Node13</title>
<path fill="none" stroke="midnightblue" d="M137.623,-472.806C156.019,-475.796 175.794,-479.011 194.245,-482.01"/>
<polygon fill="midnightblue" stroke="midnightblue" points="137.995,-469.32 127.563,-471.17 136.872,-476.23 137.995,-469.32"/>
</g>
<!-- Node14 -->
<g id="node14" class="node"><title>Node14</title>
<g id="a_node14"><a xlink:href="structvisioncpp_1_1internal_1_1OutputAccessor.html#a317f13dda352fcc86386dc21b6a0c859" target="_top" xlink:title="visioncpp::internal\l::OutputAccessor::getTuple">
<polygon fill="none" stroke="black" points="200.5,-413 200.5,-443 337.5,-443 337.5,-413 200.5,-413"/>
<text text-anchor="start" x="208.5" y="-431" font-family="Helvetica,sans-Serif" font-size="10.00">visioncpp::internal</text>
<text text-anchor="middle" x="269" y="-420" font-family="Helvetica,sans-Serif" font-size="10.00">::OutputAccessor::getTuple</text>
</a>
</g>
</g>
<!-- Node1&#45;&gt;Node14 -->
<g id="edge14" class="edge"><title>Node1&#45;&gt;Node14</title>
<path fill="none" stroke="midnightblue" d="M137.465,-449.22C157.952,-445.89 180.162,-442.279 200.353,-438.997"/>
<polygon fill="midnightblue" stroke="midnightblue" points="136.872,-445.77 127.563,-450.83 137.995,-452.68 136.872,-445.77"/>
</g>
<!-- Node15 -->
<g id="node15" class="node"><title>Node15</title>
<g id="a_node15"><a xlink:href="structvisioncpp_1_1internal_1_1LocalOutput.html#abc63292a957140f2a601692f3c2983c4" target="_top" xlink:title="getTuple function is used to create and wrap local memory into a tuple ">
<polygon fill="none" stroke="black" points="410.5,-341 410.5,-371 529.5,-371 529.5,-341 410.5,-341"/>
<text text-anchor="start" x="418.5" y="-359" font-family="Helvetica,sans-Serif" font-size="10.00">visioncpp::internal</text>
<text text-anchor="middle" x="470" y="-348" font-family="Helvetica,sans-Serif" font-size="10.00">::LocalOutput::getTuple</text>
</a>
</g>
</g>
<!-- Node1&#45;&gt;Node15 -->
<g id="edge15" class="edge"><title>Node1&#45;&gt;Node15</title>
<path fill="none" stroke="midnightblue" d="M86.2933,-483.466C104.86,-501.304 133.532,-524.871 164,-535 252.568,-564.443 294.016,-583.101 374,-535 435.204,-498.193 459.078,-407.204 466.34,-371.107"/>
<polygon fill="midnightblue" stroke="midnightblue" points="88.5488,-480.774 78.9787,-476.228 83.6252,-485.75 88.5488,-480.774"/>
</g>
<!-- Node18 -->
<g id="node18" class="node"><title>Node18</title>
<g id="a_node18"><a xlink:href="structvisioncpp_1_1internal_1_1LocalOutput_3_01false_00_01IsRoot_00_01LC_00_01LR_00_01LeafNode_3ad2e76c561065a363672c4f018afa544.html#a1da6f466f7bbafe87dde5faa4e89d0d3" target="_top" xlink:title="visioncpp::internal\l::LocalOutput\&lt; false,\l IsRoot, LC, LR, LeafNode\l\&lt; VisionMemory\&lt; in, element\l_category, memory_type::Const,\l Sclr, Width, Height, Sclr, 1,\l scope::Global, LVL \&gt;, LVL \&gt; \&gt;\l::getTuple">
<polygon fill="none" stroke="black" points="189,-298 189,-394 349,-394 349,-298 189,-298"/>
<text text-anchor="start" x="197" y="-382" font-family="Helvetica,sans-Serif" font-size="10.00">visioncpp::internal</text>
<text text-anchor="start" x="197" y="-371" font-family="Helvetica,sans-Serif" font-size="10.00">::LocalOutput&lt; false,</text>
<text text-anchor="start" x="197" y="-360" font-family="Helvetica,sans-Serif" font-size="10.00"> IsRoot, LC, LR, LeafNode</text>
<text text-anchor="start" x="197" y="-349" font-family="Helvetica,sans-Serif" font-size="10.00">&lt; VisionMemory&lt; in, element</text>
<text text-anchor="start" x="197" y="-338" font-family="Helvetica,sans-Serif" font-size="10.00">_category, memory_type::Const,</text>
<text text-anchor="start" x="197" y="-327" font-family="Helvetica,sans-Serif" font-size="10.00"> Sclr, Width, Height, Sclr, 1,</text>
<text text-anchor="start" x="197" y="-316" font-family="Helvetica,sans-Serif" font-size="10.00"> scope::Global, LVL &gt;, LVL &gt; &gt;</text>
<text text-anchor="middle" x="269" y="-305" font-family="Helvetica,sans-Serif" font-size="10.00">::getTuple</text>
</a>
</g>
</g>
<!-- Node1&#45;&gt;Node18 -->
<g id="edge23" class="edge"><title>Node1&#45;&gt;Node18</title>
<path fill="none" stroke="midnightblue" d="M99.8687,-440.769C118.805,-429.822 142.647,-416.1 164,-404 172.004,-399.464 180.368,-394.753 188.724,-390.064"/>
<polygon fill="midnightblue" stroke="midnightblue" points="97.902,-437.863 90.9996,-445.901 101.408,-443.922 97.902,-437.863"/>
</g>
<!-- Node19 -->
<g id="node19" class="node"><title>Node19</title>
<g id="a_node19"><a xlink:href="structvisioncpp_1_1internal_1_1LocalOutput_3_01false_00_01IsRoot_00_01LC_00_01LR_00_01LeafNode_3fe8871ad58f0f38f156e00013cb5a346.html#a91a60c0bce9205340862fff96887fd4e" target="_top" xlink:title="visioncpp::internal\l::LocalOutput\&lt; false,\l IsRoot, LC, LR, LeafNode\l\&lt; VisionMemory\&lt; in, element\l_category, Memory_Type, Scalar,\l Width, Height, ElementTp, Elements,\l scope::Constant, LVL \&gt;, LVL \&gt; \&gt;::getTuple">
<polygon fill="none" stroke="black" points="164.5,-193.5 164.5,-278.5 373.5,-278.5 373.5,-193.5 164.5,-193.5"/>
<text text-anchor="start" x="172.5" y="-266.5" font-family="Helvetica,sans-Serif" font-size="10.00">visioncpp::internal</text>
<text text-anchor="start" x="172.5" y="-255.5" font-family="Helvetica,sans-Serif" font-size="10.00">::LocalOutput&lt; false,</text>
<text text-anchor="start" x="172.5" y="-244.5" font-family="Helvetica,sans-Serif" font-size="10.00"> IsRoot, LC, LR, LeafNode</text>
<text text-anchor="start" x="172.5" y="-233.5" font-family="Helvetica,sans-Serif" font-size="10.00">&lt; VisionMemory&lt; in, element</text>
<text text-anchor="start" x="172.5" y="-222.5" font-family="Helvetica,sans-Serif" font-size="10.00">_category, Memory_Type, Scalar,</text>
<text text-anchor="start" x="172.5" y="-211.5" font-family="Helvetica,sans-Serif" font-size="10.00"> Width, Height, ElementTp, Elements,</text>
<text text-anchor="middle" x="269" y="-200.5" font-family="Helvetica,sans-Serif" font-size="10.00"> scope::Constant, LVL &gt;, LVL &gt; &gt;::getTuple</text>
</a>
</g>
</g>
<!-- Node1&#45;&gt;Node19 -->
<g id="edge24" class="edge"><title>Node1&#45;&gt;Node19</title>
<path fill="none" stroke="midnightblue" d="M74.0587,-435.947C88.2913,-399.559 118.991,-331.772 164,-289 167.819,-285.37 171.936,-281.931 176.249,-278.682"/>
<polygon fill="midnightblue" stroke="midnightblue" points="70.6134,-435.16 70.3274,-445.751 77.1556,-437.65 70.6134,-435.16"/>
</g>
<!-- Node20 -->
<g id="node20" class="node"><title>Node20</title>
<g id="a_node20"><a xlink:href="structvisioncpp_1_1pixel_1_1Storage.html#ae91c1900df1049beff6274a9f9ab1251" target="_top" xlink:title="visioncpp::pixel::Storage\l::Storage">
<polygon fill="none" stroke="black" points="207,-144 207,-174 331,-174 331,-144 207,-144"/>
<text text-anchor="start" x="215" y="-162" font-family="Helvetica,sans-Serif" font-size="10.00">visioncpp::pixel::Storage</text>
<text text-anchor="middle" x="269" y="-151" font-family="Helvetica,sans-Serif" font-size="10.00">::Storage</text>
</a>
</g>
</g>
<!-- Node1&#45;&gt;Node20 -->
<g id="edge25" class="edge"><title>Node1&#45;&gt;Node20</title>
<path fill="none" stroke="midnightblue" d="M66.3352,-435.47C70.6262,-380.754 88.6387,-251.677 164,-184 175.813,-173.392 191.336,-167.081 206.773,-163.38"/>
<polygon fill="midnightblue" stroke="midnightblue" points="62.8278,-435.458 65.6295,-445.675 69.8111,-435.941 62.8278,-435.458"/>
</g>
<!-- Node3 -->
<g id="node3" class="node"><title>Node3</title>
<g id="a_node3"><a xlink:href="namespacevisioncpp_1_1internal_1_1tools_1_1tuple.html#a047c9626073a7719080ae711a7fbcd12" target="_top" xlink:title="append ">
<polygon fill="none" stroke="black" points="416,-583 416,-613 524,-613 524,-583 416,-583"/>
<text text-anchor="start" x="424" y="-601" font-family="Helvetica,sans-Serif" font-size="10.00">visioncpp::internal</text>
<text text-anchor="middle" x="470" y="-590" font-family="Helvetica,sans-Serif" font-size="10.00">::tools::tuple::append</text>
</a>
</g>
</g>
<!-- Node2&#45;&gt;Node3 -->
<g id="edge2" class="edge"><title>Node2&#45;&gt;Node3</title>
<path fill="none" stroke="midnightblue" d="M344.914,-598C368.456,-598 393.957,-598 415.683,-598"/>
<polygon fill="midnightblue" stroke="midnightblue" points="344.61,-594.5 334.61,-598 344.61,-601.5 344.61,-594.5"/>
</g>
<!-- Node3&#45;&gt;Node4 -->
<g id="edge3" class="edge"><title>Node3&#45;&gt;Node4</title>
<path fill="none" stroke="midnightblue" d="M479.842,-622.901C491.748,-656.722 513.359,-719.143 530,-773 547.446,-829.462 524.43,-858.997 566,-901 579.487,-914.628 598.612,-922.339 616.912,-926.677"/>
<polygon fill="midnightblue" stroke="midnightblue" points="483.104,-621.629 476.475,-613.365 476.504,-623.959 483.104,-621.629"/>
</g>
<!-- Node5 -->
<g id="node5" class="node"><title>Node5</title>
<g id="a_node5"><a xlink:href="structvisioncpp_1_1internal_1_1ExtractAccessor_3_01expr__category_1_1Binary_00_01Expr_01_4.html#a5d116934fc21c31523d1e3c8e2becc94" target="_top" xlink:title="visioncpp::internal\l::ExtractAccessor\&lt; expr\l_category::Binary, Expr\l \&gt;::getTuple">
<polygon fill="none" stroke="black" points="611.5,-840 611.5,-892 734.5,-892 734.5,-840 611.5,-840"/>
<text text-anchor="start" x="619.5" y="-880" font-family="Helvetica,sans-Serif" font-size="10.00">visioncpp::internal</text>
<text text-anchor="start" x="619.5" y="-869" font-family="Helvetica,sans-Serif" font-size="10.00">::ExtractAccessor&lt; expr</text>
<text text-anchor="start" x="619.5" y="-858" font-family="Helvetica,sans-Serif" font-size="10.00">_category::Binary, Expr</text>
<text text-anchor="middle" x="673" y="-847" font-family="Helvetica,sans-Serif" font-size="10.00"> &gt;::getTuple</text>
</a>
</g>
</g>
<!-- Node3&#45;&gt;Node5 -->
<g id="edge4" class="edge"><title>Node3&#45;&gt;Node5</title>
<path fill="none" stroke="midnightblue" d="M478.287,-622.794C494.46,-676.326 534.42,-800.297 566,-830 578.529,-841.784 595.064,-849.723 611.337,-855.067"/>
<polygon fill="midnightblue" stroke="midnightblue" points="481.599,-621.652 475.379,-613.075 474.892,-623.659 481.599,-621.652"/>
</g>
<!-- Node6 -->
<g id="node6" class="node"><title>Node6</title>
<g id="a_node6"><a xlink:href="structvisioncpp_1_1internal_1_1ExtractAccessor_3_01expr__category_1_1Binary_00_01Assign_3_01LHSEfc4abae0aea7202de83232c2cd152bfb.html#aa4086a76436635bb7049586e7110310c" target="_top" xlink:title="visioncpp::internal\l::ExtractAccessor\&lt; expr\l_category::Binary, Assign\l\&lt; LHSExpr, RHSExpr, Cols,\l Rows, LeafType, LVL \&gt; \&gt;::\lgetTuple">
<polygon fill="none" stroke="black" points="601.5,-747 601.5,-821 744.5,-821 744.5,-747 601.5,-747"/>
<text text-anchor="start" x="609.5" y="-809" font-family="Helvetica,sans-Serif" font-size="10.00">visioncpp::internal</text>
<text text-anchor="start" x="609.5" y="-798" font-family="Helvetica,sans-Serif" font-size="10.00">::ExtractAccessor&lt; expr</text>
<text text-anchor="start" x="609.5" y="-787" font-family="Helvetica,sans-Serif" font-size="10.00">_category::Binary, Assign</text>
<text text-anchor="start" x="609.5" y="-776" font-family="Helvetica,sans-Serif" font-size="10.00">&lt; LHSExpr, RHSExpr, Cols,</text>
<text text-anchor="start" x="609.5" y="-765" font-family="Helvetica,sans-Serif" font-size="10.00"> Rows, LeafType, LVL &gt; &gt;::</text>
<text text-anchor="middle" x="673" y="-754" font-family="Helvetica,sans-Serif" font-size="10.00">getTuple</text>
</a>
</g>
</g>
<!-- Node3&#45;&gt;Node6 -->
<g id="edge5" class="edge"><title>Node3&#45;&gt;Node6</title>
<path fill="none" stroke="midnightblue" d="M482.401,-622.501C497.641,-652.934 527.286,-704.766 566,-737 576.52,-745.759 588.93,-753.181 601.484,-759.358"/>
<polygon fill="midnightblue" stroke="midnightblue" points="485.5,-620.872 477.966,-613.424 479.211,-623.945 485.5,-620.872"/>
</g>
<!-- Node7 -->
<g id="node7" class="node"><title>Node7</title>
<g id="a_node7"><a xlink:href="structvisioncpp_1_1internal_1_1ExtractAccessor_3_01expr__category_1_1Binary_00_01ParallelCopy_3_72ed56ce6c8a26655ece6832b967cb17.html#ab943e0d7457334ea1861bc3f0155cf74" target="_top" xlink:title="visioncpp::internal\l::ExtractAccessor\&lt; expr\l_category::Binary, ParallelCopy\l\&lt; LHSExpr, RHSExpr, Cols, Rows,\l OffsetColIn, OffsetRowIn, OffsetColOut,\l OffsetRowOut, LeafType, LVL \&gt; \&gt;::getTuple">
<polygon fill="none" stroke="black" points="566,-654 566,-728 780,-728 780,-654 566,-654"/>
<text text-anchor="start" x="574" y="-716" font-family="Helvetica,sans-Serif" font-size="10.00">visioncpp::internal</text>
<text text-anchor="start" x="574" y="-705" font-family="Helvetica,sans-Serif" font-size="10.00">::ExtractAccessor&lt; expr</text>
<text text-anchor="start" x="574" y="-694" font-family="Helvetica,sans-Serif" font-size="10.00">_category::Binary, ParallelCopy</text>
<text text-anchor="start" x="574" y="-683" font-family="Helvetica,sans-Serif" font-size="10.00">&lt; LHSExpr, RHSExpr, Cols, Rows,</text>
<text text-anchor="start" x="574" y="-672" font-family="Helvetica,sans-Serif" font-size="10.00"> OffsetColIn, OffsetRowIn, OffsetColOut,</text>
<text text-anchor="middle" x="673" y="-661" font-family="Helvetica,sans-Serif" font-size="10.00"> OffsetRowOut, LeafType, LVL &gt; &gt;::getTuple</text>
</a>
</g>
</g>
<!-- Node3&#45;&gt;Node7 -->
<g id="edge6" class="edge"><title>Node3&#45;&gt;Node7</title>
<path fill="none" stroke="midnightblue" d="M510.754,-617.617C527.715,-625.891 547.765,-635.545 566,-644 573.031,-647.26 580.345,-650.603 587.698,-653.929"/>
<polygon fill="midnightblue" stroke="midnightblue" points="512.201,-614.428 501.68,-613.179 509.125,-620.717 512.201,-614.428"/>
</g>
<!-- Node8 -->
<g id="node8" class="node"><title>Node8</title>
<g id="a_node8"><a xlink:href="structvisioncpp_1_1internal_1_1LocalOutput_3_01false_00_01IsRoot_00_01LC_00_01LR_00_01RUnOP_3_01222dc31e6f7adbfd1b3ba76b431263e2.html#a17c779f1e6fa85ef39237eb5db93cec8" target="_top" xlink:title="visioncpp::internal\l::LocalOutput\&lt; false,\l IsRoot, LC, LR, RUnOP\l\&lt; OP, RHSExpr, Cols, Rows,\l LeafType, LVL \&gt; \&gt;::getTuple">
<polygon fill="none" stroke="black" points="598.5,-198.5 598.5,-261.5 747.5,-261.5 747.5,-198.5 598.5,-198.5"/>
<text text-anchor="start" x="606.5" y="-249.5" font-family="Helvetica,sans-Serif" font-size="10.00">visioncpp::internal</text>
<text text-anchor="start" x="606.5" y="-238.5" font-family="Helvetica,sans-Serif" font-size="10.00">::LocalOutput&lt; false,</text>
<text text-anchor="start" x="606.5" y="-227.5" font-family="Helvetica,sans-Serif" font-size="10.00"> IsRoot, LC, LR, RUnOP</text>
<text text-anchor="start" x="606.5" y="-216.5" font-family="Helvetica,sans-Serif" font-size="10.00">&lt; OP, RHSExpr, Cols, Rows,</text>
<text text-anchor="middle" x="673" y="-205.5" font-family="Helvetica,sans-Serif" font-size="10.00"> LeafType, LVL &gt; &gt;::getTuple</text>
</a>
</g>
</g>
<!-- Node3&#45;&gt;Node8 -->
<g id="edge7" class="edge"><title>Node3&#45;&gt;Node8</title>
<path fill="none" stroke="midnightblue" d="M477.63,-572.936C497.433,-498.393 555.431,-282.523 566,-271 574.869,-261.33 586.283,-253.917 598.322,-248.242"/>
<polygon fill="midnightblue" stroke="midnightblue" points="474.176,-572.305 474.995,-582.868 480.942,-574.1 474.176,-572.305"/>
</g>
<!-- Node9 -->
<g id="node9" class="node"><title>Node9</title>
<g id="a_node9"><a xlink:href="structvisioncpp_1_1internal_1_1LocalOutput_3_01false_00_01IsRoot_00_01LC_00_01LR_00_01RBiOP_3_012aff2f4a38a6baec8f8e4876a21ac04d.html#af800e26ee624f9e5e3b021015a89f457" target="_top" xlink:title="visioncpp::internal\l::LocalOutput\&lt; false,\l IsRoot, LC, LR, RBiOP\l\&lt; OP, LHSExpr, RHSExpr,\l Cols, Rows, LeafType, LVL\l \&gt; \&gt;::getTuple">
<polygon fill="none" stroke="black" points="602.5,-561 602.5,-635 743.5,-635 743.5,-561 602.5,-561"/>
<text text-anchor="start" x="610.5" y="-623" font-family="Helvetica,sans-Serif" font-size="10.00">visioncpp::internal</text>
<text text-anchor="start" x="610.5" y="-612" font-family="Helvetica,sans-Serif" font-size="10.00">::LocalOutput&lt; false,</text>
<text text-anchor="start" x="610.5" y="-601" font-family="Helvetica,sans-Serif" font-size="10.00"> IsRoot, LC, LR, RBiOP</text>
<text text-anchor="start" x="610.5" y="-590" font-family="Helvetica,sans-Serif" font-size="10.00">&lt; OP, LHSExpr, RHSExpr,</text>
<text text-anchor="start" x="610.5" y="-579" font-family="Helvetica,sans-Serif" font-size="10.00"> Cols, Rows, LeafType, LVL</text>
<text text-anchor="middle" x="673" y="-568" font-family="Helvetica,sans-Serif" font-size="10.00"> &gt; &gt;::getTuple</text>
</a>
</g>
</g>
<!-- Node3&#45;&gt;Node9 -->
<g id="edge8" class="edge"><title>Node3&#45;&gt;Node9</title>
<path fill="none" stroke="midnightblue" d="M534.143,-598C555.805,-598 580.167,-598 602.318,-598"/>
<polygon fill="midnightblue" stroke="midnightblue" points="534.073,-594.5 524.073,-598 534.073,-601.5 534.073,-594.5"/>
</g>
<!-- Node10 -->
<g id="node10" class="node"><title>Node10</title>
<g id="a_node10"><a xlink:href="structvisioncpp_1_1internal_1_1LocalOutput_3_01false_00_01IsRoot_00_01LC_00_01LR_00_01StnFilt_3_78467c599a542dd94fd0a9e3d6a02a30.html#a50566348e971a8dd50644cbdec9725e5" target="_top" xlink:title="visioncpp::internal\l::LocalOutput\&lt; false,\l IsRoot, LC, LR, StnFilt\l\&lt; OP, Halo_T, Halo_L, Halo\l_B, Halo_R, LHSExpr, RHSExpr,\l Cols, Rows, LeafType, LVL \&gt;\l \&gt;::getTuple">
<polygon fill="none" stroke="black" points="591,-456.5 591,-541.5 755,-541.5 755,-456.5 591,-456.5"/>
<text text-anchor="start" x="599" y="-529.5" font-family="Helvetica,sans-Serif" font-size="10.00">visioncpp::internal</text>
<text text-anchor="start" x="599" y="-518.5" font-family="Helvetica,sans-Serif" font-size="10.00">::LocalOutput&lt; false,</text>
<text text-anchor="start" x="599" y="-507.5" font-family="Helvetica,sans-Serif" font-size="10.00"> IsRoot, LC, LR, StnFilt</text>
<text text-anchor="start" x="599" y="-496.5" font-family="Helvetica,sans-Serif" font-size="10.00">&lt; OP, Halo_T, Halo_L, Halo</text>
<text text-anchor="start" x="599" y="-485.5" font-family="Helvetica,sans-Serif" font-size="10.00">_B, Halo_R, LHSExpr, RHSExpr,</text>
<text text-anchor="start" x="599" y="-474.5" font-family="Helvetica,sans-Serif" font-size="10.00"> Cols, Rows, LeafType, LVL &gt;</text>
<text text-anchor="middle" x="673" y="-463.5" font-family="Helvetica,sans-Serif" font-size="10.00"> &gt;::getTuple</text>
</a>
</g>
</g>
<!-- Node3&#45;&gt;Node10 -->
<g id="edge9" class="edge"><title>Node3&#45;&gt;Node10</title>
<path fill="none" stroke="midnightblue" d="M510.576,-578.507C533.457,-567.238 563.103,-552.636 590.734,-539.026"/>
<polygon fill="midnightblue" stroke="midnightblue" points="508.952,-575.406 501.528,-582.964 512.045,-581.685 508.952,-575.406"/>
</g>
<!-- Node11 -->
<g id="node11" class="node"><title>Node11</title>
<g id="a_node11"><a xlink:href="structvisioncpp_1_1internal_1_1LocalOutput_3_01false_00_01IsRoot_00_01LC_00_01LR_00_01StnNoFilt_d45bb2f039daef54effcd1874753b2c3.html#a7ca4ad4544d257ccaa61badc635beb37" target="_top" xlink:title="visioncpp::internal\l::LocalOutput\&lt; false,\l IsRoot, LC, LR, StnNoFilt\l\&lt; OP, Halo_T, Halo_L, Halo\l_B, Halo_R, RHSExpr, Cols,\l Rows, LeafType, LVL \&gt; \&gt;::getTuple">
<polygon fill="none" stroke="black" points="585,-363 585,-437 761,-437 761,-363 585,-363"/>
<text text-anchor="start" x="593" y="-425" font-family="Helvetica,sans-Serif" font-size="10.00">visioncpp::internal</text>
<text text-anchor="start" x="593" y="-414" font-family="Helvetica,sans-Serif" font-size="10.00">::LocalOutput&lt; false,</text>
<text text-anchor="start" x="593" y="-403" font-family="Helvetica,sans-Serif" font-size="10.00"> IsRoot, LC, LR, StnNoFilt</text>
<text text-anchor="start" x="593" y="-392" font-family="Helvetica,sans-Serif" font-size="10.00">&lt; OP, Halo_T, Halo_L, Halo</text>
<text text-anchor="start" x="593" y="-381" font-family="Helvetica,sans-Serif" font-size="10.00">_B, Halo_R, RHSExpr, Cols,</text>
<text text-anchor="middle" x="673" y="-370" font-family="Helvetica,sans-Serif" font-size="10.00"> Rows, LeafType, LVL &gt; &gt;::getTuple</text>
</a>
</g>
</g>
<!-- Node3&#45;&gt;Node11 -->
<g id="edge10" class="edge"><title>Node3&#45;&gt;Node11</title>
<path fill="none" stroke="midnightblue" d="M481.003,-573.323C495.397,-540.54 524.822,-482.63 566,-447 571.785,-441.995 578.188,-437.44 584.898,-433.312"/>
<polygon fill="midnightblue" stroke="midnightblue" points="477.734,-572.067 477.022,-582.638 484.17,-574.818 477.734,-572.067"/>
</g>
<!-- Node12 -->
<g id="node12" class="node"><title>Node12</title>
<g id="a_node12"><a xlink:href="structvisioncpp_1_1internal_1_1LocalOutput_3_01false_00_01IsRoot_00_01LC_00_01LR_00_01RDCN_3_01O985b5cf5bfc049f9ae66cfbe725d4e32.html#a85cc60fe30b8670638b13c098a889ad6" target="_top" xlink:title="visioncpp::internal\l::LocalOutput\&lt; false,\l IsRoot, LC, LR, RDCN\l\&lt; OP, RHSExpr, Cols, Rows,\l LeafType, LVL \&gt; \&gt;::getTuple">
<polygon fill="none" stroke="black" points="598.5,-280.5 598.5,-343.5 747.5,-343.5 747.5,-280.5 598.5,-280.5"/>
<text text-anchor="start" x="606.5" y="-331.5" font-family="Helvetica,sans-Serif" font-size="10.00">visioncpp::internal</text>
<text text-anchor="start" x="606.5" y="-320.5" font-family="Helvetica,sans-Serif" font-size="10.00">::LocalOutput&lt; false,</text>
<text text-anchor="start" x="606.5" y="-309.5" font-family="Helvetica,sans-Serif" font-size="10.00"> IsRoot, LC, LR, RDCN</text>
<text text-anchor="start" x="606.5" y="-298.5" font-family="Helvetica,sans-Serif" font-size="10.00">&lt; OP, RHSExpr, Cols, Rows,</text>
<text text-anchor="middle" x="673" y="-287.5" font-family="Helvetica,sans-Serif" font-size="10.00"> LeafType, LVL &gt; &gt;::getTuple</text>
</a>
</g>
</g>
<!-- Node3&#45;&gt;Node12 -->
<g id="edge11" class="edge"><title>Node3&#45;&gt;Node12</title>
<path fill="none" stroke="midnightblue" d="M474.095,-572.882C481.365,-524.241 503.878,-416.494 566,-354 575.141,-344.805 586.543,-337.565 598.451,-331.883"/>
<polygon fill="midnightblue" stroke="midnightblue" points="470.619,-572.47 472.697,-582.859 477.551,-573.442 470.619,-572.47"/>
</g>
<!-- Node15&#45;&gt;Node8 -->
<g id="edge16" class="edge"><title>Node15&#45;&gt;Node8</title>
<path fill="none" stroke="midnightblue" d="M491.633,-333.453C509.755,-314.714 537.596,-288.395 566,-271 576.096,-264.817 587.282,-259.28 598.493,-254.426"/>
<polygon fill="midnightblue" stroke="midnightblue" points="488.839,-331.312 484.487,-340.972 493.913,-336.134 488.839,-331.312"/>
</g>
<!-- Node15&#45;&gt;Node9 -->
<g id="edge17" class="edge"><title>Node15&#45;&gt;Node9</title>
<path fill="none" stroke="midnightblue" d="M477.137,-380.931C488.314,-421.564 515.618,-502.4 566,-551 576.359,-560.993 589.2,-569.07 602.329,-575.522"/>
<polygon fill="midnightblue" stroke="midnightblue" points="480.465,-379.824 474.522,-371.053 473.698,-381.616 480.465,-379.824"/>
</g>
<!-- Node15&#45;&gt;Node10 -->
<g id="edge18" class="edge"><title>Node15&#45;&gt;Node10</title>
<path fill="none" stroke="midnightblue" d="M491.275,-378.663C509.508,-398.156 537.706,-426.182 566,-446 573.836,-451.489 582.323,-456.732 590.966,-461.638"/>
<polygon fill="midnightblue" stroke="midnightblue" points="493.684,-376.114 484.331,-371.136 488.539,-380.86 493.684,-376.114"/>
</g>
<!-- Node15&#45;&gt;Node11 -->
<g id="edge19" class="edge"><title>Node15&#45;&gt;Node11</title>
<path fill="none" stroke="midnightblue" d="M539.584,-371.013C554.147,-374.201 569.709,-377.608 584.858,-380.924"/>
<polygon fill="midnightblue" stroke="midnightblue" points="540.195,-367.564 529.678,-368.845 538.698,-374.402 540.195,-367.564"/>
</g>
<!-- Node15&#45;&gt;Node12 -->
<g id="edge20" class="edge"><title>Node15&#45;&gt;Node12</title>
<path fill="none" stroke="midnightblue" d="M539.673,-340.967C558.543,-336.836 579.082,-332.34 598.226,-328.149"/>
<polygon fill="midnightblue" stroke="midnightblue" points="538.698,-337.598 529.678,-343.155 540.195,-344.436 538.698,-337.598"/>
</g>
<!-- Node16 -->
<g id="node16" class="node"><title>Node16</title>
<g id="a_node16"><a xlink:href="structvisioncpp_1_1internal_1_1LocalOutput_3_01false_00_01IsRoot_00_01LC_00_01LR_00_01ParallelCo0635c30aec900fbff57bf53b317d8606.html#a9c82dc26017dc8a4ab0af214d0686e90" target="_top" xlink:title="visioncpp::internal\l::LocalOutput\&lt; false,\l IsRoot, LC, LR, ParallelCopy\l\&lt; LHSExpr, RHSExpr, Cols,\l Rows, OffsetColIn, OffsetRowIn,\l OffsetColOut, OffsetRowOut, LeafType,\l LVL \&gt; \&gt;::getTuple">
<polygon fill="none" stroke="black" points="575,-0.5 575,-85.5 771,-85.5 771,-0.5 575,-0.5"/>
<text text-anchor="start" x="583" y="-73.5" font-family="Helvetica,sans-Serif" font-size="10.00">visioncpp::internal</text>
<text text-anchor="start" x="583" y="-62.5" font-family="Helvetica,sans-Serif" font-size="10.00">::LocalOutput&lt; false,</text>
<text text-anchor="start" x="583" y="-51.5" font-family="Helvetica,sans-Serif" font-size="10.00"> IsRoot, LC, LR, ParallelCopy</text>
<text text-anchor="start" x="583" y="-40.5" font-family="Helvetica,sans-Serif" font-size="10.00">&lt; LHSExpr, RHSExpr, Cols,</text>
<text text-anchor="start" x="583" y="-29.5" font-family="Helvetica,sans-Serif" font-size="10.00"> Rows, OffsetColIn, OffsetRowIn,</text>
<text text-anchor="start" x="583" y="-18.5" font-family="Helvetica,sans-Serif" font-size="10.00"> OffsetColOut, OffsetRowOut, LeafType,</text>
<text text-anchor="middle" x="673" y="-7.5" font-family="Helvetica,sans-Serif" font-size="10.00"> LVL &gt; &gt;::getTuple</text>
</a>
</g>
</g>
<!-- Node15&#45;&gt;Node16 -->
<g id="edge21" class="edge"><title>Node15&#45;&gt;Node16</title>
<path fill="none" stroke="midnightblue" d="M473.962,-330.795C481.098,-280.383 503.537,-165.975 566,-96 569.288,-92.3162 572.892,-88.8572 576.722,-85.6134"/>
<polygon fill="midnightblue" stroke="midnightblue" points="470.478,-330.442 472.628,-340.816 477.417,-331.365 470.478,-330.442"/>
</g>
<!-- Node17 -->
<g id="node17" class="node"><title>Node17</title>
<g id="a_node17"><a xlink:href="structvisioncpp_1_1internal_1_1LocalOutput_3_01false_00_01IsRoot_00_01LC_00_01LR_00_01Assign_3_06265906cf16848ff64f1f1331ad98423.html#aa583c6c4056fc0f4273b5f7eff7603ed" target="_top" xlink:title="visioncpp::internal\l::LocalOutput\&lt; false,\l IsRoot, LC, LR, Assign\l\&lt; LHSExpr, RHSExpr, Cols,\l Rows, LeafType, LVL \&gt; \&gt;\l::getTuple">
<polygon fill="none" stroke="black" points="601.5,-105 601.5,-179 744.5,-179 744.5,-105 601.5,-105"/>
<text text-anchor="start" x="609.5" y="-167" font-family="Helvetica,sans-Serif" font-size="10.00">visioncpp::internal</text>
<text text-anchor="start" x="609.5" y="-156" font-family="Helvetica,sans-Serif" font-size="10.00">::LocalOutput&lt; false,</text>
<text text-anchor="start" x="609.5" y="-145" font-family="Helvetica,sans-Serif" font-size="10.00"> IsRoot, LC, LR, Assign</text>
<text text-anchor="start" x="609.5" y="-134" font-family="Helvetica,sans-Serif" font-size="10.00">&lt; LHSExpr, RHSExpr, Cols,</text>
<text text-anchor="start" x="609.5" y="-123" font-family="Helvetica,sans-Serif" font-size="10.00"> Rows, LeafType, LVL &gt; &gt;</text>
<text text-anchor="middle" x="673" y="-112" font-family="Helvetica,sans-Serif" font-size="10.00">::getTuple</text>
</a>
</g>
</g>
<!-- Node15&#45;&gt;Node17 -->
<g id="edge22" class="edge"><title>Node15&#45;&gt;Node17</title>
<path fill="none" stroke="midnightblue" d="M479.329,-331.36C492.531,-295.636 521.427,-229.331 566,-189 576.3,-179.681 588.748,-171.971 601.438,-165.679"/>
<polygon fill="midnightblue" stroke="midnightblue" points="475.956,-330.397 475.878,-340.991 482.546,-332.758 475.956,-330.397"/>
</g>
</g>
</svg>
