<?xml version="1.0" encoding="UTF-8" standalone="no"?>
<!DOCTYPE svg PUBLIC "-//W3C//DTD SVG 1.1//EN"
 "http://www.w3.org/Graphics/SVG/1.1/DTD/svg11.dtd">
<!-- Generated by graphviz version 2.43.0 (0)
 -->
<!-- Title: visioncpp::execute Pages: 1 -->
<svg width="460pt" height="61pt"
 viewBox="0.00 0.00 460.00 61.00" xmlns="http://www.w3.org/2000/svg" xmlns:xlink="http://www.w3.org/1999/xlink">
<g id="graph0" class="graph" transform="scale(1 1) rotate(0) translate(4 57)">
<title>visioncpp::execute</title>
<!-- Node1 -->
<g id="node1" class="node">
<title>Node1</title>
<g id="a_node1"><a xlink:title="execute function is called by user in order to execute an expression template parameters:">
<polygon fill="#bfbfbf" stroke="black" points="345,-17 345,-36 452,-36 452,-17 345,-17"/>
<text text-anchor="middle" x="398.5" y="-24" font-family="Helvetica,sans-Serif" font-size="10.00">visioncpp::execute</text>
</a>
</g>
</g>
<!-- Node2 -->
<g id="node2" class="node">
<title>Node2</title>
<g id="a_node2"><a xlink:href="namespacevisioncpp.html#a76942b49bab20ba8ffc240a9790c548d" target="_top" xlink:title="special case of the execute function with default value for local memory and workgroup size template ...">
<polygon fill="none" stroke="black" points="202,-17 202,-36 309,-36 309,-17 202,-17"/>
<text text-anchor="middle" x="255.5" y="-24" font-family="Helvetica,sans-Serif" font-size="10.00">visioncpp::execute</text>
</a>
</g>
</g>
<!-- Node1&#45;&gt;Node2 -->
<g id="edge1" class="edge">
<title>Node1&#45;&gt;Node2</title>
<path fill="none" stroke="midnightblue" d="M334.95,-26.5C326.3,-26.5 317.49,-26.5 309.05,-26.5"/>
<polygon fill="midnightblue" stroke="midnightblue" points="335,-30 345,-26.5 335,-23 335,-30"/>
</g>
<!-- Node3 -->
<g id="node3" class="node">
<title>Node3</title>
<g id="a_node3"><a xlink:href="structvisioncpp_1_1internal_1_1SubExprExecute_3_01false_00_01ExecPolicy_00_01LC_00_01LR_00_01LCT694c2467c4563fa3e347dbd792ae1b45.html#ab2abcafad63958947bfa0eccb1bfeef8" target="_top" xlink:title=" ">
<polygon fill="none" stroke="black" points="0,-0.5 0,-52.5 166,-52.5 166,-0.5 0,-0.5"/>
<text text-anchor="start" x="8" y="-40.5" font-family="Helvetica,sans-Serif" font-size="10.00">visioncpp::internal</text>
<text text-anchor="start" x="8" y="-29.5" font-family="Helvetica,sans-Serif" font-size="10.00">::SubExprExecute&lt; false,</text>
<text text-anchor="start" x="8" y="-18.5" font-family="Helvetica,sans-Serif" font-size="10.00"> ExecPolicy, LC, LR, LCT,</text>
<text text-anchor="middle" x="83" y="-7.5" font-family="Helvetica,sans-Serif" font-size="10.00"> LRT, Expr, DeviceT &gt;::execute</text>
</a>
</g>
</g>
<!-- Node2&#45;&gt;Node3 -->
<g id="edge2" class="edge">
<title>Node2&#45;&gt;Node3</title>
<path fill="none" stroke="midnightblue" d="M191.91,-26.5C183.52,-26.5 174.82,-26.5 166.16,-26.5"/>
<polygon fill="midnightblue" stroke="midnightblue" points="191.95,-30 201.95,-26.5 191.95,-23 191.95,-30"/>
</g>
</g>
</svg>
