<?xml version="1.0" encoding="UTF-8" standalone="no"?>
<!DOCTYPE svg PUBLIC "-//W3C//DTD SVG 1.1//EN"
 "http://www.w3.org/Graphics/SVG/1.1/DTD/svg11.dtd">
<!-- Generated by graphviz version 2.43.0 (0)
 -->
<!-- Title: visioncpp::internal::calculate_index Pages: 1 -->
<svg width="375pt" height="1315pt"
 viewBox="0.00 0.00 375.00 1314.50" xmlns="http://www.w3.org/2000/svg" xmlns:xlink="http://www.w3.org/1999/xlink">
<g id="graph0" class="graph" transform="scale(1 1) rotate(0) translate(4 1310.5)">
<title>visioncpp::internal::calculate_index</title>
<!-- Node1 -->
<g id="node1" class="node">
<title>Node1</title>
<g id="a_node1"><a xlink:title="function calculate_index">
<polygon fill="#bfbfbf" stroke="black" points="260,-677 260,-707 367,-707 367,-677 260,-677"/>
<text text-anchor="start" x="268" y="-695" font-family="Helvetica,sans-Serif" font-size="10.00">visioncpp::internal</text>
<text text-anchor="middle" x="313.5" y="-684" font-family="Helvetica,sans-Serif" font-size="10.00">::calculate_index</text>
</a>
</g>
</g>
<!-- Node2 -->
<g id="node2" class="node">
<title>Node2</title>
<g id="a_node2"><a xlink:href="structvisioncpp_1_1internal_1_1LocalNeighbour.html#abd86db7284e43f07e0e143dcb3f9b349" target="_top" xlink:title="function at provides access to a specific Coordinate for a 2d buffer parameters:">
<polygon fill="none" stroke="black" points="55,-1276 55,-1306 169,-1306 169,-1276 55,-1276"/>
<text text-anchor="start" x="63" y="-1294" font-family="Helvetica,sans-Serif" font-size="10.00">visioncpp::internal</text>
<text text-anchor="middle" x="112" y="-1283" font-family="Helvetica,sans-Serif" font-size="10.00">::LocalNeighbour::at</text>
</a>
</g>
</g>
<!-- Node1&#45;&gt;Node2 -->
<g id="edge1" class="edge">
<title>Node1&#45;&gt;Node2</title>
<path fill="none" stroke="midnightblue" d="M312.27,-717.12C310.85,-817.18 300.41,-1185.84 224,-1267 209.94,-1281.93 188.99,-1288.69 169.06,-1291.45"/>
<polygon fill="midnightblue" stroke="midnightblue" points="315.78,-717.07 312.4,-707.03 308.78,-716.99 315.78,-717.07"/>
</g>
<!-- Node3 -->
<g id="node3" class="node">
<title>Node3</title>
<g id="a_node3"><a xlink:href="structvisioncpp_1_1internal_1_1GlobalNeighbour.html#a6d80b58a64c1b9c6f86071f22dff4b09" target="_top" xlink:title="function at provides access to a specific Coordinate for a 2d buffer parameters:">
<polygon fill="none" stroke="black" points="52,-1227 52,-1257 172,-1257 172,-1227 52,-1227"/>
<text text-anchor="start" x="60" y="-1245" font-family="Helvetica,sans-Serif" font-size="10.00">visioncpp::internal</text>
<text text-anchor="middle" x="112" y="-1234" font-family="Helvetica,sans-Serif" font-size="10.00">::GlobalNeighbour::at</text>
</a>
</g>
</g>
<!-- Node1&#45;&gt;Node3 -->
<g id="edge2" class="edge">
<title>Node1&#45;&gt;Node3</title>
<path fill="none" stroke="midnightblue" d="M311.88,-717.09C309.02,-811.63 294.05,-1144.64 224,-1218 210.59,-1232.05 191.07,-1238.84 172.12,-1241.87"/>
<polygon fill="midnightblue" stroke="midnightblue" points="315.38,-717.11 312.17,-707.02 308.38,-716.91 315.38,-717.11"/>
</g>
<!-- Node4 -->
<g id="node4" class="node">
<title>Node4</title>
<g id="a_node4"><a xlink:href="structvisioncpp_1_1internal_1_1ConstNeighbour.html#a0dca7d426a9612f4a1ad09f576a785a1" target="_top" xlink:title="function at provides access to a specific coordinate for a 2d buffer parameters:">
<polygon fill="none" stroke="black" points="54,-1178 54,-1208 170,-1208 170,-1178 54,-1178"/>
<text text-anchor="start" x="62" y="-1196" font-family="Helvetica,sans-Serif" font-size="10.00">visioncpp::internal</text>
<text text-anchor="middle" x="112" y="-1185" font-family="Helvetica,sans-Serif" font-size="10.00">::ConstNeighbour::at</text>
</a>
</g>
</g>
<!-- Node1&#45;&gt;Node4 -->
<g id="edge3" class="edge">
<title>Node1&#45;&gt;Node4</title>
<path fill="none" stroke="midnightblue" d="M311.37,-717.26C306.86,-806.1 287.25,-1102.32 224,-1168 210.02,-1182.51 189.56,-1189.43 170,-1192.5"/>
<polygon fill="midnightblue" stroke="midnightblue" points="314.86,-717.42 311.85,-707.26 307.87,-717.08 314.86,-717.42"/>
</g>
<!-- Node5 -->
<g id="node5" class="node">
<title>Node5</title>
<g id="a_node5"><a xlink:href="structvisioncpp_1_1internal_1_1Evaluator_3_01internal_1_1ops__category_1_1PointOP_00_01Output__I849edaebbb65e3c18fe700550b74d862.html#a49701f742b4b4d459ce87de353560d86" target="_top" xlink:title=" ">
<polygon fill="none" stroke="black" points="32.5,-1073.5 32.5,-1158.5 191.5,-1158.5 191.5,-1073.5 32.5,-1073.5"/>
<text text-anchor="start" x="40.5" y="-1146.5" font-family="Helvetica,sans-Serif" font-size="10.00">visioncpp::internal</text>
<text text-anchor="start" x="40.5" y="-1135.5" font-family="Helvetica,sans-Serif" font-size="10.00">::Evaluator&lt; internal</text>
<text text-anchor="start" x="40.5" y="-1124.5" font-family="Helvetica,sans-Serif" font-size="10.00">::ops_category::PointOP,</text>
<text text-anchor="start" x="40.5" y="-1113.5" font-family="Helvetica,sans-Serif" font-size="10.00"> Output_Index, Offset, LC,</text>
<text text-anchor="start" x="40.5" y="-1102.5" font-family="Helvetica,sans-Serif" font-size="10.00"> LR, internal::Assign&lt; LHS,</text>
<text text-anchor="start" x="40.5" y="-1091.5" font-family="Helvetica,sans-Serif" font-size="10.00"> RHS, Cols, Rows, LfType, LVL</text>
<text text-anchor="middle" x="112" y="-1080.5" font-family="Helvetica,sans-Serif" font-size="10.00"> &gt;, Loc, Params... &gt;::eval</text>
</a>
</g>
</g>
<!-- Node1&#45;&gt;Node5 -->
<g id="edge4" class="edge">
<title>Node1&#45;&gt;Node5</title>
<path fill="none" stroke="midnightblue" d="M309.37,-717.28C299.7,-791.95 268.23,-1009.65 224,-1064 215.27,-1074.73 203.82,-1083.36 191.58,-1090.27"/>
<polygon fill="midnightblue" stroke="midnightblue" points="312.85,-717.7 310.64,-707.34 305.9,-716.82 312.85,-717.7"/>
</g>
<!-- Node6 -->
<g id="node6" class="node">
<title>Node6</title>
<g id="a_node6"><a xlink:href="structvisioncpp_1_1internal_1_1Evaluator_3_01ops__category_1_1PointOP_00_01OutputIndex_00_01Offs0b8899129ecfb73ef2c5ef3275f568e8.html#a647fb0ca0a8835901d3c86c510cc692e" target="_top" xlink:title=" ">
<polygon fill="none" stroke="black" points="0,-969.5 0,-1054.5 224,-1054.5 224,-969.5 0,-969.5"/>
<text text-anchor="start" x="8" y="-1042.5" font-family="Helvetica,sans-Serif" font-size="10.00">visioncpp::internal</text>
<text text-anchor="start" x="8" y="-1031.5" font-family="Helvetica,sans-Serif" font-size="10.00">::Evaluator&lt; ops_category</text>
<text text-anchor="start" x="8" y="-1020.5" font-family="Helvetica,sans-Serif" font-size="10.00">::PointOP, OutputIndex,</text>
<text text-anchor="start" x="8" y="-1009.5" font-family="Helvetica,sans-Serif" font-size="10.00"> Offset, LC, LR, ParallelCopy</text>
<text text-anchor="start" x="8" y="-998.5" font-family="Helvetica,sans-Serif" font-size="10.00">&lt; LHS, RHS, Cols, Rows, OffsetColIn,</text>
<text text-anchor="start" x="8" y="-987.5" font-family="Helvetica,sans-Serif" font-size="10.00"> OffsetRowIn, OffsetColOut, OffsetRowOut,</text>
<text text-anchor="middle" x="112" y="-976.5" font-family="Helvetica,sans-Serif" font-size="10.00"> LfType, LVL &gt;, Loc, Params... &gt;::eval</text>
</a>
</g>
</g>
<!-- Node1&#45;&gt;Node6 -->
<g id="edge5" class="edge">
<title>Node1&#45;&gt;Node6</title>
<path fill="none" stroke="midnightblue" d="M310.71,-717.34C305.78,-769.1 287.78,-888.13 224,-960 221.03,-963.34 217.81,-966.49 214.38,-969.44"/>
<polygon fill="midnightblue" stroke="midnightblue" points="314.22,-717.34 311.59,-707.08 307.25,-716.74 314.22,-717.34"/>
</g>
<!-- Node7 -->
<g id="node7" class="node">
<title>Node7</title>
<g id="a_node7"><a xlink:href="structvisioncpp_1_1internal_1_1Evaluator_3_01ops__category_1_1NeighbourOP_00_01OutputIndex_00_01ffb772ea5d06a981b55226ede1ed30f7.html#a40bd7a30d54d216453200a014dd80470" target="_top" xlink:title=" ">
<polygon fill="none" stroke="black" points="0,-865.5 0,-950.5 224,-950.5 224,-865.5 0,-865.5"/>
<text text-anchor="start" x="8" y="-938.5" font-family="Helvetica,sans-Serif" font-size="10.00">visioncpp::internal</text>
<text text-anchor="start" x="8" y="-927.5" font-family="Helvetica,sans-Serif" font-size="10.00">::Evaluator&lt; ops_category</text>
<text text-anchor="start" x="8" y="-916.5" font-family="Helvetica,sans-Serif" font-size="10.00">::NeighbourOP, OutputIndex,</text>
<text text-anchor="start" x="8" y="-905.5" font-family="Helvetica,sans-Serif" font-size="10.00"> Offset, LC, LR, ParallelCopy</text>
<text text-anchor="start" x="8" y="-894.5" font-family="Helvetica,sans-Serif" font-size="10.00">&lt; LHS, RHS, Cols, Rows, OffsetColIn,</text>
<text text-anchor="start" x="8" y="-883.5" font-family="Helvetica,sans-Serif" font-size="10.00"> OffsetRowIn, OffsetColOut, OffsetRowOut,</text>
<text text-anchor="middle" x="112" y="-872.5" font-family="Helvetica,sans-Serif" font-size="10.00"> LfType, LVL &gt;, Loc, Params... &gt;::eval</text>
</a>
</g>
</g>
<!-- Node1&#45;&gt;Node7 -->
<g id="edge6" class="edge">
<title>Node1&#45;&gt;Node7</title>
<path fill="none" stroke="midnightblue" d="M304.63,-717.07C292.45,-752.23 265.99,-816.33 224,-856 220.52,-859.29 216.79,-862.4 212.89,-865.34"/>
<polygon fill="midnightblue" stroke="midnightblue" points="308.09,-717.74 307.95,-707.14 301.45,-715.52 308.09,-717.74"/>
</g>
<!-- Node8 -->
<g id="node8" class="node">
<title>Node8</title>
<g id="a_node8"><a xlink:href="structvisioncpp_1_1internal_1_1EvalExpr_3_01Assign_3_01LHS_00_01RHS_00_01Cols_00_01Rows_00_01LfTeef9e8bb9ee55fb68584e2a0065c5dfc.html#a215d4b84bc7b6b246bc2ae90832ae8a8" target="_top" xlink:title="evaluate function when the internal::ops_category is GlobalNeighbour.">
<polygon fill="none" stroke="black" points="33,-783.5 33,-846.5 191,-846.5 191,-783.5 33,-783.5"/>
<text text-anchor="start" x="41" y="-834.5" font-family="Helvetica,sans-Serif" font-size="10.00">visioncpp::internal</text>
<text text-anchor="start" x="41" y="-823.5" font-family="Helvetica,sans-Serif" font-size="10.00">::EvalExpr&lt; Assign&lt;</text>
<text text-anchor="start" x="41" y="-812.5" font-family="Helvetica,sans-Serif" font-size="10.00"> LHS, RHS, Cols, Rows,</text>
<text text-anchor="start" x="41" y="-801.5" font-family="Helvetica,sans-Serif" font-size="10.00"> LfType, LVL &gt;, Loc, Params...</text>
<text text-anchor="middle" x="112" y="-790.5" font-family="Helvetica,sans-Serif" font-size="10.00"> &gt;::eval_global_neighbour</text>
</a>
</g>
</g>
<!-- Node1&#45;&gt;Node8 -->
<g id="edge7" class="edge">
<title>Node1&#45;&gt;Node8</title>
<path fill="none" stroke="midnightblue" d="M292.45,-715.02C275.67,-733.1 250.32,-757.85 224,-774 213.85,-780.23 202.59,-785.75 191.27,-790.55"/>
<polygon fill="midnightblue" stroke="midnightblue" points="295.39,-716.99 299.52,-707.24 290.21,-712.28 295.39,-716.99"/>
</g>
<!-- Node9 -->
<g id="node9" class="node">
<title>Node9</title>
<g id="a_node9"><a xlink:href="structvisioncpp_1_1internal_1_1EvalExpr_3_01RDCN_3_01C__OP_00_01RHS_00_01Cols_00_01Rows_00_01LfT8c8d43150999b006086b237539962930.html#ae4f791078ea9036bdb1afbeec7c1a499" target="_top" xlink:title=" ">
<polygon fill="none" stroke="black" points="33,-701.5 33,-764.5 191,-764.5 191,-701.5 33,-701.5"/>
<text text-anchor="start" x="41" y="-752.5" font-family="Helvetica,sans-Serif" font-size="10.00">visioncpp::internal</text>
<text text-anchor="start" x="41" y="-741.5" font-family="Helvetica,sans-Serif" font-size="10.00">::EvalExpr&lt; RDCN&lt; C</text>
<text text-anchor="start" x="41" y="-730.5" font-family="Helvetica,sans-Serif" font-size="10.00">_OP, RHS, Cols, Rows,</text>
<text text-anchor="start" x="41" y="-719.5" font-family="Helvetica,sans-Serif" font-size="10.00"> LfType, LVL &gt;, Loc, Params...</text>
<text text-anchor="middle" x="112" y="-708.5" font-family="Helvetica,sans-Serif" font-size="10.00"> &gt;::eval_global_neighbour</text>
</a>
</g>
</g>
<!-- Node1&#45;&gt;Node9 -->
<g id="edge8" class="edge">
<title>Node1&#45;&gt;Node9</title>
<path fill="none" stroke="midnightblue" d="M249.99,-704.85C231.35,-708.68 210.68,-712.93 191.17,-716.93"/>
<polygon fill="midnightblue" stroke="midnightblue" points="250.73,-708.27 259.82,-702.83 249.32,-701.41 250.73,-708.27"/>
</g>
<!-- Node10 -->
<g id="node10" class="node">
<title>Node10</title>
<g id="a_node10"><a xlink:href="structvisioncpp_1_1internal_1_1EvalExpr_3_01Assign_3_01LHS_00_01RHS_00_01Cols_00_01Rows_00_01LfTeef9e8bb9ee55fb68584e2a0065c5dfc.html#a74179b14c4b68fb166bb9d2f6960684f" target="_top" xlink:title="evaluate function when the internal::ops_category is NeighbourOP.">
<polygon fill="none" stroke="black" points="33,-619.5 33,-682.5 191,-682.5 191,-619.5 33,-619.5"/>
<text text-anchor="start" x="41" y="-670.5" font-family="Helvetica,sans-Serif" font-size="10.00">visioncpp::internal</text>
<text text-anchor="start" x="41" y="-659.5" font-family="Helvetica,sans-Serif" font-size="10.00">::EvalExpr&lt; Assign&lt;</text>
<text text-anchor="start" x="41" y="-648.5" font-family="Helvetica,sans-Serif" font-size="10.00"> LHS, RHS, Cols, Rows,</text>
<text text-anchor="start" x="41" y="-637.5" font-family="Helvetica,sans-Serif" font-size="10.00"> LfType, LVL &gt;, Loc, Params...</text>
<text text-anchor="middle" x="112" y="-626.5" font-family="Helvetica,sans-Serif" font-size="10.00"> &gt;::eval_neighbour</text>
</a>
</g>
</g>
<!-- Node1&#45;&gt;Node10 -->
<g id="edge9" class="edge">
<title>Node1&#45;&gt;Node10</title>
<path fill="none" stroke="midnightblue" d="M249.99,-679.15C231.35,-675.32 210.68,-671.07 191.17,-667.07"/>
<polygon fill="midnightblue" stroke="midnightblue" points="249.32,-682.59 259.82,-681.17 250.73,-675.73 249.32,-682.59"/>
</g>
<!-- Node11 -->
<g id="node11" class="node">
<title>Node11</title>
<g id="a_node11"><a xlink:href="structvisioncpp_1_1internal_1_1EvalExpr_3_01RBiOP_3_01BI__OP_00_01LHS_00_01RHS_00_01Cols_00_01Roa9f52694509ef22e8d940c587e28326e.html#ab36078d7b10a148fed01295f20da2d1e" target="_top" xlink:title="evaluate function when the internal::ops_category is NeighbourOP.">
<polygon fill="none" stroke="black" points="33,-537.5 33,-600.5 191,-600.5 191,-537.5 33,-537.5"/>
<text text-anchor="start" x="41" y="-588.5" font-family="Helvetica,sans-Serif" font-size="10.00">visioncpp::internal</text>
<text text-anchor="start" x="41" y="-577.5" font-family="Helvetica,sans-Serif" font-size="10.00">::EvalExpr&lt; RBiOP&lt; BI</text>
<text text-anchor="start" x="41" y="-566.5" font-family="Helvetica,sans-Serif" font-size="10.00">_OP, LHS, RHS, Cols, Rows,</text>
<text text-anchor="start" x="41" y="-555.5" font-family="Helvetica,sans-Serif" font-size="10.00"> LfType, LVL &gt;, Loc, Params...</text>
<text text-anchor="middle" x="112" y="-544.5" font-family="Helvetica,sans-Serif" font-size="10.00"> &gt;::eval_neighbour</text>
</a>
</g>
</g>
<!-- Node1&#45;&gt;Node11 -->
<g id="edge10" class="edge">
<title>Node1&#45;&gt;Node11</title>
<path fill="none" stroke="midnightblue" d="M292.45,-668.98C275.67,-650.9 250.32,-626.15 224,-610 213.85,-603.77 202.59,-598.25 191.27,-593.45"/>
<polygon fill="midnightblue" stroke="midnightblue" points="290.21,-671.72 299.52,-676.76 295.39,-667.01 290.21,-671.72"/>
</g>
<!-- Node12 -->
<g id="node12" class="node">
<title>Node12</title>
<g id="a_node12"><a xlink:href="structvisioncpp_1_1internal_1_1EvalExpr_3_01RUnOP_3_01UN__OP_00_01Nested_00_01Cols_00_01Rows_00_798d17f6ff6a8c924dcf80fd69add3c4.html#a120ba27b1540b24b9bd713f1c2bc09ce" target="_top" xlink:title="evaluate function when the internal::ops_category is NeighbourOP.">
<polygon fill="none" stroke="black" points="33,-455.5 33,-518.5 191,-518.5 191,-455.5 33,-455.5"/>
<text text-anchor="start" x="41" y="-506.5" font-family="Helvetica,sans-Serif" font-size="10.00">visioncpp::internal</text>
<text text-anchor="start" x="41" y="-495.5" font-family="Helvetica,sans-Serif" font-size="10.00">::EvalExpr&lt; RUnOP&lt; UN</text>
<text text-anchor="start" x="41" y="-484.5" font-family="Helvetica,sans-Serif" font-size="10.00">_OP, Nested, Cols, Rows,</text>
<text text-anchor="start" x="41" y="-473.5" font-family="Helvetica,sans-Serif" font-size="10.00"> LfType, LVL &gt;, Loc, Params...</text>
<text text-anchor="middle" x="112" y="-462.5" font-family="Helvetica,sans-Serif" font-size="10.00"> &gt;::eval_neighbour</text>
</a>
</g>
</g>
<!-- Node1&#45;&gt;Node12 -->
<g id="edge11" class="edge">
<title>Node1&#45;&gt;Node12</title>
<path fill="none" stroke="midnightblue" d="M305.22,-666.9C293.66,-631.24 267.81,-566.03 224,-528 214.38,-519.65 202.91,-512.94 191.05,-507.57"/>
<polygon fill="midnightblue" stroke="midnightblue" points="301.91,-668.04 308.23,-676.54 308.6,-665.95 301.91,-668.04"/>
</g>
<!-- Node13 -->
<g id="node13" class="node">
<title>Node13</title>
<g id="a_node13"><a xlink:href="structvisioncpp_1_1internal_1_1EvalExpr_3_01RDCN_3_01C__OP_00_01RHS_00_01Cols_00_01Rows_00_01LfT8c8d43150999b006086b237539962930.html#a6aae6e1e368e345822c332f4c0c97054" target="_top" xlink:title="evaluate function when the internal::ops_category is NeighbourOP.">
<polygon fill="none" stroke="black" points="33,-373.5 33,-436.5 191,-436.5 191,-373.5 33,-373.5"/>
<text text-anchor="start" x="41" y="-424.5" font-family="Helvetica,sans-Serif" font-size="10.00">visioncpp::internal</text>
<text text-anchor="start" x="41" y="-413.5" font-family="Helvetica,sans-Serif" font-size="10.00">::EvalExpr&lt; RDCN&lt; C</text>
<text text-anchor="start" x="41" y="-402.5" font-family="Helvetica,sans-Serif" font-size="10.00">_OP, RHS, Cols, Rows,</text>
<text text-anchor="start" x="41" y="-391.5" font-family="Helvetica,sans-Serif" font-size="10.00"> LfType, LVL &gt;, Loc, Params...</text>
<text text-anchor="middle" x="112" y="-380.5" font-family="Helvetica,sans-Serif" font-size="10.00"> &gt;::eval_neighbour</text>
</a>
</g>
</g>
<!-- Node1&#45;&gt;Node13 -->
<g id="edge12" class="edge">
<title>Node1&#45;&gt;Node13</title>
<path fill="none" stroke="midnightblue" d="M310.38,-666.94C304.91,-617.9 286.1,-508.62 224,-446 214.74,-436.66 203.18,-429.43 191.03,-423.84"/>
<polygon fill="midnightblue" stroke="midnightblue" points="306.9,-667.39 311.4,-676.98 313.87,-666.68 306.9,-667.39"/>
</g>
<!-- Node14 -->
<g id="node14" class="node">
<title>Node14</title>
<g id="a_node14"><a xlink:href="structvisioncpp_1_1internal_1_1EvalExpr_3_01StnFilt_3_01C__OP_00_01Halo__T_00_01Halo__L_00_01Hal3690e60d43e39520bd684a51e78c32a1.html#a1b2187d5c9d69078ec7380ca2ef43930" target="_top" xlink:title="evaluate function when the internal::ops_category is NeighbourOP.">
<polygon fill="none" stroke="black" points="42,-269.5 42,-354.5 182,-354.5 182,-269.5 42,-269.5"/>
<text text-anchor="start" x="50" y="-342.5" font-family="Helvetica,sans-Serif" font-size="10.00">visioncpp::internal</text>
<text text-anchor="start" x="50" y="-331.5" font-family="Helvetica,sans-Serif" font-size="10.00">::EvalExpr&lt; StnFilt</text>
<text text-anchor="start" x="50" y="-320.5" font-family="Helvetica,sans-Serif" font-size="10.00">&lt; C_OP, Halo_T, Halo</text>
<text text-anchor="start" x="50" y="-309.5" font-family="Helvetica,sans-Serif" font-size="10.00">_L, Halo_B, Halo_R, LHS,</text>
<text text-anchor="start" x="50" y="-298.5" font-family="Helvetica,sans-Serif" font-size="10.00"> RHS, Cols, Rows, LfType,</text>
<text text-anchor="start" x="50" y="-287.5" font-family="Helvetica,sans-Serif" font-size="10.00"> LVL &gt;, Loc, Params... &gt;</text>
<text text-anchor="middle" x="112" y="-276.5" font-family="Helvetica,sans-Serif" font-size="10.00">::eval_neighbour</text>
</a>
</g>
</g>
<!-- Node1&#45;&gt;Node14 -->
<g id="edge13" class="edge">
<title>Node1&#45;&gt;Node14</title>
<path fill="none" stroke="midnightblue" d="M312.58,-666.91C311.45,-607.33 300.73,-455.45 224,-364 212.92,-350.8 197.74,-340.74 182.16,-333.17"/>
<polygon fill="midnightblue" stroke="midnightblue" points="309.08,-666.97 312.69,-676.93 316.08,-666.89 309.08,-666.97"/>
</g>
<!-- Node15 -->
<g id="node15" class="node">
<title>Node15</title>
<g id="a_node15"><a xlink:href="structvisioncpp_1_1internal_1_1EvalExpr_3_01StnNoFilt_3_01C__OP_00_01Halo__T_00_01Halo__L_00_01Hc8751eddb8d9925ba96b0bc205f2035f.html#ad99b1ceb5e6045a4b2c5444d3a364e40" target="_top" xlink:title="evaluate function when the internal::ops_category is NeighbourOP.">
<polygon fill="none" stroke="black" points="33.5,-176 33.5,-250 190.5,-250 190.5,-176 33.5,-176"/>
<text text-anchor="start" x="41.5" y="-238" font-family="Helvetica,sans-Serif" font-size="10.00">visioncpp::internal</text>
<text text-anchor="start" x="41.5" y="-227" font-family="Helvetica,sans-Serif" font-size="10.00">::EvalExpr&lt; StnNoFilt</text>
<text text-anchor="start" x="41.5" y="-216" font-family="Helvetica,sans-Serif" font-size="10.00">&lt; C_OP, Halo_T, Halo_L,</text>
<text text-anchor="start" x="41.5" y="-205" font-family="Helvetica,sans-Serif" font-size="10.00"> Halo_B, Halo_R, RHS, Cols,</text>
<text text-anchor="start" x="41.5" y="-194" font-family="Helvetica,sans-Serif" font-size="10.00"> Rows, LfType, LVL &gt;, Loc,</text>
<text text-anchor="middle" x="112" y="-183" font-family="Helvetica,sans-Serif" font-size="10.00"> Params... &gt;::eval_neighbour</text>
</a>
</g>
</g>
<!-- Node1&#45;&gt;Node15 -->
<g id="edge14" class="edge">
<title>Node1&#45;&gt;Node15</title>
<path fill="none" stroke="midnightblue" d="M310.37,-666.49C302.97,-583.58 275.99,-323.49 224,-260 215.12,-249.15 203.28,-240.76 190.64,-234.29"/>
<polygon fill="midnightblue" stroke="midnightblue" points="306.89,-666.89 311.24,-676.55 313.86,-666.28 306.89,-666.89"/>
</g>
<!-- Node16 -->
<g id="node16" class="node">
<title>Node16</title>
<g id="a_node16"><a xlink:href="structvisioncpp_1_1internal_1_1EvalExpr_3_01LeafNode_3_01PlaceHolder_3_01Memory__Type_00_01N_00_a373babff85953e27c959c84832290e8.html#a267de44de54a7b41add769da536239e5" target="_top" xlink:title="evaluate function when the internal::ops_category is PointOP.">
<polygon fill="none" stroke="black" points="37.5,-83 37.5,-157 186.5,-157 186.5,-83 37.5,-83"/>
<text text-anchor="start" x="45.5" y="-145" font-family="Helvetica,sans-Serif" font-size="10.00">visioncpp::internal</text>
<text text-anchor="start" x="45.5" y="-134" font-family="Helvetica,sans-Serif" font-size="10.00">::EvalExpr&lt; LeafNode</text>
<text text-anchor="start" x="45.5" y="-123" font-family="Helvetica,sans-Serif" font-size="10.00">&lt; PlaceHolder&lt; Memory</text>
<text text-anchor="start" x="45.5" y="-112" font-family="Helvetica,sans-Serif" font-size="10.00">_Type, N, Cols, Rows,</text>
<text text-anchor="start" x="45.5" y="-101" font-family="Helvetica,sans-Serif" font-size="10.00"> Sc &gt;, LVL &gt;, Loc, Params...</text>
<text text-anchor="middle" x="112" y="-90" font-family="Helvetica,sans-Serif" font-size="10.00"> &gt;::eval_point</text>
</a>
</g>
</g>
<!-- Node1&#45;&gt;Node16 -->
<g id="edge15" class="edge">
<title>Node1&#45;&gt;Node16</title>
<path fill="none" stroke="midnightblue" d="M311.4,-666.75C306.83,-573.01 286.63,-246.28 224,-167 214.34,-154.77 200.89,-145.67 186.7,-138.93"/>
<polygon fill="midnightblue" stroke="midnightblue" points="307.91,-667.17 311.88,-677 314.9,-666.84 307.91,-667.17"/>
</g>
<!-- Node17 -->
<g id="node17" class="node">
<title>Node17</title>
<g id="a_node17"><a xlink:href="structvisioncpp_1_1internal_1_1Fill_3_01LeafNode_3_01PlaceHolder_3_01Memory__Type_00_01N_00_01Cob4f49ce9b4cd65c2744937e3f744a267.html#a64046a2bcc570986c628aa2240f6a590" target="_top" xlink:title=" ">
<polygon fill="none" stroke="black" points="26,-0.5 26,-63.5 198,-63.5 198,-0.5 26,-0.5"/>
<text text-anchor="start" x="34" y="-51.5" font-family="Helvetica,sans-Serif" font-size="10.00">visioncpp::internal</text>
<text text-anchor="start" x="34" y="-40.5" font-family="Helvetica,sans-Serif" font-size="10.00">::Fill&lt; LeafNode&lt; PlaceHolder</text>
<text text-anchor="start" x="34" y="-29.5" font-family="Helvetica,sans-Serif" font-size="10.00">&lt; Memory_Type, N, Cols, Rows,</text>
<text text-anchor="start" x="34" y="-18.5" font-family="Helvetica,sans-Serif" font-size="10.00"> Sc &gt;, LVL &gt;, Loc, Params...</text>
<text text-anchor="middle" x="112" y="-7.5" font-family="Helvetica,sans-Serif" font-size="10.00"> &gt;::fill_neighbour</text>
</a>
</g>
</g>
<!-- Node1&#45;&gt;Node17 -->
<g id="edge16" class="edge">
<title>Node1&#45;&gt;Node17</title>
<path fill="none" stroke="midnightblue" d="M312.21,-666.7C310.51,-562.51 299.13,-167.74 224,-74 217.04,-65.32 208.08,-58.43 198.27,-52.97"/>
<polygon fill="midnightblue" stroke="midnightblue" points="308.71,-666.96 312.36,-676.9 315.71,-666.85 308.71,-666.96"/>
</g>
</g>
</svg>
