<?xml version="1.0" encoding="UTF-8" standalone="no"?>
<!DOCTYPE svg PUBLIC "-//W3C//DTD SVG 1.1//EN"
 "http://www.w3.org/Graphics/SVG/1.1/DTD/svg11.dtd">
<!-- Generated by graphviz version 2.36.0 (20140111.2315)
 -->
<!-- Title: visioncpp::internal::tools::tuple::append Pages: 1 -->
<svg width="366pt" height="764pt"
 viewBox="0.00 0.00 366.00 764.00" xmlns="http://www.w3.org/2000/svg" xmlns:xlink="http://www.w3.org/1999/xlink">
<g id="graph0" class="graph" transform="scale(1 1) rotate(0) translate(4 760)">
<title>visioncpp::internal::tools::tuple::append</title>
<!-- Node1 -->
<g id="node1" class="node"><title>Node1</title>
<polygon fill="#bfbfbf" stroke="black" points="0,-391 0,-421 108,-421 108,-391 0,-391"/>
<text text-anchor="start" x="8" y="-409" font-family="Helvetica,sans-Serif" font-size="10.00">visioncpp::internal</text>
<text text-anchor="middle" x="54" y="-398" font-family="Helvetica,sans-Serif" font-size="10.00">::tools::tuple::append</text>
</g>
<!-- Node2 -->
<g id="node2" class="node"><title>Node2</title>
<g id="a_node2"><a xlink:href="structvisioncpp_1_1internal_1_1CreatePyramidTuple.html#a29e836c4b66a03b79893cd3da650da06" target="_top" xlink:title="create_tuple function: ">
<polygon fill="none" stroke="black" points="195,-714.5 195,-755.5 307,-755.5 307,-714.5 195,-714.5"/>
<text text-anchor="start" x="203" y="-743.5" font-family="Helvetica,sans-Serif" font-size="10.00">visioncpp::internal</text>
<text text-anchor="start" x="203" y="-732.5" font-family="Helvetica,sans-Serif" font-size="10.00">::CreatePyramidTuple</text>
<text text-anchor="middle" x="251" y="-721.5" font-family="Helvetica,sans-Serif" font-size="10.00">::create_tuple</text>
</a>
</g>
</g>
<!-- Node1&#45;&gt;Node2 -->
<g id="edge1" class="edge"><title>Node1&#45;&gt;Node2</title>
<path fill="none" stroke="midnightblue" d="M54.9173,-431.476C56.1588,-488.586 67.3633,-627.799 144,-704 157.528,-717.451 176.554,-725.13 194.759,-729.49"/>
<polygon fill="midnightblue" stroke="midnightblue" points="58.4134,-431.146 54.7853,-421.192 51.414,-431.236 58.4134,-431.146"/>
</g>
<!-- Node3 -->
<g id="node3" class="node"><title>Node3</title>
<g id="a_node3"><a xlink:href="structvisioncpp_1_1internal_1_1ExtractAccessor_3_01expr__category_1_1Binary_00_01Expr_01_4.html#a5d116934fc21c31523d1e3c8e2becc94" target="_top" xlink:title="visioncpp::internal\l::ExtractAccessor\&lt; expr\l_category::Binary, Expr\l \&gt;::getTuple">
<polygon fill="none" stroke="black" points="189.5,-643 189.5,-695 312.5,-695 312.5,-643 189.5,-643"/>
<text text-anchor="start" x="197.5" y="-683" font-family="Helvetica,sans-Serif" font-size="10.00">visioncpp::internal</text>
<text text-anchor="start" x="197.5" y="-672" font-family="Helvetica,sans-Serif" font-size="10.00">::ExtractAccessor&lt; expr</text>
<text text-anchor="start" x="197.5" y="-661" font-family="Helvetica,sans-Serif" font-size="10.00">_category::Binary, Expr</text>
<text text-anchor="middle" x="251" y="-650" font-family="Helvetica,sans-Serif" font-size="10.00"> &gt;::getTuple</text>
</a>
</g>
</g>
<!-- Node1&#45;&gt;Node3 -->
<g id="edge2" class="edge"><title>Node1&#45;&gt;Node3</title>
<path fill="none" stroke="midnightblue" d="M57.9223,-431.209C64.6242,-477.627 85.3279,-576.981 144,-633 156.511,-644.945 173.134,-652.936 189.499,-658.278"/>
<polygon fill="midnightblue" stroke="midnightblue" points="61.3669,-430.561 56.5681,-421.115 54.429,-431.492 61.3669,-430.561"/>
</g>
<!-- Node4 -->
<g id="node4" class="node"><title>Node4</title>
<g id="a_node4"><a xlink:href="structvisioncpp_1_1internal_1_1ExtractAccessor_3_01expr__category_1_1Binary_00_01Assign_3_01LHSEfc4abae0aea7202de83232c2cd152bfb.html#aa4086a76436635bb7049586e7110310c" target="_top" xlink:title="visioncpp::internal\l::ExtractAccessor\&lt; expr\l_category::Binary, Assign\l\&lt; LHSExpr, RHSExpr, Cols,\l Rows, LeafType, LVL \&gt; \&gt;::\lgetTuple">
<polygon fill="none" stroke="black" points="179.5,-550 179.5,-624 322.5,-624 322.5,-550 179.5,-550"/>
<text text-anchor="start" x="187.5" y="-612" font-family="Helvetica,sans-Serif" font-size="10.00">visioncpp::internal</text>
<text text-anchor="start" x="187.5" y="-601" font-family="Helvetica,sans-Serif" font-size="10.00">::ExtractAccessor&lt; expr</text>
<text text-anchor="start" x="187.5" y="-590" font-family="Helvetica,sans-Serif" font-size="10.00">_category::Binary, Assign</text>
<text text-anchor="start" x="187.5" y="-579" font-family="Helvetica,sans-Serif" font-size="10.00">&lt; LHSExpr, RHSExpr, Cols,</text>
<text text-anchor="start" x="187.5" y="-568" font-family="Helvetica,sans-Serif" font-size="10.00"> Rows, LeafType, LVL &gt; &gt;::</text>
<text text-anchor="middle" x="251" y="-557" font-family="Helvetica,sans-Serif" font-size="10.00">getTuple</text>
</a>
</g>
</g>
<!-- Node1&#45;&gt;Node4 -->
<g id="edge3" class="edge"><title>Node1&#45;&gt;Node4</title>
<path fill="none" stroke="midnightblue" d="M65.9229,-430.475C80.1486,-459.93 107.566,-509.254 144,-540 154.462,-548.828 166.844,-556.283 179.39,-562.47"/>
<polygon fill="midnightblue" stroke="midnightblue" points="69.0328,-428.864 61.6103,-421.304 62.6981,-431.842 69.0328,-428.864"/>
</g>
<!-- Node5 -->
<g id="node5" class="node"><title>Node5</title>
<g id="a_node5"><a xlink:href="structvisioncpp_1_1internal_1_1ExtractAccessor_3_01expr__category_1_1Binary_00_01ParallelCopy_3_72ed56ce6c8a26655ece6832b967cb17.html#ab943e0d7457334ea1861bc3f0155cf74" target="_top" xlink:title="visioncpp::internal\l::ExtractAccessor\&lt; expr\l_category::Binary, ParallelCopy\l\&lt; LHSExpr, RHSExpr, Cols, Rows,\l OffsetColIn, OffsetRowIn, OffsetColOut,\l OffsetRowOut, LeafType, LVL \&gt; \&gt;::getTuple">
<polygon fill="none" stroke="black" points="144,-457 144,-531 358,-531 358,-457 144,-457"/>
<text text-anchor="start" x="152" y="-519" font-family="Helvetica,sans-Serif" font-size="10.00">visioncpp::internal</text>
<text text-anchor="start" x="152" y="-508" font-family="Helvetica,sans-Serif" font-size="10.00">::ExtractAccessor&lt; expr</text>
<text text-anchor="start" x="152" y="-497" font-family="Helvetica,sans-Serif" font-size="10.00">_category::Binary, ParallelCopy</text>
<text text-anchor="start" x="152" y="-486" font-family="Helvetica,sans-Serif" font-size="10.00">&lt; LHSExpr, RHSExpr, Cols, Rows,</text>
<text text-anchor="start" x="152" y="-475" font-family="Helvetica,sans-Serif" font-size="10.00"> OffsetColIn, OffsetRowIn, OffsetColOut,</text>
<text text-anchor="middle" x="251" y="-464" font-family="Helvetica,sans-Serif" font-size="10.00"> OffsetRowOut, LeafType, LVL &gt; &gt;::getTuple</text>
</a>
</g>
</g>
<!-- Node1&#45;&gt;Node5 -->
<g id="edge4" class="edge"><title>Node1&#45;&gt;Node5</title>
<path fill="none" stroke="midnightblue" d="M96.9319,-425.467C111.778,-432.32 128.613,-440.045 144,-447 151.154,-450.234 158.589,-453.573 166.052,-456.91"/>
<polygon fill="midnightblue" stroke="midnightblue" points="98.0436,-422.125 87.4979,-421.107 95.1068,-428.479 98.0436,-422.125"/>
</g>
<!-- Node6 -->
<g id="node6" class="node"><title>Node6</title>
<g id="a_node6"><a xlink:href="structvisioncpp_1_1internal_1_1LocalOutput_3_01false_00_01IsRoot_00_01LC_00_01LR_00_01RUnOP_3_01222dc31e6f7adbfd1b3ba76b431263e2.html#a17c779f1e6fa85ef39237eb5db93cec8" target="_top" xlink:title="visioncpp::internal\l::LocalOutput\&lt; false,\l IsRoot, LC, LR, RUnOP\l\&lt; OP, RHSExpr, Cols, Rows,\l LeafType, LVL \&gt; \&gt;::getTuple">
<polygon fill="none" stroke="black" points="176.5,-374.5 176.5,-437.5 325.5,-437.5 325.5,-374.5 176.5,-374.5"/>
<text text-anchor="start" x="184.5" y="-425.5" font-family="Helvetica,sans-Serif" font-size="10.00">visioncpp::internal</text>
<text text-anchor="start" x="184.5" y="-414.5" font-family="Helvetica,sans-Serif" font-size="10.00">::LocalOutput&lt; false,</text>
<text text-anchor="start" x="184.5" y="-403.5" font-family="Helvetica,sans-Serif" font-size="10.00"> IsRoot, LC, LR, RUnOP</text>
<text text-anchor="start" x="184.5" y="-392.5" font-family="Helvetica,sans-Serif" font-size="10.00">&lt; OP, RHSExpr, Cols, Rows,</text>
<text text-anchor="middle" x="251" y="-381.5" font-family="Helvetica,sans-Serif" font-size="10.00"> LeafType, LVL &gt; &gt;::getTuple</text>
</a>
</g>
</g>
<!-- Node1&#45;&gt;Node6 -->
<g id="edge5" class="edge"><title>Node1&#45;&gt;Node6</title>
<path fill="none" stroke="midnightblue" d="M118.096,-406C136.608,-406 157.017,-406 176.137,-406"/>
<polygon fill="midnightblue" stroke="midnightblue" points="118.027,-402.5 108.027,-406 118.027,-409.5 118.027,-402.5"/>
</g>
<!-- Node7 -->
<g id="node7" class="node"><title>Node7</title>
<g id="a_node7"><a xlink:href="structvisioncpp_1_1internal_1_1LocalOutput_3_01false_00_01IsRoot_00_01LC_00_01LR_00_01RBiOP_3_012aff2f4a38a6baec8f8e4876a21ac04d.html#af800e26ee624f9e5e3b021015a89f457" target="_top" xlink:title="visioncpp::internal\l::LocalOutput\&lt; false,\l IsRoot, LC, LR, RBiOP\l\&lt; OP, LHSExpr, RHSExpr,\l Cols, Rows, LeafType, LVL\l \&gt; \&gt;::getTuple">
<polygon fill="none" stroke="black" points="180.5,-281 180.5,-355 321.5,-355 321.5,-281 180.5,-281"/>
<text text-anchor="start" x="188.5" y="-343" font-family="Helvetica,sans-Serif" font-size="10.00">visioncpp::internal</text>
<text text-anchor="start" x="188.5" y="-332" font-family="Helvetica,sans-Serif" font-size="10.00">::LocalOutput&lt; false,</text>
<text text-anchor="start" x="188.5" y="-321" font-family="Helvetica,sans-Serif" font-size="10.00"> IsRoot, LC, LR, RBiOP</text>
<text text-anchor="start" x="188.5" y="-310" font-family="Helvetica,sans-Serif" font-size="10.00">&lt; OP, LHSExpr, RHSExpr,</text>
<text text-anchor="start" x="188.5" y="-299" font-family="Helvetica,sans-Serif" font-size="10.00"> Cols, Rows, LeafType, LVL</text>
<text text-anchor="middle" x="251" y="-288" font-family="Helvetica,sans-Serif" font-size="10.00"> &gt; &gt;::getTuple</text>
</a>
</g>
</g>
<!-- Node1&#45;&gt;Node7 -->
<g id="edge6" class="edge"><title>Node1&#45;&gt;Node7</title>
<path fill="none" stroke="midnightblue" d="M96.9319,-386.533C111.778,-379.68 128.613,-371.955 144,-365 155.74,-359.693 168.235,-354.103 180.374,-348.701"/>
<polygon fill="midnightblue" stroke="midnightblue" points="95.1068,-383.521 87.4979,-390.893 98.0436,-389.875 95.1068,-383.521"/>
</g>
<!-- Node8 -->
<g id="node8" class="node"><title>Node8</title>
<g id="a_node8"><a xlink:href="structvisioncpp_1_1internal_1_1LocalOutput_3_01false_00_01IsRoot_00_01LC_00_01LR_00_01StnFilt_3_78467c599a542dd94fd0a9e3d6a02a30.html#a50566348e971a8dd50644cbdec9725e5" target="_top" xlink:title="visioncpp::internal\l::LocalOutput\&lt; false,\l IsRoot, LC, LR, StnFilt\l\&lt; OP, Halo_T, Halo_L, Halo\l_B, Halo_R, LHSExpr, RHSExpr,\l Cols, Rows, LeafType, LVL \&gt;\l \&gt;::getTuple">
<polygon fill="none" stroke="black" points="169,-176.5 169,-261.5 333,-261.5 333,-176.5 169,-176.5"/>
<text text-anchor="start" x="177" y="-249.5" font-family="Helvetica,sans-Serif" font-size="10.00">visioncpp::internal</text>
<text text-anchor="start" x="177" y="-238.5" font-family="Helvetica,sans-Serif" font-size="10.00">::LocalOutput&lt; false,</text>
<text text-anchor="start" x="177" y="-227.5" font-family="Helvetica,sans-Serif" font-size="10.00"> IsRoot, LC, LR, StnFilt</text>
<text text-anchor="start" x="177" y="-216.5" font-family="Helvetica,sans-Serif" font-size="10.00">&lt; OP, Halo_T, Halo_L, Halo</text>
<text text-anchor="start" x="177" y="-205.5" font-family="Helvetica,sans-Serif" font-size="10.00">_B, Halo_R, LHSExpr, RHSExpr,</text>
<text text-anchor="start" x="177" y="-194.5" font-family="Helvetica,sans-Serif" font-size="10.00"> Cols, Rows, LeafType, LVL &gt;</text>
<text text-anchor="middle" x="251" y="-183.5" font-family="Helvetica,sans-Serif" font-size="10.00"> &gt;::getTuple</text>
</a>
</g>
</g>
<!-- Node1&#45;&gt;Node8 -->
<g id="edge7" class="edge"><title>Node1&#45;&gt;Node8</title>
<path fill="none" stroke="midnightblue" d="M66.1632,-381.803C80.6294,-352.626 108.288,-303.581 144,-272 151.552,-265.321 160.097,-259.258 168.977,-253.818"/>
<polygon fill="midnightblue" stroke="midnightblue" points="62.9752,-380.356 61.7704,-390.882 69.2764,-383.405 62.9752,-380.356"/>
</g>
<!-- Node9 -->
<g id="node9" class="node"><title>Node9</title>
<g id="a_node9"><a xlink:href="structvisioncpp_1_1internal_1_1LocalOutput_3_01false_00_01IsRoot_00_01LC_00_01LR_00_01StnNoFilt_d45bb2f039daef54effcd1874753b2c3.html#a7ca4ad4544d257ccaa61badc635beb37" target="_top" xlink:title="visioncpp::internal\l::LocalOutput\&lt; false,\l IsRoot, LC, LR, StnNoFilt\l\&lt; OP, Halo_T, Halo_L, Halo\l_B, Halo_R, RHSExpr, Cols,\l Rows, LeafType, LVL \&gt; \&gt;::getTuple">
<polygon fill="none" stroke="black" points="163,-83 163,-157 339,-157 339,-83 163,-83"/>
<text text-anchor="start" x="171" y="-145" font-family="Helvetica,sans-Serif" font-size="10.00">visioncpp::internal</text>
<text text-anchor="start" x="171" y="-134" font-family="Helvetica,sans-Serif" font-size="10.00">::LocalOutput&lt; false,</text>
<text text-anchor="start" x="171" y="-123" font-family="Helvetica,sans-Serif" font-size="10.00"> IsRoot, LC, LR, StnNoFilt</text>
<text text-anchor="start" x="171" y="-112" font-family="Helvetica,sans-Serif" font-size="10.00">&lt; OP, Halo_T, Halo_L, Halo</text>
<text text-anchor="start" x="171" y="-101" font-family="Helvetica,sans-Serif" font-size="10.00">_B, Halo_R, RHSExpr, Cols,</text>
<text text-anchor="middle" x="251" y="-90" font-family="Helvetica,sans-Serif" font-size="10.00"> Rows, LeafType, LVL &gt; &gt;::getTuple</text>
</a>
</g>
</g>
<!-- Node1&#45;&gt;Node9 -->
<g id="edge8" class="edge"><title>Node1&#45;&gt;Node9</title>
<path fill="none" stroke="midnightblue" d="M57.9299,-380.641C64.7003,-332.939 85.592,-229.076 144,-167 149.587,-161.062 156.059,-155.827 162.996,-151.22"/>
<polygon fill="midnightblue" stroke="midnightblue" points="54.4384,-380.347 56.5938,-390.72 61.3777,-381.267 54.4384,-380.347"/>
</g>
<!-- Node10 -->
<g id="node10" class="node"><title>Node10</title>
<g id="a_node10"><a xlink:href="structvisioncpp_1_1internal_1_1LocalOutput_3_01false_00_01IsRoot_00_01LC_00_01LR_00_01RDCN_3_01O985b5cf5bfc049f9ae66cfbe725d4e32.html#a85cc60fe30b8670638b13c098a889ad6" target="_top" xlink:title="visioncpp::internal\l::LocalOutput\&lt; false,\l IsRoot, LC, LR, RDCN\l\&lt; OP, RHSExpr, Cols, Rows,\l LeafType, LVL \&gt; \&gt;::getTuple">
<polygon fill="none" stroke="black" points="176.5,-0.5 176.5,-63.5 325.5,-63.5 325.5,-0.5 176.5,-0.5"/>
<text text-anchor="start" x="184.5" y="-51.5" font-family="Helvetica,sans-Serif" font-size="10.00">visioncpp::internal</text>
<text text-anchor="start" x="184.5" y="-40.5" font-family="Helvetica,sans-Serif" font-size="10.00">::LocalOutput&lt; false,</text>
<text text-anchor="start" x="184.5" y="-29.5" font-family="Helvetica,sans-Serif" font-size="10.00"> IsRoot, LC, LR, RDCN</text>
<text text-anchor="start" x="184.5" y="-18.5" font-family="Helvetica,sans-Serif" font-size="10.00">&lt; OP, RHSExpr, Cols, Rows,</text>
<text text-anchor="middle" x="251" y="-7.5" font-family="Helvetica,sans-Serif" font-size="10.00"> LeafType, LVL &gt; &gt;::getTuple</text>
</a>
</g>
</g>
<!-- Node1&#45;&gt;Node10 -->
<g id="edge9" class="edge"><title>Node1&#45;&gt;Node10</title>
<path fill="none" stroke="midnightblue" d="M54.5037,-380.719C54.6833,-320.019 63.472,-164.396 144,-74 152.822,-64.0971 164.287,-56.5009 176.407,-50.6823"/>
<polygon fill="midnightblue" stroke="midnightblue" points="51.0046,-380.929 54.555,-390.911 58.0045,-380.893 51.0046,-380.929"/>
</g>
</g>
</svg>
