<?xml version="1.0" encoding="UTF-8" standalone="no"?>
<!DOCTYPE svg PUBLIC "-//W3C//DTD SVG 1.1//EN"
 "http://www.w3.org/Graphics/SVG/1.1/DTD/svg11.dtd">
<!-- Generated by graphviz version 2.36.0 (20140111.2315)
 -->
<!-- Title: visioncpp::internal::tools::tuple::make_tuple Pages: 1 -->
<svg width="788pt" height="1021pt"
 viewBox="0.00 0.00 788.00 1021.00" xmlns="http://www.w3.org/2000/svg" xmlns:xlink="http://www.w3.org/1999/xlink">
<g id="graph0" class="graph" transform="scale(1 1) rotate(0) translate(4 1017)">
<title>visioncpp::internal::tools::tuple::make_tuple</title>
<!-- Node1 -->
<g id="node1" class="node"><title>Node1</title>
<polygon fill="#bfbfbf" stroke="black" points="0.5,-492 0.5,-522 127.5,-522 127.5,-492 0.5,-492"/>
<text text-anchor="start" x="8.5" y="-510" font-family="Helvetica,sans-Serif" font-size="10.00">visioncpp::internal</text>
<text text-anchor="middle" x="64" y="-499" font-family="Helvetica,sans-Serif" font-size="10.00">::tools::tuple::make_tuple</text>
</g>
<!-- Node2 -->
<g id="node2" class="node"><title>Node2</title>
<g id="a_node2"><a xlink:href="namespacevisioncpp_1_1internal_1_1tools_1_1tuple.html#a0739601d962b2f5d67f9733bdd49624b" target="_top" xlink:title="append_impl ">
<polygon fill="none" stroke="black" points="203.5,-629 203.5,-659 334.5,-659 334.5,-629 203.5,-629"/>
<text text-anchor="start" x="211.5" y="-647" font-family="Helvetica,sans-Serif" font-size="10.00">visioncpp::internal</text>
<text text-anchor="middle" x="269" y="-636" font-family="Helvetica,sans-Serif" font-size="10.00">::tools::tuple::append_impl</text>
</a>
</g>
</g>
<!-- Node1&#45;&gt;Node2 -->
<g id="edge1" class="edge"><title>Node1&#45;&gt;Node2</title>
<path fill="none" stroke="midnightblue" d="M80.8061,-530.539C98.3579,-554.898 128.89,-592.351 164,-614 175.917,-621.348 189.705,-626.959 203.267,-631.223"/>
<polygon fill="midnightblue" stroke="midnightblue" points="83.5612,-528.372 74.9425,-522.21 77.8375,-532.402 83.5612,-528.372"/>
</g>
<!-- Node4 -->
<g id="node4" class="node"><title>Node4</title>
<g id="a_node4"><a xlink:href="structvisioncpp_1_1internal_1_1CreatePyramidTuple.html#a29e836c4b66a03b79893cd3da650da06" target="_top" xlink:title="create_tuple function: ">
<polygon fill="none" stroke="black" points="617,-971.5 617,-1012.5 729,-1012.5 729,-971.5 617,-971.5"/>
<text text-anchor="start" x="625" y="-1000.5" font-family="Helvetica,sans-Serif" font-size="10.00">visioncpp::internal</text>
<text text-anchor="start" x="625" y="-989.5" font-family="Helvetica,sans-Serif" font-size="10.00">::CreatePyramidTuple</text>
<text text-anchor="middle" x="673" y="-978.5" font-family="Helvetica,sans-Serif" font-size="10.00">::create_tuple</text>
</a>
</g>
</g>
<!-- Node1&#45;&gt;Node4 -->
<g id="edge13" class="edge"><title>Node1&#45;&gt;Node4</title>
<path fill="none" stroke="midnightblue" d="M76.2785,-531.508C92.444,-564.906 124.638,-625.419 164,-668 314.076,-830.348 367.618,-863.409 566,-961 581.914,-968.829 600.167,-975.047 616.991,-979.797"/>
<polygon fill="midnightblue" stroke="midnightblue" points="79.2423,-529.591 71.7861,-522.064 72.9211,-532.598 79.2423,-529.591"/>
</g>
<!-- Node14 -->
<g id="node14" class="node"><title>Node14</title>
<g id="a_node14"><a xlink:href="structvisioncpp_1_1internal_1_1CreatePyramidTuple_3_01true_00_01Cols_00_01Rows_00_01LeafType_00_c3515e3676f2f298ffd0b791cd97f1c4.html#a700aa73fd19efdf9816ce282e4f6ef1a" target="_top" xlink:title="create_tuple function: ">
<polygon fill="none" stroke="black" points="194.5,-508.5 194.5,-571.5 343.5,-571.5 343.5,-508.5 194.5,-508.5"/>
<text text-anchor="start" x="202.5" y="-559.5" font-family="Helvetica,sans-Serif" font-size="10.00">visioncpp::internal</text>
<text text-anchor="start" x="202.5" y="-548.5" font-family="Helvetica,sans-Serif" font-size="10.00">::CreatePyramidTuple</text>
<text text-anchor="start" x="202.5" y="-537.5" font-family="Helvetica,sans-Serif" font-size="10.00">&lt; true, Cols, Rows, LeafType,</text>
<text text-anchor="start" x="202.5" y="-526.5" font-family="Helvetica,sans-Serif" font-size="10.00"> Depth, CurrentDepth, LHS</text>
<text text-anchor="middle" x="269" y="-515.5" font-family="Helvetica,sans-Serif" font-size="10.00"> &gt;::create_tuple</text>
</a>
</g>
</g>
<!-- Node1&#45;&gt;Node14 -->
<g id="edge14" class="edge"><title>Node1&#45;&gt;Node14</title>
<path fill="none" stroke="midnightblue" d="M137.623,-518.806C156.019,-521.796 175.794,-525.011 194.245,-528.01"/>
<polygon fill="midnightblue" stroke="midnightblue" points="137.995,-515.32 127.563,-517.17 136.872,-522.23 137.995,-515.32"/>
</g>
<!-- Node15 -->
<g id="node15" class="node"><title>Node15</title>
<g id="a_node15"><a xlink:href="structvisioncpp_1_1internal_1_1OutputAccessor.html#a317f13dda352fcc86386dc21b6a0c859" target="_top" xlink:title="visioncpp::internal\l::OutputAccessor::getTuple">
<polygon fill="none" stroke="black" points="200.5,-459 200.5,-489 337.5,-489 337.5,-459 200.5,-459"/>
<text text-anchor="start" x="208.5" y="-477" font-family="Helvetica,sans-Serif" font-size="10.00">visioncpp::internal</text>
<text text-anchor="middle" x="269" y="-466" font-family="Helvetica,sans-Serif" font-size="10.00">::OutputAccessor::getTuple</text>
</a>
</g>
</g>
<!-- Node1&#45;&gt;Node15 -->
<g id="edge15" class="edge"><title>Node1&#45;&gt;Node15</title>
<path fill="none" stroke="midnightblue" d="M137.465,-495.22C157.952,-491.89 180.162,-488.279 200.353,-484.997"/>
<polygon fill="midnightblue" stroke="midnightblue" points="136.872,-491.77 127.563,-496.83 137.995,-498.68 136.872,-491.77"/>
</g>
<!-- Node16 -->
<g id="node16" class="node"><title>Node16</title>
<g id="a_node16"><a xlink:href="structvisioncpp_1_1internal_1_1LocalOutput.html#abc63292a957140f2a601692f3c2983c4" target="_top" xlink:title="getTuple function is used to create and wrap local memory into a tuple ">
<polygon fill="none" stroke="black" points="410.5,-369 410.5,-399 529.5,-399 529.5,-369 410.5,-369"/>
<text text-anchor="start" x="418.5" y="-387" font-family="Helvetica,sans-Serif" font-size="10.00">visioncpp::internal</text>
<text text-anchor="middle" x="470" y="-376" font-family="Helvetica,sans-Serif" font-size="10.00">::LocalOutput::getTuple</text>
</a>
</g>
</g>
<!-- Node1&#45;&gt;Node16 -->
<g id="edge16" class="edge"><title>Node1&#45;&gt;Node16</title>
<path fill="none" stroke="midnightblue" d="M86.2933,-529.466C104.86,-547.304 133.532,-570.871 164,-581 252.568,-610.443 294.959,-630.635 374,-581 440.08,-539.504 461.287,-437.685 467.082,-399.129"/>
<polygon fill="midnightblue" stroke="midnightblue" points="88.5488,-526.774 78.9787,-522.228 83.6252,-531.75 88.5488,-526.774"/>
</g>
<!-- Node19 -->
<g id="node19" class="node"><title>Node19</title>
<g id="a_node19"><a xlink:href="structvisioncpp_1_1internal_1_1LocalOutput_3_01false_00_01IsRoot_00_01LC_00_01LR_00_01LeafNode_3ad2e76c561065a363672c4f018afa544.html#a1da6f466f7bbafe87dde5faa4e89d0d3" target="_top" xlink:title="visioncpp::internal\l::LocalOutput\&lt; false,\l IsRoot, LC, LR, LeafNode\l\&lt; VisionMemory\&lt; in, element\l_category, memory_type::Const,\l Sclr, Width, Height, Sclr, 1,\l scope::Global, LVL \&gt;, LVL \&gt; \&gt;\l::getTuple">
<polygon fill="none" stroke="black" points="189,-344 189,-440 349,-440 349,-344 189,-344"/>
<text text-anchor="start" x="197" y="-428" font-family="Helvetica,sans-Serif" font-size="10.00">visioncpp::internal</text>
<text text-anchor="start" x="197" y="-417" font-family="Helvetica,sans-Serif" font-size="10.00">::LocalOutput&lt; false,</text>
<text text-anchor="start" x="197" y="-406" font-family="Helvetica,sans-Serif" font-size="10.00"> IsRoot, LC, LR, LeafNode</text>
<text text-anchor="start" x="197" y="-395" font-family="Helvetica,sans-Serif" font-size="10.00">&lt; VisionMemory&lt; in, element</text>
<text text-anchor="start" x="197" y="-384" font-family="Helvetica,sans-Serif" font-size="10.00">_category, memory_type::Const,</text>
<text text-anchor="start" x="197" y="-373" font-family="Helvetica,sans-Serif" font-size="10.00"> Sclr, Width, Height, Sclr, 1,</text>
<text text-anchor="start" x="197" y="-362" font-family="Helvetica,sans-Serif" font-size="10.00"> scope::Global, LVL &gt;, LVL &gt; &gt;</text>
<text text-anchor="middle" x="269" y="-351" font-family="Helvetica,sans-Serif" font-size="10.00">::getTuple</text>
</a>
</g>
</g>
<!-- Node1&#45;&gt;Node19 -->
<g id="edge24" class="edge"><title>Node1&#45;&gt;Node19</title>
<path fill="none" stroke="midnightblue" d="M99.8687,-486.769C118.805,-475.822 142.647,-462.1 164,-450 172.004,-445.464 180.368,-440.753 188.724,-436.064"/>
<polygon fill="midnightblue" stroke="midnightblue" points="97.902,-483.863 90.9996,-491.901 101.408,-489.922 97.902,-483.863"/>
</g>
<!-- Node20 -->
<g id="node20" class="node"><title>Node20</title>
<g id="a_node20"><a xlink:href="structvisioncpp_1_1internal_1_1LocalOutput_3_01false_00_01IsRoot_00_01LC_00_01LR_00_01LeafNode_3fe8871ad58f0f38f156e00013cb5a346.html#a91a60c0bce9205340862fff96887fd4e" target="_top" xlink:title="visioncpp::internal\l::LocalOutput\&lt; false,\l IsRoot, LC, LR, LeafNode\l\&lt; VisionMemory\&lt; in, element\l_category, Memory_Type, Scalar,\l Width, Height, ElementTp, Elements,\l scope::Constant, LVL \&gt;, LVL \&gt; \&gt;::getTuple">
<polygon fill="none" stroke="black" points="164.5,-239.5 164.5,-324.5 373.5,-324.5 373.5,-239.5 164.5,-239.5"/>
<text text-anchor="start" x="172.5" y="-312.5" font-family="Helvetica,sans-Serif" font-size="10.00">visioncpp::internal</text>
<text text-anchor="start" x="172.5" y="-301.5" font-family="Helvetica,sans-Serif" font-size="10.00">::LocalOutput&lt; false,</text>
<text text-anchor="start" x="172.5" y="-290.5" font-family="Helvetica,sans-Serif" font-size="10.00"> IsRoot, LC, LR, LeafNode</text>
<text text-anchor="start" x="172.5" y="-279.5" font-family="Helvetica,sans-Serif" font-size="10.00">&lt; VisionMemory&lt; in, element</text>
<text text-anchor="start" x="172.5" y="-268.5" font-family="Helvetica,sans-Serif" font-size="10.00">_category, Memory_Type, Scalar,</text>
<text text-anchor="start" x="172.5" y="-257.5" font-family="Helvetica,sans-Serif" font-size="10.00"> Width, Height, ElementTp, Elements,</text>
<text text-anchor="middle" x="269" y="-246.5" font-family="Helvetica,sans-Serif" font-size="10.00"> scope::Constant, LVL &gt;, LVL &gt; &gt;::getTuple</text>
</a>
</g>
</g>
<!-- Node1&#45;&gt;Node20 -->
<g id="edge25" class="edge"><title>Node1&#45;&gt;Node20</title>
<path fill="none" stroke="midnightblue" d="M74.0587,-481.947C88.2913,-445.559 118.991,-377.772 164,-335 167.819,-331.37 171.936,-327.931 176.249,-324.682"/>
<polygon fill="midnightblue" stroke="midnightblue" points="70.6134,-481.16 70.3274,-491.751 77.1556,-483.65 70.6134,-481.16"/>
</g>
<!-- Node21 -->
<g id="node21" class="node"><title>Node21</title>
<g id="a_node21"><a xlink:href="structvisioncpp_1_1pixel_1_1Storage.html#ae91c1900df1049beff6274a9f9ab1251" target="_top" xlink:title="visioncpp::pixel::Storage\l::Storage">
<polygon fill="none" stroke="black" points="207,-190 207,-220 331,-220 331,-190 207,-190"/>
<text text-anchor="start" x="215" y="-208" font-family="Helvetica,sans-Serif" font-size="10.00">visioncpp::pixel::Storage</text>
<text text-anchor="middle" x="269" y="-197" font-family="Helvetica,sans-Serif" font-size="10.00">::Storage</text>
</a>
</g>
</g>
<!-- Node1&#45;&gt;Node21 -->
<g id="edge26" class="edge"><title>Node1&#45;&gt;Node21</title>
<path fill="none" stroke="midnightblue" d="M66.3352,-481.47C70.6262,-426.754 88.6387,-297.677 164,-230 175.813,-219.392 191.336,-213.081 206.773,-209.38"/>
<polygon fill="midnightblue" stroke="midnightblue" points="62.8278,-481.458 65.6295,-491.675 69.8111,-481.941 62.8278,-481.458"/>
</g>
<!-- Node3 -->
<g id="node3" class="node"><title>Node3</title>
<g id="a_node3"><a xlink:href="namespacevisioncpp_1_1internal_1_1tools_1_1tuple.html#a047c9626073a7719080ae711a7fbcd12" target="_top" xlink:title="append ">
<polygon fill="none" stroke="black" points="416,-629 416,-659 524,-659 524,-629 416,-629"/>
<text text-anchor="start" x="424" y="-647" font-family="Helvetica,sans-Serif" font-size="10.00">visioncpp::internal</text>
<text text-anchor="middle" x="470" y="-636" font-family="Helvetica,sans-Serif" font-size="10.00">::tools::tuple::append</text>
</a>
</g>
</g>
<!-- Node2&#45;&gt;Node3 -->
<g id="edge2" class="edge"><title>Node2&#45;&gt;Node3</title>
<path fill="none" stroke="midnightblue" d="M344.914,-644C368.456,-644 393.957,-644 415.683,-644"/>
<polygon fill="midnightblue" stroke="midnightblue" points="344.61,-640.5 334.61,-644 344.61,-647.5 344.61,-640.5"/>
</g>
<!-- Node3&#45;&gt;Node4 -->
<g id="edge3" class="edge"><title>Node3&#45;&gt;Node4</title>
<path fill="none" stroke="midnightblue" d="M478.241,-669.323C499.505,-743.538 560.622,-955.657 566,-961 579.535,-974.445 598.561,-982.122 616.766,-986.483"/>
<polygon fill="midnightblue" stroke="midnightblue" points="481.521,-668.065 475.404,-659.415 474.792,-669.992 481.521,-668.065"/>
</g>
<!-- Node5 -->
<g id="node5" class="node"><title>Node5</title>
<g id="a_node5"><a xlink:href="classvisioncpp_1_1internal_1_1Device___3_01backend_1_1sycl_00_01dv_01_4.html#a9ffe0526cc128163653426e6ab12b7a8" target="_top" xlink:title="visioncpp::internal\l::Device_\&lt; backend::\lsycl, dv \&gt;::execute">
<polygon fill="none" stroke="black" points="618,-911.5 618,-952.5 728,-952.5 728,-911.5 618,-911.5"/>
<text text-anchor="start" x="626" y="-940.5" font-family="Helvetica,sans-Serif" font-size="10.00">visioncpp::internal</text>
<text text-anchor="start" x="626" y="-929.5" font-family="Helvetica,sans-Serif" font-size="10.00">::Device_&lt; backend::</text>
<text text-anchor="middle" x="673" y="-918.5" font-family="Helvetica,sans-Serif" font-size="10.00">sycl, dv &gt;::execute</text>
</a>
</g>
</g>
<!-- Node3&#45;&gt;Node5 -->
<g id="edge4" class="edge"><title>Node3&#45;&gt;Node5</title>
<path fill="none" stroke="midnightblue" d="M477.223,-669.166C492.056,-727.257 530.879,-868.24 566,-901 580.091,-914.144 599.455,-921.745 617.78,-926.13"/>
<polygon fill="midnightblue" stroke="midnightblue" points="480.581,-668.167 474.739,-659.328 473.794,-669.881 480.581,-668.167"/>
</g>
<!-- Node6 -->
<g id="node6" class="node"><title>Node6</title>
<g id="a_node6"><a xlink:href="structvisioncpp_1_1internal_1_1ExtractAccessor_3_01expr__category_1_1Binary_00_01Expr_01_4.html#a5d116934fc21c31523d1e3c8e2becc94" target="_top" xlink:title="visioncpp::internal\l::ExtractAccessor\&lt; expr\l_category::Binary, Expr\l \&gt;::getTuple">
<polygon fill="none" stroke="black" points="611.5,-840 611.5,-892 734.5,-892 734.5,-840 611.5,-840"/>
<text text-anchor="start" x="619.5" y="-880" font-family="Helvetica,sans-Serif" font-size="10.00">visioncpp::internal</text>
<text text-anchor="start" x="619.5" y="-869" font-family="Helvetica,sans-Serif" font-size="10.00">::ExtractAccessor&lt; expr</text>
<text text-anchor="start" x="619.5" y="-858" font-family="Helvetica,sans-Serif" font-size="10.00">_category::Binary, Expr</text>
<text text-anchor="middle" x="673" y="-847" font-family="Helvetica,sans-Serif" font-size="10.00"> &gt;::getTuple</text>
</a>
</g>
</g>
<!-- Node3&#45;&gt;Node6 -->
<g id="edge5" class="edge"><title>Node3&#45;&gt;Node6</title>
<path fill="none" stroke="midnightblue" d="M477.165,-668.879C488.251,-708.551 515.268,-786.13 566,-830 578.863,-841.123 595.317,-848.849 611.403,-854.199"/>
<polygon fill="midnightblue" stroke="midnightblue" points="480.541,-667.954 474.569,-659.203 473.78,-669.768 480.541,-667.954"/>
</g>
<!-- Node7 -->
<g id="node7" class="node"><title>Node7</title>
<g id="a_node7"><a xlink:href="structvisioncpp_1_1internal_1_1ExtractAccessor_3_01expr__category_1_1Binary_00_01Assign_3_01LHSEfc4abae0aea7202de83232c2cd152bfb.html#aa4086a76436635bb7049586e7110310c" target="_top" xlink:title="visioncpp::internal\l::ExtractAccessor\&lt; expr\l_category::Binary, Assign\l\&lt; LHSExpr, RHSExpr, Cols,\l Rows, LeafType, LVL \&gt; \&gt;::\lgetTuple">
<polygon fill="none" stroke="black" points="601.5,-747 601.5,-821 744.5,-821 744.5,-747 601.5,-747"/>
<text text-anchor="start" x="609.5" y="-809" font-family="Helvetica,sans-Serif" font-size="10.00">visioncpp::internal</text>
<text text-anchor="start" x="609.5" y="-798" font-family="Helvetica,sans-Serif" font-size="10.00">::ExtractAccessor&lt; expr</text>
<text text-anchor="start" x="609.5" y="-787" font-family="Helvetica,sans-Serif" font-size="10.00">_category::Binary, Assign</text>
<text text-anchor="start" x="609.5" y="-776" font-family="Helvetica,sans-Serif" font-size="10.00">&lt; LHSExpr, RHSExpr, Cols,</text>
<text text-anchor="start" x="609.5" y="-765" font-family="Helvetica,sans-Serif" font-size="10.00"> Rows, LeafType, LVL &gt; &gt;::</text>
<text text-anchor="middle" x="673" y="-754" font-family="Helvetica,sans-Serif" font-size="10.00">getTuple</text>
</a>
</g>
</g>
<!-- Node3&#45;&gt;Node7 -->
<g id="edge6" class="edge"><title>Node3&#45;&gt;Node7</title>
<path fill="none" stroke="midnightblue" d="M490.046,-666.828C508,-687.255 536.491,-716.983 566,-737 576.912,-744.402 589.179,-751.093 601.394,-756.953"/>
<polygon fill="midnightblue" stroke="midnightblue" points="492.663,-664.504 483.475,-659.23 487.368,-669.083 492.663,-664.504"/>
</g>
<!-- Node8 -->
<g id="node8" class="node"><title>Node8</title>
<g id="a_node8"><a xlink:href="structvisioncpp_1_1internal_1_1ExtractAccessor_3_01expr__category_1_1Binary_00_01ParallelCopy_3_72ed56ce6c8a26655ece6832b967cb17.html#ab943e0d7457334ea1861bc3f0155cf74" target="_top" xlink:title="visioncpp::internal\l::ExtractAccessor\&lt; expr\l_category::Binary, ParallelCopy\l\&lt; LHSExpr, RHSExpr, Cols, Rows,\l OffsetColIn, OffsetRowIn, OffsetColOut,\l OffsetRowOut, LeafType, LVL \&gt; \&gt;::getTuple">
<polygon fill="none" stroke="black" points="566,-654 566,-728 780,-728 780,-654 566,-654"/>
<text text-anchor="start" x="574" y="-716" font-family="Helvetica,sans-Serif" font-size="10.00">visioncpp::internal</text>
<text text-anchor="start" x="574" y="-705" font-family="Helvetica,sans-Serif" font-size="10.00">::ExtractAccessor&lt; expr</text>
<text text-anchor="start" x="574" y="-694" font-family="Helvetica,sans-Serif" font-size="10.00">_category::Binary, ParallelCopy</text>
<text text-anchor="start" x="574" y="-683" font-family="Helvetica,sans-Serif" font-size="10.00">&lt; LHSExpr, RHSExpr, Cols, Rows,</text>
<text text-anchor="start" x="574" y="-672" font-family="Helvetica,sans-Serif" font-size="10.00"> OffsetColIn, OffsetRowIn, OffsetColOut,</text>
<text text-anchor="middle" x="673" y="-661" font-family="Helvetica,sans-Serif" font-size="10.00"> OffsetRowOut, LeafType, LVL &gt; &gt;::getTuple</text>
</a>
</g>
</g>
<!-- Node3&#45;&gt;Node8 -->
<g id="edge7" class="edge"><title>Node3&#45;&gt;Node8</title>
<path fill="none" stroke="midnightblue" d="M533.991,-658.729C544.126,-661.099 554.855,-663.608 565.675,-666.138"/>
<polygon fill="midnightblue" stroke="midnightblue" points="534.608,-655.279 524.073,-656.41 533.014,-662.095 534.608,-655.279"/>
</g>
<!-- Node9 -->
<g id="node9" class="node"><title>Node9</title>
<g id="a_node9"><a xlink:href="structvisioncpp_1_1internal_1_1LocalOutput_3_01false_00_01IsRoot_00_01LC_00_01LR_00_01RUnOP_3_01222dc31e6f7adbfd1b3ba76b431263e2.html#a17c779f1e6fa85ef39237eb5db93cec8" target="_top" xlink:title="visioncpp::internal\l::LocalOutput\&lt; false,\l IsRoot, LC, LR, RUnOP\l\&lt; OP, RHSExpr, Cols, Rows,\l LeafType, LVL \&gt; \&gt;::getTuple">
<polygon fill="none" stroke="black" points="598.5,-396.5 598.5,-459.5 747.5,-459.5 747.5,-396.5 598.5,-396.5"/>
<text text-anchor="start" x="606.5" y="-447.5" font-family="Helvetica,sans-Serif" font-size="10.00">visioncpp::internal</text>
<text text-anchor="start" x="606.5" y="-436.5" font-family="Helvetica,sans-Serif" font-size="10.00">::LocalOutput&lt; false,</text>
<text text-anchor="start" x="606.5" y="-425.5" font-family="Helvetica,sans-Serif" font-size="10.00"> IsRoot, LC, LR, RUnOP</text>
<text text-anchor="start" x="606.5" y="-414.5" font-family="Helvetica,sans-Serif" font-size="10.00">&lt; OP, RHSExpr, Cols, Rows,</text>
<text text-anchor="middle" x="673" y="-403.5" font-family="Helvetica,sans-Serif" font-size="10.00"> LeafType, LVL &gt; &gt;::getTuple</text>
</a>
</g>
</g>
<!-- Node3&#45;&gt;Node9 -->
<g id="edge8" class="edge"><title>Node3&#45;&gt;Node9</title>
<path fill="none" stroke="midnightblue" d="M478.309,-619.22C490.558,-581.747 518.658,-510.628 566,-469 575.409,-460.726 586.673,-454.035 598.291,-448.649"/>
<polygon fill="midnightblue" stroke="midnightblue" points="474.943,-618.255 475.271,-628.845 481.619,-620.362 474.943,-618.255"/>
</g>
<!-- Node10 -->
<g id="node10" class="node"><title>Node10</title>
<g id="a_node10"><a xlink:href="structvisioncpp_1_1internal_1_1LocalOutput_3_01false_00_01IsRoot_00_01LC_00_01LR_00_01RBiOP_3_012aff2f4a38a6baec8f8e4876a21ac04d.html#af800e26ee624f9e5e3b021015a89f457" target="_top" xlink:title="visioncpp::internal\l::LocalOutput\&lt; false,\l IsRoot, LC, LR, RBiOP\l\&lt; OP, LHSExpr, RHSExpr,\l Cols, Rows, LeafType, LVL\l \&gt; \&gt;::getTuple">
<polygon fill="none" stroke="black" points="602.5,-303 602.5,-377 743.5,-377 743.5,-303 602.5,-303"/>
<text text-anchor="start" x="610.5" y="-365" font-family="Helvetica,sans-Serif" font-size="10.00">visioncpp::internal</text>
<text text-anchor="start" x="610.5" y="-354" font-family="Helvetica,sans-Serif" font-size="10.00">::LocalOutput&lt; false,</text>
<text text-anchor="start" x="610.5" y="-343" font-family="Helvetica,sans-Serif" font-size="10.00"> IsRoot, LC, LR, RBiOP</text>
<text text-anchor="start" x="610.5" y="-332" font-family="Helvetica,sans-Serif" font-size="10.00">&lt; OP, LHSExpr, RHSExpr,</text>
<text text-anchor="start" x="610.5" y="-321" font-family="Helvetica,sans-Serif" font-size="10.00"> Cols, Rows, LeafType, LVL</text>
<text text-anchor="middle" x="673" y="-310" font-family="Helvetica,sans-Serif" font-size="10.00"> &gt; &gt;::getTuple</text>
</a>
</g>
</g>
<!-- Node3&#45;&gt;Node10 -->
<g id="edge9" class="edge"><title>Node3&#45;&gt;Node10</title>
<path fill="none" stroke="midnightblue" d="M473.779,-618.837C480.586,-568.555 502.459,-454.695 566,-387 576.057,-376.285 588.998,-367.86 602.36,-361.289"/>
<polygon fill="midnightblue" stroke="midnightblue" points="470.297,-618.474 472.514,-628.835 477.242,-619.353 470.297,-618.474"/>
</g>
<!-- Node11 -->
<g id="node11" class="node"><title>Node11</title>
<g id="a_node11"><a xlink:href="structvisioncpp_1_1internal_1_1LocalOutput_3_01false_00_01IsRoot_00_01LC_00_01LR_00_01StnFilt_3_78467c599a542dd94fd0a9e3d6a02a30.html#a50566348e971a8dd50644cbdec9725e5" target="_top" xlink:title="visioncpp::internal\l::LocalOutput\&lt; false,\l IsRoot, LC, LR, StnFilt\l\&lt; OP, Halo_T, Halo_L, Halo\l_B, Halo_R, LHSExpr, RHSExpr,\l Cols, Rows, LeafType, LVL \&gt;\l \&gt;::getTuple">
<polygon fill="none" stroke="black" points="591,-198.5 591,-283.5 755,-283.5 755,-198.5 591,-198.5"/>
<text text-anchor="start" x="599" y="-271.5" font-family="Helvetica,sans-Serif" font-size="10.00">visioncpp::internal</text>
<text text-anchor="start" x="599" y="-260.5" font-family="Helvetica,sans-Serif" font-size="10.00">::LocalOutput&lt; false,</text>
<text text-anchor="start" x="599" y="-249.5" font-family="Helvetica,sans-Serif" font-size="10.00"> IsRoot, LC, LR, StnFilt</text>
<text text-anchor="start" x="599" y="-238.5" font-family="Helvetica,sans-Serif" font-size="10.00">&lt; OP, Halo_T, Halo_L, Halo</text>
<text text-anchor="start" x="599" y="-227.5" font-family="Helvetica,sans-Serif" font-size="10.00">_B, Halo_R, LHSExpr, RHSExpr,</text>
<text text-anchor="start" x="599" y="-216.5" font-family="Helvetica,sans-Serif" font-size="10.00"> Cols, Rows, LeafType, LVL &gt;</text>
<text text-anchor="middle" x="673" y="-205.5" font-family="Helvetica,sans-Serif" font-size="10.00"> &gt;::getTuple</text>
</a>
</g>
</g>
<!-- Node3&#45;&gt;Node11 -->
<g id="edge10" class="edge"><title>Node3&#45;&gt;Node11</title>
<path fill="none" stroke="midnightblue" d="M477.246,-618.772C496.676,-540.615 555.381,-306.969 566,-294 572.908,-285.563 581.5,-278.347 590.781,-272.21"/>
<polygon fill="midnightblue" stroke="midnightblue" points="473.787,-618.18 474.775,-628.729 480.581,-619.867 473.787,-618.18"/>
</g>
<!-- Node12 -->
<g id="node12" class="node"><title>Node12</title>
<g id="a_node12"><a xlink:href="structvisioncpp_1_1internal_1_1LocalOutput_3_01false_00_01IsRoot_00_01LC_00_01LR_00_01StnNoFilt_d45bb2f039daef54effcd1874753b2c3.html#a7ca4ad4544d257ccaa61badc635beb37" target="_top" xlink:title="visioncpp::internal\l::LocalOutput\&lt; false,\l IsRoot, LC, LR, StnNoFilt\l\&lt; OP, Halo_T, Halo_L, Halo\l_B, Halo_R, RHSExpr, Cols,\l Rows, LeafType, LVL \&gt; \&gt;::getTuple">
<polygon fill="none" stroke="black" points="585,-561 585,-635 761,-635 761,-561 585,-561"/>
<text text-anchor="start" x="593" y="-623" font-family="Helvetica,sans-Serif" font-size="10.00">visioncpp::internal</text>
<text text-anchor="start" x="593" y="-612" font-family="Helvetica,sans-Serif" font-size="10.00">::LocalOutput&lt; false,</text>
<text text-anchor="start" x="593" y="-601" font-family="Helvetica,sans-Serif" font-size="10.00"> IsRoot, LC, LR, StnNoFilt</text>
<text text-anchor="start" x="593" y="-590" font-family="Helvetica,sans-Serif" font-size="10.00">&lt; OP, Halo_T, Halo_L, Halo</text>
<text text-anchor="start" x="593" y="-579" font-family="Helvetica,sans-Serif" font-size="10.00">_B, Halo_R, RHSExpr, Cols,</text>
<text text-anchor="middle" x="673" y="-568" font-family="Helvetica,sans-Serif" font-size="10.00"> Rows, LeafType, LVL &gt; &gt;::getTuple</text>
</a>
</g>
</g>
<!-- Node3&#45;&gt;Node12 -->
<g id="edge11" class="edge"><title>Node3&#45;&gt;Node12</title>
<path fill="none" stroke="midnightblue" d="M533.9,-629.605C550.025,-625.915 567.659,-621.879 584.77,-617.963"/>
<polygon fill="midnightblue" stroke="midnightblue" points="533.04,-626.211 524.073,-631.854 534.602,-633.035 533.04,-626.211"/>
</g>
<!-- Node13 -->
<g id="node13" class="node"><title>Node13</title>
<g id="a_node13"><a xlink:href="structvisioncpp_1_1internal_1_1LocalOutput_3_01false_00_01IsRoot_00_01LC_00_01LR_00_01RDCN_3_01O985b5cf5bfc049f9ae66cfbe725d4e32.html#a85cc60fe30b8670638b13c098a889ad6" target="_top" xlink:title="visioncpp::internal\l::LocalOutput\&lt; false,\l IsRoot, LC, LR, RDCN\l\&lt; OP, RHSExpr, Cols, Rows,\l LeafType, LVL \&gt; \&gt;::getTuple">
<polygon fill="none" stroke="black" points="598.5,-478.5 598.5,-541.5 747.5,-541.5 747.5,-478.5 598.5,-478.5"/>
<text text-anchor="start" x="606.5" y="-529.5" font-family="Helvetica,sans-Serif" font-size="10.00">visioncpp::internal</text>
<text text-anchor="start" x="606.5" y="-518.5" font-family="Helvetica,sans-Serif" font-size="10.00">::LocalOutput&lt; false,</text>
<text text-anchor="start" x="606.5" y="-507.5" font-family="Helvetica,sans-Serif" font-size="10.00"> IsRoot, LC, LR, RDCN</text>
<text text-anchor="start" x="606.5" y="-496.5" font-family="Helvetica,sans-Serif" font-size="10.00">&lt; OP, RHSExpr, Cols, Rows,</text>
<text text-anchor="middle" x="673" y="-485.5" font-family="Helvetica,sans-Serif" font-size="10.00"> LeafType, LVL &gt; &gt;::getTuple</text>
</a>
</g>
</g>
<!-- Node3&#45;&gt;Node13 -->
<g id="edge12" class="edge"><title>Node3&#45;&gt;Node13</title>
<path fill="none" stroke="midnightblue" d="M489.908,-621.152C507.77,-600.763 536.201,-571.24 566,-552 575.978,-545.558 587.101,-539.828 598.285,-534.831"/>
<polygon fill="midnightblue" stroke="midnightblue" points="487.246,-618.88 483.376,-628.743 492.552,-623.446 487.246,-618.88"/>
</g>
<!-- Node16&#45;&gt;Node9 -->
<g id="edge17" class="edge"><title>Node16&#45;&gt;Node9</title>
<path fill="none" stroke="midnightblue" d="M539.673,-399.033C558.543,-403.164 579.082,-407.66 598.226,-411.851"/>
<polygon fill="midnightblue" stroke="midnightblue" points="540.195,-395.564 529.678,-396.845 538.698,-402.402 540.195,-395.564"/>
</g>
<!-- Node16&#45;&gt;Node10 -->
<g id="edge18" class="edge"><title>Node16&#45;&gt;Node10</title>
<path fill="none" stroke="midnightblue" d="M539.448,-369.016C559.703,-364.583 581.897,-359.724 602.233,-355.272"/>
<polygon fill="midnightblue" stroke="midnightblue" points="538.698,-365.598 529.678,-371.155 540.195,-372.436 538.698,-365.598"/>
</g>
<!-- Node16&#45;&gt;Node11 -->
<g id="edge19" class="edge"><title>Node16&#45;&gt;Node11</title>
<path fill="none" stroke="midnightblue" d="M491.275,-361.337C509.508,-341.844 537.706,-313.818 566,-294 573.836,-288.511 582.323,-283.268 590.966,-278.362"/>
<polygon fill="midnightblue" stroke="midnightblue" points="488.539,-359.14 484.331,-368.864 493.684,-363.886 488.539,-359.14"/>
</g>
<!-- Node16&#45;&gt;Node12 -->
<g id="edge20" class="edge"><title>Node16&#45;&gt;Node12</title>
<path fill="none" stroke="midnightblue" d="M479.329,-408.64C492.531,-444.364 521.427,-510.669 566,-551 571.747,-556.2 578.163,-560.899 584.916,-565.13"/>
<polygon fill="midnightblue" stroke="midnightblue" points="482.546,-407.242 475.878,-399.009 475.956,-409.603 482.546,-407.242"/>
</g>
<!-- Node16&#45;&gt;Node13 -->
<g id="edge21" class="edge"><title>Node16&#45;&gt;Node13</title>
<path fill="none" stroke="midnightblue" d="M491.633,-406.547C509.755,-425.286 537.596,-451.605 566,-469 576.096,-475.183 587.282,-480.72 598.493,-485.574"/>
<polygon fill="midnightblue" stroke="midnightblue" points="493.913,-403.866 484.487,-399.028 488.839,-408.688 493.913,-403.866"/>
</g>
<!-- Node17 -->
<g id="node17" class="node"><title>Node17</title>
<g id="a_node17"><a xlink:href="structvisioncpp_1_1internal_1_1LocalOutput_3_01false_00_01IsRoot_00_01LC_00_01LR_00_01ParallelCo0635c30aec900fbff57bf53b317d8606.html#a9c82dc26017dc8a4ab0af214d0686e90" target="_top" xlink:title="visioncpp::internal\l::LocalOutput\&lt; false,\l IsRoot, LC, LR, ParallelCopy\l\&lt; LHSExpr, RHSExpr, Cols,\l Rows, OffsetColIn, OffsetRowIn,\l OffsetColOut, OffsetRowOut, LeafType,\l LVL \&gt; \&gt;::getTuple">
<polygon fill="none" stroke="black" points="575,-94.5 575,-179.5 771,-179.5 771,-94.5 575,-94.5"/>
<text text-anchor="start" x="583" y="-167.5" font-family="Helvetica,sans-Serif" font-size="10.00">visioncpp::internal</text>
<text text-anchor="start" x="583" y="-156.5" font-family="Helvetica,sans-Serif" font-size="10.00">::LocalOutput&lt; false,</text>
<text text-anchor="start" x="583" y="-145.5" font-family="Helvetica,sans-Serif" font-size="10.00"> IsRoot, LC, LR, ParallelCopy</text>
<text text-anchor="start" x="583" y="-134.5" font-family="Helvetica,sans-Serif" font-size="10.00">&lt; LHSExpr, RHSExpr, Cols,</text>
<text text-anchor="start" x="583" y="-123.5" font-family="Helvetica,sans-Serif" font-size="10.00"> Rows, OffsetColIn, OffsetRowIn,</text>
<text text-anchor="start" x="583" y="-112.5" font-family="Helvetica,sans-Serif" font-size="10.00"> OffsetColOut, OffsetRowOut, LeafType,</text>
<text text-anchor="middle" x="673" y="-101.5" font-family="Helvetica,sans-Serif" font-size="10.00"> LVL &gt; &gt;::getTuple</text>
</a>
</g>
</g>
<!-- Node16&#45;&gt;Node17 -->
<g id="edge22" class="edge"><title>Node16&#45;&gt;Node17</title>
<path fill="none" stroke="midnightblue" d="M477.436,-358.987C488.972,-318.569 516.691,-238.444 566,-189 569.329,-185.662 572.916,-182.504 576.686,-179.52"/>
<polygon fill="midnightblue" stroke="midnightblue" points="474.009,-358.25 474.728,-368.821 480.757,-360.109 474.009,-358.25"/>
</g>
<!-- Node18 -->
<g id="node18" class="node"><title>Node18</title>
<g id="a_node18"><a xlink:href="structvisioncpp_1_1internal_1_1LocalOutput_3_01false_00_01IsRoot_00_01LC_00_01LR_00_01Assign_3_06265906cf16848ff64f1f1331ad98423.html#aa583c6c4056fc0f4273b5f7eff7603ed" target="_top" xlink:title="visioncpp::internal\l::LocalOutput\&lt; false,\l IsRoot, LC, LR, Assign\l\&lt; LHSExpr, RHSExpr, Cols,\l Rows, LeafType, LVL \&gt; \&gt;\l::getTuple">
<polygon fill="none" stroke="black" points="601.5,-1 601.5,-75 744.5,-75 744.5,-1 601.5,-1"/>
<text text-anchor="start" x="609.5" y="-63" font-family="Helvetica,sans-Serif" font-size="10.00">visioncpp::internal</text>
<text text-anchor="start" x="609.5" y="-52" font-family="Helvetica,sans-Serif" font-size="10.00">::LocalOutput&lt; false,</text>
<text text-anchor="start" x="609.5" y="-41" font-family="Helvetica,sans-Serif" font-size="10.00"> IsRoot, LC, LR, Assign</text>
<text text-anchor="start" x="609.5" y="-30" font-family="Helvetica,sans-Serif" font-size="10.00">&lt; LHSExpr, RHSExpr, Cols,</text>
<text text-anchor="start" x="609.5" y="-19" font-family="Helvetica,sans-Serif" font-size="10.00"> Rows, LeafType, LVL &gt; &gt;</text>
<text text-anchor="middle" x="673" y="-8" font-family="Helvetica,sans-Serif" font-size="10.00">::getTuple</text>
</a>
</g>
</g>
<!-- Node16&#45;&gt;Node18 -->
<g id="edge23" class="edge"><title>Node16&#45;&gt;Node18</title>
<path fill="none" stroke="midnightblue" d="M472.233,-358.721C476.269,-302.564 493.425,-166.008 566,-85 575.672,-74.2046 588.288,-65.7639 601.427,-59.2072"/>
<polygon fill="midnightblue" stroke="midnightblue" points="468.731,-358.638 471.588,-368.84 475.717,-359.083 468.731,-358.638"/>
</g>
</g>
</svg>
