<?xml version="1.0" encoding="UTF-8" standalone="no"?>
<!DOCTYPE svg PUBLIC "-//W3C//DTD SVG 1.1//EN"
 "http://www.w3.org/Graphics/SVG/1.1/DTD/svg11.dtd">
<!-- Generated by graphviz version 2.43.0 (0)
 -->
<!-- Title: visioncpp::internal::tools::tuple::append Pages: 1 -->
<svg width="392pt" height="824pt"
 viewBox="0.00 0.00 392.00 824.00" xmlns="http://www.w3.org/2000/svg" xmlns:xlink="http://www.w3.org/1999/xlink">
<g id="graph0" class="graph" transform="scale(1 1) rotate(0) translate(4 820)">
<title>visioncpp::internal::tools::tuple::append</title>
<!-- Node1 -->
<g id="node1" class="node">
<title>Node1</title>
<g id="a_node1"><a xlink:title="append">
<polygon fill="#bfbfbf" stroke="black" points="265,-435 265,-465 384,-465 384,-435 265,-435"/>
<text text-anchor="start" x="273" y="-453" font-family="Helvetica,sans-Serif" font-size="10.00">visioncpp::internal</text>
<text text-anchor="middle" x="324.5" y="-442" font-family="Helvetica,sans-Serif" font-size="10.00">::tools::tuple::append</text>
</a>
</g>
</g>
<!-- Node2 -->
<g id="node2" class="node">
<title>Node2</title>
<g id="a_node2"><a xlink:href="structvisioncpp_1_1internal_1_1CreatePyramidTuple.html#aff671884b9830eef220597855a3004bf" target="_top" xlink:title="create_tuple function:">
<polygon fill="none" stroke="black" points="54,-774.5 54,-815.5 175,-815.5 175,-774.5 54,-774.5"/>
<text text-anchor="start" x="62" y="-803.5" font-family="Helvetica,sans-Serif" font-size="10.00">visioncpp::internal</text>
<text text-anchor="start" x="62" y="-792.5" font-family="Helvetica,sans-Serif" font-size="10.00">::CreatePyramidTuple</text>
<text text-anchor="middle" x="114.5" y="-781.5" font-family="Helvetica,sans-Serif" font-size="10.00">::create_tuple</text>
</a>
</g>
</g>
<!-- Node1&#45;&gt;Node2 -->
<g id="edge1" class="edge">
<title>Node1&#45;&gt;Node2</title>
<path fill="none" stroke="midnightblue" d="M323.72,-475.45C322.8,-535.07 311.88,-684.81 229,-765 214.57,-778.96 194.44,-786.62 175.14,-790.76"/>
<polygon fill="midnightblue" stroke="midnightblue" points="327.23,-475.11 323.79,-465.08 320.23,-475.06 327.23,-475.11"/>
</g>
<!-- Node3 -->
<g id="node3" class="node">
<title>Node3</title>
<g id="a_node3"><a xlink:href="classvisioncpp_1_1internal_1_1Device___3_01backend_1_1sycl_00_01dv_01_4.html#afcdfa0256e3cae4ed2702b6c79d02e8c" target="_top" xlink:title=" ">
<polygon fill="none" stroke="black" points="55,-714.5 55,-755.5 174,-755.5 174,-714.5 55,-714.5"/>
<text text-anchor="start" x="63" y="-743.5" font-family="Helvetica,sans-Serif" font-size="10.00">visioncpp::internal</text>
<text text-anchor="start" x="63" y="-732.5" font-family="Helvetica,sans-Serif" font-size="10.00">::Device_&lt; backend::</text>
<text text-anchor="middle" x="114.5" y="-721.5" font-family="Helvetica,sans-Serif" font-size="10.00">sycl, dv &gt;::execute</text>
</a>
</g>
</g>
<!-- Node1&#45;&gt;Node3 -->
<g id="edge2" class="edge">
<title>Node1&#45;&gt;Node3</title>
<path fill="none" stroke="midnightblue" d="M321.62,-475.49C316.44,-526.79 297.39,-642.91 229,-705 213.99,-718.63 193.5,-726.2 174.06,-730.36"/>
<polygon fill="midnightblue" stroke="midnightblue" points="325.13,-475.56 322.55,-465.29 318.16,-474.93 325.13,-475.56"/>
</g>
<!-- Node4 -->
<g id="node4" class="node">
<title>Node4</title>
<g id="a_node4"><a xlink:href="structvisioncpp_1_1internal_1_1ExtractAccessor_3_01expr__category_1_1Binary_00_01Expr_01_4.html#a5d116934fc21c31523d1e3c8e2becc94" target="_top" xlink:title=" ">
<polygon fill="none" stroke="black" points="47.5,-643 47.5,-695 181.5,-695 181.5,-643 47.5,-643"/>
<text text-anchor="start" x="55.5" y="-683" font-family="Helvetica,sans-Serif" font-size="10.00">visioncpp::internal</text>
<text text-anchor="start" x="55.5" y="-672" font-family="Helvetica,sans-Serif" font-size="10.00">::ExtractAccessor&lt; expr</text>
<text text-anchor="start" x="55.5" y="-661" font-family="Helvetica,sans-Serif" font-size="10.00">_category::Binary, Expr</text>
<text text-anchor="middle" x="114.5" y="-650" font-family="Helvetica,sans-Serif" font-size="10.00"> &gt;::getTuple</text>
</a>
</g>
</g>
<!-- Node1&#45;&gt;Node4 -->
<g id="edge3" class="edge">
<title>Node1&#45;&gt;Node4</title>
<path fill="none" stroke="midnightblue" d="M317.4,-475.03C306.47,-514.59 279.79,-591.41 229,-634 215.57,-645.26 198.54,-652.9 181.79,-658.09"/>
<polygon fill="midnightblue" stroke="midnightblue" points="320.84,-475.71 320.01,-465.15 314.07,-473.92 320.84,-475.71"/>
</g>
<!-- Node5 -->
<g id="node5" class="node">
<title>Node5</title>
<g id="a_node5"><a xlink:href="structvisioncpp_1_1internal_1_1ExtractAccessor_3_01expr__category_1_1Binary_00_01Assign_3_01LHSEfc4abae0aea7202de83232c2cd152bfb.html#aa4086a76436635bb7049586e7110310c" target="_top" xlink:title=" ">
<polygon fill="none" stroke="black" points="41.5,-550 41.5,-624 187.5,-624 187.5,-550 41.5,-550"/>
<text text-anchor="start" x="49.5" y="-612" font-family="Helvetica,sans-Serif" font-size="10.00">visioncpp::internal</text>
<text text-anchor="start" x="49.5" y="-601" font-family="Helvetica,sans-Serif" font-size="10.00">::ExtractAccessor&lt; expr</text>
<text text-anchor="start" x="49.5" y="-590" font-family="Helvetica,sans-Serif" font-size="10.00">_category::Binary, Assign</text>
<text text-anchor="start" x="49.5" y="-579" font-family="Helvetica,sans-Serif" font-size="10.00">&lt; LHSExpr, RHSExpr, Cols,</text>
<text text-anchor="start" x="49.5" y="-568" font-family="Helvetica,sans-Serif" font-size="10.00"> Rows, LeafType, LVL &gt; &gt;::</text>
<text text-anchor="middle" x="114.5" y="-557" font-family="Helvetica,sans-Serif" font-size="10.00">getTuple</text>
</a>
</g>
</g>
<!-- Node1&#45;&gt;Node5 -->
<g id="edge4" class="edge">
<title>Node1&#45;&gt;Node5</title>
<path fill="none" stroke="midnightblue" d="M304.39,-472.81C286.57,-492.92 258.38,-521.93 229,-541 216.25,-549.28 201.77,-556.52 187.52,-562.66"/>
<polygon fill="midnightblue" stroke="midnightblue" points="307.22,-474.89 311.15,-465.05 301.94,-470.29 307.22,-474.89"/>
</g>
<!-- Node6 -->
<g id="node6" class="node">
<title>Node6</title>
<g id="a_node6"><a xlink:href="structvisioncpp_1_1internal_1_1ExtractAccessor_3_01expr__category_1_1Binary_00_01ParallelCopy_3_72ed56ce6c8a26655ece6832b967cb17.html#ab943e0d7457334ea1861bc3f0155cf74" target="_top" xlink:title=" ">
<polygon fill="none" stroke="black" points="0,-457 0,-531 229,-531 229,-457 0,-457"/>
<text text-anchor="start" x="8" y="-519" font-family="Helvetica,sans-Serif" font-size="10.00">visioncpp::internal</text>
<text text-anchor="start" x="8" y="-508" font-family="Helvetica,sans-Serif" font-size="10.00">::ExtractAccessor&lt; expr</text>
<text text-anchor="start" x="8" y="-497" font-family="Helvetica,sans-Serif" font-size="10.00">_category::Binary, ParallelCopy</text>
<text text-anchor="start" x="8" y="-486" font-family="Helvetica,sans-Serif" font-size="10.00">&lt; LHSExpr, RHSExpr, Cols, Rows,</text>
<text text-anchor="start" x="8" y="-475" font-family="Helvetica,sans-Serif" font-size="10.00"> OffsetColIn, OffsetRowIn, OffsetColOut,</text>
<text text-anchor="middle" x="114.5" y="-464" font-family="Helvetica,sans-Serif" font-size="10.00"> OffsetRowOut, LeafType, LVL &gt; &gt;::getTuple</text>
</a>
</g>
</g>
<!-- Node1&#45;&gt;Node6 -->
<g id="edge5" class="edge">
<title>Node1&#45;&gt;Node6</title>
<path fill="none" stroke="midnightblue" d="M254.84,-464.52C246.58,-466.27 237.99,-468.09 229.3,-469.93"/>
<polygon fill="midnightblue" stroke="midnightblue" points="255.67,-467.93 264.73,-462.43 254.22,-461.08 255.67,-467.93"/>
</g>
<!-- Node7 -->
<g id="node7" class="node">
<title>Node7</title>
<g id="a_node7"><a xlink:href="structvisioncpp_1_1internal_1_1LocalOutput_3_01false_00_01IsRoot_00_01LC_00_01LR_00_01RUnOP_3_01222dc31e6f7adbfd1b3ba76b431263e2.html#a17c779f1e6fa85ef39237eb5db93cec8" target="_top" xlink:title=" ">
<polygon fill="none" stroke="black" points="37,-374.5 37,-437.5 192,-437.5 192,-374.5 37,-374.5"/>
<text text-anchor="start" x="45" y="-425.5" font-family="Helvetica,sans-Serif" font-size="10.00">visioncpp::internal</text>
<text text-anchor="start" x="45" y="-414.5" font-family="Helvetica,sans-Serif" font-size="10.00">::LocalOutput&lt; false,</text>
<text text-anchor="start" x="45" y="-403.5" font-family="Helvetica,sans-Serif" font-size="10.00"> IsRoot, LC, LR, RUnOP</text>
<text text-anchor="start" x="45" y="-392.5" font-family="Helvetica,sans-Serif" font-size="10.00">&lt; OP, RHSExpr, Cols, Rows,</text>
<text text-anchor="middle" x="114.5" y="-381.5" font-family="Helvetica,sans-Serif" font-size="10.00"> LeafType, LVL &gt; &gt;::getTuple</text>
</a>
</g>
</g>
<!-- Node1&#45;&gt;Node7 -->
<g id="edge6" class="edge">
<title>Node1&#45;&gt;Node7</title>
<path fill="none" stroke="midnightblue" d="M254.73,-435.45C234.64,-431.2 212.55,-426.53 192.01,-422.19"/>
<polygon fill="midnightblue" stroke="midnightblue" points="254.22,-438.92 264.73,-437.57 255.67,-432.07 254.22,-438.92"/>
</g>
<!-- Node8 -->
<g id="node8" class="node">
<title>Node8</title>
<g id="a_node8"><a xlink:href="structvisioncpp_1_1internal_1_1LocalOutput_3_01false_00_01IsRoot_00_01LC_00_01LR_00_01RBiOP_3_012aff2f4a38a6baec8f8e4876a21ac04d.html#af800e26ee624f9e5e3b021015a89f457" target="_top" xlink:title=" ">
<polygon fill="none" stroke="black" points="42,-281 42,-355 187,-355 187,-281 42,-281"/>
<text text-anchor="start" x="50" y="-343" font-family="Helvetica,sans-Serif" font-size="10.00">visioncpp::internal</text>
<text text-anchor="start" x="50" y="-332" font-family="Helvetica,sans-Serif" font-size="10.00">::LocalOutput&lt; false,</text>
<text text-anchor="start" x="50" y="-321" font-family="Helvetica,sans-Serif" font-size="10.00"> IsRoot, LC, LR, RBiOP</text>
<text text-anchor="start" x="50" y="-310" font-family="Helvetica,sans-Serif" font-size="10.00">&lt; OP, LHSExpr, RHSExpr,</text>
<text text-anchor="start" x="50" y="-299" font-family="Helvetica,sans-Serif" font-size="10.00"> Cols, Rows, LeafType, LVL</text>
<text text-anchor="middle" x="114.5" y="-288" font-family="Helvetica,sans-Serif" font-size="10.00"> &gt; &gt;::getTuple</text>
</a>
</g>
</g>
<!-- Node1&#45;&gt;Node8 -->
<g id="edge7" class="edge">
<title>Node1&#45;&gt;Node8</title>
<path fill="none" stroke="midnightblue" d="M302.58,-427.29C284.49,-408.67 256.93,-382.61 229,-365 216.1,-356.87 201.55,-349.61 187.28,-343.38"/>
<polygon fill="midnightblue" stroke="midnightblue" points="300.28,-429.95 309.72,-434.77 305.34,-425.12 300.28,-429.95"/>
</g>
<!-- Node9 -->
<g id="node9" class="node">
<title>Node9</title>
<g id="a_node9"><a xlink:href="structvisioncpp_1_1internal_1_1LocalOutput_3_01false_00_01IsRoot_00_01LC_00_01LR_00_01StnFilt_3_78467c599a542dd94fd0a9e3d6a02a30.html#a50566348e971a8dd50644cbdec9725e5" target="_top" xlink:title=" ">
<polygon fill="none" stroke="black" points="31,-176.5 31,-261.5 198,-261.5 198,-176.5 31,-176.5"/>
<text text-anchor="start" x="39" y="-249.5" font-family="Helvetica,sans-Serif" font-size="10.00">visioncpp::internal</text>
<text text-anchor="start" x="39" y="-238.5" font-family="Helvetica,sans-Serif" font-size="10.00">::LocalOutput&lt; false,</text>
<text text-anchor="start" x="39" y="-227.5" font-family="Helvetica,sans-Serif" font-size="10.00"> IsRoot, LC, LR, StnFilt</text>
<text text-anchor="start" x="39" y="-216.5" font-family="Helvetica,sans-Serif" font-size="10.00">&lt; OP, Halo_T, Halo_L, Halo</text>
<text text-anchor="start" x="39" y="-205.5" font-family="Helvetica,sans-Serif" font-size="10.00">_B, Halo_R, LHSExpr, RHSExpr,</text>
<text text-anchor="start" x="39" y="-194.5" font-family="Helvetica,sans-Serif" font-size="10.00"> Cols, Rows, LeafType, LVL &gt;</text>
<text text-anchor="middle" x="114.5" y="-183.5" font-family="Helvetica,sans-Serif" font-size="10.00"> &gt;::getTuple</text>
</a>
</g>
</g>
<!-- Node1&#45;&gt;Node9 -->
<g id="edge8" class="edge">
<title>Node1&#45;&gt;Node9</title>
<path fill="none" stroke="midnightblue" d="M316.02,-425.19C303.56,-387.6 275.25,-315.95 229,-272 219.93,-263.39 209.22,-255.97 198.04,-249.64"/>
<polygon fill="midnightblue" stroke="midnightblue" points="312.73,-426.39 319.12,-434.84 319.39,-424.25 312.73,-426.39"/>
</g>
<!-- Node10 -->
<g id="node10" class="node">
<title>Node10</title>
<g id="a_node10"><a xlink:href="structvisioncpp_1_1internal_1_1LocalOutput_3_01false_00_01IsRoot_00_01LC_00_01LR_00_01StnNoFilt_d45bb2f039daef54effcd1874753b2c3.html#a7ca4ad4544d257ccaa61badc635beb37" target="_top" xlink:title=" ">
<polygon fill="none" stroke="black" points="20.5,-83 20.5,-157 208.5,-157 208.5,-83 20.5,-83"/>
<text text-anchor="start" x="28.5" y="-145" font-family="Helvetica,sans-Serif" font-size="10.00">visioncpp::internal</text>
<text text-anchor="start" x="28.5" y="-134" font-family="Helvetica,sans-Serif" font-size="10.00">::LocalOutput&lt; false,</text>
<text text-anchor="start" x="28.5" y="-123" font-family="Helvetica,sans-Serif" font-size="10.00"> IsRoot, LC, LR, StnNoFilt</text>
<text text-anchor="start" x="28.5" y="-112" font-family="Helvetica,sans-Serif" font-size="10.00">&lt; OP, Halo_T, Halo_L, Halo</text>
<text text-anchor="start" x="28.5" y="-101" font-family="Helvetica,sans-Serif" font-size="10.00">_B, Halo_R, RHSExpr, Cols,</text>
<text text-anchor="middle" x="114.5" y="-90" font-family="Helvetica,sans-Serif" font-size="10.00"> Rows, LeafType, LVL &gt; &gt;::getTuple</text>
</a>
</g>
</g>
<!-- Node1&#45;&gt;Node10 -->
<g id="edge9" class="edge">
<title>Node1&#45;&gt;Node10</title>
<path fill="none" stroke="midnightblue" d="M321.94,-424.83C317.28,-370.72 299.05,-242.15 229,-167 223.04,-160.6 216.07,-155.05 208.58,-150.23"/>
<polygon fill="midnightblue" stroke="midnightblue" points="318.46,-425.21 322.72,-434.91 325.44,-424.67 318.46,-425.21"/>
</g>
<!-- Node11 -->
<g id="node11" class="node">
<title>Node11</title>
<g id="a_node11"><a xlink:href="structvisioncpp_1_1internal_1_1LocalOutput_3_01false_00_01IsRoot_00_01LC_00_01LR_00_01RDCN_3_01O985b5cf5bfc049f9ae66cfbe725d4e32.html#a85cc60fe30b8670638b13c098a889ad6" target="_top" xlink:title=" ">
<polygon fill="none" stroke="black" points="37,-0.5 37,-63.5 192,-63.5 192,-0.5 37,-0.5"/>
<text text-anchor="start" x="45" y="-51.5" font-family="Helvetica,sans-Serif" font-size="10.00">visioncpp::internal</text>
<text text-anchor="start" x="45" y="-40.5" font-family="Helvetica,sans-Serif" font-size="10.00">::LocalOutput&lt; false,</text>
<text text-anchor="start" x="45" y="-29.5" font-family="Helvetica,sans-Serif" font-size="10.00"> IsRoot, LC, LR, RDCN</text>
<text text-anchor="start" x="45" y="-18.5" font-family="Helvetica,sans-Serif" font-size="10.00">&lt; OP, RHSExpr, Cols, Rows,</text>
<text text-anchor="middle" x="114.5" y="-7.5" font-family="Helvetica,sans-Serif" font-size="10.00"> LeafType, LVL &gt; &gt;::getTuple</text>
</a>
</g>
</g>
<!-- Node1&#45;&gt;Node11 -->
<g id="edge10" class="edge">
<title>Node1&#45;&gt;Node11</title>
<path fill="none" stroke="midnightblue" d="M320.25,-424.77C310.06,-349.26 276.56,-127 229,-74 219.04,-62.9 205.87,-54.72 192.04,-48.7"/>
<polygon fill="midnightblue" stroke="midnightblue" points="316.8,-425.36 321.58,-434.81 323.74,-424.43 316.8,-425.36"/>
</g>
</g>
</svg>
