<?xml version="1.0" encoding="UTF-8" standalone="no"?>
<!DOCTYPE svg PUBLIC "-//W3C//DTD SVG 1.1//EN"
 "http://www.w3.org/Graphics/SVG/1.1/DTD/svg11.dtd">
<!-- Generated by graphviz version 2.43.0 (0)
 -->
<!-- Title: neighbour_ops.hpp Pages: 1 -->
<svg width="365pt" height="84pt"
 viewBox="0.00 0.00 365.00 84.00" xmlns="http://www.w3.org/2000/svg" xmlns:xlink="http://www.w3.org/1999/xlink">
<g id="graph0" class="graph" transform="scale(1 1) rotate(0) translate(4 80)">
<title>neighbour_ops.hpp</title>
<!-- Node1 -->
<g id="node1" class="node">
<title>Node1</title>
<g id="a_node1"><a xlink:title="This file contains a set of includes used to construct neighbour nodes in expression tree.">
<polygon fill="#bfbfbf" stroke="black" points="104,-56.5 104,-75.5 213,-75.5 213,-56.5 104,-56.5"/>
<text text-anchor="middle" x="158.5" y="-63.5" font-family="Helvetica,sans-Serif" font-size="10.00">neighbour_ops.hpp</text>
</a>
</g>
</g>
<!-- Node2 -->
<g id="node2" class="node">
<title>Node2</title>
<g id="a_node2"><a xlink:href="reduction_8hpp.html" target="_top" xlink:title="This file contains RDCN struct which is used to construct a node to shrink an image.">
<polygon fill="none" stroke="black" points="0,-0.5 0,-19.5 83,-19.5 83,-0.5 0,-0.5"/>
<text text-anchor="middle" x="41.5" y="-7.5" font-family="Helvetica,sans-Serif" font-size="10.00">reduction.hpp</text>
</a>
</g>
</g>
<!-- Node1&#45;&gt;Node2 -->
<g id="edge1" class="edge">
<title>Node1&#45;&gt;Node2</title>
<path fill="none" stroke="midnightblue" d="M139.96,-56.44C120.88,-47.64 90.93,-33.81 69.06,-23.72"/>
<polygon fill="midnightblue" stroke="midnightblue" points="70.5,-20.53 59.95,-19.52 67.57,-26.88 70.5,-20.53"/>
</g>
<!-- Node3 -->
<g id="node3" class="node">
<title>Node3</title>
<g id="a_node3"><a xlink:href="stencil__no__filter_8hpp.html" target="_top" xlink:title="This file contains StnNoFilt struct which is used to construct a convolutional operation when the val...">
<polygon fill="none" stroke="black" points="101.5,-0.5 101.5,-19.5 215.5,-19.5 215.5,-0.5 101.5,-0.5"/>
<text text-anchor="middle" x="158.5" y="-7.5" font-family="Helvetica,sans-Serif" font-size="10.00">stencil_no_filter.hpp</text>
</a>
</g>
</g>
<!-- Node1&#45;&gt;Node3 -->
<g id="edge2" class="edge">
<title>Node1&#45;&gt;Node3</title>
<path fill="none" stroke="midnightblue" d="M158.5,-56.08C158.5,-49.01 158.5,-38.86 158.5,-29.99"/>
<polygon fill="midnightblue" stroke="midnightblue" points="162,-29.75 158.5,-19.75 155,-29.75 162,-29.75"/>
</g>
<!-- Node4 -->
<g id="node4" class="node">
<title>Node4</title>
<g id="a_node4"><a xlink:href="stencil__with__filter_8hpp.html" target="_top" xlink:title="This file contains the StnNoFilt struct which is used to construct a convolutional operation when the...">
<polygon fill="none" stroke="black" points="234,-0.5 234,-19.5 357,-19.5 357,-0.5 234,-0.5"/>
<text text-anchor="middle" x="295.5" y="-7.5" font-family="Helvetica,sans-Serif" font-size="10.00">stencil_with_filter.hpp</text>
</a>
</g>
</g>
<!-- Node1&#45;&gt;Node4 -->
<g id="edge3" class="edge">
<title>Node1&#45;&gt;Node4</title>
<path fill="none" stroke="midnightblue" d="M180.21,-56.44C202.85,-47.52 238.57,-33.44 264.25,-23.32"/>
<polygon fill="midnightblue" stroke="midnightblue" points="265.87,-26.44 273.89,-19.52 263.31,-19.93 265.87,-26.44"/>
</g>
</g>
</svg>
