<?xml version="1.0" encoding="UTF-8" standalone="no"?>
<!DOCTYPE svg PUBLIC "-//W3C//DTD SVG 1.1//EN"
 "http://www.w3.org/Graphics/SVG/1.1/DTD/svg11.dtd">
<!-- Generated by graphviz version 2.36.0 (20140111.2315)
 -->
<!-- Title: neighbour_ops.hpp Pages: 1 -->
<svg width="334pt" height="84pt"
 viewBox="0.00 0.00 334.00 84.00" xmlns="http://www.w3.org/2000/svg" xmlns:xlink="http://www.w3.org/1999/xlink">
<g id="graph0" class="graph" transform="scale(1 1) rotate(0) translate(4 80)">
<title>neighbour_ops.hpp</title>
<!-- Node1 -->
<g id="node1" class="node"><title>Node1</title>
<polygon fill="#bfbfbf" stroke="black" points="96,-56.5 96,-75.5 194,-75.5 194,-56.5 96,-56.5"/>
<text text-anchor="middle" x="145" y="-63.5" font-family="Helvetica,sans-Serif" font-size="10.00">neighbour_ops.hpp</text>
</g>
<!-- Node2 -->
<g id="node2" class="node"><title>Node2</title>
<g id="a_node2"><a xlink:href="reduction_8hpp.html" target="_top" xlink:title="This file contains RDCN struct which is used to construct a node to shrink an image. ">
<polygon fill="none" stroke="black" points="-0.5,-0.5 -0.5,-19.5 74.5,-19.5 74.5,-0.5 -0.5,-0.5"/>
<text text-anchor="middle" x="37" y="-7.5" font-family="Helvetica,sans-Serif" font-size="10.00">reduction.hpp</text>
</a>
</g>
</g>
<!-- Node1&#45;&gt;Node2 -->
<g id="edge1" class="edge"><title>Node1&#45;&gt;Node2</title>
<path fill="none" stroke="midnightblue" d="M127.648,-56.324C110.328,-47.6641 83.4847,-34.2424 63.4981,-24.249"/>
<polygon fill="midnightblue" stroke="midnightblue" points="64.8186,-20.9962 54.309,-19.6545 61.688,-27.2572 64.8186,-20.9962"/>
</g>
<!-- Node3 -->
<g id="node3" class="node"><title>Node3</title>
<g id="a_node3"><a xlink:href="stencil__no__filter_8hpp.html" target="_top" xlink:title="This file contains StnNoFilt struct which is used to construct a convolutional operation when the val...">
<polygon fill="none" stroke="black" points="93,-0.5 93,-19.5 197,-19.5 197,-0.5 93,-0.5"/>
<text text-anchor="middle" x="145" y="-7.5" font-family="Helvetica,sans-Serif" font-size="10.00">stencil_no_filter.hpp</text>
</a>
</g>
</g>
<!-- Node1&#45;&gt;Node3 -->
<g id="edge2" class="edge"><title>Node1&#45;&gt;Node3</title>
<path fill="none" stroke="midnightblue" d="M145,-56.083C145,-49.0059 145,-38.8611 145,-29.9865"/>
<polygon fill="midnightblue" stroke="midnightblue" points="148.5,-29.751 145,-19.7511 141.5,-29.7511 148.5,-29.751"/>
</g>
<!-- Node4 -->
<g id="node4" class="node"><title>Node4</title>
<g id="a_node4"><a xlink:href="stencil__with__filter_8hpp.html" target="_top" xlink:title="This file contains the StnNoFilt struct which is used to construct a convolutional operation when the...">
<polygon fill="none" stroke="black" points="215.5,-0.5 215.5,-19.5 326.5,-19.5 326.5,-0.5 215.5,-0.5"/>
<text text-anchor="middle" x="271" y="-7.5" font-family="Helvetica,sans-Serif" font-size="10.00">stencil_with_filter.hpp</text>
</a>
</g>
</g>
<!-- Node1&#45;&gt;Node4 -->
<g id="edge3" class="edge"><title>Node1&#45;&gt;Node4</title>
<path fill="none" stroke="midnightblue" d="M164.965,-56.4435C185.609,-47.5961 218.063,-33.6875 241.632,-23.5865"/>
<polygon fill="midnightblue" stroke="midnightblue" points="243.316,-26.6727 251.128,-19.5164 240.558,-20.2387 243.316,-26.6727"/>
</g>
</g>
</svg>
