<?xml version="1.0" encoding="UTF-8" standalone="no"?>
<!DOCTYPE svg PUBLIC "-//W3C//DTD SVG 1.1//EN"
 "http://www.w3.org/Graphics/SVG/1.1/DTD/svg11.dtd">
<!-- Generated by graphviz version 2.36.0 (20140111.2315)
 -->
<!-- Title: OP_DownsampleAverage.hpp Pages: 1 -->
<svg width="156pt" height="196pt"
 viewBox="0.00 0.00 156.00 196.00" xmlns="http://www.w3.org/2000/svg" xmlns:xlink="http://www.w3.org/1999/xlink">
<g id="graph0" class="graph" transform="scale(1 1) rotate(0) translate(4 192)">
<title>OP_DownsampleAverage.hpp</title>
<!-- Node1 -->
<g id="node1" class="node"><title>Node1</title>
<polygon fill="#bfbfbf" stroke="black" points="0,-168.5 0,-187.5 148,-187.5 148,-168.5 0,-168.5"/>
<text text-anchor="middle" x="74" y="-175.5" font-family="Helvetica,sans-Serif" font-size="10.00">OP_DownsampleAverage.hpp</text>
</g>
<!-- Node2 -->
<g id="node2" class="node"><title>Node2</title>
<g id="a_node2"><a xlink:href="ops__downsampling_8hpp.html" target="_top" xlink:title="This header gathers all downsampling operations. ">
<polygon fill="none" stroke="black" points="14.5,-112.5 14.5,-131.5 133.5,-131.5 133.5,-112.5 14.5,-112.5"/>
<text text-anchor="middle" x="74" y="-119.5" font-family="Helvetica,sans-Serif" font-size="10.00">ops_downsampling.hpp</text>
</a>
</g>
</g>
<!-- Node1&#45;&gt;Node2 -->
<g id="edge1" class="edge"><title>Node1&#45;&gt;Node2</title>
<path fill="none" stroke="midnightblue" d="M74,-157.805C74,-148.91 74,-138.78 74,-131.751"/>
<polygon fill="midnightblue" stroke="midnightblue" points="70.5001,-158.083 74,-168.083 77.5001,-158.083 70.5001,-158.083"/>
</g>
<!-- Node3 -->
<g id="node3" class="node"><title>Node3</title>
<g id="a_node3"><a xlink:href="ops_8hpp.html" target="_top" xlink:title="This header gathers all operations available in VisionCpp. ">
<polygon fill="none" stroke="black" points="48.5,-56.5 48.5,-75.5 99.5,-75.5 99.5,-56.5 48.5,-56.5"/>
<text text-anchor="middle" x="74" y="-63.5" font-family="Helvetica,sans-Serif" font-size="10.00">ops.hpp</text>
</a>
</g>
</g>
<!-- Node2&#45;&gt;Node3 -->
<g id="edge2" class="edge"><title>Node2&#45;&gt;Node3</title>
<path fill="none" stroke="midnightblue" d="M74,-101.805C74,-92.9102 74,-82.7798 74,-75.7511"/>
<polygon fill="midnightblue" stroke="midnightblue" points="70.5001,-102.083 74,-112.083 77.5001,-102.083 70.5001,-102.083"/>
</g>
<!-- Node4 -->
<g id="node4" class="node"><title>Node4</title>
<g id="a_node4"><a xlink:href="visioncpp_8hpp.html" target="_top" xlink:title="This file is collection of headers that makes VisionCpp library. ">
<polygon fill="none" stroke="black" points="35.5,-0.5 35.5,-19.5 112.5,-19.5 112.5,-0.5 35.5,-0.5"/>
<text text-anchor="middle" x="74" y="-7.5" font-family="Helvetica,sans-Serif" font-size="10.00">visioncpp.hpp</text>
</a>
</g>
</g>
<!-- Node3&#45;&gt;Node4 -->
<g id="edge3" class="edge"><title>Node3&#45;&gt;Node4</title>
<path fill="none" stroke="midnightblue" d="M74,-45.8045C74,-36.9102 74,-26.7798 74,-19.7511"/>
<polygon fill="midnightblue" stroke="midnightblue" points="70.5001,-46.083 74,-56.083 77.5001,-46.083 70.5001,-46.083"/>
</g>
</g>
</svg>
