<?xml version="1.0" encoding="UTF-8" standalone="no"?>
<!DOCTYPE svg PUBLIC "-//W3C//DTD SVG 1.1//EN"
 "http://www.w3.org/Graphics/SVG/1.1/DTD/svg11.dtd">
<!-- Generated by graphviz version 2.43.0 (0)
 -->
<!-- Title: OP_DownsampleClosest.hpp Pages: 1 -->
<svg width="164pt" height="196pt"
 viewBox="0.00 0.00 164.00 196.00" xmlns="http://www.w3.org/2000/svg" xmlns:xlink="http://www.w3.org/1999/xlink">
<g id="graph0" class="graph" transform="scale(1 1) rotate(0) translate(4 192)">
<title>OP_DownsampleClosest.hpp</title>
<!-- Node1 -->
<g id="node1" class="node">
<title>Node1</title>
<g id="a_node1"><a xlink:title="This files contains downsampling filter using closest technique If the number of channel is different...">
<polygon fill="#bfbfbf" stroke="black" points="0,-168.5 0,-187.5 156,-187.5 156,-168.5 0,-168.5"/>
<text text-anchor="middle" x="78" y="-175.5" font-family="Helvetica,sans-Serif" font-size="10.00">OP_DownsampleClosest.hpp</text>
</a>
</g>
</g>
<!-- Node2 -->
<g id="node2" class="node">
<title>Node2</title>
<g id="a_node2"><a xlink:href="ops__downsampling_8hpp.html" target="_top" xlink:title="This header gathers all downsampling operations.">
<polygon fill="none" stroke="black" points="12.5,-112.5 12.5,-131.5 143.5,-131.5 143.5,-112.5 12.5,-112.5"/>
<text text-anchor="middle" x="78" y="-119.5" font-family="Helvetica,sans-Serif" font-size="10.00">ops_downsampling.hpp</text>
</a>
</g>
</g>
<!-- Node1&#45;&gt;Node2 -->
<g id="edge1" class="edge">
<title>Node1&#45;&gt;Node2</title>
<path fill="none" stroke="midnightblue" d="M78,-157.8C78,-148.91 78,-138.78 78,-131.75"/>
<polygon fill="midnightblue" stroke="midnightblue" points="74.5,-158.08 78,-168.08 81.5,-158.08 74.5,-158.08"/>
</g>
<!-- Node3 -->
<g id="node3" class="node">
<title>Node3</title>
<g id="a_node3"><a xlink:href="ops_8hpp.html" target="_top" xlink:title="This header gathers all operations available in VisionCpp.">
<polygon fill="none" stroke="black" points="50.5,-56.5 50.5,-75.5 105.5,-75.5 105.5,-56.5 50.5,-56.5"/>
<text text-anchor="middle" x="78" y="-63.5" font-family="Helvetica,sans-Serif" font-size="10.00">ops.hpp</text>
</a>
</g>
</g>
<!-- Node2&#45;&gt;Node3 -->
<g id="edge2" class="edge">
<title>Node2&#45;&gt;Node3</title>
<path fill="none" stroke="midnightblue" d="M78,-101.8C78,-92.91 78,-82.78 78,-75.75"/>
<polygon fill="midnightblue" stroke="midnightblue" points="74.5,-102.08 78,-112.08 81.5,-102.08 74.5,-102.08"/>
</g>
<!-- Node4 -->
<g id="node4" class="node">
<title>Node4</title>
<g id="a_node4"><a xlink:href="visioncpp_8hpp.html" target="_top" xlink:title="This file is collection of headers that makes VisionCpp library.">
<polygon fill="none" stroke="black" points="36,-0.5 36,-19.5 120,-19.5 120,-0.5 36,-0.5"/>
<text text-anchor="middle" x="78" y="-7.5" font-family="Helvetica,sans-Serif" font-size="10.00">visioncpp.hpp</text>
</a>
</g>
</g>
<!-- Node3&#45;&gt;Node4 -->
<g id="edge3" class="edge">
<title>Node3&#45;&gt;Node4</title>
<path fill="none" stroke="midnightblue" d="M78,-45.8C78,-36.91 78,-26.78 78,-19.75"/>
<polygon fill="midnightblue" stroke="midnightblue" points="74.5,-46.08 78,-56.08 81.5,-46.08 74.5,-46.08"/>
</g>
</g>
</svg>
