<?xml version="1.0" encoding="UTF-8" standalone="no"?>
<!DOCTYPE svg PUBLIC "-//W3C//DTD SVG 1.1//EN"
 "http://www.w3.org/Graphics/SVG/1.1/DTD/svg11.dtd">
<!-- Generated by graphviz version 2.36.0 (20140111.2315)
 -->
<!-- Title: OP_HSVToU8C3.hpp Pages: 1 -->
<svg width="120pt" height="196pt"
 viewBox="0.00 0.00 120.00 196.00" xmlns="http://www.w3.org/2000/svg" xmlns:xlink="http://www.w3.org/1999/xlink">
<g id="graph0" class="graph" transform="scale(1 1) rotate(0) translate(4 192)">
<title>OP_HSVToU8C3.hpp</title>
<!-- Node1 -->
<g id="node1" class="node"><title>Node1</title>
<polygon fill="#bfbfbf" stroke="black" points="-0.5,-168.5 -0.5,-187.5 112.5,-187.5 112.5,-168.5 -0.5,-168.5"/>
<text text-anchor="middle" x="56" y="-175.5" font-family="Helvetica,sans-Serif" font-size="10.00">OP_HSVToU8C3.hpp</text>
</g>
<!-- Node2 -->
<g id="node2" class="node"><title>Node2</title>
<g id="a_node2"><a xlink:href="ops__convert_8hpp.html" target="_top" xlink:title="This header gathers all conversion operations. ">
<polygon fill="none" stroke="black" points="11.5,-112.5 11.5,-131.5 100.5,-131.5 100.5,-112.5 11.5,-112.5"/>
<text text-anchor="middle" x="56" y="-119.5" font-family="Helvetica,sans-Serif" font-size="10.00">ops_convert.hpp</text>
</a>
</g>
</g>
<!-- Node1&#45;&gt;Node2 -->
<g id="edge1" class="edge"><title>Node1&#45;&gt;Node2</title>
<path fill="none" stroke="midnightblue" d="M56,-157.805C56,-148.91 56,-138.78 56,-131.751"/>
<polygon fill="midnightblue" stroke="midnightblue" points="52.5001,-158.083 56,-168.083 59.5001,-158.083 52.5001,-158.083"/>
</g>
<!-- Node3 -->
<g id="node3" class="node"><title>Node3</title>
<g id="a_node3"><a xlink:href="ops_8hpp.html" target="_top" xlink:title="This header gathers all operations available in VisionCpp. ">
<polygon fill="none" stroke="black" points="30.5,-56.5 30.5,-75.5 81.5,-75.5 81.5,-56.5 30.5,-56.5"/>
<text text-anchor="middle" x="56" y="-63.5" font-family="Helvetica,sans-Serif" font-size="10.00">ops.hpp</text>
</a>
</g>
</g>
<!-- Node2&#45;&gt;Node3 -->
<g id="edge2" class="edge"><title>Node2&#45;&gt;Node3</title>
<path fill="none" stroke="midnightblue" d="M56,-101.805C56,-92.9102 56,-82.7798 56,-75.7511"/>
<polygon fill="midnightblue" stroke="midnightblue" points="52.5001,-102.083 56,-112.083 59.5001,-102.083 52.5001,-102.083"/>
</g>
<!-- Node4 -->
<g id="node4" class="node"><title>Node4</title>
<g id="a_node4"><a xlink:href="visioncpp_8hpp.html" target="_top" xlink:title="This file is collection of headers that makes VisionCpp library. ">
<polygon fill="none" stroke="black" points="17.5,-0.5 17.5,-19.5 94.5,-19.5 94.5,-0.5 17.5,-0.5"/>
<text text-anchor="middle" x="56" y="-7.5" font-family="Helvetica,sans-Serif" font-size="10.00">visioncpp.hpp</text>
</a>
</g>
</g>
<!-- Node3&#45;&gt;Node4 -->
<g id="edge3" class="edge"><title>Node3&#45;&gt;Node4</title>
<path fill="none" stroke="midnightblue" d="M56,-45.8045C56,-36.9102 56,-26.7798 56,-19.7511"/>
<polygon fill="midnightblue" stroke="midnightblue" points="52.5001,-46.083 56,-56.083 59.5001,-46.083 52.5001,-46.083"/>
</g>
</g>
</svg>
