<?xml version="1.0" encoding="UTF-8" standalone="no"?>
<!DOCTYPE svg PUBLIC "-//W3C//DTD SVG 1.1//EN"
 "http://www.w3.org/Graphics/SVG/1.1/DTD/svg11.dtd">
<!-- Generated by graphviz version 2.43.0 (0)
 -->
<!-- Title: OP_Merge2Chns.hpp Pages: 1 -->
<svg width="125pt" height="196pt"
 viewBox="0.00 0.00 125.00 196.00" xmlns="http://www.w3.org/2000/svg" xmlns:xlink="http://www.w3.org/1999/xlink">
<g id="graph0" class="graph" transform="scale(1 1) rotate(0) translate(4 192)">
<title>OP_Merge2Chns.hpp</title>
<!-- Node1 -->
<g id="node1" class="node">
<title>Node1</title>
<g id="a_node1"><a xlink:title="It merges 2 matrices of one channels into one matrix of 2 channels.">
<polygon fill="#bfbfbf" stroke="black" points="0,-168.5 0,-187.5 117,-187.5 117,-168.5 0,-168.5"/>
<text text-anchor="middle" x="58.5" y="-175.5" font-family="Helvetica,sans-Serif" font-size="10.00">OP_Merge2Chns.hpp</text>
</a>
</g>
</g>
<!-- Node2 -->
<g id="node2" class="node">
<title>Node2</title>
<g id="a_node2"><a xlink:href="experimental_8hpp.html" target="_top" xlink:title="This header gathers all experimental operations.">
<polygon fill="none" stroke="black" points="7,-112.5 7,-131.5 110,-131.5 110,-112.5 7,-112.5"/>
<text text-anchor="middle" x="58.5" y="-119.5" font-family="Helvetica,sans-Serif" font-size="10.00">experimental.hpp</text>
</a>
</g>
</g>
<!-- Node1&#45;&gt;Node2 -->
<g id="edge1" class="edge">
<title>Node1&#45;&gt;Node2</title>
<path fill="none" stroke="midnightblue" d="M58.5,-157.8C58.5,-148.91 58.5,-138.78 58.5,-131.75"/>
<polygon fill="midnightblue" stroke="midnightblue" points="55,-158.08 58.5,-168.08 62,-158.08 55,-158.08"/>
</g>
<!-- Node3 -->
<g id="node3" class="node">
<title>Node3</title>
<g id="a_node3"><a xlink:href="ops_8hpp.html" target="_top" xlink:title="This header gathers all operations available in VisionCpp.">
<polygon fill="none" stroke="black" points="31,-56.5 31,-75.5 86,-75.5 86,-56.5 31,-56.5"/>
<text text-anchor="middle" x="58.5" y="-63.5" font-family="Helvetica,sans-Serif" font-size="10.00">ops.hpp</text>
</a>
</g>
</g>
<!-- Node2&#45;&gt;Node3 -->
<g id="edge2" class="edge">
<title>Node2&#45;&gt;Node3</title>
<path fill="none" stroke="midnightblue" d="M58.5,-101.8C58.5,-92.91 58.5,-82.78 58.5,-75.75"/>
<polygon fill="midnightblue" stroke="midnightblue" points="55,-102.08 58.5,-112.08 62,-102.08 55,-102.08"/>
</g>
<!-- Node4 -->
<g id="node4" class="node">
<title>Node4</title>
<g id="a_node4"><a xlink:href="visioncpp_8hpp.html" target="_top" xlink:title="This file is collection of headers that makes VisionCpp library.">
<polygon fill="none" stroke="black" points="16.5,-0.5 16.5,-19.5 100.5,-19.5 100.5,-0.5 16.5,-0.5"/>
<text text-anchor="middle" x="58.5" y="-7.5" font-family="Helvetica,sans-Serif" font-size="10.00">visioncpp.hpp</text>
</a>
</g>
</g>
<!-- Node3&#45;&gt;Node4 -->
<g id="edge3" class="edge">
<title>Node3&#45;&gt;Node4</title>
<path fill="none" stroke="midnightblue" d="M58.5,-45.8C58.5,-36.91 58.5,-26.78 58.5,-19.75"/>
<polygon fill="midnightblue" stroke="midnightblue" points="55,-46.08 58.5,-56.08 62,-46.08 55,-46.08"/>
</g>
</g>
</svg>
