<?xml version="1.0" encoding="UTF-8" standalone="no"?>
<!DOCTYPE svg PUBLIC "-//W3C//DTD SVG 1.1//EN"
 "http://www.w3.org/Graphics/SVG/1.1/DTD/svg11.dtd">
<!-- Generated by graphviz version 2.43.0 (0)
 -->
<!-- Title: ops.hpp Pages: 1 -->
<svg width="3223pt" height="140pt"
 viewBox="0.00 0.00 3222.50 140.00" xmlns="http://www.w3.org/2000/svg" xmlns:xlink="http://www.w3.org/1999/xlink">
<g id="graph0" class="graph" transform="scale(1 1) rotate(0) translate(4 136)">
<title>ops.hpp</title>
<!-- Node1 -->
<g id="node1" class="node">
<title>Node1</title>
<g id="a_node1"><a xlink:title="This header gathers all operations available in VisionCpp.">
<polygon fill="#bfbfbf" stroke="black" points="1805.5,-112.5 1805.5,-131.5 1860.5,-131.5 1860.5,-112.5 1805.5,-112.5"/>
<text text-anchor="middle" x="1833" y="-119.5" font-family="Helvetica,sans-Serif" font-size="10.00">ops.hpp</text>
</a>
</g>
</g>
<!-- Node2 -->
<g id="node2" class="node">
<title>Node2</title>
<g id="a_node2"><a xlink:href="ops__convert_8hpp.html" target="_top" xlink:title="This header gathers all conversion operations.">
<polygon fill="none" stroke="black" points="511.5,-56.5 511.5,-75.5 648.5,-75.5 648.5,-56.5 511.5,-56.5"/>
<text text-anchor="middle" x="580" y="-63.5" font-family="Helvetica,sans-Serif" font-size="10.00">convert/ops_convert.hpp</text>
</a>
</g>
</g>
<!-- Node1&#45;&gt;Node2 -->
<g id="edge1" class="edge">
<title>Node1&#45;&gt;Node2</title>
<path fill="none" stroke="midnightblue" d="M1805.37,-119.81C1652.18,-113.21 905.18,-81.01 658.92,-70.4"/>
<polygon fill="midnightblue" stroke="midnightblue" points="658.76,-66.89 648.62,-69.96 658.46,-73.88 658.76,-66.89"/>
</g>
<!-- Node11 -->
<g id="node11" class="node">
<title>Node11</title>
<g id="a_node11"><a xlink:href="ops__conv_8hpp.html" target="_top" xlink:title="This header gathers all convolution operations.">
<polygon fill="none" stroke="black" points="1299.5,-56.5 1299.5,-75.5 1442.5,-75.5 1442.5,-56.5 1299.5,-56.5"/>
<text text-anchor="middle" x="1371" y="-63.5" font-family="Helvetica,sans-Serif" font-size="10.00">convolution/ops_conv.hpp</text>
</a>
</g>
</g>
<!-- Node1&#45;&gt;Node11 -->
<g id="edge10" class="edge">
<title>Node1&#45;&gt;Node11</title>
<path fill="none" stroke="midnightblue" d="M1805.48,-117.78C1737.36,-109.82 1558.72,-88.94 1452.92,-76.58"/>
<polygon fill="midnightblue" stroke="midnightblue" points="1453.26,-73.09 1442.92,-75.41 1452.44,-80.04 1453.26,-73.09"/>
</g>
<!-- Node16 -->
<g id="node16" class="node">
<title>Node16</title>
<g id="a_node16"><a xlink:href="ops__downsampling_8hpp.html" target="_top" xlink:title="This header gathers all downsampling operations.">
<polygon fill="none" stroke="black" points="1555,-56.5 1555,-75.5 1761,-75.5 1761,-56.5 1555,-56.5"/>
<text text-anchor="middle" x="1658" y="-63.5" font-family="Helvetica,sans-Serif" font-size="10.00">downsampling/ops_downsampling.hpp</text>
</a>
</g>
</g>
<!-- Node1&#45;&gt;Node16 -->
<g id="edge15" class="edge">
<title>Node1&#45;&gt;Node16</title>
<path fill="none" stroke="midnightblue" d="M1805.27,-112.44C1775.57,-103.28 1728.28,-88.69 1695.33,-78.52"/>
<polygon fill="midnightblue" stroke="midnightblue" points="1696.19,-75.12 1685.6,-75.52 1694.12,-81.81 1696.19,-75.12"/>
</g>
<!-- Node19 -->
<g id="node19" class="node">
<title>Node19</title>
<g id="a_node19"><a xlink:href="opencvinterop_8hpp.html" target="_top" xlink:title="This header gathers all interoperability with OpenCV operations.">
<polygon fill="none" stroke="black" points="1779.5,-56.5 1779.5,-75.5 1886.5,-75.5 1886.5,-56.5 1779.5,-56.5"/>
<text text-anchor="middle" x="1833" y="-63.5" font-family="Helvetica,sans-Serif" font-size="10.00">opencvinterop.hpp</text>
</a>
</g>
</g>
<!-- Node1&#45;&gt;Node19 -->
<g id="edge18" class="edge">
<title>Node1&#45;&gt;Node19</title>
<path fill="none" stroke="midnightblue" d="M1833,-112.08C1833,-105.01 1833,-94.86 1833,-85.99"/>
<polygon fill="midnightblue" stroke="midnightblue" points="1836.5,-85.75 1833,-75.75 1829.5,-85.75 1836.5,-85.75"/>
</g>
<!-- Node20 -->
<g id="node20" class="node">
<title>Node20</title>
<g id="a_node20"><a xlink:href="OP__Broadcast_8hpp.html" target="_top" xlink:title="This file contains a struct to set pixel to the value passed in.">
<polygon fill="none" stroke="black" points="1904.5,-56.5 1904.5,-75.5 2009.5,-75.5 2009.5,-56.5 1904.5,-56.5"/>
<text text-anchor="middle" x="1957" y="-63.5" font-family="Helvetica,sans-Serif" font-size="10.00">OP_Broadcast.hpp</text>
</a>
</g>
</g>
<!-- Node1&#45;&gt;Node20 -->
<g id="edge19" class="edge">
<title>Node1&#45;&gt;Node20</title>
<path fill="none" stroke="midnightblue" d="M1852.65,-112.44C1872.96,-103.6 1904.9,-89.69 1928.1,-79.59"/>
<polygon fill="midnightblue" stroke="midnightblue" points="1929.67,-82.72 1937.44,-75.52 1926.88,-76.3 1929.67,-82.72"/>
</g>
<!-- Node21 -->
<g id="node21" class="node">
<title>Node21</title>
<g id="a_node21"><a xlink:href="OP__ScaleChannel_8hpp.html" target="_top" xlink:title="This files contains structs that change different channels by factor passed via float f.">
<polygon fill="none" stroke="black" points="2028,-56.5 2028,-75.5 2150,-75.5 2150,-56.5 2028,-56.5"/>
<text text-anchor="middle" x="2089" y="-63.5" font-family="Helvetica,sans-Serif" font-size="10.00">OP_ScaleChannel.hpp</text>
</a>
</g>
</g>
<!-- Node1&#45;&gt;Node21 -->
<g id="edge20" class="edge">
<title>Node1&#45;&gt;Node21</title>
<path fill="none" stroke="midnightblue" d="M1860.88,-115.12C1903.49,-106.13 1985.46,-88.84 2038.65,-77.62"/>
<polygon fill="midnightblue" stroke="midnightblue" points="2039.5,-81.02 2048.56,-75.53 2038.05,-74.17 2039.5,-81.02"/>
</g>
<!-- Node22 -->
<g id="node22" class="node">
<title>Node22</title>
<g id="a_node22"><a xlink:href="experimental_8hpp.html" target="_top" xlink:title="This header gathers all experimental operations.">
<polygon fill="none" stroke="black" points="2431.5,-56.5 2431.5,-75.5 2602.5,-75.5 2602.5,-56.5 2431.5,-56.5"/>
<text text-anchor="middle" x="2517" y="-63.5" font-family="Helvetica,sans-Serif" font-size="10.00">experimental/experimental.hpp</text>
</a>
</g>
</g>
<!-- Node1&#45;&gt;Node22 -->
<g id="edge21" class="edge">
<title>Node1&#45;&gt;Node22</title>
<path fill="none" stroke="midnightblue" d="M1860.66,-118.82C1954.33,-111.42 2262.53,-87.09 2421.01,-74.58"/>
<polygon fill="midnightblue" stroke="midnightblue" points="2421.54,-78.05 2431.23,-73.77 2420.99,-71.07 2421.54,-78.05"/>
</g>
<!-- Node3 -->
<g id="node3" class="node">
<title>Node3</title>
<g id="a_node3"><a xlink:href="OP__BGRToRGB_8hpp.html" target="_top" xlink:title="it converts BGR pixel to RGB pixel">
<polygon fill="none" stroke="black" points="0,-0.5 0,-19.5 108,-19.5 108,-0.5 0,-0.5"/>
<text text-anchor="middle" x="54" y="-7.5" font-family="Helvetica,sans-Serif" font-size="10.00">OP_BGRToRGB.hpp</text>
</a>
</g>
</g>
<!-- Node2&#45;&gt;Node3 -->
<g id="edge2" class="edge">
<title>Node2&#45;&gt;Node3</title>
<path fill="none" stroke="midnightblue" d="M511.26,-59.29C422.78,-51.73 264.05,-37.42 118.3,-20.11"/>
<polygon fill="midnightblue" stroke="midnightblue" points="118.62,-16.62 108.28,-18.91 117.79,-23.57 118.62,-16.62"/>
</g>
<!-- Node4 -->
<g id="node4" class="node">
<title>Node4</title>
<g id="a_node4"><a xlink:href="OP__F32C3ToU8C3_8hpp.html" target="_top" xlink:title="it converts F32C3 pixel to U8C3 pixel">
<polygon fill="none" stroke="black" points="126,-0.5 126,-19.5 250,-19.5 250,-0.5 126,-0.5"/>
<text text-anchor="middle" x="188" y="-7.5" font-family="Helvetica,sans-Serif" font-size="10.00">OP_F32C3ToU8C3.hpp</text>
</a>
</g>
</g>
<!-- Node2&#45;&gt;Node4 -->
<g id="edge3" class="edge">
<title>Node2&#45;&gt;Node4</title>
<path fill="none" stroke="midnightblue" d="M517.89,-56.44C447.78,-46.79 333.91,-31.1 259.98,-20.92"/>
<polygon fill="midnightblue" stroke="midnightblue" points="260.21,-17.41 249.82,-19.52 259.25,-24.35 260.21,-17.41"/>
</g>
<!-- Node5 -->
<g id="node5" class="node">
<title>Node5</title>
<g id="a_node5"><a xlink:href="OP__HSVToRGB_8hpp.html" target="_top" xlink:title="it converts HSV pixel to RGB pixel">
<polygon fill="none" stroke="black" points="268,-0.5 268,-19.5 376,-19.5 376,-0.5 268,-0.5"/>
<text text-anchor="middle" x="322" y="-7.5" font-family="Helvetica,sans-Serif" font-size="10.00">OP_HSVToRGB.hpp</text>
</a>
</g>
</g>
<!-- Node2&#45;&gt;Node5 -->
<g id="edge4" class="edge">
<title>Node2&#45;&gt;Node5</title>
<path fill="none" stroke="midnightblue" d="M539.12,-56.44C494.02,-47 421.39,-31.8 372.7,-21.61"/>
<polygon fill="midnightblue" stroke="midnightblue" points="373.19,-18.14 362.69,-19.52 371.76,-24.99 373.19,-18.14"/>
</g>
<!-- Node6 -->
<g id="node6" class="node">
<title>Node6</title>
<g id="a_node6"><a xlink:href="OP__HSVToU8C3_8hpp.html" target="_top" xlink:title="it converts HSV pixel to U8C3 pixel">
<polygon fill="none" stroke="black" points="394.5,-0.5 394.5,-19.5 507.5,-19.5 507.5,-0.5 394.5,-0.5"/>
<text text-anchor="middle" x="451" y="-7.5" font-family="Helvetica,sans-Serif" font-size="10.00">OP_HSVToU8C3.hpp</text>
</a>
</g>
</g>
<!-- Node2&#45;&gt;Node6 -->
<g id="edge5" class="edge">
<title>Node2&#45;&gt;Node6</title>
<path fill="none" stroke="midnightblue" d="M559.56,-56.44C538.33,-47.56 504.9,-33.56 480.75,-23.45"/>
<polygon fill="midnightblue" stroke="midnightblue" points="481.92,-20.15 471.34,-19.52 479.22,-26.61 481.92,-20.15"/>
</g>
<!-- Node7 -->
<g id="node7" class="node">
<title>Node7</title>
<g id="a_node7"><a xlink:href="OP__RGBToBGR_8hpp.html" target="_top" xlink:title="it converts RGB pixel to BGR pixel">
<polygon fill="none" stroke="black" points="525.5,-0.5 525.5,-19.5 634.5,-19.5 634.5,-0.5 525.5,-0.5"/>
<text text-anchor="middle" x="580" y="-7.5" font-family="Helvetica,sans-Serif" font-size="10.00">OP_RGBToBGR.hpp</text>
</a>
</g>
</g>
<!-- Node2&#45;&gt;Node7 -->
<g id="edge6" class="edge">
<title>Node2&#45;&gt;Node7</title>
<path fill="none" stroke="midnightblue" d="M580,-56.08C580,-49.01 580,-38.86 580,-29.99"/>
<polygon fill="midnightblue" stroke="midnightblue" points="583.5,-29.75 580,-19.75 576.5,-29.75 583.5,-29.75"/>
</g>
<!-- Node8 -->
<g id="node8" class="node">
<title>Node8</title>
<g id="a_node8"><a xlink:href="OP__RGBToGREY_8hpp.html" target="_top" xlink:title="it converts RGB pixel to Grey pixel">
<polygon fill="none" stroke="black" points="653,-0.5 653,-19.5 765,-19.5 765,-0.5 653,-0.5"/>
<text text-anchor="middle" x="709" y="-7.5" font-family="Helvetica,sans-Serif" font-size="10.00">OP_RGBToGREY.hpp</text>
</a>
</g>
</g>
<!-- Node2&#45;&gt;Node8 -->
<g id="edge7" class="edge">
<title>Node2&#45;&gt;Node8</title>
<path fill="none" stroke="midnightblue" d="M600.44,-56.44C621.67,-47.56 655.1,-33.56 679.25,-23.45"/>
<polygon fill="midnightblue" stroke="midnightblue" points="680.78,-26.61 688.66,-19.52 678.08,-20.15 680.78,-26.61"/>
</g>
<!-- Node9 -->
<g id="node9" class="node">
<title>Node9</title>
<g id="a_node9"><a xlink:href="OP__RGBToHSV_8hpp.html" target="_top" xlink:title="it converts RGB pixel to HSV pixel">
<polygon fill="none" stroke="black" points="783.5,-0.5 783.5,-19.5 890.5,-19.5 890.5,-0.5 783.5,-0.5"/>
<text text-anchor="middle" x="837" y="-7.5" font-family="Helvetica,sans-Serif" font-size="10.00">OP_RGBToHSV.hpp</text>
</a>
</g>
</g>
<!-- Node2&#45;&gt;Node9 -->
<g id="edge8" class="edge">
<title>Node2&#45;&gt;Node9</title>
<path fill="none" stroke="midnightblue" d="M620.72,-56.44C665.65,-47 738,-31.8 786.5,-21.61"/>
<polygon fill="midnightblue" stroke="midnightblue" points="787.4,-25 796.47,-19.52 785.96,-18.15 787.4,-25"/>
</g>
<!-- Node10 -->
<g id="node10" class="node">
<title>Node10</title>
<g id="a_node10"><a xlink:href="OP__U8C3ToF32C3_8hpp.html" target="_top" xlink:title="it converts U8C3 pixel to F32C3 pixel">
<polygon fill="none" stroke="black" points="909,-0.5 909,-19.5 1033,-19.5 1033,-0.5 909,-0.5"/>
<text text-anchor="middle" x="971" y="-7.5" font-family="Helvetica,sans-Serif" font-size="10.00">OP_U8C3ToF32C3.hpp</text>
</a>
</g>
</g>
<!-- Node2&#45;&gt;Node10 -->
<g id="edge9" class="edge">
<title>Node2&#45;&gt;Node10</title>
<path fill="none" stroke="midnightblue" d="M641.96,-56.44C711.88,-46.79 825.47,-31.1 899.2,-20.92"/>
<polygon fill="midnightblue" stroke="midnightblue" points="899.91,-24.35 909.33,-19.52 898.95,-17.42 899.91,-24.35"/>
</g>
<!-- Node12 -->
<g id="node12" class="node">
<title>Node12</title>
<g id="a_node12"><a xlink:href="OP__Filter2D_8hpp.html" target="_top" xlink:title="This file apply the general convolution.">
<polygon fill="none" stroke="black" points="1051.5,-0.5 1051.5,-19.5 1146.5,-19.5 1146.5,-0.5 1051.5,-0.5"/>
<text text-anchor="middle" x="1099" y="-7.5" font-family="Helvetica,sans-Serif" font-size="10.00">OP_Filter2D.hpp</text>
</a>
</g>
</g>
<!-- Node11&#45;&gt;Node12 -->
<g id="edge11" class="edge">
<title>Node11&#45;&gt;Node12</title>
<path fill="none" stroke="midnightblue" d="M1327.9,-56.44C1280.15,-46.96 1203.14,-31.67 1151.81,-21.48"/>
<polygon fill="midnightblue" stroke="midnightblue" points="1152.39,-18.03 1141.9,-19.52 1151.02,-24.9 1152.39,-18.03"/>
</g>
<!-- Node13 -->
<g id="node13" class="node">
<title>Node13</title>
<g id="a_node13"><a xlink:href="OP__GaussianBlur3x3_8hpp.html" target="_top" xlink:title="this file apply the Gaussian blur 3x3">
<polygon fill="none" stroke="black" points="1164.5,-0.5 1164.5,-19.5 1303.5,-19.5 1303.5,-0.5 1164.5,-0.5"/>
<text text-anchor="middle" x="1234" y="-7.5" font-family="Helvetica,sans-Serif" font-size="10.00">OP_GaussianBlur3x3.hpp</text>
</a>
</g>
</g>
<!-- Node11&#45;&gt;Node13 -->
<g id="edge12" class="edge">
<title>Node11&#45;&gt;Node13</title>
<path fill="none" stroke="midnightblue" d="M1349.29,-56.44C1326.65,-47.52 1290.93,-33.44 1265.25,-23.32"/>
<polygon fill="midnightblue" stroke="midnightblue" points="1266.19,-19.93 1255.61,-19.52 1263.63,-26.44 1266.19,-19.93"/>
</g>
<!-- Node14 -->
<g id="node14" class="node">
<title>Node14</title>
<g id="a_node14"><a xlink:href="OP__SepFilter_8hpp.html" target="_top" xlink:title="This file applies Separable filter convolution.">
<polygon fill="none" stroke="black" points="1322,-0.5 1322,-19.5 1420,-19.5 1420,-0.5 1322,-0.5"/>
<text text-anchor="middle" x="1371" y="-7.5" font-family="Helvetica,sans-Serif" font-size="10.00">OP_SepFilter.hpp</text>
</a>
</g>
</g>
<!-- Node11&#45;&gt;Node14 -->
<g id="edge13" class="edge">
<title>Node11&#45;&gt;Node14</title>
<path fill="none" stroke="midnightblue" d="M1371,-56.08C1371,-49.01 1371,-38.86 1371,-29.99"/>
<polygon fill="midnightblue" stroke="midnightblue" points="1374.5,-29.75 1371,-19.75 1367.5,-29.75 1374.5,-29.75"/>
</g>
<!-- Node15 -->
<g id="node15" class="node">
<title>Node15</title>
<g id="a_node15"><a xlink:href="OP__SepGauss3x3_8hpp.html" target="_top" xlink:title="Separable Gaussian filter for 3x3 filter size.">
<polygon fill="none" stroke="black" points="1438,-0.5 1438,-19.5 1560,-19.5 1560,-0.5 1438,-0.5"/>
<text text-anchor="middle" x="1499" y="-7.5" font-family="Helvetica,sans-Serif" font-size="10.00">OP_SepGauss3x3.hpp</text>
</a>
</g>
</g>
<!-- Node11&#45;&gt;Node15 -->
<g id="edge14" class="edge">
<title>Node11&#45;&gt;Node15</title>
<path fill="none" stroke="midnightblue" d="M1391.28,-56.44C1412.35,-47.56 1445.52,-33.56 1469.49,-23.45"/>
<polygon fill="midnightblue" stroke="midnightblue" points="1470.96,-26.63 1478.81,-19.52 1468.24,-20.18 1470.96,-26.63"/>
</g>
<!-- Node17 -->
<g id="node17" class="node">
<title>Node17</title>
<g id="a_node17"><a xlink:href="OP__DownsampleAverage_8hpp.html" target="_top" xlink:title="This file contains the downsampling filter using average technique.">
<polygon fill="none" stroke="black" points="1578,-0.5 1578,-19.5 1738,-19.5 1738,-0.5 1578,-0.5"/>
<text text-anchor="middle" x="1658" y="-7.5" font-family="Helvetica,sans-Serif" font-size="10.00">OP_DownsampleAverage.hpp</text>
</a>
</g>
</g>
<!-- Node16&#45;&gt;Node17 -->
<g id="edge16" class="edge">
<title>Node16&#45;&gt;Node17</title>
<path fill="none" stroke="midnightblue" d="M1658,-56.08C1658,-49.01 1658,-38.86 1658,-29.99"/>
<polygon fill="midnightblue" stroke="midnightblue" points="1661.5,-29.75 1658,-19.75 1654.5,-29.75 1661.5,-29.75"/>
</g>
<!-- Node18 -->
<g id="node18" class="node">
<title>Node18</title>
<g id="a_node18"><a xlink:href="OP__DownsampleClosest_8hpp.html" target="_top" xlink:title="This files contains downsampling filter using closest technique If the number of channel is different...">
<polygon fill="none" stroke="black" points="1756,-0.5 1756,-19.5 1912,-19.5 1912,-0.5 1756,-0.5"/>
<text text-anchor="middle" x="1834" y="-7.5" font-family="Helvetica,sans-Serif" font-size="10.00">OP_DownsampleClosest.hpp</text>
</a>
</g>
</g>
<!-- Node16&#45;&gt;Node18 -->
<g id="edge17" class="edge">
<title>Node16&#45;&gt;Node18</title>
<path fill="none" stroke="midnightblue" d="M1685.89,-56.44C1715.75,-47.28 1763.31,-32.69 1796.46,-22.52"/>
<polygon fill="midnightblue" stroke="midnightblue" points="1797.71,-25.8 1806.24,-19.52 1795.66,-19.1 1797.71,-25.8"/>
</g>
<!-- Node23 -->
<g id="node23" class="node">
<title>Node23</title>
<g id="a_node23"><a xlink:href="OP__AbsSub_8hpp.html" target="_top" xlink:title="It gets the absolute difference between 2 images.">
<polygon fill="none" stroke="black" points="1930,-0.5 1930,-19.5 2022,-19.5 2022,-0.5 1930,-0.5"/>
<text text-anchor="middle" x="1976" y="-7.5" font-family="Helvetica,sans-Serif" font-size="10.00">OP_AbsSub.hpp</text>
</a>
</g>
</g>
<!-- Node22&#45;&gt;Node23 -->
<g id="edge22" class="edge">
<title>Node22&#45;&gt;Node23</title>
<path fill="none" stroke="midnightblue" d="M2431.21,-58.88C2336.13,-51.68 2178.03,-38.49 2032.21,-20.07"/>
<polygon fill="midnightblue" stroke="midnightblue" points="2032.54,-16.59 2022.18,-18.8 2031.66,-23.53 2032.54,-16.59"/>
</g>
<!-- Node24 -->
<g id="node24" class="node">
<title>Node24</title>
<g id="a_node24"><a xlink:href="OP__Add_8hpp.html" target="_top" xlink:title="It adds the values pixel by pixel of two images.">
<polygon fill="none" stroke="black" points="2040.5,-0.5 2040.5,-19.5 2115.5,-19.5 2115.5,-0.5 2040.5,-0.5"/>
<text text-anchor="middle" x="2078" y="-7.5" font-family="Helvetica,sans-Serif" font-size="10.00">OP_Add.hpp</text>
</a>
</g>
</g>
<!-- Node22&#45;&gt;Node24 -->
<g id="edge23" class="edge">
<title>Node22&#45;&gt;Node24</title>
<path fill="none" stroke="midnightblue" d="M2431.26,-57.16C2353.81,-49.62 2236.48,-37.07 2125.63,-20.15"/>
<polygon fill="midnightblue" stroke="midnightblue" points="2126.03,-16.68 2115.61,-18.61 2124.96,-23.59 2126.03,-16.68"/>
</g>
<!-- Node25 -->
<g id="node25" class="node">
<title>Node25</title>
<g id="a_node25"><a xlink:href="OP__AniDiff_8hpp.html" target="_top" xlink:title="It applies a simplified version of the anisotropic diffusion.">
<polygon fill="none" stroke="black" points="2133.5,-0.5 2133.5,-19.5 2222.5,-19.5 2222.5,-0.5 2133.5,-0.5"/>
<text text-anchor="middle" x="2178" y="-7.5" font-family="Helvetica,sans-Serif" font-size="10.00">OP_AniDiff.hpp</text>
</a>
</g>
</g>
<!-- Node22&#45;&gt;Node25 -->
<g id="edge24" class="edge">
<title>Node22&#45;&gt;Node25</title>
<path fill="none" stroke="midnightblue" d="M2462.08,-56.47C2406.8,-47.85 2318.81,-34.05 2232.73,-20.11"/>
<polygon fill="midnightblue" stroke="midnightblue" points="2233.22,-16.64 2222.78,-18.49 2232.09,-23.55 2233.22,-16.64"/>
</g>
<!-- Node26 -->
<g id="node26" class="node">
<title>Node26</title>
<g id="a_node26"><a xlink:href="OP__Div_8hpp.html" target="_top" xlink:title="It divides two matrices element&#45;wise.">
<polygon fill="none" stroke="black" points="2241,-0.5 2241,-19.5 2313,-19.5 2313,-0.5 2241,-0.5"/>
<text text-anchor="middle" x="2277" y="-7.5" font-family="Helvetica,sans-Serif" font-size="10.00">OP_Div.hpp</text>
</a>
</g>
</g>
<!-- Node22&#45;&gt;Node26 -->
<g id="edge25" class="edge">
<title>Node22&#45;&gt;Node26</title>
<path fill="none" stroke="midnightblue" d="M2478.97,-56.44C2436.7,-46.93 2368.43,-31.57 2323.14,-21.38"/>
<polygon fill="midnightblue" stroke="midnightblue" points="2323.8,-17.94 2313.28,-19.16 2322.27,-24.77 2323.8,-17.94"/>
</g>
<!-- Node27 -->
<g id="node27" class="node">
<title>Node27</title>
<g id="a_node27"><a xlink:href="OP__FloatToF32C3_8hpp.html" target="_top" xlink:title="Converts from uchar to float and float to uchar.">
<polygon fill="none" stroke="black" points="2331,-0.5 2331,-19.5 2453,-19.5 2453,-0.5 2331,-0.5"/>
<text text-anchor="middle" x="2392" y="-7.5" font-family="Helvetica,sans-Serif" font-size="10.00">OP_FloatToF32C3.hpp</text>
</a>
</g>
</g>
<!-- Node22&#45;&gt;Node27 -->
<g id="edge26" class="edge">
<title>Node22&#45;&gt;Node27</title>
<path fill="none" stroke="midnightblue" d="M2497.19,-56.44C2476.71,-47.6 2444.52,-33.69 2421.14,-23.59"/>
<polygon fill="midnightblue" stroke="midnightblue" points="2422.28,-20.27 2411.71,-19.52 2419.51,-26.7 2422.28,-20.27"/>
</g>
<!-- Node28 -->
<g id="node28" class="node">
<title>Node28</title>
<g id="a_node28"><a xlink:href="OP__Median_8hpp.html" target="_top" xlink:title="It applies the median filter in an image.">
<polygon fill="none" stroke="black" points="2471,-0.5 2471,-19.5 2563,-19.5 2563,-0.5 2471,-0.5"/>
<text text-anchor="middle" x="2517" y="-7.5" font-family="Helvetica,sans-Serif" font-size="10.00">OP_Median.hpp</text>
</a>
</g>
</g>
<!-- Node22&#45;&gt;Node28 -->
<g id="edge27" class="edge">
<title>Node22&#45;&gt;Node28</title>
<path fill="none" stroke="midnightblue" d="M2517,-56.08C2517,-49.01 2517,-38.86 2517,-29.99"/>
<polygon fill="midnightblue" stroke="midnightblue" points="2520.5,-29.75 2517,-19.75 2513.5,-29.75 2520.5,-29.75"/>
</g>
<!-- Node29 -->
<g id="node29" class="node">
<title>Node29</title>
<g id="a_node29"><a xlink:href="OP__Merge2Chns_8hpp.html" target="_top" xlink:title="It merges 2 matrices of one channels into one matrix of 2 channels.">
<polygon fill="none" stroke="black" points="2581.5,-0.5 2581.5,-19.5 2698.5,-19.5 2698.5,-0.5 2581.5,-0.5"/>
<text text-anchor="middle" x="2640" y="-7.5" font-family="Helvetica,sans-Serif" font-size="10.00">OP_Merge2Chns.hpp</text>
</a>
</g>
</g>
<!-- Node22&#45;&gt;Node29 -->
<g id="edge28" class="edge">
<title>Node22&#45;&gt;Node29</title>
<path fill="none" stroke="midnightblue" d="M2536.49,-56.44C2556.64,-47.6 2588.32,-33.69 2611.33,-23.59"/>
<polygon fill="midnightblue" stroke="midnightblue" points="2612.85,-26.74 2620.6,-19.52 2610.04,-20.33 2612.85,-26.74"/>
</g>
<!-- Node30 -->
<g id="node30" class="node">
<title>Node30</title>
<g id="a_node30"><a xlink:href="OP__Mul_8hpp.html" target="_top" xlink:title="Element&#45;wise matrix multiplication.">
<polygon fill="none" stroke="black" points="2717,-0.5 2717,-19.5 2791,-19.5 2791,-0.5 2717,-0.5"/>
<text text-anchor="middle" x="2754" y="-7.5" font-family="Helvetica,sans-Serif" font-size="10.00">OP_Mul.hpp</text>
</a>
</g>
</g>
<!-- Node22&#45;&gt;Node30 -->
<g id="edge29" class="edge">
<title>Node22&#45;&gt;Node30</title>
<path fill="none" stroke="midnightblue" d="M2554.55,-56.44C2595.81,-47.04 2662.14,-31.93 2706.87,-21.74"/>
<polygon fill="midnightblue" stroke="midnightblue" points="2707.65,-25.15 2716.62,-19.52 2706.09,-18.33 2707.65,-25.15"/>
</g>
<!-- Node31 -->
<g id="node31" class="node">
<title>Node31</title>
<g id="a_node31"><a xlink:href="OP__PowerOf2_8hpp.html" target="_top" xlink:title="It calculates the power of 2 of a matrix.">
<polygon fill="none" stroke="black" points="2809,-0.5 2809,-19.5 2913,-19.5 2913,-0.5 2809,-0.5"/>
<text text-anchor="middle" x="2861" y="-7.5" font-family="Helvetica,sans-Serif" font-size="10.00">OP_PowerOf2.hpp</text>
</a>
</g>
</g>
<!-- Node22&#45;&gt;Node31 -->
<g id="edge30" class="edge">
<title>Node22&#45;&gt;Node31</title>
<path fill="none" stroke="midnightblue" d="M2571.51,-56.44C2633.37,-46.73 2734.07,-30.92 2798.91,-20.75"/>
<polygon fill="midnightblue" stroke="midnightblue" points="2799.66,-24.17 2809,-19.16 2798.58,-17.26 2799.66,-24.17"/>
</g>
<!-- Node32 -->
<g id="node32" class="node">
<title>Node32</title>
<g id="a_node32"><a xlink:href="OP__Scale_8hpp.html" target="_top" xlink:title="It scales the pixel value of an image by a factor.">
<polygon fill="none" stroke="black" points="2931.5,-0.5 2931.5,-19.5 3014.5,-19.5 3014.5,-0.5 2931.5,-0.5"/>
<text text-anchor="middle" x="2973" y="-7.5" font-family="Helvetica,sans-Serif" font-size="10.00">OP_Scale.hpp</text>
</a>
</g>
</g>
<!-- Node22&#45;&gt;Node32 -->
<g id="edge31" class="edge">
<title>Node22&#45;&gt;Node32</title>
<path fill="none" stroke="midnightblue" d="M2602.53,-57.1C2682.32,-49.36 2804.88,-36.54 2921.14,-20.04"/>
<polygon fill="midnightblue" stroke="midnightblue" points="2921.88,-23.47 2931.29,-18.59 2920.89,-16.54 2921.88,-23.47"/>
</g>
<!-- Node33 -->
<g id="node33" class="node">
<title>Node33</title>
<g id="a_node33"><a xlink:href="OP__Sub_8hpp.html" target="_top" xlink:title="It calculates the difference between 2 images.">
<polygon fill="none" stroke="black" points="3033,-0.5 3033,-19.5 3107,-19.5 3107,-0.5 3033,-0.5"/>
<text text-anchor="middle" x="3070" y="-7.5" font-family="Helvetica,sans-Serif" font-size="10.00">OP_Sub.hpp</text>
</a>
</g>
</g>
<!-- Node22&#45;&gt;Node33 -->
<g id="edge32" class="edge">
<title>Node22&#45;&gt;Node33</title>
<path fill="none" stroke="midnightblue" d="M2602.53,-60.15C2701.4,-53.92 2869.18,-41.46 3022.8,-20.03"/>
<polygon fill="midnightblue" stroke="midnightblue" points="3023.49,-23.47 3032.9,-18.6 3022.51,-16.54 3023.49,-23.47"/>
</g>
<!-- Node34 -->
<g id="node34" class="node">
<title>Node34</title>
<g id="a_node34"><a xlink:href="OP__Thresh_8hpp.html" target="_top" xlink:title="it applies a threshold operation in the image">
<polygon fill="none" stroke="black" points="3125.5,-0.5 3125.5,-19.5 3214.5,-19.5 3214.5,-0.5 3125.5,-0.5"/>
<text text-anchor="middle" x="3170" y="-7.5" font-family="Helvetica,sans-Serif" font-size="10.00">OP_Thresh.hpp</text>
</a>
</g>
</g>
<!-- Node22&#45;&gt;Node34 -->
<g id="edge33" class="edge">
<title>Node22&#45;&gt;Node34</title>
<path fill="none" stroke="midnightblue" d="M2602.54,-61C2716.94,-55.12 2926.26,-42.44 3115.14,-19.99"/>
<polygon fill="midnightblue" stroke="midnightblue" points="3115.74,-23.44 3125.26,-18.78 3114.91,-16.49 3115.74,-23.44"/>
</g>
</g>
</svg>
