<?xml version="1.0" encoding="UTF-8" standalone="no"?>
<!DOCTYPE svg PUBLIC "-//W3C//DTD SVG 1.1//EN"
 "http://www.w3.org/Graphics/SVG/1.1/DTD/svg11.dtd">
<!-- Generated by graphviz version 2.36.0 (20140111.2315)
 -->
<!-- Title: ops_conv.hpp Pages: 1 -->
<svg width="490pt" height="84pt"
 viewBox="0.00 0.00 490.00 84.00" xmlns="http://www.w3.org/2000/svg" xmlns:xlink="http://www.w3.org/1999/xlink">
<g id="graph0" class="graph" transform="scale(1 1) rotate(0) translate(4 80)">
<title>ops_conv.hpp</title>
<!-- Node1 -->
<g id="node1" class="node"><title>Node1</title>
<polygon fill="#bfbfbf" stroke="black" points="197.5,-56.5 197.5,-75.5 274.5,-75.5 274.5,-56.5 197.5,-56.5"/>
<text text-anchor="middle" x="236" y="-63.5" font-family="Helvetica,sans-Serif" font-size="10.00">ops_conv.hpp</text>
</g>
<!-- Node2 -->
<g id="node2" class="node"><title>Node2</title>
<g id="a_node2"><a xlink:href="OP__Filter2D_8hpp.html" target="_top" xlink:title="This file apply the general convolution. ">
<polygon fill="none" stroke="black" points="-0.5,-0.5 -0.5,-19.5 88.5,-19.5 88.5,-0.5 -0.5,-0.5"/>
<text text-anchor="middle" x="44" y="-7.5" font-family="Helvetica,sans-Serif" font-size="10.00">OP_Filter2D.hpp</text>
</a>
</g>
</g>
<!-- Node1&#45;&gt;Node2 -->
<g id="edge1" class="edge"><title>Node1&#45;&gt;Node2</title>
<path fill="none" stroke="midnightblue" d="M205.577,-56.4435C172.715,-47.2011 120.215,-32.4356 84.0256,-22.2572"/>
<polygon fill="midnightblue" stroke="midnightblue" points="84.8548,-18.8547 74.2806,-19.5164 82.9595,-25.5932 84.8548,-18.8547"/>
</g>
<!-- Node3 -->
<g id="node3" class="node"><title>Node3</title>
<g id="a_node3"><a xlink:href="OP__GaussianBlur3x3_8hpp.html" target="_top" xlink:title="this file apply the Gaussian blur 3x3 ">
<polygon fill="none" stroke="black" points="106.5,-0.5 106.5,-19.5 235.5,-19.5 235.5,-0.5 106.5,-0.5"/>
<text text-anchor="middle" x="171" y="-7.5" font-family="Helvetica,sans-Serif" font-size="10.00">OP_GaussianBlur3x3.hpp</text>
</a>
</g>
</g>
<!-- Node1&#45;&gt;Node3 -->
<g id="edge2" class="edge"><title>Node1&#45;&gt;Node3</title>
<path fill="none" stroke="midnightblue" d="M225.557,-56.324C215.854,-48.2631 201.185,-36.0765 189.5,-26.3695"/>
<polygon fill="midnightblue" stroke="midnightblue" points="191.562,-23.532 181.633,-19.8339 187.089,-28.9163 191.562,-23.532"/>
</g>
<!-- Node4 -->
<g id="node4" class="node"><title>Node4</title>
<g id="a_node4"><a xlink:href="OP__SepFilter_8hpp.html" target="_top" xlink:title="This file applies Separable filter convolution. ">
<polygon fill="none" stroke="black" points="254,-0.5 254,-19.5 348,-19.5 348,-0.5 254,-0.5"/>
<text text-anchor="middle" x="301" y="-7.5" font-family="Helvetica,sans-Serif" font-size="10.00">OP_SepFilter.hpp</text>
</a>
</g>
</g>
<!-- Node1&#45;&gt;Node4 -->
<g id="edge3" class="edge"><title>Node1&#45;&gt;Node4</title>
<path fill="none" stroke="midnightblue" d="M246.443,-56.324C256.146,-48.2631 270.815,-36.0765 282.5,-26.3695"/>
<polygon fill="midnightblue" stroke="midnightblue" points="284.911,-28.9163 290.367,-19.8339 280.438,-23.532 284.911,-28.9163"/>
</g>
<!-- Node5 -->
<g id="node5" class="node"><title>Node5</title>
<g id="a_node5"><a xlink:href="OP__SepGauss3x3_8hpp.html" target="_top" xlink:title="Separable Gaussian filter for 3x3 filter size. ">
<polygon fill="none" stroke="black" points="366,-0.5 366,-19.5 482,-19.5 482,-0.5 366,-0.5"/>
<text text-anchor="middle" x="424" y="-7.5" font-family="Helvetica,sans-Serif" font-size="10.00">OP_SepGauss3x3.hpp</text>
</a>
</g>
</g>
<!-- Node1&#45;&gt;Node5 -->
<g id="edge4" class="edge"><title>Node1&#45;&gt;Node5</title>
<path fill="none" stroke="midnightblue" d="M265.789,-56.4435C297.829,-47.2406 348.933,-32.5617 384.353,-22.3879"/>
<polygon fill="midnightblue" stroke="midnightblue" points="385.705,-25.6412 394.35,-19.5164 383.773,-18.9132 385.705,-25.6412"/>
</g>
</g>
</svg>
