<?xml version="1.0" encoding="UTF-8" standalone="no"?>
<!DOCTYPE svg PUBLIC "-//W3C//DTD SVG 1.1//EN"
 "http://www.w3.org/Graphics/SVG/1.1/DTD/svg11.dtd">
<!-- Generated by graphviz version 2.43.0 (0)
 -->
<!-- Title: ops_conv.hpp Pages: 1 -->
<svg width="517pt" height="84pt"
 viewBox="0.00 0.00 516.50 84.00" xmlns="http://www.w3.org/2000/svg" xmlns:xlink="http://www.w3.org/1999/xlink">
<g id="graph0" class="graph" transform="scale(1 1) rotate(0) translate(4 80)">
<title>ops_conv.hpp</title>
<!-- Node1 -->
<g id="node1" class="node">
<title>Node1</title>
<g id="a_node1"><a xlink:title="This header gathers all convolution operations.">
<polygon fill="#bfbfbf" stroke="black" points="209,-56.5 209,-75.5 292,-75.5 292,-56.5 209,-56.5"/>
<text text-anchor="middle" x="250.5" y="-63.5" font-family="Helvetica,sans-Serif" font-size="10.00">ops_conv.hpp</text>
</a>
</g>
</g>
<!-- Node2 -->
<g id="node2" class="node">
<title>Node2</title>
<g id="a_node2"><a xlink:href="OP__Filter2D_8hpp.html" target="_top" xlink:title="This file apply the general convolution.">
<polygon fill="none" stroke="black" points="0,-0.5 0,-19.5 95,-19.5 95,-0.5 0,-0.5"/>
<text text-anchor="middle" x="47.5" y="-7.5" font-family="Helvetica,sans-Serif" font-size="10.00">OP_Filter2D.hpp</text>
</a>
</g>
</g>
<!-- Node1&#45;&gt;Node2 -->
<g id="edge1" class="edge">
<title>Node1&#45;&gt;Node2</title>
<path fill="none" stroke="midnightblue" d="M218.33,-56.44C183.44,-47.16 127.61,-32.31 89.33,-22.13"/>
<polygon fill="midnightblue" stroke="midnightblue" points="90.08,-18.7 79.52,-19.52 88.28,-25.47 90.08,-18.7"/>
</g>
<!-- Node3 -->
<g id="node3" class="node">
<title>Node3</title>
<g id="a_node3"><a xlink:href="OP__GaussianBlur3x3_8hpp.html" target="_top" xlink:title="this file apply the Gaussian blur 3x3">
<polygon fill="none" stroke="black" points="113,-0.5 113,-19.5 252,-19.5 252,-0.5 113,-0.5"/>
<text text-anchor="middle" x="182.5" y="-7.5" font-family="Helvetica,sans-Serif" font-size="10.00">OP_GaussianBlur3x3.hpp</text>
</a>
</g>
</g>
<!-- Node1&#45;&gt;Node3 -->
<g id="edge2" class="edge">
<title>Node1&#45;&gt;Node3</title>
<path fill="none" stroke="midnightblue" d="M239.57,-56.32C229.33,-48.18 213.78,-35.84 201.5,-26.09"/>
<polygon fill="midnightblue" stroke="midnightblue" points="203.63,-23.31 193.62,-19.83 199.28,-28.79 203.63,-23.31"/>
</g>
<!-- Node4 -->
<g id="node4" class="node">
<title>Node4</title>
<g id="a_node4"><a xlink:href="OP__SepFilter_8hpp.html" target="_top" xlink:title="This file applies Separable filter convolution.">
<polygon fill="none" stroke="black" points="270.5,-0.5 270.5,-19.5 368.5,-19.5 368.5,-0.5 270.5,-0.5"/>
<text text-anchor="middle" x="319.5" y="-7.5" font-family="Helvetica,sans-Serif" font-size="10.00">OP_SepFilter.hpp</text>
</a>
</g>
</g>
<!-- Node1&#45;&gt;Node4 -->
<g id="edge3" class="edge">
<title>Node1&#45;&gt;Node4</title>
<path fill="none" stroke="midnightblue" d="M261.59,-56.32C271.99,-48.18 287.76,-35.84 300.22,-26.09"/>
<polygon fill="midnightblue" stroke="midnightblue" points="302.49,-28.75 308.21,-19.83 298.18,-23.24 302.49,-28.75"/>
</g>
<!-- Node5 -->
<g id="node5" class="node">
<title>Node5</title>
<g id="a_node5"><a xlink:href="OP__SepGauss3x3_8hpp.html" target="_top" xlink:title="Separable Gaussian filter for 3x3 filter size.">
<polygon fill="none" stroke="black" points="386.5,-0.5 386.5,-19.5 508.5,-19.5 508.5,-0.5 386.5,-0.5"/>
<text text-anchor="middle" x="447.5" y="-7.5" font-family="Helvetica,sans-Serif" font-size="10.00">OP_SepGauss3x3.hpp</text>
</a>
</g>
</g>
<!-- Node1&#45;&gt;Node5 -->
<g id="edge4" class="edge">
<title>Node1&#45;&gt;Node5</title>
<path fill="none" stroke="midnightblue" d="M281.72,-56.44C315.43,-47.2 369.3,-32.44 406.43,-22.26"/>
<polygon fill="midnightblue" stroke="midnightblue" points="407.71,-25.54 416.43,-19.52 405.86,-18.78 407.71,-25.54"/>
</g>
</g>
</svg>
