<?xml version="1.0" encoding="UTF-8" standalone="no"?>
<!DOCTYPE svg PUBLIC "-//W3C//DTD SVG 1.1//EN"
 "http://www.w3.org/Graphics/SVG/1.1/DTD/svg11.dtd">
<!-- Generated by graphviz version 2.36.0 (20140111.2315)
 -->
<!-- Title: ops.hpp Pages: 1 -->
<svg width="3130pt" height="140pt"
 viewBox="0.00 0.00 3130.00 140.00" xmlns="http://www.w3.org/2000/svg" xmlns:xlink="http://www.w3.org/1999/xlink">
<g id="graph0" class="graph" transform="scale(1 1) rotate(0) translate(4 136)">
<title>ops.hpp</title>
<!-- Node1 -->
<g id="node1" class="node"><title>Node1</title>
<polygon fill="#bfbfbf" stroke="black" points="1761.5,-112.5 1761.5,-131.5 1812.5,-131.5 1812.5,-112.5 1761.5,-112.5"/>
<text text-anchor="middle" x="1787" y="-119.5" font-family="Helvetica,sans-Serif" font-size="10.00">ops.hpp</text>
</g>
<!-- Node2 -->
<g id="node2" class="node"><title>Node2</title>
<g id="a_node2"><a xlink:href="ops__convert_8hpp.html" target="_top" xlink:title="This header gathers all conversion operations. ">
<polygon fill="none" stroke="black" points="519,-56.5 519,-75.5 643,-75.5 643,-56.5 519,-56.5"/>
<text text-anchor="middle" x="581" y="-63.5" font-family="Helvetica,sans-Serif" font-size="10.00">convert/ops_convert.hpp</text>
</a>
</g>
</g>
<!-- Node1&#45;&gt;Node2 -->
<g id="edge1" class="edge"><title>Node1&#45;&gt;Node2</title>
<path fill="none" stroke="midnightblue" d="M1761.25,-119.847C1615.02,-113.299 887.266,-80.7134 653.457,-70.2443"/>
<polygon fill="midnightblue" stroke="midnightblue" points="653.507,-66.7432 643.36,-69.7923 653.194,-73.7362 653.507,-66.7432"/>
</g>
<!-- Node11 -->
<g id="node11" class="node"><title>Node11</title>
<g id="a_node11"><a xlink:href="ops__conv_8hpp.html" target="_top" xlink:title="This header gathers all convolution operations. ">
<polygon fill="none" stroke="black" points="1291,-56.5 1291,-75.5 1421,-75.5 1421,-56.5 1291,-56.5"/>
<text text-anchor="middle" x="1356" y="-63.5" font-family="Helvetica,sans-Serif" font-size="10.00">convolution/ops_conv.hpp</text>
</a>
</g>
</g>
<!-- Node1&#45;&gt;Node11 -->
<g id="edge10" class="edge"><title>Node1&#45;&gt;Node11</title>
<path fill="none" stroke="midnightblue" d="M1761.33,-117.784C1697.53,-109.791 1529.84,-88.7803 1431.29,-76.4326"/>
<polygon fill="midnightblue" stroke="midnightblue" points="1431.45,-72.9256 1421.09,-75.1552 1430.58,-79.8713 1431.45,-72.9256"/>
</g>
<!-- Node16 -->
<g id="node16" class="node"><title>Node16</title>
<g id="a_node16"><a xlink:href="ops__downsampling_8hpp.html" target="_top" xlink:title="This header gathers all downsampling operations. ">
<polygon fill="none" stroke="black" points="1537,-56.5 1537,-75.5 1721,-75.5 1721,-56.5 1537,-56.5"/>
<text text-anchor="middle" x="1629" y="-63.5" font-family="Helvetica,sans-Serif" font-size="10.00">downsampling/ops_downsampling.hpp</text>
</a>
</g>
</g>
<!-- Node1&#45;&gt;Node16 -->
<g id="edge15" class="edge"><title>Node1&#45;&gt;Node16</title>
<path fill="none" stroke="midnightblue" d="M1761.96,-112.444C1735.38,-103.359 1693.19,-88.9388 1663.48,-78.7831"/>
<polygon fill="midnightblue" stroke="midnightblue" points="1664.51,-75.4386 1653.92,-75.5164 1662.25,-82.0625 1664.51,-75.4386"/>
</g>
<!-- Node19 -->
<g id="node19" class="node"><title>Node19</title>
<g id="a_node19"><a xlink:href="opencvinterop_8hpp.html" target="_top" xlink:title="This header gathers all interoperability with OpenCV operations. ">
<polygon fill="none" stroke="black" points="1739,-56.5 1739,-75.5 1835,-75.5 1835,-56.5 1739,-56.5"/>
<text text-anchor="middle" x="1787" y="-63.5" font-family="Helvetica,sans-Serif" font-size="10.00">opencvinterop.hpp</text>
</a>
</g>
</g>
<!-- Node1&#45;&gt;Node19 -->
<g id="edge18" class="edge"><title>Node1&#45;&gt;Node19</title>
<path fill="none" stroke="midnightblue" d="M1787,-112.083C1787,-105.006 1787,-94.8611 1787,-85.9865"/>
<polygon fill="midnightblue" stroke="midnightblue" points="1790.5,-85.751 1787,-75.7511 1783.5,-85.7511 1790.5,-85.751"/>
</g>
<!-- Node20 -->
<g id="node20" class="node"><title>Node20</title>
<g id="a_node20"><a xlink:href="OP__Broadcast_8hpp.html" target="_top" xlink:title="This file contains a struct to set pixel to the value passed in. ">
<polygon fill="none" stroke="black" points="1853.5,-56.5 1853.5,-75.5 1952.5,-75.5 1952.5,-56.5 1853.5,-56.5"/>
<text text-anchor="middle" x="1903" y="-63.5" font-family="Helvetica,sans-Serif" font-size="10.00">OP_Broadcast.hpp</text>
</a>
</g>
</g>
<!-- Node1&#45;&gt;Node20 -->
<g id="edge19" class="edge"><title>Node1&#45;&gt;Node20</title>
<path fill="none" stroke="midnightblue" d="M1805.38,-112.444C1824.22,-103.675 1853.73,-89.9355 1875.38,-79.8579"/>
<polygon fill="midnightblue" stroke="midnightblue" points="1877.12,-82.9098 1884.71,-75.5164 1874.16,-76.5637 1877.12,-82.9098"/>
</g>
<!-- Node21 -->
<g id="node21" class="node"><title>Node21</title>
<g id="a_node21"><a xlink:href="OP__ScaleChannel_8hpp.html" target="_top" xlink:title="This files contains structs that change different channels by factor passed via float f...">
<polygon fill="none" stroke="black" points="1971,-56.5 1971,-75.5 2087,-75.5 2087,-56.5 1971,-56.5"/>
<text text-anchor="middle" x="2029" y="-63.5" font-family="Helvetica,sans-Serif" font-size="10.00">OP_ScaleChannel.hpp</text>
</a>
</g>
</g>
<!-- Node1&#45;&gt;Node21 -->
<g id="edge20" class="edge"><title>Node1&#45;&gt;Node21</title>
<path fill="none" stroke="midnightblue" d="M1812.9,-115.221C1852.82,-106.312 1930.07,-89.0756 1980.57,-77.807"/>
<polygon fill="midnightblue" stroke="midnightblue" points="1981.61,-81.1616 1990.6,-75.5676 1980.08,-74.3296 1981.61,-81.1616"/>
</g>
<!-- Node22 -->
<g id="node22" class="node"><title>Node22</title>
<g id="a_node22"><a xlink:href="experimental_8hpp.html" target="_top" xlink:title="This header gathers all experimental operations. ">
<polygon fill="none" stroke="black" points="2379.5,-56.5 2379.5,-75.5 2528.5,-75.5 2528.5,-56.5 2379.5,-56.5"/>
<text text-anchor="middle" x="2454" y="-63.5" font-family="Helvetica,sans-Serif" font-size="10.00">experimental/experimental.hpp</text>
</a>
</g>
</g>
<!-- Node1&#45;&gt;Node22 -->
<g id="edge21" class="edge"><title>Node1&#45;&gt;Node22</title>
<path fill="none" stroke="midnightblue" d="M1812.74,-118.916C1904.3,-111.503 2216.9,-86.1957 2369.21,-73.8645"/>
<polygon fill="midnightblue" stroke="midnightblue" points="2369.77,-77.331 2379.45,-73.0354 2369.2,-70.3539 2369.77,-77.331"/>
</g>
<!-- Node3 -->
<g id="node3" class="node"><title>Node3</title>
<g id="a_node3"><a xlink:href="OP__BGRToRGB_8hpp.html" target="_top" xlink:title="it converts BGR pixel to RGB pixel ">
<polygon fill="none" stroke="black" points="0,-0.5 0,-19.5 110,-19.5 110,-0.5 0,-0.5"/>
<text text-anchor="middle" x="55" y="-7.5" font-family="Helvetica,sans-Serif" font-size="10.00">OP_BGRToRGB.hpp</text>
</a>
</g>
</g>
<!-- Node2&#45;&gt;Node3 -->
<g id="edge2" class="edge"><title>Node2&#45;&gt;Node3</title>
<path fill="none" stroke="midnightblue" d="M518.886,-59.7965C432.096,-52.3378 269.361,-37.6702 120.385,-20.1201"/>
<polygon fill="midnightblue" stroke="midnightblue" points="120.481,-16.6071 110.139,-18.9059 119.657,-23.5585 120.481,-16.6071"/>
</g>
<!-- Node4 -->
<g id="node4" class="node"><title>Node4</title>
<g id="a_node4"><a xlink:href="OP__F32C3ToU8C3_8hpp.html" target="_top" xlink:title="it converts F32C3 pixel to U8C3 pixel ">
<polygon fill="none" stroke="black" points="128.5,-0.5 128.5,-19.5 249.5,-19.5 249.5,-0.5 128.5,-0.5"/>
<text text-anchor="middle" x="189" y="-7.5" font-family="Helvetica,sans-Serif" font-size="10.00">OP_F32C3ToU8C3.hpp</text>
</a>
</g>
</g>
<!-- Node2&#45;&gt;Node4 -->
<g id="edge3" class="edge"><title>Node2&#45;&gt;Node4</title>
<path fill="none" stroke="midnightblue" d="M518.886,-56.4435C448.37,-46.7296 333.565,-30.9146 259.68,-20.7365"/>
<polygon fill="midnightblue" stroke="midnightblue" points="259.919,-17.2365 249.535,-19.339 258.964,-24.171 259.919,-17.2365"/>
</g>
<!-- Node5 -->
<g id="node5" class="node"><title>Node5</title>
<g id="a_node5"><a xlink:href="OP__HSVToRGB_8hpp.html" target="_top" xlink:title="it converts HSV pixel to RGB pixel ">
<polygon fill="none" stroke="black" points="267.5,-0.5 267.5,-19.5 376.5,-19.5 376.5,-0.5 267.5,-0.5"/>
<text text-anchor="middle" x="322" y="-7.5" font-family="Helvetica,sans-Serif" font-size="10.00">OP_HSVToRGB.hpp</text>
</a>
</g>
</g>
<!-- Node2&#45;&gt;Node5 -->
<g id="edge4" class="edge"><title>Node2&#45;&gt;Node5</title>
<path fill="none" stroke="midnightblue" d="M539.961,-56.4435C494.684,-47.0036 421.773,-31.802 372.894,-21.6111"/>
<polygon fill="midnightblue" stroke="midnightblue" points="373.351,-18.1312 362.847,-19.5164 371.922,-24.9839 373.351,-18.1312"/>
</g>
<!-- Node6 -->
<g id="node6" class="node"><title>Node6</title>
<g id="a_node6"><a xlink:href="OP__HSVToU8C3_8hpp.html" target="_top" xlink:title="it converts HSV pixel to U8C3 pixel ">
<polygon fill="none" stroke="black" points="394.5,-0.5 394.5,-19.5 507.5,-19.5 507.5,-0.5 394.5,-0.5"/>
<text text-anchor="middle" x="451" y="-7.5" font-family="Helvetica,sans-Serif" font-size="10.00">OP_HSVToU8C3.hpp</text>
</a>
</g>
</g>
<!-- Node2&#45;&gt;Node6 -->
<g id="edge5" class="edge"><title>Node2&#45;&gt;Node6</title>
<path fill="none" stroke="midnightblue" d="M560.401,-56.4435C539.007,-47.5566 505.319,-33.5632 480.976,-23.4514"/>
<polygon fill="midnightblue" stroke="midnightblue" points="482.08,-20.1203 471.503,-19.5164 479.395,-26.5848 482.08,-20.1203"/>
</g>
<!-- Node7 -->
<g id="node7" class="node"><title>Node7</title>
<g id="a_node7"><a xlink:href="OP__RGBToBGR_8hpp.html" target="_top" xlink:title="it converts RGB pixel to BGR pixel ">
<polygon fill="none" stroke="black" points="526,-0.5 526,-19.5 636,-19.5 636,-0.5 526,-0.5"/>
<text text-anchor="middle" x="581" y="-7.5" font-family="Helvetica,sans-Serif" font-size="10.00">OP_RGBToBGR.hpp</text>
</a>
</g>
</g>
<!-- Node2&#45;&gt;Node7 -->
<g id="edge6" class="edge"><title>Node2&#45;&gt;Node7</title>
<path fill="none" stroke="midnightblue" d="M581,-56.083C581,-49.0059 581,-38.8611 581,-29.9865"/>
<polygon fill="midnightblue" stroke="midnightblue" points="584.5,-29.751 581,-19.7511 577.5,-29.7511 584.5,-29.751"/>
</g>
<!-- Node8 -->
<g id="node8" class="node"><title>Node8</title>
<g id="a_node8"><a xlink:href="OP__RGBToGREY_8hpp.html" target="_top" xlink:title="it converts RGB pixel to Grey pixel ">
<polygon fill="none" stroke="black" points="654,-0.5 654,-19.5 770,-19.5 770,-0.5 654,-0.5"/>
<text text-anchor="middle" x="712" y="-7.5" font-family="Helvetica,sans-Serif" font-size="10.00">OP_RGBToGREY.hpp</text>
</a>
</g>
</g>
<!-- Node2&#45;&gt;Node8 -->
<g id="edge7" class="edge"><title>Node2&#45;&gt;Node8</title>
<path fill="none" stroke="midnightblue" d="M601.757,-56.4435C623.316,-47.5566 657.263,-33.5632 681.794,-23.4514"/>
<polygon fill="midnightblue" stroke="midnightblue" points="683.428,-26.5634 691.34,-19.5164 680.761,-20.0917 683.428,-26.5634"/>
</g>
<!-- Node9 -->
<g id="node9" class="node"><title>Node9</title>
<g id="a_node9"><a xlink:href="OP__RGBToHSV_8hpp.html" target="_top" xlink:title="it converts RGB pixel to HSV pixel ">
<polygon fill="none" stroke="black" points="788.5,-0.5 788.5,-19.5 897.5,-19.5 897.5,-0.5 788.5,-0.5"/>
<text text-anchor="middle" x="843" y="-7.5" font-family="Helvetica,sans-Serif" font-size="10.00">OP_RGBToHSV.hpp</text>
</a>
</g>
</g>
<!-- Node2&#45;&gt;Node9 -->
<g id="edge8" class="edge"><title>Node2&#45;&gt;Node9</title>
<path fill="none" stroke="midnightblue" d="M622.515,-56.4435C668.412,-46.9839 742.38,-31.7384 791.826,-21.5472"/>
<polygon fill="midnightblue" stroke="midnightblue" points="792.592,-24.9631 801.68,-19.5164 791.179,-18.1072 792.592,-24.9631"/>
</g>
<!-- Node10 -->
<g id="node10" class="node"><title>Node10</title>
<g id="a_node10"><a xlink:href="OP__U8C3ToF32C3_8hpp.html" target="_top" xlink:title="it converts U8C3 pixel to F32C3 pixel ">
<polygon fill="none" stroke="black" points="915.5,-0.5 915.5,-19.5 1036.5,-19.5 1036.5,-0.5 915.5,-0.5"/>
<text text-anchor="middle" x="976" y="-7.5" font-family="Helvetica,sans-Serif" font-size="10.00">OP_U8C3ToF32C3.hpp</text>
</a>
</g>
</g>
<!-- Node2&#45;&gt;Node10 -->
<g id="edge9" class="edge"><title>Node2&#45;&gt;Node10</title>
<path fill="none" stroke="midnightblue" d="M643.153,-56.5031C714.222,-46.7873 830.344,-30.9125 904.941,-20.7145"/>
<polygon fill="midnightblue" stroke="midnightblue" points="905.748,-24.1367 915.182,-19.3144 904.8,-17.2012 905.748,-24.1367"/>
</g>
<!-- Node12 -->
<g id="node12" class="node"><title>Node12</title>
<g id="a_node12"><a xlink:href="OP__Filter2D_8hpp.html" target="_top" xlink:title="This file apply the general convolution. ">
<polygon fill="none" stroke="black" points="1054.5,-0.5 1054.5,-19.5 1143.5,-19.5 1143.5,-0.5 1054.5,-0.5"/>
<text text-anchor="middle" x="1099" y="-7.5" font-family="Helvetica,sans-Serif" font-size="10.00">OP_Filter2D.hpp</text>
</a>
</g>
</g>
<!-- Node11&#45;&gt;Node12 -->
<g id="edge11" class="edge"><title>Node11&#45;&gt;Node12</title>
<path fill="none" stroke="midnightblue" d="M1315.28,-56.4435C1270.35,-47.0036 1198,-31.802 1149.5,-21.6111"/>
<polygon fill="midnightblue" stroke="midnightblue" points="1150.04,-18.1476 1139.53,-19.5164 1148.6,-24.998 1150.04,-18.1476"/>
</g>
<!-- Node13 -->
<g id="node13" class="node"><title>Node13</title>
<g id="a_node13"><a xlink:href="OP__GaussianBlur3x3_8hpp.html" target="_top" xlink:title="this file apply the Gaussian blur 3x3 ">
<polygon fill="none" stroke="black" points="1161.5,-0.5 1161.5,-19.5 1290.5,-19.5 1290.5,-0.5 1161.5,-0.5"/>
<text text-anchor="middle" x="1226" y="-7.5" font-family="Helvetica,sans-Serif" font-size="10.00">OP_GaussianBlur3x3.hpp</text>
</a>
</g>
</g>
<!-- Node11&#45;&gt;Node13 -->
<g id="edge12" class="edge"><title>Node11&#45;&gt;Node13</title>
<path fill="none" stroke="midnightblue" d="M1335.4,-56.4435C1314.01,-47.5566 1280.32,-33.5632 1255.98,-23.4514"/>
<polygon fill="midnightblue" stroke="midnightblue" points="1257.08,-20.1203 1246.5,-19.5164 1254.39,-26.5848 1257.08,-20.1203"/>
</g>
<!-- Node14 -->
<g id="node14" class="node"><title>Node14</title>
<g id="a_node14"><a xlink:href="OP__SepFilter_8hpp.html" target="_top" xlink:title="This file applies Separable filter convolution. ">
<polygon fill="none" stroke="black" points="1309,-0.5 1309,-19.5 1403,-19.5 1403,-0.5 1309,-0.5"/>
<text text-anchor="middle" x="1356" y="-7.5" font-family="Helvetica,sans-Serif" font-size="10.00">OP_SepFilter.hpp</text>
</a>
</g>
</g>
<!-- Node11&#45;&gt;Node14 -->
<g id="edge13" class="edge"><title>Node11&#45;&gt;Node14</title>
<path fill="none" stroke="midnightblue" d="M1356,-56.083C1356,-49.0059 1356,-38.8611 1356,-29.9865"/>
<polygon fill="midnightblue" stroke="midnightblue" points="1359.5,-29.751 1356,-19.7511 1352.5,-29.7511 1359.5,-29.751"/>
</g>
<!-- Node15 -->
<g id="node15" class="node"><title>Node15</title>
<g id="a_node15"><a xlink:href="OP__SepGauss3x3_8hpp.html" target="_top" xlink:title="Separable Gaussian filter for 3x3 filter size. ">
<polygon fill="none" stroke="black" points="1421,-0.5 1421,-19.5 1537,-19.5 1537,-0.5 1421,-0.5"/>
<text text-anchor="middle" x="1479" y="-7.5" font-family="Helvetica,sans-Serif" font-size="10.00">OP_SepGauss3x3.hpp</text>
</a>
</g>
</g>
<!-- Node11&#45;&gt;Node15 -->
<g id="edge14" class="edge"><title>Node11&#45;&gt;Node15</title>
<path fill="none" stroke="midnightblue" d="M1375.49,-56.4435C1395.64,-47.5961 1427.32,-33.6875 1450.33,-23.5865"/>
<polygon fill="midnightblue" stroke="midnightblue" points="1451.85,-26.7411 1459.6,-19.5164 1449.04,-20.3316 1451.85,-26.7411"/>
</g>
<!-- Node17 -->
<g id="node17" class="node"><title>Node17</title>
<g id="a_node17"><a xlink:href="OP__DownsampleAverage_8hpp.html" target="_top" xlink:title="This file contains the downsampling filter using average technique. ">
<polygon fill="none" stroke="black" points="1555,-0.5 1555,-19.5 1703,-19.5 1703,-0.5 1555,-0.5"/>
<text text-anchor="middle" x="1629" y="-7.5" font-family="Helvetica,sans-Serif" font-size="10.00">OP_DownsampleAverage.hpp</text>
</a>
</g>
</g>
<!-- Node16&#45;&gt;Node17 -->
<g id="edge16" class="edge"><title>Node16&#45;&gt;Node17</title>
<path fill="none" stroke="midnightblue" d="M1629,-56.083C1629,-49.0059 1629,-38.8611 1629,-29.9865"/>
<polygon fill="midnightblue" stroke="midnightblue" points="1632.5,-29.751 1629,-19.7511 1625.5,-29.7511 1632.5,-29.751"/>
</g>
<!-- Node18 -->
<g id="node18" class="node"><title>Node18</title>
<g id="a_node18"><a xlink:href="OP__DownsampleClosest_8hpp.html" target="_top" xlink:title="This files contains downsampling filter using closest technique If the number of channel is different...">
<polygon fill="none" stroke="black" points="1721,-0.5 1721,-19.5 1867,-19.5 1867,-0.5 1721,-0.5"/>
<text text-anchor="middle" x="1794" y="-7.5" font-family="Helvetica,sans-Serif" font-size="10.00">OP_DownsampleClosest.hpp</text>
</a>
</g>
</g>
<!-- Node16&#45;&gt;Node18 -->
<g id="edge17" class="edge"><title>Node16&#45;&gt;Node18</title>
<path fill="none" stroke="midnightblue" d="M1655.14,-56.4435C1683.02,-47.3196 1727.35,-32.8133 1758.4,-22.6509"/>
<polygon fill="midnightblue" stroke="midnightblue" points="1759.56,-25.9533 1767.98,-19.5164 1757.38,-19.3005 1759.56,-25.9533"/>
</g>
<!-- Node23 -->
<g id="node23" class="node"><title>Node23</title>
<g id="a_node23"><a xlink:href="OP__AbsSub_8hpp.html" target="_top" xlink:title="It gets the absolute difference between 2 images. ">
<polygon fill="none" stroke="black" points="1885.5,-0.5 1885.5,-19.5 1974.5,-19.5 1974.5,-0.5 1885.5,-0.5"/>
<text text-anchor="middle" x="1930" y="-7.5" font-family="Helvetica,sans-Serif" font-size="10.00">OP_AbsSub.hpp</text>
</a>
</g>
</g>
<!-- Node22&#45;&gt;Node23 -->
<g id="edge22" class="edge"><title>Node22&#45;&gt;Node23</title>
<path fill="none" stroke="midnightblue" d="M2379.34,-59.4667C2288.56,-52.3762 2130.48,-38.8636 1984.78,-20.0134"/>
<polygon fill="midnightblue" stroke="midnightblue" points="1985.12,-16.5289 1974.75,-18.7056 1984.22,-23.4701 1985.12,-16.5289"/>
</g>
<!-- Node24 -->
<g id="node24" class="node"><title>Node24</title>
<g id="a_node24"><a xlink:href="OP__Add_8hpp.html" target="_top" xlink:title="It adds the values pixel by pixel of two images. ">
<polygon fill="none" stroke="black" points="1993,-0.5 1993,-19.5 2065,-19.5 2065,-0.5 1993,-0.5"/>
<text text-anchor="middle" x="2029" y="-7.5" font-family="Helvetica,sans-Serif" font-size="10.00">OP_Add.hpp</text>
</a>
</g>
</g>
<!-- Node22&#45;&gt;Node24 -->
<g id="edge23" class="edge"><title>Node22&#45;&gt;Node24</title>
<path fill="none" stroke="midnightblue" d="M2379.49,-57.945C2304.95,-50.4853 2186.8,-37.5747 2075.37,-20.1121"/>
<polygon fill="midnightblue" stroke="midnightblue" points="2075.73,-16.6248 2065.3,-18.5185 2074.63,-23.5387 2075.73,-16.6248"/>
</g>
<!-- Node25 -->
<g id="node25" class="node"><title>Node25</title>
<g id="a_node25"><a xlink:href="OP__AniDiff_8hpp.html" target="_top" xlink:title="It applies a simplified version of the anisotropic diffusion. ">
<polygon fill="none" stroke="black" points="2083.5,-0.5 2083.5,-19.5 2168.5,-19.5 2168.5,-0.5 2083.5,-0.5"/>
<text text-anchor="middle" x="2126" y="-7.5" font-family="Helvetica,sans-Serif" font-size="10.00">OP_AniDiff.hpp</text>
</a>
</g>
</g>
<!-- Node22&#45;&gt;Node25 -->
<g id="edge24" class="edge"><title>Node22&#45;&gt;Node25</title>
<path fill="none" stroke="midnightblue" d="M2400.81,-56.4849C2347.32,-47.8882 2262.23,-34.1136 2178.5,-20.0702"/>
<polygon fill="midnightblue" stroke="midnightblue" points="2179,-16.606 2168.56,-18.4012 2177.84,-23.5093 2179,-16.606"/>
</g>
<!-- Node26 -->
<g id="node26" class="node"><title>Node26</title>
<g id="a_node26"><a xlink:href="OP__Div_8hpp.html" target="_top" xlink:title="It divides two matrices element&#45;wise. ">
<polygon fill="none" stroke="black" points="2187,-0.5 2187,-19.5 2257,-19.5 2257,-0.5 2187,-0.5"/>
<text text-anchor="middle" x="2222" y="-7.5" font-family="Helvetica,sans-Serif" font-size="10.00">OP_Div.hpp</text>
</a>
</g>
</g>
<!-- Node22&#45;&gt;Node26 -->
<g id="edge25" class="edge"><title>Node22&#45;&gt;Node26</title>
<path fill="none" stroke="midnightblue" d="M2417.24,-56.4435C2376.46,-46.9525 2310.66,-31.6372 2266.88,-21.446"/>
<polygon fill="midnightblue" stroke="midnightblue" points="2267.6,-18.0211 2257.07,-19.1629 2266.02,-24.8389 2267.6,-18.0211"/>
</g>
<!-- Node27 -->
<g id="node27" class="node"><title>Node27</title>
<g id="a_node27"><a xlink:href="OP__FloatToF32C3_8hpp.html" target="_top" xlink:title="Converts from uchar to float and float to uchar. ">
<polygon fill="none" stroke="black" points="2275.5,-0.5 2275.5,-19.5 2392.5,-19.5 2392.5,-0.5 2275.5,-0.5"/>
<text text-anchor="middle" x="2334" y="-7.5" font-family="Helvetica,sans-Serif" font-size="10.00">OP_FloatToF32C3.hpp</text>
</a>
</g>
</g>
<!-- Node22&#45;&gt;Node27 -->
<g id="edge26" class="edge"><title>Node22&#45;&gt;Node27</title>
<path fill="none" stroke="midnightblue" d="M2434.99,-56.4435C2415.41,-47.6356 2384.69,-33.8116 2362.27,-23.722"/>
<polygon fill="midnightblue" stroke="midnightblue" points="2363.48,-20.4284 2352.93,-19.5164 2360.61,-26.8119 2363.48,-20.4284"/>
</g>
<!-- Node28 -->
<g id="node28" class="node"><title>Node28</title>
<g id="a_node28"><a xlink:href="OP__Median_8hpp.html" target="_top" xlink:title="It applies the median filter in an image. ">
<polygon fill="none" stroke="black" points="2411,-0.5 2411,-19.5 2497,-19.5 2497,-0.5 2411,-0.5"/>
<text text-anchor="middle" x="2454" y="-7.5" font-family="Helvetica,sans-Serif" font-size="10.00">OP_Median.hpp</text>
</a>
</g>
</g>
<!-- Node22&#45;&gt;Node28 -->
<g id="edge27" class="edge"><title>Node22&#45;&gt;Node28</title>
<path fill="none" stroke="midnightblue" d="M2454,-56.083C2454,-49.0059 2454,-38.8611 2454,-29.9865"/>
<polygon fill="midnightblue" stroke="midnightblue" points="2457.5,-29.751 2454,-19.7511 2450.5,-29.7511 2457.5,-29.751"/>
</g>
<!-- Node29 -->
<g id="node29" class="node"><title>Node29</title>
<g id="a_node29"><a xlink:href="OP__Merge2Chns_8hpp.html" target="_top" xlink:title="It merges 2 matrices of one channels into one matrix of 2 channels. ">
<polygon fill="none" stroke="black" points="2515,-0.5 2515,-19.5 2625,-19.5 2625,-0.5 2515,-0.5"/>
<text text-anchor="middle" x="2570" y="-7.5" font-family="Helvetica,sans-Serif" font-size="10.00">OP_Merge2Chns.hpp</text>
</a>
</g>
</g>
<!-- Node22&#45;&gt;Node29 -->
<g id="edge28" class="edge"><title>Node22&#45;&gt;Node29</title>
<path fill="none" stroke="midnightblue" d="M2472.38,-56.4435C2491.22,-47.6751 2520.73,-33.9355 2542.38,-23.8579"/>
<polygon fill="midnightblue" stroke="midnightblue" points="2544.12,-26.9098 2551.71,-19.5164 2541.16,-20.5637 2544.12,-26.9098"/>
</g>
<!-- Node30 -->
<g id="node30" class="node"><title>Node30</title>
<g id="a_node30"><a xlink:href="OP__Mul_8hpp.html" target="_top" xlink:title="Element&#45;wise matrix multiplication. ">
<polygon fill="none" stroke="black" points="2643.5,-0.5 2643.5,-19.5 2714.5,-19.5 2714.5,-0.5 2643.5,-0.5"/>
<text text-anchor="middle" x="2679" y="-7.5" font-family="Helvetica,sans-Serif" font-size="10.00">OP_Mul.hpp</text>
</a>
</g>
</g>
<!-- Node22&#45;&gt;Node30 -->
<g id="edge29" class="edge"><title>Node22&#45;&gt;Node30</title>
<path fill="none" stroke="midnightblue" d="M2489.65,-56.4435C2528.66,-47.0826 2591.27,-32.0561 2633.72,-21.868"/>
<polygon fill="midnightblue" stroke="midnightblue" points="2634.61,-25.2536 2643.51,-19.5164 2632.97,-18.4469 2634.61,-25.2536"/>
</g>
<!-- Node31 -->
<g id="node31" class="node"><title>Node31</title>
<g id="a_node31"><a xlink:href="OP__PowerOf2_8hpp.html" target="_top" xlink:title="It calculates the power of 2 of a matrix. ">
<polygon fill="none" stroke="black" points="2733,-0.5 2733,-19.5 2831,-19.5 2831,-0.5 2733,-0.5"/>
<text text-anchor="middle" x="2782" y="-7.5" font-family="Helvetica,sans-Serif" font-size="10.00">OP_PowerOf2.hpp</text>
</a>
</g>
</g>
<!-- Node22&#45;&gt;Node31 -->
<g id="edge30" class="edge"><title>Node22&#45;&gt;Node31</title>
<path fill="none" stroke="midnightblue" d="M2505.97,-56.4435C2565.01,-46.7245 2661.14,-30.8981 2722.96,-20.7206"/>
<polygon fill="midnightblue" stroke="midnightblue" points="2723.65,-24.1535 2732.95,-19.0755 2722.51,-17.2465 2723.65,-24.1535"/>
</g>
<!-- Node32 -->
<g id="node32" class="node"><title>Node32</title>
<g id="a_node32"><a xlink:href="OP__Scale_8hpp.html" target="_top" xlink:title="It scales the pixel value of an image by a factor. ">
<polygon fill="none" stroke="black" points="2849,-0.5 2849,-19.5 2929,-19.5 2929,-0.5 2849,-0.5"/>
<text text-anchor="middle" x="2889" y="-7.5" font-family="Helvetica,sans-Serif" font-size="10.00">OP_Scale.hpp</text>
</a>
</g>
</g>
<!-- Node22&#45;&gt;Node32 -->
<g id="edge31" class="edge"><title>Node22&#45;&gt;Node32</title>
<path fill="none" stroke="midnightblue" d="M2528.71,-57.6487C2606.41,-49.6796 2731.49,-35.9429 2839,-20 2839.1,-19.985 2839.2,-19.97 2839.3,-19.955"/>
<polygon fill="midnightblue" stroke="midnightblue" points="2839.59,-23.4537 2848.92,-18.4393 2838.5,-16.5391 2839.59,-23.4537"/>
</g>
<!-- Node33 -->
<g id="node33" class="node"><title>Node33</title>
<g id="a_node33"><a xlink:href="OP__Sub_8hpp.html" target="_top" xlink:title="It calculates the difference between 2 images. ">
<polygon fill="none" stroke="black" points="2947,-0.5 2947,-19.5 3019,-19.5 3019,-0.5 2947,-0.5"/>
<text text-anchor="middle" x="2983" y="-7.5" font-family="Helvetica,sans-Serif" font-size="10.00">OP_Sub.hpp</text>
</a>
</g>
</g>
<!-- Node22&#45;&gt;Node33 -->
<g id="edge32" class="edge"><title>Node22&#45;&gt;Node33</title>
<path fill="none" stroke="midnightblue" d="M2528.91,-60.4764C2622.13,-54.3003 2786.37,-41.6275 2936.39,-20.0958"/>
<polygon fill="midnightblue" stroke="midnightblue" points="2937.31,-23.4984 2946.71,-18.5976 2936.31,-16.5711 2937.31,-23.4984"/>
</g>
<!-- Node34 -->
<g id="node34" class="node"><title>Node34</title>
<g id="a_node34"><a xlink:href="OP__Thresh_8hpp.html" target="_top" xlink:title="it applies a threshold operation in the image ">
<polygon fill="none" stroke="black" points="3037.5,-0.5 3037.5,-19.5 3122.5,-19.5 3122.5,-0.5 3037.5,-0.5"/>
<text text-anchor="middle" x="3080" y="-7.5" font-family="Helvetica,sans-Serif" font-size="10.00">OP_Thresh.hpp</text>
</a>
</g>
</g>
<!-- Node22&#45;&gt;Node34 -->
<g id="edge33" class="edge"><title>Node22&#45;&gt;Node34</title>
<path fill="none" stroke="midnightblue" d="M2528.53,-61.3788C2636.3,-55.6486 2842.08,-42.8579 3027.55,-19.9315"/>
<polygon fill="midnightblue" stroke="midnightblue" points="3027.99,-23.403 3037.48,-18.6911 3027.12,-16.457 3027.99,-23.403"/>
</g>
</g>
</svg>
