<?xml version="1.0" encoding="UTF-8" standalone="no"?>
<!DOCTYPE svg PUBLIC "-//W3C//DTD SVG 1.1//EN"
 "http://www.w3.org/Graphics/SVG/1.1/DTD/svg11.dtd">
<!-- Generated by graphviz version 2.43.0 (0)
 -->
<!-- Title: ops_downsampling.hpp Pages: 1 -->
<svg width="139pt" height="140pt"
 viewBox="0.00 0.00 139.00 140.00" xmlns="http://www.w3.org/2000/svg" xmlns:xlink="http://www.w3.org/1999/xlink">
<g id="graph0" class="graph" transform="scale(1 1) rotate(0) translate(4 136)">
<title>ops_downsampling.hpp</title>
<!-- Node1 -->
<g id="node1" class="node">
<title>Node1</title>
<g id="a_node1"><a xlink:title="This header gathers all downsampling operations.">
<polygon fill="#bfbfbf" stroke="black" points="0,-112.5 0,-131.5 131,-131.5 131,-112.5 0,-112.5"/>
<text text-anchor="middle" x="65.5" y="-119.5" font-family="Helvetica,sans-Serif" font-size="10.00">ops_downsampling.hpp</text>
</a>
</g>
</g>
<!-- Node2 -->
<g id="node2" class="node">
<title>Node2</title>
<g id="a_node2"><a xlink:href="ops_8hpp.html" target="_top" xlink:title="This header gathers all operations available in VisionCpp.">
<polygon fill="none" stroke="black" points="38,-56.5 38,-75.5 93,-75.5 93,-56.5 38,-56.5"/>
<text text-anchor="middle" x="65.5" y="-63.5" font-family="Helvetica,sans-Serif" font-size="10.00">ops.hpp</text>
</a>
</g>
</g>
<!-- Node1&#45;&gt;Node2 -->
<g id="edge1" class="edge">
<title>Node1&#45;&gt;Node2</title>
<path fill="none" stroke="midnightblue" d="M65.5,-101.8C65.5,-92.91 65.5,-82.78 65.5,-75.75"/>
<polygon fill="midnightblue" stroke="midnightblue" points="62,-102.08 65.5,-112.08 69,-102.08 62,-102.08"/>
</g>
<!-- Node3 -->
<g id="node3" class="node">
<title>Node3</title>
<g id="a_node3"><a xlink:href="visioncpp_8hpp.html" target="_top" xlink:title="This file is collection of headers that makes VisionCpp library.">
<polygon fill="none" stroke="black" points="23.5,-0.5 23.5,-19.5 107.5,-19.5 107.5,-0.5 23.5,-0.5"/>
<text text-anchor="middle" x="65.5" y="-7.5" font-family="Helvetica,sans-Serif" font-size="10.00">visioncpp.hpp</text>
</a>
</g>
</g>
<!-- Node2&#45;&gt;Node3 -->
<g id="edge2" class="edge">
<title>Node2&#45;&gt;Node3</title>
<path fill="none" stroke="midnightblue" d="M65.5,-45.8C65.5,-36.91 65.5,-26.78 65.5,-19.75"/>
<polygon fill="midnightblue" stroke="midnightblue" points="62,-46.08 65.5,-56.08 69,-46.08 62,-46.08"/>
</g>
</g>
</svg>
