<?xml version="1.0" encoding="UTF-8" standalone="no"?>
<!DOCTYPE svg PUBLIC "-//W3C//DTD SVG 1.1//EN"
 "http://www.w3.org/Graphics/SVG/1.1/DTD/svg11.dtd">
<!-- Generated by graphviz version 2.36.0 (20140111.2315)
 -->
<!-- Title: ops_downsampling.hpp Pages: 1 -->
<svg width="320pt" height="84pt"
 viewBox="0.00 0.00 320.00 84.00" xmlns="http://www.w3.org/2000/svg" xmlns:xlink="http://www.w3.org/1999/xlink">
<g id="graph0" class="graph" transform="scale(1 1) rotate(0) translate(4 80)">
<title>ops_downsampling.hpp</title>
<!-- Node1 -->
<g id="node1" class="node"><title>Node1</title>
<polygon fill="#bfbfbf" stroke="black" points="96.5,-56.5 96.5,-75.5 215.5,-75.5 215.5,-56.5 96.5,-56.5"/>
<text text-anchor="middle" x="156" y="-63.5" font-family="Helvetica,sans-Serif" font-size="10.00">ops_downsampling.hpp</text>
</g>
<!-- Node2 -->
<g id="node2" class="node"><title>Node2</title>
<g id="a_node2"><a xlink:href="OP__DownsampleAverage_8hpp.html" target="_top" xlink:title="This file contains the downsampling filter using average technique. ">
<polygon fill="none" stroke="black" points="0,-0.5 0,-19.5 148,-19.5 148,-0.5 0,-0.5"/>
<text text-anchor="middle" x="74" y="-7.5" font-family="Helvetica,sans-Serif" font-size="10.00">OP_DownsampleAverage.hpp</text>
</a>
</g>
</g>
<!-- Node1&#45;&gt;Node2 -->
<g id="edge1" class="edge"><title>Node1&#45;&gt;Node2</title>
<path fill="none" stroke="midnightblue" d="M142.825,-56.324C130.153,-47.979 110.767,-35.2122 95.7944,-25.3524"/>
<polygon fill="midnightblue" stroke="midnightblue" points="97.4187,-22.2313 87.142,-19.6545 93.5688,-28.0776 97.4187,-22.2313"/>
</g>
<!-- Node3 -->
<g id="node3" class="node"><title>Node3</title>
<g id="a_node3"><a xlink:href="OP__DownsampleClosest_8hpp.html" target="_top" xlink:title="This files contains downsampling filter using closest technique If the number of channel is different...">
<polygon fill="none" stroke="black" points="166,-0.5 166,-19.5 312,-19.5 312,-0.5 166,-0.5"/>
<text text-anchor="middle" x="239" y="-7.5" font-family="Helvetica,sans-Serif" font-size="10.00">OP_DownsampleClosest.hpp</text>
</a>
</g>
</g>
<!-- Node1&#45;&gt;Node3 -->
<g id="edge2" class="edge"><title>Node1&#45;&gt;Node3</title>
<path fill="none" stroke="midnightblue" d="M169.335,-56.324C182.162,-47.979 201.785,-35.2122 216.94,-25.3524"/>
<polygon fill="midnightblue" stroke="midnightblue" points="219.224,-28.0417 225.698,-19.6545 215.407,-22.1742 219.224,-28.0417"/>
</g>
</g>
</svg>
