<?xml version="1.0" encoding="UTF-8" standalone="no"?>
<!DOCTYPE svg PUBLIC "-//W3C//DTD SVG 1.1//EN"
 "http://www.w3.org/Graphics/SVG/1.1/DTD/svg11.dtd">
<!-- Generated by graphviz version 2.36.0 (20140111.2315)
 -->
<!-- Title: ops_convert.hpp Pages: 1 -->
<svg width="1044pt" height="84pt"
 viewBox="0.00 0.00 1044.00 84.00" xmlns="http://www.w3.org/2000/svg" xmlns:xlink="http://www.w3.org/1999/xlink">
<g id="graph0" class="graph" transform="scale(1 1) rotate(0) translate(4 80)">
<title>ops_convert.hpp</title>
<!-- Node1 -->
<g id="node1" class="node"><title>Node1</title>
<polygon fill="#bfbfbf" stroke="black" points="471.5,-56.5 471.5,-75.5 560.5,-75.5 560.5,-56.5 471.5,-56.5"/>
<text text-anchor="middle" x="516" y="-63.5" font-family="Helvetica,sans-Serif" font-size="10.00">ops_convert.hpp</text>
</g>
<!-- Node2 -->
<g id="node2" class="node"><title>Node2</title>
<g id="a_node2"><a xlink:href="OP__BGRToRGB_8hpp.html" target="_top" xlink:title="it converts BGR pixel to RGB pixel ">
<polygon fill="none" stroke="black" points="0,-0.5 0,-19.5 110,-19.5 110,-0.5 0,-0.5"/>
<text text-anchor="middle" x="55" y="-7.5" font-family="Helvetica,sans-Serif" font-size="10.00">OP_BGRToRGB.hpp</text>
</a>
</g>
</g>
<!-- Node1&#45;&gt;Node2 -->
<g id="edge1" class="edge"><title>Node1&#45;&gt;Node2</title>
<path fill="none" stroke="midnightblue" d="M471.3,-60.3286C399.55,-52.7438 253.979,-36.9998 120.168,-20.1198"/>
<polygon fill="midnightblue" stroke="midnightblue" points="120.506,-16.6348 110.145,-18.8506 119.626,-23.5793 120.506,-16.6348"/>
</g>
<!-- Node3 -->
<g id="node3" class="node"><title>Node3</title>
<g id="a_node3"><a xlink:href="OP__F32C3ToU8C3_8hpp.html" target="_top" xlink:title="it converts F32C3 pixel to U8C3 pixel ">
<polygon fill="none" stroke="black" points="128.5,-0.5 128.5,-19.5 249.5,-19.5 249.5,-0.5 128.5,-0.5"/>
<text text-anchor="middle" x="189" y="-7.5" font-family="Helvetica,sans-Serif" font-size="10.00">OP_F32C3ToU8C3.hpp</text>
</a>
</g>
</g>
<!-- Node1&#45;&gt;Node3 -->
<g id="edge2" class="edge"><title>Node1&#45;&gt;Node3</title>
<path fill="none" stroke="midnightblue" d="M471.218,-57.6048C414.019,-48.1591 314.763,-31.7682 250.504,-21.1567"/>
<polygon fill="midnightblue" stroke="midnightblue" points="250.94,-17.6813 240.503,-19.5052 249.8,-24.5878 250.94,-17.6813"/>
</g>
<!-- Node4 -->
<g id="node4" class="node"><title>Node4</title>
<g id="a_node4"><a xlink:href="OP__HSVToRGB_8hpp.html" target="_top" xlink:title="it converts HSV pixel to RGB pixel ">
<polygon fill="none" stroke="black" points="267.5,-0.5 267.5,-19.5 376.5,-19.5 376.5,-0.5 267.5,-0.5"/>
<text text-anchor="middle" x="322" y="-7.5" font-family="Helvetica,sans-Serif" font-size="10.00">OP_HSVToRGB.hpp</text>
</a>
</g>
</g>
<!-- Node1&#45;&gt;Node4 -->
<g id="edge3" class="edge"><title>Node1&#45;&gt;Node4</title>
<path fill="none" stroke="midnightblue" d="M485.26,-56.4435C452.056,-47.2011 399.009,-32.4356 362.443,-22.2572"/>
<polygon fill="midnightblue" stroke="midnightblue" points="363.168,-18.8262 352.596,-19.5164 361.291,-25.5699 363.168,-18.8262"/>
</g>
<!-- Node5 -->
<g id="node5" class="node"><title>Node5</title>
<g id="a_node5"><a xlink:href="OP__HSVToU8C3_8hpp.html" target="_top" xlink:title="it converts HSV pixel to U8C3 pixel ">
<polygon fill="none" stroke="black" points="394.5,-0.5 394.5,-19.5 507.5,-19.5 507.5,-0.5 394.5,-0.5"/>
<text text-anchor="middle" x="451" y="-7.5" font-family="Helvetica,sans-Serif" font-size="10.00">OP_HSVToU8C3.hpp</text>
</a>
</g>
</g>
<!-- Node1&#45;&gt;Node5 -->
<g id="edge4" class="edge"><title>Node1&#45;&gt;Node5</title>
<path fill="none" stroke="midnightblue" d="M505.557,-56.324C495.854,-48.2631 481.185,-36.0765 469.5,-26.3695"/>
<polygon fill="midnightblue" stroke="midnightblue" points="471.562,-23.532 461.633,-19.8339 467.089,-28.9163 471.562,-23.532"/>
</g>
<!-- Node6 -->
<g id="node6" class="node"><title>Node6</title>
<g id="a_node6"><a xlink:href="OP__RGBToBGR_8hpp.html" target="_top" xlink:title="it converts RGB pixel to BGR pixel ">
<polygon fill="none" stroke="black" points="526,-0.5 526,-19.5 636,-19.5 636,-0.5 526,-0.5"/>
<text text-anchor="middle" x="581" y="-7.5" font-family="Helvetica,sans-Serif" font-size="10.00">OP_RGBToBGR.hpp</text>
</a>
</g>
</g>
<!-- Node1&#45;&gt;Node6 -->
<g id="edge5" class="edge"><title>Node1&#45;&gt;Node6</title>
<path fill="none" stroke="midnightblue" d="M526.443,-56.324C536.146,-48.2631 550.815,-36.0765 562.5,-26.3695"/>
<polygon fill="midnightblue" stroke="midnightblue" points="564.911,-28.9163 570.367,-19.8339 560.438,-23.532 564.911,-28.9163"/>
</g>
<!-- Node7 -->
<g id="node7" class="node"><title>Node7</title>
<g id="a_node7"><a xlink:href="OP__RGBToGREY_8hpp.html" target="_top" xlink:title="it converts RGB pixel to Grey pixel ">
<polygon fill="none" stroke="black" points="654,-0.5 654,-19.5 770,-19.5 770,-0.5 654,-0.5"/>
<text text-anchor="middle" x="712" y="-7.5" font-family="Helvetica,sans-Serif" font-size="10.00">OP_RGBToGREY.hpp</text>
</a>
</g>
</g>
<!-- Node1&#45;&gt;Node7 -->
<g id="edge6" class="edge"><title>Node1&#45;&gt;Node7</title>
<path fill="none" stroke="midnightblue" d="M547.057,-56.4435C580.603,-47.2011 634.197,-32.4356 671.141,-22.2572"/>
<polygon fill="midnightblue" stroke="midnightblue" points="672.377,-25.5469 681.089,-19.5164 670.518,-18.7984 672.377,-25.5469"/>
</g>
<!-- Node8 -->
<g id="node8" class="node"><title>Node8</title>
<g id="a_node8"><a xlink:href="OP__RGBToHSV_8hpp.html" target="_top" xlink:title="it converts RGB pixel to HSV pixel ">
<polygon fill="none" stroke="black" points="788.5,-0.5 788.5,-19.5 897.5,-19.5 897.5,-0.5 788.5,-0.5"/>
<text text-anchor="middle" x="843" y="-7.5" font-family="Helvetica,sans-Serif" font-size="10.00">OP_RGBToHSV.hpp</text>
</a>
</g>
</g>
<!-- Node1&#45;&gt;Node8 -->
<g id="edge7" class="edge"><title>Node1&#45;&gt;Node8</title>
<path fill="none" stroke="midnightblue" d="M560.782,-57.6048C617.981,-48.1591 717.237,-31.7682 781.496,-21.1567"/>
<polygon fill="midnightblue" stroke="midnightblue" points="782.2,-24.5878 791.497,-19.5052 781.06,-17.6813 782.2,-24.5878"/>
</g>
<!-- Node9 -->
<g id="node9" class="node"><title>Node9</title>
<g id="a_node9"><a xlink:href="OP__U8C3ToF32C3_8hpp.html" target="_top" xlink:title="it converts U8C3 pixel to F32C3 pixel ">
<polygon fill="none" stroke="black" points="915.5,-0.5 915.5,-19.5 1036.5,-19.5 1036.5,-0.5 915.5,-0.5"/>
<text text-anchor="middle" x="976" y="-7.5" font-family="Helvetica,sans-Serif" font-size="10.00">OP_U8C3ToF32C3.hpp</text>
</a>
</g>
</g>
<!-- Node1&#45;&gt;Node9 -->
<g id="edge8" class="edge"><title>Node1&#45;&gt;Node9</title>
<path fill="none" stroke="midnightblue" d="M560.767,-60.0259C631.461,-52.1292 773.553,-36.0873 905.046,-20.1024"/>
<polygon fill="midnightblue" stroke="midnightblue" points="905.796,-23.5369 915.3,-18.8533 904.95,-16.5883 905.796,-23.5369"/>
</g>
</g>
</svg>
