<?xml version="1.0" encoding="UTF-8" standalone="no"?>
<!DOCTYPE svg PUBLIC "-//W3C//DTD SVG 1.1//EN"
 "http://www.w3.org/Graphics/SVG/1.1/DTD/svg11.dtd">
<!-- Generated by graphviz version 2.43.0 (0)
 -->
<!-- Title: ops_convert.hpp Pages: 1 -->
<svg width="1041pt" height="84pt"
 viewBox="0.00 0.00 1041.00 84.00" xmlns="http://www.w3.org/2000/svg" xmlns:xlink="http://www.w3.org/1999/xlink">
<g id="graph0" class="graph" transform="scale(1 1) rotate(0) translate(4 80)">
<title>ops_convert.hpp</title>
<!-- Node1 -->
<g id="node1" class="node">
<title>Node1</title>
<g id="a_node1"><a xlink:title="This header gathers all conversion operations.">
<polygon fill="#bfbfbf" stroke="black" points="466.5,-56.5 466.5,-75.5 563.5,-75.5 563.5,-56.5 466.5,-56.5"/>
<text text-anchor="middle" x="515" y="-63.5" font-family="Helvetica,sans-Serif" font-size="10.00">ops_convert.hpp</text>
</a>
</g>
</g>
<!-- Node2 -->
<g id="node2" class="node">
<title>Node2</title>
<g id="a_node2"><a xlink:href="OP__BGRToRGB_8hpp.html" target="_top" xlink:title="it converts BGR pixel to RGB pixel">
<polygon fill="none" stroke="black" points="0,-0.5 0,-19.5 108,-19.5 108,-0.5 0,-0.5"/>
<text text-anchor="middle" x="54" y="-7.5" font-family="Helvetica,sans-Serif" font-size="10.00">OP_BGRToRGB.hpp</text>
</a>
</g>
</g>
<!-- Node1&#45;&gt;Node2 -->
<g id="edge1" class="edge">
<title>Node1&#45;&gt;Node2</title>
<path fill="none" stroke="midnightblue" d="M466.24,-59.95C393.05,-52.27 250.2,-36.89 118.55,-20.17"/>
<polygon fill="midnightblue" stroke="midnightblue" points="118.65,-16.65 108.28,-18.86 117.76,-23.6 118.65,-16.65"/>
</g>
<!-- Node3 -->
<g id="node3" class="node">
<title>Node3</title>
<g id="a_node3"><a xlink:href="OP__F32C3ToU8C3_8hpp.html" target="_top" xlink:title="it converts F32C3 pixel to U8C3 pixel">
<polygon fill="none" stroke="black" points="126,-0.5 126,-19.5 250,-19.5 250,-0.5 126,-0.5"/>
<text text-anchor="middle" x="188" y="-7.5" font-family="Helvetica,sans-Serif" font-size="10.00">OP_F32C3ToU8C3.hpp</text>
</a>
</g>
</g>
<!-- Node1&#45;&gt;Node3 -->
<g id="edge2" class="edge">
<title>Node1&#45;&gt;Node3</title>
<path fill="none" stroke="midnightblue" d="M466.4,-56.97C408.76,-47.46 312.6,-31.58 249.75,-21.2"/>
<polygon fill="midnightblue" stroke="midnightblue" points="250.01,-17.69 239.57,-19.52 248.87,-24.6 250.01,-17.69"/>
</g>
<!-- Node4 -->
<g id="node4" class="node">
<title>Node4</title>
<g id="a_node4"><a xlink:href="OP__HSVToRGB_8hpp.html" target="_top" xlink:title="it converts HSV pixel to RGB pixel">
<polygon fill="none" stroke="black" points="268,-0.5 268,-19.5 376,-19.5 376,-0.5 268,-0.5"/>
<text text-anchor="middle" x="322" y="-7.5" font-family="Helvetica,sans-Serif" font-size="10.00">OP_HSVToRGB.hpp</text>
</a>
</g>
</g>
<!-- Node1&#45;&gt;Node4 -->
<g id="edge3" class="edge">
<title>Node1&#45;&gt;Node4</title>
<path fill="none" stroke="midnightblue" d="M484.42,-56.44C451.39,-47.2 398.61,-32.44 362.23,-22.26"/>
<polygon fill="midnightblue" stroke="midnightblue" points="363.01,-18.84 352.44,-19.52 361.13,-25.58 363.01,-18.84"/>
</g>
<!-- Node5 -->
<g id="node5" class="node">
<title>Node5</title>
<g id="a_node5"><a xlink:href="OP__HSVToU8C3_8hpp.html" target="_top" xlink:title="it converts HSV pixel to U8C3 pixel">
<polygon fill="none" stroke="black" points="394.5,-0.5 394.5,-19.5 507.5,-19.5 507.5,-0.5 394.5,-0.5"/>
<text text-anchor="middle" x="451" y="-7.5" font-family="Helvetica,sans-Serif" font-size="10.00">OP_HSVToU8C3.hpp</text>
</a>
</g>
</g>
<!-- Node1&#45;&gt;Node5 -->
<g id="edge4" class="edge">
<title>Node1&#45;&gt;Node5</title>
<path fill="none" stroke="midnightblue" d="M504.72,-56.32C495.16,-48.26 480.72,-36.08 469.22,-26.37"/>
<polygon fill="midnightblue" stroke="midnightblue" points="471.37,-23.61 461.47,-19.83 466.86,-28.96 471.37,-23.61"/>
</g>
<!-- Node6 -->
<g id="node6" class="node">
<title>Node6</title>
<g id="a_node6"><a xlink:href="OP__RGBToBGR_8hpp.html" target="_top" xlink:title="it converts RGB pixel to BGR pixel">
<polygon fill="none" stroke="black" points="525.5,-0.5 525.5,-19.5 634.5,-19.5 634.5,-0.5 525.5,-0.5"/>
<text text-anchor="middle" x="580" y="-7.5" font-family="Helvetica,sans-Serif" font-size="10.00">OP_RGBToBGR.hpp</text>
</a>
</g>
</g>
<!-- Node1&#45;&gt;Node6 -->
<g id="edge5" class="edge">
<title>Node1&#45;&gt;Node6</title>
<path fill="none" stroke="midnightblue" d="M525.44,-56.32C535.15,-48.26 549.82,-36.08 561.5,-26.37"/>
<polygon fill="midnightblue" stroke="midnightblue" points="563.91,-28.92 569.37,-19.83 559.44,-23.53 563.91,-28.92"/>
</g>
<!-- Node7 -->
<g id="node7" class="node">
<title>Node7</title>
<g id="a_node7"><a xlink:href="OP__RGBToGREY_8hpp.html" target="_top" xlink:title="it converts RGB pixel to Grey pixel">
<polygon fill="none" stroke="black" points="653,-0.5 653,-19.5 765,-19.5 765,-0.5 653,-0.5"/>
<text text-anchor="middle" x="709" y="-7.5" font-family="Helvetica,sans-Serif" font-size="10.00">OP_RGBToGREY.hpp</text>
</a>
</g>
</g>
<!-- Node1&#45;&gt;Node7 -->
<g id="edge6" class="edge">
<title>Node1&#45;&gt;Node7</title>
<path fill="none" stroke="midnightblue" d="M545.74,-56.44C578.94,-47.2 631.99,-32.44 668.56,-22.26"/>
<polygon fill="midnightblue" stroke="midnightblue" points="669.71,-25.57 678.4,-19.52 667.83,-18.83 669.71,-25.57"/>
</g>
<!-- Node8 -->
<g id="node8" class="node">
<title>Node8</title>
<g id="a_node8"><a xlink:href="OP__RGBToHSV_8hpp.html" target="_top" xlink:title="it converts RGB pixel to HSV pixel">
<polygon fill="none" stroke="black" points="783.5,-0.5 783.5,-19.5 890.5,-19.5 890.5,-0.5 783.5,-0.5"/>
<text text-anchor="middle" x="837" y="-7.5" font-family="Helvetica,sans-Serif" font-size="10.00">OP_RGBToHSV.hpp</text>
</a>
</g>
</g>
<!-- Node1&#45;&gt;Node8 -->
<g id="edge7" class="edge">
<title>Node1&#45;&gt;Node8</title>
<path fill="none" stroke="midnightblue" d="M563.56,-56.86C620.39,-47.33 714.56,-31.53 776.21,-21.2"/>
<polygon fill="midnightblue" stroke="midnightblue" points="776.9,-24.63 786.19,-19.52 775.74,-17.72 776.9,-24.63"/>
</g>
<!-- Node9 -->
<g id="node9" class="node">
<title>Node9</title>
<g id="a_node9"><a xlink:href="OP__U8C3ToF32C3_8hpp.html" target="_top" xlink:title="it converts U8C3 pixel to F32C3 pixel">
<polygon fill="none" stroke="black" points="909,-0.5 909,-19.5 1033,-19.5 1033,-0.5 909,-0.5"/>
<text text-anchor="middle" x="971" y="-7.5" font-family="Helvetica,sans-Serif" font-size="10.00">OP_U8C3ToF32C3.hpp</text>
</a>
</g>
</g>
<!-- Node1&#45;&gt;Node9 -->
<g id="edge8" class="edge">
<title>Node1&#45;&gt;Node9</title>
<path fill="none" stroke="midnightblue" d="M563.64,-59.47C634.77,-51.35 771.63,-35.59 898.39,-20.19"/>
<polygon fill="midnightblue" stroke="midnightblue" points="899.16,-23.62 908.67,-18.94 898.32,-16.67 899.16,-23.62"/>
</g>
</g>
</svg>
