<?xml version="1.0" encoding="UTF-8" standalone="no"?>
<!DOCTYPE svg PUBLIC "-//W3C//DTD SVG 1.1//EN"
 "http://www.w3.org/Graphics/SVG/1.1/DTD/svg11.dtd">
<!-- Generated by graphviz version 2.36.0 (20140111.2315)
 -->
<!-- Title: parallel_copy.hpp Pages: 1 -->
<svg width="100pt" height="252pt"
 viewBox="0.00 0.00 100.00 252.00" xmlns="http://www.w3.org/2000/svg" xmlns:xlink="http://www.w3.org/1999/xlink">
<g id="graph0" class="graph" transform="scale(1 1) rotate(0) translate(4 248)">
<title>parallel_copy.hpp</title>
<!-- Node1 -->
<g id="node1" class="node"><title>Node1</title>
<polygon fill="#bfbfbf" stroke="black" points="0,-224.5 0,-243.5 92,-243.5 92,-224.5 0,-224.5"/>
<text text-anchor="middle" x="46" y="-231.5" font-family="Helvetica,sans-Serif" font-size="10.00">parallel_copy.hpp</text>
</g>
<!-- Node2 -->
<g id="node2" class="node"><title>Node2</title>
<g id="a_node2"><a xlink:href="point__ops_8hpp.html" target="_top" xlink:title="This files contains a set of include headers for point operation node in the expression tree...">
<polygon fill="none" stroke="black" points="7.5,-168.5 7.5,-187.5 84.5,-187.5 84.5,-168.5 7.5,-168.5"/>
<text text-anchor="middle" x="46" y="-175.5" font-family="Helvetica,sans-Serif" font-size="10.00">point_ops.hpp</text>
</a>
</g>
</g>
<!-- Node1&#45;&gt;Node2 -->
<g id="edge1" class="edge"><title>Node1&#45;&gt;Node2</title>
<path fill="none" stroke="midnightblue" d="M46,-213.805C46,-204.91 46,-194.78 46,-187.751"/>
<polygon fill="midnightblue" stroke="midnightblue" points="42.5001,-214.083 46,-224.083 49.5001,-214.083 42.5001,-214.083"/>
</g>
<!-- Node3 -->
<g id="node3" class="node"><title>Node3</title>
<g id="a_node3"><a xlink:href="expr__tree_8hpp.html" target="_top" xlink:title="This file contains the forward declarations and all the necessary include headers for the constructio...">
<polygon fill="none" stroke="black" points="8,-112.5 8,-131.5 84,-131.5 84,-112.5 8,-112.5"/>
<text text-anchor="middle" x="46" y="-119.5" font-family="Helvetica,sans-Serif" font-size="10.00">expr_tree.hpp</text>
</a>
</g>
</g>
<!-- Node2&#45;&gt;Node3 -->
<g id="edge2" class="edge"><title>Node2&#45;&gt;Node3</title>
<path fill="none" stroke="midnightblue" d="M46,-157.805C46,-148.91 46,-138.78 46,-131.751"/>
<polygon fill="midnightblue" stroke="midnightblue" points="42.5001,-158.083 46,-168.083 49.5001,-158.083 42.5001,-158.083"/>
</g>
<!-- Node4 -->
<g id="node4" class="node"><title>Node4</title>
<g id="a_node4"><a xlink:href="framework_8hpp.html" target="_top" xlink:title="Collection of VisionCpp framework headers. ">
<polygon fill="none" stroke="black" points="5.5,-56.5 5.5,-75.5 86.5,-75.5 86.5,-56.5 5.5,-56.5"/>
<text text-anchor="middle" x="46" y="-63.5" font-family="Helvetica,sans-Serif" font-size="10.00">framework.hpp</text>
</a>
</g>
</g>
<!-- Node3&#45;&gt;Node4 -->
<g id="edge3" class="edge"><title>Node3&#45;&gt;Node4</title>
<path fill="none" stroke="midnightblue" d="M46,-101.805C46,-92.9102 46,-82.7798 46,-75.7511"/>
<polygon fill="midnightblue" stroke="midnightblue" points="42.5001,-102.083 46,-112.083 49.5001,-102.083 42.5001,-102.083"/>
</g>
<!-- Node5 -->
<g id="node5" class="node"><title>Node5</title>
<g id="a_node5"><a xlink:href="visioncpp_8hpp.html" target="_top" xlink:title="This file is collection of headers that makes VisionCpp library. ">
<polygon fill="none" stroke="black" points="7.5,-0.5 7.5,-19.5 84.5,-19.5 84.5,-0.5 7.5,-0.5"/>
<text text-anchor="middle" x="46" y="-7.5" font-family="Helvetica,sans-Serif" font-size="10.00">visioncpp.hpp</text>
</a>
</g>
</g>
<!-- Node4&#45;&gt;Node5 -->
<g id="edge4" class="edge"><title>Node4&#45;&gt;Node5</title>
<path fill="none" stroke="midnightblue" d="M46,-45.8045C46,-36.9102 46,-26.7798 46,-19.7511"/>
<polygon fill="midnightblue" stroke="midnightblue" points="42.5001,-46.083 46,-56.083 49.5001,-46.083 42.5001,-46.083"/>
</g>
</g>
</svg>
