<?xml version="1.0" encoding="UTF-8" standalone="no"?>
<!DOCTYPE svg PUBLIC "-//W3C//DTD SVG 1.1//EN"
 "http://www.w3.org/Graphics/SVG/1.1/DTD/svg11.dtd">
<!-- Generated by graphviz version 2.43.0 (0)
 -->
<!-- Title: place_holder_leaf_node.hpp Pages: 1 -->
<svg width="161pt" height="196pt"
 viewBox="0.00 0.00 161.00 196.00" xmlns="http://www.w3.org/2000/svg" xmlns:xlink="http://www.w3.org/1999/xlink">
<g id="graph0" class="graph" transform="scale(1 1) rotate(0) translate(4 192)">
<title>place_holder_leaf_node.hpp</title>
<!-- Node1 -->
<g id="node1" class="node">
<title>Node1</title>
<g id="a_node1"><a xlink:title="This file contains different specialisations leafNodes for different types of memory.">
<polygon fill="#bfbfbf" stroke="black" points="0,-168.5 0,-187.5 153,-187.5 153,-168.5 0,-168.5"/>
<text text-anchor="middle" x="76.5" y="-175.5" font-family="Helvetica,sans-Serif" font-size="10.00">place_holder_leaf_node.hpp</text>
</a>
</g>
</g>
<!-- Node2 -->
<g id="node2" class="node">
<title>Node2</title>
<g id="a_node2"><a xlink:href="expr__convertor_8hpp.html" target="_top" xlink:title="this is used to replace the leaf node with a PlaceHolder node.">
<polygon fill="none" stroke="black" points="21.5,-112.5 21.5,-131.5 131.5,-131.5 131.5,-112.5 21.5,-112.5"/>
<text text-anchor="middle" x="76.5" y="-119.5" font-family="Helvetica,sans-Serif" font-size="10.00">expr_convertor.hpp</text>
</a>
</g>
</g>
<!-- Node1&#45;&gt;Node2 -->
<g id="edge1" class="edge">
<title>Node1&#45;&gt;Node2</title>
<path fill="none" stroke="midnightblue" d="M76.5,-157.8C76.5,-148.91 76.5,-138.78 76.5,-131.75"/>
<polygon fill="midnightblue" stroke="midnightblue" points="73,-158.08 76.5,-168.08 80,-158.08 73,-158.08"/>
</g>
<!-- Node3 -->
<g id="node3" class="node">
<title>Node3</title>
<g id="a_node3"><a xlink:href="framework_8hpp.html" target="_top" xlink:title="Collection of VisionCpp framework headers.">
<polygon fill="none" stroke="black" points="31,-56.5 31,-75.5 122,-75.5 122,-56.5 31,-56.5"/>
<text text-anchor="middle" x="76.5" y="-63.5" font-family="Helvetica,sans-Serif" font-size="10.00">framework.hpp</text>
</a>
</g>
</g>
<!-- Node2&#45;&gt;Node3 -->
<g id="edge2" class="edge">
<title>Node2&#45;&gt;Node3</title>
<path fill="none" stroke="midnightblue" d="M76.5,-101.8C76.5,-92.91 76.5,-82.78 76.5,-75.75"/>
<polygon fill="midnightblue" stroke="midnightblue" points="73,-102.08 76.5,-112.08 80,-102.08 73,-102.08"/>
</g>
<!-- Node4 -->
<g id="node4" class="node">
<title>Node4</title>
<g id="a_node4"><a xlink:href="visioncpp_8hpp.html" target="_top" xlink:title="This file is collection of headers that makes VisionCpp library.">
<polygon fill="none" stroke="black" points="34.5,-0.5 34.5,-19.5 118.5,-19.5 118.5,-0.5 34.5,-0.5"/>
<text text-anchor="middle" x="76.5" y="-7.5" font-family="Helvetica,sans-Serif" font-size="10.00">visioncpp.hpp</text>
</a>
</g>
</g>
<!-- Node3&#45;&gt;Node4 -->
<g id="edge3" class="edge">
<title>Node3&#45;&gt;Node4</title>
<path fill="none" stroke="midnightblue" d="M76.5,-45.8C76.5,-36.91 76.5,-26.78 76.5,-19.75"/>
<polygon fill="midnightblue" stroke="midnightblue" points="73,-46.08 76.5,-56.08 80,-46.08 73,-46.08"/>
</g>
</g>
</svg>
