<?xml version="1.0" encoding="UTF-8" standalone="no"?>
<!DOCTYPE svg PUBLIC "-//W3C//DTD SVG 1.1//EN"
 "http://www.w3.org/Graphics/SVG/1.1/DTD/svg11.dtd">
<!-- Generated by graphviz version 2.36.0 (20140111.2315)
 -->
<!-- Title: point_ops.hpp Pages: 1 -->
<svg width="524pt" height="84pt"
 viewBox="0.00 0.00 524.00 84.00" xmlns="http://www.w3.org/2000/svg" xmlns:xlink="http://www.w3.org/1999/xlink">
<g id="graph0" class="graph" transform="scale(1 1) rotate(0) translate(4 80)">
<title>point_ops.hpp</title>
<!-- Node1 -->
<g id="node1" class="node"><title>Node1</title>
<polygon fill="#bfbfbf" stroke="black" points="185.5,-56.5 185.5,-75.5 262.5,-75.5 262.5,-56.5 185.5,-56.5"/>
<text text-anchor="middle" x="224" y="-63.5" font-family="Helvetica,sans-Serif" font-size="10.00">point_ops.hpp</text>
</g>
<!-- Node2 -->
<g id="node2" class="node"><title>Node2</title>
<g id="a_node2"><a xlink:href="assign_8hpp.html" target="_top" xlink:title="This file contains the Assign struct which is used to allocate the result of the right hand side expr...">
<polygon fill="none" stroke="black" points="0,-0.5 0,-19.5 64,-19.5 64,-0.5 0,-0.5"/>
<text text-anchor="middle" x="32" y="-7.5" font-family="Helvetica,sans-Serif" font-size="10.00">assign.hpp</text>
</a>
</g>
</g>
<!-- Node1&#45;&gt;Node2 -->
<g id="edge1" class="edge"><title>Node1&#45;&gt;Node2</title>
<path fill="none" stroke="midnightblue" d="M193.577,-56.4435C160.715,-47.2011 108.215,-32.4356 72.0256,-22.2572"/>
<polygon fill="midnightblue" stroke="midnightblue" points="72.8548,-18.8547 62.2806,-19.5164 70.9595,-25.5932 72.8548,-18.8547"/>
</g>
<!-- Node3 -->
<g id="node3" class="node"><title>Node3</title>
<g id="a_node3"><a xlink:href="leaf__node_8hpp.html" target="_top" xlink:title="This file contains the LeafNode struct which is a general representation of our terminal node in the ...">
<polygon fill="none" stroke="black" points="82.5,-0.5 82.5,-19.5 159.5,-19.5 159.5,-0.5 82.5,-0.5"/>
<text text-anchor="middle" x="121" y="-7.5" font-family="Helvetica,sans-Serif" font-size="10.00">leaf_node.hpp</text>
</a>
</g>
</g>
<!-- Node1&#45;&gt;Node3 -->
<g id="edge2" class="edge"><title>Node1&#45;&gt;Node3</title>
<path fill="none" stroke="midnightblue" d="M207.451,-56.324C191.008,-47.7034 165.565,-34.3643 146.532,-24.3855"/>
<polygon fill="midnightblue" stroke="midnightblue" points="147.989,-21.198 137.508,-19.6545 144.739,-27.3977 147.989,-21.198"/>
</g>
<!-- Node4 -->
<g id="node4" class="node"><title>Node4</title>
<g id="a_node4"><a xlink:href="parallel__copy_8hpp.html" target="_top" xlink:title="This file contains the ParallelCopy struct which is used to allocate the partial result of the right&#45;...">
<polygon fill="none" stroke="black" points="178,-0.5 178,-19.5 270,-19.5 270,-0.5 178,-0.5"/>
<text text-anchor="middle" x="224" y="-7.5" font-family="Helvetica,sans-Serif" font-size="10.00">parallel_copy.hpp</text>
</a>
</g>
</g>
<!-- Node1&#45;&gt;Node4 -->
<g id="edge3" class="edge"><title>Node1&#45;&gt;Node4</title>
<path fill="none" stroke="midnightblue" d="M224,-56.083C224,-49.0059 224,-38.8611 224,-29.9865"/>
<polygon fill="midnightblue" stroke="midnightblue" points="227.5,-29.751 224,-19.7511 220.5,-29.7511 227.5,-29.751"/>
</g>
<!-- Node5 -->
<g id="node5" class="node"><title>Node5</title>
<g id="a_node5"><a xlink:href="resizable__binary_8hpp.html" target="_top" xlink:title="This file contains RBiOP (Binary Operation) struct which is used to apply Binary Operation on left ha...">
<polygon fill="none" stroke="black" points="288,-0.5 288,-19.5 394,-19.5 394,-0.5 288,-0.5"/>
<text text-anchor="middle" x="341" y="-7.5" font-family="Helvetica,sans-Serif" font-size="10.00">resizable_binary.hpp</text>
</a>
</g>
</g>
<!-- Node1&#45;&gt;Node5 -->
<g id="edge4" class="edge"><title>Node1&#45;&gt;Node5</title>
<path fill="none" stroke="midnightblue" d="M242.539,-56.4435C261.623,-47.6356 291.575,-33.8116 313.436,-23.722"/>
<polygon fill="midnightblue" stroke="midnightblue" points="314.935,-26.8849 322.548,-19.5164 312.001,-20.5292 314.935,-26.8849"/>
</g>
<!-- Node6 -->
<g id="node6" class="node"><title>Node6</title>
<g id="a_node6"><a xlink:href="resizable__unary_8hpp.html" target="_top" xlink:title="This file contains RUnOP (Unary Operation) struct which is used to apply Unary Operation on the right...">
<polygon fill="none" stroke="black" points="412,-0.5 412,-19.5 516,-19.5 516,-0.5 412,-0.5"/>
<text text-anchor="middle" x="464" y="-7.5" font-family="Helvetica,sans-Serif" font-size="10.00">resizable_unary.hpp</text>
</a>
</g>
</g>
<!-- Node1&#45;&gt;Node6 -->
<g id="edge5" class="edge"><title>Node1&#45;&gt;Node6</title>
<path fill="none" stroke="midnightblue" d="M262.029,-56.4435C303.808,-47.0431 370.982,-31.9291 416.27,-21.7393"/>
<polygon fill="midnightblue" stroke="midnightblue" points="417.161,-25.1263 426.149,-19.5164 415.625,-18.297 417.161,-25.1263"/>
</g>
</g>
</svg>
