<?xml version="1.0" encoding="UTF-8" standalone="no"?>
<!DOCTYPE svg PUBLIC "-//W3C//DTD SVG 1.1//EN"
 "http://www.w3.org/Graphics/SVG/1.1/DTD/svg11.dtd">
<!-- Generated by graphviz version 2.36.0 (20140111.2315)
 -->
<!-- Title: pyramid_with_auto_mem_gen.hpp Pages: 1 -->
<svg width="132pt" height="264pt"
 viewBox="0.00 0.00 132.00 264.00" xmlns="http://www.w3.org/2000/svg" xmlns:xlink="http://www.w3.org/1999/xlink">
<g id="graph0" class="graph" transform="scale(1 1) rotate(0) translate(4 260)">
<title>pyramid_with_auto_mem_gen.hpp</title>
<!-- Node1 -->
<g id="node1" class="node"><title>Node1</title>
<polygon fill="#bfbfbf" stroke="black" points="-0.5,-225 -0.5,-255 124.5,-255 124.5,-225 -0.5,-225"/>
<text text-anchor="start" x="7.5" y="-243" font-family="Helvetica,sans-Serif" font-size="10.00">pyramid_with_auto_mem</text>
<text text-anchor="middle" x="62" y="-232" font-family="Helvetica,sans-Serif" font-size="10.00">_gen.hpp</text>
</g>
<!-- Node2 -->
<g id="node2" class="node"><title>Node2</title>
<g id="a_node2"><a xlink:href="complex__ops_8hpp.html" target="_top" xlink:title="This file contains a set of includes and forward declaration required to build complex operations lik...">
<polygon fill="none" stroke="black" points="15.5,-168.5 15.5,-187.5 108.5,-187.5 108.5,-168.5 15.5,-168.5"/>
<text text-anchor="middle" x="62" y="-175.5" font-family="Helvetica,sans-Serif" font-size="10.00">complex_ops.hpp</text>
</a>
</g>
</g>
<!-- Node1&#45;&gt;Node2 -->
<g id="edge1" class="edge"><title>Node1&#45;&gt;Node2</title>
<path fill="none" stroke="midnightblue" d="M62,-214.586C62,-205.074 62,-194.786 62,-187.731"/>
<polygon fill="midnightblue" stroke="midnightblue" points="58.5001,-214.781 62,-224.781 65.5001,-214.781 58.5001,-214.781"/>
</g>
<!-- Node3 -->
<g id="node3" class="node"><title>Node3</title>
<g id="a_node3"><a xlink:href="expr__tree_8hpp.html" target="_top" xlink:title="This file contains the forward declarations and all the necessary include headers for the constructio...">
<polygon fill="none" stroke="black" points="24,-112.5 24,-131.5 100,-131.5 100,-112.5 24,-112.5"/>
<text text-anchor="middle" x="62" y="-119.5" font-family="Helvetica,sans-Serif" font-size="10.00">expr_tree.hpp</text>
</a>
</g>
</g>
<!-- Node2&#45;&gt;Node3 -->
<g id="edge2" class="edge"><title>Node2&#45;&gt;Node3</title>
<path fill="none" stroke="midnightblue" d="M62,-157.805C62,-148.91 62,-138.78 62,-131.751"/>
<polygon fill="midnightblue" stroke="midnightblue" points="58.5001,-158.083 62,-168.083 65.5001,-158.083 58.5001,-158.083"/>
</g>
<!-- Node4 -->
<g id="node4" class="node"><title>Node4</title>
<g id="a_node4"><a xlink:href="framework_8hpp.html" target="_top" xlink:title="Collection of VisionCpp framework headers. ">
<polygon fill="none" stroke="black" points="21.5,-56.5 21.5,-75.5 102.5,-75.5 102.5,-56.5 21.5,-56.5"/>
<text text-anchor="middle" x="62" y="-63.5" font-family="Helvetica,sans-Serif" font-size="10.00">framework.hpp</text>
</a>
</g>
</g>
<!-- Node3&#45;&gt;Node4 -->
<g id="edge3" class="edge"><title>Node3&#45;&gt;Node4</title>
<path fill="none" stroke="midnightblue" d="M62,-101.805C62,-92.9102 62,-82.7798 62,-75.7511"/>
<polygon fill="midnightblue" stroke="midnightblue" points="58.5001,-102.083 62,-112.083 65.5001,-102.083 58.5001,-102.083"/>
</g>
<!-- Node5 -->
<g id="node5" class="node"><title>Node5</title>
<g id="a_node5"><a xlink:href="visioncpp_8hpp.html" target="_top" xlink:title="This file is collection of headers that makes VisionCpp library. ">
<polygon fill="none" stroke="black" points="23.5,-0.5 23.5,-19.5 100.5,-19.5 100.5,-0.5 23.5,-0.5"/>
<text text-anchor="middle" x="62" y="-7.5" font-family="Helvetica,sans-Serif" font-size="10.00">visioncpp.hpp</text>
</a>
</g>
</g>
<!-- Node4&#45;&gt;Node5 -->
<g id="edge4" class="edge"><title>Node4&#45;&gt;Node5</title>
<path fill="none" stroke="midnightblue" d="M62,-45.8045C62,-36.9102 62,-26.7798 62,-19.7511"/>
<polygon fill="midnightblue" stroke="midnightblue" points="58.5001,-46.083 62,-56.083 65.5001,-46.083 58.5001,-46.083"/>
</g>
</g>
</svg>
