<?xml version="1.0" encoding="UTF-8" standalone="no"?>
<!DOCTYPE svg PUBLIC "-//W3C//DTD SVG 1.1//EN"
 "http://www.w3.org/Graphics/SVG/1.1/DTD/svg11.dtd">
<!-- Generated by graphviz version 2.36.0 (20140111.2315)
 -->
<!-- Title: visioncpp::internal::EvalExpr&lt; StnFilt&lt; C_OP, Halo_T, Halo_L, Halo_B, Halo_R, LHS, RHS, Cols, Rows, LfType, LVL &gt;, Loc, Params...&gt;::eval_neighbour Pages: 1 -->
<svg width="412pt" height="95pt"
 viewBox="0.00 0.00 412.00 95.00" xmlns="http://www.w3.org/2000/svg" xmlns:xlink="http://www.w3.org/1999/xlink">
<g id="graph0" class="graph" transform="scale(1 1) rotate(0) translate(4 91)">
<title>visioncpp::internal::EvalExpr&lt; StnFilt&lt; C_OP, Halo_T, Halo_L, Halo_B, Halo_R, LHS, RHS, Cols, Rows, LfType, LVL &gt;, Loc, Params...&gt;::eval_neighbour</title>
<!-- Node1 -->
<g id="node1" class="node"><title>Node1</title>
<polygon fill="#bfbfbf" stroke="black" points="0,-1.5 0,-86.5 138,-86.5 138,-1.5 0,-1.5"/>
<text text-anchor="start" x="8" y="-74.5" font-family="Helvetica,sans-Serif" font-size="10.00">visioncpp::internal</text>
<text text-anchor="start" x="8" y="-63.5" font-family="Helvetica,sans-Serif" font-size="10.00">::EvalExpr&lt; StnFilt</text>
<text text-anchor="start" x="8" y="-52.5" font-family="Helvetica,sans-Serif" font-size="10.00">&lt; C_OP, Halo_T, Halo</text>
<text text-anchor="start" x="8" y="-41.5" font-family="Helvetica,sans-Serif" font-size="10.00">_L, Halo_B, Halo_R, LHS,</text>
<text text-anchor="start" x="8" y="-30.5" font-family="Helvetica,sans-Serif" font-size="10.00"> RHS, Cols, Rows, LfType,</text>
<text text-anchor="start" x="8" y="-19.5" font-family="Helvetica,sans-Serif" font-size="10.00"> LVL &gt;, Loc, Params...&gt;::</text>
<text text-anchor="middle" x="69" y="-8.5" font-family="Helvetica,sans-Serif" font-size="10.00">eval_neighbour</text>
</g>
<!-- Node2 -->
<g id="node2" class="node"><title>Node2</title>
<g id="a_node2"><a xlink:href="namespacevisioncpp_1_1internal.html#a432878bd5a7c47c218a371ecf9eefe6a" target="_top" xlink:title="function calculate_index ">
<polygon fill="none" stroke="black" points="174.5,-54 174.5,-84 269.5,-84 269.5,-54 174.5,-54"/>
<text text-anchor="start" x="182.5" y="-72" font-family="Helvetica,sans-Serif" font-size="10.00">visioncpp::internal</text>
<text text-anchor="middle" x="222" y="-61" font-family="Helvetica,sans-Serif" font-size="10.00">::calculate_index</text>
</a>
</g>
</g>
<!-- Node1&#45;&gt;Node2 -->
<g id="edge1" class="edge"><title>Node1&#45;&gt;Node2</title>
<path fill="none" stroke="midnightblue" d="M138.431,-55.3297C147.085,-56.7625 155.865,-58.216 164.309,-59.614"/>
<polygon fill="midnightblue" stroke="midnightblue" points="163.974,-63.1062 174.411,-61.2867 165.117,-56.2002 163.974,-63.1062"/>
</g>
<!-- Node3 -->
<g id="node3" class="node"><title>Node3</title>
<g id="a_node3"><a xlink:href="namespacevisioncpp_1_1internal_1_1tools.html#ad0890ca41e9275137b7a578b24136dbe" target="_top" xlink:title="function convert ">
<polygon fill="none" stroke="black" points="174.5,-5 174.5,-35 269.5,-35 269.5,-5 174.5,-5"/>
<text text-anchor="start" x="182.5" y="-23" font-family="Helvetica,sans-Serif" font-size="10.00">visioncpp::internal</text>
<text text-anchor="middle" x="222" y="-12" font-family="Helvetica,sans-Serif" font-size="10.00">::tools::convert</text>
</a>
</g>
</g>
<!-- Node1&#45;&gt;Node3 -->
<g id="edge2" class="edge"><title>Node1&#45;&gt;Node3</title>
<path fill="none" stroke="midnightblue" d="M138.431,-33.1235C147.085,-31.748 155.865,-30.3526 164.309,-29.0105"/>
<polygon fill="midnightblue" stroke="midnightblue" points="165.085,-32.4312 174.411,-27.4048 163.986,-25.518 165.085,-32.4312"/>
</g>
<!-- Node4 -->
<g id="node4" class="node"><title>Node4</title>
<g id="a_node4"><a xlink:href="structvisioncpp_1_1internal_1_1tools_1_1Convertor.html#a50519510c30e56ead8657c8a06d8c9d4" target="_top" xlink:title="function convert ">
<polygon fill="none" stroke="black" points="306,0.5 306,-40.5 404,-40.5 404,0.5 306,0.5"/>
<text text-anchor="start" x="314" y="-28.5" font-family="Helvetica,sans-Serif" font-size="10.00">visioncpp::internal</text>
<text text-anchor="start" x="314" y="-17.5" font-family="Helvetica,sans-Serif" font-size="10.00">::tools::Convertor::</text>
<text text-anchor="middle" x="355" y="-6.5" font-family="Helvetica,sans-Serif" font-size="10.00">convert</text>
</a>
</g>
</g>
<!-- Node3&#45;&gt;Node4 -->
<g id="edge3" class="edge"><title>Node3&#45;&gt;Node4</title>
<path fill="none" stroke="midnightblue" d="M269.555,-20C278.012,-20 286.93,-20 295.676,-20"/>
<polygon fill="midnightblue" stroke="midnightblue" points="295.825,-23.5001 305.825,-20 295.825,-16.5001 295.825,-23.5001"/>
</g>
</g>
</svg>
