<?xml version="1.0" encoding="UTF-8" standalone="no"?>
<!DOCTYPE svg PUBLIC "-//W3C//DTD SVG 1.1//EN"
 "http://www.w3.org/Graphics/SVG/1.1/DTD/svg11.dtd">
<!-- Generated by graphviz version 2.43.0 (0)
 -->
<!-- Title: visioncpp::internal::EvalExpr&lt; StnFilt&lt; C_OP, Halo_T, Halo_L, Halo_B, Halo_R, LHS, RHS, Cols, Rows, LfType, LVL &gt;, Loc, Params... &gt;::eval_neighbour Pages: 1 -->
<svg width="434pt" height="96pt"
 viewBox="0.00 0.00 434.00 96.00" xmlns="http://www.w3.org/2000/svg" xmlns:xlink="http://www.w3.org/1999/xlink">
<g id="graph0" class="graph" transform="scale(1 1) rotate(0) translate(4 92)">
<title>visioncpp::internal::EvalExpr&lt; StnFilt&lt; C_OP, Halo_T, Halo_L, Halo_B, Halo_R, LHS, RHS, Cols, Rows, LfType, LVL &gt;, Loc, Params... &gt;::eval_neighbour</title>
<!-- Node1 -->
<g id="node1" class="node">
<title>Node1</title>
<g id="a_node1"><a xlink:title="evaluate function when the internal::ops_category is NeighbourOP.">
<polygon fill="#bfbfbf" stroke="black" points="0,-2.5 0,-87.5 140,-87.5 140,-2.5 0,-2.5"/>
<text text-anchor="start" x="8" y="-75.5" font-family="Helvetica,sans-Serif" font-size="10.00">visioncpp::internal</text>
<text text-anchor="start" x="8" y="-64.5" font-family="Helvetica,sans-Serif" font-size="10.00">::EvalExpr&lt; StnFilt</text>
<text text-anchor="start" x="8" y="-53.5" font-family="Helvetica,sans-Serif" font-size="10.00">&lt; C_OP, Halo_T, Halo</text>
<text text-anchor="start" x="8" y="-42.5" font-family="Helvetica,sans-Serif" font-size="10.00">_L, Halo_B, Halo_R, LHS,</text>
<text text-anchor="start" x="8" y="-31.5" font-family="Helvetica,sans-Serif" font-size="10.00"> RHS, Cols, Rows, LfType,</text>
<text text-anchor="start" x="8" y="-20.5" font-family="Helvetica,sans-Serif" font-size="10.00"> LVL &gt;, Loc, Params... &gt;</text>
<text text-anchor="middle" x="70" y="-9.5" font-family="Helvetica,sans-Serif" font-size="10.00">::eval_neighbour</text>
</a>
</g>
</g>
<!-- Node2 -->
<g id="node2" class="node">
<title>Node2</title>
<g id="a_node2"><a xlink:href="namespacevisioncpp_1_1internal.html#a432878bd5a7c47c218a371ecf9eefe6a" target="_top" xlink:title="function calculate_index">
<polygon fill="none" stroke="black" points="176,-55 176,-85 283,-85 283,-55 176,-55"/>
<text text-anchor="start" x="184" y="-73" font-family="Helvetica,sans-Serif" font-size="10.00">visioncpp::internal</text>
<text text-anchor="middle" x="229.5" y="-62" font-family="Helvetica,sans-Serif" font-size="10.00">::calculate_index</text>
</a>
</g>
</g>
<!-- Node1&#45;&gt;Node2 -->
<g id="edge1" class="edge">
<title>Node1&#45;&gt;Node2</title>
<path fill="none" stroke="midnightblue" d="M140.08,-55.97C148.54,-57.31 157.16,-58.68 165.52,-60"/>
<polygon fill="midnightblue" stroke="midnightblue" points="165.15,-63.49 175.58,-61.6 166.25,-56.57 165.15,-63.49"/>
</g>
<!-- Node3 -->
<g id="node3" class="node">
<title>Node3</title>
<g id="a_node3"><a xlink:href="namespacevisioncpp_1_1internal_1_1tools.html#ad0890ca41e9275137b7a578b24136dbe" target="_top" xlink:title="function convert">
<polygon fill="none" stroke="black" points="176,-6 176,-36 283,-36 283,-6 176,-6"/>
<text text-anchor="start" x="184" y="-24" font-family="Helvetica,sans-Serif" font-size="10.00">visioncpp::internal</text>
<text text-anchor="middle" x="229.5" y="-13" font-family="Helvetica,sans-Serif" font-size="10.00">::tools::convert</text>
</a>
</g>
</g>
<!-- Node1&#45;&gt;Node3 -->
<g id="edge2" class="edge">
<title>Node1&#45;&gt;Node3</title>
<path fill="none" stroke="midnightblue" d="M140.08,-34.47C148.54,-33.18 157.16,-31.87 165.52,-30.6"/>
<polygon fill="midnightblue" stroke="midnightblue" points="166.22,-34.03 175.58,-29.06 165.16,-27.11 166.22,-34.03"/>
</g>
<!-- Node4 -->
<g id="node4" class="node">
<title>Node4</title>
<g id="a_node4"><a xlink:href="structvisioncpp_1_1internal_1_1tools_1_1Convertor.html#a50519510c30e56ead8657c8a06d8c9d4" target="_top" xlink:title="function convert">
<polygon fill="none" stroke="black" points="319,-0.5 319,-41.5 426,-41.5 426,-0.5 319,-0.5"/>
<text text-anchor="start" x="327" y="-29.5" font-family="Helvetica,sans-Serif" font-size="10.00">visioncpp::internal</text>
<text text-anchor="start" x="327" y="-18.5" font-family="Helvetica,sans-Serif" font-size="10.00">::tools::Convertor::</text>
<text text-anchor="middle" x="372.5" y="-7.5" font-family="Helvetica,sans-Serif" font-size="10.00">convert</text>
</a>
</g>
</g>
<!-- Node3&#45;&gt;Node4 -->
<g id="edge3" class="edge">
<title>Node3&#45;&gt;Node4</title>
<path fill="none" stroke="midnightblue" d="M283,-21C291.44,-21 300.26,-21 308.9,-21"/>
<polygon fill="midnightblue" stroke="midnightblue" points="308.95,-24.5 318.95,-21 308.95,-17.5 308.95,-24.5"/>
</g>
</g>
</svg>
