<?xml version="1.0" encoding="UTF-8" standalone="no"?>
<!DOCTYPE svg PUBLIC "-//W3C//DTD SVG 1.1//EN"
 "http://www.w3.org/Graphics/SVG/1.1/DTD/svg11.dtd">
<!-- Generated by graphviz version 2.36.0 (20140111.2315)
 -->
<!-- Title: visioncpp::internal::EvalExpr&lt; StnNoFilt&lt; C_OP, Halo_T, Halo_L, Halo_B, Halo_R, RHS, Cols, Rows, LfType, LVL &gt;, Loc, Params...&gt;::eval_neighbour Pages: 1 -->
<svg width="436pt" height="146pt"
 viewBox="0.00 0.00 436.00 146.00" xmlns="http://www.w3.org/2000/svg" xmlns:xlink="http://www.w3.org/1999/xlink">
<g id="graph0" class="graph" transform="scale(1 1) rotate(0) translate(4 142)">
<title>visioncpp::internal::EvalExpr&lt; StnNoFilt&lt; C_OP, Halo_T, Halo_L, Halo_B, Halo_R, RHS, Cols, Rows, LfType, LVL &gt;, Loc, Params...&gt;::eval_neighbour</title>
<!-- Node1 -->
<g id="node1" class="node"><title>Node1</title>
<polygon fill="#bfbfbf" stroke="black" points="0,-37 0,-111 148,-111 148,-37 0,-37"/>
<text text-anchor="start" x="8" y="-99" font-family="Helvetica,sans-Serif" font-size="10.00">visioncpp::internal</text>
<text text-anchor="start" x="8" y="-88" font-family="Helvetica,sans-Serif" font-size="10.00">::EvalExpr&lt; StnNoFilt</text>
<text text-anchor="start" x="8" y="-77" font-family="Helvetica,sans-Serif" font-size="10.00">&lt; C_OP, Halo_T, Halo_L,</text>
<text text-anchor="start" x="8" y="-66" font-family="Helvetica,sans-Serif" font-size="10.00"> Halo_B, Halo_R, RHS, Cols,</text>
<text text-anchor="start" x="8" y="-55" font-family="Helvetica,sans-Serif" font-size="10.00"> Rows, LfType, LVL &gt;, Loc,</text>
<text text-anchor="middle" x="74" y="-44" font-family="Helvetica,sans-Serif" font-size="10.00"> Params...&gt;::eval_neighbour</text>
</g>
<!-- Node2 -->
<g id="node2" class="node"><title>Node2</title>
<g id="a_node2"><a xlink:href="namespacevisioncpp_1_1internal.html#a432878bd5a7c47c218a371ecf9eefe6a" target="_top" xlink:title="function calculate_index ">
<polygon fill="none" stroke="black" points="191.5,-108 191.5,-138 286.5,-138 286.5,-108 191.5,-108"/>
<text text-anchor="start" x="199.5" y="-126" font-family="Helvetica,sans-Serif" font-size="10.00">visioncpp::internal</text>
<text text-anchor="middle" x="239" y="-115" font-family="Helvetica,sans-Serif" font-size="10.00">::calculate_index</text>
</a>
</g>
</g>
<!-- Node1&#45;&gt;Node2 -->
<g id="edge1" class="edge"><title>Node1&#45;&gt;Node2</title>
<path fill="none" stroke="midnightblue" d="M148.394,-96.0632C159.521,-99.4083 170.853,-102.815 181.547,-106.029"/>
<polygon fill="midnightblue" stroke="midnightblue" points="180.58,-109.394 191.165,-108.921 182.595,-102.69 180.58,-109.394"/>
</g>
<!-- Node3 -->
<g id="node3" class="node"><title>Node3</title>
<g id="a_node3"><a xlink:href="namespacevisioncpp_1_1internal_1_1tools.html#ad0890ca41e9275137b7a578b24136dbe" target="_top" xlink:title="function convert ">
<polygon fill="none" stroke="black" points="191.5,-59 191.5,-89 286.5,-89 286.5,-59 191.5,-59"/>
<text text-anchor="start" x="199.5" y="-77" font-family="Helvetica,sans-Serif" font-size="10.00">visioncpp::internal</text>
<text text-anchor="middle" x="239" y="-66" font-family="Helvetica,sans-Serif" font-size="10.00">::tools::convert</text>
</a>
</g>
</g>
<!-- Node1&#45;&gt;Node3 -->
<g id="edge2" class="edge"><title>Node1&#45;&gt;Node3</title>
<path fill="none" stroke="midnightblue" d="M148.394,-74C159.294,-74 170.39,-74 180.891,-74"/>
<polygon fill="midnightblue" stroke="midnightblue" points="181.165,-77.5001 191.165,-74 181.164,-70.5001 181.165,-77.5001"/>
</g>
<!-- Node5 -->
<g id="node5" class="node"><title>Node5</title>
<g id="a_node5"><a xlink:href="structvisioncpp_1_1internal_1_1LocalNeighbour.html#ac28120780a83770f8396f28aeae0f4f7" target="_top" xlink:title="function set_offset: ">
<polygon fill="none" stroke="black" points="184,0.5 184,-40.5 294,-40.5 294,0.5 184,0.5"/>
<text text-anchor="start" x="192" y="-28.5" font-family="Helvetica,sans-Serif" font-size="10.00">visioncpp::internal</text>
<text text-anchor="start" x="192" y="-17.5" font-family="Helvetica,sans-Serif" font-size="10.00">::LocalNeighbour::set</text>
<text text-anchor="middle" x="239" y="-6.5" font-family="Helvetica,sans-Serif" font-size="10.00">_offset</text>
</a>
</g>
</g>
<!-- Node1&#45;&gt;Node5 -->
<g id="edge4" class="edge"><title>Node1&#45;&gt;Node5</title>
<path fill="none" stroke="midnightblue" d="M148.394,-49.6855C156.897,-46.8686 165.518,-44.0123 173.884,-41.2409"/>
<polygon fill="midnightblue" stroke="midnightblue" points="175.172,-44.5013 183.564,-38.034 172.971,-37.8564 175.172,-44.5013"/>
</g>
<!-- Node4 -->
<g id="node4" class="node"><title>Node4</title>
<g id="a_node4"><a xlink:href="structvisioncpp_1_1internal_1_1tools_1_1Convertor.html#a50519510c30e56ead8657c8a06d8c9d4" target="_top" xlink:title="function convert ">
<polygon fill="none" stroke="black" points="330,-53.5 330,-94.5 428,-94.5 428,-53.5 330,-53.5"/>
<text text-anchor="start" x="338" y="-82.5" font-family="Helvetica,sans-Serif" font-size="10.00">visioncpp::internal</text>
<text text-anchor="start" x="338" y="-71.5" font-family="Helvetica,sans-Serif" font-size="10.00">::tools::Convertor::</text>
<text text-anchor="middle" x="379" y="-60.5" font-family="Helvetica,sans-Serif" font-size="10.00">convert</text>
</a>
</g>
</g>
<!-- Node3&#45;&gt;Node4 -->
<g id="edge3" class="edge"><title>Node3&#45;&gt;Node4</title>
<path fill="none" stroke="midnightblue" d="M286.721,-74C297.377,-74 308.827,-74 319.894,-74"/>
<polygon fill="midnightblue" stroke="midnightblue" points="319.916,-77.5001 329.916,-74 319.916,-70.5001 319.916,-77.5001"/>
</g>
</g>
</svg>
