<?xml version="1.0" encoding="UTF-8" standalone="no"?>
<!DOCTYPE svg PUBLIC "-//W3C//DTD SVG 1.1//EN"
 "http://www.w3.org/Graphics/SVG/1.1/DTD/svg11.dtd">
<!-- Generated by graphviz version 2.43.0 (0)
 -->
<!-- Title: visioncpp::internal::LocalMemCount&lt; expr_category::Unary, LeafNode&lt; PlaceHolder&lt; memory_type::Const, N, Cols, Rows, scope::Global &gt;, LVL &gt; &gt; Pages: 1 -->
<svg width="174pt" height="226pt"
 viewBox="0.00 0.00 174.00 226.00" xmlns="http://www.w3.org/2000/svg" xmlns:xlink="http://www.w3.org/1999/xlink">
<g id="graph0" class="graph" transform="scale(1 1) rotate(0) translate(4 222)">
<title>visioncpp::internal::LocalMemCount&lt; expr_category::Unary, LeafNode&lt; PlaceHolder&lt; memory_type::Const, N, Cols, Rows, scope::Global &gt;, LVL &gt; &gt;</title>
<!-- Node1 -->
<g id="node1" class="node">
<title>Node1</title>
<g id="a_node1"><a xlink:title="Partial specialisation of the LocalmemCount when the LeafNode contains the const variable.">
<polygon fill="#bfbfbf" stroke="black" points="0,-0.5 0,-112.5 166,-112.5 166,-0.5 0,-0.5"/>
<text text-anchor="start" x="8" y="-100.5" font-family="Helvetica,sans-Serif" font-size="10.00">visioncpp::internal</text>
<text text-anchor="start" x="8" y="-89.5" font-family="Helvetica,sans-Serif" font-size="10.00">::LocalMemCount&lt; expr</text>
<text text-anchor="start" x="8" y="-78.5" font-family="Helvetica,sans-Serif" font-size="10.00">_category::Unary, LeafNode</text>
<text text-anchor="start" x="8" y="-67.5" font-family="Helvetica,sans-Serif" font-size="10.00">&lt; PlaceHolder&lt; memory_type</text>
<text text-anchor="start" x="8" y="-56.5" font-family="Helvetica,sans-Serif" font-size="10.00">::Const, N, Cols, Rows, scope</text>
<text text-anchor="middle" x="83" y="-45.5" font-family="Helvetica,sans-Serif" font-size="10.00">::Global &gt;, LVL &gt; &gt;</text>
<polyline fill="none" stroke="black" points="0,-38.5 166,-38.5 "/>
<text text-anchor="middle" x="83" y="-26.5" font-family="Helvetica,sans-Serif" font-size="10.00"> </text>
<polyline fill="none" stroke="black" points="0,-19.5 166,-19.5 "/>
<text text-anchor="middle" x="83" y="-7.5" font-family="Helvetica,sans-Serif" font-size="10.00"> </text>
</a>
</g>
</g>
<!-- Node2 -->
<g id="node2" class="node">
<title>Node2</title>
<g id="a_node2"><a xlink:title=" ">
<polygon fill="none" stroke="#bfbfbf" points="60.5,-160.5 60.5,-217.5 105.5,-217.5 105.5,-160.5 60.5,-160.5"/>
<text text-anchor="middle" x="83" y="-205.5" font-family="Helvetica,sans-Serif" font-size="10.00">size_t</text>
<polyline fill="none" stroke="#bfbfbf" points="60.5,-198.5 105.5,-198.5 "/>
<text text-anchor="middle" x="83" y="-186.5" font-family="Helvetica,sans-Serif" font-size="10.00"> </text>
<polyline fill="none" stroke="#bfbfbf" points="60.5,-179.5 105.5,-179.5 "/>
<text text-anchor="middle" x="83" y="-167.5" font-family="Helvetica,sans-Serif" font-size="10.00"> </text>
</a>
</g>
</g>
<!-- Node2&#45;&gt;Node1 -->
<g id="edge1" class="edge">
<title>Node2&#45;&gt;Node1</title>
<path fill="none" stroke="#404040" d="M83,-160.32C83,-149.78 83,-137.25 83,-124.62"/>
<polygon fill="none" stroke="#404040" points="83,-124.55 79,-118.55 83,-112.55 87,-118.55 83,-124.55"/>
<text text-anchor="middle" x="103" y="-134" font-family="Helvetica,sans-Serif" font-size="10.00"> +Count</text>
</g>
</g>
</svg>
