<?xml version="1.0" encoding="UTF-8" standalone="no"?>
<!DOCTYPE svg PUBLIC "-//W3C//DTD SVG 1.1//EN"
 "http://www.w3.org/Graphics/SVG/1.1/DTD/svg11.dtd">
<!-- Generated by graphviz version 2.43.0 (0)
 -->
<!-- Title: visioncpp::internal::LocalOutput&lt; false, IsRoot, LC, LR, LeafNode&lt; RHS, LVL &gt; &gt; Pages: 1 -->
<svg width="147pt" height="215pt"
 viewBox="0.00 0.00 147.00 215.00" xmlns="http://www.w3.org/2000/svg" xmlns:xlink="http://www.w3.org/1999/xlink">
<g id="graph0" class="graph" transform="scale(1 1) rotate(0) translate(4 211)">
<title>visioncpp::internal::LocalOutput&lt; false, IsRoot, LC, LR, LeafNode&lt; RHS, LVL &gt; &gt;</title>
<!-- Node1 -->
<g id="node1" class="node">
<title>Node1</title>
<g id="a_node1"><a xlink:title="LocalOutput specialisation for leaf node it creates the local accessor that contains the data of the ...">
<polygon fill="#bfbfbf" stroke="black" points="0,-0.5 0,-90.5 139,-90.5 139,-0.5 0,-0.5"/>
<text text-anchor="start" x="8" y="-78.5" font-family="Helvetica,sans-Serif" font-size="10.00">visioncpp::internal</text>
<text text-anchor="start" x="8" y="-67.5" font-family="Helvetica,sans-Serif" font-size="10.00">::LocalOutput&lt; false,</text>
<text text-anchor="start" x="8" y="-56.5" font-family="Helvetica,sans-Serif" font-size="10.00"> IsRoot, LC, LR, LeafNode</text>
<text text-anchor="middle" x="69.5" y="-45.5" font-family="Helvetica,sans-Serif" font-size="10.00">&lt; RHS, LVL &gt; &gt;</text>
<polyline fill="none" stroke="black" points="0,-38.5 139,-38.5 "/>
<text text-anchor="middle" x="69.5" y="-26.5" font-family="Helvetica,sans-Serif" font-size="10.00"> </text>
<polyline fill="none" stroke="black" points="0,-19.5 139,-19.5 "/>
<text text-anchor="start" x="8" y="-7.5" font-family="Helvetica,sans-Serif" font-size="10.00">+ getTuple()</text>
</a>
</g>
</g>
<!-- Node2 -->
<g id="node2" class="node">
<title>Node2</title>
<g id="a_node2"><a xlink:title=" ">
<polygon fill="none" stroke="#bfbfbf" points="47,-149.5 47,-206.5 92,-206.5 92,-149.5 47,-149.5"/>
<text text-anchor="middle" x="69.5" y="-194.5" font-family="Helvetica,sans-Serif" font-size="10.00">size_t</text>
<polyline fill="none" stroke="#bfbfbf" points="47,-187.5 92,-187.5 "/>
<text text-anchor="middle" x="69.5" y="-175.5" font-family="Helvetica,sans-Serif" font-size="10.00"> </text>
<polyline fill="none" stroke="#bfbfbf" points="47,-168.5 92,-168.5 "/>
<text text-anchor="middle" x="69.5" y="-156.5" font-family="Helvetica,sans-Serif" font-size="10.00"> </text>
</a>
</g>
</g>
<!-- Node2&#45;&gt;Node1 -->
<g id="edge1" class="edge">
<title>Node2&#45;&gt;Node1</title>
<path fill="none" stroke="#404040" d="M69.5,-149.32C69.5,-135.73 69.5,-118.84 69.5,-102.7"/>
<polygon fill="none" stroke="#404040" points="69.5,-102.57 65.5,-96.57 69.5,-90.57 73.5,-96.57 69.5,-102.57"/>
<text text-anchor="middle" x="92.5" y="-123" font-family="Helvetica,sans-Serif" font-size="10.00"> +Out_LC</text>
<text text-anchor="middle" x="92.5" y="-112" font-family="Helvetica,sans-Serif" font-size="10.00">+Out_LR</text>
</g>
</g>
</svg>
