<?xml version="1.0" encoding="UTF-8" standalone="no"?>
<!DOCTYPE svg PUBLIC "-//W3C//DTD SVG 1.1//EN"
 "http://www.w3.org/Graphics/SVG/1.1/DTD/svg11.dtd">
<!-- Generated by graphviz version 2.36.0 (20140111.2315)
 -->
<!-- Title: visioncpp::internal::PlaceHolder&lt; Memory_Type, N, C, R, Sc &gt; Pages: 1 -->
<svg width="126pt" height="238pt"
 viewBox="0.00 0.00 126.00 238.00" xmlns="http://www.w3.org/2000/svg" xmlns:xlink="http://www.w3.org/1999/xlink">
<g id="graph0" class="graph" transform="scale(1 1) rotate(0) translate(4 234)">
<title>visioncpp::internal::PlaceHolder&lt; Memory_Type, N, C, R, Sc &gt;</title>
<!-- Node1 -->
<g id="node1" class="node"><title>Node1</title>
<polygon fill="#bfbfbf" stroke="black" points="-1,-0.5 -1,-79.5 119,-79.5 119,-0.5 -1,-0.5"/>
<text text-anchor="start" x="7" y="-67.5" font-family="Helvetica,sans-Serif" font-size="10.00">visioncpp::internal</text>
<text text-anchor="start" x="7" y="-56.5" font-family="Helvetica,sans-Serif" font-size="10.00">::PlaceHolder&lt; Memory</text>
<text text-anchor="middle" x="59" y="-45.5" font-family="Helvetica,sans-Serif" font-size="10.00">_Type, N, C, R, Sc &gt;</text>
<polyline fill="none" stroke="black" points="-1,-38.5 119,-38.5 "/>
<text text-anchor="middle" x="59" y="-26.5" font-family="Helvetica,sans-Serif" font-size="10.00"> </text>
<polyline fill="none" stroke="black" points="-1,-19.5 119,-19.5 "/>
<text text-anchor="middle" x="59" y="-7.5" font-family="Helvetica,sans-Serif" font-size="10.00"> </text>
</g>
<!-- Node2 -->
<g id="node2" class="node"><title>Node2</title>
<polygon fill="none" stroke="#bfbfbf" points="37.5,-172.5 37.5,-229.5 80.5,-229.5 80.5,-172.5 37.5,-172.5"/>
<text text-anchor="middle" x="59" y="-217.5" font-family="Helvetica,sans-Serif" font-size="10.00">size_t</text>
<polyline fill="none" stroke="#bfbfbf" points="37.5,-210.5 80.5,-210.5 "/>
<text text-anchor="middle" x="59" y="-198.5" font-family="Helvetica,sans-Serif" font-size="10.00"> </text>
<polyline fill="none" stroke="#bfbfbf" points="37.5,-191.5 80.5,-191.5 "/>
<text text-anchor="middle" x="59" y="-179.5" font-family="Helvetica,sans-Serif" font-size="10.00"> </text>
</g>
<!-- Node2&#45;&gt;Node1 -->
<g id="edge1" class="edge"><title>Node2&#45;&gt;Node1</title>
<path fill="none" stroke="#404040" d="M59,-172.304C59,-150.183 59,-118.584 59,-91.9279"/>
<polygon fill="none" stroke="#404040" points="59.0001,-91.6925 55,-85.6925 59,-79.6925 63,-85.6924 59.0001,-91.6925"/>
<text text-anchor="middle" x="82.5" y="-145.5" font-family="Helvetica,sans-Serif" font-size="10.00"> +Rows</text>
<text text-anchor="middle" x="82.5" y="-134.5" font-family="Helvetica,sans-Serif" font-size="10.00">+Scope</text>
<text text-anchor="middle" x="82.5" y="-123.5" font-family="Helvetica,sans-Serif" font-size="10.00">+LeafType</text>
<text text-anchor="middle" x="82.5" y="-112.5" font-family="Helvetica,sans-Serif" font-size="10.00">+Cols</text>
<text text-anchor="middle" x="82.5" y="-101.5" font-family="Helvetica,sans-Serif" font-size="10.00">+I</text>
</g>
</g>
</svg>
