<?xml version="1.0" encoding="UTF-8" standalone="no"?>
<!DOCTYPE svg PUBLIC "-//W3C//DTD SVG 1.1//EN"
 "http://www.w3.org/Graphics/SVG/1.1/DTD/svg11.dtd">
<!-- Generated by graphviz version 2.36.0 (20140111.2315)
 -->
<!-- Title: visioncpp::internal::PyramidAutomemGen&lt; Fltr2DOP, DownSmplOP, RHS, Fltr2D, Cols, Rows, LfType, LVL, Dp &gt; Pages: 1 -->
<svg width="516pt" height="532pt"
 viewBox="0.00 0.00 516.00 532.00" xmlns="http://www.w3.org/2000/svg" xmlns:xlink="http://www.w3.org/1999/xlink">
<g id="graph0" class="graph" transform="scale(1 1) rotate(0) translate(4 528)">
<title>visioncpp::internal::PyramidAutomemGen&lt; Fltr2DOP, DownSmplOP, RHS, Fltr2D, Cols, Rows, LfType, LVL, Dp &gt;</title>
<!-- Node1 -->
<g id="node1" class="node"><title>Node1</title>
<polygon fill="#bfbfbf" stroke="black" points="165.5,-1 165.5,-135 314.5,-135 314.5,-1 165.5,-1"/>
<text text-anchor="start" x="173.5" y="-123" font-family="Helvetica,sans-Serif" font-size="10.00">visioncpp::internal</text>
<text text-anchor="start" x="173.5" y="-112" font-family="Helvetica,sans-Serif" font-size="10.00">::PyramidAutomemGen</text>
<text text-anchor="start" x="173.5" y="-101" font-family="Helvetica,sans-Serif" font-size="10.00">&lt; Fltr2DOP, DownSmplOP,</text>
<text text-anchor="start" x="173.5" y="-90" font-family="Helvetica,sans-Serif" font-size="10.00"> RHS, Fltr2D, Cols, Rows,</text>
<text text-anchor="middle" x="240" y="-79" font-family="Helvetica,sans-Serif" font-size="10.00"> LfType, LVL, Dp &gt;</text>
<polyline fill="none" stroke="black" points="165.5,-72 314.5,-72 "/>
<text text-anchor="middle" x="240" y="-60" font-family="Helvetica,sans-Serif" font-size="10.00"> </text>
<polyline fill="none" stroke="black" points="165.5,-53 314.5,-53 "/>
<text text-anchor="start" x="173.5" y="-41" font-family="Helvetica,sans-Serif" font-size="10.00">+ PyramidAutomemGen()</text>
<text text-anchor="start" x="173.5" y="-30" font-family="Helvetica,sans-Serif" font-size="10.00">+ reset()</text>
<text text-anchor="start" x="173.5" y="-19" font-family="Helvetica,sans-Serif" font-size="10.00">+ get()</text>
<text text-anchor="start" x="173.5" y="-8" font-family="Helvetica,sans-Serif" font-size="10.00">+ sub_expression_evaluation()</text>
</g>
<!-- Node2 -->
<g id="node2" class="node"><title>Node2</title>
<polygon fill="none" stroke="#bfbfbf" points="0,-277.5 0,-334.5 44,-334.5 44,-277.5 0,-277.5"/>
<text text-anchor="middle" x="22" y="-322.5" font-family="Helvetica,sans-Serif" font-size="10.00">Fltr2D</text>
<polyline fill="none" stroke="#bfbfbf" points="0,-315.5 44,-315.5 "/>
<text text-anchor="middle" x="22" y="-303.5" font-family="Helvetica,sans-Serif" font-size="10.00"> </text>
<polyline fill="none" stroke="#bfbfbf" points="0,-296.5 44,-296.5 "/>
<text text-anchor="middle" x="22" y="-284.5" font-family="Helvetica,sans-Serif" font-size="10.00"> </text>
</g>
<!-- Node2&#45;&gt;Node1 -->
<g id="edge1" class="edge"><title>Node2&#45;&gt;Node1</title>
<path fill="none" stroke="#404040" d="M40.9357,-277.337C44.9018,-271.593 49.0723,-265.588 53,-260 86.3334,-212.573 88.6601,-195.63 129,-154 137.298,-145.437 146.498,-137.03 155.949,-129.036"/>
<polygon fill="none" stroke="#404040" points="156.204,-128.825 158.286,-121.921 165.46,-121.187 163.378,-128.091 156.204,-128.825"/>
<text text-anchor="middle" x="146" y="-195.5" font-family="Helvetica,sans-Serif" font-size="10.00"> +fltr2D</text>
</g>
<!-- Node3 -->
<g id="node3" class="node"><title>Node3</title>
<g id="a_node3"><a xlink:href="structvisioncpp_1_1internal_1_1CreatePyramidTupleType.html" target="_top" xlink:title="{visioncpp::internal\l::CreatePyramidTupleType\l\&lt; false, Cols/2, Rows/2,\l LeafType, Depth, 0, LHSExpr \&gt;\n||}">
<polygon fill="none" stroke="black" points="62,-261 62,-351 220,-351 220,-261 62,-261"/>
<text text-anchor="start" x="70" y="-339" font-family="Helvetica,sans-Serif" font-size="10.00">visioncpp::internal</text>
<text text-anchor="start" x="70" y="-328" font-family="Helvetica,sans-Serif" font-size="10.00">::CreatePyramidTupleType</text>
<text text-anchor="start" x="70" y="-317" font-family="Helvetica,sans-Serif" font-size="10.00">&lt; false, Cols/2, Rows/2,</text>
<text text-anchor="middle" x="141" y="-306" font-family="Helvetica,sans-Serif" font-size="10.00"> LeafType, Depth, 0, LHSExpr &gt;</text>
<polyline fill="none" stroke="black" points="62,-299 220,-299 "/>
<text text-anchor="middle" x="141" y="-287" font-family="Helvetica,sans-Serif" font-size="10.00"> </text>
<polyline fill="none" stroke="black" points="62,-280 220,-280 "/>
<text text-anchor="middle" x="141" y="-268" font-family="Helvetica,sans-Serif" font-size="10.00"> </text>
</a>
</g>
</g>
<!-- Node3&#45;&gt;Node1 -->
<g id="edge2" class="edge"><title>Node3&#45;&gt;Node1</title>
<path fill="none" stroke="#404040" d="M157.861,-260.813C169.569,-230.577 185.746,-189.662 201,-154 202.064,-151.514 203.154,-148.991 204.263,-146.447"/>
<polygon fill="none" stroke="#404040" points="204.378,-146.186 203.139,-139.082 209.22,-135.207 210.459,-142.311 204.378,-146.186"/>
<text text-anchor="middle" x="216.5" y="-195.5" font-family="Helvetica,sans-Serif" font-size="10.00"> +mem</text>
</g>
<!-- Node4 -->
<g id="node4" class="node"><title>Node4</title>
<g id="a_node4"><a xlink:href="structvisioncpp_1_1internal_1_1CreatePyramidTupleType.html" target="_top" xlink:title="CreatePyramidTupleType: This file is used to create each output element type for each downsampling ou...">
<polygon fill="none" stroke="black" points="59.5,-422.5 59.5,-523.5 222.5,-523.5 222.5,-422.5 59.5,-422.5"/>
<text text-anchor="start" x="67.5" y="-511.5" font-family="Helvetica,sans-Serif" font-size="10.00">visioncpp::internal</text>
<text text-anchor="start" x="67.5" y="-500.5" font-family="Helvetica,sans-Serif" font-size="10.00">::CreatePyramidTupleType</text>
<text text-anchor="start" x="67.5" y="-489.5" font-family="Helvetica,sans-Serif" font-size="10.00">&lt; SatisfyingConds, Cols,</text>
<text text-anchor="start" x="67.5" y="-478.5" font-family="Helvetica,sans-Serif" font-size="10.00"> Rows, LeafType, Depth,</text>
<text text-anchor="middle" x="141" y="-467.5" font-family="Helvetica,sans-Serif" font-size="10.00"> CurrentDepth, LHS, ChildType &gt;</text>
<polyline fill="none" stroke="black" points="59.5,-460.5 222.5,-460.5 "/>
<text text-anchor="middle" x="141" y="-448.5" font-family="Helvetica,sans-Serif" font-size="10.00"> </text>
<polyline fill="none" stroke="black" points="59.5,-441.5 222.5,-441.5 "/>
<text text-anchor="middle" x="141" y="-429.5" font-family="Helvetica,sans-Serif" font-size="10.00"> </text>
</a>
</g>
</g>
<!-- Node4&#45;&gt;Node3 -->
<g id="edge3" class="edge"><title>Node4&#45;&gt;Node3</title>
<path fill="none" stroke="orange" d="M141,-412.434C141,-392.195 141,-369.956 141,-351.141"/>
<polygon fill="orange" stroke="orange" points="137.5,-412.495 141,-422.495 144.5,-412.495 137.5,-412.495"/>
<text text-anchor="start" x="141" y="-395.5" font-family="Helvetica,sans-Serif" font-size="10.00"> &lt; false, Cols/2, Rows</text>
<text text-anchor="start" x="141" y="-384.5" font-family="Helvetica,sans-Serif" font-size="10.00">/2, LeafType, Depth,</text>
<text text-anchor="middle" x="191" y="-373.5" font-family="Helvetica,sans-Serif" font-size="10.00"> 0, LHSExpr &gt;</text>
</g>
<!-- Node5 -->
<g id="node5" class="node"><title>Node5</title>
<polygon fill="none" stroke="#bfbfbf" points="237.5,-277.5 237.5,-334.5 280.5,-334.5 280.5,-277.5 237.5,-277.5"/>
<text text-anchor="middle" x="259" y="-322.5" font-family="Helvetica,sans-Serif" font-size="10.00">size_t</text>
<polyline fill="none" stroke="#bfbfbf" points="237.5,-315.5 280.5,-315.5 "/>
<text text-anchor="middle" x="259" y="-303.5" font-family="Helvetica,sans-Serif" font-size="10.00"> </text>
<polyline fill="none" stroke="#bfbfbf" points="237.5,-296.5 280.5,-296.5 "/>
<text text-anchor="middle" x="259" y="-284.5" font-family="Helvetica,sans-Serif" font-size="10.00"> </text>
</g>
<!-- Node5&#45;&gt;Node1 -->
<g id="edge4" class="edge"><title>Node5&#45;&gt;Node1</title>
<path fill="none" stroke="#404040" d="M249.365,-277.442C246.023,-266.547 242.691,-253.824 241,-242 236.59,-211.164 235.589,-176.919 235.959,-147.089"/>
<polygon fill="none" stroke="#404040" points="235.96,-147.028 232.073,-140.955 236.185,-135.031 240.072,-141.104 235.96,-147.028"/>
<text text-anchor="middle" x="277.5" y="-234" font-family="Helvetica,sans-Serif" font-size="10.00"> +node_reseter</text>
<text text-anchor="middle" x="277.5" y="-223" font-family="Helvetica,sans-Serif" font-size="10.00">+Operation_type</text>
<text text-anchor="middle" x="277.5" y="-212" font-family="Helvetica,sans-Serif" font-size="10.00">+Level</text>
<text text-anchor="middle" x="277.5" y="-201" font-family="Helvetica,sans-Serif" font-size="10.00">+Depth</text>
<text text-anchor="middle" x="277.5" y="-190" font-family="Helvetica,sans-Serif" font-size="10.00">+LeafType</text>
<text text-anchor="middle" x="277.5" y="-179" font-family="Helvetica,sans-Serif" font-size="10.00">+RThread</text>
<text text-anchor="middle" x="277.5" y="-168" font-family="Helvetica,sans-Serif" font-size="10.00">+CThread</text>
<text text-anchor="middle" x="277.5" y="-157" font-family="Helvetica,sans-Serif" font-size="10.00">+ND_Category</text>
</g>
<!-- Node6 -->
<g id="node6" class="node"><title>Node6</title>
<polygon fill="none" stroke="#bfbfbf" points="317,-277.5 317,-334.5 355,-334.5 355,-277.5 317,-277.5"/>
<text text-anchor="middle" x="336" y="-322.5" font-family="Helvetica,sans-Serif" font-size="10.00">RHS</text>
<polyline fill="none" stroke="#bfbfbf" points="317,-315.5 355,-315.5 "/>
<text text-anchor="middle" x="336" y="-303.5" font-family="Helvetica,sans-Serif" font-size="10.00"> </text>
<polyline fill="none" stroke="#bfbfbf" points="317,-296.5 355,-296.5 "/>
<text text-anchor="middle" x="336" y="-284.5" font-family="Helvetica,sans-Serif" font-size="10.00"> </text>
</g>
<!-- Node6&#45;&gt;Node1 -->
<g id="edge5" class="edge"><title>Node6&#45;&gt;Node1</title>
<path fill="none" stroke="#404040" d="M336.563,-277.234C336.177,-245.902 332.408,-194.085 314,-154 312.714,-151.2 311.306,-148.422 309.796,-145.675"/>
<polygon fill="none" stroke="#404040" points="309.705,-145.524 303.182,-142.452 303.509,-135.248 310.032,-138.321 309.705,-145.524"/>
<text text-anchor="middle" x="346.5" y="-195.5" font-family="Helvetica,sans-Serif" font-size="10.00"> +rhs</text>
</g>
<!-- Node7 -->
<g id="node7" class="node"><title>Node7</title>
<polygon fill="none" stroke="#bfbfbf" points="373.5,-277.5 373.5,-334.5 408.5,-334.5 408.5,-277.5 373.5,-277.5"/>
<text text-anchor="middle" x="391" y="-322.5" font-family="Helvetica,sans-Serif" font-size="10.00">bool</text>
<polyline fill="none" stroke="#bfbfbf" points="373.5,-315.5 408.5,-315.5 "/>
<text text-anchor="middle" x="391" y="-303.5" font-family="Helvetica,sans-Serif" font-size="10.00"> </text>
<polyline fill="none" stroke="#bfbfbf" points="373.5,-296.5 408.5,-296.5 "/>
<text text-anchor="middle" x="391" y="-284.5" font-family="Helvetica,sans-Serif" font-size="10.00"> </text>
</g>
<!-- Node7&#45;&gt;Node1 -->
<g id="edge6" class="edge"><title>Node7&#45;&gt;Node1</title>
<path fill="none" stroke="#404040" d="M391.739,-277.358C391.312,-245.205 386.5,-191.722 362,-154 352.289,-139.049 338.939,-125.978 324.62,-114.862"/>
<polygon fill="none" stroke="#404040" points="324.25,-114.59 317.047,-114.256 314.584,-107.479 321.788,-107.812 324.25,-114.59"/>
<text text-anchor="middle" x="449" y="-223" font-family="Helvetica,sans-Serif" font-size="10.00"> +has_out</text>
<text text-anchor="start" x="390" y="-212" font-family="Helvetica,sans-Serif" font-size="10.00">+SubExpressionEvaluation</text>
<text text-anchor="middle" x="449" y="-201" font-family="Helvetica,sans-Serif" font-size="10.00">Needed</text>
<text text-anchor="middle" x="449" y="-190" font-family="Helvetica,sans-Serif" font-size="10.00">+first_time</text>
<text text-anchor="start" x="390" y="-179" font-family="Helvetica,sans-Serif" font-size="10.00">+subexpr_execution</text>
<text text-anchor="middle" x="449" y="-168" font-family="Helvetica,sans-Serif" font-size="10.00">_reseter</text>
</g>
</g>
</svg>
