<?xml version="1.0" encoding="UTF-8" standalone="no"?>
<!DOCTYPE svg PUBLIC "-//W3C//DTD SVG 1.1//EN"
 "http://www.w3.org/Graphics/SVG/1.1/DTD/svg11.dtd">
<!-- Generated by graphviz version 2.43.0 (0)
 -->
<!-- Title: visioncpp::internal::LeafNode&lt; PlaceHolder&lt; Memory_Type, N, C, R, Sc &gt;, LVL &gt; Pages: 1 -->
<svg width="273pt" height="259pt"
 viewBox="0.00 0.00 273.00 259.00" xmlns="http://www.w3.org/2000/svg" xmlns:xlink="http://www.w3.org/1999/xlink">
<g id="graph0" class="graph" transform="scale(1 1) rotate(0) translate(4 255)">
<title>visioncpp::internal::LeafNode&lt; PlaceHolder&lt; Memory_Type, N, C, R, Sc &gt;, LVL &gt;</title>
<!-- Node1 -->
<g id="node1" class="node">
<title>Node1</title>
<g id="a_node1"><a xlink:title="The specialisation of LeafNode for the PlaceHolder.">
<polygon fill="#bfbfbf" stroke="black" points="0,-0.5 0,-90.5 168,-90.5 168,-0.5 0,-0.5"/>
<text text-anchor="start" x="8" y="-78.5" font-family="Helvetica,sans-Serif" font-size="10.00">visioncpp::internal</text>
<text text-anchor="start" x="8" y="-67.5" font-family="Helvetica,sans-Serif" font-size="10.00">::LeafNode&lt; PlaceHolder</text>
<text text-anchor="start" x="8" y="-56.5" font-family="Helvetica,sans-Serif" font-size="10.00">&lt; Memory_Type, N, C, R,</text>
<text text-anchor="middle" x="84" y="-45.5" font-family="Helvetica,sans-Serif" font-size="10.00"> Sc &gt;, LVL &gt;</text>
<polyline fill="none" stroke="black" points="0,-38.5 168,-38.5 "/>
<text text-anchor="middle" x="84" y="-26.5" font-family="Helvetica,sans-Serif" font-size="10.00"> </text>
<polyline fill="none" stroke="black" points="0,-19.5 168,-19.5 "/>
<text text-anchor="start" x="8" y="-7.5" font-family="Helvetica,sans-Serif" font-size="10.00">+ sub_expression_evaluation()</text>
</a>
</g>
</g>
<!-- Node2 -->
<g id="node2" class="node">
<title>Node2</title>
<g id="a_node2"><a xlink:title=" ">
<polygon fill="none" stroke="#bfbfbf" points="6.5,-193.5 6.5,-250.5 51.5,-250.5 51.5,-193.5 6.5,-193.5"/>
<text text-anchor="middle" x="29" y="-238.5" font-family="Helvetica,sans-Serif" font-size="10.00">size_t</text>
<polyline fill="none" stroke="#bfbfbf" points="6.5,-231.5 51.5,-231.5 "/>
<text text-anchor="middle" x="29" y="-219.5" font-family="Helvetica,sans-Serif" font-size="10.00"> </text>
<polyline fill="none" stroke="#bfbfbf" points="6.5,-212.5 51.5,-212.5 "/>
<text text-anchor="middle" x="29" y="-200.5" font-family="Helvetica,sans-Serif" font-size="10.00"> </text>
</a>
</g>
</g>
<!-- Node2&#45;&gt;Node1 -->
<g id="edge1" class="edge">
<title>Node2&#45;&gt;Node1</title>
<path fill="none" stroke="#404040" d="M24.08,-193.33C21.13,-170.05 19.7,-136.29 30,-109 30.97,-106.44 32.09,-103.91 33.34,-101.43"/>
<polygon fill="none" stroke="#404040" points="33.48,-101.19 33.06,-94 39.55,-90.84 39.96,-98.04 33.48,-101.19"/>
<text text-anchor="middle" x="73.5" y="-167" font-family="Helvetica,sans-Serif" font-size="10.00"> +Operation_type</text>
<text text-anchor="middle" x="73.5" y="-156" font-family="Helvetica,sans-Serif" font-size="10.00">+Level</text>
<text text-anchor="middle" x="73.5" y="-145" font-family="Helvetica,sans-Serif" font-size="10.00">+LeafType</text>
<text text-anchor="middle" x="73.5" y="-134" font-family="Helvetica,sans-Serif" font-size="10.00">+RThread</text>
<text text-anchor="middle" x="73.5" y="-123" font-family="Helvetica,sans-Serif" font-size="10.00">+CThread</text>
<text text-anchor="middle" x="73.5" y="-112" font-family="Helvetica,sans-Serif" font-size="10.00">+ND_Category</text>
</g>
<!-- Node3 -->
<g id="node3" class="node">
<title>Node3</title>
<g id="a_node3"><a xlink:title=" ">
<polygon fill="none" stroke="#bfbfbf" points="120,-193.5 120,-250.5 158,-250.5 158,-193.5 120,-193.5"/>
<text text-anchor="middle" x="139" y="-238.5" font-family="Helvetica,sans-Serif" font-size="10.00">bool</text>
<polyline fill="none" stroke="#bfbfbf" points="120,-231.5 158,-231.5 "/>
<text text-anchor="middle" x="139" y="-219.5" font-family="Helvetica,sans-Serif" font-size="10.00"> </text>
<polyline fill="none" stroke="#bfbfbf" points="120,-212.5 158,-212.5 "/>
<text text-anchor="middle" x="139" y="-200.5" font-family="Helvetica,sans-Serif" font-size="10.00"> </text>
</a>
</g>
</g>
<!-- Node3&#45;&gt;Node1 -->
<g id="edge2" class="edge">
<title>Node3&#45;&gt;Node1</title>
<path fill="none" stroke="#404040" d="M135.84,-193.25C132.68,-170.21 126.84,-136.84 117,-109 116.12,-106.51 115.15,-104 114.12,-101.48"/>
<polygon fill="none" stroke="#404040" points="114.12,-101.47 108.03,-97.61 109.25,-90.51 115.34,-94.37 114.12,-101.47"/>
<text text-anchor="middle" x="199" y="-150.5" font-family="Helvetica,sans-Serif" font-size="10.00"> +PointOp</text>
<text text-anchor="start" x="133" y="-139.5" font-family="Helvetica,sans-Serif" font-size="10.00">+SubExpressionEvaluation</text>
<text text-anchor="middle" x="199" y="-128.5" font-family="Helvetica,sans-Serif" font-size="10.00">Needed</text>
</g>
</g>
</svg>
