<?xml version="1.0" encoding="UTF-8" standalone="no"?>
<!DOCTYPE svg PUBLIC "-//W3C//DTD SVG 1.1//EN"
 "http://www.w3.org/Graphics/SVG/1.1/DTD/svg11.dtd">
<!-- Generated by graphviz version 2.43.0 (0)
 -->
<!-- Title: visioncpp::internal::RUnOP&lt; UN_OP, RHS, Cols, Rows, LfType, LVL &gt; Pages: 1 -->
<svg width="320pt" height="270pt"
 viewBox="0.00 0.00 319.50 270.00" xmlns="http://www.w3.org/2000/svg" xmlns:xlink="http://www.w3.org/1999/xlink">
<g id="graph0" class="graph" transform="scale(1 1) rotate(0) translate(4 266)">
<title>visioncpp::internal::RUnOP&lt; UN_OP, RHS, Cols, Rows, LfType, LVL &gt;</title>
<!-- Node1 -->
<g id="node1" class="node">
<title>Node1</title>
<g id="a_node1"><a xlink:title="The definition is in RUnOP file.">
<polygon fill="#bfbfbf" stroke="black" points="48.5,-0.5 48.5,-101.5 216.5,-101.5 216.5,-0.5 48.5,-0.5"/>
<text text-anchor="start" x="56.5" y="-89.5" font-family="Helvetica,sans-Serif" font-size="10.00">visioncpp::internal</text>
<text text-anchor="start" x="56.5" y="-78.5" font-family="Helvetica,sans-Serif" font-size="10.00">::RUnOP&lt; UN_OP, RHS,</text>
<text text-anchor="middle" x="132.5" y="-67.5" font-family="Helvetica,sans-Serif" font-size="10.00"> Cols, Rows, LfType, LVL &gt;</text>
<polyline fill="none" stroke="black" points="48.5,-60.5 216.5,-60.5 "/>
<text text-anchor="middle" x="132.5" y="-48.5" font-family="Helvetica,sans-Serif" font-size="10.00"> </text>
<polyline fill="none" stroke="black" points="48.5,-41.5 216.5,-41.5 "/>
<text text-anchor="start" x="56.5" y="-29.5" font-family="Helvetica,sans-Serif" font-size="10.00">+ RUnOP()</text>
<text text-anchor="start" x="56.5" y="-18.5" font-family="Helvetica,sans-Serif" font-size="10.00">+ reset()</text>
<text text-anchor="start" x="56.5" y="-7.5" font-family="Helvetica,sans-Serif" font-size="10.00">+ sub_expression_evaluation()</text>
</a>
</g>
</g>
<!-- Node2 -->
<g id="node2" class="node">
<title>Node2</title>
<g id="a_node2"><a xlink:title=" ">
<polygon fill="none" stroke="#bfbfbf" points="0,-204.5 0,-261.5 45,-261.5 45,-204.5 0,-204.5"/>
<text text-anchor="middle" x="22.5" y="-249.5" font-family="Helvetica,sans-Serif" font-size="10.00">size_t</text>
<polyline fill="none" stroke="#bfbfbf" points="0,-242.5 45,-242.5 "/>
<text text-anchor="middle" x="22.5" y="-230.5" font-family="Helvetica,sans-Serif" font-size="10.00"> </text>
<polyline fill="none" stroke="#bfbfbf" points="0,-223.5 45,-223.5 "/>
<text text-anchor="middle" x="22.5" y="-211.5" font-family="Helvetica,sans-Serif" font-size="10.00"> </text>
</a>
</g>
</g>
<!-- Node2&#45;&gt;Node1 -->
<g id="edge1" class="edge">
<title>Node2&#45;&gt;Node1</title>
<path fill="none" stroke="#404040" d="M21.62,-204.23C22.1,-180.27 25.87,-145.58 41.5,-120 43.44,-116.82 45.59,-113.74 47.91,-110.76"/>
<polygon fill="none" stroke="#404040" points="47.99,-110.68 48.89,-103.52 55.84,-101.6 54.94,-108.75 47.99,-110.68"/>
<text text-anchor="middle" x="85" y="-178" font-family="Helvetica,sans-Serif" font-size="10.00"> +Operation_type</text>
<text text-anchor="middle" x="85" y="-167" font-family="Helvetica,sans-Serif" font-size="10.00">+Level</text>
<text text-anchor="middle" x="85" y="-156" font-family="Helvetica,sans-Serif" font-size="10.00">+LeafType</text>
<text text-anchor="middle" x="85" y="-145" font-family="Helvetica,sans-Serif" font-size="10.00">+RThread</text>
<text text-anchor="middle" x="85" y="-134" font-family="Helvetica,sans-Serif" font-size="10.00">+CThread</text>
<text text-anchor="middle" x="85" y="-123" font-family="Helvetica,sans-Serif" font-size="10.00">+ND_Category</text>
</g>
<!-- Node3 -->
<g id="node3" class="node">
<title>Node3</title>
<g id="a_node3"><a xlink:title=" ">
<polygon fill="none" stroke="#bfbfbf" points="114,-204.5 114,-261.5 151,-261.5 151,-204.5 114,-204.5"/>
<text text-anchor="middle" x="132.5" y="-249.5" font-family="Helvetica,sans-Serif" font-size="10.00">RHS</text>
<polyline fill="none" stroke="#bfbfbf" points="114,-242.5 151,-242.5 "/>
<text text-anchor="middle" x="132.5" y="-230.5" font-family="Helvetica,sans-Serif" font-size="10.00"> </text>
<polyline fill="none" stroke="#bfbfbf" points="114,-223.5 151,-223.5 "/>
<text text-anchor="middle" x="132.5" y="-211.5" font-family="Helvetica,sans-Serif" font-size="10.00"> </text>
</a>
</g>
</g>
<!-- Node3&#45;&gt;Node1 -->
<g id="edge2" class="edge">
<title>Node3&#45;&gt;Node1</title>
<path fill="none" stroke="#404040" d="M132.5,-204.27C132.5,-180.26 132.5,-144.66 132.5,-113.91"/>
<polygon fill="none" stroke="#404040" points="132.5,-113.52 128.5,-107.52 132.5,-101.52 136.5,-107.52 132.5,-113.52"/>
<text text-anchor="middle" x="146" y="-150.5" font-family="Helvetica,sans-Serif" font-size="10.00"> +rhs</text>
</g>
<!-- Node4 -->
<g id="node4" class="node">
<title>Node4</title>
<g id="a_node4"><a xlink:title=" ">
<polygon fill="none" stroke="#bfbfbf" points="169.5,-204.5 169.5,-261.5 207.5,-261.5 207.5,-204.5 169.5,-204.5"/>
<text text-anchor="middle" x="188.5" y="-249.5" font-family="Helvetica,sans-Serif" font-size="10.00">bool</text>
<polyline fill="none" stroke="#bfbfbf" points="169.5,-242.5 207.5,-242.5 "/>
<text text-anchor="middle" x="188.5" y="-230.5" font-family="Helvetica,sans-Serif" font-size="10.00"> </text>
<polyline fill="none" stroke="#bfbfbf" points="169.5,-223.5 207.5,-223.5 "/>
<text text-anchor="middle" x="188.5" y="-211.5" font-family="Helvetica,sans-Serif" font-size="10.00"> </text>
</a>
</g>
</g>
<!-- Node4&#45;&gt;Node1 -->
<g id="edge3" class="edge">
<title>Node4&#45;&gt;Node1</title>
<path fill="none" stroke="#404040" d="M184,-204.41C179.86,-181.47 172.94,-148.14 163.5,-120 162.71,-117.65 161.87,-115.26 160.98,-112.87"/>
<polygon fill="none" stroke="#404040" points="160.96,-112.82 155.04,-108.71 156.56,-101.66 162.48,-105.77 160.96,-112.82"/>
<text text-anchor="middle" x="245.5" y="-178" font-family="Helvetica,sans-Serif" font-size="10.00"> +has_out</text>
<text text-anchor="start" x="179.5" y="-167" font-family="Helvetica,sans-Serif" font-size="10.00">+SubExpressionEvaluation</text>
<text text-anchor="middle" x="245.5" y="-156" font-family="Helvetica,sans-Serif" font-size="10.00">Needed</text>
<text text-anchor="middle" x="245.5" y="-145" font-family="Helvetica,sans-Serif" font-size="10.00">+Unary_Conds</text>
<text text-anchor="start" x="179.5" y="-134" font-family="Helvetica,sans-Serif" font-size="10.00">+subexpr_execution</text>
<text text-anchor="middle" x="245.5" y="-123" font-family="Helvetica,sans-Serif" font-size="10.00">_reseter</text>
</g>
</g>
</svg>
