<?xml version="1.0" encoding="UTF-8" standalone="no"?>
<!DOCTYPE svg PUBLIC "-//W3C//DTD SVG 1.1//EN"
 "http://www.w3.org/Graphics/SVG/1.1/DTD/svg11.dtd">
<!-- Generated by graphviz version 2.36.0 (20140111.2315)
 -->
<!-- Title: visioncpp::internal::tools::tuple::Tuple&lt; T, Ts...&gt; Pages: 1 -->
<svg width="183pt" height="334pt"
 viewBox="0.00 0.00 183.00 334.00" xmlns="http://www.w3.org/2000/svg" xmlns:xlink="http://www.w3.org/1999/xlink">
<g id="graph0" class="graph" transform="scale(1 1) rotate(0) translate(4 330)">
<title>visioncpp::internal::tools::tuple::Tuple&lt; T, Ts...&gt;</title>
<!-- Node1 -->
<g id="node1" class="node"><title>Node1</title>
<polygon fill="#bfbfbf" stroke="black" points="74.5,-0.5 74.5,-79.5 175.5,-79.5 175.5,-0.5 74.5,-0.5"/>
<text text-anchor="start" x="82.5" y="-67.5" font-family="Helvetica,sans-Serif" font-size="10.00">visioncpp::internal</text>
<text text-anchor="start" x="82.5" y="-56.5" font-family="Helvetica,sans-Serif" font-size="10.00">::tools::tuple::Tuple</text>
<text text-anchor="middle" x="125" y="-45.5" font-family="Helvetica,sans-Serif" font-size="10.00">&lt; T, Ts...&gt;</text>
<polyline fill="none" stroke="black" points="74.5,-38.5 175.5,-38.5 "/>
<text text-anchor="middle" x="125" y="-26.5" font-family="Helvetica,sans-Serif" font-size="10.00"> </text>
<polyline fill="none" stroke="black" points="74.5,-19.5 175.5,-19.5 "/>
<text text-anchor="start" x="82.5" y="-7.5" font-family="Helvetica,sans-Serif" font-size="10.00">+ Tuple()</text>
</g>
<!-- Node2 -->
<g id="node2" class="node"><title>Node2</title>
<g id="a_node2"><a xlink:href="structvisioncpp_1_1internal_1_1tools_1_1tuple_1_1Tuple.html" target="_top" xlink:title="{visioncpp::internal\l::tools::tuple::Tuple\l\&lt; Ts...\&gt;\n||}">
<polygon fill="none" stroke="black" points="14.5,-128.5 14.5,-207.5 115.5,-207.5 115.5,-128.5 14.5,-128.5"/>
<text text-anchor="start" x="22.5" y="-195.5" font-family="Helvetica,sans-Serif" font-size="10.00">visioncpp::internal</text>
<text text-anchor="start" x="22.5" y="-184.5" font-family="Helvetica,sans-Serif" font-size="10.00">::tools::tuple::Tuple</text>
<text text-anchor="middle" x="65" y="-173.5" font-family="Helvetica,sans-Serif" font-size="10.00">&lt; Ts...&gt;</text>
<polyline fill="none" stroke="black" points="14.5,-166.5 115.5,-166.5 "/>
<text text-anchor="middle" x="65" y="-154.5" font-family="Helvetica,sans-Serif" font-size="10.00"> </text>
<polyline fill="none" stroke="black" points="14.5,-147.5 115.5,-147.5 "/>
<text text-anchor="middle" x="65" y="-135.5" font-family="Helvetica,sans-Serif" font-size="10.00"> </text>
</a>
</g>
</g>
<!-- Node2&#45;&gt;Node1 -->
<g id="edge1" class="edge"><title>Node2&#45;&gt;Node1</title>
<path fill="none" stroke="#404040" d="M83.4916,-128.168C89.0804,-116.431 95.2973,-103.376 101.182,-91.017"/>
<polygon fill="none" stroke="#404040" points="101.307,-90.7553 100.275,-83.6184 106.466,-79.9209 107.498,-87.0579 101.307,-90.7553"/>
<text text-anchor="middle" x="108" y="-101.5" font-family="Helvetica,sans-Serif" font-size="10.00"> +tail</text>
</g>
<!-- Node3 -->
<g id="node3" class="node"><title>Node3</title>
<g id="a_node3"><a xlink:href="structvisioncpp_1_1internal_1_1tools_1_1tuple_1_1Tuple.html" target="_top" xlink:title="The tuple is a fixed&#45;size collection of heterogeneous values. ">
<polygon fill="none" stroke="black" points="0,-257 0,-325 130,-325 130,-257 0,-257"/>
<text text-anchor="start" x="8" y="-313" font-family="Helvetica,sans-Serif" font-size="10.00">visioncpp::internal</text>
<text text-anchor="middle" x="65" y="-302" font-family="Helvetica,sans-Serif" font-size="10.00">::tools::tuple::Tuple&lt; Ts &gt;</text>
<polyline fill="none" stroke="black" points="0,-295 130,-295 "/>
<text text-anchor="middle" x="65" y="-283" font-family="Helvetica,sans-Serif" font-size="10.00"> </text>
<polyline fill="none" stroke="black" points="0,-276 130,-276 "/>
<text text-anchor="middle" x="65" y="-264" font-family="Helvetica,sans-Serif" font-size="10.00"> </text>
</a>
</g>
</g>
<!-- Node3&#45;&gt;Node2 -->
<g id="edge2" class="edge"><title>Node3&#45;&gt;Node2</title>
<path fill="none" stroke="orange" d="M65,-246.557C65,-233.828 65,-220.003 65,-207.597"/>
<polygon fill="orange" stroke="orange" points="61.5001,-246.936 65,-256.936 68.5001,-246.936 61.5001,-246.936"/>
<text text-anchor="middle" x="84.5" y="-229.5" font-family="Helvetica,sans-Serif" font-size="10.00"> &lt; Ts...&gt;</text>
</g>
<!-- Node4 -->
<g id="node4" class="node"><title>Node4</title>
<polygon fill="none" stroke="#bfbfbf" points="133.5,-139.5 133.5,-196.5 162.5,-196.5 162.5,-139.5 133.5,-139.5"/>
<text text-anchor="middle" x="148" y="-184.5" font-family="Helvetica,sans-Serif" font-size="10.00">T</text>
<polyline fill="none" stroke="#bfbfbf" points="133.5,-177.5 162.5,-177.5 "/>
<text text-anchor="middle" x="148" y="-165.5" font-family="Helvetica,sans-Serif" font-size="10.00"> </text>
<polyline fill="none" stroke="#bfbfbf" points="133.5,-158.5 162.5,-158.5 "/>
<text text-anchor="middle" x="148" y="-146.5" font-family="Helvetica,sans-Serif" font-size="10.00"> </text>
</g>
<!-- Node4&#45;&gt;Node1 -->
<g id="edge3" class="edge"><title>Node4&#45;&gt;Node1</title>
<path fill="none" stroke="#404040" d="M142.953,-139.349C140.402,-125.379 137.227,-107.98 134.258,-91.7177"/>
<polygon fill="none" stroke="#404040" points="134.197,-91.3836 129.185,-86.1994 132.042,-79.5786 137.055,-84.7628 134.197,-91.3836"/>
<text text-anchor="middle" x="152.5" y="-101.5" font-family="Helvetica,sans-Serif" font-size="10.00"> +head</text>
</g>
</g>
</svg>
