<?xml version="1.0" encoding="UTF-8" standalone="no"?>
<!DOCTYPE svg PUBLIC "-//W3C//DTD SVG 1.1//EN"
 "http://www.w3.org/Graphics/SVG/1.1/DTD/svg11.dtd">
<!-- Generated by graphviz version 2.43.0 (0)
 -->
<!-- Title: visioncpp::internal::Fill&lt; LeafNode&lt; PlaceHolder&lt; Memory_Type, N, Cols, Rows, Sc &gt;, LVL &gt;, Loc, Params... &gt;::fill_neighbour Pages: 1 -->
<svg width="466pt" height="94pt"
 viewBox="0.00 0.00 466.00 93.50" xmlns="http://www.w3.org/2000/svg" xmlns:xlink="http://www.w3.org/1999/xlink">
<g id="graph0" class="graph" transform="scale(1 1) rotate(0) translate(4 89.5)">
<title>visioncpp::internal::Fill&lt; LeafNode&lt; PlaceHolder&lt; Memory_Type, N, Cols, Rows, Sc &gt;, LVL &gt;, Loc, Params... &gt;::fill_neighbour</title>
<!-- Node1 -->
<g id="node1" class="node">
<title>Node1</title>
<g id="a_node1"><a xlink:title=" ">
<polygon fill="#bfbfbf" stroke="black" points="0,-13.5 0,-76.5 172,-76.5 172,-13.5 0,-13.5"/>
<text text-anchor="start" x="8" y="-64.5" font-family="Helvetica,sans-Serif" font-size="10.00">visioncpp::internal</text>
<text text-anchor="start" x="8" y="-53.5" font-family="Helvetica,sans-Serif" font-size="10.00">::Fill&lt; LeafNode&lt; PlaceHolder</text>
<text text-anchor="start" x="8" y="-42.5" font-family="Helvetica,sans-Serif" font-size="10.00">&lt; Memory_Type, N, Cols, Rows,</text>
<text text-anchor="start" x="8" y="-31.5" font-family="Helvetica,sans-Serif" font-size="10.00"> Sc &gt;, LVL &gt;, Loc, Params...</text>
<text text-anchor="middle" x="86" y="-20.5" font-family="Helvetica,sans-Serif" font-size="10.00"> &gt;::fill_neighbour</text>
</a>
</g>
</g>
<!-- Node2 -->
<g id="node2" class="node">
<title>Node2</title>
<g id="a_node2"><a xlink:href="namespacevisioncpp_1_1internal.html#a432878bd5a7c47c218a371ecf9eefe6a" target="_top" xlink:title="function calculate_index">
<polygon fill="none" stroke="black" points="208,-55 208,-85 315,-85 315,-55 208,-55"/>
<text text-anchor="start" x="216" y="-73" font-family="Helvetica,sans-Serif" font-size="10.00">visioncpp::internal</text>
<text text-anchor="middle" x="261.5" y="-62" font-family="Helvetica,sans-Serif" font-size="10.00">::calculate_index</text>
</a>
</g>
</g>
<!-- Node1&#45;&gt;Node2 -->
<g id="edge1" class="edge">
<title>Node1&#45;&gt;Node2</title>
<path fill="none" stroke="midnightblue" d="M172.23,-57.28C180.88,-58.53 189.55,-59.78 197.9,-60.98"/>
<polygon fill="midnightblue" stroke="midnightblue" points="197.5,-64.46 207.89,-62.42 198.5,-57.53 197.5,-64.46"/>
</g>
<!-- Node3 -->
<g id="node3" class="node">
<title>Node3</title>
<g id="a_node3"><a xlink:href="namespacevisioncpp_1_1internal_1_1tools.html#ad0890ca41e9275137b7a578b24136dbe" target="_top" xlink:title="function convert">
<polygon fill="none" stroke="black" points="208,-6 208,-36 315,-36 315,-6 208,-6"/>
<text text-anchor="start" x="216" y="-24" font-family="Helvetica,sans-Serif" font-size="10.00">visioncpp::internal</text>
<text text-anchor="middle" x="261.5" y="-13" font-family="Helvetica,sans-Serif" font-size="10.00">::tools::convert</text>
</a>
</g>
</g>
<!-- Node1&#45;&gt;Node3 -->
<g id="edge2" class="edge">
<title>Node1&#45;&gt;Node3</title>
<path fill="none" stroke="midnightblue" d="M172.23,-33.21C180.88,-32.01 189.55,-30.81 197.9,-29.66"/>
<polygon fill="midnightblue" stroke="midnightblue" points="198.47,-33.11 207.89,-28.28 197.51,-26.18 198.47,-33.11"/>
</g>
<!-- Node4 -->
<g id="node4" class="node">
<title>Node4</title>
<g id="a_node4"><a xlink:href="structvisioncpp_1_1internal_1_1tools_1_1Convertor.html#a50519510c30e56ead8657c8a06d8c9d4" target="_top" xlink:title="function convert">
<polygon fill="none" stroke="black" points="351,-0.5 351,-41.5 458,-41.5 458,-0.5 351,-0.5"/>
<text text-anchor="start" x="359" y="-29.5" font-family="Helvetica,sans-Serif" font-size="10.00">visioncpp::internal</text>
<text text-anchor="start" x="359" y="-18.5" font-family="Helvetica,sans-Serif" font-size="10.00">::tools::Convertor::</text>
<text text-anchor="middle" x="404.5" y="-7.5" font-family="Helvetica,sans-Serif" font-size="10.00">convert</text>
</a>
</g>
</g>
<!-- Node3&#45;&gt;Node4 -->
<g id="edge3" class="edge">
<title>Node3&#45;&gt;Node4</title>
<path fill="none" stroke="midnightblue" d="M315,-21C323.44,-21 332.26,-21 340.9,-21"/>
<polygon fill="midnightblue" stroke="midnightblue" points="340.95,-24.5 350.95,-21 340.95,-17.5 340.95,-24.5"/>
</g>
</g>
</svg>
