<?xml version="1.0" encoding="UTF-8" standalone="no"?>
<!DOCTYPE svg PUBLIC "-//W3C//DTD SVG 1.1//EN"
 "http://www.w3.org/Graphics/SVG/1.1/DTD/svg11.dtd">
<!-- Generated by graphviz version 2.43.0 (0)
 -->
<!-- Title: visioncpp::internal::LocalOutput::getTuple Pages: 1 -->
<svg width="380pt" height="644pt"
 viewBox="0.00 0.00 380.00 643.50" xmlns="http://www.w3.org/2000/svg" xmlns:xlink="http://www.w3.org/1999/xlink">
<g id="graph0" class="graph" transform="scale(1 1) rotate(0) translate(4 639.5)">
<title>visioncpp::internal::LocalOutput::getTuple</title>
<!-- Node1 -->
<g id="node1" class="node">
<title>Node1</title>
<g id="a_node1"><a xlink:title="getTuple function is used to create and wrap local memory into a tuple">
<polygon fill="#bfbfbf" stroke="black" points="244,-302.5 244,-332.5 372,-332.5 372,-302.5 244,-302.5"/>
<text text-anchor="start" x="252" y="-320.5" font-family="Helvetica,sans-Serif" font-size="10.00">visioncpp::internal</text>
<text text-anchor="middle" x="308" y="-309.5" font-family="Helvetica,sans-Serif" font-size="10.00">::LocalOutput::getTuple</text>
</a>
</g>
</g>
<!-- Node2 -->
<g id="node2" class="node">
<title>Node2</title>
<g id="a_node2"><a xlink:href="structvisioncpp_1_1internal_1_1LocalOutput_3_01false_00_01IsRoot_00_01LC_00_01LR_00_01RUnOP_3_01222dc31e6f7adbfd1b3ba76b431263e2.html#a17c779f1e6fa85ef39237eb5db93cec8" target="_top" xlink:title=" ">
<polygon fill="none" stroke="black" points="26.5,-572 26.5,-635 181.5,-635 181.5,-572 26.5,-572"/>
<text text-anchor="start" x="34.5" y="-623" font-family="Helvetica,sans-Serif" font-size="10.00">visioncpp::internal</text>
<text text-anchor="start" x="34.5" y="-612" font-family="Helvetica,sans-Serif" font-size="10.00">::LocalOutput&lt; false,</text>
<text text-anchor="start" x="34.5" y="-601" font-family="Helvetica,sans-Serif" font-size="10.00"> IsRoot, LC, LR, RUnOP</text>
<text text-anchor="start" x="34.5" y="-590" font-family="Helvetica,sans-Serif" font-size="10.00">&lt; OP, RHSExpr, Cols, Rows,</text>
<text text-anchor="middle" x="104" y="-579" font-family="Helvetica,sans-Serif" font-size="10.00"> LeafType, LVL &gt; &gt;::getTuple</text>
</a>
</g>
</g>
<!-- Node1&#45;&gt;Node2 -->
<g id="edge1" class="edge">
<title>Node1&#45;&gt;Node2</title>
<path fill="none" stroke="midnightblue" d="M303.47,-342.73C295.38,-391.58 271.04,-499.78 208,-562.5 200.43,-570.03 191.3,-576.23 181.64,-581.31"/>
<polygon fill="midnightblue" stroke="midnightblue" points="306.95,-343.13 305.04,-332.71 300.04,-342.04 306.95,-343.13"/>
</g>
<!-- Node3 -->
<g id="node3" class="node">
<title>Node3</title>
<g id="a_node3"><a xlink:href="structvisioncpp_1_1internal_1_1LocalOutput_3_01false_00_01IsRoot_00_01LC_00_01LR_00_01RBiOP_3_012aff2f4a38a6baec8f8e4876a21ac04d.html#af800e26ee624f9e5e3b021015a89f457" target="_top" xlink:title=" ">
<polygon fill="none" stroke="black" points="31.5,-478.5 31.5,-552.5 176.5,-552.5 176.5,-478.5 31.5,-478.5"/>
<text text-anchor="start" x="39.5" y="-540.5" font-family="Helvetica,sans-Serif" font-size="10.00">visioncpp::internal</text>
<text text-anchor="start" x="39.5" y="-529.5" font-family="Helvetica,sans-Serif" font-size="10.00">::LocalOutput&lt; false,</text>
<text text-anchor="start" x="39.5" y="-518.5" font-family="Helvetica,sans-Serif" font-size="10.00"> IsRoot, LC, LR, RBiOP</text>
<text text-anchor="start" x="39.5" y="-507.5" font-family="Helvetica,sans-Serif" font-size="10.00">&lt; OP, LHSExpr, RHSExpr,</text>
<text text-anchor="start" x="39.5" y="-496.5" font-family="Helvetica,sans-Serif" font-size="10.00"> Cols, Rows, LeafType, LVL</text>
<text text-anchor="middle" x="104" y="-485.5" font-family="Helvetica,sans-Serif" font-size="10.00"> &gt; &gt;::getTuple</text>
</a>
</g>
</g>
<!-- Node1&#45;&gt;Node3 -->
<g id="edge2" class="edge">
<title>Node1&#45;&gt;Node3</title>
<path fill="none" stroke="midnightblue" d="M296.25,-342.1C280.89,-374.79 249.82,-432.61 208,-468.5 198.68,-476.5 187.77,-483.4 176.6,-489.25"/>
<polygon fill="midnightblue" stroke="midnightblue" points="299.53,-343.36 300.51,-332.81 293.16,-340.44 299.53,-343.36"/>
</g>
<!-- Node4 -->
<g id="node4" class="node">
<title>Node4</title>
<g id="a_node4"><a xlink:href="structvisioncpp_1_1internal_1_1LocalOutput_3_01false_00_01IsRoot_00_01LC_00_01LR_00_01StnFilt_3_78467c599a542dd94fd0a9e3d6a02a30.html#a50566348e971a8dd50644cbdec9725e5" target="_top" xlink:title=" ">
<polygon fill="none" stroke="black" points="20.5,-374 20.5,-459 187.5,-459 187.5,-374 20.5,-374"/>
<text text-anchor="start" x="28.5" y="-447" font-family="Helvetica,sans-Serif" font-size="10.00">visioncpp::internal</text>
<text text-anchor="start" x="28.5" y="-436" font-family="Helvetica,sans-Serif" font-size="10.00">::LocalOutput&lt; false,</text>
<text text-anchor="start" x="28.5" y="-425" font-family="Helvetica,sans-Serif" font-size="10.00"> IsRoot, LC, LR, StnFilt</text>
<text text-anchor="start" x="28.5" y="-414" font-family="Helvetica,sans-Serif" font-size="10.00">&lt; OP, Halo_T, Halo_L, Halo</text>
<text text-anchor="start" x="28.5" y="-403" font-family="Helvetica,sans-Serif" font-size="10.00">_B, Halo_R, LHSExpr, RHSExpr,</text>
<text text-anchor="start" x="28.5" y="-392" font-family="Helvetica,sans-Serif" font-size="10.00"> Cols, Rows, LeafType, LVL &gt;</text>
<text text-anchor="middle" x="104" y="-381" font-family="Helvetica,sans-Serif" font-size="10.00"> &gt;::getTuple</text>
</a>
</g>
</g>
<!-- Node1&#45;&gt;Node4 -->
<g id="edge3" class="edge">
<title>Node1&#45;&gt;Node4</title>
<path fill="none" stroke="midnightblue" d="M267.31,-336.95C244.55,-348.11 215.1,-362.54 187.55,-376.04"/>
<polygon fill="midnightblue" stroke="midnightblue" points="268.88,-340.08 276.32,-332.54 265.8,-333.79 268.88,-340.08"/>
</g>
<!-- Node5 -->
<g id="node5" class="node">
<title>Node5</title>
<g id="a_node5"><a xlink:href="structvisioncpp_1_1internal_1_1LocalOutput_3_01false_00_01IsRoot_00_01LC_00_01LR_00_01StnNoFilt_d45bb2f039daef54effcd1874753b2c3.html#a7ca4ad4544d257ccaa61badc635beb37" target="_top" xlink:title=" ">
<polygon fill="none" stroke="black" points="10,-280.5 10,-354.5 198,-354.5 198,-280.5 10,-280.5"/>
<text text-anchor="start" x="18" y="-342.5" font-family="Helvetica,sans-Serif" font-size="10.00">visioncpp::internal</text>
<text text-anchor="start" x="18" y="-331.5" font-family="Helvetica,sans-Serif" font-size="10.00">::LocalOutput&lt; false,</text>
<text text-anchor="start" x="18" y="-320.5" font-family="Helvetica,sans-Serif" font-size="10.00"> IsRoot, LC, LR, StnNoFilt</text>
<text text-anchor="start" x="18" y="-309.5" font-family="Helvetica,sans-Serif" font-size="10.00">&lt; OP, Halo_T, Halo_L, Halo</text>
<text text-anchor="start" x="18" y="-298.5" font-family="Helvetica,sans-Serif" font-size="10.00">_B, Halo_R, RHSExpr, Cols,</text>
<text text-anchor="middle" x="104" y="-287.5" font-family="Helvetica,sans-Serif" font-size="10.00"> Rows, LeafType, LVL &gt; &gt;::getTuple</text>
</a>
</g>
</g>
<!-- Node1&#45;&gt;Node5 -->
<g id="edge4" class="edge">
<title>Node1&#45;&gt;Node5</title>
<path fill="none" stroke="midnightblue" d="M233.91,-317.5C222.35,-317.5 210.26,-317.5 198.32,-317.5"/>
<polygon fill="midnightblue" stroke="midnightblue" points="233.92,-321 243.92,-317.5 233.92,-314 233.92,-321"/>
</g>
<!-- Node6 -->
<g id="node6" class="node">
<title>Node6</title>
<g id="a_node6"><a xlink:href="structvisioncpp_1_1internal_1_1LocalOutput_3_01false_00_01IsRoot_00_01LC_00_01LR_00_01RDCN_3_01O985b5cf5bfc049f9ae66cfbe725d4e32.html#a85cc60fe30b8670638b13c098a889ad6" target="_top" xlink:title=" ">
<polygon fill="none" stroke="black" points="26.5,-198 26.5,-261 181.5,-261 181.5,-198 26.5,-198"/>
<text text-anchor="start" x="34.5" y="-249" font-family="Helvetica,sans-Serif" font-size="10.00">visioncpp::internal</text>
<text text-anchor="start" x="34.5" y="-238" font-family="Helvetica,sans-Serif" font-size="10.00">::LocalOutput&lt; false,</text>
<text text-anchor="start" x="34.5" y="-227" font-family="Helvetica,sans-Serif" font-size="10.00"> IsRoot, LC, LR, RDCN</text>
<text text-anchor="start" x="34.5" y="-216" font-family="Helvetica,sans-Serif" font-size="10.00">&lt; OP, RHSExpr, Cols, Rows,</text>
<text text-anchor="middle" x="104" y="-205" font-family="Helvetica,sans-Serif" font-size="10.00"> LeafType, LVL &gt; &gt;::getTuple</text>
</a>
</g>
</g>
<!-- Node1&#45;&gt;Node6 -->
<g id="edge5" class="edge">
<title>Node1&#45;&gt;Node6</title>
<path fill="none" stroke="midnightblue" d="M266.03,-297.93C248.28,-289.59 227.2,-279.87 208,-271.5 199.5,-267.8 190.57,-264 181.67,-260.29"/>
<polygon fill="midnightblue" stroke="midnightblue" points="264.98,-301.3 275.52,-302.4 267.97,-294.97 264.98,-301.3"/>
</g>
<!-- Node7 -->
<g id="node7" class="node">
<title>Node7</title>
<g id="a_node7"><a xlink:href="structvisioncpp_1_1internal_1_1LocalOutput_3_01false_00_01IsRoot_00_01LC_00_01LR_00_01ParallelCo0635c30aec900fbff57bf53b317d8606.html#a9c82dc26017dc8a4ab0af214d0686e90" target="_top" xlink:title=" ">
<polygon fill="none" stroke="black" points="0,-94 0,-179 208,-179 208,-94 0,-94"/>
<text text-anchor="start" x="8" y="-167" font-family="Helvetica,sans-Serif" font-size="10.00">visioncpp::internal</text>
<text text-anchor="start" x="8" y="-156" font-family="Helvetica,sans-Serif" font-size="10.00">::LocalOutput&lt; false,</text>
<text text-anchor="start" x="8" y="-145" font-family="Helvetica,sans-Serif" font-size="10.00"> IsRoot, LC, LR, ParallelCopy</text>
<text text-anchor="start" x="8" y="-134" font-family="Helvetica,sans-Serif" font-size="10.00">&lt; LHSExpr, RHSExpr, Cols,</text>
<text text-anchor="start" x="8" y="-123" font-family="Helvetica,sans-Serif" font-size="10.00"> Rows, OffsetColIn, OffsetRowIn,</text>
<text text-anchor="start" x="8" y="-112" font-family="Helvetica,sans-Serif" font-size="10.00"> OffsetColOut, OffsetRowOut, LeafType,</text>
<text text-anchor="middle" x="104" y="-101" font-family="Helvetica,sans-Serif" font-size="10.00"> LVL &gt; &gt;::getTuple</text>
</a>
</g>
</g>
<!-- Node1&#45;&gt;Node7 -->
<g id="edge6" class="edge">
<title>Node1&#45;&gt;Node7</title>
<path fill="none" stroke="midnightblue" d="M293.17,-293.43C276.08,-265.36 244.72,-218.92 208,-188.5 204.07,-185.24 199.89,-182.12 195.57,-179.13"/>
<polygon fill="midnightblue" stroke="midnightblue" points="290.27,-295.41 298.41,-302.2 296.28,-291.82 290.27,-295.41"/>
</g>
<!-- Node8 -->
<g id="node8" class="node">
<title>Node8</title>
<g id="a_node8"><a xlink:href="structvisioncpp_1_1internal_1_1LocalOutput_3_01false_00_01IsRoot_00_01LC_00_01LR_00_01Assign_3_06265906cf16848ff64f1f1331ad98423.html#aa583c6c4056fc0f4273b5f7eff7603ed" target="_top" xlink:title=" ">
<polygon fill="none" stroke="black" points="31,-0.5 31,-74.5 177,-74.5 177,-0.5 31,-0.5"/>
<text text-anchor="start" x="39" y="-62.5" font-family="Helvetica,sans-Serif" font-size="10.00">visioncpp::internal</text>
<text text-anchor="start" x="39" y="-51.5" font-family="Helvetica,sans-Serif" font-size="10.00">::LocalOutput&lt; false,</text>
<text text-anchor="start" x="39" y="-40.5" font-family="Helvetica,sans-Serif" font-size="10.00"> IsRoot, LC, LR, Assign</text>
<text text-anchor="start" x="39" y="-29.5" font-family="Helvetica,sans-Serif" font-size="10.00">&lt; LHSExpr, RHSExpr, Cols,</text>
<text text-anchor="start" x="39" y="-18.5" font-family="Helvetica,sans-Serif" font-size="10.00"> Rows, LeafType, LVL &gt; &gt;</text>
<text text-anchor="middle" x="104" y="-7.5" font-family="Helvetica,sans-Serif" font-size="10.00">::getTuple</text>
</a>
</g>
</g>
<!-- Node1&#45;&gt;Node8 -->
<g id="edge7" class="edge">
<title>Node1&#45;&gt;Node8</title>
<path fill="none" stroke="midnightblue" d="M302.58,-292.46C293.14,-245.83 266.89,-144.96 208,-84.5 199.22,-75.49 188.4,-68.05 177.09,-61.95"/>
<polygon fill="midnightblue" stroke="midnightblue" points="299.15,-293.17 304.48,-302.32 306.02,-291.84 299.15,-293.17"/>
</g>
</g>
</svg>
