<?xml version="1.0" encoding="UTF-8" standalone="no"?>
<!DOCTYPE svg PUBLIC "-//W3C//DTD SVG 1.1//EN"
 "http://www.w3.org/Graphics/SVG/1.1/DTD/svg11.dtd">
<!-- Generated by graphviz version 2.43.0 (0)
 -->
<!-- Title: visioncpp::internal::StnNoFilt&lt; FilterOP, Halo_T, Halo_L, Halo_B, Halo_R, RHS, Cols, Rows, LfType, LVL &gt; Pages: 1 -->
<svg width="321pt" height="347pt"
 viewBox="0.00 0.00 320.50 347.00" xmlns="http://www.w3.org/2000/svg" xmlns:xlink="http://www.w3.org/1999/xlink">
<g id="graph0" class="graph" transform="scale(1 1) rotate(0) translate(4 343)">
<title>visioncpp::internal::StnNoFilt&lt; FilterOP, Halo_T, Halo_L, Halo_B, Halo_R, RHS, Cols, Rows, LfType, LVL &gt;</title>
<!-- Node1 -->
<g id="node1" class="node">
<title>Node1</title>
<g id="a_node1"><a xlink:title="The definition is in StnNoFilt file.">
<polygon fill="#bfbfbf" stroke="black" points="45.5,-0.5 45.5,-123.5 213.5,-123.5 213.5,-0.5 45.5,-0.5"/>
<text text-anchor="start" x="53.5" y="-111.5" font-family="Helvetica,sans-Serif" font-size="10.00">visioncpp::internal</text>
<text text-anchor="start" x="53.5" y="-100.5" font-family="Helvetica,sans-Serif" font-size="10.00">::StnNoFilt&lt; FilterOP,</text>
<text text-anchor="start" x="53.5" y="-89.5" font-family="Helvetica,sans-Serif" font-size="10.00"> Halo_T, Halo_L, Halo</text>
<text text-anchor="start" x="53.5" y="-78.5" font-family="Helvetica,sans-Serif" font-size="10.00">_B, Halo_R, RHS, Cols,</text>
<text text-anchor="middle" x="129.5" y="-67.5" font-family="Helvetica,sans-Serif" font-size="10.00"> Rows, LfType, LVL &gt;</text>
<polyline fill="none" stroke="black" points="45.5,-60.5 213.5,-60.5 "/>
<text text-anchor="middle" x="129.5" y="-48.5" font-family="Helvetica,sans-Serif" font-size="10.00"> </text>
<polyline fill="none" stroke="black" points="45.5,-41.5 213.5,-41.5 "/>
<text text-anchor="start" x="53.5" y="-29.5" font-family="Helvetica,sans-Serif" font-size="10.00">+ StnNoFilt()</text>
<text text-anchor="start" x="53.5" y="-18.5" font-family="Helvetica,sans-Serif" font-size="10.00">+ reset()</text>
<text text-anchor="start" x="53.5" y="-7.5" font-family="Helvetica,sans-Serif" font-size="10.00">+ sub_expression_evaluation()</text>
</a>
</g>
</g>
<!-- Node2 -->
<g id="node2" class="node">
<title>Node2</title>
<g id="a_node2"><a xlink:title=" ">
<polygon fill="none" stroke="#bfbfbf" points="0,-281.5 0,-338.5 45,-338.5 45,-281.5 0,-281.5"/>
<text text-anchor="middle" x="22.5" y="-326.5" font-family="Helvetica,sans-Serif" font-size="10.00">size_t</text>
<polyline fill="none" stroke="#bfbfbf" points="0,-319.5 45,-319.5 "/>
<text text-anchor="middle" x="22.5" y="-307.5" font-family="Helvetica,sans-Serif" font-size="10.00"> </text>
<polyline fill="none" stroke="#bfbfbf" points="0,-300.5 45,-300.5 "/>
<text text-anchor="middle" x="22.5" y="-288.5" font-family="Helvetica,sans-Serif" font-size="10.00"> </text>
</a>
</g>
</g>
<!-- Node2&#45;&gt;Node1 -->
<g id="edge1" class="edge">
<title>Node2&#45;&gt;Node1</title>
<path fill="none" stroke="#404040" d="M19.86,-281.27C17.82,-246.66 18.49,-186.6 41.5,-142 42.99,-139.11 44.64,-136.27 46.41,-133.49"/>
<polygon fill="none" stroke="#404040" points="46.41,-133.49 46.62,-126.28 53.35,-123.7 53.15,-130.9 46.41,-133.49"/>
<text text-anchor="middle" x="83.5" y="-255" font-family="Helvetica,sans-Serif" font-size="10.00"> +CThread</text>
<text text-anchor="middle" x="83.5" y="-244" font-family="Helvetica,sans-Serif" font-size="10.00">+Halo_Butt</text>
<text text-anchor="middle" x="83.5" y="-233" font-family="Helvetica,sans-Serif" font-size="10.00">+Halo_Left</text>
<text text-anchor="middle" x="83.5" y="-222" font-family="Helvetica,sans-Serif" font-size="10.00">+Halo_Right</text>
<text text-anchor="middle" x="83.5" y="-211" font-family="Helvetica,sans-Serif" font-size="10.00">+Halo_Top</text>
<text text-anchor="middle" x="83.5" y="-200" font-family="Helvetica,sans-Serif" font-size="10.00">+LeafType</text>
<text text-anchor="middle" x="83.5" y="-189" font-family="Helvetica,sans-Serif" font-size="10.00">+Level</text>
<text text-anchor="middle" x="83.5" y="-178" font-family="Helvetica,sans-Serif" font-size="10.00">+ND_Category</text>
<text text-anchor="middle" x="83.5" y="-167" font-family="Helvetica,sans-Serif" font-size="10.00">+Operation_type</text>
<text text-anchor="middle" x="83.5" y="-156" font-family="Helvetica,sans-Serif" font-size="10.00">+RThread</text>
<text text-anchor="middle" x="83.5" y="-145" font-family="Helvetica,sans-Serif" font-size="10.00">...</text>
</g>
<!-- Node3 -->
<g id="node3" class="node">
<title>Node3</title>
<g id="a_node3"><a xlink:title=" ">
<polygon fill="none" stroke="#bfbfbf" points="111,-281.5 111,-338.5 148,-338.5 148,-281.5 111,-281.5"/>
<text text-anchor="middle" x="129.5" y="-326.5" font-family="Helvetica,sans-Serif" font-size="10.00">RHS</text>
<polyline fill="none" stroke="#bfbfbf" points="111,-319.5 148,-319.5 "/>
<text text-anchor="middle" x="129.5" y="-307.5" font-family="Helvetica,sans-Serif" font-size="10.00"> </text>
<polyline fill="none" stroke="#bfbfbf" points="111,-300.5 148,-300.5 "/>
<text text-anchor="middle" x="129.5" y="-288.5" font-family="Helvetica,sans-Serif" font-size="10.00"> </text>
</a>
</g>
</g>
<!-- Node3&#45;&gt;Node1 -->
<g id="edge2" class="edge">
<title>Node3&#45;&gt;Node1</title>
<path fill="none" stroke="#404040" d="M129.5,-281.26C129.5,-246.28 129.5,-184.8 129.5,-135.99"/>
<polygon fill="none" stroke="#404040" points="129.5,-135.88 125.5,-129.88 129.5,-123.88 133.5,-129.88 129.5,-135.88"/>
<text text-anchor="middle" x="143" y="-200" font-family="Helvetica,sans-Serif" font-size="10.00"> +rhs</text>
</g>
<!-- Node4 -->
<g id="node4" class="node">
<title>Node4</title>
<g id="a_node4"><a xlink:title=" ">
<polygon fill="none" stroke="#bfbfbf" points="166.5,-281.5 166.5,-338.5 204.5,-338.5 204.5,-281.5 166.5,-281.5"/>
<text text-anchor="middle" x="185.5" y="-326.5" font-family="Helvetica,sans-Serif" font-size="10.00">bool</text>
<polyline fill="none" stroke="#bfbfbf" points="166.5,-319.5 204.5,-319.5 "/>
<text text-anchor="middle" x="185.5" y="-307.5" font-family="Helvetica,sans-Serif" font-size="10.00"> </text>
<polyline fill="none" stroke="#bfbfbf" points="166.5,-300.5 204.5,-300.5 "/>
<text text-anchor="middle" x="185.5" y="-288.5" font-family="Helvetica,sans-Serif" font-size="10.00"> </text>
</a>
</g>
</g>
<!-- Node4&#45;&gt;Node1 -->
<g id="edge3" class="edge">
<title>Node4&#45;&gt;Node1</title>
<path fill="none" stroke="#404040" d="M183.29,-281.42C180.17,-247.99 173.37,-190.15 160.5,-142 159.9,-139.76 159.26,-137.49 158.58,-135.22"/>
<polygon fill="none" stroke="#404040" points="158.58,-135.22 152.94,-130.72 154.92,-123.79 160.56,-128.28 158.58,-135.22"/>
<text text-anchor="middle" x="246.5" y="-227.5" font-family="Helvetica,sans-Serif" font-size="10.00"> +Stencil_Conds</text>
<text text-anchor="start" x="180.5" y="-216.5" font-family="Helvetica,sans-Serif" font-size="10.00">+SubExpressionEvaluation</text>
<text text-anchor="middle" x="246.5" y="-205.5" font-family="Helvetica,sans-Serif" font-size="10.00">Needed</text>
<text text-anchor="middle" x="246.5" y="-194.5" font-family="Helvetica,sans-Serif" font-size="10.00">+has_out</text>
<text text-anchor="start" x="180.5" y="-183.5" font-family="Helvetica,sans-Serif" font-size="10.00">+subexpr_execution</text>
<text text-anchor="middle" x="246.5" y="-172.5" font-family="Helvetica,sans-Serif" font-size="10.00">_reseter</text>
</g>
</g>
</svg>
