<?xml version="1.0" encoding="UTF-8" standalone="no"?>
<!DOCTYPE svg PUBLIC "-//W3C//DTD SVG 1.1//EN"
 "http://www.w3.org/Graphics/SVG/1.1/DTD/svg11.dtd">
<!-- Generated by graphviz version 2.36.0 (20140111.2315)
 -->
<!-- Title: visioncpp::internal::LocalNeighbour&lt; T &gt; Pages: 1 -->
<svg width="146pt" height="226pt"
 viewBox="0.00 0.00 146.00 226.00" xmlns="http://www.w3.org/2000/svg" xmlns:xlink="http://www.w3.org/1999/xlink">
<g id="graph0" class="graph" transform="scale(1 1) rotate(0) translate(4 222)">
<title>visioncpp::internal::LocalNeighbour&lt; T &gt;</title>
<!-- Node1 -->
<g id="node1" class="node"><title>Node1</title>
<polygon fill="#bfbfbf" stroke="black" points="24,-0.5 24,-101.5 138,-101.5 138,-0.5 24,-0.5"/>
<text text-anchor="start" x="32" y="-89.5" font-family="Helvetica,sans-Serif" font-size="10.00">visioncpp::internal</text>
<text text-anchor="middle" x="81" y="-78.5" font-family="Helvetica,sans-Serif" font-size="10.00">::LocalNeighbour&lt; T &gt;</text>
<polyline fill="none" stroke="black" points="24,-71.5 138,-71.5 "/>
<text text-anchor="middle" x="81" y="-59.5" font-family="Helvetica,sans-Serif" font-size="10.00"> </text>
<polyline fill="none" stroke="black" points="24,-52.5 138,-52.5 "/>
<text text-anchor="start" x="32" y="-40.5" font-family="Helvetica,sans-Serif" font-size="10.00">+ LocalNeighbour()</text>
<text text-anchor="start" x="32" y="-29.5" font-family="Helvetica,sans-Serif" font-size="10.00">+ set_offset()</text>
<text text-anchor="start" x="32" y="-18.5" font-family="Helvetica,sans-Serif" font-size="10.00">+ at()</text>
<text text-anchor="start" x="32" y="-7.5" font-family="Helvetica,sans-Serif" font-size="10.00">+ at()</text>
</g>
<!-- Node2 -->
<g id="node2" class="node"><title>Node2</title>
<polygon fill="none" stroke="#bfbfbf" points="-0.5,-160.5 -0.5,-217.5 86.5,-217.5 86.5,-160.5 -0.5,-160.5"/>
<text text-anchor="middle" x="43" y="-205.5" font-family="Helvetica,sans-Serif" font-size="10.00">local_ptr&lt; T &gt; &amp;</text>
<polyline fill="none" stroke="#bfbfbf" points="-0.5,-198.5 86.5,-198.5 "/>
<text text-anchor="middle" x="43" y="-186.5" font-family="Helvetica,sans-Serif" font-size="10.00"> </text>
<polyline fill="none" stroke="#bfbfbf" points="-0.5,-179.5 86.5,-179.5 "/>
<text text-anchor="middle" x="43" y="-167.5" font-family="Helvetica,sans-Serif" font-size="10.00"> </text>
</g>
<!-- Node2&#45;&gt;Node1 -->
<g id="edge1" class="edge"><title>Node2&#45;&gt;Node1</title>
<path fill="none" stroke="#404040" d="M50.6899,-160.478C54.4768,-146.925 59.2062,-129.999 63.7947,-113.577"/>
<polygon fill="none" stroke="#404040" points="63.8661,-113.321 61.6283,-106.466 67.0954,-101.764 69.3332,-108.619 63.8661,-113.321"/>
<text text-anchor="middle" x="72.5" y="-128.5" font-family="Helvetica,sans-Serif" font-size="10.00"> +ptr</text>
</g>
<!-- Node3 -->
<g id="node3" class="node"><title>Node3</title>
<polygon fill="none" stroke="#bfbfbf" points="104.5,-160.5 104.5,-217.5 133.5,-217.5 133.5,-160.5 104.5,-160.5"/>
<text text-anchor="middle" x="119" y="-205.5" font-family="Helvetica,sans-Serif" font-size="10.00">int</text>
<polyline fill="none" stroke="#bfbfbf" points="104.5,-198.5 133.5,-198.5 "/>
<text text-anchor="middle" x="119" y="-186.5" font-family="Helvetica,sans-Serif" font-size="10.00"> </text>
<polyline fill="none" stroke="#bfbfbf" points="104.5,-179.5 133.5,-179.5 "/>
<text text-anchor="middle" x="119" y="-167.5" font-family="Helvetica,sans-Serif" font-size="10.00"> </text>
</g>
<!-- Node3&#45;&gt;Node1 -->
<g id="edge2" class="edge"><title>Node3&#45;&gt;Node1</title>
<path fill="none" stroke="#404040" d="M111.31,-160.478C107.523,-146.925 102.794,-129.999 98.2053,-113.577"/>
<polygon fill="none" stroke="#404040" points="98.1339,-113.321 92.6668,-108.619 94.9046,-101.764 100.372,-106.466 98.1339,-113.321"/>
<text text-anchor="middle" x="116.5" y="-134" font-family="Helvetica,sans-Serif" font-size="10.00"> +I_c</text>
<text text-anchor="middle" x="116.5" y="-123" font-family="Helvetica,sans-Serif" font-size="10.00">+I_r</text>
</g>
</g>
</svg>
