<?xml version="1.0" encoding="UTF-8" standalone="no"?>
<!DOCTYPE svg PUBLIC "-//W3C//DTD SVG 1.1//EN"
 "http://www.w3.org/Graphics/SVG/1.1/DTD/svg11.dtd">
<!-- Generated by graphviz version 2.36.0 (20140111.2315)
 -->
<!-- Title: visioncpp::internal::ConvertToVisionScope&lt; cl::sycl::access::target::constant_buffer &gt; Pages: 1 -->
<svg width="132pt" height="206pt"
 viewBox="0.00 0.00 132.00 206.00" xmlns="http://www.w3.org/2000/svg" xmlns:xlink="http://www.w3.org/1999/xlink">
<g id="graph0" class="graph" transform="scale(1 1) rotate(0) translate(4 202)">
<title>visioncpp::internal::ConvertToVisionScope&lt; cl::sycl::access::target::constant_buffer &gt;</title>
<!-- Node1 -->
<g id="node1" class="node"><title>Node1</title>
<polygon fill="#bfbfbf" stroke="black" points="-0.5,-1 -0.5,-91 124.5,-91 124.5,-1 -0.5,-1"/>
<text text-anchor="start" x="7.5" y="-79" font-family="Helvetica,sans-Serif" font-size="10.00">visioncpp::internal</text>
<text text-anchor="start" x="7.5" y="-68" font-family="Helvetica,sans-Serif" font-size="10.00">::ConvertToVisionScope</text>
<text text-anchor="start" x="7.5" y="-57" font-family="Helvetica,sans-Serif" font-size="10.00">&lt; cl::sycl::access::target</text>
<text text-anchor="middle" x="62" y="-46" font-family="Helvetica,sans-Serif" font-size="10.00">::constant_buffer &gt;</text>
<polyline fill="none" stroke="black" points="-0.5,-39 124.5,-39 "/>
<text text-anchor="middle" x="62" y="-27" font-family="Helvetica,sans-Serif" font-size="10.00"> </text>
<polyline fill="none" stroke="black" points="-0.5,-20 124.5,-20 "/>
<text text-anchor="middle" x="62" y="-8" font-family="Helvetica,sans-Serif" font-size="10.00"> </text>
</g>
<!-- Node2 -->
<g id="node2" class="node"><title>Node2</title>
<polygon fill="none" stroke="#bfbfbf" points="40.5,-140.5 40.5,-197.5 83.5,-197.5 83.5,-140.5 40.5,-140.5"/>
<text text-anchor="middle" x="62" y="-185.5" font-family="Helvetica,sans-Serif" font-size="10.00">size_t</text>
<polyline fill="none" stroke="#bfbfbf" points="40.5,-178.5 83.5,-178.5 "/>
<text text-anchor="middle" x="62" y="-166.5" font-family="Helvetica,sans-Serif" font-size="10.00"> </text>
<polyline fill="none" stroke="#bfbfbf" points="40.5,-159.5 83.5,-159.5 "/>
<text text-anchor="middle" x="62" y="-147.5" font-family="Helvetica,sans-Serif" font-size="10.00"> </text>
</g>
<!-- Node2&#45;&gt;Node1 -->
<g id="edge1" class="edge"><title>Node2&#45;&gt;Node1</title>
<path fill="none" stroke="#404040" d="M62,-140.24C62,-129.242 62,-116.179 62,-103.364"/>
<polygon fill="none" stroke="#404040" points="62.0001,-103.23 58,-97.2296 62,-91.2295 66,-97.2295 62.0001,-103.23"/>
<text text-anchor="middle" x="80" y="-113.5" font-family="Helvetica,sans-Serif" font-size="10.00"> +scope</text>
</g>
</g>
</svg>
