<?xml version="1.0" encoding="UTF-8" standalone="no"?>
<!DOCTYPE svg PUBLIC "-//W3C//DTD SVG 1.1//EN"
 "http://www.w3.org/Graphics/SVG/1.1/DTD/svg11.dtd">
<!-- Generated by graphviz version 2.43.0 (0)
 -->
<!-- Title: visioncpp::internal::EvalExpr&lt; Assign&lt; LHS, RHS, Cols, Rows, LfType, LVL &gt;, Loc, Params... &gt;::eval_neighbour Pages: 1 -->
<svg width="452pt" height="137pt"
 viewBox="0.00 0.00 452.00 137.00" xmlns="http://www.w3.org/2000/svg" xmlns:xlink="http://www.w3.org/1999/xlink">
<g id="graph0" class="graph" transform="scale(1 1) rotate(0) translate(4 133)">
<title>visioncpp::internal::EvalExpr&lt; Assign&lt; LHS, RHS, Cols, Rows, LfType, LVL &gt;, Loc, Params... &gt;::eval_neighbour</title>
<!-- Node1 -->
<g id="node1" class="node">
<title>Node1</title>
<g id="a_node1"><a xlink:title="evaluate function when the internal::ops_category is NeighbourOP.">
<polygon fill="#bfbfbf" stroke="black" points="0,-33 0,-96 158,-96 158,-33 0,-33"/>
<text text-anchor="start" x="8" y="-84" font-family="Helvetica,sans-Serif" font-size="10.00">visioncpp::internal</text>
<text text-anchor="start" x="8" y="-73" font-family="Helvetica,sans-Serif" font-size="10.00">::EvalExpr&lt; Assign&lt;</text>
<text text-anchor="start" x="8" y="-62" font-family="Helvetica,sans-Serif" font-size="10.00"> LHS, RHS, Cols, Rows,</text>
<text text-anchor="start" x="8" y="-51" font-family="Helvetica,sans-Serif" font-size="10.00"> LfType, LVL &gt;, Loc, Params...</text>
<text text-anchor="middle" x="79" y="-40" font-family="Helvetica,sans-Serif" font-size="10.00"> &gt;::eval_neighbour</text>
</a>
</g>
</g>
<!-- Node2 -->
<g id="node2" class="node">
<title>Node2</title>
<g id="a_node2"><a xlink:href="namespacevisioncpp_1_1internal.html#a432878bd5a7c47c218a371ecf9eefe6a" target="_top" xlink:title="function calculate_index">
<polygon fill="none" stroke="black" points="194,-98.5 194,-128.5 301,-128.5 301,-98.5 194,-98.5"/>
<text text-anchor="start" x="202" y="-116.5" font-family="Helvetica,sans-Serif" font-size="10.00">visioncpp::internal</text>
<text text-anchor="middle" x="247.5" y="-105.5" font-family="Helvetica,sans-Serif" font-size="10.00">::calculate_index</text>
</a>
</g>
</g>
<!-- Node1&#45;&gt;Node2 -->
<g id="edge1" class="edge">
<title>Node1&#45;&gt;Node2</title>
<path fill="none" stroke="midnightblue" d="M158.37,-87.57C167.44,-90.23 176.59,-92.93 185.38,-95.51"/>
<polygon fill="midnightblue" stroke="midnightblue" points="184.55,-98.92 195.14,-98.38 186.53,-92.2 184.55,-98.92"/>
</g>
<!-- Node3 -->
<g id="node3" class="node">
<title>Node3</title>
<g id="a_node3"><a xlink:href="namespacevisioncpp_1_1internal_1_1tools.html#ad0890ca41e9275137b7a578b24136dbe" target="_top" xlink:title="function convert">
<polygon fill="none" stroke="black" points="194,-49.5 194,-79.5 301,-79.5 301,-49.5 194,-49.5"/>
<text text-anchor="start" x="202" y="-67.5" font-family="Helvetica,sans-Serif" font-size="10.00">visioncpp::internal</text>
<text text-anchor="middle" x="247.5" y="-56.5" font-family="Helvetica,sans-Serif" font-size="10.00">::tools::convert</text>
</a>
</g>
</g>
<!-- Node1&#45;&gt;Node3 -->
<g id="edge2" class="edge">
<title>Node1&#45;&gt;Node3</title>
<path fill="none" stroke="midnightblue" d="M158.37,-64.5C166.8,-64.5 175.28,-64.5 183.49,-64.5"/>
<polygon fill="midnightblue" stroke="midnightblue" points="183.71,-68 193.71,-64.5 183.71,-61 183.71,-68"/>
</g>
<!-- Node5 -->
<g id="node5" class="node">
<title>Node5</title>
<g id="a_node5"><a xlink:href="namespacevisioncpp_1_1internal_1_1tools_1_1tuple.html#a3e8ea7e4f5f0347595da272f34f4b0f8" target="_top" xlink:title="get">
<polygon fill="none" stroke="black" points="194,-0.5 194,-30.5 301,-30.5 301,-0.5 194,-0.5"/>
<text text-anchor="start" x="202" y="-18.5" font-family="Helvetica,sans-Serif" font-size="10.00">visioncpp::internal</text>
<text text-anchor="middle" x="247.5" y="-7.5" font-family="Helvetica,sans-Serif" font-size="10.00">::tools::tuple::get</text>
</a>
</g>
</g>
<!-- Node1&#45;&gt;Node5 -->
<g id="edge4" class="edge">
<title>Node1&#45;&gt;Node5</title>
<path fill="none" stroke="midnightblue" d="M158.37,-41.43C167.44,-38.77 176.59,-36.07 185.38,-33.49"/>
<polygon fill="midnightblue" stroke="midnightblue" points="186.53,-36.8 195.14,-30.62 184.55,-30.08 186.53,-36.8"/>
</g>
<!-- Node4 -->
<g id="node4" class="node">
<title>Node4</title>
<g id="a_node4"><a xlink:href="structvisioncpp_1_1internal_1_1tools_1_1Convertor.html#a50519510c30e56ead8657c8a06d8c9d4" target="_top" xlink:title="function convert">
<polygon fill="none" stroke="black" points="337,-44 337,-85 444,-85 444,-44 337,-44"/>
<text text-anchor="start" x="345" y="-73" font-family="Helvetica,sans-Serif" font-size="10.00">visioncpp::internal</text>
<text text-anchor="start" x="345" y="-62" font-family="Helvetica,sans-Serif" font-size="10.00">::tools::Convertor::</text>
<text text-anchor="middle" x="390.5" y="-51" font-family="Helvetica,sans-Serif" font-size="10.00">convert</text>
</a>
</g>
</g>
<!-- Node3&#45;&gt;Node4 -->
<g id="edge3" class="edge">
<title>Node3&#45;&gt;Node4</title>
<path fill="none" stroke="midnightblue" d="M301,-64.5C309.44,-64.5 318.26,-64.5 326.9,-64.5"/>
<polygon fill="midnightblue" stroke="midnightblue" points="326.95,-68 336.95,-64.5 326.95,-61 326.95,-68"/>
</g>
</g>
</svg>
