<?xml version="1.0" encoding="UTF-8" standalone="no"?>
<!DOCTYPE svg PUBLIC "-//W3C//DTD SVG 1.1//EN"
 "http://www.w3.org/Graphics/SVG/1.1/DTD/svg11.dtd">
<!-- Generated by graphviz version 2.36.0 (20140111.2315)
 -->
<!-- Title: visioncpp::internal::LeafNode&lt; RHS, LVL &gt; Pages: 1 -->
<svg width="326pt" height="326pt"
 viewBox="0.00 0.00 326.00 326.00" xmlns="http://www.w3.org/2000/svg" xmlns:xlink="http://www.w3.org/1999/xlink">
<g id="graph0" class="graph" transform="scale(1 1) rotate(0) translate(4 322)">
<title>visioncpp::internal::LeafNode&lt; RHS, LVL &gt;</title>
<!-- Node1 -->
<g id="node1" class="node"><title>Node1</title>
<polygon fill="#bfbfbf" stroke="black" points="45.5,-1 45.5,-157 194.5,-157 194.5,-1 45.5,-1"/>
<text text-anchor="start" x="53.5" y="-145" font-family="Helvetica,sans-Serif" font-size="10.00">visioncpp::internal</text>
<text text-anchor="middle" x="120" y="-134" font-family="Helvetica,sans-Serif" font-size="10.00">::LeafNode&lt; RHS, LVL &gt;</text>
<polyline fill="none" stroke="black" points="45.5,-127 194.5,-127 "/>
<text text-anchor="middle" x="120" y="-115" font-family="Helvetica,sans-Serif" font-size="10.00"> </text>
<polyline fill="none" stroke="black" points="45.5,-108 194.5,-108 "/>
<text text-anchor="start" x="53.5" y="-96" font-family="Helvetica,sans-Serif" font-size="10.00">+ LeafNode()</text>
<text text-anchor="start" x="53.5" y="-85" font-family="Helvetica,sans-Serif" font-size="10.00">+ LeafNode()</text>
<text text-anchor="start" x="53.5" y="-74" font-family="Helvetica,sans-Serif" font-size="10.00">+ LeafNode()</text>
<text text-anchor="start" x="53.5" y="-63" font-family="Helvetica,sans-Serif" font-size="10.00">+ reset()</text>
<text text-anchor="start" x="53.5" y="-52" font-family="Helvetica,sans-Serif" font-size="10.00">+ sub_expression_evaluation()</text>
<text text-anchor="start" x="53.5" y="-41" font-family="Helvetica,sans-Serif" font-size="10.00">+ set_output()</text>
<text text-anchor="start" x="53.5" y="-30" font-family="Helvetica,sans-Serif" font-size="10.00">+ reset_input()</text>
<text text-anchor="start" x="53.5" y="-19" font-family="Helvetica,sans-Serif" font-size="10.00">+ lock()</text>
<text text-anchor="start" x="53.5" y="-8" font-family="Helvetica,sans-Serif" font-size="10.00">+ unlock()</text>
</g>
<!-- Node2 -->
<g id="node2" class="node"><title>Node2</title>
<polygon fill="none" stroke="#bfbfbf" points="-0.5,-260.5 -0.5,-317.5 42.5,-317.5 42.5,-260.5 -0.5,-260.5"/>
<text text-anchor="middle" x="21" y="-305.5" font-family="Helvetica,sans-Serif" font-size="10.00">size_t</text>
<polyline fill="none" stroke="#bfbfbf" points="-0.5,-298.5 42.5,-298.5 "/>
<text text-anchor="middle" x="21" y="-286.5" font-family="Helvetica,sans-Serif" font-size="10.00"> </text>
<polyline fill="none" stroke="#bfbfbf" points="-0.5,-279.5 42.5,-279.5 "/>
<text text-anchor="middle" x="21" y="-267.5" font-family="Helvetica,sans-Serif" font-size="10.00"> </text>
</g>
<!-- Node2&#45;&gt;Node1 -->
<g id="edge1" class="edge"><title>Node2&#45;&gt;Node1</title>
<path fill="none" stroke="#404040" d="M21.7126,-260.117C23.2331,-236.706 27.6302,-202.873 40,-176 41.2899,-173.198 42.6832,-170.411 44.1646,-167.646"/>
<polygon fill="none" stroke="#404040" points="44.2585,-167.484 43.8108,-160.287 50.2822,-157.105 50.7299,-164.303 44.2585,-167.484"/>
<text text-anchor="middle" x="78" y="-234" font-family="Helvetica,sans-Serif" font-size="10.00"> +Operation_type</text>
<text text-anchor="middle" x="78" y="-223" font-family="Helvetica,sans-Serif" font-size="10.00">+Level</text>
<text text-anchor="middle" x="78" y="-212" font-family="Helvetica,sans-Serif" font-size="10.00">+LeafType</text>
<text text-anchor="middle" x="78" y="-201" font-family="Helvetica,sans-Serif" font-size="10.00">+RThread</text>
<text text-anchor="middle" x="78" y="-190" font-family="Helvetica,sans-Serif" font-size="10.00">+CThread</text>
<text text-anchor="middle" x="78" y="-179" font-family="Helvetica,sans-Serif" font-size="10.00">+ND_Category</text>
</g>
<!-- Node3 -->
<g id="node3" class="node"><title>Node3</title>
<polygon fill="none" stroke="#bfbfbf" points="101,-260.5 101,-317.5 139,-317.5 139,-260.5 101,-260.5"/>
<text text-anchor="middle" x="120" y="-305.5" font-family="Helvetica,sans-Serif" font-size="10.00">RHS</text>
<polyline fill="none" stroke="#bfbfbf" points="101,-298.5 139,-298.5 "/>
<text text-anchor="middle" x="120" y="-286.5" font-family="Helvetica,sans-Serif" font-size="10.00"> </text>
<polyline fill="none" stroke="#bfbfbf" points="101,-279.5 139,-279.5 "/>
<text text-anchor="middle" x="120" y="-267.5" font-family="Helvetica,sans-Serif" font-size="10.00"> </text>
</g>
<!-- Node3&#45;&gt;Node1 -->
<g id="edge2" class="edge"><title>Node3&#45;&gt;Node1</title>
<path fill="none" stroke="#404040" d="M120,-260.379C120,-236.955 120,-202.01 120,-169.097"/>
<polygon fill="none" stroke="#404040" points="120,-169.089 116,-163.089 120,-157.089 124,-163.089 120,-169.089"/>
<text text-anchor="middle" x="151" y="-206.5" font-family="Helvetica,sans-Serif" font-size="10.00"> +vilibMemory</text>
</g>
<!-- Node4 -->
<g id="node4" class="node"><title>Node4</title>
<polygon fill="none" stroke="#bfbfbf" points="187.5,-260.5 187.5,-317.5 222.5,-317.5 222.5,-260.5 187.5,-260.5"/>
<text text-anchor="middle" x="205" y="-305.5" font-family="Helvetica,sans-Serif" font-size="10.00">bool</text>
<polyline fill="none" stroke="#bfbfbf" points="187.5,-298.5 222.5,-298.5 "/>
<text text-anchor="middle" x="205" y="-286.5" font-family="Helvetica,sans-Serif" font-size="10.00"> </text>
<polyline fill="none" stroke="#bfbfbf" points="187.5,-279.5 222.5,-279.5 "/>
<text text-anchor="middle" x="205" y="-267.5" font-family="Helvetica,sans-Serif" font-size="10.00"> </text>
</g>
<!-- Node4&#45;&gt;Node1 -->
<g id="edge3" class="edge"><title>Node4&#45;&gt;Node1</title>
<path fill="none" stroke="#404040" d="M202.583,-260.451C199.851,-237.244 194.228,-203.522 183,-176 181.92,-173.352 180.763,-170.7 179.541,-168.052"/>
<polygon fill="none" stroke="#404040" points="179.501,-167.97 173.257,-164.362 174.185,-157.211 180.429,-160.819 179.501,-167.97"/>
<text text-anchor="middle" x="259" y="-228.5" font-family="Helvetica,sans-Serif" font-size="10.00"> +has_out</text>
<text text-anchor="start" x="200" y="-217.5" font-family="Helvetica,sans-Serif" font-size="10.00">+SubExpressionEvaluation</text>
<text text-anchor="middle" x="259" y="-206.5" font-family="Helvetica,sans-Serif" font-size="10.00">Needed</text>
<text text-anchor="start" x="200" y="-195.5" font-family="Helvetica,sans-Serif" font-size="10.00">+subexpr_execution</text>
<text text-anchor="middle" x="259" y="-184.5" font-family="Helvetica,sans-Serif" font-size="10.00">_reseter</text>
</g>
</g>
</svg>
