<?xml version="1.0" encoding="UTF-8" standalone="no"?>
<!DOCTYPE svg PUBLIC "-//W3C//DTD SVG 1.1//EN"
 "http://www.w3.org/Graphics/SVG/1.1/DTD/svg11.dtd">
<!-- Generated by graphviz version 2.36.0 (20140111.2315)
 -->
<!-- Title: visioncpp::internal::PyramidLeafNode&lt; PyramidT, N &gt; Pages: 1 -->
<svg width="303pt" height="282pt"
 viewBox="0.00 0.00 303.00 282.00" xmlns="http://www.w3.org/2000/svg" xmlns:xlink="http://www.w3.org/1999/xlink">
<g id="graph0" class="graph" transform="scale(1 1) rotate(0) translate(4 278)">
<title>visioncpp::internal::PyramidLeafNode&lt; PyramidT, N &gt;</title>
<!-- Node1 -->
<g id="node1" class="node"><title>Node1</title>
<polygon fill="#bfbfbf" stroke="black" points="45.5,-0.5 45.5,-101.5 194.5,-101.5 194.5,-0.5 45.5,-0.5"/>
<text text-anchor="start" x="53.5" y="-89.5" font-family="Helvetica,sans-Serif" font-size="10.00">visioncpp::internal</text>
<text text-anchor="start" x="53.5" y="-78.5" font-family="Helvetica,sans-Serif" font-size="10.00">::PyramidLeafNode&lt; Pyramid</text>
<text text-anchor="middle" x="120" y="-67.5" font-family="Helvetica,sans-Serif" font-size="10.00">T, N &gt;</text>
<polyline fill="none" stroke="black" points="45.5,-60.5 194.5,-60.5 "/>
<text text-anchor="middle" x="120" y="-48.5" font-family="Helvetica,sans-Serif" font-size="10.00"> </text>
<polyline fill="none" stroke="black" points="45.5,-41.5 194.5,-41.5 "/>
<text text-anchor="start" x="53.5" y="-29.5" font-family="Helvetica,sans-Serif" font-size="10.00">+ PyramidLeafNode()</text>
<text text-anchor="start" x="53.5" y="-18.5" font-family="Helvetica,sans-Serif" font-size="10.00">+ reset()</text>
<text text-anchor="start" x="53.5" y="-7.5" font-family="Helvetica,sans-Serif" font-size="10.00">+ sub_expression_evaluation()</text>
</g>
<!-- Node2 -->
<g id="node2" class="node"><title>Node2</title>
<polygon fill="none" stroke="#bfbfbf" points="-0.5,-216.5 -0.5,-273.5 42.5,-273.5 42.5,-216.5 -0.5,-216.5"/>
<text text-anchor="middle" x="21" y="-261.5" font-family="Helvetica,sans-Serif" font-size="10.00">size_t</text>
<polyline fill="none" stroke="#bfbfbf" points="-0.5,-254.5 42.5,-254.5 "/>
<text text-anchor="middle" x="21" y="-242.5" font-family="Helvetica,sans-Serif" font-size="10.00"> </text>
<polyline fill="none" stroke="#bfbfbf" points="-0.5,-235.5 42.5,-235.5 "/>
<text text-anchor="middle" x="21" y="-223.5" font-family="Helvetica,sans-Serif" font-size="10.00"> </text>
</g>
<!-- Node2&#45;&gt;Node1 -->
<g id="edge1" class="edge"><title>Node2&#45;&gt;Node1</title>
<path fill="none" stroke="#404040" d="M19.8478,-216.356C19.9412,-189.984 23.2793,-149.951 40,-120 41.7077,-116.941 43.6098,-113.958 45.6677,-111.057"/>
<polygon fill="none" stroke="#404040" points="45.7664,-110.932 46.3488,-103.745 53.2075,-101.518 52.6251,-108.705 45.7664,-110.932"/>
<text text-anchor="middle" x="78" y="-189.5" font-family="Helvetica,sans-Serif" font-size="10.00"> +Operation_type</text>
<text text-anchor="middle" x="78" y="-178.5" font-family="Helvetica,sans-Serif" font-size="10.00">+Level</text>
<text text-anchor="middle" x="78" y="-167.5" font-family="Helvetica,sans-Serif" font-size="10.00">+Depth</text>
<text text-anchor="middle" x="78" y="-156.5" font-family="Helvetica,sans-Serif" font-size="10.00">+LeafType</text>
<text text-anchor="middle" x="78" y="-145.5" font-family="Helvetica,sans-Serif" font-size="10.00">+RThread</text>
<text text-anchor="middle" x="78" y="-134.5" font-family="Helvetica,sans-Serif" font-size="10.00">+CThread</text>
<text text-anchor="middle" x="78" y="-123.5" font-family="Helvetica,sans-Serif" font-size="10.00">+ND_Category</text>
</g>
<!-- Node3 -->
<g id="node3" class="node"><title>Node3</title>
<polygon fill="none" stroke="#bfbfbf" points="102.5,-216.5 102.5,-273.5 137.5,-273.5 137.5,-216.5 102.5,-216.5"/>
<text text-anchor="middle" x="120" y="-261.5" font-family="Helvetica,sans-Serif" font-size="10.00">bool</text>
<polyline fill="none" stroke="#bfbfbf" points="102.5,-254.5 137.5,-254.5 "/>
<text text-anchor="middle" x="120" y="-242.5" font-family="Helvetica,sans-Serif" font-size="10.00"> </text>
<polyline fill="none" stroke="#bfbfbf" points="102.5,-235.5 137.5,-235.5 "/>
<text text-anchor="middle" x="120" y="-223.5" font-family="Helvetica,sans-Serif" font-size="10.00"> </text>
</g>
<!-- Node3&#45;&gt;Node1 -->
<g id="edge2" class="edge"><title>Node3&#45;&gt;Node1</title>
<path fill="none" stroke="#404040" d="M120,-216.491C120,-189.894 120,-148.663 120,-114.135"/>
<polygon fill="none" stroke="#404040" points="120,-113.757 116,-107.757 120,-101.757 124,-107.757 120,-113.757"/>
<text text-anchor="middle" x="179" y="-178.5" font-family="Helvetica,sans-Serif" font-size="10.00"> +has_out</text>
<text text-anchor="start" x="120" y="-167.5" font-family="Helvetica,sans-Serif" font-size="10.00">+SubExpressionEvaluation</text>
<text text-anchor="middle" x="179" y="-156.5" font-family="Helvetica,sans-Serif" font-size="10.00">Needed</text>
<text text-anchor="start" x="120" y="-145.5" font-family="Helvetica,sans-Serif" font-size="10.00">+subexpr_execution</text>
<text text-anchor="middle" x="179" y="-134.5" font-family="Helvetica,sans-Serif" font-size="10.00">_reseter</text>
</g>
<!-- Node4 -->
<g id="node4" class="node"><title>Node4</title>
<polygon fill="none" stroke="#bfbfbf" points="227,-216.5 227,-273.5 295,-273.5 295,-216.5 227,-216.5"/>
<text text-anchor="middle" x="261" y="-261.5" font-family="Helvetica,sans-Serif" font-size="10.00">PyramidT &amp;</text>
<polyline fill="none" stroke="#bfbfbf" points="227,-254.5 295,-254.5 "/>
<text text-anchor="middle" x="261" y="-242.5" font-family="Helvetica,sans-Serif" font-size="10.00"> </text>
<polyline fill="none" stroke="#bfbfbf" points="227,-235.5 295,-235.5 "/>
<text text-anchor="middle" x="261" y="-223.5" font-family="Helvetica,sans-Serif" font-size="10.00"> </text>
</g>
<!-- Node4&#45;&gt;Node1 -->
<g id="edge3" class="edge"><title>Node4&#45;&gt;Node1</title>
<path fill="none" stroke="#404040" d="M262.54,-216.325C262.657,-189.372 259.018,-148.422 239,-120 230.047,-107.288 217.911,-96.6352 204.801,-87.8185"/>
<polygon fill="none" stroke="#404040" points="204.786,-87.8094 197.578,-88.008 194.622,-81.4305 201.83,-81.2319 204.786,-87.8094"/>
<text text-anchor="middle" x="272.5" y="-156.5" font-family="Helvetica,sans-Serif" font-size="10.00"> +rhs</text>
</g>
</g>
</svg>
