<?xml version="1.0" encoding="UTF-8" standalone="no"?>
<!DOCTYPE svg PUBLIC "-//W3C//DTD SVG 1.1//EN"
 "http://www.w3.org/Graphics/SVG/1.1/DTD/svg11.dtd">
<!-- Generated by graphviz version 2.36.0 (20140111.2315)
 -->
<!-- Title: visioncpp::internal::MakePlaceHolderExprHelper&lt; internal::expr_category::Binary, Expr, N &gt; Pages: 1 -->
<svg width="158pt" height="206pt"
 viewBox="0.00 0.00 158.00 206.00" xmlns="http://www.w3.org/2000/svg" xmlns:xlink="http://www.w3.org/1999/xlink">
<g id="graph0" class="graph" transform="scale(1 1) rotate(0) translate(4 202)">
<title>visioncpp::internal::MakePlaceHolderExprHelper&lt; internal::expr_category::Binary, Expr, N &gt;</title>
<!-- Node1 -->
<g id="node1" class="node"><title>Node1</title>
<polygon fill="#bfbfbf" stroke="black" points="-0.5,-1 -0.5,-91 148.5,-91 148.5,-1 -0.5,-1"/>
<text text-anchor="start" x="7.5" y="-79" font-family="Helvetica,sans-Serif" font-size="10.00">visioncpp::internal</text>
<text text-anchor="start" x="7.5" y="-68" font-family="Helvetica,sans-Serif" font-size="10.00">::MakePlaceHolderExprHelper</text>
<text text-anchor="start" x="7.5" y="-57" font-family="Helvetica,sans-Serif" font-size="10.00">&lt; internal::expr_category</text>
<text text-anchor="middle" x="74" y="-46" font-family="Helvetica,sans-Serif" font-size="10.00">::Binary, Expr, N &gt;</text>
<polyline fill="none" stroke="black" points="-0.5,-39 148.5,-39 "/>
<text text-anchor="middle" x="74" y="-27" font-family="Helvetica,sans-Serif" font-size="10.00"> </text>
<polyline fill="none" stroke="black" points="-0.5,-20 148.5,-20 "/>
<text text-anchor="middle" x="74" y="-8" font-family="Helvetica,sans-Serif" font-size="10.00"> </text>
</g>
<!-- Node2 -->
<g id="node2" class="node"><title>Node2</title>
<polygon fill="none" stroke="#bfbfbf" points="52.5,-140.5 52.5,-197.5 95.5,-197.5 95.5,-140.5 52.5,-140.5"/>
<text text-anchor="middle" x="74" y="-185.5" font-family="Helvetica,sans-Serif" font-size="10.00">size_t</text>
<polyline fill="none" stroke="#bfbfbf" points="52.5,-178.5 95.5,-178.5 "/>
<text text-anchor="middle" x="74" y="-166.5" font-family="Helvetica,sans-Serif" font-size="10.00"> </text>
<polyline fill="none" stroke="#bfbfbf" points="52.5,-159.5 95.5,-159.5 "/>
<text text-anchor="middle" x="74" y="-147.5" font-family="Helvetica,sans-Serif" font-size="10.00"> </text>
</g>
<!-- Node2&#45;&gt;Node1 -->
<g id="edge1" class="edge"><title>Node2&#45;&gt;Node1</title>
<path fill="none" stroke="#404040" d="M74,-140.24C74,-129.242 74,-116.179 74,-103.364"/>
<polygon fill="none" stroke="#404040" points="74.0001,-103.23 70,-97.2296 74,-91.2295 78,-97.2295 74.0001,-103.23"/>
<text text-anchor="middle" x="112" y="-113.5" font-family="Helvetica,sans-Serif" font-size="10.00"> +RHSLeafCount</text>
</g>
</g>
</svg>
