<?xml version="1.0" encoding="UTF-8" standalone="no"?>
<!DOCTYPE svg PUBLIC "-//W3C//DTD SVG 1.1//EN"
 "http://www.w3.org/Graphics/SVG/1.1/DTD/svg11.dtd">
<!-- Generated by graphviz version 2.36.0 (20140111.2315)
 -->
<!-- Title: visioncpp::internal::ParallelCopy&lt; LHS, RHS, Cols, Rows, OffsetColIn, OffsetRowIn, OffsetColOut, OffsetRowOut, LfType, LVL &gt; Pages: 1 -->
<svg width="346pt" height="292pt"
 viewBox="0.00 0.00 346.00 292.00" xmlns="http://www.w3.org/2000/svg" xmlns:xlink="http://www.w3.org/1999/xlink">
<g id="graph0" class="graph" transform="scale(1 1) rotate(0) translate(4 288)">
<title>visioncpp::internal::ParallelCopy&lt; LHS, RHS, Cols, Rows, OffsetColIn, OffsetRowIn, OffsetColOut, OffsetRowOut, LfType, LVL &gt;</title>
<!-- Node1 -->
<g id="node1" class="node"><title>Node1</title>
<polygon fill="#bfbfbf" stroke="black" points="48.5,-0.5 48.5,-123.5 201.5,-123.5 201.5,-0.5 48.5,-0.5"/>
<text text-anchor="start" x="56.5" y="-111.5" font-family="Helvetica,sans-Serif" font-size="10.00">visioncpp::internal</text>
<text text-anchor="start" x="56.5" y="-100.5" font-family="Helvetica,sans-Serif" font-size="10.00">::ParallelCopy&lt; LHS,</text>
<text text-anchor="start" x="56.5" y="-89.5" font-family="Helvetica,sans-Serif" font-size="10.00"> RHS, Cols, Rows, OffsetCol</text>
<text text-anchor="start" x="56.5" y="-78.5" font-family="Helvetica,sans-Serif" font-size="10.00">In, OffsetRowIn, OffsetColOut,</text>
<text text-anchor="middle" x="125" y="-67.5" font-family="Helvetica,sans-Serif" font-size="10.00"> OffsetRowOut, LfType, LVL &gt;</text>
<polyline fill="none" stroke="black" points="48.5,-60.5 201.5,-60.5 "/>
<text text-anchor="middle" x="125" y="-48.5" font-family="Helvetica,sans-Serif" font-size="10.00"> </text>
<polyline fill="none" stroke="black" points="48.5,-41.5 201.5,-41.5 "/>
<text text-anchor="start" x="56.5" y="-29.5" font-family="Helvetica,sans-Serif" font-size="10.00">+ ParallelCopy()</text>
<text text-anchor="start" x="56.5" y="-18.5" font-family="Helvetica,sans-Serif" font-size="10.00">+ reset()</text>
<text text-anchor="start" x="56.5" y="-7.5" font-family="Helvetica,sans-Serif" font-size="10.00">+ sub_expression_evaluation()</text>
</g>
<!-- Node2 -->
<g id="node2" class="node"><title>Node2</title>
<polygon fill="none" stroke="#bfbfbf" points="0,-226.5 0,-283.5 36,-283.5 36,-226.5 0,-226.5"/>
<text text-anchor="middle" x="18" y="-271.5" font-family="Helvetica,sans-Serif" font-size="10.00">LHS</text>
<polyline fill="none" stroke="#bfbfbf" points="0,-264.5 36,-264.5 "/>
<text text-anchor="middle" x="18" y="-252.5" font-family="Helvetica,sans-Serif" font-size="10.00"> </text>
<polyline fill="none" stroke="#bfbfbf" points="0,-245.5 36,-245.5 "/>
<text text-anchor="middle" x="18" y="-233.5" font-family="Helvetica,sans-Serif" font-size="10.00"> </text>
</g>
<!-- Node2&#45;&gt;Node1 -->
<g id="edge1" class="edge"><title>Node2&#45;&gt;Node1</title>
<path fill="none" stroke="#404040" d="M20.4046,-226.203C23.4225,-202.539 30.1474,-168.298 45,-142 46.6094,-139.15 48.351,-136.335 50.2008,-133.562"/>
<polygon fill="none" stroke="#404040" points="50.2899,-133.439 50.5692,-126.234 57.328,-123.72 57.0488,-130.926 50.2899,-133.439"/>
<text text-anchor="middle" x="56" y="-172.5" font-family="Helvetica,sans-Serif" font-size="10.00"> +lhs</text>
</g>
<!-- Node3 -->
<g id="node3" class="node"><title>Node3</title>
<polygon fill="none" stroke="#bfbfbf" points="54.5,-226.5 54.5,-283.5 97.5,-283.5 97.5,-226.5 54.5,-226.5"/>
<text text-anchor="middle" x="76" y="-271.5" font-family="Helvetica,sans-Serif" font-size="10.00">size_t</text>
<polyline fill="none" stroke="#bfbfbf" points="54.5,-264.5 97.5,-264.5 "/>
<text text-anchor="middle" x="76" y="-252.5" font-family="Helvetica,sans-Serif" font-size="10.00"> </text>
<polyline fill="none" stroke="#bfbfbf" points="54.5,-245.5 97.5,-245.5 "/>
<text text-anchor="middle" x="76" y="-233.5" font-family="Helvetica,sans-Serif" font-size="10.00"> </text>
</g>
<!-- Node3&#45;&gt;Node1 -->
<g id="edge2" class="edge"><title>Node3&#45;&gt;Node1</title>
<path fill="none" stroke="#404040" d="M72.2188,-226.262C70.0271,-203.235 69.0639,-169.865 77,-142 77.6869,-139.588 78.4687,-137.177 79.3313,-134.774"/>
<polygon fill="none" stroke="#404040" points="79.3485,-134.732 77.9262,-127.663 83.9048,-123.631 85.3271,-130.7 79.3485,-134.732"/>
<text text-anchor="middle" x="115" y="-200" font-family="Helvetica,sans-Serif" font-size="10.00"> +Operation_type</text>
<text text-anchor="middle" x="115" y="-189" font-family="Helvetica,sans-Serif" font-size="10.00">+Level</text>
<text text-anchor="middle" x="115" y="-178" font-family="Helvetica,sans-Serif" font-size="10.00">+LeafType</text>
<text text-anchor="middle" x="115" y="-167" font-family="Helvetica,sans-Serif" font-size="10.00">+RThread</text>
<text text-anchor="middle" x="115" y="-156" font-family="Helvetica,sans-Serif" font-size="10.00">+CThread</text>
<text text-anchor="middle" x="115" y="-145" font-family="Helvetica,sans-Serif" font-size="10.00">+ND_Category</text>
</g>
<!-- Node4 -->
<g id="node4" class="node"><title>Node4</title>
<polygon fill="none" stroke="#bfbfbf" points="156,-226.5 156,-283.5 194,-283.5 194,-226.5 156,-226.5"/>
<text text-anchor="middle" x="175" y="-271.5" font-family="Helvetica,sans-Serif" font-size="10.00">RHS</text>
<polyline fill="none" stroke="#bfbfbf" points="156,-264.5 194,-264.5 "/>
<text text-anchor="middle" x="175" y="-252.5" font-family="Helvetica,sans-Serif" font-size="10.00"> </text>
<polyline fill="none" stroke="#bfbfbf" points="156,-245.5 194,-245.5 "/>
<text text-anchor="middle" x="175" y="-233.5" font-family="Helvetica,sans-Serif" font-size="10.00"> </text>
</g>
<!-- Node4&#45;&gt;Node1 -->
<g id="edge3" class="edge"><title>Node4&#45;&gt;Node1</title>
<path fill="none" stroke="#404040" d="M170.693,-226.121C166.889,-203.3 160.746,-170.286 153,-142 152.38,-139.737 151.728,-137.446 151.048,-135.138"/>
<polygon fill="none" stroke="#404040" points="151.004,-134.995 145.412,-130.442 147.463,-123.529 153.056,-128.081 151.004,-134.995"/>
<text text-anchor="middle" x="179.5" y="-172.5" font-family="Helvetica,sans-Serif" font-size="10.00"> +rhs</text>
</g>
<!-- Node5 -->
<g id="node5" class="node"><title>Node5</title>
<polygon fill="none" stroke="#bfbfbf" points="212.5,-226.5 212.5,-283.5 247.5,-283.5 247.5,-226.5 212.5,-226.5"/>
<text text-anchor="middle" x="230" y="-271.5" font-family="Helvetica,sans-Serif" font-size="10.00">bool</text>
<polyline fill="none" stroke="#bfbfbf" points="212.5,-264.5 247.5,-264.5 "/>
<text text-anchor="middle" x="230" y="-252.5" font-family="Helvetica,sans-Serif" font-size="10.00"> </text>
<polyline fill="none" stroke="#bfbfbf" points="212.5,-245.5 247.5,-245.5 "/>
<text text-anchor="middle" x="230" y="-233.5" font-family="Helvetica,sans-Serif" font-size="10.00"> </text>
</g>
<!-- Node5&#45;&gt;Node1 -->
<g id="edge4" class="edge"><title>Node5&#45;&gt;Node1</title>
<path fill="none" stroke="#404040" d="M224.799,-226.45C219.583,-202.94 210.124,-168.787 195,-142 193.408,-139.18 191.702,-136.373 189.906,-133.59"/>
<polygon fill="none" stroke="#404040" points="189.859,-133.523 183.16,-130.854 183.047,-123.643 189.746,-126.313 189.859,-133.523"/>
<text text-anchor="middle" x="279" y="-194.5" font-family="Helvetica,sans-Serif" font-size="10.00"> +has_out</text>
<text text-anchor="start" x="220" y="-183.5" font-family="Helvetica,sans-Serif" font-size="10.00">+SubExpressionEvaluation</text>
<text text-anchor="middle" x="279" y="-172.5" font-family="Helvetica,sans-Serif" font-size="10.00">Needed</text>
<text text-anchor="start" x="220" y="-161.5" font-family="Helvetica,sans-Serif" font-size="10.00">+subexpr_execution</text>
<text text-anchor="middle" x="279" y="-150.5" font-family="Helvetica,sans-Serif" font-size="10.00">_reseter</text>
</g>
</g>
</svg>
