<?xml version="1.0" encoding="UTF-8" standalone="no"?>
<!DOCTYPE svg PUBLIC "-//W3C//DTD SVG 1.1//EN"
 "http://www.w3.org/Graphics/SVG/1.1/DTD/svg11.dtd">
<!-- Generated by graphviz version 2.36.0 (20140111.2315)
 -->
<!-- Title: visioncpp::internal::Assign&lt; LHS, RHS, Cols, Rows, LfType, LVL &gt; Pages: 1 -->
<svg width="546pt" height="270pt"
 viewBox="0.00 0.00 546.00 270.00" xmlns="http://www.w3.org/2000/svg" xmlns:xlink="http://www.w3.org/1999/xlink">
<g id="graph0" class="graph" transform="scale(1 1) rotate(0) translate(4 266)">
<title>visioncpp::internal::Assign&lt; LHS, RHS, Cols, Rows, LfType, LVL &gt;</title>
<!-- Node1 -->
<g id="node1" class="node"><title>Node1</title>
<polygon fill="#bfbfbf" stroke="black" points="151.5,-0.5 151.5,-101.5 300.5,-101.5 300.5,-0.5 151.5,-0.5"/>
<text text-anchor="start" x="159.5" y="-89.5" font-family="Helvetica,sans-Serif" font-size="10.00">visioncpp::internal</text>
<text text-anchor="start" x="159.5" y="-78.5" font-family="Helvetica,sans-Serif" font-size="10.00">::Assign&lt; LHS, RHS,</text>
<text text-anchor="middle" x="226" y="-67.5" font-family="Helvetica,sans-Serif" font-size="10.00"> Cols, Rows, LfType, LVL &gt;</text>
<polyline fill="none" stroke="black" points="151.5,-60.5 300.5,-60.5 "/>
<text text-anchor="middle" x="226" y="-48.5" font-family="Helvetica,sans-Serif" font-size="10.00"> </text>
<polyline fill="none" stroke="black" points="151.5,-41.5 300.5,-41.5 "/>
<text text-anchor="start" x="159.5" y="-29.5" font-family="Helvetica,sans-Serif" font-size="10.00">+ Assign()</text>
<text text-anchor="start" x="159.5" y="-18.5" font-family="Helvetica,sans-Serif" font-size="10.00">+ reset()</text>
<text text-anchor="start" x="159.5" y="-7.5" font-family="Helvetica,sans-Serif" font-size="10.00">+ sub_expression_evaluation()</text>
</g>
<!-- Node2 -->
<g id="node2" class="node"><title>Node2</title>
<polygon fill="none" stroke="#bfbfbf" points="0,-204.5 0,-261.5 36,-261.5 36,-204.5 0,-204.5"/>
<text text-anchor="middle" x="18" y="-249.5" font-family="Helvetica,sans-Serif" font-size="10.00">LHS</text>
<polyline fill="none" stroke="#bfbfbf" points="0,-242.5 36,-242.5 "/>
<text text-anchor="middle" x="18" y="-230.5" font-family="Helvetica,sans-Serif" font-size="10.00"> </text>
<polyline fill="none" stroke="#bfbfbf" points="0,-223.5 36,-223.5 "/>
<text text-anchor="middle" x="18" y="-211.5" font-family="Helvetica,sans-Serif" font-size="10.00"> </text>
</g>
<!-- Node2&#45;&gt;Node1 -->
<g id="edge1" class="edge"><title>Node2&#45;&gt;Node1</title>
<path fill="none" stroke="#404040" d="M31.4037,-204.231C44.3959,-179.61 66.0656,-143.944 93,-120 106.991,-107.562 123.668,-96.7319 140.402,-87.5915"/>
<polygon fill="none" stroke="#404040" points="140.754,-87.4066 144.208,-81.0762 151.379,-81.8291 147.926,-88.1596 140.754,-87.4066"/>
<text text-anchor="middle" x="104" y="-150.5" font-family="Helvetica,sans-Serif" font-size="10.00"> +lhs</text>
</g>
<!-- Node3 -->
<g id="node3" class="node"><title>Node3</title>
<polygon fill="none" stroke="#bfbfbf" points="54,-204.5 54,-261.5 170,-261.5 170,-204.5 54,-204.5"/>
<text text-anchor="middle" x="112" y="-249.5" font-family="Helvetica,sans-Serif" font-size="10.00">static constexpr size_t</text>
<polyline fill="none" stroke="#bfbfbf" points="54,-242.5 170,-242.5 "/>
<text text-anchor="middle" x="112" y="-230.5" font-family="Helvetica,sans-Serif" font-size="10.00"> </text>
<polyline fill="none" stroke="#bfbfbf" points="54,-223.5 170,-223.5 "/>
<text text-anchor="middle" x="112" y="-211.5" font-family="Helvetica,sans-Serif" font-size="10.00"> </text>
</g>
<!-- Node3&#45;&gt;Node1 -->
<g id="edge2" class="edge"><title>Node3&#45;&gt;Node1</title>
<path fill="none" stroke="#404040" d="M114.906,-204.289C118.474,-180.364 126.265,-145.698 143,-120 145.019,-116.9 147.224,-113.872 149.574,-110.923"/>
<polygon fill="none" stroke="#404040" points="149.648,-110.837 150.568,-103.685 157.524,-101.783 156.604,-108.935 149.648,-110.837"/>
<text text-anchor="middle" x="181" y="-178" font-family="Helvetica,sans-Serif" font-size="10.00"> +Operation_type</text>
<text text-anchor="middle" x="181" y="-167" font-family="Helvetica,sans-Serif" font-size="10.00">+Level</text>
<text text-anchor="middle" x="181" y="-156" font-family="Helvetica,sans-Serif" font-size="10.00">+LeafType</text>
<text text-anchor="middle" x="181" y="-145" font-family="Helvetica,sans-Serif" font-size="10.00">+RThread</text>
<text text-anchor="middle" x="181" y="-134" font-family="Helvetica,sans-Serif" font-size="10.00">+CThread</text>
<text text-anchor="middle" x="181" y="-123" font-family="Helvetica,sans-Serif" font-size="10.00">+ND_Category</text>
</g>
<!-- Node4 -->
<g id="node4" class="node"><title>Node4</title>
<polygon fill="none" stroke="#bfbfbf" points="188.5,-204.5 188.5,-261.5 295.5,-261.5 295.5,-204.5 188.5,-204.5"/>
<text text-anchor="middle" x="242" y="-249.5" font-family="Helvetica,sans-Serif" font-size="10.00">static constexpr bool</text>
<polyline fill="none" stroke="#bfbfbf" points="188.5,-242.5 295.5,-242.5 "/>
<text text-anchor="middle" x="242" y="-230.5" font-family="Helvetica,sans-Serif" font-size="10.00"> </text>
<polyline fill="none" stroke="#bfbfbf" points="188.5,-223.5 295.5,-223.5 "/>
<text text-anchor="middle" x="242" y="-211.5" font-family="Helvetica,sans-Serif" font-size="10.00"> </text>
</g>
<!-- Node4&#45;&gt;Node1 -->
<g id="edge3" class="edge"><title>Node4&#45;&gt;Node1</title>
<path fill="none" stroke="#404040" d="M231.398,-204.121C229.583,-198.22 227.972,-191.969 227,-186 223.2,-162.654 222.261,-136.715 222.509,-113.927"/>
<polygon fill="none" stroke="#404040" points="222.515,-113.624 218.638,-107.544 222.759,-101.627 226.636,-107.706 222.515,-113.624"/>
<text text-anchor="middle" x="286" y="-161.5" font-family="Helvetica,sans-Serif" font-size="10.00"> +has_out</text>
<text text-anchor="start" x="227" y="-150.5" font-family="Helvetica,sans-Serif" font-size="10.00">+SubExpressionEvaluation</text>
<text text-anchor="middle" x="286" y="-139.5" font-family="Helvetica,sans-Serif" font-size="10.00">Needed</text>
</g>
<!-- Node5 -->
<g id="node5" class="node"><title>Node5</title>
<polygon fill="none" stroke="#bfbfbf" points="348,-204.5 348,-261.5 386,-261.5 386,-204.5 348,-204.5"/>
<text text-anchor="middle" x="367" y="-249.5" font-family="Helvetica,sans-Serif" font-size="10.00">RHS</text>
<polyline fill="none" stroke="#bfbfbf" points="348,-242.5 386,-242.5 "/>
<text text-anchor="middle" x="367" y="-230.5" font-family="Helvetica,sans-Serif" font-size="10.00"> </text>
<polyline fill="none" stroke="#bfbfbf" points="348,-223.5 386,-223.5 "/>
<text text-anchor="middle" x="367" y="-211.5" font-family="Helvetica,sans-Serif" font-size="10.00"> </text>
</g>
<!-- Node5&#45;&gt;Node1 -->
<g id="edge4" class="edge"><title>Node5&#45;&gt;Node1</title>
<path fill="none" stroke="#404040" d="M367.77,-204.157C367.089,-179.822 362.685,-144.626 345,-120 336.074,-107.571 324.123,-97.0952 311.23,-88.3759"/>
<polygon fill="none" stroke="#404040" points="310.88,-88.1551 303.671,-88.3393 300.729,-81.7559 307.937,-81.5717 310.88,-88.1551"/>
<text text-anchor="middle" x="378.5" y="-150.5" font-family="Helvetica,sans-Serif" font-size="10.00"> +rhs</text>
</g>
<!-- Node6 -->
<g id="node6" class="node"><title>Node6</title>
<polygon fill="none" stroke="#bfbfbf" points="404.5,-204.5 404.5,-261.5 439.5,-261.5 439.5,-204.5 404.5,-204.5"/>
<text text-anchor="middle" x="422" y="-249.5" font-family="Helvetica,sans-Serif" font-size="10.00">bool</text>
<polyline fill="none" stroke="#bfbfbf" points="404.5,-242.5 439.5,-242.5 "/>
<text text-anchor="middle" x="422" y="-230.5" font-family="Helvetica,sans-Serif" font-size="10.00"> </text>
<polyline fill="none" stroke="#bfbfbf" points="404.5,-223.5 439.5,-223.5 "/>
<text text-anchor="middle" x="422" y="-211.5" font-family="Helvetica,sans-Serif" font-size="10.00"> </text>
</g>
<!-- Node6&#45;&gt;Node1 -->
<g id="edge5" class="edge"><title>Node6&#45;&gt;Node1</title>
<path fill="none" stroke="#404040" d="M421.881,-204.404C420.347,-179.559 414.381,-143.446 394,-120 372.951,-95.7862 342.018,-80.0734 312.413,-69.9311"/>
<polygon fill="none" stroke="#404040" points="312.147,-69.8456 305.212,-71.8214 300.72,-66.1797 307.656,-64.2039 312.147,-69.8456"/>
<text text-anchor="middle" x="479" y="-172.5" font-family="Helvetica,sans-Serif" font-size="10.00"> +has_out</text>
<text text-anchor="start" x="420" y="-161.5" font-family="Helvetica,sans-Serif" font-size="10.00">+SubExpressionEvaluation</text>
<text text-anchor="middle" x="479" y="-150.5" font-family="Helvetica,sans-Serif" font-size="10.00">Needed</text>
<text text-anchor="start" x="420" y="-139.5" font-family="Helvetica,sans-Serif" font-size="10.00">+subexpr_execution</text>
<text text-anchor="middle" x="479" y="-128.5" font-family="Helvetica,sans-Serif" font-size="10.00">_reseter</text>
</g>
</g>
</svg>
