<?xml version="1.0" encoding="UTF-8" standalone="no"?>
<!DOCTYPE svg PUBLIC "-//W3C//DTD SVG 1.1//EN"
 "http://www.w3.org/Graphics/SVG/1.1/DTD/svg11.dtd">
<!-- Generated by graphviz version 2.36.0 (20140111.2315)
 -->
<!-- Title: visioncpp::internal::SubExprExecute&lt; false, ExecPolicy, LC, LR, LCT, LRT, Expr &gt;::execute Pages: 1 -->
<svg width="410pt" height="60pt"
 viewBox="0.00 0.00 410.00 60.00" xmlns="http://www.w3.org/2000/svg" xmlns:xlink="http://www.w3.org/1999/xlink">
<g id="graph0" class="graph" transform="scale(1 1) rotate(0) translate(4 56)">
<title>visioncpp::internal::SubExprExecute&lt; false, ExecPolicy, LC, LR, LCT, LRT, Expr &gt;::execute</title>
<!-- Node1 -->
<g id="node1" class="node"><title>Node1</title>
<polygon fill="#bfbfbf" stroke="black" points="0,-0 0,-52 134,-52 134,-0 0,-0"/>
<text text-anchor="start" x="8" y="-40" font-family="Helvetica,sans-Serif" font-size="10.00">visioncpp::internal</text>
<text text-anchor="start" x="8" y="-29" font-family="Helvetica,sans-Serif" font-size="10.00">::SubExprExecute&lt; false,</text>
<text text-anchor="start" x="8" y="-18" font-family="Helvetica,sans-Serif" font-size="10.00"> ExecPolicy, LC, LR, LCT,</text>
<text text-anchor="middle" x="67" y="-7" font-family="Helvetica,sans-Serif" font-size="10.00"> LRT, Expr &gt;::execute</text>
</g>
<!-- Node2 -->
<g id="node2" class="node"><title>Node2</title>
<g id="a_node2"><a xlink:href="namespacevisioncpp.html#a76942b49bab20ba8ffc240a9790c548d" target="_top" xlink:title="special case of the execute function with default value for local memory and workgroup size template ...">
<polygon fill="none" stroke="black" points="170,-16.5 170,-35.5 268,-35.5 268,-16.5 170,-16.5"/>
<text text-anchor="middle" x="219" y="-23.5" font-family="Helvetica,sans-Serif" font-size="10.00">visioncpp::execute</text>
</a>
</g>
</g>
<!-- Node1&#45;&gt;Node2 -->
<g id="edge1" class="edge"><title>Node1&#45;&gt;Node2</title>
<path fill="none" stroke="midnightblue" d="M134.229,-26C142.71,-26 151.342,-26 159.685,-26"/>
<polygon fill="midnightblue" stroke="midnightblue" points="159.688,-29.5001 169.688,-26 159.687,-22.5001 159.688,-29.5001"/>
</g>
<!-- Node3 -->
<g id="node3" class="node"><title>Node3</title>
<g id="a_node3"><a xlink:href="namespacevisioncpp.html#a1047ae9a8641a453f2c673cf7fbea8d9" target="_top" xlink:title="execute function is called by user in order to execute an expression template parameters: ...">
<polygon fill="none" stroke="black" points="304,-16.5 304,-35.5 402,-35.5 402,-16.5 304,-16.5"/>
<text text-anchor="middle" x="353" y="-23.5" font-family="Helvetica,sans-Serif" font-size="10.00">visioncpp::execute</text>
</a>
</g>
</g>
<!-- Node2&#45;&gt;Node3 -->
<g id="edge2" class="edge"><title>Node2&#45;&gt;Node3</title>
<path fill="none" stroke="midnightblue" d="M268.028,-26C276.309,-26 284.997,-26 293.517,-26"/>
<polygon fill="midnightblue" stroke="midnightblue" points="293.786,-29.5001 303.786,-26 293.786,-22.5001 293.786,-29.5001"/>
</g>
</g>
</svg>
