<?xml version="1.0" encoding="UTF-8" standalone="no"?>
<!DOCTYPE svg PUBLIC "-//W3C//DTD SVG 1.1//EN"
 "http://www.w3.org/Graphics/SVG/1.1/DTD/svg11.dtd">
<!-- Generated by graphviz version 2.36.0 (20140111.2315)
 -->
<!-- Title: visioncpp::internal::LocalOutput&lt; false, IsRoot, LC, LR, StnNoFilt&lt; OP, Halo_T, Halo_L, Halo_B, Halo_R, RHSExpr, Cols, Rows, LeafType, LVL &gt; &gt; Pages: 1 -->
<svg width="152pt" height="260pt"
 viewBox="0.00 0.00 152.00 260.00" xmlns="http://www.w3.org/2000/svg" xmlns:xlink="http://www.w3.org/1999/xlink">
<g id="graph0" class="graph" transform="scale(1 1) rotate(0) translate(4 256)">
<title>visioncpp::internal::LocalOutput&lt; false, IsRoot, LC, LR, StnNoFilt&lt; OP, Halo_T, Halo_L, Halo_B, Halo_R, RHSExpr, Cols, Rows, LeafType, LVL &gt; &gt;</title>
<!-- Node1 -->
<g id="node1" class="node"><title>Node1</title>
<polygon fill="#bfbfbf" stroke="black" points="-0.5,-1 -0.5,-113 144.5,-113 144.5,-1 -0.5,-1"/>
<text text-anchor="start" x="7.5" y="-101" font-family="Helvetica,sans-Serif" font-size="10.00">visioncpp::internal</text>
<text text-anchor="start" x="7.5" y="-90" font-family="Helvetica,sans-Serif" font-size="10.00">::LocalOutput&lt; false,</text>
<text text-anchor="start" x="7.5" y="-79" font-family="Helvetica,sans-Serif" font-size="10.00"> IsRoot, LC, LR, StnNoFilt</text>
<text text-anchor="start" x="7.5" y="-68" font-family="Helvetica,sans-Serif" font-size="10.00">&lt; OP, Halo_T, Halo_L, Halo</text>
<text text-anchor="start" x="7.5" y="-57" font-family="Helvetica,sans-Serif" font-size="10.00">_B, Halo_R, RHSExpr, Cols,</text>
<text text-anchor="middle" x="72" y="-46" font-family="Helvetica,sans-Serif" font-size="10.00"> Rows, LeafType, LVL &gt; &gt;</text>
<polyline fill="none" stroke="black" points="-0.5,-39 144.5,-39 "/>
<text text-anchor="middle" x="72" y="-27" font-family="Helvetica,sans-Serif" font-size="10.00"> </text>
<polyline fill="none" stroke="black" points="-0.5,-20 144.5,-20 "/>
<text text-anchor="start" x="7.5" y="-8" font-family="Helvetica,sans-Serif" font-size="10.00">+ getTuple()</text>
</g>
<!-- Node2 -->
<g id="node2" class="node"><title>Node2</title>
<polygon fill="none" stroke="#bfbfbf" points="50.5,-194.5 50.5,-251.5 93.5,-251.5 93.5,-194.5 50.5,-194.5"/>
<text text-anchor="middle" x="72" y="-239.5" font-family="Helvetica,sans-Serif" font-size="10.00">size_t</text>
<polyline fill="none" stroke="#bfbfbf" points="50.5,-232.5 93.5,-232.5 "/>
<text text-anchor="middle" x="72" y="-220.5" font-family="Helvetica,sans-Serif" font-size="10.00"> </text>
<polyline fill="none" stroke="#bfbfbf" points="50.5,-213.5 93.5,-213.5 "/>
<text text-anchor="middle" x="72" y="-201.5" font-family="Helvetica,sans-Serif" font-size="10.00"> </text>
</g>
<!-- Node2&#45;&gt;Node1 -->
<g id="edge1" class="edge"><title>Node2&#45;&gt;Node1</title>
<path fill="none" stroke="#404040" d="M72,-194.18C72,-175.26 72,-149.377 72,-125.253"/>
<polygon fill="none" stroke="#404040" points="72.0001,-125.219 68,-119.219 72,-113.219 76,-119.219 72.0001,-125.219"/>
<text text-anchor="middle" x="100.5" y="-168" font-family="Helvetica,sans-Serif" font-size="10.00"> +Out_LR</text>
<text text-anchor="middle" x="100.5" y="-157" font-family="Helvetica,sans-Serif" font-size="10.00">+Out_LC</text>
<text text-anchor="middle" x="100.5" y="-146" font-family="Helvetica,sans-Serif" font-size="10.00">+Halo_COL</text>
<text text-anchor="middle" x="100.5" y="-135" font-family="Helvetica,sans-Serif" font-size="10.00">+Halo_ROW</text>
</g>
</g>
</svg>
