<?xml version="1.0" encoding="UTF-8" standalone="no"?>
<!DOCTYPE svg PUBLIC "-//W3C//DTD SVG 1.1//EN"
 "http://www.w3.org/Graphics/SVG/1.1/DTD/svg11.dtd">
<!-- Generated by graphviz version 2.43.0 (0)
 -->
<!-- Title: visioncpp::internal::LocalNeighbour&lt; T &gt; Pages: 1 -->
<svg width="316pt" height="303pt"
 viewBox="0.00 0.00 316.00 303.00" xmlns="http://www.w3.org/2000/svg" xmlns:xlink="http://www.w3.org/1999/xlink">
<g id="graph0" class="graph" transform="scale(1 1) rotate(0) translate(4 299)">
<title>visioncpp::internal::LocalNeighbour&lt; T &gt;</title>
<!-- Node1 -->
<g id="node1" class="node">
<title>Node1</title>
<g id="a_node1"><a xlink:title="LocalNeighbour is used to provide local access for each element of the local memory based on the Coor...">
<polygon fill="#bfbfbf" stroke="black" points="91.5,-171.5 91.5,-294.5 218.5,-294.5 218.5,-171.5 91.5,-171.5"/>
<text text-anchor="start" x="99.5" y="-282.5" font-family="Helvetica,sans-Serif" font-size="10.00">visioncpp::internal</text>
<text text-anchor="middle" x="155" y="-271.5" font-family="Helvetica,sans-Serif" font-size="10.00">::LocalNeighbour&lt; T &gt;</text>
<polyline fill="none" stroke="black" points="91.5,-264.5 218.5,-264.5 "/>
<text text-anchor="start" x="99.5" y="-252.5" font-family="Helvetica,sans-Serif" font-size="10.00">+ ptr</text>
<text text-anchor="start" x="99.5" y="-241.5" font-family="Helvetica,sans-Serif" font-size="10.00">+ I_c</text>
<text text-anchor="start" x="99.5" y="-230.5" font-family="Helvetica,sans-Serif" font-size="10.00">+ I_r</text>
<polyline fill="none" stroke="black" points="91.5,-223.5 218.5,-223.5 "/>
<text text-anchor="start" x="99.5" y="-211.5" font-family="Helvetica,sans-Serif" font-size="10.00">+ LocalNeighbour()</text>
<text text-anchor="start" x="99.5" y="-200.5" font-family="Helvetica,sans-Serif" font-size="10.00">+ set_offset()</text>
<text text-anchor="start" x="99.5" y="-189.5" font-family="Helvetica,sans-Serif" font-size="10.00">+ at()</text>
<text text-anchor="start" x="99.5" y="-178.5" font-family="Helvetica,sans-Serif" font-size="10.00">+ at()</text>
</a>
</g>
</g>
<!-- Node2 -->
<g id="node2" class="node">
<title>Node2</title>
<g id="a_node2"><a xlink:href="structvisioncpp_1_1internal_1_1LocalNeighbour.html" target="_top" xlink:title=" ">
<polygon fill="none" stroke="black" points="0,-0.5 0,-123.5 148,-123.5 148,-0.5 0,-0.5"/>
<text text-anchor="start" x="8" y="-111.5" font-family="Helvetica,sans-Serif" font-size="10.00">visioncpp::internal</text>
<text text-anchor="middle" x="74" y="-100.5" font-family="Helvetica,sans-Serif" font-size="10.00">::LocalNeighbour&lt; InTp1 &gt;</text>
<polyline fill="none" stroke="black" points="0,-93.5 148,-93.5 "/>
<text text-anchor="start" x="8" y="-81.5" font-family="Helvetica,sans-Serif" font-size="10.00">+ ptr</text>
<text text-anchor="start" x="8" y="-70.5" font-family="Helvetica,sans-Serif" font-size="10.00">+ I_c</text>
<text text-anchor="start" x="8" y="-59.5" font-family="Helvetica,sans-Serif" font-size="10.00">+ I_r</text>
<polyline fill="none" stroke="black" points="0,-52.5 148,-52.5 "/>
<text text-anchor="start" x="8" y="-40.5" font-family="Helvetica,sans-Serif" font-size="10.00">+ LocalNeighbour()</text>
<text text-anchor="start" x="8" y="-29.5" font-family="Helvetica,sans-Serif" font-size="10.00">+ set_offset()</text>
<text text-anchor="start" x="8" y="-18.5" font-family="Helvetica,sans-Serif" font-size="10.00">+ at()</text>
<text text-anchor="start" x="8" y="-7.5" font-family="Helvetica,sans-Serif" font-size="10.00">+ at()</text>
</a>
</g>
</g>
<!-- Node1&#45;&gt;Node2 -->
<g id="edge1" class="edge">
<title>Node1&#45;&gt;Node2</title>
<path fill="none" stroke="orange" d="M121.57,-162.25C115.43,-149.45 109.08,-136.19 103.08,-123.68"/>
<polygon fill="orange" stroke="orange" points="118.51,-163.96 125.99,-171.46 124.82,-160.93 118.51,-163.96"/>
<text text-anchor="middle" x="143.5" y="-145" font-family="Helvetica,sans-Serif" font-size="10.00"> &lt; InTp1 &gt;</text>
</g>
<!-- Node3 -->
<g id="node3" class="node">
<title>Node3</title>
<g id="a_node3"><a xlink:href="structvisioncpp_1_1internal_1_1LocalNeighbour.html" target="_top" xlink:title=" ">
<polygon fill="none" stroke="black" points="166,-0.5 166,-123.5 308,-123.5 308,-0.5 166,-0.5"/>
<text text-anchor="start" x="174" y="-111.5" font-family="Helvetica,sans-Serif" font-size="10.00">visioncpp::internal</text>
<text text-anchor="middle" x="237" y="-100.5" font-family="Helvetica,sans-Serif" font-size="10.00">::LocalNeighbour&lt; InTp &gt;</text>
<polyline fill="none" stroke="black" points="166,-93.5 308,-93.5 "/>
<text text-anchor="start" x="174" y="-81.5" font-family="Helvetica,sans-Serif" font-size="10.00">+ ptr</text>
<text text-anchor="start" x="174" y="-70.5" font-family="Helvetica,sans-Serif" font-size="10.00">+ I_c</text>
<text text-anchor="start" x="174" y="-59.5" font-family="Helvetica,sans-Serif" font-size="10.00">+ I_r</text>
<polyline fill="none" stroke="black" points="166,-52.5 308,-52.5 "/>
<text text-anchor="start" x="174" y="-40.5" font-family="Helvetica,sans-Serif" font-size="10.00">+ LocalNeighbour()</text>
<text text-anchor="start" x="174" y="-29.5" font-family="Helvetica,sans-Serif" font-size="10.00">+ set_offset()</text>
<text text-anchor="start" x="174" y="-18.5" font-family="Helvetica,sans-Serif" font-size="10.00">+ at()</text>
<text text-anchor="start" x="174" y="-7.5" font-family="Helvetica,sans-Serif" font-size="10.00">+ at()</text>
</a>
</g>
</g>
<!-- Node1&#45;&gt;Node3 -->
<g id="edge2" class="edge">
<title>Node1&#45;&gt;Node3</title>
<path fill="none" stroke="orange" d="M188.85,-162.25C195.05,-149.45 201.49,-136.19 207.56,-123.68"/>
<polygon fill="orange" stroke="orange" points="185.59,-160.94 184.37,-171.46 191.89,-164 185.59,-160.94"/>
<text text-anchor="middle" x="221.5" y="-145" font-family="Helvetica,sans-Serif" font-size="10.00"> &lt; InTp &gt;</text>
</g>
</g>
</svg>
