<?xml version="1.0" encoding="UTF-8" standalone="no"?>
<!DOCTYPE svg PUBLIC "-//W3C//DTD SVG 1.1//EN"
 "http://www.w3.org/Graphics/SVG/1.1/DTD/svg11.dtd">
<!-- Generated by graphviz version 2.36.0 (20140111.2315)
 -->
<!-- Title: visioncpp::internal::PixelBinaryOp&lt; USROP, InTp1, InTp2 &gt; Pages: 1 -->
<svg width="140pt" height="194pt"
 viewBox="0.00 0.00 140.00 194.00" xmlns="http://www.w3.org/2000/svg" xmlns:xlink="http://www.w3.org/1999/xlink">
<g id="graph0" class="graph" transform="scale(1 1) rotate(0) translate(4 190)">
<title>visioncpp::internal::PixelBinaryOp&lt; USROP, InTp1, InTp2 &gt;</title>
<!-- Node1 -->
<g id="node1" class="node"><title>Node1</title>
<polygon fill="#bfbfbf" stroke="black" points="-0.5,-0.5 -0.5,-79.5 132.5,-79.5 132.5,-0.5 -0.5,-0.5"/>
<text text-anchor="start" x="7.5" y="-67.5" font-family="Helvetica,sans-Serif" font-size="10.00">visioncpp::internal</text>
<text text-anchor="start" x="7.5" y="-56.5" font-family="Helvetica,sans-Serif" font-size="10.00">::PixelBinaryOp&lt; USROP,</text>
<text text-anchor="middle" x="66" y="-45.5" font-family="Helvetica,sans-Serif" font-size="10.00"> InTp1, InTp2 &gt;</text>
<polyline fill="none" stroke="black" points="-0.5,-38.5 132.5,-38.5 "/>
<text text-anchor="middle" x="66" y="-26.5" font-family="Helvetica,sans-Serif" font-size="10.00"> </text>
<polyline fill="none" stroke="black" points="-0.5,-19.5 132.5,-19.5 "/>
<text text-anchor="middle" x="66" y="-7.5" font-family="Helvetica,sans-Serif" font-size="10.00"> </text>
</g>
<!-- Node2 -->
<g id="node2" class="node"><title>Node2</title>
<polygon fill="none" stroke="#bfbfbf" points="16.5,-128.5 16.5,-185.5 57.5,-185.5 57.5,-128.5 16.5,-128.5"/>
<text text-anchor="middle" x="37" y="-173.5" font-family="Helvetica,sans-Serif" font-size="10.00">InTp1</text>
<polyline fill="none" stroke="#bfbfbf" points="16.5,-166.5 57.5,-166.5 "/>
<text text-anchor="middle" x="37" y="-154.5" font-family="Helvetica,sans-Serif" font-size="10.00"> </text>
<polyline fill="none" stroke="#bfbfbf" points="16.5,-147.5 57.5,-147.5 "/>
<text text-anchor="middle" x="37" y="-135.5" font-family="Helvetica,sans-Serif" font-size="10.00"> </text>
</g>
<!-- Node2&#45;&gt;Node1 -->
<g id="edge1" class="edge"><title>Node2&#45;&gt;Node1</title>
<path fill="none" stroke="#404040" d="M43.9462,-128.455C46.7399,-117.376 50.0525,-104.24 53.25,-91.5604"/>
<polygon fill="none" stroke="#404040" points="53.3253,-91.2615 50.9139,-84.4655 56.2596,-79.6258 58.671,-86.4217 53.3253,-91.2615"/>
<text text-anchor="middle" x="59.5" y="-101.5" font-family="Helvetica,sans-Serif" font-size="10.00"> +x</text>
</g>
<!-- Node3 -->
<g id="node3" class="node"><title>Node3</title>
<polygon fill="none" stroke="#bfbfbf" points="75.5,-128.5 75.5,-185.5 116.5,-185.5 116.5,-128.5 75.5,-128.5"/>
<text text-anchor="middle" x="96" y="-173.5" font-family="Helvetica,sans-Serif" font-size="10.00">InTp2</text>
<polyline fill="none" stroke="#bfbfbf" points="75.5,-166.5 116.5,-166.5 "/>
<text text-anchor="middle" x="96" y="-154.5" font-family="Helvetica,sans-Serif" font-size="10.00"> </text>
<polyline fill="none" stroke="#bfbfbf" points="75.5,-147.5 116.5,-147.5 "/>
<text text-anchor="middle" x="96" y="-135.5" font-family="Helvetica,sans-Serif" font-size="10.00"> </text>
</g>
<!-- Node3&#45;&gt;Node1 -->
<g id="edge2" class="edge"><title>Node3&#45;&gt;Node1</title>
<path fill="none" stroke="#404040" d="M88.8143,-128.455C85.9243,-117.376 82.4974,-104.24 79.1897,-91.5604"/>
<polygon fill="none" stroke="#404040" points="79.1054,-91.2372 73.7204,-86.4412 76.0763,-79.6258 81.4613,-84.4218 79.1054,-91.2372"/>
<text text-anchor="middle" x="90.5" y="-101.5" font-family="Helvetica,sans-Serif" font-size="10.00"> +y</text>
</g>
</g>
</svg>
