<?xml version="1.0" encoding="UTF-8" standalone="no"?>
<!DOCTYPE svg PUBLIC "-//W3C//DTD SVG 1.1//EN"
 "http://www.w3.org/Graphics/SVG/1.1/DTD/svg11.dtd">
<!-- Generated by graphviz version 2.36.0 (20140111.2315)
 -->
<!-- Title: visioncpp::internal::PixelUnaryOp&lt; USROP, InTp &gt; Pages: 1 -->
<svg width="138pt" height="194pt"
 viewBox="0.00 0.00 138.00 194.00" xmlns="http://www.w3.org/2000/svg" xmlns:xlink="http://www.w3.org/1999/xlink">
<g id="graph0" class="graph" transform="scale(1 1) rotate(0) translate(4 190)">
<title>visioncpp::internal::PixelUnaryOp&lt; USROP, InTp &gt;</title>
<!-- Node1 -->
<g id="node1" class="node"><title>Node1</title>
<polygon fill="#bfbfbf" stroke="black" points="-0.5,-0.5 -0.5,-79.5 130.5,-79.5 130.5,-0.5 -0.5,-0.5"/>
<text text-anchor="start" x="7.5" y="-67.5" font-family="Helvetica,sans-Serif" font-size="10.00">visioncpp::internal</text>
<text text-anchor="start" x="7.5" y="-56.5" font-family="Helvetica,sans-Serif" font-size="10.00">::PixelUnaryOp&lt; USROP,</text>
<text text-anchor="middle" x="65" y="-45.5" font-family="Helvetica,sans-Serif" font-size="10.00"> InTp &gt;</text>
<polyline fill="none" stroke="black" points="-0.5,-38.5 130.5,-38.5 "/>
<text text-anchor="middle" x="65" y="-26.5" font-family="Helvetica,sans-Serif" font-size="10.00"> </text>
<polyline fill="none" stroke="black" points="-0.5,-19.5 130.5,-19.5 "/>
<text text-anchor="middle" x="65" y="-7.5" font-family="Helvetica,sans-Serif" font-size="10.00"> </text>
</g>
<!-- Node2 -->
<g id="node2" class="node"><title>Node2</title>
<polygon fill="none" stroke="#bfbfbf" points="47,-128.5 47,-185.5 83,-185.5 83,-128.5 47,-128.5"/>
<text text-anchor="middle" x="65" y="-173.5" font-family="Helvetica,sans-Serif" font-size="10.00">InTp</text>
<polyline fill="none" stroke="#bfbfbf" points="47,-166.5 83,-166.5 "/>
<text text-anchor="middle" x="65" y="-154.5" font-family="Helvetica,sans-Serif" font-size="10.00"> </text>
<polyline fill="none" stroke="#bfbfbf" points="47,-147.5 83,-147.5 "/>
<text text-anchor="middle" x="65" y="-135.5" font-family="Helvetica,sans-Serif" font-size="10.00"> </text>
</g>
<!-- Node2&#45;&gt;Node1 -->
<g id="edge1" class="edge"><title>Node2&#45;&gt;Node1</title>
<path fill="none" stroke="#404040" d="M65,-128.455C65,-117.491 65,-104.511 65,-91.9527"/>
<polygon fill="none" stroke="#404040" points="65.0001,-91.6258 61,-85.6258 65,-79.6258 69,-85.6257 65.0001,-91.6258"/>
<text text-anchor="middle" x="72.5" y="-101.5" font-family="Helvetica,sans-Serif" font-size="10.00"> +x</text>
</g>
</g>
</svg>
