<?xml version="1.0" encoding="UTF-8" standalone="no"?>
<!DOCTYPE svg PUBLIC "-//W3C//DTD SVG 1.1//EN"
 "http://www.w3.org/Graphics/SVG/1.1/DTD/svg11.dtd">
<!-- Generated by graphviz version 2.36.0 (20140111.2315)
 -->
<!-- Title: visioncpp::internal::LocalOutput&lt; false, IsRoot, LC, LR, RUnOP&lt; OP, RHSExpr, Cols, Rows, LeafType, LVL &gt; &gt; Pages: 1 -->
<svg width="156pt" height="226pt"
 viewBox="0.00 0.00 156.00 226.00" xmlns="http://www.w3.org/2000/svg" xmlns:xlink="http://www.w3.org/1999/xlink">
<g id="graph0" class="graph" transform="scale(1 1) rotate(0) translate(4 222)">
<title>visioncpp::internal::LocalOutput&lt; false, IsRoot, LC, LR, RUnOP&lt; OP, RHSExpr, Cols, Rows, LeafType, LVL &gt; &gt;</title>
<!-- Node1 -->
<g id="node1" class="node"><title>Node1</title>
<polygon fill="#bfbfbf" stroke="black" points="-0.5,-0.5 -0.5,-101.5 148.5,-101.5 148.5,-0.5 -0.5,-0.5"/>
<text text-anchor="start" x="7.5" y="-89.5" font-family="Helvetica,sans-Serif" font-size="10.00">visioncpp::internal</text>
<text text-anchor="start" x="7.5" y="-78.5" font-family="Helvetica,sans-Serif" font-size="10.00">::LocalOutput&lt; false,</text>
<text text-anchor="start" x="7.5" y="-67.5" font-family="Helvetica,sans-Serif" font-size="10.00"> IsRoot, LC, LR, RUnOP</text>
<text text-anchor="start" x="7.5" y="-56.5" font-family="Helvetica,sans-Serif" font-size="10.00">&lt; OP, RHSExpr, Cols, Rows,</text>
<text text-anchor="middle" x="74" y="-45.5" font-family="Helvetica,sans-Serif" font-size="10.00"> LeafType, LVL &gt; &gt;</text>
<polyline fill="none" stroke="black" points="-0.5,-38.5 148.5,-38.5 "/>
<text text-anchor="middle" x="74" y="-26.5" font-family="Helvetica,sans-Serif" font-size="10.00"> </text>
<polyline fill="none" stroke="black" points="-0.5,-19.5 148.5,-19.5 "/>
<text text-anchor="start" x="7.5" y="-7.5" font-family="Helvetica,sans-Serif" font-size="10.00">+ getTuple()</text>
</g>
<!-- Node2 -->
<g id="node2" class="node"><title>Node2</title>
<polygon fill="none" stroke="#bfbfbf" points="52.5,-160.5 52.5,-217.5 95.5,-217.5 95.5,-160.5 52.5,-160.5"/>
<text text-anchor="middle" x="74" y="-205.5" font-family="Helvetica,sans-Serif" font-size="10.00">size_t</text>
<polyline fill="none" stroke="#bfbfbf" points="52.5,-198.5 95.5,-198.5 "/>
<text text-anchor="middle" x="74" y="-186.5" font-family="Helvetica,sans-Serif" font-size="10.00"> </text>
<polyline fill="none" stroke="#bfbfbf" points="52.5,-179.5 95.5,-179.5 "/>
<text text-anchor="middle" x="74" y="-167.5" font-family="Helvetica,sans-Serif" font-size="10.00"> </text>
</g>
<!-- Node2&#45;&gt;Node1 -->
<g id="edge1" class="edge"><title>Node2&#45;&gt;Node1</title>
<path fill="none" stroke="#404040" d="M74,-160.478C74,-147.057 74,-130.327 74,-114.055"/>
<polygon fill="none" stroke="#404040" points="74.0001,-113.764 70,-107.764 74,-101.764 78,-107.764 74.0001,-113.764"/>
<text text-anchor="middle" x="95.5" y="-134" font-family="Helvetica,sans-Serif" font-size="10.00"> +Out_LR</text>
<text text-anchor="middle" x="95.5" y="-123" font-family="Helvetica,sans-Serif" font-size="10.00">+Out_LC</text>
</g>
</g>
</svg>
