<?xml version="1.0" encoding="UTF-8" standalone="no"?>
<!DOCTYPE svg PUBLIC "-//W3C//DTD SVG 1.1//EN"
 "http://www.w3.org/Graphics/SVG/1.1/DTD/svg11.dtd">
<!-- Generated by graphviz version 2.43.0 (0)
 -->
<!-- Title: visioncpp::internal::tools::tuple::Tuple&lt; Ts &gt; Pages: 1 -->
<svg width="149pt" height="204pt"
 viewBox="0.00 0.00 149.00 204.00" xmlns="http://www.w3.org/2000/svg" xmlns:xlink="http://www.w3.org/1999/xlink">
<g id="graph0" class="graph" transform="scale(1 1) rotate(0) translate(4 200)">
<title>visioncpp::internal::tools::tuple::Tuple&lt; Ts &gt;</title>
<!-- Node1 -->
<g id="node1" class="node">
<title>Node1</title>
<g id="a_node1"><a xlink:title="The tuple is a fixed&#45;size collection of heterogeneous values.">
<polygon fill="#bfbfbf" stroke="black" points="0,-127.5 0,-195.5 141,-195.5 141,-127.5 0,-127.5"/>
<text text-anchor="start" x="8" y="-183.5" font-family="Helvetica,sans-Serif" font-size="10.00">visioncpp::internal</text>
<text text-anchor="middle" x="70.5" y="-172.5" font-family="Helvetica,sans-Serif" font-size="10.00">::tools::tuple::Tuple&lt; Ts &gt;</text>
<polyline fill="none" stroke="black" points="0,-165.5 141,-165.5 "/>
<text text-anchor="middle" x="70.5" y="-153.5" font-family="Helvetica,sans-Serif" font-size="10.00"> </text>
<polyline fill="none" stroke="black" points="0,-146.5 141,-146.5 "/>
<text text-anchor="middle" x="70.5" y="-134.5" font-family="Helvetica,sans-Serif" font-size="10.00"> </text>
</a>
</g>
</g>
<!-- Node2 -->
<g id="node2" class="node">
<title>Node2</title>
<g id="a_node2"><a xlink:href="structvisioncpp_1_1internal_1_1tools_1_1tuple_1_1Tuple.html" target="_top" xlink:title=" ">
<polygon fill="none" stroke="black" points="16,-0.5 16,-79.5 125,-79.5 125,-0.5 16,-0.5"/>
<text text-anchor="start" x="24" y="-67.5" font-family="Helvetica,sans-Serif" font-size="10.00">visioncpp::internal</text>
<text text-anchor="start" x="24" y="-56.5" font-family="Helvetica,sans-Serif" font-size="10.00">::tools::tuple::Tuple</text>
<text text-anchor="middle" x="70.5" y="-45.5" font-family="Helvetica,sans-Serif" font-size="10.00">&lt; Ts... &gt;</text>
<polyline fill="none" stroke="black" points="16,-38.5 125,-38.5 "/>
<text text-anchor="middle" x="70.5" y="-26.5" font-family="Helvetica,sans-Serif" font-size="10.00"> </text>
<polyline fill="none" stroke="black" points="16,-19.5 125,-19.5 "/>
<text text-anchor="middle" x="70.5" y="-7.5" font-family="Helvetica,sans-Serif" font-size="10.00"> </text>
</a>
</g>
</g>
<!-- Node1&#45;&gt;Node2 -->
<g id="edge1" class="edge">
<title>Node1&#45;&gt;Node2</title>
<path fill="none" stroke="orange" d="M70.5,-117.18C70.5,-104.89 70.5,-91.59 70.5,-79.6"/>
<polygon fill="orange" stroke="orange" points="67,-117.21 70.5,-127.21 74,-117.21 67,-117.21"/>
<text text-anchor="middle" x="93" y="-101" font-family="Helvetica,sans-Serif" font-size="10.00"> &lt; Ts... &gt;</text>
</g>
</g>
</svg>
