<?xml version="1.0" encoding="UTF-8" standalone="no"?>
<!DOCTYPE svg PUBLIC "-//W3C//DTD SVG 1.1//EN"
 "http://www.w3.org/Graphics/SVG/1.1/DTD/svg11.dtd">
<!-- Generated by graphviz version 2.36.0 (20140111.2315)
 -->
<!-- Title: visioncpp::internal::PyramidAutomemSep&lt; SepFltrColOP, SepFltrRowOP, DownSmplOP, RHS, SepFilterCol, SepFilterRow, Cols, Rows, LfType, LVL, Dp &gt; Pages: 1 -->
<svg width="641pt" height="542pt"
 viewBox="0.00 0.00 641.00 542.00" xmlns="http://www.w3.org/2000/svg" xmlns:xlink="http://www.w3.org/1999/xlink">
<g id="graph0" class="graph" transform="scale(1 1) rotate(0) translate(4 538)">
<title>visioncpp::internal::PyramidAutomemSep&lt; SepFltrColOP, SepFltrRowOP, DownSmplOP, RHS, SepFilterCol, SepFilterRow, Cols, Rows, LfType, LVL, Dp &gt;</title>
<!-- Node1 -->
<g id="node1" class="node"><title>Node1</title>
<polygon fill="#bfbfbf" stroke="black" points="254,-0.5 254,-145.5 430,-145.5 430,-0.5 254,-0.5"/>
<text text-anchor="start" x="262" y="-133.5" font-family="Helvetica,sans-Serif" font-size="10.00">visioncpp::internal</text>
<text text-anchor="start" x="262" y="-122.5" font-family="Helvetica,sans-Serif" font-size="10.00">::PyramidAutomemSep</text>
<text text-anchor="start" x="262" y="-111.5" font-family="Helvetica,sans-Serif" font-size="10.00">&lt; SepFltrColOP, SepFltrRowOP,</text>
<text text-anchor="start" x="262" y="-100.5" font-family="Helvetica,sans-Serif" font-size="10.00"> DownSmplOP, RHS, SepFilterCol,</text>
<text text-anchor="start" x="262" y="-89.5" font-family="Helvetica,sans-Serif" font-size="10.00"> SepFilterRow, Cols, Rows, LfType,</text>
<text text-anchor="middle" x="342" y="-78.5" font-family="Helvetica,sans-Serif" font-size="10.00"> LVL, Dp &gt;</text>
<polyline fill="none" stroke="black" points="254,-71.5 430,-71.5 "/>
<text text-anchor="middle" x="342" y="-59.5" font-family="Helvetica,sans-Serif" font-size="10.00"> </text>
<polyline fill="none" stroke="black" points="254,-52.5 430,-52.5 "/>
<text text-anchor="start" x="262" y="-40.5" font-family="Helvetica,sans-Serif" font-size="10.00">+ PyramidAutomemSep()</text>
<text text-anchor="start" x="262" y="-29.5" font-family="Helvetica,sans-Serif" font-size="10.00">+ reset()</text>
<text text-anchor="start" x="262" y="-18.5" font-family="Helvetica,sans-Serif" font-size="10.00">+ get()</text>
<text text-anchor="start" x="262" y="-7.5" font-family="Helvetica,sans-Serif" font-size="10.00">+ sub_expression_evaluation()</text>
</g>
<!-- Node2 -->
<g id="node2" class="node"><title>Node2</title>
<g id="a_node2"><a xlink:href="structvisioncpp_1_1internal_1_1CreatePyramidTupleType.html" target="_top" xlink:title="{visioncpp::internal\l::CreatePyramidTupleType\l\&lt; false, Cols/2, Rows/2,\l LeafType, Depth, 0, LHSExpr \&gt;\n||}">
<polygon fill="none" stroke="black" points="2,-271 2,-361 160,-361 160,-271 2,-271"/>
<text text-anchor="start" x="10" y="-349" font-family="Helvetica,sans-Serif" font-size="10.00">visioncpp::internal</text>
<text text-anchor="start" x="10" y="-338" font-family="Helvetica,sans-Serif" font-size="10.00">::CreatePyramidTupleType</text>
<text text-anchor="start" x="10" y="-327" font-family="Helvetica,sans-Serif" font-size="10.00">&lt; false, Cols/2, Rows/2,</text>
<text text-anchor="middle" x="81" y="-316" font-family="Helvetica,sans-Serif" font-size="10.00"> LeafType, Depth, 0, LHSExpr &gt;</text>
<polyline fill="none" stroke="black" points="2,-309 160,-309 "/>
<text text-anchor="middle" x="81" y="-297" font-family="Helvetica,sans-Serif" font-size="10.00"> </text>
<polyline fill="none" stroke="black" points="2,-290 160,-290 "/>
<text text-anchor="middle" x="81" y="-278" font-family="Helvetica,sans-Serif" font-size="10.00"> </text>
</a>
</g>
</g>
<!-- Node2&#45;&gt;Node1 -->
<g id="edge1" class="edge"><title>Node2&#45;&gt;Node1</title>
<path fill="none" stroke="#404040" d="M100.459,-270.693C116.506,-238.065 141.833,-194.286 174,-164 194.041,-145.131 218.797,-129.021 243.088,-115.87"/>
<polygon fill="none" stroke="#404040" points="243.203,-115.81 246.653,-109.478 253.825,-110.227 250.375,-116.559 243.203,-115.81"/>
<text text-anchor="middle" x="189.5" y="-205.5" font-family="Helvetica,sans-Serif" font-size="10.00"> +mem</text>
</g>
<!-- Node3 -->
<g id="node3" class="node"><title>Node3</title>
<g id="a_node3"><a xlink:href="structvisioncpp_1_1internal_1_1CreatePyramidTupleType.html" target="_top" xlink:title="CreatePyramidTupleType: This file is used to create each output element type for each downsampling ou...">
<polygon fill="none" stroke="black" points="-0.5,-432.5 -0.5,-533.5 162.5,-533.5 162.5,-432.5 -0.5,-432.5"/>
<text text-anchor="start" x="7.5" y="-521.5" font-family="Helvetica,sans-Serif" font-size="10.00">visioncpp::internal</text>
<text text-anchor="start" x="7.5" y="-510.5" font-family="Helvetica,sans-Serif" font-size="10.00">::CreatePyramidTupleType</text>
<text text-anchor="start" x="7.5" y="-499.5" font-family="Helvetica,sans-Serif" font-size="10.00">&lt; SatisfyingConds, Cols,</text>
<text text-anchor="start" x="7.5" y="-488.5" font-family="Helvetica,sans-Serif" font-size="10.00"> Rows, LeafType, Depth,</text>
<text text-anchor="middle" x="81" y="-477.5" font-family="Helvetica,sans-Serif" font-size="10.00"> CurrentDepth, LHS, ChildType &gt;</text>
<polyline fill="none" stroke="black" points="-0.5,-470.5 162.5,-470.5 "/>
<text text-anchor="middle" x="81" y="-458.5" font-family="Helvetica,sans-Serif" font-size="10.00"> </text>
<polyline fill="none" stroke="black" points="-0.5,-451.5 162.5,-451.5 "/>
<text text-anchor="middle" x="81" y="-439.5" font-family="Helvetica,sans-Serif" font-size="10.00"> </text>
</a>
</g>
</g>
<!-- Node3&#45;&gt;Node2 -->
<g id="edge2" class="edge"><title>Node3&#45;&gt;Node2</title>
<path fill="none" stroke="orange" d="M81,-422.434C81,-402.195 81,-379.956 81,-361.141"/>
<polygon fill="orange" stroke="orange" points="77.5001,-422.495 81,-432.495 84.5001,-422.495 77.5001,-422.495"/>
<text text-anchor="start" x="81" y="-405.5" font-family="Helvetica,sans-Serif" font-size="10.00"> &lt; false, Cols/2, Rows</text>
<text text-anchor="start" x="81" y="-394.5" font-family="Helvetica,sans-Serif" font-size="10.00">/2, LeafType, Depth,</text>
<text text-anchor="middle" x="131" y="-383.5" font-family="Helvetica,sans-Serif" font-size="10.00"> 0, LHSExpr &gt;</text>
</g>
<!-- Node4 -->
<g id="node4" class="node"><title>Node4</title>
<polygon fill="none" stroke="#bfbfbf" points="178,-287.5 178,-344.5 254,-344.5 254,-287.5 178,-287.5"/>
<text text-anchor="middle" x="216" y="-332.5" font-family="Helvetica,sans-Serif" font-size="10.00">SepFilterRow</text>
<polyline fill="none" stroke="#bfbfbf" points="178,-325.5 254,-325.5 "/>
<text text-anchor="middle" x="216" y="-313.5" font-family="Helvetica,sans-Serif" font-size="10.00"> </text>
<polyline fill="none" stroke="#bfbfbf" points="178,-306.5 254,-306.5 "/>
<text text-anchor="middle" x="216" y="-294.5" font-family="Helvetica,sans-Serif" font-size="10.00"> </text>
</g>
<!-- Node4&#45;&gt;Node1 -->
<g id="edge3" class="edge"><title>Node4&#45;&gt;Node1</title>
<path fill="none" stroke="#404040" d="M211.354,-287.271C207.439,-255.511 205.346,-202.859 226,-164 231.139,-154.33 237.821,-145.372 245.382,-137.158"/>
<polygon fill="none" stroke="#404040" points="245.465,-137.073 246.837,-129.994 253.9,-128.538 252.528,-135.617 245.465,-137.073"/>
<text text-anchor="middle" x="253.5" y="-205.5" font-family="Helvetica,sans-Serif" font-size="10.00"> +spFltrRow</text>
</g>
<!-- Node5 -->
<g id="node5" class="node"><title>Node5</title>
<polygon fill="none" stroke="#bfbfbf" points="272.5,-287.5 272.5,-344.5 315.5,-344.5 315.5,-287.5 272.5,-287.5"/>
<text text-anchor="middle" x="294" y="-332.5" font-family="Helvetica,sans-Serif" font-size="10.00">size_t</text>
<polyline fill="none" stroke="#bfbfbf" points="272.5,-325.5 315.5,-325.5 "/>
<text text-anchor="middle" x="294" y="-313.5" font-family="Helvetica,sans-Serif" font-size="10.00"> </text>
<polyline fill="none" stroke="#bfbfbf" points="272.5,-306.5 315.5,-306.5 "/>
<text text-anchor="middle" x="294" y="-294.5" font-family="Helvetica,sans-Serif" font-size="10.00"> </text>
</g>
<!-- Node5&#45;&gt;Node1 -->
<g id="edge4" class="edge"><title>Node5&#45;&gt;Node1</title>
<path fill="none" stroke="#404040" d="M288.993,-287.461C284.432,-256.777 279.937,-205.961 291,-164 291.609,-161.688 292.294,-159.373 293.043,-157.062"/>
<polygon fill="none" stroke="#404040" points="293.131,-156.824 291.457,-149.81 297.288,-145.567 298.961,-152.581 293.131,-156.824"/>
<text text-anchor="middle" x="327.5" y="-244" font-family="Helvetica,sans-Serif" font-size="10.00"> +node_reseter</text>
<text text-anchor="middle" x="327.5" y="-233" font-family="Helvetica,sans-Serif" font-size="10.00">+Operation_type</text>
<text text-anchor="middle" x="327.5" y="-222" font-family="Helvetica,sans-Serif" font-size="10.00">+Level</text>
<text text-anchor="middle" x="327.5" y="-211" font-family="Helvetica,sans-Serif" font-size="10.00">+Depth</text>
<text text-anchor="middle" x="327.5" y="-200" font-family="Helvetica,sans-Serif" font-size="10.00">+LeafType</text>
<text text-anchor="middle" x="327.5" y="-189" font-family="Helvetica,sans-Serif" font-size="10.00">+RThread</text>
<text text-anchor="middle" x="327.5" y="-178" font-family="Helvetica,sans-Serif" font-size="10.00">+CThread</text>
<text text-anchor="middle" x="327.5" y="-167" font-family="Helvetica,sans-Serif" font-size="10.00">+ND_Category</text>
</g>
<!-- Node6 -->
<g id="node6" class="node"><title>Node6</title>
<polygon fill="none" stroke="#bfbfbf" points="369,-287.5 369,-344.5 407,-344.5 407,-287.5 369,-287.5"/>
<text text-anchor="middle" x="388" y="-332.5" font-family="Helvetica,sans-Serif" font-size="10.00">RHS</text>
<polyline fill="none" stroke="#bfbfbf" points="369,-325.5 407,-325.5 "/>
<text text-anchor="middle" x="388" y="-313.5" font-family="Helvetica,sans-Serif" font-size="10.00"> </text>
<polyline fill="none" stroke="#bfbfbf" points="369,-306.5 407,-306.5 "/>
<text text-anchor="middle" x="388" y="-294.5" font-family="Helvetica,sans-Serif" font-size="10.00"> </text>
</g>
<!-- Node6&#45;&gt;Node1 -->
<g id="edge5" class="edge"><title>Node6&#45;&gt;Node1</title>
<path fill="none" stroke="#404040" d="M385.579,-287.236C382.633,-256.785 376.917,-206.577 368,-164 367.576,-161.975 367.13,-159.93 366.665,-157.87"/>
<polygon fill="none" stroke="#404040" points="366.611,-157.643 361.325,-152.738 363.819,-145.972 369.105,-150.877 366.611,-157.643"/>
<text text-anchor="middle" x="393.5" y="-205.5" font-family="Helvetica,sans-Serif" font-size="10.00"> +rhs</text>
</g>
<!-- Node7 -->
<g id="node7" class="node"><title>Node7</title>
<polygon fill="none" stroke="#bfbfbf" points="425.5,-287.5 425.5,-344.5 460.5,-344.5 460.5,-287.5 425.5,-287.5"/>
<text text-anchor="middle" x="443" y="-332.5" font-family="Helvetica,sans-Serif" font-size="10.00">bool</text>
<polyline fill="none" stroke="#bfbfbf" points="425.5,-325.5 460.5,-325.5 "/>
<text text-anchor="middle" x="443" y="-313.5" font-family="Helvetica,sans-Serif" font-size="10.00"> </text>
<polyline fill="none" stroke="#bfbfbf" points="425.5,-306.5 460.5,-306.5 "/>
<text text-anchor="middle" x="443" y="-294.5" font-family="Helvetica,sans-Serif" font-size="10.00"> </text>
</g>
<!-- Node7&#45;&gt;Node1 -->
<g id="edge6" class="edge"><title>Node7&#45;&gt;Node1</title>
<path fill="none" stroke="#404040" d="M440.288,-287.444C436.444,-256.301 427.68,-204.655 409,-164 407.799,-161.386 406.514,-158.775 405.158,-156.174"/>
<polygon fill="none" stroke="#404040" points="405.08,-156.035 398.66,-152.752 399.221,-145.562 405.642,-148.846 405.08,-156.035"/>
<text text-anchor="middle" x="494" y="-233" font-family="Helvetica,sans-Serif" font-size="10.00"> +has_out</text>
<text text-anchor="start" x="435" y="-222" font-family="Helvetica,sans-Serif" font-size="10.00">+SubExpressionEvaluation</text>
<text text-anchor="middle" x="494" y="-211" font-family="Helvetica,sans-Serif" font-size="10.00">Needed</text>
<text text-anchor="middle" x="494" y="-200" font-family="Helvetica,sans-Serif" font-size="10.00">+first_time</text>
<text text-anchor="start" x="435" y="-189" font-family="Helvetica,sans-Serif" font-size="10.00">+subexpr_execution</text>
<text text-anchor="middle" x="494" y="-178" font-family="Helvetica,sans-Serif" font-size="10.00">_reseter</text>
</g>
<!-- Node8 -->
<g id="node8" class="node"><title>Node8</title>
<polygon fill="none" stroke="#bfbfbf" points="545.5,-287.5 545.5,-344.5 616.5,-344.5 616.5,-287.5 545.5,-287.5"/>
<text text-anchor="middle" x="581" y="-332.5" font-family="Helvetica,sans-Serif" font-size="10.00">SepFilterCol</text>
<polyline fill="none" stroke="#bfbfbf" points="545.5,-325.5 616.5,-325.5 "/>
<text text-anchor="middle" x="581" y="-313.5" font-family="Helvetica,sans-Serif" font-size="10.00"> </text>
<polyline fill="none" stroke="#bfbfbf" points="545.5,-306.5 616.5,-306.5 "/>
<text text-anchor="middle" x="581" y="-294.5" font-family="Helvetica,sans-Serif" font-size="10.00"> </text>
</g>
<!-- Node8&#45;&gt;Node1 -->
<g id="edge7" class="edge"><title>Node8&#45;&gt;Node1</title>
<path fill="none" stroke="#404040" d="M584.133,-287.34C586.315,-254.428 584.88,-199.482 557,-164 528.72,-128.009 483.456,-106.253 441.738,-93.1781"/>
<polygon fill="none" stroke="#404040" points="441.585,-93.1329 434.695,-95.2588 430.082,-89.716 436.972,-87.59 441.585,-93.1329"/>
<text text-anchor="middle" x="608.5" y="-205.5" font-family="Helvetica,sans-Serif" font-size="10.00"> +spFltrCol</text>
</g>
</g>
</svg>
