<?xml version="1.0" encoding="UTF-8" standalone="no"?>
<!DOCTYPE svg PUBLIC "-//W3C//DTD SVG 1.1//EN"
 "http://www.w3.org/Graphics/SVG/1.1/DTD/svg11.dtd">
<!-- Generated by graphviz version 2.43.0 (0)
 -->
<!-- Title: visioncpp::internal::tools::IfNode&lt; T &gt; Pages: 1 -->
<svg width="137pt" height="182pt"
 viewBox="0.00 0.00 136.50 182.00" xmlns="http://www.w3.org/2000/svg" xmlns:xlink="http://www.w3.org/1999/xlink">
<g id="graph0" class="graph" transform="scale(1 1) rotate(0) translate(4 178)">
<title>visioncpp::internal::tools::IfNode&lt; T &gt;</title>
<!-- Node1 -->
<g id="node1" class="node">
<title>Node1</title>
<g id="a_node1"><a xlink:title="This struct is used to determine whether or not an expression node is a leafNode template parameters.">
<polygon fill="#bfbfbf" stroke="black" points="0,-0.5 0,-68.5 113,-68.5 113,-0.5 0,-0.5"/>
<text text-anchor="start" x="8" y="-56.5" font-family="Helvetica,sans-Serif" font-size="10.00">visioncpp::internal</text>
<text text-anchor="middle" x="56.5" y="-45.5" font-family="Helvetica,sans-Serif" font-size="10.00">::tools::IfNode&lt; T &gt;</text>
<polyline fill="none" stroke="black" points="0,-38.5 113,-38.5 "/>
<text text-anchor="middle" x="56.5" y="-26.5" font-family="Helvetica,sans-Serif" font-size="10.00"> </text>
<polyline fill="none" stroke="black" points="0,-19.5 113,-19.5 "/>
<text text-anchor="middle" x="56.5" y="-7.5" font-family="Helvetica,sans-Serif" font-size="10.00"> </text>
</a>
</g>
</g>
<!-- Node2 -->
<g id="node2" class="node">
<title>Node2</title>
<g id="a_node2"><a xlink:title=" ">
<polygon fill="none" stroke="#bfbfbf" points="37.5,-116.5 37.5,-173.5 75.5,-173.5 75.5,-116.5 37.5,-116.5"/>
<text text-anchor="middle" x="56.5" y="-161.5" font-family="Helvetica,sans-Serif" font-size="10.00">bool</text>
<polyline fill="none" stroke="#bfbfbf" points="37.5,-154.5 75.5,-154.5 "/>
<text text-anchor="middle" x="56.5" y="-142.5" font-family="Helvetica,sans-Serif" font-size="10.00"> </text>
<polyline fill="none" stroke="#bfbfbf" points="37.5,-135.5 75.5,-135.5 "/>
<text text-anchor="middle" x="56.5" y="-123.5" font-family="Helvetica,sans-Serif" font-size="10.00"> </text>
</a>
</g>
</g>
<!-- Node2&#45;&gt;Node1 -->
<g id="edge1" class="edge">
<title>Node2&#45;&gt;Node1</title>
<path fill="none" stroke="#404040" d="M56.5,-116.34C56.5,-105.53 56.5,-92.85 56.5,-80.77"/>
<polygon fill="none" stroke="#404040" points="56.5,-80.52 52.5,-74.52 56.5,-68.52 60.5,-74.52 56.5,-80.52"/>
<text text-anchor="middle" x="92.5" y="-90" font-family="Helvetica,sans-Serif" font-size="10.00"> +Is_LeafNode</text>
</g>
</g>
</svg>
