<?xml version="1.0" encoding="UTF-8" standalone="no"?>
<!DOCTYPE svg PUBLIC "-//W3C//DTD SVG 1.1//EN"
 "http://www.w3.org/Graphics/SVG/1.1/DTD/svg11.dtd">
<!-- Generated by graphviz version 2.36.0 (20140111.2315)
 -->
<!-- Title: visioncpp::internal::LocalMemCount&lt; expr_category::Unary, LeafNode&lt; RHSExpr, LVL &gt; &gt; Pages: 1 -->
<svg width="148pt" height="206pt"
 viewBox="0.00 0.00 148.00 206.00" xmlns="http://www.w3.org/2000/svg" xmlns:xlink="http://www.w3.org/1999/xlink">
<g id="graph0" class="graph" transform="scale(1 1) rotate(0) translate(4 202)">
<title>visioncpp::internal::LocalMemCount&lt; expr_category::Unary, LeafNode&lt; RHSExpr, LVL &gt; &gt;</title>
<!-- Node1 -->
<g id="node1" class="node"><title>Node1</title>
<polygon fill="#bfbfbf" stroke="black" points="0,-1 0,-91 140,-91 140,-1 0,-1"/>
<text text-anchor="start" x="8" y="-79" font-family="Helvetica,sans-Serif" font-size="10.00">visioncpp::internal</text>
<text text-anchor="start" x="8" y="-68" font-family="Helvetica,sans-Serif" font-size="10.00">::LocalMemCount&lt; expr</text>
<text text-anchor="start" x="8" y="-57" font-family="Helvetica,sans-Serif" font-size="10.00">_category::Unary, LeafNode</text>
<text text-anchor="middle" x="70" y="-46" font-family="Helvetica,sans-Serif" font-size="10.00">&lt; RHSExpr, LVL &gt; &gt;</text>
<polyline fill="none" stroke="black" points="0,-39 140,-39 "/>
<text text-anchor="middle" x="70" y="-27" font-family="Helvetica,sans-Serif" font-size="10.00"> </text>
<polyline fill="none" stroke="black" points="0,-20 140,-20 "/>
<text text-anchor="middle" x="70" y="-8" font-family="Helvetica,sans-Serif" font-size="10.00"> </text>
</g>
<!-- Node2 -->
<g id="node2" class="node"><title>Node2</title>
<polygon fill="none" stroke="#bfbfbf" points="12,-140.5 12,-197.5 128,-197.5 128,-140.5 12,-140.5"/>
<text text-anchor="middle" x="70" y="-185.5" font-family="Helvetica,sans-Serif" font-size="10.00">static constexpr size_t</text>
<polyline fill="none" stroke="#bfbfbf" points="12,-178.5 128,-178.5 "/>
<text text-anchor="middle" x="70" y="-166.5" font-family="Helvetica,sans-Serif" font-size="10.00"> </text>
<polyline fill="none" stroke="#bfbfbf" points="12,-159.5 128,-159.5 "/>
<text text-anchor="middle" x="70" y="-147.5" font-family="Helvetica,sans-Serif" font-size="10.00"> </text>
</g>
<!-- Node2&#45;&gt;Node1 -->
<g id="edge1" class="edge"><title>Node2&#45;&gt;Node1</title>
<path fill="none" stroke="#404040" d="M70,-140.24C70,-129.242 70,-116.179 70,-103.364"/>
<polygon fill="none" stroke="#404040" points="70.0001,-103.23 66,-97.2296 70,-91.2295 74,-97.2295 70.0001,-103.23"/>
<text text-anchor="middle" x="88" y="-113.5" font-family="Helvetica,sans-Serif" font-size="10.00"> +Count</text>
</g>
</g>
</svg>
