<?xml version="1.0" encoding="UTF-8" standalone="no"?>
<!DOCTYPE svg PUBLIC "-//W3C//DTD SVG 1.1//EN"
 "http://www.w3.org/Graphics/SVG/1.1/DTD/svg11.dtd">
<!-- Generated by graphviz version 2.36.0 (20140111.2315)
 -->
<!-- Title: visioncpp::internal::ConstNeighbour&lt; T &gt; Pages: 1 -->
<svg width="144pt" height="284pt"
 viewBox="0.00 0.00 144.00 284.00" xmlns="http://www.w3.org/2000/svg" xmlns:xlink="http://www.w3.org/1999/xlink">
<g id="graph0" class="graph" transform="scale(1 1) rotate(0) translate(4 280)">
<title>visioncpp::internal::ConstNeighbour&lt; T &gt;</title>
<!-- Node1 -->
<g id="node1" class="node"><title>Node1</title>
<polygon fill="#bfbfbf" stroke="black" points="9.5,-163 9.5,-275 126.5,-275 126.5,-163 9.5,-163"/>
<text text-anchor="start" x="17.5" y="-263" font-family="Helvetica,sans-Serif" font-size="10.00">visioncpp::internal</text>
<text text-anchor="middle" x="68" y="-252" font-family="Helvetica,sans-Serif" font-size="10.00">::ConstNeighbour&lt; T &gt;</text>
<polyline fill="none" stroke="black" points="9.5,-245 126.5,-245 "/>
<text text-anchor="start" x="17.5" y="-233" font-family="Helvetica,sans-Serif" font-size="10.00">+ ptr</text>
<text text-anchor="start" x="17.5" y="-222" font-family="Helvetica,sans-Serif" font-size="10.00">+ cols</text>
<text text-anchor="start" x="17.5" y="-211" font-family="Helvetica,sans-Serif" font-size="10.00">+ rows</text>
<polyline fill="none" stroke="black" points="9.5,-204 126.5,-204 "/>
<text text-anchor="start" x="17.5" y="-192" font-family="Helvetica,sans-Serif" font-size="10.00">+ ConstNeighbour()</text>
<text text-anchor="start" x="17.5" y="-181" font-family="Helvetica,sans-Serif" font-size="10.00">+ at()</text>
<text text-anchor="start" x="17.5" y="-170" font-family="Helvetica,sans-Serif" font-size="10.00">+ at()</text>
</g>
<!-- Node2 -->
<g id="node2" class="node"><title>Node2</title>
<g id="a_node2"><a xlink:href="structvisioncpp_1_1internal_1_1ConstNeighbour.html" target="_top" xlink:title="{visioncpp::internal\l::ConstNeighbour\&lt; InTp2 \&gt;\n|+ ptr\l+ cols\l+ rows\l|+ ConstNeighbour()\l+ at()\l+ at()\l}">
<polygon fill="none" stroke="black" points="0,-1 0,-113 136,-113 136,-1 0,-1"/>
<text text-anchor="start" x="8" y="-101" font-family="Helvetica,sans-Serif" font-size="10.00">visioncpp::internal</text>
<text text-anchor="middle" x="68" y="-90" font-family="Helvetica,sans-Serif" font-size="10.00">::ConstNeighbour&lt; InTp2 &gt;</text>
<polyline fill="none" stroke="black" points="0,-83 136,-83 "/>
<text text-anchor="start" x="8" y="-71" font-family="Helvetica,sans-Serif" font-size="10.00">+ ptr</text>
<text text-anchor="start" x="8" y="-60" font-family="Helvetica,sans-Serif" font-size="10.00">+ cols</text>
<text text-anchor="start" x="8" y="-49" font-family="Helvetica,sans-Serif" font-size="10.00">+ rows</text>
<polyline fill="none" stroke="black" points="0,-42 136,-42 "/>
<text text-anchor="start" x="8" y="-30" font-family="Helvetica,sans-Serif" font-size="10.00">+ ConstNeighbour()</text>
<text text-anchor="start" x="8" y="-19" font-family="Helvetica,sans-Serif" font-size="10.00">+ at()</text>
<text text-anchor="start" x="8" y="-8" font-family="Helvetica,sans-Serif" font-size="10.00">+ at()</text>
</a>
</g>
</g>
<!-- Node1&#45;&gt;Node2 -->
<g id="edge1" class="edge"><title>Node1&#45;&gt;Node2</title>
<path fill="none" stroke="orange" d="M68,-152.583C68,-139.494 68,-125.866 68,-113.164"/>
<polygon fill="orange" stroke="orange" points="64.5001,-152.937 68,-162.937 71.5001,-152.937 64.5001,-152.937"/>
<text text-anchor="middle" x="91" y="-135.5" font-family="Helvetica,sans-Serif" font-size="10.00"> &lt; InTp2 &gt;</text>
</g>
</g>
</svg>
