<?xml version="1.0" encoding="UTF-8" standalone="no"?>
<!DOCTYPE svg PUBLIC "-//W3C//DTD SVG 1.1//EN"
 "http://www.w3.org/Graphics/SVG/1.1/DTD/svg11.dtd">
<!-- Generated by graphviz version 2.43.0 (0)
 -->
<!-- Title: visioncpp::internal::OutputLocation&lt; IsRoot, OutOffset &gt; Pages: 1 -->
<svg width="150pt" height="193pt"
 viewBox="0.00 0.00 150.00 193.00" xmlns="http://www.w3.org/2000/svg" xmlns:xlink="http://www.w3.org/1999/xlink">
<g id="graph0" class="graph" transform="scale(1 1) rotate(0) translate(4 189)">
<title>visioncpp::internal::OutputLocation&lt; IsRoot, OutOffset &gt;</title>
<!-- Node1 -->
<g id="node1" class="node">
<title>Node1</title>
<g id="a_node1"><a xlink:title="This is used to find whether a node should use a global memory output or a local memory output is cre...">
<polygon fill="#bfbfbf" stroke="black" points="0,-0.5 0,-79.5 142,-79.5 142,-0.5 0,-0.5"/>
<text text-anchor="start" x="8" y="-67.5" font-family="Helvetica,sans-Serif" font-size="10.00">visioncpp::internal</text>
<text text-anchor="start" x="8" y="-56.5" font-family="Helvetica,sans-Serif" font-size="10.00">::OutputLocation&lt; IsRoot,</text>
<text text-anchor="middle" x="71" y="-45.5" font-family="Helvetica,sans-Serif" font-size="10.00"> OutOffset &gt;</text>
<polyline fill="none" stroke="black" points="0,-38.5 142,-38.5 "/>
<text text-anchor="middle" x="71" y="-26.5" font-family="Helvetica,sans-Serif" font-size="10.00"> </text>
<polyline fill="none" stroke="black" points="0,-19.5 142,-19.5 "/>
<text text-anchor="middle" x="71" y="-7.5" font-family="Helvetica,sans-Serif" font-size="10.00"> </text>
</a>
</g>
</g>
<!-- Node2 -->
<g id="node2" class="node">
<title>Node2</title>
<g id="a_node2"><a xlink:title=" ">
<polygon fill="none" stroke="#bfbfbf" points="48.5,-127.5 48.5,-184.5 93.5,-184.5 93.5,-127.5 48.5,-127.5"/>
<text text-anchor="middle" x="71" y="-172.5" font-family="Helvetica,sans-Serif" font-size="10.00">size_t</text>
<polyline fill="none" stroke="#bfbfbf" points="48.5,-165.5 93.5,-165.5 "/>
<text text-anchor="middle" x="71" y="-153.5" font-family="Helvetica,sans-Serif" font-size="10.00"> </text>
<polyline fill="none" stroke="#bfbfbf" points="48.5,-146.5 93.5,-146.5 "/>
<text text-anchor="middle" x="71" y="-134.5" font-family="Helvetica,sans-Serif" font-size="10.00"> </text>
</a>
</g>
</g>
<!-- Node2&#45;&gt;Node1 -->
<g id="edge1" class="edge">
<title>Node2&#45;&gt;Node1</title>
<path fill="none" stroke="#404040" d="M71,-127.4C71,-116.63 71,-103.93 71,-91.62"/>
<polygon fill="none" stroke="#404040" points="71,-91.54 67,-85.54 71,-79.54 75,-85.54 71,-91.54"/>
<text text-anchor="middle" x="82" y="-101" font-family="Helvetica,sans-Serif" font-size="10.00"> +ID</text>
</g>
</g>
</svg>
