<?xml version="1.0" encoding="UTF-8" standalone="no"?>
<!DOCTYPE svg PUBLIC "-//W3C//DTD SVG 1.1//EN"
 "http://www.w3.org/Graphics/SVG/1.1/DTD/svg11.dtd">
<!-- Generated by graphviz version 2.43.0 (0)
 -->
<!-- Title: visioncpp::internal::PyramidLeafNode&lt; PyramidT, N &gt; Pages: 1 -->
<svg width="333pt" height="281pt"
 viewBox="0.00 0.00 332.50 281.00" xmlns="http://www.w3.org/2000/svg" xmlns:xlink="http://www.w3.org/1999/xlink">
<g id="graph0" class="graph" transform="scale(1 1) rotate(0) translate(4 277)">
<title>visioncpp::internal::PyramidLeafNode&lt; PyramidT, N &gt;</title>
<!-- Node1 -->
<g id="node1" class="node">
<title>Node1</title>
<g id="a_node1"><a xlink:title=" ">
<polygon fill="#bfbfbf" stroke="black" points="45.5,-0.5 45.5,-101.5 213.5,-101.5 213.5,-0.5 45.5,-0.5"/>
<text text-anchor="start" x="53.5" y="-89.5" font-family="Helvetica,sans-Serif" font-size="10.00">visioncpp::internal</text>
<text text-anchor="start" x="53.5" y="-78.5" font-family="Helvetica,sans-Serif" font-size="10.00">::PyramidLeafNode&lt; Pyramid</text>
<text text-anchor="middle" x="129.5" y="-67.5" font-family="Helvetica,sans-Serif" font-size="10.00">T, N &gt;</text>
<polyline fill="none" stroke="black" points="45.5,-60.5 213.5,-60.5 "/>
<text text-anchor="middle" x="129.5" y="-48.5" font-family="Helvetica,sans-Serif" font-size="10.00"> </text>
<polyline fill="none" stroke="black" points="45.5,-41.5 213.5,-41.5 "/>
<text text-anchor="start" x="53.5" y="-29.5" font-family="Helvetica,sans-Serif" font-size="10.00">+ PyramidLeafNode()</text>
<text text-anchor="start" x="53.5" y="-18.5" font-family="Helvetica,sans-Serif" font-size="10.00">+ reset()</text>
<text text-anchor="start" x="53.5" y="-7.5" font-family="Helvetica,sans-Serif" font-size="10.00">+ sub_expression_evaluation()</text>
</a>
</g>
</g>
<!-- Node2 -->
<g id="node2" class="node">
<title>Node2</title>
<g id="a_node2"><a xlink:title=" ">
<polygon fill="none" stroke="#bfbfbf" points="0,-215.5 0,-272.5 45,-272.5 45,-215.5 0,-215.5"/>
<text text-anchor="middle" x="22.5" y="-260.5" font-family="Helvetica,sans-Serif" font-size="10.00">size_t</text>
<polyline fill="none" stroke="#bfbfbf" points="0,-253.5 45,-253.5 "/>
<text text-anchor="middle" x="22.5" y="-241.5" font-family="Helvetica,sans-Serif" font-size="10.00"> </text>
<polyline fill="none" stroke="#bfbfbf" points="0,-234.5 45,-234.5 "/>
<text text-anchor="middle" x="22.5" y="-222.5" font-family="Helvetica,sans-Serif" font-size="10.00"> </text>
</a>
</g>
</g>
<!-- Node2&#45;&gt;Node1 -->
<g id="edge1" class="edge">
<title>Node2&#45;&gt;Node1</title>
<path fill="none" stroke="#404040" d="M21.09,-215.4C21,-189.11 24.21,-149.31 41.5,-120 43.29,-116.96 45.28,-114.01 47.42,-111.15"/>
<polygon fill="none" stroke="#404040" points="47.56,-110.98 48.34,-103.81 55.25,-101.77 54.48,-108.94 47.56,-110.98"/>
<text text-anchor="middle" x="83.5" y="-189" font-family="Helvetica,sans-Serif" font-size="10.00"> +CThread</text>
<text text-anchor="middle" x="83.5" y="-178" font-family="Helvetica,sans-Serif" font-size="10.00">+Depth</text>
<text text-anchor="middle" x="83.5" y="-167" font-family="Helvetica,sans-Serif" font-size="10.00">+LeafType</text>
<text text-anchor="middle" x="83.5" y="-156" font-family="Helvetica,sans-Serif" font-size="10.00">+Level</text>
<text text-anchor="middle" x="83.5" y="-145" font-family="Helvetica,sans-Serif" font-size="10.00">+ND_Category</text>
<text text-anchor="middle" x="83.5" y="-134" font-family="Helvetica,sans-Serif" font-size="10.00">+Operation_type</text>
<text text-anchor="middle" x="83.5" y="-123" font-family="Helvetica,sans-Serif" font-size="10.00">+RThread</text>
</g>
<!-- Node3 -->
<g id="node3" class="node">
<title>Node3</title>
<g id="a_node3"><a xlink:title=" ">
<polygon fill="none" stroke="#bfbfbf" points="110.5,-215.5 110.5,-272.5 148.5,-272.5 148.5,-215.5 110.5,-215.5"/>
<text text-anchor="middle" x="129.5" y="-260.5" font-family="Helvetica,sans-Serif" font-size="10.00">bool</text>
<polyline fill="none" stroke="#bfbfbf" points="110.5,-253.5 148.5,-253.5 "/>
<text text-anchor="middle" x="129.5" y="-241.5" font-family="Helvetica,sans-Serif" font-size="10.00"> </text>
<polyline fill="none" stroke="#bfbfbf" points="110.5,-234.5 148.5,-234.5 "/>
<text text-anchor="middle" x="129.5" y="-222.5" font-family="Helvetica,sans-Serif" font-size="10.00"> </text>
</a>
</g>
</g>
<!-- Node3&#45;&gt;Node1 -->
<g id="edge2" class="edge">
<title>Node3&#45;&gt;Node1</title>
<path fill="none" stroke="#404040" d="M129.5,-215.23C129.5,-188.78 129.5,-148.06 129.5,-113.9"/>
<polygon fill="none" stroke="#404040" points="129.5,-113.66 125.5,-107.66 129.5,-101.66 133.5,-107.66 129.5,-113.66"/>
<text text-anchor="start" x="129.5" y="-178" font-family="Helvetica,sans-Serif" font-size="10.00"> +SubExpressionEvaluation</text>
<text text-anchor="middle" x="197" y="-167" font-family="Helvetica,sans-Serif" font-size="10.00">Needed</text>
<text text-anchor="middle" x="197" y="-156" font-family="Helvetica,sans-Serif" font-size="10.00">+has_out</text>
<text text-anchor="start" x="129.5" y="-145" font-family="Helvetica,sans-Serif" font-size="10.00">+subexpr_execution</text>
<text text-anchor="middle" x="197" y="-134" font-family="Helvetica,sans-Serif" font-size="10.00">_reseter</text>
</g>
<!-- Node4 -->
<g id="node4" class="node">
<title>Node4</title>
<g id="a_node4"><a xlink:title=" ">
<polygon fill="none" stroke="#bfbfbf" points="250.5,-215.5 250.5,-272.5 324.5,-272.5 324.5,-215.5 250.5,-215.5"/>
<text text-anchor="middle" x="287.5" y="-260.5" font-family="Helvetica,sans-Serif" font-size="10.00">PyramidT &amp;</text>
<polyline fill="none" stroke="#bfbfbf" points="250.5,-253.5 324.5,-253.5 "/>
<text text-anchor="middle" x="287.5" y="-241.5" font-family="Helvetica,sans-Serif" font-size="10.00"> </text>
<polyline fill="none" stroke="#bfbfbf" points="250.5,-234.5 324.5,-234.5 "/>
<text text-anchor="middle" x="287.5" y="-222.5" font-family="Helvetica,sans-Serif" font-size="10.00"> </text>
</a>
</g>
</g>
<!-- Node4&#45;&gt;Node1 -->
<g id="edge3" class="edge">
<title>Node4&#45;&gt;Node1</title>
<path fill="none" stroke="#404040" d="M289.31,-215.3C289.64,-188.38 286.16,-147.62 265.5,-120 254.77,-105.66 240.18,-94.14 224.53,-84.96"/>
<polygon fill="none" stroke="#404040" points="224.09,-84.72 216.9,-85.36 213.55,-78.97 220.73,-78.33 224.09,-84.72"/>
<text text-anchor="middle" x="302" y="-156" font-family="Helvetica,sans-Serif" font-size="10.00"> +rhs</text>
</g>
</g>
</svg>
