<?xml version="1.0" encoding="UTF-8" standalone="no"?>
<!DOCTYPE svg PUBLIC "-//W3C//DTD SVG 1.1//EN"
 "http://www.w3.org/Graphics/SVG/1.1/DTD/svg11.dtd">
<!-- Generated by graphviz version 2.43.0 (0)
 -->
<!-- Title: visioncpp::internal::LocalOutput&lt; false, IsRoot, LC, LR, RBiOP&lt; OP, LHSExpr, RHSExpr, Cols, Rows, LeafType, LVL &gt; &gt; Pages: 1 -->
<svg width="175pt" height="248pt"
 viewBox="0.00 0.00 175.00 248.00" xmlns="http://www.w3.org/2000/svg" xmlns:xlink="http://www.w3.org/1999/xlink">
<g id="graph0" class="graph" transform="scale(1 1) rotate(0) translate(4 244)">
<title>visioncpp::internal::LocalOutput&lt; false, IsRoot, LC, LR, RBiOP&lt; OP, LHSExpr, RHSExpr, Cols, Rows, LeafType, LVL &gt; &gt;</title>
<!-- Node1 -->
<g id="node1" class="node">
<title>Node1</title>
<g id="a_node1"><a xlink:title="LocalOutput specialisation for binary operation(RBiOP) it creates the local accessor to store the out...">
<polygon fill="#bfbfbf" stroke="black" points="0,-0.5 0,-101.5 167,-101.5 167,-0.5 0,-0.5"/>
<text text-anchor="start" x="8" y="-89.5" font-family="Helvetica,sans-Serif" font-size="10.00">visioncpp::internal</text>
<text text-anchor="start" x="8" y="-78.5" font-family="Helvetica,sans-Serif" font-size="10.00">::LocalOutput&lt; false,</text>
<text text-anchor="start" x="8" y="-67.5" font-family="Helvetica,sans-Serif" font-size="10.00"> IsRoot, LC, LR, RBiOP</text>
<text text-anchor="start" x="8" y="-56.5" font-family="Helvetica,sans-Serif" font-size="10.00">&lt; OP, LHSExpr, RHSExpr,</text>
<text text-anchor="middle" x="83.5" y="-45.5" font-family="Helvetica,sans-Serif" font-size="10.00"> Cols, Rows, LeafType, LVL &gt; &gt;</text>
<polyline fill="none" stroke="black" points="0,-38.5 167,-38.5 "/>
<text text-anchor="middle" x="83.5" y="-26.5" font-family="Helvetica,sans-Serif" font-size="10.00"> </text>
<polyline fill="none" stroke="black" points="0,-19.5 167,-19.5 "/>
<text text-anchor="start" x="8" y="-7.5" font-family="Helvetica,sans-Serif" font-size="10.00">+ getTuple()</text>
</a>
</g>
</g>
<!-- Node2 -->
<g id="node2" class="node">
<title>Node2</title>
<g id="a_node2"><a xlink:title=" ">
<polygon fill="none" stroke="#bfbfbf" points="27,-182.5 27,-239.5 72,-239.5 72,-182.5 27,-182.5"/>
<text text-anchor="middle" x="49.5" y="-227.5" font-family="Helvetica,sans-Serif" font-size="10.00">size_t</text>
<polyline fill="none" stroke="#bfbfbf" points="27,-220.5 72,-220.5 "/>
<text text-anchor="middle" x="49.5" y="-208.5" font-family="Helvetica,sans-Serif" font-size="10.00"> </text>
<polyline fill="none" stroke="#bfbfbf" points="27,-201.5 72,-201.5 "/>
<text text-anchor="middle" x="49.5" y="-189.5" font-family="Helvetica,sans-Serif" font-size="10.00"> </text>
</a>
</g>
</g>
<!-- Node2&#45;&gt;Node1 -->
<g id="edge1" class="edge">
<title>Node2&#45;&gt;Node1</title>
<path fill="none" stroke="#404040" d="M46.72,-182.45C45.65,-164.44 45.66,-140.53 50.5,-120 51.04,-117.7 51.67,-115.39 52.37,-113.08"/>
<polygon fill="none" stroke="#404040" points="52.43,-112.91 50.65,-105.92 56.41,-101.58 58.19,-108.57 52.43,-112.91"/>
<text text-anchor="middle" x="73.5" y="-156" font-family="Helvetica,sans-Serif" font-size="10.00"> +Out_LR</text>
<text text-anchor="middle" x="73.5" y="-145" font-family="Helvetica,sans-Serif" font-size="10.00">+Out_LC</text>
<text text-anchor="middle" x="73.5" y="-134" font-family="Helvetica,sans-Serif" font-size="10.00">+lhs</text>
<text text-anchor="middle" x="73.5" y="-123" font-family="Helvetica,sans-Serif" font-size="10.00">+rhs</text>
</g>
<!-- Node3 -->
<g id="node3" class="node">
<title>Node3</title>
<g id="a_node3"><a xlink:title=" ">
<polygon fill="none" stroke="#bfbfbf" points="99.5,-182.5 99.5,-239.5 137.5,-239.5 137.5,-182.5 99.5,-182.5"/>
<text text-anchor="middle" x="118.5" y="-227.5" font-family="Helvetica,sans-Serif" font-size="10.00">bool</text>
<polyline fill="none" stroke="#bfbfbf" points="99.5,-220.5 137.5,-220.5 "/>
<text text-anchor="middle" x="118.5" y="-208.5" font-family="Helvetica,sans-Serif" font-size="10.00"> </text>
<polyline fill="none" stroke="#bfbfbf" points="99.5,-201.5 137.5,-201.5 "/>
<text text-anchor="middle" x="118.5" y="-189.5" font-family="Helvetica,sans-Serif" font-size="10.00"> </text>
</a>
</g>
</g>
<!-- Node3&#45;&gt;Node1 -->
<g id="edge2" class="edge">
<title>Node3&#45;&gt;Node1</title>
<path fill="none" stroke="#404040" d="M112.4,-182.48C108.18,-163.42 102.39,-137.28 97.1,-113.4"/>
<polygon fill="none" stroke="#404040" points="97.07,-113.25 91.86,-108.25 94.47,-101.53 99.68,-106.52 97.07,-113.25"/>
<text text-anchor="middle" x="121" y="-139.5" font-family="Helvetica,sans-Serif" font-size="10.00"> +res</text>
</g>
</g>
</svg>
