<?xml version="1.0" encoding="UTF-8" standalone="no"?>
<!DOCTYPE svg PUBLIC "-//W3C//DTD SVG 1.1//EN"
 "http://www.w3.org/Graphics/SVG/1.1/DTD/svg11.dtd">
<!-- Generated by graphviz version 2.36.0 (20140111.2315)
 -->
<!-- Title: visioncpp::internal::LocalMemCount&lt; expr_category::Unary, LeafNode&lt; PlaceHolder&lt; memory_type::Const, N, Cols, Rows, scope::Global &gt;, LVL &gt; &gt; Pages: 1 -->
<svg width="160pt" height="228pt"
 viewBox="0.00 0.00 160.00 228.00" xmlns="http://www.w3.org/2000/svg" xmlns:xlink="http://www.w3.org/1999/xlink">
<g id="graph0" class="graph" transform="scale(1 1) rotate(0) translate(4 224)">
<title>visioncpp::internal::LocalMemCount&lt; expr_category::Unary, LeafNode&lt; PlaceHolder&lt; memory_type::Const, N, Cols, Rows, scope::Global &gt;, LVL &gt; &gt;</title>
<!-- Node1 -->
<g id="node1" class="node"><title>Node1</title>
<polygon fill="#bfbfbf" stroke="black" points="0,-1 0,-113 152,-113 152,-1 0,-1"/>
<text text-anchor="start" x="8" y="-101" font-family="Helvetica,sans-Serif" font-size="10.00">visioncpp::internal</text>
<text text-anchor="start" x="8" y="-90" font-family="Helvetica,sans-Serif" font-size="10.00">::LocalMemCount&lt; expr</text>
<text text-anchor="start" x="8" y="-79" font-family="Helvetica,sans-Serif" font-size="10.00">_category::Unary, LeafNode</text>
<text text-anchor="start" x="8" y="-68" font-family="Helvetica,sans-Serif" font-size="10.00">&lt; PlaceHolder&lt; memory_type</text>
<text text-anchor="start" x="8" y="-57" font-family="Helvetica,sans-Serif" font-size="10.00">::Const, N, Cols, Rows, scope</text>
<text text-anchor="middle" x="76" y="-46" font-family="Helvetica,sans-Serif" font-size="10.00">::Global &gt;, LVL &gt; &gt;</text>
<polyline fill="none" stroke="black" points="0,-39 152,-39 "/>
<text text-anchor="middle" x="76" y="-27" font-family="Helvetica,sans-Serif" font-size="10.00"> </text>
<polyline fill="none" stroke="black" points="0,-20 152,-20 "/>
<text text-anchor="middle" x="76" y="-8" font-family="Helvetica,sans-Serif" font-size="10.00"> </text>
</g>
<!-- Node2 -->
<g id="node2" class="node"><title>Node2</title>
<polygon fill="none" stroke="#bfbfbf" points="54.5,-162.5 54.5,-219.5 97.5,-219.5 97.5,-162.5 54.5,-162.5"/>
<text text-anchor="middle" x="76" y="-207.5" font-family="Helvetica,sans-Serif" font-size="10.00">size_t</text>
<polyline fill="none" stroke="#bfbfbf" points="54.5,-200.5 97.5,-200.5 "/>
<text text-anchor="middle" x="76" y="-188.5" font-family="Helvetica,sans-Serif" font-size="10.00"> </text>
<polyline fill="none" stroke="#bfbfbf" points="54.5,-181.5 97.5,-181.5 "/>
<text text-anchor="middle" x="76" y="-169.5" font-family="Helvetica,sans-Serif" font-size="10.00"> </text>
</g>
<!-- Node2&#45;&gt;Node1 -->
<g id="edge1" class="edge"><title>Node2&#45;&gt;Node1</title>
<path fill="none" stroke="#404040" d="M76,-162.328C76,-151.389 76,-138.3 76,-125.15"/>
<polygon fill="none" stroke="#404040" points="76.0001,-125.116 72,-119.116 76,-113.116 80,-119.116 76.0001,-125.116"/>
<text text-anchor="middle" x="94" y="-135.5" font-family="Helvetica,sans-Serif" font-size="10.00"> +Count</text>
</g>
</g>
</svg>
