<?xml version="1.0" encoding="UTF-8" standalone="no"?>
<!DOCTYPE svg PUBLIC "-//W3C//DTD SVG 1.1//EN"
 "http://www.w3.org/Graphics/SVG/1.1/DTD/svg11.dtd">
<!-- Generated by graphviz version 2.43.0 (0)
 -->
<!-- Title: visioncpp::internal::LocalOutput&lt; PointOp, IsRoot, LC, LR, Expr &gt; Pages: 1 -->
<svg width="142pt" height="204pt"
 viewBox="0.00 0.00 142.00 204.00" xmlns="http://www.w3.org/2000/svg" xmlns:xlink="http://www.w3.org/1999/xlink">
<g id="graph0" class="graph" transform="scale(1 1) rotate(0) translate(4 200)">
<title>visioncpp::internal::LocalOutput&lt; PointOp, IsRoot, LC, LR, Expr &gt;</title>
<!-- Node1 -->
<g id="node1" class="node">
<title>Node1</title>
<g id="a_node1"><a xlink:title="LocalOutput:Local output is used for neighbour operation in order to create a local memory for the ou...">
<polygon fill="#bfbfbf" stroke="black" points="0,-0.5 0,-79.5 134,-79.5 134,-0.5 0,-0.5"/>
<text text-anchor="start" x="8" y="-67.5" font-family="Helvetica,sans-Serif" font-size="10.00">visioncpp::internal</text>
<text text-anchor="start" x="8" y="-56.5" font-family="Helvetica,sans-Serif" font-size="10.00">::LocalOutput&lt; PointOp,</text>
<text text-anchor="middle" x="67" y="-45.5" font-family="Helvetica,sans-Serif" font-size="10.00"> IsRoot, LC, LR, Expr &gt;</text>
<polyline fill="none" stroke="black" points="0,-38.5 134,-38.5 "/>
<text text-anchor="middle" x="67" y="-26.5" font-family="Helvetica,sans-Serif" font-size="10.00"> </text>
<polyline fill="none" stroke="black" points="0,-19.5 134,-19.5 "/>
<text text-anchor="start" x="8" y="-7.5" font-family="Helvetica,sans-Serif" font-size="10.00">+ getTuple()</text>
</a>
</g>
</g>
<!-- Node2 -->
<g id="node2" class="node">
<title>Node2</title>
<g id="a_node2"><a xlink:title=" ">
<polygon fill="none" stroke="#bfbfbf" points="44.5,-138.5 44.5,-195.5 89.5,-195.5 89.5,-138.5 44.5,-138.5"/>
<text text-anchor="middle" x="67" y="-183.5" font-family="Helvetica,sans-Serif" font-size="10.00">size_t</text>
<polyline fill="none" stroke="#bfbfbf" points="44.5,-176.5 89.5,-176.5 "/>
<text text-anchor="middle" x="67" y="-164.5" font-family="Helvetica,sans-Serif" font-size="10.00"> </text>
<polyline fill="none" stroke="#bfbfbf" points="44.5,-157.5 89.5,-157.5 "/>
<text text-anchor="middle" x="67" y="-145.5" font-family="Helvetica,sans-Serif" font-size="10.00"> </text>
</a>
</g>
</g>
<!-- Node2&#45;&gt;Node1 -->
<g id="edge1" class="edge">
<title>Node2&#45;&gt;Node1</title>
<path fill="none" stroke="#404040" d="M67,-138.26C67,-124.64 67,-107.79 67,-91.96"/>
<polygon fill="none" stroke="#404040" points="67,-91.57 63,-85.57 67,-79.57 71,-85.57 67,-91.57"/>
<text text-anchor="middle" x="90" y="-112" font-family="Helvetica,sans-Serif" font-size="10.00"> +Out_LC</text>
<text text-anchor="middle" x="90" y="-101" font-family="Helvetica,sans-Serif" font-size="10.00">+Out_LR</text>
</g>
</g>
</svg>
