<?xml version="1.0" encoding="UTF-8" standalone="no"?>
<!DOCTYPE svg PUBLIC "-//W3C//DTD SVG 1.1//EN"
 "http://www.w3.org/Graphics/SVG/1.1/DTD/svg11.dtd">
<!-- Generated by graphviz version 2.43.0 (0)
 -->
<!-- Title: visioncpp::pixel::Storage&lt; LHSScalar, Channels &gt; Pages: 1 -->
<svg width="218pt" height="204pt"
 viewBox="0.00 0.00 217.50 204.00" xmlns="http://www.w3.org/2000/svg" xmlns:xlink="http://www.w3.org/1999/xlink">
<g id="graph0" class="graph" transform="scale(1 1) rotate(0) translate(4 200)">
<title>visioncpp::pixel::Storage&lt; LHSScalar, Channels &gt;</title>
<!-- Node1 -->
<g id="node1" class="node">
<title>Node1</title>
<g id="a_node1"><a xlink:title=" ">
<polygon fill="#bfbfbf" stroke="black" points="20,-0.5 20,-90.5 159,-90.5 159,-0.5 20,-0.5"/>
<text text-anchor="start" x="28" y="-78.5" font-family="Helvetica,sans-Serif" font-size="10.00">visioncpp::pixel::Storage</text>
<text text-anchor="middle" x="89.5" y="-67.5" font-family="Helvetica,sans-Serif" font-size="10.00">&lt; LHSScalar, Channels &gt;</text>
<polyline fill="none" stroke="black" points="20,-60.5 159,-60.5 "/>
<text text-anchor="middle" x="89.5" y="-48.5" font-family="Helvetica,sans-Serif" font-size="10.00"> </text>
<polyline fill="none" stroke="black" points="20,-41.5 159,-41.5 "/>
<text text-anchor="start" x="28" y="-29.5" font-family="Helvetica,sans-Serif" font-size="10.00">+ operator[]()</text>
<text text-anchor="start" x="28" y="-18.5" font-family="Helvetica,sans-Serif" font-size="10.00">+ operator[]()</text>
<text text-anchor="start" x="28" y="-7.5" font-family="Helvetica,sans-Serif" font-size="10.00">+ Storage()</text>
</a>
</g>
</g>
<!-- Node2 -->
<g id="node2" class="node">
<title>Node2</title>
<g id="a_node2"><a xlink:title=" ">
<polygon fill="none" stroke="#bfbfbf" points="0,-138.5 0,-195.5 65,-195.5 65,-138.5 0,-138.5"/>
<text text-anchor="middle" x="32.5" y="-183.5" font-family="Helvetica,sans-Serif" font-size="10.00">LHSScalar</text>
<polyline fill="none" stroke="#bfbfbf" points="0,-176.5 65,-176.5 "/>
<text text-anchor="middle" x="32.5" y="-164.5" font-family="Helvetica,sans-Serif" font-size="10.00"> </text>
<polyline fill="none" stroke="#bfbfbf" points="0,-157.5 65,-157.5 "/>
<text text-anchor="middle" x="32.5" y="-145.5" font-family="Helvetica,sans-Serif" font-size="10.00"> </text>
</a>
</g>
</g>
<!-- Node2&#45;&gt;Node1 -->
<g id="edge1" class="edge">
<title>Node2&#45;&gt;Node1</title>
<path fill="none" stroke="#404040" d="M45.72,-138.28C50.91,-127.41 57.06,-114.51 63.08,-101.89"/>
<polygon fill="none" stroke="#404040" points="63.15,-101.74 62.12,-94.61 68.32,-90.91 69.34,-98.05 63.15,-101.74"/>
<text text-anchor="middle" x="84" y="-112" font-family="Helvetica,sans-Serif" font-size="10.00"> +m_data</text>
</g>
<!-- Node3 -->
<g id="node3" class="node">
<title>Node3</title>
<g id="a_node3"><a xlink:title=" ">
<polygon fill="none" stroke="#bfbfbf" points="83.5,-138.5 83.5,-195.5 209.5,-195.5 209.5,-138.5 83.5,-138.5"/>
<text text-anchor="middle" x="146.5" y="-183.5" font-family="Helvetica,sans-Serif" font-size="10.00">constexpr static size_t</text>
<polyline fill="none" stroke="#bfbfbf" points="83.5,-176.5 209.5,-176.5 "/>
<text text-anchor="middle" x="146.5" y="-164.5" font-family="Helvetica,sans-Serif" font-size="10.00"> </text>
<polyline fill="none" stroke="#bfbfbf" points="83.5,-157.5 209.5,-157.5 "/>
<text text-anchor="middle" x="146.5" y="-145.5" font-family="Helvetica,sans-Serif" font-size="10.00"> </text>
</a>
</g>
</g>
<!-- Node3&#45;&gt;Node1 -->
<g id="edge2" class="edge">
<title>Node3&#45;&gt;Node1</title>
<path fill="none" stroke="#404040" d="M133.28,-138.28C128.09,-127.41 121.94,-114.51 115.92,-101.89"/>
<polygon fill="none" stroke="#404040" points="115.85,-101.74 109.66,-98.05 110.68,-90.91 116.88,-94.61 115.85,-101.74"/>
<text text-anchor="middle" x="151.5" y="-112" font-family="Helvetica,sans-Serif" font-size="10.00"> +elements</text>
</g>
</g>
</svg>
