<?xml version="1.0" encoding="UTF-8" standalone="no"?>
<!DOCTYPE svg PUBLIC "-//W3C//DTD SVG 1.1//EN"
 "http://www.w3.org/Graphics/SVG/1.1/DTD/svg11.dtd">
<!-- Generated by graphviz version 2.43.0 (0)
 -->
<!-- Title: visioncpp::internal::LocalOutput&lt; false, IsRoot, LC, LR, StnFilt&lt; OP, Halo_T, Halo_L, Halo_B, Halo_R, LHSExpr, RHSExpr, Cols, Rows, LeafType, LVL &gt; &gt;::getTuple Pages: 1 -->
<svg width="688pt" height="94pt"
 viewBox="0.00 0.00 688.00 94.00" xmlns="http://www.w3.org/2000/svg" xmlns:xlink="http://www.w3.org/1999/xlink">
<g id="graph0" class="graph" transform="scale(1 1) rotate(0) translate(4 90)">
<title>visioncpp::internal::LocalOutput&lt; false, IsRoot, LC, LR, StnFilt&lt; OP, Halo_T, Halo_L, Halo_B, Halo_R, LHSExpr, RHSExpr, Cols, Rows, LeafType, LVL &gt; &gt;::getTuple</title>
<!-- Node1 -->
<g id="node1" class="node">
<title>Node1</title>
<g id="a_node1"><a xlink:title=" ">
<polygon fill="#bfbfbf" stroke="black" points="0,-0.5 0,-85.5 167,-85.5 167,-0.5 0,-0.5"/>
<text text-anchor="start" x="8" y="-73.5" font-family="Helvetica,sans-Serif" font-size="10.00">visioncpp::internal</text>
<text text-anchor="start" x="8" y="-62.5" font-family="Helvetica,sans-Serif" font-size="10.00">::LocalOutput&lt; false,</text>
<text text-anchor="start" x="8" y="-51.5" font-family="Helvetica,sans-Serif" font-size="10.00"> IsRoot, LC, LR, StnFilt</text>
<text text-anchor="start" x="8" y="-40.5" font-family="Helvetica,sans-Serif" font-size="10.00">&lt; OP, Halo_T, Halo_L, Halo</text>
<text text-anchor="start" x="8" y="-29.5" font-family="Helvetica,sans-Serif" font-size="10.00">_B, Halo_R, LHSExpr, RHSExpr,</text>
<text text-anchor="start" x="8" y="-18.5" font-family="Helvetica,sans-Serif" font-size="10.00"> Cols, Rows, LeafType, LVL &gt;</text>
<text text-anchor="middle" x="83.5" y="-7.5" font-family="Helvetica,sans-Serif" font-size="10.00"> &gt;::getTuple</text>
</a>
</g>
</g>
<!-- Node2 -->
<g id="node2" class="node">
<title>Node2</title>
<g id="a_node2"><a xlink:href="namespacevisioncpp_1_1internal_1_1tools_1_1tuple.html#a8c1631050539cb92a3ac408ab976fb96" target="_top" xlink:title="append">
<polygon fill="none" stroke="black" points="203,-51 203,-81 322,-81 322,-51 203,-51"/>
<text text-anchor="start" x="211" y="-69" font-family="Helvetica,sans-Serif" font-size="10.00">visioncpp::internal</text>
<text text-anchor="middle" x="262.5" y="-58" font-family="Helvetica,sans-Serif" font-size="10.00">::tools::tuple::append</text>
</a>
</g>
</g>
<!-- Node1&#45;&gt;Node2 -->
<g id="edge1" class="edge">
<title>Node1&#45;&gt;Node2</title>
<path fill="none" stroke="midnightblue" d="M167.04,-53.73C175.63,-54.84 184.29,-55.97 192.7,-57.06"/>
<polygon fill="midnightblue" stroke="midnightblue" points="192.44,-60.56 202.81,-58.37 193.35,-53.61 192.44,-60.56"/>
</g>
<!-- Node5 -->
<g id="node5" class="node">
<title>Node5</title>
<g id="a_node5"><a xlink:href="structvisioncpp_1_1internal_1_1LocalOutput.html#abc63292a957140f2a601692f3c2983c4" target="_top" xlink:title="getTuple function is used to create and wrap local memory into a tuple">
<polygon fill="none" stroke="black" points="367,-4 367,-34 495,-34 495,-4 367,-4"/>
<text text-anchor="start" x="375" y="-22" font-family="Helvetica,sans-Serif" font-size="10.00">visioncpp::internal</text>
<text text-anchor="middle" x="431" y="-11" font-family="Helvetica,sans-Serif" font-size="10.00">::LocalOutput::getTuple</text>
</a>
</g>
</g>
<!-- Node1&#45;&gt;Node5 -->
<g id="edge4" class="edge">
<title>Node1&#45;&gt;Node5</title>
<path fill="none" stroke="midnightblue" d="M167.26,-37.25C224.95,-33.24 301.23,-27.94 356.73,-24.09"/>
<polygon fill="midnightblue" stroke="midnightblue" points="357.11,-27.57 366.84,-23.39 356.62,-20.59 357.11,-27.57"/>
</g>
<!-- Node3 -->
<g id="node3" class="node">
<title>Node3</title>
<g id="a_node3"><a xlink:href="namespacevisioncpp_1_1internal_1_1tools_1_1tuple.html#a250b510103551795245a4f26c6472dc5" target="_top" xlink:title="append_impl">
<polygon fill="none" stroke="black" points="358,-53 358,-83 504,-83 504,-53 358,-53"/>
<text text-anchor="start" x="366" y="-71" font-family="Helvetica,sans-Serif" font-size="10.00">visioncpp::internal</text>
<text text-anchor="middle" x="431" y="-60" font-family="Helvetica,sans-Serif" font-size="10.00">::tools::tuple::append_impl</text>
</a>
</g>
</g>
<!-- Node2&#45;&gt;Node3 -->
<g id="edge2" class="edge">
<title>Node2&#45;&gt;Node3</title>
<path fill="none" stroke="midnightblue" d="M322.2,-66.71C330.48,-66.8 339.11,-66.91 347.73,-67.01"/>
<polygon fill="midnightblue" stroke="midnightblue" points="347.78,-70.51 357.82,-67.13 347.86,-63.51 347.78,-70.51"/>
</g>
<!-- Node4 -->
<g id="node4" class="node">
<title>Node4</title>
<g id="a_node4"><a xlink:href="namespacevisioncpp_1_1internal_1_1tools_1_1tuple.html#ab2c7fe8e219c5f9e016a8ea40356005f" target="_top" xlink:title="make_tuple">
<polygon fill="none" stroke="black" points="540,-28 540,-58 680,-58 680,-28 540,-28"/>
<text text-anchor="start" x="548" y="-46" font-family="Helvetica,sans-Serif" font-size="10.00">visioncpp::internal</text>
<text text-anchor="middle" x="610" y="-35" font-family="Helvetica,sans-Serif" font-size="10.00">::tools::tuple::make_tuple</text>
</a>
</g>
</g>
<!-- Node3&#45;&gt;Node4 -->
<g id="edge3" class="edge">
<title>Node3&#45;&gt;Node4</title>
<path fill="none" stroke="midnightblue" d="M504.25,-57.8C512.7,-56.6 521.35,-55.38 529.89,-54.17"/>
<polygon fill="midnightblue" stroke="midnightblue" points="530.43,-57.63 539.84,-52.77 529.45,-50.7 530.43,-57.63"/>
</g>
<!-- Node5&#45;&gt;Node4 -->
<g id="edge5" class="edge">
<title>Node5&#45;&gt;Node4</title>
<path fill="none" stroke="midnightblue" d="M495.4,-27.6C506.53,-29.11 518.23,-30.69 529.72,-32.25"/>
<polygon fill="midnightblue" stroke="midnightblue" points="529.36,-35.73 539.74,-33.61 530.31,-28.8 529.36,-35.73"/>
</g>
</g>
</svg>
