<?xml version="1.0" encoding="UTF-8" standalone="no"?>
<!DOCTYPE svg PUBLIC "-//W3C//DTD SVG 1.1//EN"
 "http://www.w3.org/Graphics/SVG/1.1/DTD/svg11.dtd">
<!-- Generated by graphviz version 2.43.0 (0)
 -->
<!-- Title: visioncpp::internal::PyramidAutomemGen&lt; Fltr2DOP, DownSmplOP, RHS, Fltr2D, Cols, Rows, LfType, LVL, Dp &gt; Pages: 1 -->
<svg width="555pt" height="529pt"
 viewBox="0.00 0.00 554.50 529.00" xmlns="http://www.w3.org/2000/svg" xmlns:xlink="http://www.w3.org/1999/xlink">
<g id="graph0" class="graph" transform="scale(1 1) rotate(0) translate(4 525)">
<title>visioncpp::internal::PyramidAutomemGen&lt; Fltr2DOP, DownSmplOP, RHS, Fltr2D, Cols, Rows, LfType, LVL, Dp &gt;</title>
<!-- Node1 -->
<g id="node1" class="node">
<title>Node1</title>
<g id="a_node1"><a xlink:title="PyramidDownGen is used to construct a pyramid node in the expression tree with general Filter2D and g...">
<polygon fill="#bfbfbf" stroke="black" points="164.5,-0.5 164.5,-134.5 332.5,-134.5 332.5,-0.5 164.5,-0.5"/>
<text text-anchor="start" x="172.5" y="-122.5" font-family="Helvetica,sans-Serif" font-size="10.00">visioncpp::internal</text>
<text text-anchor="start" x="172.5" y="-111.5" font-family="Helvetica,sans-Serif" font-size="10.00">::PyramidAutomemGen</text>
<text text-anchor="start" x="172.5" y="-100.5" font-family="Helvetica,sans-Serif" font-size="10.00">&lt; Fltr2DOP, DownSmplOP,</text>
<text text-anchor="start" x="172.5" y="-89.5" font-family="Helvetica,sans-Serif" font-size="10.00"> RHS, Fltr2D, Cols, Rows,</text>
<text text-anchor="middle" x="248.5" y="-78.5" font-family="Helvetica,sans-Serif" font-size="10.00"> LfType, LVL, Dp &gt;</text>
<polyline fill="none" stroke="black" points="164.5,-71.5 332.5,-71.5 "/>
<text text-anchor="middle" x="248.5" y="-59.5" font-family="Helvetica,sans-Serif" font-size="10.00"> </text>
<polyline fill="none" stroke="black" points="164.5,-52.5 332.5,-52.5 "/>
<text text-anchor="start" x="172.5" y="-40.5" font-family="Helvetica,sans-Serif" font-size="10.00">+ PyramidAutomemGen()</text>
<text text-anchor="start" x="172.5" y="-29.5" font-family="Helvetica,sans-Serif" font-size="10.00">+ reset()</text>
<text text-anchor="start" x="172.5" y="-18.5" font-family="Helvetica,sans-Serif" font-size="10.00">+ get()</text>
<text text-anchor="start" x="172.5" y="-7.5" font-family="Helvetica,sans-Serif" font-size="10.00">+ sub_expression_evaluation()</text>
</a>
</g>
</g>
<!-- Node2 -->
<g id="node2" class="node">
<title>Node2</title>
<g id="a_node2"><a xlink:title=" ">
<polygon fill="none" stroke="#bfbfbf" points="0,-276 0,-333 47,-333 47,-276 0,-276"/>
<text text-anchor="middle" x="23.5" y="-321" font-family="Helvetica,sans-Serif" font-size="10.00">Fltr2D</text>
<polyline fill="none" stroke="#bfbfbf" points="0,-314 47,-314 "/>
<text text-anchor="middle" x="23.5" y="-302" font-family="Helvetica,sans-Serif" font-size="10.00"> </text>
<polyline fill="none" stroke="#bfbfbf" points="0,-295 47,-295 "/>
<text text-anchor="middle" x="23.5" y="-283" font-family="Helvetica,sans-Serif" font-size="10.00"> </text>
</a>
</g>
</g>
<!-- Node2&#45;&gt;Node1 -->
<g id="edge1" class="edge">
<title>Node2&#45;&gt;Node1</title>
<path fill="none" stroke="#404040" d="M37.96,-275.99C55.68,-243.99 88.01,-190.73 125.5,-153 134.45,-144 144.48,-135.34 154.85,-127.23"/>
<polygon fill="none" stroke="#404040" points="154.88,-127.21 157.24,-120.39 164.44,-119.95 162.08,-126.76 154.88,-127.21"/>
<text text-anchor="middle" x="145" y="-194.5" font-family="Helvetica,sans-Serif" font-size="10.00"> +fltr2D</text>
</g>
<!-- Node3 -->
<g id="node3" class="node">
<title>Node3</title>
<g id="a_node3"><a xlink:href="structvisioncpp_1_1internal_1_1CreatePyramidTupleType.html" target="_top" xlink:title=" ">
<polygon fill="none" stroke="black" points="64.5,-259.5 64.5,-349.5 232.5,-349.5 232.5,-259.5 64.5,-259.5"/>
<text text-anchor="start" x="72.5" y="-337.5" font-family="Helvetica,sans-Serif" font-size="10.00">visioncpp::internal</text>
<text text-anchor="start" x="72.5" y="-326.5" font-family="Helvetica,sans-Serif" font-size="10.00">::CreatePyramidTupleType</text>
<text text-anchor="start" x="72.5" y="-315.5" font-family="Helvetica,sans-Serif" font-size="10.00">&lt; false, Cols/2, Rows/2,</text>
<text text-anchor="middle" x="148.5" y="-304.5" font-family="Helvetica,sans-Serif" font-size="10.00"> LeafType, Depth, 0, LHSExpr &gt;</text>
<polyline fill="none" stroke="black" points="64.5,-297.5 232.5,-297.5 "/>
<text text-anchor="middle" x="148.5" y="-285.5" font-family="Helvetica,sans-Serif" font-size="10.00"> </text>
<polyline fill="none" stroke="black" points="64.5,-278.5 232.5,-278.5 "/>
<text text-anchor="middle" x="148.5" y="-266.5" font-family="Helvetica,sans-Serif" font-size="10.00"> </text>
</a>
</g>
</g>
<!-- Node3&#45;&gt;Node1 -->
<g id="edge2" class="edge">
<title>Node3&#45;&gt;Node1</title>
<path fill="none" stroke="#404040" d="M161.9,-259.27C171.63,-228.87 185.8,-187.86 201.5,-153 202.59,-150.57 203.73,-148.13 204.9,-145.67"/>
<polygon fill="none" stroke="#404040" points="204.93,-145.61 203.99,-138.46 210.23,-134.85 211.17,-142 204.93,-145.61"/>
<text text-anchor="middle" x="220" y="-194.5" font-family="Helvetica,sans-Serif" font-size="10.00"> +mem</text>
</g>
<!-- Node4 -->
<g id="node4" class="node">
<title>Node4</title>
<g id="a_node4"><a xlink:href="structvisioncpp_1_1internal_1_1CreatePyramidTupleType.html" target="_top" xlink:title="CreatePyramidTupleType: This file is used to create each output element type for each downsampling ou...">
<polygon fill="none" stroke="black" points="61.5,-419.5 61.5,-520.5 235.5,-520.5 235.5,-419.5 61.5,-419.5"/>
<text text-anchor="start" x="69.5" y="-508.5" font-family="Helvetica,sans-Serif" font-size="10.00">visioncpp::internal</text>
<text text-anchor="start" x="69.5" y="-497.5" font-family="Helvetica,sans-Serif" font-size="10.00">::CreatePyramidTupleType</text>
<text text-anchor="start" x="69.5" y="-486.5" font-family="Helvetica,sans-Serif" font-size="10.00">&lt; SatisfyingConds, Cols,</text>
<text text-anchor="start" x="69.5" y="-475.5" font-family="Helvetica,sans-Serif" font-size="10.00"> Rows, LeafType, Depth,</text>
<text text-anchor="middle" x="148.5" y="-464.5" font-family="Helvetica,sans-Serif" font-size="10.00"> CurrentDepth, LHS, ChildType &gt;</text>
<polyline fill="none" stroke="black" points="61.5,-457.5 235.5,-457.5 "/>
<text text-anchor="middle" x="148.5" y="-445.5" font-family="Helvetica,sans-Serif" font-size="10.00"> </text>
<polyline fill="none" stroke="black" points="61.5,-438.5 235.5,-438.5 "/>
<text text-anchor="middle" x="148.5" y="-426.5" font-family="Helvetica,sans-Serif" font-size="10.00"> </text>
</a>
</g>
</g>
<!-- Node4&#45;&gt;Node3 -->
<g id="edge3" class="edge">
<title>Node4&#45;&gt;Node3</title>
<path fill="none" stroke="orange" d="M148.5,-408.97C148.5,-389.31 148.5,-367.85 148.5,-349.6"/>
<polygon fill="orange" stroke="orange" points="145,-409.06 148.5,-419.06 152,-409.06 145,-409.06"/>
<text text-anchor="start" x="148.5" y="-393" font-family="Helvetica,sans-Serif" font-size="10.00"> &lt; false, Cols/2, Rows</text>
<text text-anchor="start" x="148.5" y="-382" font-family="Helvetica,sans-Serif" font-size="10.00">/2, LeafType, Depth,</text>
<text text-anchor="middle" x="202" y="-371" font-family="Helvetica,sans-Serif" font-size="10.00"> 0, LHSExpr &gt;</text>
</g>
<!-- Node5 -->
<g id="node5" class="node">
<title>Node5</title>
<g id="a_node5"><a xlink:title=" ">
<polygon fill="none" stroke="#bfbfbf" points="250,-276 250,-333 295,-333 295,-276 250,-276"/>
<text text-anchor="middle" x="272.5" y="-321" font-family="Helvetica,sans-Serif" font-size="10.00">size_t</text>
<polyline fill="none" stroke="#bfbfbf" points="250,-314 295,-314 "/>
<text text-anchor="middle" x="272.5" y="-302" font-family="Helvetica,sans-Serif" font-size="10.00"> </text>
<polyline fill="none" stroke="#bfbfbf" points="250,-295 295,-295 "/>
<text text-anchor="middle" x="272.5" y="-283" font-family="Helvetica,sans-Serif" font-size="10.00"> </text>
</a>
</g>
</g>
<!-- Node5&#45;&gt;Node1 -->
<g id="edge4" class="edge">
<title>Node5&#45;&gt;Node1</title>
<path fill="none" stroke="#404040" d="M259.95,-275.77C255.76,-265.12 251.62,-252.72 249.5,-241 243.96,-210.44 242.75,-176.33 243.26,-146.56"/>
<polygon fill="none" stroke="#404040" points="243.26,-146.52 239.42,-140.42 243.57,-134.52 247.41,-140.62 243.26,-146.52"/>
<text text-anchor="middle" x="291.5" y="-233" font-family="Helvetica,sans-Serif" font-size="10.00"> +CThread</text>
<text text-anchor="middle" x="291.5" y="-222" font-family="Helvetica,sans-Serif" font-size="10.00">+Depth</text>
<text text-anchor="middle" x="291.5" y="-211" font-family="Helvetica,sans-Serif" font-size="10.00">+LeafType</text>
<text text-anchor="middle" x="291.5" y="-200" font-family="Helvetica,sans-Serif" font-size="10.00">+Level</text>
<text text-anchor="middle" x="291.5" y="-189" font-family="Helvetica,sans-Serif" font-size="10.00">+ND_Category</text>
<text text-anchor="middle" x="291.5" y="-178" font-family="Helvetica,sans-Serif" font-size="10.00">+Operation_type</text>
<text text-anchor="middle" x="291.5" y="-167" font-family="Helvetica,sans-Serif" font-size="10.00">+RThread</text>
<text text-anchor="middle" x="291.5" y="-156" font-family="Helvetica,sans-Serif" font-size="10.00">+node_reseter</text>
</g>
<!-- Node6 -->
<g id="node6" class="node">
<title>Node6</title>
<g id="a_node6"><a xlink:title=" ">
<polygon fill="none" stroke="#bfbfbf" points="337,-276 337,-333 374,-333 374,-276 337,-276"/>
<text text-anchor="middle" x="355.5" y="-321" font-family="Helvetica,sans-Serif" font-size="10.00">RHS</text>
<polyline fill="none" stroke="#bfbfbf" points="337,-314 374,-314 "/>
<text text-anchor="middle" x="355.5" y="-302" font-family="Helvetica,sans-Serif" font-size="10.00"> </text>
<polyline fill="none" stroke="#bfbfbf" points="337,-295 374,-295 "/>
<text text-anchor="middle" x="355.5" y="-283" font-family="Helvetica,sans-Serif" font-size="10.00"> </text>
</a>
</g>
</g>
<!-- Node6&#45;&gt;Node1 -->
<g id="edge5" class="edge">
<title>Node6&#45;&gt;Node1</title>
<path fill="none" stroke="#404040" d="M356.57,-275.86C356.66,-244.43 353.34,-192.38 333.5,-153 332.11,-150.24 330.59,-147.51 328.97,-144.82"/>
<polygon fill="none" stroke="#404040" points="328.86,-144.66 322.21,-141.88 322.22,-134.67 328.87,-137.45 328.86,-144.66"/>
<text text-anchor="middle" x="368" y="-194.5" font-family="Helvetica,sans-Serif" font-size="10.00"> +rhs</text>
</g>
<!-- Node7 -->
<g id="node7" class="node">
<title>Node7</title>
<g id="a_node7"><a xlink:title=" ">
<polygon fill="none" stroke="#bfbfbf" points="392.5,-276 392.5,-333 430.5,-333 430.5,-276 392.5,-276"/>
<text text-anchor="middle" x="411.5" y="-321" font-family="Helvetica,sans-Serif" font-size="10.00">bool</text>
<polyline fill="none" stroke="#bfbfbf" points="392.5,-314 430.5,-314 "/>
<text text-anchor="middle" x="411.5" y="-302" font-family="Helvetica,sans-Serif" font-size="10.00"> </text>
<polyline fill="none" stroke="#bfbfbf" points="392.5,-295 430.5,-295 "/>
<text text-anchor="middle" x="411.5" y="-283" font-family="Helvetica,sans-Serif" font-size="10.00"> </text>
</a>
</g>
</g>
<!-- Node7&#45;&gt;Node1 -->
<g id="edge6" class="edge">
<title>Node7&#45;&gt;Node1</title>
<path fill="none" stroke="#404040" d="M413.24,-275.74C413.87,-243.5 410.53,-190.01 385.5,-153 374.55,-136.8 359.34,-123.14 343.03,-111.85"/>
<polygon fill="none" stroke="#404040" points="342.8,-111.7 335.59,-111.76 332.77,-105.12 339.98,-105.06 342.8,-111.7"/>
<text text-anchor="start" x="411.5" y="-222" font-family="Helvetica,sans-Serif" font-size="10.00"> +SubExpressionEvaluation</text>
<text text-anchor="middle" x="479" y="-211" font-family="Helvetica,sans-Serif" font-size="10.00">Needed</text>
<text text-anchor="middle" x="479" y="-200" font-family="Helvetica,sans-Serif" font-size="10.00">+first_time</text>
<text text-anchor="middle" x="479" y="-189" font-family="Helvetica,sans-Serif" font-size="10.00">+has_out</text>
<text text-anchor="start" x="411.5" y="-178" font-family="Helvetica,sans-Serif" font-size="10.00">+subexpr_execution</text>
<text text-anchor="middle" x="479" y="-167" font-family="Helvetica,sans-Serif" font-size="10.00">_reseter</text>
</g>
</g>
</svg>
