<?xml version="1.0" encoding="UTF-8" standalone="no"?>
<!DOCTYPE svg PUBLIC "-//W3C//DTD SVG 1.1//EN"
 "http://www.w3.org/Graphics/SVG/1.1/DTD/svg11.dtd">
<!-- Generated by graphviz version 2.36.0 (20140111.2315)
 -->
<!-- Title: visioncpp::internal::EvalExpr&lt; RUnOP&lt; UN_OP, Nested, Cols, Rows, LfType, LVL &gt;, Loc, Params...&gt;::eval_neighbour Pages: 1 -->
<svg width="432pt" height="92pt"
 viewBox="0.00 0.00 432.00 92.00" xmlns="http://www.w3.org/2000/svg" xmlns:xlink="http://www.w3.org/1999/xlink">
<g id="graph0" class="graph" transform="scale(1 1) rotate(0) translate(4 88)">
<title>visioncpp::internal::EvalExpr&lt; RUnOP&lt; UN_OP, Nested, Cols, Rows, LfType, LVL &gt;, Loc, Params...&gt;::eval_neighbour</title>
<!-- Node1 -->
<g id="node1" class="node"><title>Node1</title>
<polygon fill="#bfbfbf" stroke="black" points="0,-12.5 0,-75.5 158,-75.5 158,-12.5 0,-12.5"/>
<text text-anchor="start" x="8" y="-63.5" font-family="Helvetica,sans-Serif" font-size="10.00">visioncpp::internal</text>
<text text-anchor="start" x="8" y="-52.5" font-family="Helvetica,sans-Serif" font-size="10.00">::EvalExpr&lt; RUnOP&lt; UN</text>
<text text-anchor="start" x="8" y="-41.5" font-family="Helvetica,sans-Serif" font-size="10.00">_OP, Nested, Cols, Rows,</text>
<text text-anchor="start" x="8" y="-30.5" font-family="Helvetica,sans-Serif" font-size="10.00"> LfType, LVL &gt;, Loc, Params...&gt;</text>
<text text-anchor="middle" x="79" y="-19.5" font-family="Helvetica,sans-Serif" font-size="10.00">::eval_neighbour</text>
</g>
<!-- Node2 -->
<g id="node2" class="node"><title>Node2</title>
<g id="a_node2"><a xlink:href="namespacevisioncpp_1_1internal.html#a432878bd5a7c47c218a371ecf9eefe6a" target="_top" xlink:title="function calculate_index ">
<polygon fill="none" stroke="black" points="194.5,-54 194.5,-84 289.5,-84 289.5,-54 194.5,-54"/>
<text text-anchor="start" x="202.5" y="-72" font-family="Helvetica,sans-Serif" font-size="10.00">visioncpp::internal</text>
<text text-anchor="middle" x="242" y="-61" font-family="Helvetica,sans-Serif" font-size="10.00">::calculate_index</text>
</a>
</g>
</g>
<!-- Node1&#45;&gt;Node2 -->
<g id="edge1" class="edge"><title>Node1&#45;&gt;Node2</title>
<path fill="none" stroke="midnightblue" d="M158.142,-56.1338C166.914,-57.4959 175.723,-58.8638 184.152,-60.1727"/>
<polygon fill="midnightblue" stroke="midnightblue" points="183.799,-63.6597 194.218,-61.7356 184.873,-56.7426 183.799,-63.6597"/>
</g>
<!-- Node3 -->
<g id="node3" class="node"><title>Node3</title>
<g id="a_node3"><a xlink:href="namespacevisioncpp_1_1internal_1_1tools.html#ad0890ca41e9275137b7a578b24136dbe" target="_top" xlink:title="function convert ">
<polygon fill="none" stroke="black" points="194.5,-5 194.5,-35 289.5,-35 289.5,-5 194.5,-5"/>
<text text-anchor="start" x="202.5" y="-23" font-family="Helvetica,sans-Serif" font-size="10.00">visioncpp::internal</text>
<text text-anchor="middle" x="242" y="-12" font-family="Helvetica,sans-Serif" font-size="10.00">::tools::convert</text>
</a>
</g>
</g>
<!-- Node1&#45;&gt;Node3 -->
<g id="edge2" class="edge"><title>Node1&#45;&gt;Node3</title>
<path fill="none" stroke="midnightblue" d="M158.142,-32.3515C166.914,-31.0439 175.723,-29.7308 184.152,-28.4742"/>
<polygon fill="midnightblue" stroke="midnightblue" points="184.843,-31.91 194.218,-26.9738 183.811,-24.9865 184.843,-31.91"/>
</g>
<!-- Node4 -->
<g id="node4" class="node"><title>Node4</title>
<g id="a_node4"><a xlink:href="structvisioncpp_1_1internal_1_1tools_1_1Convertor.html#a50519510c30e56ead8657c8a06d8c9d4" target="_top" xlink:title="function convert ">
<polygon fill="none" stroke="black" points="326,0.5 326,-40.5 424,-40.5 424,0.5 326,0.5"/>
<text text-anchor="start" x="334" y="-28.5" font-family="Helvetica,sans-Serif" font-size="10.00">visioncpp::internal</text>
<text text-anchor="start" x="334" y="-17.5" font-family="Helvetica,sans-Serif" font-size="10.00">::tools::Convertor::</text>
<text text-anchor="middle" x="375" y="-6.5" font-family="Helvetica,sans-Serif" font-size="10.00">convert</text>
</a>
</g>
</g>
<!-- Node3&#45;&gt;Node4 -->
<g id="edge3" class="edge"><title>Node3&#45;&gt;Node4</title>
<path fill="none" stroke="midnightblue" d="M289.555,-20C298.012,-20 306.93,-20 315.676,-20"/>
<polygon fill="midnightblue" stroke="midnightblue" points="315.825,-23.5001 325.825,-20 315.825,-16.5001 315.825,-23.5001"/>
</g>
</g>
</svg>
