<?xml version="1.0" encoding="UTF-8" standalone="no"?>
<!DOCTYPE svg PUBLIC "-//W3C//DTD SVG 1.1//EN"
 "http://www.w3.org/Graphics/SVG/1.1/DTD/svg11.dtd">
<!-- Generated by graphviz version 2.43.0 (0)
 -->
<!-- Title: visioncpp::internal::StnNoFilt&lt; FilterOP, Halo_T, Halo_L, Halo_B, Halo_R, RHS, Cols, Rows, LfType, LVL &gt; Pages: 1 -->
<svg width="528pt" height="347pt"
 viewBox="0.00 0.00 528.00 347.00" xmlns="http://www.w3.org/2000/svg" xmlns:xlink="http://www.w3.org/1999/xlink">
<g id="graph0" class="graph" transform="scale(1 1) rotate(0) translate(4 343)">
<title>visioncpp::internal::StnNoFilt&lt; FilterOP, Halo_T, Halo_L, Halo_B, Halo_R, RHS, Cols, Rows, LfType, LVL &gt;</title>
<!-- Node1 -->
<g id="node1" class="node">
<title>Node1</title>
<g id="a_node1"><a xlink:title="The definition is in StnNoFilt file.">
<polygon fill="#bfbfbf" stroke="black" points="197,-0.5 197,-123.5 365,-123.5 365,-0.5 197,-0.5"/>
<text text-anchor="start" x="205" y="-111.5" font-family="Helvetica,sans-Serif" font-size="10.00">visioncpp::internal</text>
<text text-anchor="start" x="205" y="-100.5" font-family="Helvetica,sans-Serif" font-size="10.00">::StnNoFilt&lt; FilterOP,</text>
<text text-anchor="start" x="205" y="-89.5" font-family="Helvetica,sans-Serif" font-size="10.00"> Halo_T, Halo_L, Halo</text>
<text text-anchor="start" x="205" y="-78.5" font-family="Helvetica,sans-Serif" font-size="10.00">_B, Halo_R, RHS, Cols,</text>
<text text-anchor="middle" x="281" y="-67.5" font-family="Helvetica,sans-Serif" font-size="10.00"> Rows, LfType, LVL &gt;</text>
<polyline fill="none" stroke="black" points="197,-60.5 365,-60.5 "/>
<text text-anchor="middle" x="281" y="-48.5" font-family="Helvetica,sans-Serif" font-size="10.00"> </text>
<polyline fill="none" stroke="black" points="197,-41.5 365,-41.5 "/>
<text text-anchor="start" x="205" y="-29.5" font-family="Helvetica,sans-Serif" font-size="10.00">+ StnNoFilt()</text>
<text text-anchor="start" x="205" y="-18.5" font-family="Helvetica,sans-Serif" font-size="10.00">+ reset()</text>
<text text-anchor="start" x="205" y="-7.5" font-family="Helvetica,sans-Serif" font-size="10.00">+ sub_expression_evaluation()</text>
</a>
</g>
</g>
<!-- Node2 -->
<g id="node2" class="node">
<title>Node2</title>
<g id="a_node2"><a xlink:title=" ">
<polygon fill="none" stroke="#bfbfbf" points="0,-281.5 0,-338.5 126,-338.5 126,-281.5 0,-281.5"/>
<text text-anchor="middle" x="63" y="-326.5" font-family="Helvetica,sans-Serif" font-size="10.00">static constexpr size_t</text>
<polyline fill="none" stroke="#bfbfbf" points="0,-319.5 126,-319.5 "/>
<text text-anchor="middle" x="63" y="-307.5" font-family="Helvetica,sans-Serif" font-size="10.00"> </text>
<polyline fill="none" stroke="#bfbfbf" points="0,-300.5 126,-300.5 "/>
<text text-anchor="middle" x="63" y="-288.5" font-family="Helvetica,sans-Serif" font-size="10.00"> </text>
</a>
</g>
</g>
<!-- Node2&#45;&gt;Node1 -->
<g id="edge1" class="edge">
<title>Node2&#45;&gt;Node1</title>
<path fill="none" stroke="#404040" d="M62.66,-281.47C63.65,-245.41 70.51,-182.1 104,-142 124.95,-116.92 155.46,-99.5 185.28,-87.54"/>
<polygon fill="none" stroke="#404040" points="185.44,-87.48 189.62,-81.61 196.65,-83.22 192.47,-89.09 185.44,-87.48"/>
<text text-anchor="middle" x="146" y="-255" font-family="Helvetica,sans-Serif" font-size="10.00"> +Halo_Right</text>
<text text-anchor="middle" x="146" y="-244" font-family="Helvetica,sans-Serif" font-size="10.00">+Halo_Top</text>
<text text-anchor="middle" x="146" y="-233" font-family="Helvetica,sans-Serif" font-size="10.00">+Operation_type</text>
<text text-anchor="middle" x="146" y="-222" font-family="Helvetica,sans-Serif" font-size="10.00">+Level</text>
<text text-anchor="middle" x="146" y="-211" font-family="Helvetica,sans-Serif" font-size="10.00">+LeafType</text>
<text text-anchor="middle" x="146" y="-200" font-family="Helvetica,sans-Serif" font-size="10.00">+Halo_Left</text>
<text text-anchor="middle" x="146" y="-189" font-family="Helvetica,sans-Serif" font-size="10.00">+RThread</text>
<text text-anchor="middle" x="146" y="-178" font-family="Helvetica,sans-Serif" font-size="10.00">+CThread</text>
<text text-anchor="middle" x="146" y="-167" font-family="Helvetica,sans-Serif" font-size="10.00">+Halo_Butt</text>
<text text-anchor="middle" x="146" y="-156" font-family="Helvetica,sans-Serif" font-size="10.00">+ND_Category</text>
<text text-anchor="middle" x="146" y="-145" font-family="Helvetica,sans-Serif" font-size="10.00">...</text>
</g>
<!-- Node3 -->
<g id="node3" class="node">
<title>Node3</title>
<g id="a_node3"><a xlink:title=" ">
<polygon fill="none" stroke="#bfbfbf" points="144.5,-281.5 144.5,-338.5 263.5,-338.5 263.5,-281.5 144.5,-281.5"/>
<text text-anchor="middle" x="204" y="-326.5" font-family="Helvetica,sans-Serif" font-size="10.00">static constexpr bool</text>
<polyline fill="none" stroke="#bfbfbf" points="144.5,-319.5 263.5,-319.5 "/>
<text text-anchor="middle" x="204" y="-307.5" font-family="Helvetica,sans-Serif" font-size="10.00"> </text>
<polyline fill="none" stroke="#bfbfbf" points="144.5,-300.5 263.5,-300.5 "/>
<text text-anchor="middle" x="204" y="-288.5" font-family="Helvetica,sans-Serif" font-size="10.00"> </text>
</a>
</g>
</g>
<!-- Node3&#45;&gt;Node1 -->
<g id="edge2" class="edge">
<title>Node3&#45;&gt;Node1</title>
<path fill="none" stroke="#404040" d="M198.14,-281.48C192.19,-247.36 186.28,-188.07 205,-142 206.09,-139.32 207.31,-136.68 208.66,-134.09"/>
<polygon fill="none" stroke="#404040" points="208.7,-134.02 208.31,-126.82 214.8,-123.69 215.19,-130.89 208.7,-134.02"/>
<text text-anchor="middle" x="271" y="-216.5" font-family="Helvetica,sans-Serif" font-size="10.00"> +has_out</text>
<text text-anchor="start" x="205" y="-205.5" font-family="Helvetica,sans-Serif" font-size="10.00">+SubExpressionEvaluation</text>
<text text-anchor="middle" x="271" y="-194.5" font-family="Helvetica,sans-Serif" font-size="10.00">Needed</text>
<text text-anchor="middle" x="271" y="-183.5" font-family="Helvetica,sans-Serif" font-size="10.00">+Stencil_Conds</text>
</g>
<!-- Node4 -->
<g id="node4" class="node">
<title>Node4</title>
<g id="a_node4"><a xlink:title=" ">
<polygon fill="none" stroke="#bfbfbf" points="340.5,-281.5 340.5,-338.5 377.5,-338.5 377.5,-281.5 340.5,-281.5"/>
<text text-anchor="middle" x="359" y="-326.5" font-family="Helvetica,sans-Serif" font-size="10.00">RHS</text>
<polyline fill="none" stroke="#bfbfbf" points="340.5,-319.5 377.5,-319.5 "/>
<text text-anchor="middle" x="359" y="-307.5" font-family="Helvetica,sans-Serif" font-size="10.00"> </text>
<polyline fill="none" stroke="#bfbfbf" points="340.5,-300.5 377.5,-300.5 "/>
<text text-anchor="middle" x="359" y="-288.5" font-family="Helvetica,sans-Serif" font-size="10.00"> </text>
</a>
</g>
</g>
<!-- Node4&#45;&gt;Node1 -->
<g id="edge3" class="edge">
<title>Node4&#45;&gt;Node1</title>
<path fill="none" stroke="#404040" d="M359.37,-281.39C358.94,-247.43 355.26,-188.55 337,-142 336.03,-139.52 334.96,-137.05 333.82,-134.58"/>
<polygon fill="none" stroke="#404040" points="333.81,-134.58 327.52,-131.07 328.34,-123.9 334.63,-127.41 333.81,-134.58"/>
<text text-anchor="middle" x="371.5" y="-200" font-family="Helvetica,sans-Serif" font-size="10.00"> +rhs</text>
</g>
<!-- Node5 -->
<g id="node5" class="node">
<title>Node5</title>
<g id="a_node5"><a xlink:title=" ">
<polygon fill="none" stroke="#bfbfbf" points="396,-281.5 396,-338.5 434,-338.5 434,-281.5 396,-281.5"/>
<text text-anchor="middle" x="415" y="-326.5" font-family="Helvetica,sans-Serif" font-size="10.00">bool</text>
<polyline fill="none" stroke="#bfbfbf" points="396,-319.5 434,-319.5 "/>
<text text-anchor="middle" x="415" y="-307.5" font-family="Helvetica,sans-Serif" font-size="10.00"> </text>
<polyline fill="none" stroke="#bfbfbf" points="396,-300.5 434,-300.5 "/>
<text text-anchor="middle" x="415" y="-288.5" font-family="Helvetica,sans-Serif" font-size="10.00"> </text>
</a>
</g>
</g>
<!-- Node5&#45;&gt;Node1 -->
<g id="edge4" class="edge">
<title>Node5&#45;&gt;Node1</title>
<path fill="none" stroke="#404040" d="M416.9,-281.39C417.99,-246.38 415.4,-185.36 389,-142 384.74,-135 379.6,-128.43 373.91,-122.3"/>
<polygon fill="none" stroke="#404040" points="373.72,-122.11 366.64,-120.71 365.21,-113.65 372.29,-115.04 373.72,-122.11"/>
<text text-anchor="start" x="417" y="-205.5" font-family="Helvetica,sans-Serif" font-size="10.00"> +subexpr_execution</text>
<text text-anchor="middle" x="468.5" y="-194.5" font-family="Helvetica,sans-Serif" font-size="10.00">_reseter</text>
</g>
</g>
</svg>
