<?xml version="1.0" encoding="UTF-8" standalone="no"?>
<!DOCTYPE svg PUBLIC "-//W3C//DTD SVG 1.1//EN"
 "http://www.w3.org/Graphics/SVG/1.1/DTD/svg11.dtd">
<!-- Generated by graphviz version 2.43.0 (0)
 -->
<!-- Title: visioncpp::internal::ParallelCopy&lt; LHS, RHS, Cols, Rows, OffsetColIn, OffsetRowIn, OffsetColOut, OffsetRowOut, LfType, LVL &gt; Pages: 1 -->
<svg width="373pt" height="292pt"
 viewBox="0.00 0.00 372.50 292.00" xmlns="http://www.w3.org/2000/svg" xmlns:xlink="http://www.w3.org/1999/xlink">
<g id="graph0" class="graph" transform="scale(1 1) rotate(0) translate(4 288)">
<title>visioncpp::internal::ParallelCopy&lt; LHS, RHS, Cols, Rows, OffsetColIn, OffsetRowIn, OffsetColOut, OffsetRowOut, LfType, LVL &gt;</title>
<!-- Node1 -->
<g id="node1" class="node">
<title>Node1</title>
<g id="a_node1"><a xlink:title="The definition is in ParallelCopy file.">
<polygon fill="#bfbfbf" stroke="black" points="44.5,-0.5 44.5,-123.5 212.5,-123.5 212.5,-0.5 44.5,-0.5"/>
<text text-anchor="start" x="52.5" y="-111.5" font-family="Helvetica,sans-Serif" font-size="10.00">visioncpp::internal</text>
<text text-anchor="start" x="52.5" y="-100.5" font-family="Helvetica,sans-Serif" font-size="10.00">::ParallelCopy&lt; LHS,</text>
<text text-anchor="start" x="52.5" y="-89.5" font-family="Helvetica,sans-Serif" font-size="10.00"> RHS, Cols, Rows, OffsetCol</text>
<text text-anchor="start" x="52.5" y="-78.5" font-family="Helvetica,sans-Serif" font-size="10.00">In, OffsetRowIn, OffsetColOut,</text>
<text text-anchor="middle" x="128.5" y="-67.5" font-family="Helvetica,sans-Serif" font-size="10.00"> OffsetRowOut, LfType, LVL &gt;</text>
<polyline fill="none" stroke="black" points="44.5,-60.5 212.5,-60.5 "/>
<text text-anchor="middle" x="128.5" y="-48.5" font-family="Helvetica,sans-Serif" font-size="10.00"> </text>
<polyline fill="none" stroke="black" points="44.5,-41.5 212.5,-41.5 "/>
<text text-anchor="start" x="52.5" y="-29.5" font-family="Helvetica,sans-Serif" font-size="10.00">+ ParallelCopy()</text>
<text text-anchor="start" x="52.5" y="-18.5" font-family="Helvetica,sans-Serif" font-size="10.00">+ reset()</text>
<text text-anchor="start" x="52.5" y="-7.5" font-family="Helvetica,sans-Serif" font-size="10.00">+ sub_expression_evaluation()</text>
</a>
</g>
</g>
<!-- Node2 -->
<g id="node2" class="node">
<title>Node2</title>
<g id="a_node2"><a xlink:title=" ">
<polygon fill="none" stroke="#bfbfbf" points="0,-226.5 0,-283.5 35,-283.5 35,-226.5 0,-226.5"/>
<text text-anchor="middle" x="17.5" y="-271.5" font-family="Helvetica,sans-Serif" font-size="10.00">LHS</text>
<polyline fill="none" stroke="#bfbfbf" points="0,-264.5 35,-264.5 "/>
<text text-anchor="middle" x="17.5" y="-252.5" font-family="Helvetica,sans-Serif" font-size="10.00"> </text>
<polyline fill="none" stroke="#bfbfbf" points="0,-245.5 35,-245.5 "/>
<text text-anchor="middle" x="17.5" y="-233.5" font-family="Helvetica,sans-Serif" font-size="10.00"> </text>
</a>
</g>
</g>
<!-- Node2&#45;&gt;Node1 -->
<g id="edge1" class="edge">
<title>Node2&#45;&gt;Node1</title>
<path fill="none" stroke="#404040" d="M18.07,-226.04C19.66,-202.27 24.65,-167.98 39.5,-142 41.13,-139.16 42.89,-136.36 44.78,-133.62"/>
<polygon fill="none" stroke="#404040" points="44.84,-133.53 45.26,-126.33 52.06,-123.94 51.65,-131.14 44.84,-133.53"/>
<text text-anchor="middle" x="52.5" y="-172.5" font-family="Helvetica,sans-Serif" font-size="10.00"> +lhs</text>
</g>
<!-- Node3 -->
<g id="node3" class="node">
<title>Node3</title>
<g id="a_node3"><a xlink:title=" ">
<polygon fill="none" stroke="#bfbfbf" points="53,-226.5 53,-283.5 98,-283.5 98,-226.5 53,-226.5"/>
<text text-anchor="middle" x="75.5" y="-271.5" font-family="Helvetica,sans-Serif" font-size="10.00">size_t</text>
<polyline fill="none" stroke="#bfbfbf" points="53,-264.5 98,-264.5 "/>
<text text-anchor="middle" x="75.5" y="-252.5" font-family="Helvetica,sans-Serif" font-size="10.00"> </text>
<polyline fill="none" stroke="#bfbfbf" points="53,-245.5 98,-245.5 "/>
<text text-anchor="middle" x="75.5" y="-233.5" font-family="Helvetica,sans-Serif" font-size="10.00"> </text>
</a>
</g>
</g>
<!-- Node3&#45;&gt;Node1 -->
<g id="edge2" class="edge">
<title>Node3&#45;&gt;Node1</title>
<path fill="none" stroke="#404040" d="M71.46,-226.18C69.11,-203.11 68.06,-169.72 76.5,-142 77.2,-139.7 77.99,-137.41 78.86,-135.13"/>
<polygon fill="none" stroke="#404040" points="78.98,-134.85 77.71,-127.75 83.77,-123.85 85.04,-130.95 78.98,-134.85"/>
<text text-anchor="middle" x="118.5" y="-200" font-family="Helvetica,sans-Serif" font-size="10.00"> +CThread</text>
<text text-anchor="middle" x="118.5" y="-189" font-family="Helvetica,sans-Serif" font-size="10.00">+LeafType</text>
<text text-anchor="middle" x="118.5" y="-178" font-family="Helvetica,sans-Serif" font-size="10.00">+Level</text>
<text text-anchor="middle" x="118.5" y="-167" font-family="Helvetica,sans-Serif" font-size="10.00">+ND_Category</text>
<text text-anchor="middle" x="118.5" y="-156" font-family="Helvetica,sans-Serif" font-size="10.00">+Operation_type</text>
<text text-anchor="middle" x="118.5" y="-145" font-family="Helvetica,sans-Serif" font-size="10.00">+RThread</text>
</g>
<!-- Node4 -->
<g id="node4" class="node">
<title>Node4</title>
<g id="a_node4"><a xlink:title=" ">
<polygon fill="none" stroke="#bfbfbf" points="164,-226.5 164,-283.5 201,-283.5 201,-226.5 164,-226.5"/>
<text text-anchor="middle" x="182.5" y="-271.5" font-family="Helvetica,sans-Serif" font-size="10.00">RHS</text>
<polyline fill="none" stroke="#bfbfbf" points="164,-264.5 201,-264.5 "/>
<text text-anchor="middle" x="182.5" y="-252.5" font-family="Helvetica,sans-Serif" font-size="10.00"> </text>
<polyline fill="none" stroke="#bfbfbf" points="164,-245.5 201,-245.5 "/>
<text text-anchor="middle" x="182.5" y="-233.5" font-family="Helvetica,sans-Serif" font-size="10.00"> </text>
</a>
</g>
</g>
<!-- Node4&#45;&gt;Node1 -->
<g id="edge3" class="edge">
<title>Node4&#45;&gt;Node1</title>
<path fill="none" stroke="#404040" d="M178.6,-226.49C175,-203.6 168.93,-170.3 160.5,-142 159.83,-139.77 159.13,-137.51 158.39,-135.24"/>
<polygon fill="none" stroke="#404040" points="158.37,-135.18 152.64,-130.8 154.48,-123.83 160.21,-128.21 158.37,-135.18"/>
<text text-anchor="middle" x="188" y="-172.5" font-family="Helvetica,sans-Serif" font-size="10.00"> +rhs</text>
</g>
<!-- Node5 -->
<g id="node5" class="node">
<title>Node5</title>
<g id="a_node5"><a xlink:title=" ">
<polygon fill="none" stroke="#bfbfbf" points="219.5,-226.5 219.5,-283.5 257.5,-283.5 257.5,-226.5 219.5,-226.5"/>
<text text-anchor="middle" x="238.5" y="-271.5" font-family="Helvetica,sans-Serif" font-size="10.00">bool</text>
<polyline fill="none" stroke="#bfbfbf" points="219.5,-264.5 257.5,-264.5 "/>
<text text-anchor="middle" x="238.5" y="-252.5" font-family="Helvetica,sans-Serif" font-size="10.00"> </text>
<polyline fill="none" stroke="#bfbfbf" points="219.5,-245.5 257.5,-245.5 "/>
<text text-anchor="middle" x="238.5" y="-233.5" font-family="Helvetica,sans-Serif" font-size="10.00"> </text>
</a>
</g>
</g>
<!-- Node5&#45;&gt;Node1 -->
<g id="edge4" class="edge">
<title>Node5&#45;&gt;Node1</title>
<path fill="none" stroke="#404040" d="M234.2,-226.26C229.67,-202.64 220.96,-168.42 205.5,-142 203.83,-139.15 202.04,-136.33 200.15,-133.55"/>
<polygon fill="none" stroke="#404040" points="199.99,-133.32 193.22,-130.84 192.92,-123.63 199.68,-126.12 199.99,-133.32"/>
<text text-anchor="start" x="229.5" y="-194.5" font-family="Helvetica,sans-Serif" font-size="10.00"> +SubExpressionEvaluation</text>
<text text-anchor="middle" x="297" y="-183.5" font-family="Helvetica,sans-Serif" font-size="10.00">Needed</text>
<text text-anchor="middle" x="297" y="-172.5" font-family="Helvetica,sans-Serif" font-size="10.00">+has_out</text>
<text text-anchor="start" x="229.5" y="-161.5" font-family="Helvetica,sans-Serif" font-size="10.00">+subexpr_execution</text>
<text text-anchor="middle" x="297" y="-150.5" font-family="Helvetica,sans-Serif" font-size="10.00">_reseter</text>
</g>
</g>
</svg>
