<?xml version="1.0" encoding="UTF-8" standalone="no"?>
<!DOCTYPE svg PUBLIC "-//W3C//DTD SVG 1.1//EN"
 "http://www.w3.org/Graphics/SVG/1.1/DTD/svg11.dtd">
<!-- Generated by graphviz version 2.43.0 (0)
 -->
<!-- Title: visioncpp::internal::PyramidAutomemSep&lt; SepFltrColOP, SepFltrRowOP, DownSmplOP, RHS, SepFilterCol, SepFilterRow, Cols, Rows, LfType, LVL, Dp &gt; Pages: 1 -->
<svg width="694pt" height="540pt"
 viewBox="0.00 0.00 694.00 540.00" xmlns="http://www.w3.org/2000/svg" xmlns:xlink="http://www.w3.org/1999/xlink">
<g id="graph0" class="graph" transform="scale(1 1) rotate(0) translate(4 536)">
<title>visioncpp::internal::PyramidAutomemSep&lt; SepFltrColOP, SepFltrRowOP, DownSmplOP, RHS, SepFilterCol, SepFilterRow, Cols, Rows, LfType, LVL, Dp &gt;</title>
<!-- Node1 -->
<g id="node1" class="node">
<title>Node1</title>
<g id="a_node1"><a xlink:title="PyramidAutomemSep is used to construct a pyramid node in the expression tree with two separable Filte...">
<polygon fill="#bfbfbf" stroke="black" points="274.5,-0.5 274.5,-145.5 457.5,-145.5 457.5,-0.5 274.5,-0.5"/>
<text text-anchor="start" x="282.5" y="-133.5" font-family="Helvetica,sans-Serif" font-size="10.00">visioncpp::internal</text>
<text text-anchor="start" x="282.5" y="-122.5" font-family="Helvetica,sans-Serif" font-size="10.00">::PyramidAutomemSep</text>
<text text-anchor="start" x="282.5" y="-111.5" font-family="Helvetica,sans-Serif" font-size="10.00">&lt; SepFltrColOP, SepFltrRowOP,</text>
<text text-anchor="start" x="282.5" y="-100.5" font-family="Helvetica,sans-Serif" font-size="10.00"> DownSmplOP, RHS, SepFilterCol,</text>
<text text-anchor="start" x="282.5" y="-89.5" font-family="Helvetica,sans-Serif" font-size="10.00"> SepFilterRow, Cols, Rows, LfType,</text>
<text text-anchor="middle" x="366" y="-78.5" font-family="Helvetica,sans-Serif" font-size="10.00"> LVL, Dp &gt;</text>
<polyline fill="none" stroke="black" points="274.5,-71.5 457.5,-71.5 "/>
<text text-anchor="middle" x="366" y="-59.5" font-family="Helvetica,sans-Serif" font-size="10.00"> </text>
<polyline fill="none" stroke="black" points="274.5,-52.5 457.5,-52.5 "/>
<text text-anchor="start" x="282.5" y="-40.5" font-family="Helvetica,sans-Serif" font-size="10.00">+ PyramidAutomemSep()</text>
<text text-anchor="start" x="282.5" y="-29.5" font-family="Helvetica,sans-Serif" font-size="10.00">+ reset()</text>
<text text-anchor="start" x="282.5" y="-18.5" font-family="Helvetica,sans-Serif" font-size="10.00">+ get()</text>
<text text-anchor="start" x="282.5" y="-7.5" font-family="Helvetica,sans-Serif" font-size="10.00">+ sub_expression_evaluation()</text>
</a>
</g>
</g>
<!-- Node2 -->
<g id="node2" class="node">
<title>Node2</title>
<g id="a_node2"><a xlink:href="structvisioncpp_1_1internal_1_1CreatePyramidTupleType.html" target="_top" xlink:title=" ">
<polygon fill="none" stroke="black" points="3,-270.5 3,-360.5 171,-360.5 171,-270.5 3,-270.5"/>
<text text-anchor="start" x="11" y="-348.5" font-family="Helvetica,sans-Serif" font-size="10.00">visioncpp::internal</text>
<text text-anchor="start" x="11" y="-337.5" font-family="Helvetica,sans-Serif" font-size="10.00">::CreatePyramidTupleType</text>
<text text-anchor="start" x="11" y="-326.5" font-family="Helvetica,sans-Serif" font-size="10.00">&lt; false, Cols/2, Rows/2,</text>
<text text-anchor="middle" x="87" y="-315.5" font-family="Helvetica,sans-Serif" font-size="10.00"> LeafType, Depth, 0, LHSExpr &gt;</text>
<polyline fill="none" stroke="black" points="3,-308.5 171,-308.5 "/>
<text text-anchor="middle" x="87" y="-296.5" font-family="Helvetica,sans-Serif" font-size="10.00"> </text>
<polyline fill="none" stroke="black" points="3,-289.5 171,-289.5 "/>
<text text-anchor="middle" x="87" y="-277.5" font-family="Helvetica,sans-Serif" font-size="10.00"> </text>
</a>
</g>
</g>
<!-- Node2&#45;&gt;Node1 -->
<g id="edge1" class="edge">
<title>Node2&#45;&gt;Node1</title>
<path fill="none" stroke="#404040" d="M105.97,-270.3C121.84,-237.54 147.16,-193.63 180,-164 203.97,-142.37 234.08,-124.83 263.04,-111.17"/>
<polygon fill="none" stroke="#404040" points="263.16,-111.12 266.95,-104.98 274.07,-106.12 270.28,-112.26 263.16,-111.12"/>
<text text-anchor="middle" x="198.5" y="-205.5" font-family="Helvetica,sans-Serif" font-size="10.00"> +mem</text>
</g>
<!-- Node3 -->
<g id="node3" class="node">
<title>Node3</title>
<g id="a_node3"><a xlink:href="structvisioncpp_1_1internal_1_1CreatePyramidTupleType.html" target="_top" xlink:title="CreatePyramidTupleType: This file is used to create each output element type for each downsampling ou...">
<polygon fill="none" stroke="black" points="0,-430.5 0,-531.5 174,-531.5 174,-430.5 0,-430.5"/>
<text text-anchor="start" x="8" y="-519.5" font-family="Helvetica,sans-Serif" font-size="10.00">visioncpp::internal</text>
<text text-anchor="start" x="8" y="-508.5" font-family="Helvetica,sans-Serif" font-size="10.00">::CreatePyramidTupleType</text>
<text text-anchor="start" x="8" y="-497.5" font-family="Helvetica,sans-Serif" font-size="10.00">&lt; SatisfyingConds, Cols,</text>
<text text-anchor="start" x="8" y="-486.5" font-family="Helvetica,sans-Serif" font-size="10.00"> Rows, LeafType, Depth,</text>
<text text-anchor="middle" x="87" y="-475.5" font-family="Helvetica,sans-Serif" font-size="10.00"> CurrentDepth, LHS, ChildType &gt;</text>
<polyline fill="none" stroke="black" points="0,-468.5 174,-468.5 "/>
<text text-anchor="middle" x="87" y="-456.5" font-family="Helvetica,sans-Serif" font-size="10.00"> </text>
<polyline fill="none" stroke="black" points="0,-449.5 174,-449.5 "/>
<text text-anchor="middle" x="87" y="-437.5" font-family="Helvetica,sans-Serif" font-size="10.00"> </text>
</a>
</g>
</g>
<!-- Node3&#45;&gt;Node2 -->
<g id="edge2" class="edge">
<title>Node3&#45;&gt;Node2</title>
<path fill="none" stroke="orange" d="M87,-419.97C87,-400.31 87,-378.85 87,-360.6"/>
<polygon fill="orange" stroke="orange" points="83.5,-420.06 87,-430.06 90.5,-420.06 83.5,-420.06"/>
<text text-anchor="start" x="87" y="-404" font-family="Helvetica,sans-Serif" font-size="10.00"> &lt; false, Cols/2, Rows</text>
<text text-anchor="start" x="87" y="-393" font-family="Helvetica,sans-Serif" font-size="10.00">/2, LeafType, Depth,</text>
<text text-anchor="middle" x="140.5" y="-382" font-family="Helvetica,sans-Serif" font-size="10.00"> 0, LHSExpr &gt;</text>
</g>
<!-- Node4 -->
<g id="node4" class="node">
<title>Node4</title>
<g id="a_node4"><a xlink:title=" ">
<polygon fill="none" stroke="#bfbfbf" points="189,-287 189,-344 269,-344 269,-287 189,-287"/>
<text text-anchor="middle" x="229" y="-332" font-family="Helvetica,sans-Serif" font-size="10.00">SepFilterRow</text>
<polyline fill="none" stroke="#bfbfbf" points="189,-325 269,-325 "/>
<text text-anchor="middle" x="229" y="-313" font-family="Helvetica,sans-Serif" font-size="10.00"> </text>
<polyline fill="none" stroke="#bfbfbf" points="189,-306 269,-306 "/>
<text text-anchor="middle" x="229" y="-294" font-family="Helvetica,sans-Serif" font-size="10.00"> </text>
</a>
</g>
</g>
<!-- Node4&#45;&gt;Node1 -->
<g id="edge3" class="edge">
<title>Node4&#45;&gt;Node1</title>
<path fill="none" stroke="#404040" d="M224.37,-286.98C220.44,-255.2 218.45,-202.37 240,-164 246.5,-152.43 255.18,-141.97 264.96,-132.63"/>
<polygon fill="none" stroke="#404040" points="265.27,-132.35 267.08,-125.37 274.22,-124.36 272.41,-131.34 265.27,-132.35"/>
<text text-anchor="middle" x="270.5" y="-205.5" font-family="Helvetica,sans-Serif" font-size="10.00"> +spFltrRow</text>
</g>
<!-- Node5 -->
<g id="node5" class="node">
<title>Node5</title>
<g id="a_node5"><a xlink:title=" ">
<polygon fill="none" stroke="#bfbfbf" points="290.5,-287 290.5,-344 335.5,-344 335.5,-287 290.5,-287"/>
<text text-anchor="middle" x="313" y="-332" font-family="Helvetica,sans-Serif" font-size="10.00">size_t</text>
<polyline fill="none" stroke="#bfbfbf" points="290.5,-325 335.5,-325 "/>
<text text-anchor="middle" x="313" y="-313" font-family="Helvetica,sans-Serif" font-size="10.00"> </text>
<polyline fill="none" stroke="#bfbfbf" points="290.5,-306 335.5,-306 "/>
<text text-anchor="middle" x="313" y="-294" font-family="Helvetica,sans-Serif" font-size="10.00"> </text>
</a>
</g>
</g>
<!-- Node5&#45;&gt;Node1 -->
<g id="edge4" class="edge">
<title>Node5&#45;&gt;Node1</title>
<path fill="none" stroke="#404040" d="M309,-286.74C305.55,-256.1 302.7,-205.6 314,-164 314.66,-161.59 315.39,-159.17 316.2,-156.76"/>
<polygon fill="none" stroke="#404040" points="316.2,-156.75 314.59,-149.72 320.46,-145.53 322.07,-152.56 316.2,-156.75"/>
<text text-anchor="middle" x="356" y="-244" font-family="Helvetica,sans-Serif" font-size="10.00"> +node_reseter</text>
<text text-anchor="middle" x="356" y="-233" font-family="Helvetica,sans-Serif" font-size="10.00">+Operation_type</text>
<text text-anchor="middle" x="356" y="-222" font-family="Helvetica,sans-Serif" font-size="10.00">+Level</text>
<text text-anchor="middle" x="356" y="-211" font-family="Helvetica,sans-Serif" font-size="10.00">+Depth</text>
<text text-anchor="middle" x="356" y="-200" font-family="Helvetica,sans-Serif" font-size="10.00">+LeafType</text>
<text text-anchor="middle" x="356" y="-189" font-family="Helvetica,sans-Serif" font-size="10.00">+RThread</text>
<text text-anchor="middle" x="356" y="-178" font-family="Helvetica,sans-Serif" font-size="10.00">+CThread</text>
<text text-anchor="middle" x="356" y="-167" font-family="Helvetica,sans-Serif" font-size="10.00">+ND_Category</text>
</g>
<!-- Node6 -->
<g id="node6" class="node">
<title>Node6</title>
<g id="a_node6"><a xlink:title=" ">
<polygon fill="none" stroke="#bfbfbf" points="400.5,-287 400.5,-344 437.5,-344 437.5,-287 400.5,-287"/>
<text text-anchor="middle" x="419" y="-332" font-family="Helvetica,sans-Serif" font-size="10.00">RHS</text>
<polyline fill="none" stroke="#bfbfbf" points="400.5,-325 437.5,-325 "/>
<text text-anchor="middle" x="419" y="-313" font-family="Helvetica,sans-Serif" font-size="10.00"> </text>
<polyline fill="none" stroke="#bfbfbf" points="400.5,-306 437.5,-306 "/>
<text text-anchor="middle" x="419" y="-294" font-family="Helvetica,sans-Serif" font-size="10.00"> </text>
</a>
</g>
</g>
<!-- Node6&#45;&gt;Node1 -->
<g id="edge5" class="edge">
<title>Node6&#45;&gt;Node1</title>
<path fill="none" stroke="#404040" d="M416.85,-287C414.08,-256.58 408.35,-206.28 398,-164 397.48,-161.86 396.92,-159.7 396.34,-157.52"/>
<polygon fill="none" stroke="#404040" points="396.29,-157.35 390.79,-152.69 392.98,-145.82 398.48,-150.49 396.29,-157.35"/>
<text text-anchor="middle" x="425.5" y="-205.5" font-family="Helvetica,sans-Serif" font-size="10.00"> +rhs</text>
</g>
<!-- Node7 -->
<g id="node7" class="node">
<title>Node7</title>
<g id="a_node7"><a xlink:title=" ">
<polygon fill="none" stroke="#bfbfbf" points="456,-287 456,-344 494,-344 494,-287 456,-287"/>
<text text-anchor="middle" x="475" y="-332" font-family="Helvetica,sans-Serif" font-size="10.00">bool</text>
<polyline fill="none" stroke="#bfbfbf" points="456,-325 494,-325 "/>
<text text-anchor="middle" x="475" y="-313" font-family="Helvetica,sans-Serif" font-size="10.00"> </text>
<polyline fill="none" stroke="#bfbfbf" points="456,-306 494,-306 "/>
<text text-anchor="middle" x="475" y="-294" font-family="Helvetica,sans-Serif" font-size="10.00"> </text>
</a>
</g>
</g>
<!-- Node7&#45;&gt;Node1 -->
<g id="edge6" class="edge">
<title>Node7&#45;&gt;Node1</title>
<path fill="none" stroke="#404040" d="M473.22,-286.8C470.3,-255.55 462.69,-203.88 443,-164 441.65,-161.26 440.19,-158.53 438.65,-155.82"/>
<polygon fill="none" stroke="#404040" points="438.59,-155.74 432.04,-152.72 432.3,-145.52 438.85,-148.53 438.59,-155.74"/>
<text text-anchor="middle" x="534" y="-233" font-family="Helvetica,sans-Serif" font-size="10.00"> +has_out</text>
<text text-anchor="start" x="468" y="-222" font-family="Helvetica,sans-Serif" font-size="10.00">+SubExpressionEvaluation</text>
<text text-anchor="middle" x="534" y="-211" font-family="Helvetica,sans-Serif" font-size="10.00">Needed</text>
<text text-anchor="middle" x="534" y="-200" font-family="Helvetica,sans-Serif" font-size="10.00">+first_time</text>
<text text-anchor="start" x="468" y="-189" font-family="Helvetica,sans-Serif" font-size="10.00">+subexpr_execution</text>
<text text-anchor="middle" x="534" y="-178" font-family="Helvetica,sans-Serif" font-size="10.00">_reseter</text>
</g>
<!-- Node8 -->
<g id="node8" class="node">
<title>Node8</title>
<g id="a_node8"><a xlink:title=" ">
<polygon fill="none" stroke="#bfbfbf" points="590.5,-287 590.5,-344 665.5,-344 665.5,-287 590.5,-287"/>
<text text-anchor="middle" x="628" y="-332" font-family="Helvetica,sans-Serif" font-size="10.00">SepFilterCol</text>
<polyline fill="none" stroke="#bfbfbf" points="590.5,-325 665.5,-325 "/>
<text text-anchor="middle" x="628" y="-313" font-family="Helvetica,sans-Serif" font-size="10.00"> </text>
<polyline fill="none" stroke="#bfbfbf" points="590.5,-306 665.5,-306 "/>
<text text-anchor="middle" x="628" y="-294" font-family="Helvetica,sans-Serif" font-size="10.00"> </text>
</a>
</g>
</g>
<!-- Node8&#45;&gt;Node1 -->
<g id="edge7" class="edge">
<title>Node8&#45;&gt;Node1</title>
<path fill="none" stroke="#404040" d="M631.31,-286.76C633.67,-253.8 632.41,-198.87 604,-164 570.87,-123.35 517.29,-101.04 469.35,-88.81"/>
<polygon fill="none" stroke="#404040" points="469.29,-88.8 462.52,-91.28 457.62,-85.99 464.39,-83.5 469.29,-88.8"/>
<text text-anchor="middle" x="658.5" y="-205.5" font-family="Helvetica,sans-Serif" font-size="10.00"> +spFltrCol</text>
</g>
</g>
</svg>
