<?xml version="1.0" encoding="UTF-8" standalone="no"?>
<!DOCTYPE svg PUBLIC "-//W3C//DTD SVG 1.1//EN"
 "http://www.w3.org/Graphics/SVG/1.1/DTD/svg11.dtd">
<!-- Generated by graphviz version 2.36.0 (20140111.2315)
 -->
<!-- Title: visioncpp::internal::GlobalNeighbour&lt; T &gt; Pages: 1 -->
<svg width="161pt" height="248pt"
 viewBox="0.00 0.00 161.00 248.00" xmlns="http://www.w3.org/2000/svg" xmlns:xlink="http://www.w3.org/1999/xlink">
<g id="graph0" class="graph" transform="scale(1 1) rotate(0) translate(4 244)">
<title>visioncpp::internal::GlobalNeighbour&lt; T &gt;</title>
<!-- Node1 -->
<g id="node1" class="node"><title>Node1</title>
<polygon fill="#bfbfbf" stroke="black" points="4.5,-0.5 4.5,-101.5 123.5,-101.5 123.5,-0.5 4.5,-0.5"/>
<text text-anchor="start" x="12.5" y="-89.5" font-family="Helvetica,sans-Serif" font-size="10.00">visioncpp::internal</text>
<text text-anchor="middle" x="64" y="-78.5" font-family="Helvetica,sans-Serif" font-size="10.00">::GlobalNeighbour&lt; T &gt;</text>
<polyline fill="none" stroke="black" points="4.5,-71.5 123.5,-71.5 "/>
<text text-anchor="middle" x="64" y="-59.5" font-family="Helvetica,sans-Serif" font-size="10.00"> </text>
<polyline fill="none" stroke="black" points="4.5,-52.5 123.5,-52.5 "/>
<text text-anchor="start" x="12.5" y="-40.5" font-family="Helvetica,sans-Serif" font-size="10.00">+ GlobalNeighbour()</text>
<text text-anchor="start" x="12.5" y="-29.5" font-family="Helvetica,sans-Serif" font-size="10.00">+ set_offset()</text>
<text text-anchor="start" x="12.5" y="-18.5" font-family="Helvetica,sans-Serif" font-size="10.00">+ at()</text>
<text text-anchor="start" x="12.5" y="-7.5" font-family="Helvetica,sans-Serif" font-size="10.00">+ at()</text>
</g>
<!-- Node2 -->
<g id="node2" class="node"><title>Node2</title>
<polygon fill="none" stroke="#bfbfbf" points="-0.5,-182.5 -0.5,-239.5 42.5,-239.5 42.5,-182.5 -0.5,-182.5"/>
<text text-anchor="middle" x="21" y="-227.5" font-family="Helvetica,sans-Serif" font-size="10.00">size_t</text>
<polyline fill="none" stroke="#bfbfbf" points="-0.5,-220.5 42.5,-220.5 "/>
<text text-anchor="middle" x="21" y="-208.5" font-family="Helvetica,sans-Serif" font-size="10.00"> </text>
<polyline fill="none" stroke="#bfbfbf" points="-0.5,-201.5 42.5,-201.5 "/>
<text text-anchor="middle" x="21" y="-189.5" font-family="Helvetica,sans-Serif" font-size="10.00"> </text>
</g>
<!-- Node2&#45;&gt;Node1 -->
<g id="edge1" class="edge"><title>Node2&#45;&gt;Node1</title>
<path fill="none" stroke="#404040" d="M28.49,-182.479C33.6773,-163.418 40.7917,-137.277 47.2908,-113.397"/>
<polygon fill="none" stroke="#404040" points="47.3686,-113.11 45.0846,-106.271 50.5199,-101.532 52.8039,-108.371 47.3686,-113.11"/>
<text text-anchor="middle" x="60" y="-156" font-family="Helvetica,sans-Serif" font-size="10.00"> +I_c</text>
<text text-anchor="middle" x="60" y="-145" font-family="Helvetica,sans-Serif" font-size="10.00">+rows</text>
<text text-anchor="middle" x="60" y="-134" font-family="Helvetica,sans-Serif" font-size="10.00">+cols</text>
<text text-anchor="middle" x="60" y="-123" font-family="Helvetica,sans-Serif" font-size="10.00">+I_r</text>
</g>
<!-- Node3 -->
<g id="node3" class="node"><title>Node3</title>
<polygon fill="none" stroke="#bfbfbf" points="61,-182.5 61,-239.5 153,-239.5 153,-182.5 61,-182.5"/>
<text text-anchor="middle" x="107" y="-227.5" font-family="Helvetica,sans-Serif" font-size="10.00">global_ptr&lt; T &gt; &amp;</text>
<polyline fill="none" stroke="#bfbfbf" points="61,-220.5 153,-220.5 "/>
<text text-anchor="middle" x="107" y="-208.5" font-family="Helvetica,sans-Serif" font-size="10.00"> </text>
<polyline fill="none" stroke="#bfbfbf" points="61,-201.5 153,-201.5 "/>
<text text-anchor="middle" x="107" y="-189.5" font-family="Helvetica,sans-Serif" font-size="10.00"> </text>
</g>
<!-- Node3&#45;&gt;Node1 -->
<g id="edge2" class="edge"><title>Node3&#45;&gt;Node1</title>
<path fill="none" stroke="#404040" d="M99.51,-182.479C94.3227,-163.418 87.2083,-137.277 80.7092,-113.397"/>
<polygon fill="none" stroke="#404040" points="80.6314,-113.11 75.1961,-108.371 77.4801,-101.532 82.9154,-106.271 80.6314,-113.11"/>
<text text-anchor="middle" x="105.5" y="-139.5" font-family="Helvetica,sans-Serif" font-size="10.00"> +ptr</text>
</g>
</g>
</svg>
