<?xml version="1.0" encoding="UTF-8" standalone="no"?>
<!DOCTYPE svg PUBLIC "-//W3C//DTD SVG 1.1//EN"
 "http://www.w3.org/Graphics/SVG/1.1/DTD/svg11.dtd">
<!-- Generated by graphviz version 2.43.0 (0)
 -->
<!-- Title: visioncpp::internal::Assign&lt; LHS, RHS, Cols, Rows, LfType, LVL &gt; Pages: 1 -->
<svg width="597pt" height="270pt"
 viewBox="0.00 0.00 596.50 270.00" xmlns="http://www.w3.org/2000/svg" xmlns:xlink="http://www.w3.org/1999/xlink">
<g id="graph0" class="graph" transform="scale(1 1) rotate(0) translate(4 266)">
<title>visioncpp::internal::Assign&lt; LHS, RHS, Cols, Rows, LfType, LVL &gt;</title>
<!-- Node1 -->
<g id="node1" class="node">
<title>Node1</title>
<g id="a_node1"><a xlink:title="The definition is in Assign file.">
<polygon fill="#bfbfbf" stroke="black" points="156.5,-0.5 156.5,-101.5 324.5,-101.5 324.5,-0.5 156.5,-0.5"/>
<text text-anchor="start" x="164.5" y="-89.5" font-family="Helvetica,sans-Serif" font-size="10.00">visioncpp::internal</text>
<text text-anchor="start" x="164.5" y="-78.5" font-family="Helvetica,sans-Serif" font-size="10.00">::Assign&lt; LHS, RHS,</text>
<text text-anchor="middle" x="240.5" y="-67.5" font-family="Helvetica,sans-Serif" font-size="10.00"> Cols, Rows, LfType, LVL &gt;</text>
<polyline fill="none" stroke="black" points="156.5,-60.5 324.5,-60.5 "/>
<text text-anchor="middle" x="240.5" y="-48.5" font-family="Helvetica,sans-Serif" font-size="10.00"> </text>
<polyline fill="none" stroke="black" points="156.5,-41.5 324.5,-41.5 "/>
<text text-anchor="start" x="164.5" y="-29.5" font-family="Helvetica,sans-Serif" font-size="10.00">+ Assign()</text>
<text text-anchor="start" x="164.5" y="-18.5" font-family="Helvetica,sans-Serif" font-size="10.00">+ reset()</text>
<text text-anchor="start" x="164.5" y="-7.5" font-family="Helvetica,sans-Serif" font-size="10.00">+ sub_expression_evaluation()</text>
</a>
</g>
</g>
<!-- Node2 -->
<g id="node2" class="node">
<title>Node2</title>
<g id="a_node2"><a xlink:title=" ">
<polygon fill="none" stroke="#bfbfbf" points="0,-204.5 0,-261.5 35,-261.5 35,-204.5 0,-204.5"/>
<text text-anchor="middle" x="17.5" y="-249.5" font-family="Helvetica,sans-Serif" font-size="10.00">LHS</text>
<polyline fill="none" stroke="#bfbfbf" points="0,-242.5 35,-242.5 "/>
<text text-anchor="middle" x="17.5" y="-230.5" font-family="Helvetica,sans-Serif" font-size="10.00"> </text>
<polyline fill="none" stroke="#bfbfbf" points="0,-223.5 35,-223.5 "/>
<text text-anchor="middle" x="17.5" y="-211.5" font-family="Helvetica,sans-Serif" font-size="10.00"> </text>
</a>
</g>
</g>
<!-- Node2&#45;&gt;Node1 -->
<g id="edge1" class="edge">
<title>Node2&#45;&gt;Node1</title>
<path fill="none" stroke="#404040" d="M30.42,-204.44C43.22,-179.62 64.89,-143.53 92.5,-120 108.06,-106.74 126.64,-95.54 145.29,-86.31"/>
<polygon fill="none" stroke="#404040" points="145.42,-86.24 149.12,-80.06 156.26,-81.09 152.56,-87.28 145.42,-86.24"/>
<text text-anchor="middle" x="105.5" y="-150.5" font-family="Helvetica,sans-Serif" font-size="10.00"> +lhs</text>
</g>
<!-- Node3 -->
<g id="node3" class="node">
<title>Node3</title>
<g id="a_node3"><a xlink:title=" ">
<polygon fill="none" stroke="#bfbfbf" points="53.5,-204.5 53.5,-261.5 179.5,-261.5 179.5,-204.5 53.5,-204.5"/>
<text text-anchor="middle" x="116.5" y="-249.5" font-family="Helvetica,sans-Serif" font-size="10.00">static constexpr size_t</text>
<polyline fill="none" stroke="#bfbfbf" points="53.5,-242.5 179.5,-242.5 "/>
<text text-anchor="middle" x="116.5" y="-230.5" font-family="Helvetica,sans-Serif" font-size="10.00"> </text>
<polyline fill="none" stroke="#bfbfbf" points="53.5,-223.5 179.5,-223.5 "/>
<text text-anchor="middle" x="116.5" y="-211.5" font-family="Helvetica,sans-Serif" font-size="10.00"> </text>
</a>
</g>
</g>
<!-- Node3&#45;&gt;Node1 -->
<g id="edge2" class="edge">
<title>Node3&#45;&gt;Node1</title>
<path fill="none" stroke="#404040" d="M119.38,-204.07C122.99,-180.01 130.98,-145.26 148.5,-120 150.76,-116.74 153.23,-113.57 155.87,-110.5"/>
<polygon fill="none" stroke="#404040" points="156,-110.35 157.18,-103.24 164.21,-101.59 163.02,-108.71 156,-110.35"/>
<text text-anchor="middle" x="190.5" y="-178" font-family="Helvetica,sans-Serif" font-size="10.00"> +CThread</text>
<text text-anchor="middle" x="190.5" y="-167" font-family="Helvetica,sans-Serif" font-size="10.00">+LeafType</text>
<text text-anchor="middle" x="190.5" y="-156" font-family="Helvetica,sans-Serif" font-size="10.00">+Level</text>
<text text-anchor="middle" x="190.5" y="-145" font-family="Helvetica,sans-Serif" font-size="10.00">+ND_Category</text>
<text text-anchor="middle" x="190.5" y="-134" font-family="Helvetica,sans-Serif" font-size="10.00">+Operation_type</text>
<text text-anchor="middle" x="190.5" y="-123" font-family="Helvetica,sans-Serif" font-size="10.00">+RThread</text>
</g>
<!-- Node4 -->
<g id="node4" class="node">
<title>Node4</title>
<g id="a_node4"><a xlink:title=" ">
<polygon fill="none" stroke="#bfbfbf" points="198,-204.5 198,-261.5 317,-261.5 317,-204.5 198,-204.5"/>
<text text-anchor="middle" x="257.5" y="-249.5" font-family="Helvetica,sans-Serif" font-size="10.00">static constexpr bool</text>
<polyline fill="none" stroke="#bfbfbf" points="198,-242.5 317,-242.5 "/>
<text text-anchor="middle" x="257.5" y="-230.5" font-family="Helvetica,sans-Serif" font-size="10.00"> </text>
<polyline fill="none" stroke="#bfbfbf" points="198,-223.5 317,-223.5 "/>
<text text-anchor="middle" x="257.5" y="-211.5" font-family="Helvetica,sans-Serif" font-size="10.00"> </text>
</a>
</g>
</g>
<!-- Node4&#45;&gt;Node1 -->
<g id="edge3" class="edge">
<title>Node4&#45;&gt;Node1</title>
<path fill="none" stroke="#404040" d="M246.19,-204.17C244.26,-198.26 242.54,-192 241.5,-186 237.47,-162.69 236.49,-136.76 236.76,-113.97"/>
<polygon fill="none" stroke="#404040" points="236.77,-113.66 232.9,-107.57 237.03,-101.66 240.9,-107.75 236.77,-113.66"/>
<text text-anchor="start" x="241.5" y="-161.5" font-family="Helvetica,sans-Serif" font-size="10.00"> +SubExpressionEvaluation</text>
<text text-anchor="middle" x="309" y="-150.5" font-family="Helvetica,sans-Serif" font-size="10.00">Needed</text>
<text text-anchor="middle" x="309" y="-139.5" font-family="Helvetica,sans-Serif" font-size="10.00">+has_out</text>
</g>
<!-- Node5 -->
<g id="node5" class="node">
<title>Node5</title>
<g id="a_node5"><a xlink:title=" ">
<polygon fill="none" stroke="#bfbfbf" points="380,-204.5 380,-261.5 417,-261.5 417,-204.5 380,-204.5"/>
<text text-anchor="middle" x="398.5" y="-249.5" font-family="Helvetica,sans-Serif" font-size="10.00">RHS</text>
<polyline fill="none" stroke="#bfbfbf" points="380,-242.5 417,-242.5 "/>
<text text-anchor="middle" x="398.5" y="-230.5" font-family="Helvetica,sans-Serif" font-size="10.00"> </text>
<polyline fill="none" stroke="#bfbfbf" points="380,-223.5 417,-223.5 "/>
<text text-anchor="middle" x="398.5" y="-211.5" font-family="Helvetica,sans-Serif" font-size="10.00"> </text>
</a>
</g>
</g>
<!-- Node5&#45;&gt;Node1 -->
<g id="edge4" class="edge">
<title>Node5&#45;&gt;Node1</title>
<path fill="none" stroke="#404040" d="M399.61,-204.39C399.19,-179.88 394.98,-144.28 376.5,-120 365.72,-105.83 351.18,-94.41 335.61,-85.27"/>
<polygon fill="none" stroke="#404040" points="335.23,-85.06 328.05,-85.69 324.7,-79.3 331.89,-78.67 335.23,-85.06"/>
<text text-anchor="middle" x="412" y="-150.5" font-family="Helvetica,sans-Serif" font-size="10.00"> +rhs</text>
</g>
<!-- Node6 -->
<g id="node6" class="node">
<title>Node6</title>
<g id="a_node6"><a xlink:title=" ">
<polygon fill="none" stroke="#bfbfbf" points="435.5,-204.5 435.5,-261.5 473.5,-261.5 473.5,-204.5 435.5,-204.5"/>
<text text-anchor="middle" x="454.5" y="-249.5" font-family="Helvetica,sans-Serif" font-size="10.00">bool</text>
<polyline fill="none" stroke="#bfbfbf" points="435.5,-242.5 473.5,-242.5 "/>
<text text-anchor="middle" x="454.5" y="-230.5" font-family="Helvetica,sans-Serif" font-size="10.00"> </text>
<polyline fill="none" stroke="#bfbfbf" points="435.5,-223.5 473.5,-223.5 "/>
<text text-anchor="middle" x="454.5" y="-211.5" font-family="Helvetica,sans-Serif" font-size="10.00"> </text>
</a>
</g>
</g>
<!-- Node6&#45;&gt;Node1 -->
<g id="edge5" class="edge">
<title>Node6&#45;&gt;Node1</title>
<path fill="none" stroke="#404040" d="M455.43,-204.27C454.78,-179.34 449.92,-143.16 429.5,-120 405.67,-92.97 370.3,-76.69 336.57,-66.87"/>
<polygon fill="none" stroke="#404040" points="336.31,-66.8 329.48,-69.09 324.73,-63.66 331.57,-61.37 336.31,-66.8"/>
<text text-anchor="start" x="453.5" y="-172.5" font-family="Helvetica,sans-Serif" font-size="10.00"> +SubExpressionEvaluation</text>
<text text-anchor="middle" x="521" y="-161.5" font-family="Helvetica,sans-Serif" font-size="10.00">Needed</text>
<text text-anchor="middle" x="521" y="-150.5" font-family="Helvetica,sans-Serif" font-size="10.00">+has_out</text>
<text text-anchor="start" x="453.5" y="-139.5" font-family="Helvetica,sans-Serif" font-size="10.00">+subexpr_execution</text>
<text text-anchor="middle" x="521" y="-128.5" font-family="Helvetica,sans-Serif" font-size="10.00">_reseter</text>
</g>
</g>
</svg>
