<?xml version="1.0" encoding="UTF-8" standalone="no"?>
<!DOCTYPE svg PUBLIC "-//W3C//DTD SVG 1.1//EN"
 "http://www.w3.org/Graphics/SVG/1.1/DTD/svg11.dtd">
<!-- Generated by graphviz version 2.43.0 (0)
 -->
<!-- Title: visioncpp::internal::GlobalNeighbour&lt; T &gt; Pages: 1 -->
<svg width="176pt" height="248pt"
 viewBox="0.00 0.00 175.50 248.00" xmlns="http://www.w3.org/2000/svg" xmlns:xlink="http://www.w3.org/1999/xlink">
<g id="graph0" class="graph" transform="scale(1 1) rotate(0) translate(4 244)">
<title>visioncpp::internal::GlobalNeighbour&lt; T &gt;</title>
<!-- Node1 -->
<g id="node1" class="node">
<title>Node1</title>
<g id="a_node1"><a xlink:title="GlobalNeighbour is used to provide local access for each element of the global memory based on the Co...">
<polygon fill="#bfbfbf" stroke="black" points="2,-0.5 2,-101.5 135,-101.5 135,-0.5 2,-0.5"/>
<text text-anchor="start" x="10" y="-89.5" font-family="Helvetica,sans-Serif" font-size="10.00">visioncpp::internal</text>
<text text-anchor="middle" x="68.5" y="-78.5" font-family="Helvetica,sans-Serif" font-size="10.00">::GlobalNeighbour&lt; T &gt;</text>
<polyline fill="none" stroke="black" points="2,-71.5 135,-71.5 "/>
<text text-anchor="middle" x="68.5" y="-59.5" font-family="Helvetica,sans-Serif" font-size="10.00"> </text>
<polyline fill="none" stroke="black" points="2,-52.5 135,-52.5 "/>
<text text-anchor="start" x="10" y="-40.5" font-family="Helvetica,sans-Serif" font-size="10.00">+ GlobalNeighbour()</text>
<text text-anchor="start" x="10" y="-29.5" font-family="Helvetica,sans-Serif" font-size="10.00">+ set_offset()</text>
<text text-anchor="start" x="10" y="-18.5" font-family="Helvetica,sans-Serif" font-size="10.00">+ at()</text>
<text text-anchor="start" x="10" y="-7.5" font-family="Helvetica,sans-Serif" font-size="10.00">+ at()</text>
</a>
</g>
</g>
<!-- Node2 -->
<g id="node2" class="node">
<title>Node2</title>
<g id="a_node2"><a xlink:title=" ">
<polygon fill="none" stroke="#bfbfbf" points="0,-182.5 0,-239.5 45,-239.5 45,-182.5 0,-182.5"/>
<text text-anchor="middle" x="22.5" y="-227.5" font-family="Helvetica,sans-Serif" font-size="10.00">size_t</text>
<polyline fill="none" stroke="#bfbfbf" points="0,-220.5 45,-220.5 "/>
<text text-anchor="middle" x="22.5" y="-208.5" font-family="Helvetica,sans-Serif" font-size="10.00"> </text>
<polyline fill="none" stroke="#bfbfbf" points="0,-201.5 45,-201.5 "/>
<text text-anchor="middle" x="22.5" y="-189.5" font-family="Helvetica,sans-Serif" font-size="10.00"> </text>
</a>
</g>
</g>
<!-- Node2&#45;&gt;Node1 -->
<g id="edge1" class="edge">
<title>Node2&#45;&gt;Node1</title>
<path fill="none" stroke="#404040" d="M30.51,-182.48C36.09,-163.33 43.74,-137.04 50.72,-113.07"/>
<polygon fill="none" stroke="#404040" points="50.72,-113.05 48.56,-106.17 54.08,-101.53 56.24,-108.41 50.72,-113.05"/>
<text text-anchor="middle" x="64.5" y="-156" font-family="Helvetica,sans-Serif" font-size="10.00"> +I_c</text>
<text text-anchor="middle" x="64.5" y="-145" font-family="Helvetica,sans-Serif" font-size="10.00">+I_r</text>
<text text-anchor="middle" x="64.5" y="-134" font-family="Helvetica,sans-Serif" font-size="10.00">+cols</text>
<text text-anchor="middle" x="64.5" y="-123" font-family="Helvetica,sans-Serif" font-size="10.00">+rows</text>
</g>
<!-- Node3 -->
<g id="node3" class="node">
<title>Node3</title>
<g id="a_node3"><a xlink:title=" ">
<polygon fill="none" stroke="#bfbfbf" points="63.5,-182.5 63.5,-239.5 167.5,-239.5 167.5,-182.5 63.5,-182.5"/>
<text text-anchor="middle" x="115.5" y="-227.5" font-family="Helvetica,sans-Serif" font-size="10.00">global_ptr&lt; T &gt; &amp;</text>
<polyline fill="none" stroke="#bfbfbf" points="63.5,-220.5 167.5,-220.5 "/>
<text text-anchor="middle" x="115.5" y="-208.5" font-family="Helvetica,sans-Serif" font-size="10.00"> </text>
<polyline fill="none" stroke="#bfbfbf" points="63.5,-201.5 167.5,-201.5 "/>
<text text-anchor="middle" x="115.5" y="-189.5" font-family="Helvetica,sans-Serif" font-size="10.00"> </text>
</a>
</g>
</g>
<!-- Node3&#45;&gt;Node1 -->
<g id="edge2" class="edge">
<title>Node3&#45;&gt;Node1</title>
<path fill="none" stroke="#404040" d="M107.31,-182.48C101.62,-163.33 93.8,-137.04 86.67,-113.07"/>
<polygon fill="none" stroke="#404040" points="86.66,-113.03 81.11,-108.42 83.23,-101.53 88.78,-106.14 86.66,-113.03"/>
<text text-anchor="middle" x="114" y="-139.5" font-family="Helvetica,sans-Serif" font-size="10.00"> +ptr</text>
</g>
</g>
</svg>
