<?xml version="1.0" encoding="UTF-8" standalone="no"?>
<!DOCTYPE svg PUBLIC "-//W3C//DTD SVG 1.1//EN"
 "http://www.w3.org/Graphics/SVG/1.1/DTD/svg11.dtd">
<!-- Generated by graphviz version 2.36.0 (20140111.2315)
 -->
<!-- Title: visioncpp::internal::tools::tuple::Tuple&lt; Ts &gt; Pages: 1 -->
<svg width="138pt" height="206pt"
 viewBox="0.00 0.00 138.00 206.00" xmlns="http://www.w3.org/2000/svg" xmlns:xlink="http://www.w3.org/1999/xlink">
<g id="graph0" class="graph" transform="scale(1 1) rotate(0) translate(4 202)">
<title>visioncpp::internal::tools::tuple::Tuple&lt; Ts &gt;</title>
<!-- Node1 -->
<g id="node1" class="node"><title>Node1</title>
<polygon fill="#bfbfbf" stroke="black" points="0,-129 0,-197 130,-197 130,-129 0,-129"/>
<text text-anchor="start" x="8" y="-185" font-family="Helvetica,sans-Serif" font-size="10.00">visioncpp::internal</text>
<text text-anchor="middle" x="65" y="-174" font-family="Helvetica,sans-Serif" font-size="10.00">::tools::tuple::Tuple&lt; Ts &gt;</text>
<polyline fill="none" stroke="black" points="0,-167 130,-167 "/>
<text text-anchor="middle" x="65" y="-155" font-family="Helvetica,sans-Serif" font-size="10.00"> </text>
<polyline fill="none" stroke="black" points="0,-148 130,-148 "/>
<text text-anchor="middle" x="65" y="-136" font-family="Helvetica,sans-Serif" font-size="10.00"> </text>
</g>
<!-- Node2 -->
<g id="node2" class="node"><title>Node2</title>
<g id="a_node2"><a xlink:href="structvisioncpp_1_1internal_1_1tools_1_1tuple_1_1Tuple.html" target="_top" xlink:title="{visioncpp::internal\l::tools::tuple::Tuple\l\&lt; Ts...\&gt;\n||}">
<polygon fill="none" stroke="black" points="14.5,-0.5 14.5,-79.5 115.5,-79.5 115.5,-0.5 14.5,-0.5"/>
<text text-anchor="start" x="22.5" y="-67.5" font-family="Helvetica,sans-Serif" font-size="10.00">visioncpp::internal</text>
<text text-anchor="start" x="22.5" y="-56.5" font-family="Helvetica,sans-Serif" font-size="10.00">::tools::tuple::Tuple</text>
<text text-anchor="middle" x="65" y="-45.5" font-family="Helvetica,sans-Serif" font-size="10.00">&lt; Ts...&gt;</text>
<polyline fill="none" stroke="black" points="14.5,-38.5 115.5,-38.5 "/>
<text text-anchor="middle" x="65" y="-26.5" font-family="Helvetica,sans-Serif" font-size="10.00"> </text>
<polyline fill="none" stroke="black" points="14.5,-19.5 115.5,-19.5 "/>
<text text-anchor="middle" x="65" y="-7.5" font-family="Helvetica,sans-Serif" font-size="10.00"> </text>
</a>
</g>
</g>
<!-- Node1&#45;&gt;Node2 -->
<g id="edge1" class="edge"><title>Node1&#45;&gt;Node2</title>
<path fill="none" stroke="orange" d="M65,-118.557C65,-105.828 65,-92.0025 65,-79.597"/>
<polygon fill="orange" stroke="orange" points="61.5001,-118.936 65,-128.936 68.5001,-118.936 61.5001,-118.936"/>
<text text-anchor="middle" x="84.5" y="-101.5" font-family="Helvetica,sans-Serif" font-size="10.00"> &lt; Ts...&gt;</text>
</g>
</g>
</svg>
