<?xml version="1.0" encoding="UTF-8" standalone="no"?>
<!DOCTYPE svg PUBLIC "-//W3C//DTD SVG 1.1//EN"
 "http://www.w3.org/Graphics/SVG/1.1/DTD/svg11.dtd">
<!-- Generated by graphviz version 2.43.0 (0)
 -->
<!-- Title: visioncpp::internal::ConstMemory&lt; T &gt; Pages: 1 -->
<svg width="127pt" height="259pt"
 viewBox="0.00 0.00 127.00 259.00" xmlns="http://www.w3.org/2000/svg" xmlns:xlink="http://www.w3.org/1999/xlink">
<g id="graph0" class="graph" transform="scale(1 1) rotate(0) translate(4 255)">
<title>visioncpp::internal::ConstMemory&lt; T &gt;</title>
<!-- Node1 -->
<g id="node1" class="node">
<title>Node1</title>
<g id="a_node1"><a xlink:title="The definition can be found in ConstMemory.">
<polygon fill="#bfbfbf" stroke="black" points="0,-0.5 0,-145.5 119,-145.5 119,-0.5 0,-0.5"/>
<text text-anchor="start" x="8" y="-133.5" font-family="Helvetica,sans-Serif" font-size="10.00">visioncpp::internal</text>
<text text-anchor="middle" x="59.5" y="-122.5" font-family="Helvetica,sans-Serif" font-size="10.00">::ConstMemory&lt; T &gt;</text>
<polyline fill="none" stroke="black" points="0,-115.5 119,-115.5 "/>
<text text-anchor="middle" x="59.5" y="-103.5" font-family="Helvetica,sans-Serif" font-size="10.00"> </text>
<polyline fill="none" stroke="black" points="0,-96.5 119,-96.5 "/>
<text text-anchor="start" x="8" y="-84.5" font-family="Helvetica,sans-Serif" font-size="10.00">+ ConstMemory()</text>
<text text-anchor="start" x="8" y="-73.5" font-family="Helvetica,sans-Serif" font-size="10.00">+ ConstMemory()</text>
<text text-anchor="start" x="8" y="-62.5" font-family="Helvetica,sans-Serif" font-size="10.00">+ operator[]()</text>
<text text-anchor="start" x="8" y="-51.5" font-family="Helvetica,sans-Serif" font-size="10.00">+ operator[]()</text>
<text text-anchor="start" x="8" y="-40.5" font-family="Helvetica,sans-Serif" font-size="10.00">+ operator[]()</text>
<text text-anchor="start" x="8" y="-29.5" font-family="Helvetica,sans-Serif" font-size="10.00">+ operator[]()</text>
<text text-anchor="start" x="8" y="-18.5" font-family="Helvetica,sans-Serif" font-size="10.00">+ operator[]()</text>
<text text-anchor="start" x="8" y="-7.5" font-family="Helvetica,sans-Serif" font-size="10.00">+ get_pointer()</text>
</a>
</g>
</g>
<!-- Node2 -->
<g id="node2" class="node">
<title>Node2</title>
<g id="a_node2"><a xlink:title=" ">
<polygon fill="none" stroke="#bfbfbf" points="33.5,-193.5 33.5,-250.5 85.5,-250.5 85.5,-193.5 33.5,-193.5"/>
<text text-anchor="middle" x="59.5" y="-238.5" font-family="Helvetica,sans-Serif" font-size="10.00">const T</text>
<polyline fill="none" stroke="#bfbfbf" points="33.5,-231.5 85.5,-231.5 "/>
<text text-anchor="middle" x="59.5" y="-219.5" font-family="Helvetica,sans-Serif" font-size="10.00"> </text>
<polyline fill="none" stroke="#bfbfbf" points="33.5,-212.5 85.5,-212.5 "/>
<text text-anchor="middle" x="59.5" y="-200.5" font-family="Helvetica,sans-Serif" font-size="10.00"> </text>
</a>
</g>
</g>
<!-- Node2&#45;&gt;Node1 -->
<g id="edge1" class="edge">
<title>Node2&#45;&gt;Node1</title>
<path fill="none" stroke="#404040" d="M59.5,-193.35C59.5,-183.01 59.5,-170.66 59.5,-157.89"/>
<polygon fill="none" stroke="#404040" points="59.5,-157.56 55.5,-151.56 59.5,-145.56 63.5,-151.56 59.5,-157.56"/>
<text text-anchor="middle" x="67.5" y="-167" font-family="Helvetica,sans-Serif" font-size="10.00"> +r</text>
</g>
</g>
</svg>
