<?xml version="1.0" encoding="UTF-8" standalone="no"?>
<!DOCTYPE svg PUBLIC "-//W3C//DTD SVG 1.1//EN"
 "http://www.w3.org/Graphics/SVG/1.1/DTD/svg11.dtd">
<!-- Generated by graphviz version 2.36.0 (20140111.2315)
 -->
<!-- Title: visioncpp::internal::EvalExpr&lt; LeafNode&lt; PlaceHolder&lt; Memory_Type, N, Cols, Rows, Sc &gt;, LVL &gt;, Loc, Params...&gt;::eval_neighbour Pages: 1 -->
<svg width="300pt" height="87pt"
 viewBox="0.00 0.00 300.00 87.00" xmlns="http://www.w3.org/2000/svg" xmlns:xlink="http://www.w3.org/1999/xlink">
<g id="graph0" class="graph" transform="scale(1 1) rotate(0) translate(4 83)">
<title>visioncpp::internal::EvalExpr&lt; LeafNode&lt; PlaceHolder&lt; Memory_Type, N, Cols, Rows, Sc &gt;, LVL &gt;, Loc, Params...&gt;::eval_neighbour</title>
<!-- Node1 -->
<g id="node1" class="node"><title>Node1</title>
<polygon fill="#bfbfbf" stroke="black" points="0.5,-2 0.5,-76 149.5,-76 149.5,-2 0.5,-2"/>
<text text-anchor="start" x="8.5" y="-64" font-family="Helvetica,sans-Serif" font-size="10.00">visioncpp::internal</text>
<text text-anchor="start" x="8.5" y="-53" font-family="Helvetica,sans-Serif" font-size="10.00">::EvalExpr&lt; LeafNode</text>
<text text-anchor="start" x="8.5" y="-42" font-family="Helvetica,sans-Serif" font-size="10.00">&lt; PlaceHolder&lt; Memory</text>
<text text-anchor="start" x="8.5" y="-31" font-family="Helvetica,sans-Serif" font-size="10.00">_Type, N, Cols, Rows,</text>
<text text-anchor="start" x="8.5" y="-20" font-family="Helvetica,sans-Serif" font-size="10.00"> Sc &gt;, LVL &gt;, Loc, Params...&gt;</text>
<text text-anchor="middle" x="75" y="-9" font-family="Helvetica,sans-Serif" font-size="10.00">::eval_neighbour</text>
</g>
<!-- Node2 -->
<g id="node2" class="node"><title>Node2</title>
<g id="a_node2"><a xlink:href="namespacevisioncpp_1_1internal.html#ae79c3d17a5bae0375be257dfe6fabff2" target="_top" xlink:title="template deduction for Fill struct. ">
<polygon fill="none" stroke="black" points="186.5,-49 186.5,-79 291.5,-79 291.5,-49 186.5,-49"/>
<text text-anchor="start" x="194.5" y="-67" font-family="Helvetica,sans-Serif" font-size="10.00">visioncpp::internal</text>
<text text-anchor="middle" x="239" y="-56" font-family="Helvetica,sans-Serif" font-size="10.00">::fill_local_neighbour</text>
</a>
</g>
</g>
<!-- Node1&#45;&gt;Node2 -->
<g id="edge1" class="edge"><title>Node1&#45;&gt;Node2</title>
<path fill="none" stroke="midnightblue" d="M149.889,-50.4026C158.766,-51.7725 167.758,-53.1601 176.433,-54.4989"/>
<polygon fill="midnightblue" stroke="midnightblue" points="176.03,-57.978 186.447,-56.0442 177.097,-51.0599 176.03,-57.978"/>
</g>
<!-- Node3 -->
<g id="node3" class="node"><title>Node3</title>
<g id="a_node3"><a xlink:href="namespacevisioncpp_1_1internal_1_1tools_1_1tuple.html#ab1645d3d3ed77aaec1d5c958de2a96a0" target="_top" xlink:title="get ">
<polygon fill="none" stroke="black" points="191.5,-0 191.5,-30 286.5,-30 286.5,-0 191.5,-0"/>
<text text-anchor="start" x="199.5" y="-18" font-family="Helvetica,sans-Serif" font-size="10.00">visioncpp::internal</text>
<text text-anchor="middle" x="239" y="-7" font-family="Helvetica,sans-Serif" font-size="10.00">::tools::tuple::get</text>
</a>
</g>
</g>
<!-- Node1&#45;&gt;Node3 -->
<g id="edge2" class="edge"><title>Node1&#45;&gt;Node3</title>
<path fill="none" stroke="midnightblue" d="M149.889,-28.0535C160.404,-26.4958 171.079,-24.9142 181.2,-23.4148"/>
<polygon fill="midnightblue" stroke="midnightblue" points="181.73,-26.8746 191.109,-21.9468 180.704,-19.9502 181.73,-26.8746"/>
</g>
</g>
</svg>
