<?xml version="1.0" encoding="UTF-8" standalone="no"?>
<!DOCTYPE svg PUBLIC "-//W3C//DTD SVG 1.1//EN"
 "http://www.w3.org/Graphics/SVG/1.1/DTD/svg11.dtd">
<!-- Generated by graphviz version 2.43.0 (0)
 -->
<!-- Title: visioncpp::internal::LocalUnaryOp&lt; USROP, InTp &gt; Pages: 1 -->
<svg width="265pt" height="524pt"
 viewBox="0.00 0.00 265.00 524.00" xmlns="http://www.w3.org/2000/svg" xmlns:xlink="http://www.w3.org/1999/xlink">
<g id="graph0" class="graph" transform="scale(1 1) rotate(0) translate(4 520)">
<title>visioncpp::internal::LocalUnaryOp&lt; USROP, InTp &gt;</title>
<!-- Node1 -->
<g id="node1" class="node">
<title>Node1</title>
<g id="a_node1"><a xlink:title="This class is used to encapsulate the local unary functor and the types of each operand in this funct...">
<polygon fill="#bfbfbf" stroke="black" points="76.5,-0.5 76.5,-79.5 215.5,-79.5 215.5,-0.5 76.5,-0.5"/>
<text text-anchor="start" x="84.5" y="-67.5" font-family="Helvetica,sans-Serif" font-size="10.00">visioncpp::internal</text>
<text text-anchor="start" x="84.5" y="-56.5" font-family="Helvetica,sans-Serif" font-size="10.00">::LocalUnaryOp&lt; USROP,</text>
<text text-anchor="middle" x="146" y="-45.5" font-family="Helvetica,sans-Serif" font-size="10.00"> InTp &gt;</text>
<polyline fill="none" stroke="black" points="76.5,-38.5 215.5,-38.5 "/>
<text text-anchor="middle" x="146" y="-26.5" font-family="Helvetica,sans-Serif" font-size="10.00"> </text>
<polyline fill="none" stroke="black" points="76.5,-19.5 215.5,-19.5 "/>
<text text-anchor="middle" x="146" y="-7.5" font-family="Helvetica,sans-Serif" font-size="10.00"> </text>
</a>
</g>
</g>
<!-- Node2 -->
<g id="node2" class="node">
<title>Node2</title>
<g id="a_node2"><a xlink:href="structvisioncpp_1_1internal_1_1LocalNeighbour.html" target="_top" xlink:title=" ">
<polygon fill="none" stroke="black" points="19,-127.5 19,-250.5 161,-250.5 161,-127.5 19,-127.5"/>
<text text-anchor="start" x="27" y="-238.5" font-family="Helvetica,sans-Serif" font-size="10.00">visioncpp::internal</text>
<text text-anchor="middle" x="90" y="-227.5" font-family="Helvetica,sans-Serif" font-size="10.00">::LocalNeighbour&lt; InTp &gt;</text>
<polyline fill="none" stroke="black" points="19,-220.5 161,-220.5 "/>
<text text-anchor="start" x="27" y="-208.5" font-family="Helvetica,sans-Serif" font-size="10.00">+ ptr</text>
<text text-anchor="start" x="27" y="-197.5" font-family="Helvetica,sans-Serif" font-size="10.00">+ I_c</text>
<text text-anchor="start" x="27" y="-186.5" font-family="Helvetica,sans-Serif" font-size="10.00">+ I_r</text>
<polyline fill="none" stroke="black" points="19,-179.5 161,-179.5 "/>
<text text-anchor="start" x="27" y="-167.5" font-family="Helvetica,sans-Serif" font-size="10.00">+ LocalNeighbour()</text>
<text text-anchor="start" x="27" y="-156.5" font-family="Helvetica,sans-Serif" font-size="10.00">+ set_offset()</text>
<text text-anchor="start" x="27" y="-145.5" font-family="Helvetica,sans-Serif" font-size="10.00">+ at()</text>
<text text-anchor="start" x="27" y="-134.5" font-family="Helvetica,sans-Serif" font-size="10.00">+ at()</text>
</a>
</g>
</g>
<!-- Node2&#45;&gt;Node1 -->
<g id="edge1" class="edge">
<title>Node2&#45;&gt;Node1</title>
<path fill="none" stroke="#404040" d="M113.1,-127.36C117.71,-115.26 122.5,-102.68 126.96,-90.99"/>
<polygon fill="none" stroke="#404040" points="127.01,-90.85 125.41,-83.82 131.28,-79.64 132.88,-86.67 127.01,-90.85"/>
<text text-anchor="middle" x="133" y="-101" font-family="Helvetica,sans-Serif" font-size="10.00"> +x</text>
</g>
<!-- Node3 -->
<g id="node3" class="node">
<title>Node3</title>
<g id="a_node3"><a xlink:href="structvisioncpp_1_1internal_1_1LocalNeighbour.html" target="_top" xlink:title="LocalNeighbour is used to provide local access for each element of the local memory based on the Coor...">
<polygon fill="none" stroke="black" points="26.5,-298.5 26.5,-399.5 153.5,-399.5 153.5,-298.5 26.5,-298.5"/>
<text text-anchor="start" x="34.5" y="-387.5" font-family="Helvetica,sans-Serif" font-size="10.00">visioncpp::internal</text>
<text text-anchor="middle" x="90" y="-376.5" font-family="Helvetica,sans-Serif" font-size="10.00">::LocalNeighbour&lt; T &gt;</text>
<polyline fill="none" stroke="black" points="26.5,-369.5 153.5,-369.5 "/>
<text text-anchor="middle" x="90" y="-357.5" font-family="Helvetica,sans-Serif" font-size="10.00"> </text>
<polyline fill="none" stroke="black" points="26.5,-350.5 153.5,-350.5 "/>
<text text-anchor="start" x="34.5" y="-338.5" font-family="Helvetica,sans-Serif" font-size="10.00">+ LocalNeighbour()</text>
<text text-anchor="start" x="34.5" y="-327.5" font-family="Helvetica,sans-Serif" font-size="10.00">+ set_offset()</text>
<text text-anchor="start" x="34.5" y="-316.5" font-family="Helvetica,sans-Serif" font-size="10.00">+ at()</text>
<text text-anchor="start" x="34.5" y="-305.5" font-family="Helvetica,sans-Serif" font-size="10.00">+ at()</text>
</a>
</g>
</g>
<!-- Node3&#45;&gt;Node2 -->
<g id="edge2" class="edge">
<title>Node3&#45;&gt;Node2</title>
<path fill="none" stroke="orange" d="M90,-288.31C90,-276.03 90,-263.09 90,-250.77"/>
<polygon fill="orange" stroke="orange" points="86.5,-288.44 90,-298.44 93.5,-288.44 86.5,-288.44"/>
<text text-anchor="middle" x="113.5" y="-272" font-family="Helvetica,sans-Serif" font-size="10.00"> &lt; InTp &gt;</text>
</g>
<!-- Node4 -->
<g id="node4" class="node">
<title>Node4</title>
<g id="a_node4"><a xlink:title=" ">
<polygon fill="none" stroke="#bfbfbf" points="0,-458.5 0,-515.5 98,-515.5 98,-458.5 0,-458.5"/>
<text text-anchor="middle" x="49" y="-503.5" font-family="Helvetica,sans-Serif" font-size="10.00">local_ptr&lt; T &gt; &amp;</text>
<polyline fill="none" stroke="#bfbfbf" points="0,-496.5 98,-496.5 "/>
<text text-anchor="middle" x="49" y="-484.5" font-family="Helvetica,sans-Serif" font-size="10.00"> </text>
<polyline fill="none" stroke="#bfbfbf" points="0,-477.5 98,-477.5 "/>
<text text-anchor="middle" x="49" y="-465.5" font-family="Helvetica,sans-Serif" font-size="10.00"> </text>
</a>
</g>
</g>
<!-- Node4&#45;&gt;Node3 -->
<g id="edge3" class="edge">
<title>Node4&#45;&gt;Node3</title>
<path fill="none" stroke="#404040" d="M57.3,-458.48C61.38,-444.93 66.49,-428 71.44,-411.58"/>
<polygon fill="none" stroke="#404040" points="71.53,-411.25 69.44,-404.35 75,-399.76 77.1,-406.66 71.53,-411.25"/>
<text text-anchor="middle" x="82.5" y="-426.5" font-family="Helvetica,sans-Serif" font-size="10.00"> +ptr</text>
</g>
<!-- Node5 -->
<g id="node5" class="node">
<title>Node5</title>
<g id="a_node5"><a xlink:title=" ">
<polygon fill="none" stroke="#bfbfbf" points="116.5,-458.5 116.5,-515.5 145.5,-515.5 145.5,-458.5 116.5,-458.5"/>
<text text-anchor="middle" x="131" y="-503.5" font-family="Helvetica,sans-Serif" font-size="10.00">int</text>
<polyline fill="none" stroke="#bfbfbf" points="116.5,-496.5 145.5,-496.5 "/>
<text text-anchor="middle" x="131" y="-484.5" font-family="Helvetica,sans-Serif" font-size="10.00"> </text>
<polyline fill="none" stroke="#bfbfbf" points="116.5,-477.5 145.5,-477.5 "/>
<text text-anchor="middle" x="131" y="-465.5" font-family="Helvetica,sans-Serif" font-size="10.00"> </text>
</a>
</g>
</g>
<!-- Node5&#45;&gt;Node3 -->
<g id="edge4" class="edge">
<title>Node5&#45;&gt;Node3</title>
<path fill="none" stroke="#404040" d="M122.7,-458.48C118.62,-444.93 113.51,-428 108.56,-411.58"/>
<polygon fill="none" stroke="#404040" points="108.47,-411.25 102.9,-406.66 105,-399.76 110.56,-404.35 108.47,-411.25"/>
<text text-anchor="middle" x="129.5" y="-432" font-family="Helvetica,sans-Serif" font-size="10.00"> +I_c</text>
<text text-anchor="middle" x="129.5" y="-421" font-family="Helvetica,sans-Serif" font-size="10.00">+I_r</text>
</g>
<!-- Node6 -->
<g id="node6" class="node">
<title>Node6</title>
<g id="a_node6"><a xlink:title=" ">
<polygon fill="none" stroke="#bfbfbf" points="179.5,-160.5 179.5,-217.5 224.5,-217.5 224.5,-160.5 179.5,-160.5"/>
<text text-anchor="middle" x="202" y="-205.5" font-family="Helvetica,sans-Serif" font-size="10.00">size_t</text>
<polyline fill="none" stroke="#bfbfbf" points="179.5,-198.5 224.5,-198.5 "/>
<text text-anchor="middle" x="202" y="-186.5" font-family="Helvetica,sans-Serif" font-size="10.00"> </text>
<polyline fill="none" stroke="#bfbfbf" points="179.5,-179.5 224.5,-179.5 "/>
<text text-anchor="middle" x="202" y="-167.5" font-family="Helvetica,sans-Serif" font-size="10.00"> </text>
</a>
</g>
</g>
<!-- Node6&#45;&gt;Node1 -->
<g id="edge5" class="edge">
<title>Node6&#45;&gt;Node1</title>
<path fill="none" stroke="#404040" d="M191.47,-160.35C184.04,-140.86 173.88,-114.2 165.05,-91.02"/>
<polygon fill="none" stroke="#404040" points="164.98,-90.83 159.11,-86.65 160.71,-79.62 166.59,-83.8 164.98,-90.83"/>
<text text-anchor="middle" x="213.5" y="-101" font-family="Helvetica,sans-Serif" font-size="10.00"> +Operation_type</text>
</g>
</g>
</svg>
