<?xml version="1.0" encoding="UTF-8" standalone="no"?>
<!DOCTYPE svg PUBLIC "-//W3C//DTD SVG 1.1//EN"
 "http://www.w3.org/Graphics/SVG/1.1/DTD/svg11.dtd">
<!-- Generated by graphviz version 2.36.0 (20140111.2315)
 -->
<!-- Title: visioncpp::internal::OpTP&lt; true, OPType, OPType &gt; Pages: 1 -->
<svg width="143pt" height="194pt"
 viewBox="0.00 0.00 143.00 194.00" xmlns="http://www.w3.org/2000/svg" xmlns:xlink="http://www.w3.org/1999/xlink">
<g id="graph0" class="graph" transform="scale(1 1) rotate(0) translate(4 190)">
<title>visioncpp::internal::OpTP&lt; true, OPType, OPType &gt;</title>
<!-- Node1 -->
<g id="node1" class="node"><title>Node1</title>
<polygon fill="#bfbfbf" stroke="black" points="-0.5,-0.5 -0.5,-79.5 118.5,-79.5 118.5,-0.5 -0.5,-0.5"/>
<text text-anchor="start" x="7.5" y="-67.5" font-family="Helvetica,sans-Serif" font-size="10.00">visioncpp::internal</text>
<text text-anchor="start" x="7.5" y="-56.5" font-family="Helvetica,sans-Serif" font-size="10.00">::OpTP&lt; true, OPType,</text>
<text text-anchor="middle" x="59" y="-45.5" font-family="Helvetica,sans-Serif" font-size="10.00"> OPType &gt;</text>
<polyline fill="none" stroke="black" points="-0.5,-38.5 118.5,-38.5 "/>
<text text-anchor="middle" x="59" y="-26.5" font-family="Helvetica,sans-Serif" font-size="10.00"> </text>
<polyline fill="none" stroke="black" points="-0.5,-19.5 118.5,-19.5 "/>
<text text-anchor="middle" x="59" y="-7.5" font-family="Helvetica,sans-Serif" font-size="10.00"> </text>
</g>
<!-- Node2 -->
<g id="node2" class="node"><title>Node2</title>
<polygon fill="none" stroke="#bfbfbf" points="37.5,-128.5 37.5,-185.5 80.5,-185.5 80.5,-128.5 37.5,-128.5"/>
<text text-anchor="middle" x="59" y="-173.5" font-family="Helvetica,sans-Serif" font-size="10.00">size_t</text>
<polyline fill="none" stroke="#bfbfbf" points="37.5,-166.5 80.5,-166.5 "/>
<text text-anchor="middle" x="59" y="-154.5" font-family="Helvetica,sans-Serif" font-size="10.00"> </text>
<polyline fill="none" stroke="#bfbfbf" points="37.5,-147.5 80.5,-147.5 "/>
<text text-anchor="middle" x="59" y="-135.5" font-family="Helvetica,sans-Serif" font-size="10.00"> </text>
</g>
<!-- Node2&#45;&gt;Node1 -->
<g id="edge1" class="edge"><title>Node2&#45;&gt;Node1</title>
<path fill="none" stroke="#404040" d="M59,-128.455C59,-117.491 59,-104.511 59,-91.9527"/>
<polygon fill="none" stroke="#404040" points="59.0001,-91.6258 55,-85.6258 59,-79.6258 63,-85.6257 59.0001,-91.6258"/>
<text text-anchor="middle" x="97" y="-101.5" font-family="Helvetica,sans-Serif" font-size="10.00"> +Operation_type</text>
</g>
</g>
</svg>
