<?xml version="1.0" encoding="UTF-8" standalone="no"?>
<!DOCTYPE svg PUBLIC "-//W3C//DTD SVG 1.1//EN"
 "http://www.w3.org/Graphics/SVG/1.1/DTD/svg11.dtd">
<!-- Generated by graphviz version 2.43.0 (0)
 -->
<!-- Title: visioncpp::internal::VirtualMemory&lt; PlcType, Node, LC, LR, LCT, LRT &gt; Pages: 1 -->
<svg width="310pt" height="248pt"
 viewBox="0.00 0.00 310.00 248.00" xmlns="http://www.w3.org/2000/svg" xmlns:xlink="http://www.w3.org/1999/xlink">
<g id="graph0" class="graph" transform="scale(1 1) rotate(0) translate(4 244)">
<title>visioncpp::internal::VirtualMemory&lt; PlcType, Node, LC, LR, LCT, LRT &gt;</title>
<!-- Node1 -->
<g id="node1" class="node">
<title>Node1</title>
<g id="a_node1"><a xlink:title="the definition is in VirtualMemory">
<polygon fill="#bfbfbf" stroke="black" points="9,-0.5 9,-90.5 177,-90.5 177,-0.5 9,-0.5"/>
<text text-anchor="start" x="17" y="-78.5" font-family="Helvetica,sans-Serif" font-size="10.00">visioncpp::internal</text>
<text text-anchor="start" x="17" y="-67.5" font-family="Helvetica,sans-Serif" font-size="10.00">::VirtualMemory&lt; PlcType,</text>
<text text-anchor="middle" x="93" y="-56.5" font-family="Helvetica,sans-Serif" font-size="10.00"> Node, LC, LR, LCT, LRT &gt;</text>
<polyline fill="none" stroke="black" points="9,-49.5 177,-49.5 "/>
<text text-anchor="middle" x="93" y="-37.5" font-family="Helvetica,sans-Serif" font-size="10.00"> </text>
<polyline fill="none" stroke="black" points="9,-30.5 177,-30.5 "/>
<text text-anchor="start" x="17" y="-18.5" font-family="Helvetica,sans-Serif" font-size="10.00">+ VirtualMemory()</text>
<text text-anchor="start" x="17" y="-7.5" font-family="Helvetica,sans-Serif" font-size="10.00">+ sub_expression_evaluation()</text>
</a>
</g>
</g>
<!-- Node2 -->
<g id="node2" class="node">
<title>Node2</title>
<g id="a_node2"><a xlink:title=" ">
<polygon fill="none" stroke="#bfbfbf" points="0,-182.5 0,-239.5 42,-239.5 42,-182.5 0,-182.5"/>
<text text-anchor="middle" x="21" y="-227.5" font-family="Helvetica,sans-Serif" font-size="10.00">Node</text>
<polyline fill="none" stroke="#bfbfbf" points="0,-220.5 42,-220.5 "/>
<text text-anchor="middle" x="21" y="-208.5" font-family="Helvetica,sans-Serif" font-size="10.00"> </text>
<polyline fill="none" stroke="#bfbfbf" points="0,-201.5 42,-201.5 "/>
<text text-anchor="middle" x="21" y="-189.5" font-family="Helvetica,sans-Serif" font-size="10.00"> </text>
</a>
</g>
</g>
<!-- Node2&#45;&gt;Node1 -->
<g id="edge1" class="edge">
<title>Node2&#45;&gt;Node1</title>
<path fill="none" stroke="#404040" d="M22.38,-182.24C24.32,-161.25 28.95,-132.19 40,-109 41.31,-106.25 42.78,-103.52 44.36,-100.82"/>
<polygon fill="none" stroke="#404040" points="44.42,-100.72 44.34,-93.51 50.96,-90.66 51.05,-97.87 44.42,-100.72"/>
<text text-anchor="middle" x="64.5" y="-134" font-family="Helvetica,sans-Serif" font-size="10.00"> +subTree</text>
</g>
<!-- Node3 -->
<g id="node3" class="node">
<title>Node3</title>
<g id="a_node3"><a xlink:title=" ">
<polygon fill="none" stroke="#bfbfbf" points="70.5,-182.5 70.5,-239.5 115.5,-239.5 115.5,-182.5 70.5,-182.5"/>
<text text-anchor="middle" x="93" y="-227.5" font-family="Helvetica,sans-Serif" font-size="10.00">size_t</text>
<polyline fill="none" stroke="#bfbfbf" points="70.5,-220.5 115.5,-220.5 "/>
<text text-anchor="middle" x="93" y="-208.5" font-family="Helvetica,sans-Serif" font-size="10.00"> </text>
<polyline fill="none" stroke="#bfbfbf" points="70.5,-201.5 115.5,-201.5 "/>
<text text-anchor="middle" x="93" y="-189.5" font-family="Helvetica,sans-Serif" font-size="10.00"> </text>
</a>
</g>
</g>
<!-- Node3&#45;&gt;Node1 -->
<g id="edge2" class="edge">
<title>Node3&#45;&gt;Node1</title>
<path fill="none" stroke="#404040" d="M93,-182.26C93,-160.54 93,-129.6 93,-102.74"/>
<polygon fill="none" stroke="#404040" points="93,-102.73 89,-96.73 93,-90.73 97,-96.73 93,-102.73"/>
<text text-anchor="middle" x="121.5" y="-156" font-family="Helvetica,sans-Serif" font-size="10.00"> +Channels</text>
<text text-anchor="middle" x="121.5" y="-145" font-family="Helvetica,sans-Serif" font-size="10.00">+Cols</text>
<text text-anchor="middle" x="121.5" y="-134" font-family="Helvetica,sans-Serif" font-size="10.00">+LeafType</text>
<text text-anchor="middle" x="121.5" y="-123" font-family="Helvetica,sans-Serif" font-size="10.00">+Level</text>
<text text-anchor="middle" x="121.5" y="-112" font-family="Helvetica,sans-Serif" font-size="10.00">+Rows</text>
</g>
<!-- Node4 -->
<g id="node4" class="node">
<title>Node4</title>
<g id="a_node4"><a xlink:title=" ">
<polygon fill="none" stroke="#bfbfbf" points="154,-182.5 154,-239.5 192,-239.5 192,-182.5 154,-182.5"/>
<text text-anchor="middle" x="173" y="-227.5" font-family="Helvetica,sans-Serif" font-size="10.00">bool</text>
<polyline fill="none" stroke="#bfbfbf" points="154,-220.5 192,-220.5 "/>
<text text-anchor="middle" x="173" y="-208.5" font-family="Helvetica,sans-Serif" font-size="10.00"> </text>
<polyline fill="none" stroke="#bfbfbf" points="154,-201.5 192,-201.5 "/>
<text text-anchor="middle" x="173" y="-189.5" font-family="Helvetica,sans-Serif" font-size="10.00"> </text>
</a>
</g>
</g>
<!-- Node4&#45;&gt;Node1 -->
<g id="edge3" class="edge">
<title>Node4&#45;&gt;Node1</title>
<path fill="none" stroke="#404040" d="M170.92,-182.07C168.43,-161 162.96,-131.91 151,-109 149.51,-106.15 147.85,-103.33 146.07,-100.55"/>
<polygon fill="none" stroke="#404040" points="146.07,-100.55 139.34,-97.97 139.13,-90.76 145.87,-93.34 146.07,-100.55"/>
<text text-anchor="start" x="167" y="-145" font-family="Helvetica,sans-Serif" font-size="10.00"> +SubExpressionEvaluation</text>
<text text-anchor="middle" x="234.5" y="-134" font-family="Helvetica,sans-Serif" font-size="10.00">Needed</text>
<text text-anchor="middle" x="234.5" y="-123" font-family="Helvetica,sans-Serif" font-size="10.00">+policyType</text>
</g>
</g>
</svg>
