<?xml version="1.0" encoding="UTF-8" standalone="no"?>
<!DOCTYPE svg PUBLIC "-//W3C//DTD SVG 1.1//EN"
 "http://www.w3.org/Graphics/SVG/1.1/DTD/svg11.dtd">
<!-- Generated by graphviz version 2.36.0 (20140111.2315)
 -->
<!-- Title: visioncpp::internal::ExtractAccessor&lt; expr_category::Binary, ParallelCopy&lt; LHSExpr, RHSExpr, Cols, Rows, OffsetColIn, OffsetRowIn, OffsetColOut, OffsetRowOut, LeafType, LVL &gt; &gt;::getTuple Pages: 1 -->
<svg width="698pt" height="82pt"
 viewBox="0.00 0.00 698.00 82.00" xmlns="http://www.w3.org/2000/svg" xmlns:xlink="http://www.w3.org/1999/xlink">
<g id="graph0" class="graph" transform="scale(1 1) rotate(0) translate(4 78)">
<title>visioncpp::internal::ExtractAccessor&lt; expr_category::Binary, ParallelCopy&lt; LHSExpr, RHSExpr, Cols, Rows, OffsetColIn, OffsetRowIn, OffsetColOut, OffsetRowOut, LeafType, LVL &gt; &gt;::getTuple</title>
<!-- Node1 -->
<g id="node1" class="node"><title>Node1</title>
<polygon fill="#bfbfbf" stroke="black" points="0,-0 0,-74 214,-74 214,-0 0,-0"/>
<text text-anchor="start" x="8" y="-62" font-family="Helvetica,sans-Serif" font-size="10.00">visioncpp::internal</text>
<text text-anchor="start" x="8" y="-51" font-family="Helvetica,sans-Serif" font-size="10.00">::ExtractAccessor&lt; expr</text>
<text text-anchor="start" x="8" y="-40" font-family="Helvetica,sans-Serif" font-size="10.00">_category::Binary, ParallelCopy</text>
<text text-anchor="start" x="8" y="-29" font-family="Helvetica,sans-Serif" font-size="10.00">&lt; LHSExpr, RHSExpr, Cols, Rows,</text>
<text text-anchor="start" x="8" y="-18" font-family="Helvetica,sans-Serif" font-size="10.00"> OffsetColIn, OffsetRowIn, OffsetColOut,</text>
<text text-anchor="middle" x="107" y="-7" font-family="Helvetica,sans-Serif" font-size="10.00"> OffsetRowOut, LeafType, LVL &gt; &gt;::getTuple</text>
</g>
<!-- Node2 -->
<g id="node2" class="node"><title>Node2</title>
<g id="a_node2"><a xlink:href="namespacevisioncpp_1_1internal_1_1tools_1_1tuple.html#a047c9626073a7719080ae711a7fbcd12" target="_top" xlink:title="append ">
<polygon fill="none" stroke="black" points="250,-22 250,-52 358,-52 358,-22 250,-22"/>
<text text-anchor="start" x="258" y="-40" font-family="Helvetica,sans-Serif" font-size="10.00">visioncpp::internal</text>
<text text-anchor="middle" x="304" y="-29" font-family="Helvetica,sans-Serif" font-size="10.00">::tools::tuple::append</text>
</a>
</g>
</g>
<!-- Node1&#45;&gt;Node2 -->
<g id="edge1" class="edge"><title>Node1&#45;&gt;Node2</title>
<path fill="none" stroke="midnightblue" d="M214.06,-37C222.727,-37 231.304,-37 239.513,-37"/>
<polygon fill="midnightblue" stroke="midnightblue" points="239.693,-40.5001 249.693,-37 239.693,-33.5001 239.693,-40.5001"/>
</g>
<!-- Node3 -->
<g id="node3" class="node"><title>Node3</title>
<g id="a_node3"><a xlink:href="namespacevisioncpp_1_1internal_1_1tools_1_1tuple.html#a0739601d962b2f5d67f9733bdd49624b" target="_top" xlink:title="append_impl ">
<polygon fill="none" stroke="black" points="394.5,-22 394.5,-52 525.5,-52 525.5,-22 394.5,-22"/>
<text text-anchor="start" x="402.5" y="-40" font-family="Helvetica,sans-Serif" font-size="10.00">visioncpp::internal</text>
<text text-anchor="middle" x="460" y="-29" font-family="Helvetica,sans-Serif" font-size="10.00">::tools::tuple::append_impl</text>
</a>
</g>
</g>
<!-- Node2&#45;&gt;Node3 -->
<g id="edge2" class="edge"><title>Node2&#45;&gt;Node3</title>
<path fill="none" stroke="midnightblue" d="M358.43,-37C366.734,-37 375.443,-37 384.117,-37"/>
<polygon fill="midnightblue" stroke="midnightblue" points="384.256,-40.5001 394.256,-37 384.256,-33.5001 384.256,-40.5001"/>
</g>
<!-- Node4 -->
<g id="node4" class="node"><title>Node4</title>
<g id="a_node4"><a xlink:href="namespacevisioncpp_1_1internal_1_1tools_1_1tuple.html#a327306360f5729315416bf96f49a4d73" target="_top" xlink:title="make_tuple ">
<polygon fill="none" stroke="black" points="562.5,-22 562.5,-52 689.5,-52 689.5,-22 562.5,-22"/>
<text text-anchor="start" x="570.5" y="-40" font-family="Helvetica,sans-Serif" font-size="10.00">visioncpp::internal</text>
<text text-anchor="middle" x="626" y="-29" font-family="Helvetica,sans-Serif" font-size="10.00">::tools::tuple::make_tuple</text>
</a>
</g>
</g>
<!-- Node3&#45;&gt;Node4 -->
<g id="edge3" class="edge"><title>Node3&#45;&gt;Node4</title>
<path fill="none" stroke="midnightblue" d="M525.817,-37C534.44,-37 543.329,-37 552.078,-37"/>
<polygon fill="midnightblue" stroke="midnightblue" points="552.26,-40.5001 562.26,-37 552.26,-33.5001 552.26,-40.5001"/>
</g>
</g>
</svg>
