<?xml version="1.0" encoding="UTF-8" standalone="no"?>
<!DOCTYPE svg PUBLIC "-//W3C//DTD SVG 1.1//EN"
 "http://www.w3.org/Graphics/SVG/1.1/DTD/svg11.dtd">
<!-- Generated by graphviz version 2.43.0 (0)
 -->
<!-- Title: visioncpp::internal::tools::tuple::Tuple&lt; T, Ts... &gt; Pages: 1 -->
<svg width="194pt" height="331pt"
 viewBox="0.00 0.00 194.00 331.00" xmlns="http://www.w3.org/2000/svg" xmlns:xlink="http://www.w3.org/1999/xlink">
<g id="graph0" class="graph" transform="scale(1 1) rotate(0) translate(4 327)">
<title>visioncpp::internal::tools::tuple::Tuple&lt; T, Ts... &gt;</title>
<!-- Node1 -->
<g id="node1" class="node">
<title>Node1</title>
<g id="a_node1"><a xlink:title="Specialisation of the Tuple class when it has at least one element.">
<polygon fill="#bfbfbf" stroke="black" points="77,-0.5 77,-79.5 186,-79.5 186,-0.5 77,-0.5"/>
<text text-anchor="start" x="85" y="-67.5" font-family="Helvetica,sans-Serif" font-size="10.00">visioncpp::internal</text>
<text text-anchor="start" x="85" y="-56.5" font-family="Helvetica,sans-Serif" font-size="10.00">::tools::tuple::Tuple</text>
<text text-anchor="middle" x="131.5" y="-45.5" font-family="Helvetica,sans-Serif" font-size="10.00">&lt; T, Ts... &gt;</text>
<polyline fill="none" stroke="black" points="77,-38.5 186,-38.5 "/>
<text text-anchor="middle" x="131.5" y="-26.5" font-family="Helvetica,sans-Serif" font-size="10.00"> </text>
<polyline fill="none" stroke="black" points="77,-19.5 186,-19.5 "/>
<text text-anchor="start" x="85" y="-7.5" font-family="Helvetica,sans-Serif" font-size="10.00">+ Tuple()</text>
</a>
</g>
</g>
<!-- Node2 -->
<g id="node2" class="node">
<title>Node2</title>
<g id="a_node2"><a xlink:href="structvisioncpp_1_1internal_1_1tools_1_1tuple_1_1Tuple.html" target="_top" xlink:title=" ">
<polygon fill="none" stroke="black" points="16,-127.5 16,-206.5 125,-206.5 125,-127.5 16,-127.5"/>
<text text-anchor="start" x="24" y="-194.5" font-family="Helvetica,sans-Serif" font-size="10.00">visioncpp::internal</text>
<text text-anchor="start" x="24" y="-183.5" font-family="Helvetica,sans-Serif" font-size="10.00">::tools::tuple::Tuple</text>
<text text-anchor="middle" x="70.5" y="-172.5" font-family="Helvetica,sans-Serif" font-size="10.00">&lt; Ts... &gt;</text>
<polyline fill="none" stroke="black" points="16,-165.5 125,-165.5 "/>
<text text-anchor="middle" x="70.5" y="-153.5" font-family="Helvetica,sans-Serif" font-size="10.00"> </text>
<polyline fill="none" stroke="black" points="16,-146.5 125,-146.5 "/>
<text text-anchor="middle" x="70.5" y="-134.5" font-family="Helvetica,sans-Serif" font-size="10.00"> </text>
</a>
</g>
</g>
<!-- Node2&#45;&gt;Node1 -->
<g id="edge1" class="edge">
<title>Node2&#45;&gt;Node1</title>
<path fill="none" stroke="#404040" d="M89.3,-127.48C94.98,-115.83 101.3,-102.88 107.29,-90.62"/>
<polygon fill="none" stroke="#404040" points="107.39,-90.4 106.43,-83.25 112.66,-79.61 113.62,-86.76 107.39,-90.4"/>
<text text-anchor="middle" x="117.5" y="-101" font-family="Helvetica,sans-Serif" font-size="10.00"> +tail</text>
</g>
<!-- Node3 -->
<g id="node3" class="node">
<title>Node3</title>
<g id="a_node3"><a xlink:href="structvisioncpp_1_1internal_1_1tools_1_1tuple_1_1Tuple.html" target="_top" xlink:title="The tuple is a fixed&#45;size collection of heterogeneous values.">
<polygon fill="none" stroke="black" points="0,-254.5 0,-322.5 141,-322.5 141,-254.5 0,-254.5"/>
<text text-anchor="start" x="8" y="-310.5" font-family="Helvetica,sans-Serif" font-size="10.00">visioncpp::internal</text>
<text text-anchor="middle" x="70.5" y="-299.5" font-family="Helvetica,sans-Serif" font-size="10.00">::tools::tuple::Tuple&lt; Ts &gt;</text>
<polyline fill="none" stroke="black" points="0,-292.5 141,-292.5 "/>
<text text-anchor="middle" x="70.5" y="-280.5" font-family="Helvetica,sans-Serif" font-size="10.00"> </text>
<polyline fill="none" stroke="black" points="0,-273.5 141,-273.5 "/>
<text text-anchor="middle" x="70.5" y="-261.5" font-family="Helvetica,sans-Serif" font-size="10.00"> </text>
</a>
</g>
</g>
<!-- Node3&#45;&gt;Node2 -->
<g id="edge2" class="edge">
<title>Node3&#45;&gt;Node2</title>
<path fill="none" stroke="orange" d="M70.5,-244.18C70.5,-231.89 70.5,-218.59 70.5,-206.6"/>
<polygon fill="orange" stroke="orange" points="67,-244.21 70.5,-254.21 74,-244.21 67,-244.21"/>
<text text-anchor="middle" x="93" y="-228" font-family="Helvetica,sans-Serif" font-size="10.00"> &lt; Ts... &gt;</text>
</g>
<!-- Node4 -->
<g id="node4" class="node">
<title>Node4</title>
<g id="a_node4"><a xlink:title=" ">
<polygon fill="none" stroke="#bfbfbf" points="143,-138.5 143,-195.5 172,-195.5 172,-138.5 143,-138.5"/>
<text text-anchor="middle" x="157.5" y="-183.5" font-family="Helvetica,sans-Serif" font-size="10.00">T</text>
<polyline fill="none" stroke="#bfbfbf" points="143,-176.5 172,-176.5 "/>
<text text-anchor="middle" x="157.5" y="-164.5" font-family="Helvetica,sans-Serif" font-size="10.00"> </text>
<polyline fill="none" stroke="#bfbfbf" points="143,-157.5 172,-157.5 "/>
<text text-anchor="middle" x="157.5" y="-145.5" font-family="Helvetica,sans-Serif" font-size="10.00"> </text>
</a>
</g>
</g>
<!-- Node4&#45;&gt;Node1 -->
<g id="edge3" class="edge">
<title>Node4&#45;&gt;Node1</title>
<path fill="none" stroke="#404040" d="M151.73,-138.26C148.87,-124.5 145.32,-107.45 142,-91.49"/>
<polygon fill="none" stroke="#404040" points="141.97,-91.32 136.83,-86.26 139.52,-79.57 144.66,-84.63 141.97,-91.32"/>
<text text-anchor="middle" x="162.5" y="-101" font-family="Helvetica,sans-Serif" font-size="10.00"> +head</text>
</g>
</g>
</svg>
