<?xml version="1.0" encoding="UTF-8" standalone="no"?>
<!DOCTYPE svg PUBLIC "-//W3C//DTD SVG 1.1//EN"
 "http://www.w3.org/Graphics/SVG/1.1/DTD/svg11.dtd">
<!-- Generated by graphviz version 2.36.0 (20140111.2315)
 -->
<!-- Title: visioncpp::internal::ExtractAccessor&lt; expr_category::Binary, Expr &gt;::getTuple Pages: 1 -->
<svg width="608pt" height="60pt"
 viewBox="0.00 0.00 608.00 60.00" xmlns="http://www.w3.org/2000/svg" xmlns:xlink="http://www.w3.org/1999/xlink">
<g id="graph0" class="graph" transform="scale(1 1) rotate(0) translate(4 56)">
<title>visioncpp::internal::ExtractAccessor&lt; expr_category::Binary, Expr &gt;::getTuple</title>
<!-- Node1 -->
<g id="node1" class="node"><title>Node1</title>
<polygon fill="#bfbfbf" stroke="black" points="0.5,-0 0.5,-52 123.5,-52 123.5,-0 0.5,-0"/>
<text text-anchor="start" x="8.5" y="-40" font-family="Helvetica,sans-Serif" font-size="10.00">visioncpp::internal</text>
<text text-anchor="start" x="8.5" y="-29" font-family="Helvetica,sans-Serif" font-size="10.00">::ExtractAccessor&lt; expr</text>
<text text-anchor="start" x="8.5" y="-18" font-family="Helvetica,sans-Serif" font-size="10.00">_category::Binary, Expr</text>
<text text-anchor="middle" x="62" y="-7" font-family="Helvetica,sans-Serif" font-size="10.00"> &gt;::getTuple</text>
</g>
<!-- Node2 -->
<g id="node2" class="node"><title>Node2</title>
<g id="a_node2"><a xlink:href="namespacevisioncpp_1_1internal_1_1tools_1_1tuple.html#a047c9626073a7719080ae711a7fbcd12" target="_top" xlink:title="append ">
<polygon fill="none" stroke="black" points="160,-11 160,-41 268,-41 268,-11 160,-11"/>
<text text-anchor="start" x="168" y="-29" font-family="Helvetica,sans-Serif" font-size="10.00">visioncpp::internal</text>
<text text-anchor="middle" x="214" y="-18" font-family="Helvetica,sans-Serif" font-size="10.00">::tools::tuple::append</text>
</a>
</g>
</g>
<!-- Node1&#45;&gt;Node2 -->
<g id="edge1" class="edge"><title>Node1&#45;&gt;Node2</title>
<path fill="none" stroke="midnightblue" d="M123.578,-26C132.228,-26 141.143,-26 149.84,-26"/>
<polygon fill="midnightblue" stroke="midnightblue" points="149.921,-29.5001 159.921,-26 149.921,-22.5001 149.921,-29.5001"/>
</g>
<!-- Node3 -->
<g id="node3" class="node"><title>Node3</title>
<g id="a_node3"><a xlink:href="namespacevisioncpp_1_1internal_1_1tools_1_1tuple.html#a0739601d962b2f5d67f9733bdd49624b" target="_top" xlink:title="append_impl ">
<polygon fill="none" stroke="black" points="304.5,-11 304.5,-41 435.5,-41 435.5,-11 304.5,-11"/>
<text text-anchor="start" x="312.5" y="-29" font-family="Helvetica,sans-Serif" font-size="10.00">visioncpp::internal</text>
<text text-anchor="middle" x="370" y="-18" font-family="Helvetica,sans-Serif" font-size="10.00">::tools::tuple::append_impl</text>
</a>
</g>
</g>
<!-- Node2&#45;&gt;Node3 -->
<g id="edge2" class="edge"><title>Node2&#45;&gt;Node3</title>
<path fill="none" stroke="midnightblue" d="M268.43,-26C276.734,-26 285.443,-26 294.117,-26"/>
<polygon fill="midnightblue" stroke="midnightblue" points="294.256,-29.5001 304.256,-26 294.256,-22.5001 294.256,-29.5001"/>
</g>
<!-- Node4 -->
<g id="node4" class="node"><title>Node4</title>
<g id="a_node4"><a xlink:href="namespacevisioncpp_1_1internal_1_1tools_1_1tuple.html#a327306360f5729315416bf96f49a4d73" target="_top" xlink:title="make_tuple ">
<polygon fill="none" stroke="black" points="472.5,-11 472.5,-41 599.5,-41 599.5,-11 472.5,-11"/>
<text text-anchor="start" x="480.5" y="-29" font-family="Helvetica,sans-Serif" font-size="10.00">visioncpp::internal</text>
<text text-anchor="middle" x="536" y="-18" font-family="Helvetica,sans-Serif" font-size="10.00">::tools::tuple::make_tuple</text>
</a>
</g>
</g>
<!-- Node3&#45;&gt;Node4 -->
<g id="edge3" class="edge"><title>Node3&#45;&gt;Node4</title>
<path fill="none" stroke="midnightblue" d="M435.817,-26C444.44,-26 453.329,-26 462.078,-26"/>
<polygon fill="midnightblue" stroke="midnightblue" points="462.26,-29.5001 472.26,-26 462.26,-22.5001 462.26,-29.5001"/>
</g>
</g>
</svg>
