<?xml version="1.0" encoding="UTF-8" standalone="no"?>
<!DOCTYPE svg PUBLIC "-//W3C//DTD SVG 1.1//EN"
 "http://www.w3.org/Graphics/SVG/1.1/DTD/svg11.dtd">
<!-- Generated by graphviz version 2.43.0 (0)
 -->
<!-- Title: visioncpp::internal::VirtualMemory Pages: 1 -->
<svg width="308pt" height="237pt"
 viewBox="0.00 0.00 308.00 237.00" xmlns="http://www.w3.org/2000/svg" xmlns:xlink="http://www.w3.org/1999/xlink">
<g id="graph0" class="graph" transform="scale(1 1) rotate(0) translate(4 233)">
<title>visioncpp::internal::VirtualMemory</title>
<!-- Node1 -->
<g id="node1" class="node">
<title>Node1</title>
<g id="a_node1"><a xlink:title="the definition is in VirtualMemory">
<polygon fill="#bfbfbf" stroke="black" points="9,-0.5 9,-79.5 177,-79.5 177,-0.5 9,-0.5"/>
<text text-anchor="start" x="17" y="-67.5" font-family="Helvetica,sans-Serif" font-size="10.00">visioncpp::internal</text>
<text text-anchor="middle" x="93" y="-56.5" font-family="Helvetica,sans-Serif" font-size="10.00">::VirtualMemory</text>
<polyline fill="none" stroke="black" points="9,-49.5 177,-49.5 "/>
<text text-anchor="middle" x="93" y="-37.5" font-family="Helvetica,sans-Serif" font-size="10.00"> </text>
<polyline fill="none" stroke="black" points="9,-30.5 177,-30.5 "/>
<text text-anchor="start" x="17" y="-18.5" font-family="Helvetica,sans-Serif" font-size="10.00">+ VirtualMemory()</text>
<text text-anchor="start" x="17" y="-7.5" font-family="Helvetica,sans-Serif" font-size="10.00">+ sub_expression_evaluation()</text>
</a>
</g>
</g>
<!-- Node2 -->
<g id="node2" class="node">
<title>Node2</title>
<g id="a_node2"><a xlink:title=" ">
<polygon fill="none" stroke="#bfbfbf" points="0,-171.5 0,-228.5 42,-228.5 42,-171.5 0,-171.5"/>
<text text-anchor="middle" x="21" y="-216.5" font-family="Helvetica,sans-Serif" font-size="10.00">Node</text>
<polyline fill="none" stroke="#bfbfbf" points="0,-209.5 42,-209.5 "/>
<text text-anchor="middle" x="21" y="-197.5" font-family="Helvetica,sans-Serif" font-size="10.00"> </text>
<polyline fill="none" stroke="#bfbfbf" points="0,-190.5 42,-190.5 "/>
<text text-anchor="middle" x="21" y="-178.5" font-family="Helvetica,sans-Serif" font-size="10.00"> </text>
</a>
</g>
</g>
<!-- Node2&#45;&gt;Node1 -->
<g id="edge1" class="edge">
<title>Node2&#45;&gt;Node1</title>
<path fill="none" stroke="#404040" d="M22.08,-171.09C23.86,-150.03 28.42,-120.94 40,-98 41.46,-95.1 43.12,-92.25 44.91,-89.45"/>
<polygon fill="none" stroke="#404040" points="44.97,-89.37 45.22,-82.17 51.96,-79.62 51.72,-86.83 44.97,-89.37"/>
<text text-anchor="middle" x="64.5" y="-123" font-family="Helvetica,sans-Serif" font-size="10.00"> +subTree</text>
</g>
<!-- Node3 -->
<g id="node3" class="node">
<title>Node3</title>
<g id="a_node3"><a xlink:title=" ">
<polygon fill="none" stroke="#bfbfbf" points="70.5,-171.5 70.5,-228.5 115.5,-228.5 115.5,-171.5 70.5,-171.5"/>
<text text-anchor="middle" x="93" y="-216.5" font-family="Helvetica,sans-Serif" font-size="10.00">size_t</text>
<polyline fill="none" stroke="#bfbfbf" points="70.5,-209.5 115.5,-209.5 "/>
<text text-anchor="middle" x="93" y="-197.5" font-family="Helvetica,sans-Serif" font-size="10.00"> </text>
<polyline fill="none" stroke="#bfbfbf" points="70.5,-190.5 115.5,-190.5 "/>
<text text-anchor="middle" x="93" y="-178.5" font-family="Helvetica,sans-Serif" font-size="10.00"> </text>
</a>
</g>
</g>
<!-- Node3&#45;&gt;Node1 -->
<g id="edge2" class="edge">
<title>Node3&#45;&gt;Node1</title>
<path fill="none" stroke="#404040" d="M93,-171.48C93,-149.57 93,-118.31 93,-91.88"/>
<polygon fill="none" stroke="#404040" points="93,-91.75 89,-85.75 93,-79.75 97,-85.75 93,-91.75"/>
<text text-anchor="middle" x="120" y="-145" font-family="Helvetica,sans-Serif" font-size="10.00"> +Rows</text>
<text text-anchor="middle" x="120" y="-134" font-family="Helvetica,sans-Serif" font-size="10.00">+Channels</text>
<text text-anchor="middle" x="120" y="-123" font-family="Helvetica,sans-Serif" font-size="10.00">+Level</text>
<text text-anchor="middle" x="120" y="-112" font-family="Helvetica,sans-Serif" font-size="10.00">+LeafType</text>
<text text-anchor="middle" x="120" y="-101" font-family="Helvetica,sans-Serif" font-size="10.00">+Cols</text>
</g>
<!-- Node4 -->
<g id="node4" class="node">
<title>Node4</title>
<g id="a_node4"><a xlink:title=" ">
<polygon fill="none" stroke="#bfbfbf" points="151,-171.5 151,-228.5 189,-228.5 189,-171.5 151,-171.5"/>
<text text-anchor="middle" x="170" y="-216.5" font-family="Helvetica,sans-Serif" font-size="10.00">bool</text>
<polyline fill="none" stroke="#bfbfbf" points="151,-209.5 189,-209.5 "/>
<text text-anchor="middle" x="170" y="-197.5" font-family="Helvetica,sans-Serif" font-size="10.00"> </text>
<polyline fill="none" stroke="#bfbfbf" points="151,-190.5 189,-190.5 "/>
<text text-anchor="middle" x="170" y="-178.5" font-family="Helvetica,sans-Serif" font-size="10.00"> </text>
</a>
</g>
</g>
<!-- Node4&#45;&gt;Node1 -->
<g id="edge3" class="edge">
<title>Node4&#45;&gt;Node1</title>
<path fill="none" stroke="#404040" d="M168.1,-171.44C165.7,-150.3 160.27,-120.95 148,-98 146.44,-95.09 144.69,-92.22 142.8,-89.41"/>
<polygon fill="none" stroke="#404040" points="142.61,-89.16 135.82,-86.76 135.42,-79.56 142.22,-81.96 142.61,-89.16"/>
<text text-anchor="start" x="165" y="-134" font-family="Helvetica,sans-Serif" font-size="10.00"> +SubExpressionEvaluation</text>
<text text-anchor="middle" x="232.5" y="-123" font-family="Helvetica,sans-Serif" font-size="10.00">Needed</text>
<text text-anchor="middle" x="232.5" y="-112" font-family="Helvetica,sans-Serif" font-size="10.00">+policyType</text>
</g>
</g>
</svg>
