<?xml version="1.0" encoding="UTF-8" standalone="no"?>
<!DOCTYPE svg PUBLIC "-//W3C//DTD SVG 1.1//EN"
 "http://www.w3.org/Graphics/SVG/1.1/DTD/svg11.dtd">
<!-- Generated by graphviz version 2.43.0 (0)
 -->
<!-- Title: visioncpp::pixel::Storage&lt; LHSScalar, Channels &gt; Pages: 1 -->
<svg width="157pt" height="204pt"
 viewBox="0.00 0.00 156.50 204.00" xmlns="http://www.w3.org/2000/svg" xmlns:xlink="http://www.w3.org/1999/xlink">
<g id="graph0" class="graph" transform="scale(1 1) rotate(0) translate(4 200)">
<title>visioncpp::pixel::Storage&lt; LHSScalar, Channels &gt;</title>
<!-- Node1 -->
<g id="node1" class="node">
<title>Node1</title>
<g id="a_node1"><a xlink:title=" ">
<polygon fill="#bfbfbf" stroke="black" points="0,-0.5 0,-90.5 139,-90.5 139,-0.5 0,-0.5"/>
<text text-anchor="start" x="8" y="-78.5" font-family="Helvetica,sans-Serif" font-size="10.00">visioncpp::pixel::Storage</text>
<text text-anchor="middle" x="69.5" y="-67.5" font-family="Helvetica,sans-Serif" font-size="10.00">&lt; LHSScalar, Channels &gt;</text>
<polyline fill="none" stroke="black" points="0,-60.5 139,-60.5 "/>
<text text-anchor="middle" x="69.5" y="-48.5" font-family="Helvetica,sans-Serif" font-size="10.00"> </text>
<polyline fill="none" stroke="black" points="0,-41.5 139,-41.5 "/>
<text text-anchor="start" x="8" y="-29.5" font-family="Helvetica,sans-Serif" font-size="10.00">+ operator[]()</text>
<text text-anchor="start" x="8" y="-18.5" font-family="Helvetica,sans-Serif" font-size="10.00">+ operator[]()</text>
<text text-anchor="start" x="8" y="-7.5" font-family="Helvetica,sans-Serif" font-size="10.00">+ Storage()</text>
</a>
</g>
</g>
<!-- Node2 -->
<g id="node2" class="node">
<title>Node2</title>
<g id="a_node2"><a xlink:title=" ">
<polygon fill="none" stroke="#bfbfbf" points="1,-138.5 1,-195.5 66,-195.5 66,-138.5 1,-138.5"/>
<text text-anchor="middle" x="33.5" y="-183.5" font-family="Helvetica,sans-Serif" font-size="10.00">LHSScalar</text>
<polyline fill="none" stroke="#bfbfbf" points="1,-176.5 66,-176.5 "/>
<text text-anchor="middle" x="33.5" y="-164.5" font-family="Helvetica,sans-Serif" font-size="10.00"> </text>
<polyline fill="none" stroke="#bfbfbf" points="1,-157.5 66,-157.5 "/>
<text text-anchor="middle" x="33.5" y="-145.5" font-family="Helvetica,sans-Serif" font-size="10.00"> </text>
</a>
</g>
</g>
<!-- Node2&#45;&gt;Node1 -->
<g id="edge1" class="edge">
<title>Node2&#45;&gt;Node1</title>
<path fill="none" stroke="#404040" d="M31.92,-138.36C32.05,-128.91 32.94,-118.36 35.5,-109 36.16,-106.58 36.93,-104.15 37.79,-101.73"/>
<polygon fill="none" stroke="#404040" points="37.83,-101.62 36.39,-94.55 42.36,-90.51 43.8,-97.57 37.83,-101.62"/>
<text text-anchor="middle" x="60" y="-112" font-family="Helvetica,sans-Serif" font-size="10.00"> +m_data</text>
</g>
<!-- Node3 -->
<g id="node3" class="node">
<title>Node3</title>
<g id="a_node3"><a xlink:title=" ">
<polygon fill="none" stroke="#bfbfbf" points="84,-138.5 84,-195.5 129,-195.5 129,-138.5 84,-138.5"/>
<text text-anchor="middle" x="106.5" y="-183.5" font-family="Helvetica,sans-Serif" font-size="10.00">size_t</text>
<polyline fill="none" stroke="#bfbfbf" points="84,-176.5 129,-176.5 "/>
<text text-anchor="middle" x="106.5" y="-164.5" font-family="Helvetica,sans-Serif" font-size="10.00"> </text>
<polyline fill="none" stroke="#bfbfbf" points="84,-157.5 129,-157.5 "/>
<text text-anchor="middle" x="106.5" y="-145.5" font-family="Helvetica,sans-Serif" font-size="10.00"> </text>
</a>
</g>
</g>
<!-- Node3&#45;&gt;Node1 -->
<g id="edge2" class="edge">
<title>Node3&#45;&gt;Node1</title>
<path fill="none" stroke="#404040" d="M97.92,-138.28C94.62,-127.62 90.72,-115.03 86.89,-102.65"/>
<polygon fill="none" stroke="#404040" points="86.8,-102.38 81.2,-97.83 83.25,-90.91 88.85,-95.46 86.8,-102.38"/>
<text text-anchor="middle" x="119.5" y="-112" font-family="Helvetica,sans-Serif" font-size="10.00"> +elements</text>
</g>
</g>
</svg>
