<?xml version="1.0" encoding="UTF-8" standalone="no"?>
<!DOCTYPE svg PUBLIC "-//W3C//DTD SVG 1.1//EN"
 "http://www.w3.org/Graphics/SVG/1.1/DTD/svg11.dtd">
<!-- Generated by graphviz version 2.36.0 (20140111.2315)
 -->
<!-- Title: visioncpp::internal::LocalOutput&lt; false, IsRoot, LC, LR, StnFilt&lt; OP, Halo_T, Halo_L, Halo_B, Halo_R, LHSExpr, RHSExpr, Cols, Rows, LeafType, LVL &gt; &gt;::getTuple Pages: 1 -->
<svg width="648pt" height="94pt"
 viewBox="0.00 0.00 648.00 94.00" xmlns="http://www.w3.org/2000/svg" xmlns:xlink="http://www.w3.org/1999/xlink">
<g id="graph0" class="graph" transform="scale(1 1) rotate(0) translate(4 90)">
<title>visioncpp::internal::LocalOutput&lt; false, IsRoot, LC, LR, StnFilt&lt; OP, Halo_T, Halo_L, Halo_B, Halo_R, LHSExpr, RHSExpr, Cols, Rows, LeafType, LVL &gt; &gt;::getTuple</title>
<!-- Node1 -->
<g id="node1" class="node"><title>Node1</title>
<polygon fill="#bfbfbf" stroke="black" points="0,-0.5 0,-85.5 164,-85.5 164,-0.5 0,-0.5"/>
<text text-anchor="start" x="8" y="-73.5" font-family="Helvetica,sans-Serif" font-size="10.00">visioncpp::internal</text>
<text text-anchor="start" x="8" y="-62.5" font-family="Helvetica,sans-Serif" font-size="10.00">::LocalOutput&lt; false,</text>
<text text-anchor="start" x="8" y="-51.5" font-family="Helvetica,sans-Serif" font-size="10.00"> IsRoot, LC, LR, StnFilt</text>
<text text-anchor="start" x="8" y="-40.5" font-family="Helvetica,sans-Serif" font-size="10.00">&lt; OP, Halo_T, Halo_L, Halo</text>
<text text-anchor="start" x="8" y="-29.5" font-family="Helvetica,sans-Serif" font-size="10.00">_B, Halo_R, LHSExpr, RHSExpr,</text>
<text text-anchor="start" x="8" y="-18.5" font-family="Helvetica,sans-Serif" font-size="10.00"> Cols, Rows, LeafType, LVL &gt;</text>
<text text-anchor="middle" x="82" y="-7.5" font-family="Helvetica,sans-Serif" font-size="10.00"> &gt;::getTuple</text>
</g>
<!-- Node2 -->
<g id="node2" class="node"><title>Node2</title>
<g id="a_node2"><a xlink:href="namespacevisioncpp_1_1internal_1_1tools_1_1tuple.html#a047c9626073a7719080ae711a7fbcd12" target="_top" xlink:title="append ">
<polygon fill="none" stroke="black" points="200,-51 200,-81 308,-81 308,-51 200,-51"/>
<text text-anchor="start" x="208" y="-69" font-family="Helvetica,sans-Serif" font-size="10.00">visioncpp::internal</text>
<text text-anchor="middle" x="254" y="-58" font-family="Helvetica,sans-Serif" font-size="10.00">::tools::tuple::append</text>
</a>
</g>
</g>
<!-- Node1&#45;&gt;Node2 -->
<g id="edge1" class="edge"><title>Node1&#45;&gt;Node2</title>
<path fill="none" stroke="midnightblue" d="M164.017,-53.9611C172.65,-55.1292 181.338,-56.3046 189.724,-57.4392"/>
<polygon fill="midnightblue" stroke="midnightblue" points="189.4,-60.9271 199.779,-58.7995 190.339,-53.9903 189.4,-60.9271"/>
</g>
<!-- Node5 -->
<g id="node5" class="node"><title>Node5</title>
<g id="a_node5"><a xlink:href="structvisioncpp_1_1internal_1_1LocalOutput.html#abc63292a957140f2a601692f3c2983c4" target="_top" xlink:title="getTuple function is used to create and wrap local memory into a tuple ">
<polygon fill="none" stroke="black" points="350.5,-4 350.5,-34 469.5,-34 469.5,-4 350.5,-4"/>
<text text-anchor="start" x="358.5" y="-22" font-family="Helvetica,sans-Serif" font-size="10.00">visioncpp::internal</text>
<text text-anchor="middle" x="410" y="-11" font-family="Helvetica,sans-Serif" font-size="10.00">::LocalOutput::getTuple</text>
</a>
</g>
</g>
<!-- Node1&#45;&gt;Node5 -->
<g id="edge4" class="edge"><title>Node1&#45;&gt;Node5</title>
<path fill="none" stroke="midnightblue" d="M164.003,-37.0366C218.277,-33.041 288.95,-27.838 340.435,-24.0477"/>
<polygon fill="midnightblue" stroke="midnightblue" points="340.75,-27.5341 350.466,-23.3093 340.236,-20.553 340.75,-27.5341"/>
</g>
<!-- Node3 -->
<g id="node3" class="node"><title>Node3</title>
<g id="a_node3"><a xlink:href="namespacevisioncpp_1_1internal_1_1tools_1_1tuple.html#a0739601d962b2f5d67f9733bdd49624b" target="_top" xlink:title="append_impl ">
<polygon fill="none" stroke="black" points="344.5,-53 344.5,-83 475.5,-83 475.5,-53 344.5,-53"/>
<text text-anchor="start" x="352.5" y="-71" font-family="Helvetica,sans-Serif" font-size="10.00">visioncpp::internal</text>
<text text-anchor="middle" x="410" y="-60" font-family="Helvetica,sans-Serif" font-size="10.00">::tools::tuple::append_impl</text>
</a>
</g>
</g>
<!-- Node2&#45;&gt;Node3 -->
<g id="edge2" class="edge"><title>Node2&#45;&gt;Node3</title>
<path fill="none" stroke="midnightblue" d="M308.43,-66.6939C316.734,-66.8017 325.443,-66.9148 334.117,-67.0275"/>
<polygon fill="midnightblue" stroke="midnightblue" points="334.211,-70.5289 344.256,-67.1592 334.302,-63.5295 334.211,-70.5289"/>
</g>
<!-- Node4 -->
<g id="node4" class="node"><title>Node4</title>
<g id="a_node4"><a xlink:href="namespacevisioncpp_1_1internal_1_1tools_1_1tuple.html#a327306360f5729315416bf96f49a4d73" target="_top" xlink:title="make_tuple ">
<polygon fill="none" stroke="black" points="512.5,-28 512.5,-58 639.5,-58 639.5,-28 512.5,-28"/>
<text text-anchor="start" x="520.5" y="-46" font-family="Helvetica,sans-Serif" font-size="10.00">visioncpp::internal</text>
<text text-anchor="middle" x="576" y="-35" font-family="Helvetica,sans-Serif" font-size="10.00">::tools::tuple::make_tuple</text>
</a>
</g>
</g>
<!-- Node3&#45;&gt;Node4 -->
<g id="edge3" class="edge"><title>Node3&#45;&gt;Node4</title>
<path fill="none" stroke="midnightblue" d="M475.817,-58.1193C484.534,-56.7905 493.522,-55.4204 502.363,-54.0727"/>
<polygon fill="midnightblue" stroke="midnightblue" points="502.902,-57.5311 512.26,-52.564 501.847,-50.6111 502.902,-57.5311"/>
</g>
<!-- Node5&#45;&gt;Node4 -->
<g id="edge5" class="edge"><title>Node5&#45;&gt;Node4</title>
<path fill="none" stroke="midnightblue" d="M469.745,-27.5968C480.3,-29.1414 491.416,-30.7681 502.309,-32.3623"/>
<polygon fill="midnightblue" stroke="midnightblue" points="501.827,-35.829 512.229,-33.814 502.841,-28.9028 501.827,-35.829"/>
</g>
</g>
</svg>
