<?xml version="1.0" encoding="UTF-8" standalone="no"?>
<!DOCTYPE svg PUBLIC "-//W3C//DTD SVG 1.1//EN"
 "http://www.w3.org/Graphics/SVG/1.1/DTD/svg11.dtd">
<!-- Generated by graphviz version 2.43.0 (0)
 -->
<!-- Title: visioncpp::internal::LocalOutput::getTuple Pages: 1 -->
<svg width="380pt" height="643pt"
 viewBox="0.00 0.00 380.00 642.50" xmlns="http://www.w3.org/2000/svg" xmlns:xlink="http://www.w3.org/1999/xlink">
<g id="graph0" class="graph" transform="scale(1 1) rotate(0) translate(4 638.5)">
<title>visioncpp::internal::LocalOutput::getTuple</title>
<!-- Node1 -->
<g id="node1" class="node">
<title>Node1</title>
<g id="a_node1"><a xlink:title="getTuple function is used to create and wrap local memory into a tuple">
<polygon fill="#bfbfbf" stroke="black" points="244,-296.5 244,-326.5 372,-326.5 372,-296.5 244,-296.5"/>
<text text-anchor="start" x="252" y="-314.5" font-family="Helvetica,sans-Serif" font-size="10.00">visioncpp::internal</text>
<text text-anchor="middle" x="308" y="-303.5" font-family="Helvetica,sans-Serif" font-size="10.00">::LocalOutput::getTuple</text>
</a>
</g>
</g>
<!-- Node2 -->
<g id="node2" class="node">
<title>Node2</title>
<g id="a_node2"><a xlink:href="structvisioncpp_1_1internal_1_1LocalOutput_3_01false_00_01IsRoot_00_01LC_00_01LR_00_01ParallelCo0635c30aec900fbff57bf53b317d8606.html#a9c82dc26017dc8a4ab0af214d0686e90" target="_top" xlink:title=" ">
<polygon fill="none" stroke="black" points="0,-549 0,-634 208,-634 208,-549 0,-549"/>
<text text-anchor="start" x="8" y="-622" font-family="Helvetica,sans-Serif" font-size="10.00">visioncpp::internal</text>
<text text-anchor="start" x="8" y="-611" font-family="Helvetica,sans-Serif" font-size="10.00">::LocalOutput&lt; false,</text>
<text text-anchor="start" x="8" y="-600" font-family="Helvetica,sans-Serif" font-size="10.00"> IsRoot, LC, LR, ParallelCopy</text>
<text text-anchor="start" x="8" y="-589" font-family="Helvetica,sans-Serif" font-size="10.00">&lt; LHSExpr, RHSExpr, Cols,</text>
<text text-anchor="start" x="8" y="-578" font-family="Helvetica,sans-Serif" font-size="10.00"> Rows, OffsetColIn, OffsetRowIn,</text>
<text text-anchor="start" x="8" y="-567" font-family="Helvetica,sans-Serif" font-size="10.00"> OffsetColOut, OffsetRowOut, LeafType,</text>
<text text-anchor="middle" x="104" y="-556" font-family="Helvetica,sans-Serif" font-size="10.00"> LVL &gt; &gt;::getTuple</text>
</a>
</g>
</g>
<!-- Node1&#45;&gt;Node2 -->
<g id="edge1" class="edge">
<title>Node1&#45;&gt;Node2</title>
<path fill="none" stroke="midnightblue" d="M302.06,-336.41C291.89,-381.96 264.62,-479.5 208,-539.5 204.98,-542.71 201.71,-545.74 198.27,-548.62"/>
<polygon fill="midnightblue" stroke="midnightblue" points="305.51,-337.02 304.19,-326.51 298.67,-335.55 305.51,-337.02"/>
</g>
<!-- Node3 -->
<g id="node3" class="node">
<title>Node3</title>
<g id="a_node3"><a xlink:href="structvisioncpp_1_1internal_1_1LocalOutput_3_01false_00_01IsRoot_00_01LC_00_01LR_00_01Assign_3_06265906cf16848ff64f1f1331ad98423.html#aa583c6c4056fc0f4273b5f7eff7603ed" target="_top" xlink:title=" ">
<polygon fill="none" stroke="black" points="31,-455.5 31,-529.5 177,-529.5 177,-455.5 31,-455.5"/>
<text text-anchor="start" x="39" y="-517.5" font-family="Helvetica,sans-Serif" font-size="10.00">visioncpp::internal</text>
<text text-anchor="start" x="39" y="-506.5" font-family="Helvetica,sans-Serif" font-size="10.00">::LocalOutput&lt; false,</text>
<text text-anchor="start" x="39" y="-495.5" font-family="Helvetica,sans-Serif" font-size="10.00"> IsRoot, LC, LR, Assign</text>
<text text-anchor="start" x="39" y="-484.5" font-family="Helvetica,sans-Serif" font-size="10.00">&lt; LHSExpr, RHSExpr, Cols,</text>
<text text-anchor="start" x="39" y="-473.5" font-family="Helvetica,sans-Serif" font-size="10.00"> Rows, LeafType, LVL &gt; &gt;</text>
<text text-anchor="middle" x="104" y="-462.5" font-family="Helvetica,sans-Serif" font-size="10.00">::getTuple</text>
</a>
</g>
</g>
<!-- Node1&#45;&gt;Node3 -->
<g id="edge2" class="edge">
<title>Node1&#45;&gt;Node3</title>
<path fill="none" stroke="midnightblue" d="M294.42,-335.71C278.02,-365.28 246.78,-415.21 208,-446.5 198.7,-454 187.99,-460.54 177.06,-466.15"/>
<polygon fill="midnightblue" stroke="midnightblue" points="297.53,-337.34 299.22,-326.88 291.37,-334 297.53,-337.34"/>
</g>
<!-- Node4 -->
<g id="node4" class="node">
<title>Node4</title>
<g id="a_node4"><a xlink:href="structvisioncpp_1_1internal_1_1LocalOutput_3_01false_00_01IsRoot_00_01LC_00_01LR_00_01StnNoFilt_d45bb2f039daef54effcd1874753b2c3.html#a7ca4ad4544d257ccaa61badc635beb37" target="_top" xlink:title=" ">
<polygon fill="none" stroke="black" points="10,-362.5 10,-436.5 198,-436.5 198,-362.5 10,-362.5"/>
<text text-anchor="start" x="18" y="-424.5" font-family="Helvetica,sans-Serif" font-size="10.00">visioncpp::internal</text>
<text text-anchor="start" x="18" y="-413.5" font-family="Helvetica,sans-Serif" font-size="10.00">::LocalOutput&lt; false,</text>
<text text-anchor="start" x="18" y="-402.5" font-family="Helvetica,sans-Serif" font-size="10.00"> IsRoot, LC, LR, StnNoFilt</text>
<text text-anchor="start" x="18" y="-391.5" font-family="Helvetica,sans-Serif" font-size="10.00">&lt; OP, Halo_T, Halo_L, Halo</text>
<text text-anchor="start" x="18" y="-380.5" font-family="Helvetica,sans-Serif" font-size="10.00">_B, Halo_R, RHSExpr, Cols,</text>
<text text-anchor="middle" x="104" y="-369.5" font-family="Helvetica,sans-Serif" font-size="10.00"> Rows, LeafType, LVL &gt; &gt;::getTuple</text>
</a>
</g>
</g>
<!-- Node1&#45;&gt;Node4 -->
<g id="edge3" class="edge">
<title>Node1&#45;&gt;Node4</title>
<path fill="none" stroke="midnightblue" d="M262.84,-330.74C241.49,-340.04 215.12,-351.53 190.08,-362.44"/>
<polygon fill="midnightblue" stroke="midnightblue" points="264.51,-333.83 272.27,-326.63 261.71,-327.41 264.51,-333.83"/>
</g>
<!-- Node5 -->
<g id="node5" class="node">
<title>Node5</title>
<g id="a_node5"><a xlink:href="structvisioncpp_1_1internal_1_1LocalOutput_3_01false_00_01IsRoot_00_01LC_00_01LR_00_01RUnOP_3_01222dc31e6f7adbfd1b3ba76b431263e2.html#a17c779f1e6fa85ef39237eb5db93cec8" target="_top" xlink:title=" ">
<polygon fill="none" stroke="black" points="26.5,-280 26.5,-343 181.5,-343 181.5,-280 26.5,-280"/>
<text text-anchor="start" x="34.5" y="-331" font-family="Helvetica,sans-Serif" font-size="10.00">visioncpp::internal</text>
<text text-anchor="start" x="34.5" y="-320" font-family="Helvetica,sans-Serif" font-size="10.00">::LocalOutput&lt; false,</text>
<text text-anchor="start" x="34.5" y="-309" font-family="Helvetica,sans-Serif" font-size="10.00"> IsRoot, LC, LR, RUnOP</text>
<text text-anchor="start" x="34.5" y="-298" font-family="Helvetica,sans-Serif" font-size="10.00">&lt; OP, RHSExpr, Cols, Rows,</text>
<text text-anchor="middle" x="104" y="-287" font-family="Helvetica,sans-Serif" font-size="10.00"> LeafType, LVL &gt; &gt;::getTuple</text>
</a>
</g>
</g>
<!-- Node1&#45;&gt;Node5 -->
<g id="edge4" class="edge">
<title>Node1&#45;&gt;Node5</title>
<path fill="none" stroke="midnightblue" d="M233.59,-311.5C216.74,-311.5 198.79,-311.5 181.8,-311.5"/>
<polygon fill="midnightblue" stroke="midnightblue" points="233.92,-315 243.92,-311.5 233.92,-308 233.92,-315"/>
</g>
<!-- Node6 -->
<g id="node6" class="node">
<title>Node6</title>
<g id="a_node6"><a xlink:href="structvisioncpp_1_1internal_1_1LocalOutput_3_01false_00_01IsRoot_00_01LC_00_01LR_00_01RDCN_3_01O985b5cf5bfc049f9ae66cfbe725d4e32.html#a85cc60fe30b8670638b13c098a889ad6" target="_top" xlink:title=" ">
<polygon fill="none" stroke="black" points="26.5,-198 26.5,-261 181.5,-261 181.5,-198 26.5,-198"/>
<text text-anchor="start" x="34.5" y="-249" font-family="Helvetica,sans-Serif" font-size="10.00">visioncpp::internal</text>
<text text-anchor="start" x="34.5" y="-238" font-family="Helvetica,sans-Serif" font-size="10.00">::LocalOutput&lt; false,</text>
<text text-anchor="start" x="34.5" y="-227" font-family="Helvetica,sans-Serif" font-size="10.00"> IsRoot, LC, LR, RDCN</text>
<text text-anchor="start" x="34.5" y="-216" font-family="Helvetica,sans-Serif" font-size="10.00">&lt; OP, RHSExpr, Cols, Rows,</text>
<text text-anchor="middle" x="104" y="-205" font-family="Helvetica,sans-Serif" font-size="10.00"> LeafType, LVL &gt; &gt;::getTuple</text>
</a>
</g>
</g>
<!-- Node1&#45;&gt;Node6 -->
<g id="edge5" class="edge">
<title>Node1&#45;&gt;Node6</title>
<path fill="none" stroke="midnightblue" d="M261.29,-292.42C244.55,-285.47 225.43,-277.58 208,-270.5 199.44,-267.02 190.47,-263.41 181.54,-259.83"/>
<polygon fill="midnightblue" stroke="midnightblue" points="260.27,-295.78 270.84,-296.39 262.95,-289.32 260.27,-295.78"/>
</g>
<!-- Node7 -->
<g id="node7" class="node">
<title>Node7</title>
<g id="a_node7"><a xlink:href="structvisioncpp_1_1internal_1_1LocalOutput_3_01false_00_01IsRoot_00_01LC_00_01LR_00_01StnFilt_3_78467c599a542dd94fd0a9e3d6a02a30.html#a50566348e971a8dd50644cbdec9725e5" target="_top" xlink:title=" ">
<polygon fill="none" stroke="black" points="20.5,-94 20.5,-179 187.5,-179 187.5,-94 20.5,-94"/>
<text text-anchor="start" x="28.5" y="-167" font-family="Helvetica,sans-Serif" font-size="10.00">visioncpp::internal</text>
<text text-anchor="start" x="28.5" y="-156" font-family="Helvetica,sans-Serif" font-size="10.00">::LocalOutput&lt; false,</text>
<text text-anchor="start" x="28.5" y="-145" font-family="Helvetica,sans-Serif" font-size="10.00"> IsRoot, LC, LR, StnFilt</text>
<text text-anchor="start" x="28.5" y="-134" font-family="Helvetica,sans-Serif" font-size="10.00">&lt; OP, Halo_T, Halo_L, Halo</text>
<text text-anchor="start" x="28.5" y="-123" font-family="Helvetica,sans-Serif" font-size="10.00">_B, Halo_R, LHSExpr, RHSExpr,</text>
<text text-anchor="start" x="28.5" y="-112" font-family="Helvetica,sans-Serif" font-size="10.00"> Cols, Rows, LeafType, LVL &gt;</text>
<text text-anchor="middle" x="104" y="-101" font-family="Helvetica,sans-Serif" font-size="10.00"> &gt;::getTuple</text>
</a>
</g>
</g>
<!-- Node1&#45;&gt;Node7 -->
<g id="edge6" class="edge">
<title>Node1&#45;&gt;Node7</title>
<path fill="none" stroke="midnightblue" d="M292.13,-287.38C274.64,-260.54 243.46,-217.19 208,-188.5 201.69,-183.4 194.8,-178.61 187.67,-174.16"/>
<polygon fill="midnightblue" stroke="midnightblue" points="289.39,-289.6 297.73,-296.13 295.29,-285.82 289.39,-289.6"/>
</g>
<!-- Node8 -->
<g id="node8" class="node">
<title>Node8</title>
<g id="a_node8"><a xlink:href="structvisioncpp_1_1internal_1_1LocalOutput_3_01false_00_01IsRoot_00_01LC_00_01LR_00_01RBiOP_3_012aff2f4a38a6baec8f8e4876a21ac04d.html#af800e26ee624f9e5e3b021015a89f457" target="_top" xlink:title=" ">
<polygon fill="none" stroke="black" points="31.5,-0.5 31.5,-74.5 176.5,-74.5 176.5,-0.5 31.5,-0.5"/>
<text text-anchor="start" x="39.5" y="-62.5" font-family="Helvetica,sans-Serif" font-size="10.00">visioncpp::internal</text>
<text text-anchor="start" x="39.5" y="-51.5" font-family="Helvetica,sans-Serif" font-size="10.00">::LocalOutput&lt; false,</text>
<text text-anchor="start" x="39.5" y="-40.5" font-family="Helvetica,sans-Serif" font-size="10.00"> IsRoot, LC, LR, RBiOP</text>
<text text-anchor="start" x="39.5" y="-29.5" font-family="Helvetica,sans-Serif" font-size="10.00">&lt; OP, LHSExpr, RHSExpr,</text>
<text text-anchor="start" x="39.5" y="-18.5" font-family="Helvetica,sans-Serif" font-size="10.00"> Cols, Rows, LeafType, LVL</text>
<text text-anchor="middle" x="104" y="-7.5" font-family="Helvetica,sans-Serif" font-size="10.00"> &gt; &gt;::getTuple</text>
</a>
</g>
</g>
<!-- Node1&#45;&gt;Node8 -->
<g id="edge7" class="edge">
<title>Node1&#45;&gt;Node8</title>
<path fill="none" stroke="midnightblue" d="M302.26,-286.48C292.4,-240.77 265.63,-143.11 208,-84.5 199.11,-75.46 188.16,-67.99 176.76,-61.88"/>
<polygon fill="midnightblue" stroke="midnightblue" points="298.86,-287.34 304.31,-296.42 305.72,-285.92 298.86,-287.34"/>
</g>
</g>
</svg>
