<?xml version="1.0" encoding="UTF-8" standalone="no"?>
<!DOCTYPE svg PUBLIC "-//W3C//DTD SVG 1.1//EN"
 "http://www.w3.org/Graphics/SVG/1.1/DTD/svg11.dtd">
<!-- Generated by graphviz version 2.36.0 (20140111.2315)
 -->
<!-- Title: visioncpp::internal::ConstNeighbour&lt; T &gt; Pages: 1 -->
<svg width="173pt" height="216pt"
 viewBox="0.00 0.00 173.00 216.00" xmlns="http://www.w3.org/2000/svg" xmlns:xlink="http://www.w3.org/1999/xlink">
<g id="graph0" class="graph" transform="scale(1 1) rotate(0) translate(4 212)">
<title>visioncpp::internal::ConstNeighbour&lt; T &gt;</title>
<!-- Node1 -->
<g id="node1" class="node"><title>Node1</title>
<polygon fill="#bfbfbf" stroke="black" points="8.5,-1 8.5,-91 125.5,-91 125.5,-1 8.5,-1"/>
<text text-anchor="start" x="16.5" y="-79" font-family="Helvetica,sans-Serif" font-size="10.00">visioncpp::internal</text>
<text text-anchor="middle" x="67" y="-68" font-family="Helvetica,sans-Serif" font-size="10.00">::ConstNeighbour&lt; T &gt;</text>
<polyline fill="none" stroke="black" points="8.5,-61 125.5,-61 "/>
<text text-anchor="middle" x="67" y="-49" font-family="Helvetica,sans-Serif" font-size="10.00"> </text>
<polyline fill="none" stroke="black" points="8.5,-42 125.5,-42 "/>
<text text-anchor="start" x="16.5" y="-30" font-family="Helvetica,sans-Serif" font-size="10.00">+ ConstNeighbour()</text>
<text text-anchor="start" x="16.5" y="-19" font-family="Helvetica,sans-Serif" font-size="10.00">+ at()</text>
<text text-anchor="start" x="16.5" y="-8" font-family="Helvetica,sans-Serif" font-size="10.00">+ at()</text>
</g>
<!-- Node2 -->
<g id="node2" class="node"><title>Node2</title>
<polygon fill="none" stroke="#bfbfbf" points="-0.5,-150.5 -0.5,-207.5 42.5,-207.5 42.5,-150.5 -0.5,-150.5"/>
<text text-anchor="middle" x="21" y="-195.5" font-family="Helvetica,sans-Serif" font-size="10.00">size_t</text>
<polyline fill="none" stroke="#bfbfbf" points="-0.5,-188.5 42.5,-188.5 "/>
<text text-anchor="middle" x="21" y="-176.5" font-family="Helvetica,sans-Serif" font-size="10.00"> </text>
<polyline fill="none" stroke="#bfbfbf" points="-0.5,-169.5 42.5,-169.5 "/>
<text text-anchor="middle" x="21" y="-157.5" font-family="Helvetica,sans-Serif" font-size="10.00"> </text>
</g>
<!-- Node2&#45;&gt;Node1 -->
<g id="edge1" class="edge"><title>Node2&#45;&gt;Node1</title>
<path fill="none" stroke="#404040" d="M30.7554,-150.218C35.594,-136.439 41.6189,-119.281 47.3586,-102.935"/>
<polygon fill="none" stroke="#404040" points="47.4908,-102.559 45.7046,-95.5723 51.4666,-91.2365 53.2528,-98.2229 47.4908,-102.559"/>
<text text-anchor="middle" x="59.5" y="-124" font-family="Helvetica,sans-Serif" font-size="10.00"> +rows</text>
<text text-anchor="middle" x="59.5" y="-113" font-family="Helvetica,sans-Serif" font-size="10.00">+cols</text>
</g>
<!-- Node3 -->
<g id="node3" class="node"><title>Node3</title>
<polygon fill="none" stroke="#bfbfbf" points="61,-150.5 61,-207.5 165,-207.5 165,-150.5 61,-150.5"/>
<text text-anchor="middle" x="113" y="-195.5" font-family="Helvetica,sans-Serif" font-size="10.00">constant_ptr&lt; T &gt; &amp;</text>
<polyline fill="none" stroke="#bfbfbf" points="61,-188.5 165,-188.5 "/>
<text text-anchor="middle" x="113" y="-176.5" font-family="Helvetica,sans-Serif" font-size="10.00"> </text>
<polyline fill="none" stroke="#bfbfbf" points="61,-169.5 165,-169.5 "/>
<text text-anchor="middle" x="113" y="-157.5" font-family="Helvetica,sans-Serif" font-size="10.00"> </text>
</g>
<!-- Node3&#45;&gt;Node1 -->
<g id="edge2" class="edge"><title>Node3&#45;&gt;Node1</title>
<path fill="none" stroke="#404040" d="M103.245,-150.218C98.406,-136.439 92.3811,-119.281 86.6414,-102.935"/>
<polygon fill="none" stroke="#404040" points="86.5092,-102.559 80.7472,-98.2229 82.5334,-91.2365 88.2954,-95.5723 86.5092,-102.559"/>
<text text-anchor="middle" x="107.5" y="-118.5" font-family="Helvetica,sans-Serif" font-size="10.00"> +ptr</text>
</g>
</g>
</svg>
