<?xml version="1.0" encoding="UTF-8" standalone="no"?>
<!DOCTYPE svg PUBLIC "-//W3C//DTD SVG 1.1//EN"
 "http://www.w3.org/Graphics/SVG/1.1/DTD/svg11.dtd">
<!-- Generated by graphviz version 2.43.0 (0)
 -->
<!-- Title: visioncpp::internal::MemoryProperties&lt; unsigned short &gt; Pages: 1 -->
<svg width="163pt" height="204pt"
 viewBox="0.00 0.00 162.50 204.00" xmlns="http://www.w3.org/2000/svg" xmlns:xlink="http://www.w3.org/1999/xlink">
<g id="graph0" class="graph" transform="scale(1 1) rotate(0) translate(4 200)">
<title>visioncpp::internal::MemoryProperties&lt; unsigned short &gt;</title>
<!-- Node1 -->
<g id="node1" class="node">
<title>Node1</title>
<g id="a_node1"><a xlink:title="Specialisation of the MemoryProperties when the output is unsigned short.">
<polygon fill="#bfbfbf" stroke="black" points="0,-0.5 0,-79.5 121,-79.5 121,-0.5 0,-0.5"/>
<text text-anchor="start" x="8" y="-67.5" font-family="Helvetica,sans-Serif" font-size="10.00">visioncpp::internal</text>
<text text-anchor="start" x="8" y="-56.5" font-family="Helvetica,sans-Serif" font-size="10.00">::MemoryProperties&lt;</text>
<text text-anchor="middle" x="60.5" y="-45.5" font-family="Helvetica,sans-Serif" font-size="10.00"> unsigned short &gt;</text>
<polyline fill="none" stroke="black" points="0,-38.5 121,-38.5 "/>
<text text-anchor="middle" x="60.5" y="-26.5" font-family="Helvetica,sans-Serif" font-size="10.00"> </text>
<polyline fill="none" stroke="black" points="0,-19.5 121,-19.5 "/>
<text text-anchor="middle" x="60.5" y="-7.5" font-family="Helvetica,sans-Serif" font-size="10.00"> </text>
</a>
</g>
</g>
<!-- Node2 -->
<g id="node2" class="node">
<title>Node2</title>
<g id="a_node2"><a xlink:title=" ">
<polygon fill="none" stroke="#bfbfbf" points="38,-138.5 38,-195.5 83,-195.5 83,-138.5 38,-138.5"/>
<text text-anchor="middle" x="60.5" y="-183.5" font-family="Helvetica,sans-Serif" font-size="10.00">size_t</text>
<polyline fill="none" stroke="#bfbfbf" points="38,-176.5 83,-176.5 "/>
<text text-anchor="middle" x="60.5" y="-164.5" font-family="Helvetica,sans-Serif" font-size="10.00"> </text>
<polyline fill="none" stroke="#bfbfbf" points="38,-157.5 83,-157.5 "/>
<text text-anchor="middle" x="60.5" y="-145.5" font-family="Helvetica,sans-Serif" font-size="10.00"> </text>
</a>
</g>
</g>
<!-- Node2&#45;&gt;Node1 -->
<g id="edge1" class="edge">
<title>Node2&#45;&gt;Node1</title>
<path fill="none" stroke="#404040" d="M60.5,-138.26C60.5,-124.64 60.5,-107.79 60.5,-91.96"/>
<polygon fill="none" stroke="#404040" points="60.5,-91.57 56.5,-85.57 60.5,-79.57 64.5,-85.57 60.5,-91.57"/>
<text text-anchor="middle" x="107.5" y="-112" font-family="Helvetica,sans-Serif" font-size="10.00"> +ChannelSize</text>
<text text-anchor="middle" x="107.5" y="-101" font-family="Helvetica,sans-Serif" font-size="10.00">+ElementCategory</text>
</g>
</g>
</svg>
