<?xml version="1.0" encoding="UTF-8" standalone="no"?>
<!DOCTYPE svg PUBLIC "-//W3C//DTD SVG 1.1//EN"
 "http://www.w3.org/Graphics/SVG/1.1/DTD/svg11.dtd">
<!-- Generated by graphviz version 2.43.0 (0)
 -->
<!-- Title: visioncpp::internal::Assign&lt; LHS, RHS, Cols, Rows, LfType, LVL &gt; Pages: 1 -->
<svg width="374pt" height="270pt"
 viewBox="0.00 0.00 373.50 270.00" xmlns="http://www.w3.org/2000/svg" xmlns:xlink="http://www.w3.org/1999/xlink">
<g id="graph0" class="graph" transform="scale(1 1) rotate(0) translate(4 266)">
<title>visioncpp::internal::Assign&lt; LHS, RHS, Cols, Rows, LfType, LVL &gt;</title>
<!-- Node1 -->
<g id="node1" class="node">
<title>Node1</title>
<g id="a_node1"><a xlink:title="The definition is in Assign file.">
<polygon fill="#bfbfbf" stroke="black" points="46.5,-0.5 46.5,-101.5 214.5,-101.5 214.5,-0.5 46.5,-0.5"/>
<text text-anchor="start" x="54.5" y="-89.5" font-family="Helvetica,sans-Serif" font-size="10.00">visioncpp::internal</text>
<text text-anchor="start" x="54.5" y="-78.5" font-family="Helvetica,sans-Serif" font-size="10.00">::Assign&lt; LHS, RHS,</text>
<text text-anchor="middle" x="130.5" y="-67.5" font-family="Helvetica,sans-Serif" font-size="10.00"> Cols, Rows, LfType, LVL &gt;</text>
<polyline fill="none" stroke="black" points="46.5,-60.5 214.5,-60.5 "/>
<text text-anchor="middle" x="130.5" y="-48.5" font-family="Helvetica,sans-Serif" font-size="10.00"> </text>
<polyline fill="none" stroke="black" points="46.5,-41.5 214.5,-41.5 "/>
<text text-anchor="start" x="54.5" y="-29.5" font-family="Helvetica,sans-Serif" font-size="10.00">+ Assign()</text>
<text text-anchor="start" x="54.5" y="-18.5" font-family="Helvetica,sans-Serif" font-size="10.00">+ reset()</text>
<text text-anchor="start" x="54.5" y="-7.5" font-family="Helvetica,sans-Serif" font-size="10.00">+ sub_expression_evaluation()</text>
</a>
</g>
</g>
<!-- Node2 -->
<g id="node2" class="node">
<title>Node2</title>
<g id="a_node2"><a xlink:title=" ">
<polygon fill="none" stroke="#bfbfbf" points="0,-204.5 0,-261.5 35,-261.5 35,-204.5 0,-204.5"/>
<text text-anchor="middle" x="17.5" y="-249.5" font-family="Helvetica,sans-Serif" font-size="10.00">LHS</text>
<polyline fill="none" stroke="#bfbfbf" points="0,-242.5 35,-242.5 "/>
<text text-anchor="middle" x="17.5" y="-230.5" font-family="Helvetica,sans-Serif" font-size="10.00"> </text>
<polyline fill="none" stroke="#bfbfbf" points="0,-223.5 35,-223.5 "/>
<text text-anchor="middle" x="17.5" y="-211.5" font-family="Helvetica,sans-Serif" font-size="10.00"> </text>
</a>
</g>
</g>
<!-- Node2&#45;&gt;Node1 -->
<g id="edge1" class="edge">
<title>Node2&#45;&gt;Node1</title>
<path fill="none" stroke="#404040" d="M17.18,-204.18C18.12,-180.19 22.53,-145.48 38.5,-120 40.49,-116.82 42.69,-113.74 45.06,-110.76"/>
<polygon fill="none" stroke="#404040" points="45.19,-110.61 46.15,-103.46 53.12,-101.6 52.16,-108.74 45.19,-110.61"/>
<text text-anchor="middle" x="51.5" y="-150.5" font-family="Helvetica,sans-Serif" font-size="10.00"> +lhs</text>
</g>
<!-- Node3 -->
<g id="node3" class="node">
<title>Node3</title>
<g id="a_node3"><a xlink:title=" ">
<polygon fill="none" stroke="#bfbfbf" points="53,-204.5 53,-261.5 98,-261.5 98,-204.5 53,-204.5"/>
<text text-anchor="middle" x="75.5" y="-249.5" font-family="Helvetica,sans-Serif" font-size="10.00">size_t</text>
<polyline fill="none" stroke="#bfbfbf" points="53,-242.5 98,-242.5 "/>
<text text-anchor="middle" x="75.5" y="-230.5" font-family="Helvetica,sans-Serif" font-size="10.00"> </text>
<polyline fill="none" stroke="#bfbfbf" points="53,-223.5 98,-223.5 "/>
<text text-anchor="middle" x="75.5" y="-211.5" font-family="Helvetica,sans-Serif" font-size="10.00"> </text>
</a>
</g>
</g>
<!-- Node3&#45;&gt;Node1 -->
<g id="edge2" class="edge">
<title>Node3&#45;&gt;Node1</title>
<path fill="none" stroke="#404040" d="M70.87,-204.44C68.1,-181.22 66.77,-147.5 76.5,-120 77.4,-117.46 78.44,-114.94 79.59,-112.46"/>
<polygon fill="none" stroke="#404040" points="79.63,-112.38 78.93,-105.2 85.29,-101.8 85.99,-108.98 79.63,-112.38"/>
<text text-anchor="middle" x="120" y="-178" font-family="Helvetica,sans-Serif" font-size="10.00"> +Operation_type</text>
<text text-anchor="middle" x="120" y="-167" font-family="Helvetica,sans-Serif" font-size="10.00">+Level</text>
<text text-anchor="middle" x="120" y="-156" font-family="Helvetica,sans-Serif" font-size="10.00">+LeafType</text>
<text text-anchor="middle" x="120" y="-145" font-family="Helvetica,sans-Serif" font-size="10.00">+RThread</text>
<text text-anchor="middle" x="120" y="-134" font-family="Helvetica,sans-Serif" font-size="10.00">+CThread</text>
<text text-anchor="middle" x="120" y="-123" font-family="Helvetica,sans-Serif" font-size="10.00">+ND_Category</text>
</g>
<!-- Node4 -->
<g id="node4" class="node">
<title>Node4</title>
<g id="a_node4"><a xlink:title=" ">
<polygon fill="none" stroke="#bfbfbf" points="167,-204.5 167,-261.5 204,-261.5 204,-204.5 167,-204.5"/>
<text text-anchor="middle" x="185.5" y="-249.5" font-family="Helvetica,sans-Serif" font-size="10.00">RHS</text>
<polyline fill="none" stroke="#bfbfbf" points="167,-242.5 204,-242.5 "/>
<text text-anchor="middle" x="185.5" y="-230.5" font-family="Helvetica,sans-Serif" font-size="10.00"> </text>
<polyline fill="none" stroke="#bfbfbf" points="167,-223.5 204,-223.5 "/>
<text text-anchor="middle" x="185.5" y="-211.5" font-family="Helvetica,sans-Serif" font-size="10.00"> </text>
</a>
</g>
</g>
<!-- Node4&#45;&gt;Node1 -->
<g id="edge3" class="edge">
<title>Node4&#45;&gt;Node1</title>
<path fill="none" stroke="#404040" d="M182.09,-204.33C178.78,-181.35 172.87,-148 163.5,-120 162.7,-117.62 161.84,-115.21 160.93,-112.8"/>
<polygon fill="none" stroke="#404040" points="160.86,-112.63 154.89,-108.59 156.33,-101.52 162.3,-105.57 160.86,-112.63"/>
<text text-anchor="middle" x="192" y="-150.5" font-family="Helvetica,sans-Serif" font-size="10.00"> +rhs</text>
</g>
<!-- Node5 -->
<g id="node5" class="node">
<title>Node5</title>
<g id="a_node5"><a xlink:title=" ">
<polygon fill="none" stroke="#bfbfbf" points="222.5,-204.5 222.5,-261.5 260.5,-261.5 260.5,-204.5 222.5,-204.5"/>
<text text-anchor="middle" x="241.5" y="-249.5" font-family="Helvetica,sans-Serif" font-size="10.00">bool</text>
<polyline fill="none" stroke="#bfbfbf" points="222.5,-242.5 260.5,-242.5 "/>
<text text-anchor="middle" x="241.5" y="-230.5" font-family="Helvetica,sans-Serif" font-size="10.00"> </text>
<polyline fill="none" stroke="#bfbfbf" points="222.5,-223.5 260.5,-223.5 "/>
<text text-anchor="middle" x="241.5" y="-211.5" font-family="Helvetica,sans-Serif" font-size="10.00"> </text>
</a>
</g>
</g>
<!-- Node5&#45;&gt;Node1 -->
<g id="edge4" class="edge">
<title>Node5&#45;&gt;Node1</title>
<path fill="none" stroke="#404040" d="M238.15,-204.38C234.24,-180.52 226.07,-145.89 209.5,-120 207.52,-116.9 205.35,-113.86 203.04,-110.9"/>
<polygon fill="none" stroke="#404040" points="202.99,-110.84 196.06,-108.85 195.23,-101.69 202.16,-103.68 202.99,-110.84"/>
<text text-anchor="middle" x="299.5" y="-172.5" font-family="Helvetica,sans-Serif" font-size="10.00"> +has_out</text>
<text text-anchor="start" x="233.5" y="-161.5" font-family="Helvetica,sans-Serif" font-size="10.00">+SubExpressionEvaluation</text>
<text text-anchor="middle" x="299.5" y="-150.5" font-family="Helvetica,sans-Serif" font-size="10.00">Needed</text>
<text text-anchor="start" x="233.5" y="-139.5" font-family="Helvetica,sans-Serif" font-size="10.00">+subexpr_execution</text>
<text text-anchor="middle" x="299.5" y="-128.5" font-family="Helvetica,sans-Serif" font-size="10.00">_reseter</text>
</g>
</g>
</svg>
