<?xml version="1.0" encoding="UTF-8" standalone="no"?>
<!DOCTYPE svg PUBLIC "-//W3C//DTD SVG 1.1//EN"
 "http://www.w3.org/Graphics/SVG/1.1/DTD/svg11.dtd">
<!-- Generated by graphviz version 2.43.0 (0)
 -->
<!-- Title: visioncpp::internal::ExtractAccessor&lt; expr_category::Binary, Assign&lt; LHSExpr, RHSExpr, Cols, Rows, LeafType, LVL &gt; &gt;::getTuple Pages: 1 -->
<svg width="667pt" height="83pt"
 viewBox="0.00 0.00 667.00 83.00" xmlns="http://www.w3.org/2000/svg" xmlns:xlink="http://www.w3.org/1999/xlink">
<g id="graph0" class="graph" transform="scale(1 1) rotate(0) translate(4 79)">
<title>visioncpp::internal::ExtractAccessor&lt; expr_category::Binary, Assign&lt; LHSExpr, RHSExpr, Cols, Rows, LeafType, LVL &gt; &gt;::getTuple</title>
<!-- Node1 -->
<g id="node1" class="node">
<title>Node1</title>
<g id="a_node1"><a xlink:title=" ">
<polygon fill="#bfbfbf" stroke="black" points="0,-0.5 0,-74.5 146,-74.5 146,-0.5 0,-0.5"/>
<text text-anchor="start" x="8" y="-62.5" font-family="Helvetica,sans-Serif" font-size="10.00">visioncpp::internal</text>
<text text-anchor="start" x="8" y="-51.5" font-family="Helvetica,sans-Serif" font-size="10.00">::ExtractAccessor&lt; expr</text>
<text text-anchor="start" x="8" y="-40.5" font-family="Helvetica,sans-Serif" font-size="10.00">_category::Binary, Assign</text>
<text text-anchor="start" x="8" y="-29.5" font-family="Helvetica,sans-Serif" font-size="10.00">&lt; LHSExpr, RHSExpr, Cols,</text>
<text text-anchor="start" x="8" y="-18.5" font-family="Helvetica,sans-Serif" font-size="10.00"> Rows, LeafType, LVL &gt; &gt;::</text>
<text text-anchor="middle" x="73" y="-7.5" font-family="Helvetica,sans-Serif" font-size="10.00">getTuple</text>
</a>
</g>
</g>
<!-- Node2 -->
<g id="node2" class="node">
<title>Node2</title>
<g id="a_node2"><a xlink:href="namespacevisioncpp_1_1internal_1_1tools_1_1tuple.html#a8c1631050539cb92a3ac408ab976fb96" target="_top" xlink:title="append">
<polygon fill="none" stroke="black" points="182,-22.5 182,-52.5 301,-52.5 301,-22.5 182,-22.5"/>
<text text-anchor="start" x="190" y="-40.5" font-family="Helvetica,sans-Serif" font-size="10.00">visioncpp::internal</text>
<text text-anchor="middle" x="241.5" y="-29.5" font-family="Helvetica,sans-Serif" font-size="10.00">::tools::tuple::append</text>
</a>
</g>
</g>
<!-- Node1&#45;&gt;Node2 -->
<g id="edge1" class="edge">
<title>Node1&#45;&gt;Node2</title>
<path fill="none" stroke="midnightblue" d="M146.06,-37.5C154.56,-37.5 163.21,-37.5 171.67,-37.5"/>
<polygon fill="midnightblue" stroke="midnightblue" points="171.85,-41 181.85,-37.5 171.85,-34 171.85,-41"/>
</g>
<!-- Node3 -->
<g id="node3" class="node">
<title>Node3</title>
<g id="a_node3"><a xlink:href="namespacevisioncpp_1_1internal_1_1tools_1_1tuple.html#a250b510103551795245a4f26c6472dc5" target="_top" xlink:title="append_impl">
<polygon fill="none" stroke="black" points="337,-22.5 337,-52.5 483,-52.5 483,-22.5 337,-22.5"/>
<text text-anchor="start" x="345" y="-40.5" font-family="Helvetica,sans-Serif" font-size="10.00">visioncpp::internal</text>
<text text-anchor="middle" x="410" y="-29.5" font-family="Helvetica,sans-Serif" font-size="10.00">::tools::tuple::append_impl</text>
</a>
</g>
</g>
<!-- Node2&#45;&gt;Node3 -->
<g id="edge2" class="edge">
<title>Node2&#45;&gt;Node3</title>
<path fill="none" stroke="midnightblue" d="M301.2,-37.5C309.48,-37.5 318.11,-37.5 326.73,-37.5"/>
<polygon fill="midnightblue" stroke="midnightblue" points="326.82,-41 336.82,-37.5 326.82,-34 326.82,-41"/>
</g>
<!-- Node4 -->
<g id="node4" class="node">
<title>Node4</title>
<g id="a_node4"><a xlink:href="namespacevisioncpp_1_1internal_1_1tools_1_1tuple.html#ab2c7fe8e219c5f9e016a8ea40356005f" target="_top" xlink:title="make_tuple">
<polygon fill="none" stroke="black" points="519,-22.5 519,-52.5 659,-52.5 659,-22.5 519,-22.5"/>
<text text-anchor="start" x="527" y="-40.5" font-family="Helvetica,sans-Serif" font-size="10.00">visioncpp::internal</text>
<text text-anchor="middle" x="589" y="-29.5" font-family="Helvetica,sans-Serif" font-size="10.00">::tools::tuple::make_tuple</text>
</a>
</g>
</g>
<!-- Node3&#45;&gt;Node4 -->
<g id="edge3" class="edge">
<title>Node3&#45;&gt;Node4</title>
<path fill="none" stroke="midnightblue" d="M483.25,-37.5C491.61,-37.5 500.17,-37.5 508.61,-37.5"/>
<polygon fill="midnightblue" stroke="midnightblue" points="508.84,-41 518.84,-37.5 508.84,-34 508.84,-41"/>
</g>
</g>
</svg>
