<?xml version="1.0" encoding="UTF-8" standalone="no"?>
<!DOCTYPE svg PUBLIC "-//W3C//DTD SVG 1.1//EN"
 "http://www.w3.org/Graphics/SVG/1.1/DTD/svg11.dtd">
<!-- Generated by graphviz version 2.43.0 (0)
 -->
<!-- Title: visioncpp::internal::RBiOP&lt; BI_OP, LHS, RHS, Cols, Rows, LfType, LVL &gt; Pages: 1 -->
<svg width="374pt" height="281pt"
 viewBox="0.00 0.00 373.50 281.00" xmlns="http://www.w3.org/2000/svg" xmlns:xlink="http://www.w3.org/1999/xlink">
<g id="graph0" class="graph" transform="scale(1 1) rotate(0) translate(4 277)">
<title>visioncpp::internal::RBiOP&lt; BI_OP, LHS, RHS, Cols, Rows, LfType, LVL &gt;</title>
<!-- Node1 -->
<g id="node1" class="node">
<title>Node1</title>
<g id="a_node1"><a xlink:title="The definition is in RBiOP file.">
<polygon fill="#bfbfbf" stroke="black" points="46.5,-0.5 46.5,-112.5 214.5,-112.5 214.5,-0.5 46.5,-0.5"/>
<text text-anchor="start" x="54.5" y="-100.5" font-family="Helvetica,sans-Serif" font-size="10.00">visioncpp::internal</text>
<text text-anchor="start" x="54.5" y="-89.5" font-family="Helvetica,sans-Serif" font-size="10.00">::RBiOP&lt; BI_OP, LHS,</text>
<text text-anchor="start" x="54.5" y="-78.5" font-family="Helvetica,sans-Serif" font-size="10.00"> RHS, Cols, Rows, LfType,</text>
<text text-anchor="middle" x="130.5" y="-67.5" font-family="Helvetica,sans-Serif" font-size="10.00"> LVL &gt;</text>
<polyline fill="none" stroke="black" points="46.5,-60.5 214.5,-60.5 "/>
<text text-anchor="middle" x="130.5" y="-48.5" font-family="Helvetica,sans-Serif" font-size="10.00"> </text>
<polyline fill="none" stroke="black" points="46.5,-41.5 214.5,-41.5 "/>
<text text-anchor="start" x="54.5" y="-29.5" font-family="Helvetica,sans-Serif" font-size="10.00">+ RBiOP()</text>
<text text-anchor="start" x="54.5" y="-18.5" font-family="Helvetica,sans-Serif" font-size="10.00">+ reset()</text>
<text text-anchor="start" x="54.5" y="-7.5" font-family="Helvetica,sans-Serif" font-size="10.00">+ sub_expression_evaluation()</text>
</a>
</g>
</g>
<!-- Node2 -->
<g id="node2" class="node">
<title>Node2</title>
<g id="a_node2"><a xlink:title=" ">
<polygon fill="none" stroke="#bfbfbf" points="0,-215.5 0,-272.5 35,-272.5 35,-215.5 0,-215.5"/>
<text text-anchor="middle" x="17.5" y="-260.5" font-family="Helvetica,sans-Serif" font-size="10.00">LHS</text>
<polyline fill="none" stroke="#bfbfbf" points="0,-253.5 35,-253.5 "/>
<text text-anchor="middle" x="17.5" y="-241.5" font-family="Helvetica,sans-Serif" font-size="10.00"> </text>
<polyline fill="none" stroke="#bfbfbf" points="0,-234.5 35,-234.5 "/>
<text text-anchor="middle" x="17.5" y="-222.5" font-family="Helvetica,sans-Serif" font-size="10.00"> </text>
</a>
</g>
</g>
<!-- Node2&#45;&gt;Node1 -->
<g id="edge1" class="edge">
<title>Node2&#45;&gt;Node1</title>
<path fill="none" stroke="#404040" d="M17.41,-215.33C18.51,-191.43 23.01,-156.78 38.5,-131 40.33,-127.96 42.33,-125 44.47,-122.11"/>
<polygon fill="none" stroke="#404040" points="44.66,-121.88 45.37,-114.71 52.26,-112.6 51.55,-119.78 44.66,-121.88"/>
<text text-anchor="middle" x="51.5" y="-161.5" font-family="Helvetica,sans-Serif" font-size="10.00"> +lhs</text>
</g>
<!-- Node3 -->
<g id="node3" class="node">
<title>Node3</title>
<g id="a_node3"><a xlink:title=" ">
<polygon fill="none" stroke="#bfbfbf" points="53,-215.5 53,-272.5 98,-272.5 98,-215.5 53,-215.5"/>
<text text-anchor="middle" x="75.5" y="-260.5" font-family="Helvetica,sans-Serif" font-size="10.00">size_t</text>
<polyline fill="none" stroke="#bfbfbf" points="53,-253.5 98,-253.5 "/>
<text text-anchor="middle" x="75.5" y="-241.5" font-family="Helvetica,sans-Serif" font-size="10.00"> </text>
<polyline fill="none" stroke="#bfbfbf" points="53,-234.5 98,-234.5 "/>
<text text-anchor="middle" x="75.5" y="-222.5" font-family="Helvetica,sans-Serif" font-size="10.00"> </text>
</a>
</g>
</g>
<!-- Node3&#45;&gt;Node1 -->
<g id="edge2" class="edge">
<title>Node3&#45;&gt;Node1</title>
<path fill="none" stroke="#404040" d="M71.08,-215.07C68.51,-191.92 67.35,-158.49 76.5,-131 77.3,-128.59 78.21,-126.2 79.22,-123.83"/>
<polygon fill="none" stroke="#404040" points="79.28,-123.7 78.32,-116.55 84.55,-112.91 85.51,-120.06 79.28,-123.7"/>
<text text-anchor="middle" x="120" y="-189" font-family="Helvetica,sans-Serif" font-size="10.00"> +Operation_type</text>
<text text-anchor="middle" x="120" y="-178" font-family="Helvetica,sans-Serif" font-size="10.00">+Level</text>
<text text-anchor="middle" x="120" y="-167" font-family="Helvetica,sans-Serif" font-size="10.00">+LeafType</text>
<text text-anchor="middle" x="120" y="-156" font-family="Helvetica,sans-Serif" font-size="10.00">+RThread</text>
<text text-anchor="middle" x="120" y="-145" font-family="Helvetica,sans-Serif" font-size="10.00">+CThread</text>
<text text-anchor="middle" x="120" y="-134" font-family="Helvetica,sans-Serif" font-size="10.00">+ND_Category</text>
</g>
<!-- Node4 -->
<g id="node4" class="node">
<title>Node4</title>
<g id="a_node4"><a xlink:title=" ">
<polygon fill="none" stroke="#bfbfbf" points="167,-215.5 167,-272.5 204,-272.5 204,-215.5 167,-215.5"/>
<text text-anchor="middle" x="185.5" y="-260.5" font-family="Helvetica,sans-Serif" font-size="10.00">RHS</text>
<polyline fill="none" stroke="#bfbfbf" points="167,-253.5 204,-253.5 "/>
<text text-anchor="middle" x="185.5" y="-241.5" font-family="Helvetica,sans-Serif" font-size="10.00"> </text>
<polyline fill="none" stroke="#bfbfbf" points="167,-234.5 204,-234.5 "/>
<text text-anchor="middle" x="185.5" y="-222.5" font-family="Helvetica,sans-Serif" font-size="10.00"> </text>
</a>
</g>
</g>
<!-- Node4&#45;&gt;Node1 -->
<g id="edge3" class="edge">
<title>Node4&#45;&gt;Node1</title>
<path fill="none" stroke="#404040" d="M181.87,-215.4C178.43,-192.46 172.45,-159.14 163.5,-131 162.78,-128.75 162.02,-126.48 161.22,-124.2"/>
<polygon fill="none" stroke="#404040" points="161.14,-123.99 155.28,-119.79 156.91,-112.76 162.77,-116.97 161.14,-123.99"/>
<text text-anchor="middle" x="192" y="-161.5" font-family="Helvetica,sans-Serif" font-size="10.00"> +rhs</text>
</g>
<!-- Node5 -->
<g id="node5" class="node">
<title>Node5</title>
<g id="a_node5"><a xlink:title=" ">
<polygon fill="none" stroke="#bfbfbf" points="222.5,-215.5 222.5,-272.5 260.5,-272.5 260.5,-215.5 222.5,-215.5"/>
<text text-anchor="middle" x="241.5" y="-260.5" font-family="Helvetica,sans-Serif" font-size="10.00">bool</text>
<polyline fill="none" stroke="#bfbfbf" points="222.5,-253.5 260.5,-253.5 "/>
<text text-anchor="middle" x="241.5" y="-241.5" font-family="Helvetica,sans-Serif" font-size="10.00"> </text>
<polyline fill="none" stroke="#bfbfbf" points="222.5,-234.5 260.5,-234.5 "/>
<text text-anchor="middle" x="241.5" y="-222.5" font-family="Helvetica,sans-Serif" font-size="10.00"> </text>
</a>
</g>
</g>
<!-- Node5&#45;&gt;Node1 -->
<g id="edge4" class="edge">
<title>Node5&#45;&gt;Node1</title>
<path fill="none" stroke="#404040" d="M237.82,-215.07C233.72,-191.32 225.46,-157.03 209.5,-131 207.66,-128.01 205.67,-125.05 203.56,-122.16"/>
<polygon fill="none" stroke="#404040" points="203.39,-121.95 196.54,-119.72 195.95,-112.53 202.81,-114.76 203.39,-121.95"/>
<text text-anchor="middle" x="299.5" y="-189" font-family="Helvetica,sans-Serif" font-size="10.00"> +has_out</text>
<text text-anchor="start" x="233.5" y="-178" font-family="Helvetica,sans-Serif" font-size="10.00">+SubExpressionEvaluation</text>
<text text-anchor="middle" x="299.5" y="-167" font-family="Helvetica,sans-Serif" font-size="10.00">Needed</text>
<text text-anchor="start" x="233.5" y="-156" font-family="Helvetica,sans-Serif" font-size="10.00">+subexpr_execution</text>
<text text-anchor="middle" x="299.5" y="-145" font-family="Helvetica,sans-Serif" font-size="10.00">_reseter</text>
<text text-anchor="middle" x="299.5" y="-134" font-family="Helvetica,sans-Serif" font-size="10.00">+Binary_Conds</text>
</g>
</g>
</svg>
