<?xml version="1.0" encoding="UTF-8" standalone="no"?>
<!DOCTYPE svg PUBLIC "-//W3C//DTD SVG 1.1//EN"
 "http://www.w3.org/Graphics/SVG/1.1/DTD/svg11.dtd">
<!-- Generated by graphviz version 2.36.0 (20140111.2315)
 -->
<!-- Title: visioncpp::internal::StnNoFilt&lt; FilterOP, Halo_T, Halo_L, Halo_B, Halo_R, RHS, Cols, Rows, LfType, LVL &gt; Pages: 1 -->
<svg width="293pt" height="348pt"
 viewBox="0.00 0.00 293.00 348.00" xmlns="http://www.w3.org/2000/svg" xmlns:xlink="http://www.w3.org/1999/xlink">
<g id="graph0" class="graph" transform="scale(1 1) rotate(0) translate(4 344)">
<title>visioncpp::internal::StnNoFilt&lt; FilterOP, Halo_T, Halo_L, Halo_B, Halo_R, RHS, Cols, Rows, LfType, LVL &gt;</title>
<!-- Node1 -->
<g id="node1" class="node"><title>Node1</title>
<polygon fill="#bfbfbf" stroke="black" points="42.5,-0.5 42.5,-123.5 191.5,-123.5 191.5,-0.5 42.5,-0.5"/>
<text text-anchor="start" x="50.5" y="-111.5" font-family="Helvetica,sans-Serif" font-size="10.00">visioncpp::internal</text>
<text text-anchor="start" x="50.5" y="-100.5" font-family="Helvetica,sans-Serif" font-size="10.00">::StnNoFilt&lt; FilterOP,</text>
<text text-anchor="start" x="50.5" y="-89.5" font-family="Helvetica,sans-Serif" font-size="10.00"> Halo_T, Halo_L, Halo</text>
<text text-anchor="start" x="50.5" y="-78.5" font-family="Helvetica,sans-Serif" font-size="10.00">_B, Halo_R, RHS, Cols,</text>
<text text-anchor="middle" x="117" y="-67.5" font-family="Helvetica,sans-Serif" font-size="10.00"> Rows, LfType, LVL &gt;</text>
<polyline fill="none" stroke="black" points="42.5,-60.5 191.5,-60.5 "/>
<text text-anchor="middle" x="117" y="-48.5" font-family="Helvetica,sans-Serif" font-size="10.00"> </text>
<polyline fill="none" stroke="black" points="42.5,-41.5 191.5,-41.5 "/>
<text text-anchor="start" x="50.5" y="-29.5" font-family="Helvetica,sans-Serif" font-size="10.00">+ StnNoFilt()</text>
<text text-anchor="start" x="50.5" y="-18.5" font-family="Helvetica,sans-Serif" font-size="10.00">+ reset()</text>
<text text-anchor="start" x="50.5" y="-7.5" font-family="Helvetica,sans-Serif" font-size="10.00">+ sub_expression_evaluation()</text>
</g>
<!-- Node2 -->
<g id="node2" class="node"><title>Node2</title>
<polygon fill="none" stroke="#bfbfbf" points="-0.5,-282.5 -0.5,-339.5 42.5,-339.5 42.5,-282.5 -0.5,-282.5"/>
<text text-anchor="middle" x="21" y="-327.5" font-family="Helvetica,sans-Serif" font-size="10.00">size_t</text>
<polyline fill="none" stroke="#bfbfbf" points="-0.5,-320.5 42.5,-320.5 "/>
<text text-anchor="middle" x="21" y="-308.5" font-family="Helvetica,sans-Serif" font-size="10.00"> </text>
<polyline fill="none" stroke="#bfbfbf" points="-0.5,-301.5 42.5,-301.5 "/>
<text text-anchor="middle" x="21" y="-289.5" font-family="Helvetica,sans-Serif" font-size="10.00"> </text>
</g>
<!-- Node2&#45;&gt;Node1 -->
<g id="edge1" class="edge"><title>Node2&#45;&gt;Node1</title>
<path fill="none" stroke="#404040" d="M18.8104,-282.342C17.2332,-247.777 18.3772,-187.622 40,-142 41.2458,-139.372 42.6148,-136.777 44.0879,-134.221"/>
<polygon fill="none" stroke="#404040" points="44.1999,-134.047 44.075,-126.837 50.6824,-123.949 50.8073,-131.159 44.1999,-134.047"/>
<text text-anchor="middle" x="76.5" y="-255.5" font-family="Helvetica,sans-Serif" font-size="10.00"> +Halo_Right</text>
<text text-anchor="middle" x="76.5" y="-244.5" font-family="Helvetica,sans-Serif" font-size="10.00">+Halo_Top</text>
<text text-anchor="middle" x="76.5" y="-233.5" font-family="Helvetica,sans-Serif" font-size="10.00">+Operation_type</text>
<text text-anchor="middle" x="76.5" y="-222.5" font-family="Helvetica,sans-Serif" font-size="10.00">+Level</text>
<text text-anchor="middle" x="76.5" y="-211.5" font-family="Helvetica,sans-Serif" font-size="10.00">+LeafType</text>
<text text-anchor="middle" x="76.5" y="-200.5" font-family="Helvetica,sans-Serif" font-size="10.00">+Halo_Left</text>
<text text-anchor="middle" x="76.5" y="-189.5" font-family="Helvetica,sans-Serif" font-size="10.00">+RThread</text>
<text text-anchor="middle" x="76.5" y="-178.5" font-family="Helvetica,sans-Serif" font-size="10.00">+CThread</text>
<text text-anchor="middle" x="76.5" y="-167.5" font-family="Helvetica,sans-Serif" font-size="10.00">+Halo_Butt</text>
<text text-anchor="middle" x="76.5" y="-156.5" font-family="Helvetica,sans-Serif" font-size="10.00">+ND_Category</text>
<text text-anchor="middle" x="76.5" y="-145.5" font-family="Helvetica,sans-Serif" font-size="10.00">...</text>
</g>
<!-- Node3 -->
<g id="node3" class="node"><title>Node3</title>
<polygon fill="none" stroke="#bfbfbf" points="98,-282.5 98,-339.5 136,-339.5 136,-282.5 98,-282.5"/>
<text text-anchor="middle" x="117" y="-327.5" font-family="Helvetica,sans-Serif" font-size="10.00">RHS</text>
<polyline fill="none" stroke="#bfbfbf" points="98,-320.5 136,-320.5 "/>
<text text-anchor="middle" x="117" y="-308.5" font-family="Helvetica,sans-Serif" font-size="10.00"> </text>
<polyline fill="none" stroke="#bfbfbf" points="98,-301.5 136,-301.5 "/>
<text text-anchor="middle" x="117" y="-289.5" font-family="Helvetica,sans-Serif" font-size="10.00"> </text>
</g>
<!-- Node3&#45;&gt;Node1 -->
<g id="edge2" class="edge"><title>Node3&#45;&gt;Node1</title>
<path fill="none" stroke="#404040" d="M117,-282.146C117,-246.904 117,-184.89 117,-135.804"/>
<polygon fill="none" stroke="#404040" points="117,-135.627 113,-129.627 117,-123.627 121,-129.627 117,-135.627"/>
<text text-anchor="middle" x="128.5" y="-200.5" font-family="Helvetica,sans-Serif" font-size="10.00"> +rhs</text>
</g>
<!-- Node4 -->
<g id="node4" class="node"><title>Node4</title>
<polygon fill="none" stroke="#bfbfbf" points="154.5,-282.5 154.5,-339.5 189.5,-339.5 189.5,-282.5 154.5,-282.5"/>
<text text-anchor="middle" x="172" y="-327.5" font-family="Helvetica,sans-Serif" font-size="10.00">bool</text>
<polyline fill="none" stroke="#bfbfbf" points="154.5,-320.5 189.5,-320.5 "/>
<text text-anchor="middle" x="172" y="-308.5" font-family="Helvetica,sans-Serif" font-size="10.00"> </text>
<polyline fill="none" stroke="#bfbfbf" points="154.5,-301.5 189.5,-301.5 "/>
<text text-anchor="middle" x="172" y="-289.5" font-family="Helvetica,sans-Serif" font-size="10.00"> </text>
</g>
<!-- Node4&#45;&gt;Node1 -->
<g id="edge3" class="edge"><title>Node4&#45;&gt;Node1</title>
<path fill="none" stroke="#404040" d="M168.808,-282.361C164.613,-248.831 156.302,-190.739 144,-142 143.428,-139.734 142.821,-137.44 142.186,-135.13"/>
<polygon fill="none" stroke="#404040" points="142.157,-135.034 136.64,-130.391 138.803,-123.512 144.321,-128.155 142.157,-135.034"/>
<text text-anchor="middle" x="226" y="-228" font-family="Helvetica,sans-Serif" font-size="10.00"> +has_out</text>
<text text-anchor="start" x="167" y="-217" font-family="Helvetica,sans-Serif" font-size="10.00">+SubExpressionEvaluation</text>
<text text-anchor="middle" x="226" y="-206" font-family="Helvetica,sans-Serif" font-size="10.00">Needed</text>
<text text-anchor="middle" x="226" y="-195" font-family="Helvetica,sans-Serif" font-size="10.00">+Stencil_Conds</text>
<text text-anchor="start" x="167" y="-184" font-family="Helvetica,sans-Serif" font-size="10.00">+subexpr_execution</text>
<text text-anchor="middle" x="226" y="-173" font-family="Helvetica,sans-Serif" font-size="10.00">_reseter</text>
</g>
</g>
</svg>
