<?xml version="1.0" encoding="UTF-8" standalone="no"?>
<!DOCTYPE svg PUBLIC "-//W3C//DTD SVG 1.1//EN"
 "http://www.w3.org/Graphics/SVG/1.1/DTD/svg11.dtd">
<!-- Generated by graphviz version 2.43.0 (0)
 -->
<!-- Title: visioncpp::internal::LocalBinaryOp&lt; USROP, InTp1, InTp2 &gt; Pages: 1 -->
<svg width="767pt" height="502pt"
 viewBox="0.00 0.00 767.03 502.00" xmlns="http://www.w3.org/2000/svg" xmlns:xlink="http://www.w3.org/1999/xlink">
<g id="graph0" class="graph" transform="scale(1 1) rotate(0) translate(4 498)">
<title>visioncpp::internal::LocalBinaryOp&lt; USROP, InTp1, InTp2 &gt;</title>
<!-- Node1 -->
<g id="node1" class="node">
<title>Node1</title>
<g id="a_node1"><a xlink:title="This class is used to encapsulate the local binary functor and the types of each operand in this func...">
<polygon fill="#bfbfbf" stroke="black" points="125.03,-0.5 125.03,-79.5 266.03,-79.5 266.03,-0.5 125.03,-0.5"/>
<text text-anchor="start" x="133.03" y="-67.5" font-family="Helvetica,sans-Serif" font-size="10.00">visioncpp::internal</text>
<text text-anchor="start" x="133.03" y="-56.5" font-family="Helvetica,sans-Serif" font-size="10.00">::LocalBinaryOp&lt; USROP,</text>
<text text-anchor="middle" x="195.53" y="-45.5" font-family="Helvetica,sans-Serif" font-size="10.00"> InTp1, InTp2 &gt;</text>
<polyline fill="none" stroke="black" points="125.03,-38.5 266.03,-38.5 "/>
<text text-anchor="middle" x="195.53" y="-26.5" font-family="Helvetica,sans-Serif" font-size="10.00"> </text>
<polyline fill="none" stroke="black" points="125.03,-19.5 266.03,-19.5 "/>
<text text-anchor="middle" x="195.53" y="-7.5" font-family="Helvetica,sans-Serif" font-size="10.00"> </text>
</a>
</g>
</g>
<!-- Node2 -->
<g id="node2" class="node">
<title>Node2</title>
<g id="a_node2"><a xlink:title=" ">
<polygon fill="none" stroke="#bfbfbf" points="55.03,-436.5 55.03,-493.5 100.03,-493.5 100.03,-436.5 55.03,-436.5"/>
<text text-anchor="middle" x="77.53" y="-481.5" font-family="Helvetica,sans-Serif" font-size="10.00">size_t</text>
<polyline fill="none" stroke="#bfbfbf" points="55.03,-474.5 100.03,-474.5 "/>
<text text-anchor="middle" x="77.53" y="-462.5" font-family="Helvetica,sans-Serif" font-size="10.00"> </text>
<polyline fill="none" stroke="#bfbfbf" points="55.03,-455.5 100.03,-455.5 "/>
<text text-anchor="middle" x="77.53" y="-443.5" font-family="Helvetica,sans-Serif" font-size="10.00"> </text>
</a>
</g>
</g>
<!-- Node2&#45;&gt;Node1 -->
<g id="edge1" class="edge">
<title>Node2&#45;&gt;Node1</title>
<path fill="none" stroke="#404040" d="M56.58,-436.32C27.85,-394.81 -17.51,-314.13 7.53,-247 31.86,-181.78 88.16,-124.84 132.85,-87.45"/>
<polygon fill="none" stroke="#404040" points="132.92,-87.39 135.01,-80.5 142.19,-79.78 140.09,-86.68 132.92,-87.39"/>
<text text-anchor="middle" x="51.03" y="-250" font-family="Helvetica,sans-Serif" font-size="10.00"> +Operation_type</text>
</g>
<!-- Node8 -->
<g id="node8" class="node">
<title>Node8</title>
<g id="a_node8"><a xlink:href="structvisioncpp_1_1internal_1_1ConstNeighbour.html" target="_top" xlink:title=" ">
<polygon fill="none" stroke="black" points="120.53,-133 120.53,-223 270.53,-223 270.53,-133 120.53,-133"/>
<text text-anchor="start" x="128.53" y="-211" font-family="Helvetica,sans-Serif" font-size="10.00">visioncpp::internal</text>
<text text-anchor="middle" x="195.53" y="-200" font-family="Helvetica,sans-Serif" font-size="10.00">::ConstNeighbour&lt; InTp2 &gt;</text>
<polyline fill="none" stroke="black" points="120.53,-193 270.53,-193 "/>
<text text-anchor="middle" x="195.53" y="-181" font-family="Helvetica,sans-Serif" font-size="10.00"> </text>
<polyline fill="none" stroke="black" points="120.53,-174 270.53,-174 "/>
<text text-anchor="start" x="128.53" y="-162" font-family="Helvetica,sans-Serif" font-size="10.00">+ ConstNeighbour()</text>
<text text-anchor="start" x="128.53" y="-151" font-family="Helvetica,sans-Serif" font-size="10.00">+ at()</text>
<text text-anchor="start" x="128.53" y="-140" font-family="Helvetica,sans-Serif" font-size="10.00">+ at()</text>
</a>
</g>
</g>
<!-- Node2&#45;&gt;Node8 -->
<g id="edge9" class="edge">
<title>Node2&#45;&gt;Node8</title>
<path fill="none" stroke="#404040" d="M72.45,-436.25C66.84,-398.08 61.6,-328.19 86.53,-276 94.5,-259.31 106.79,-244.25 120.29,-231.25"/>
<polygon fill="none" stroke="#404040" points="120.45,-231.11 122.17,-224.11 129.3,-223.01 127.57,-230.01 120.45,-231.11"/>
<text text-anchor="middle" x="104.03" y="-330" font-family="Helvetica,sans-Serif" font-size="10.00"> +rows</text>
<text text-anchor="middle" x="104.03" y="-319" font-family="Helvetica,sans-Serif" font-size="10.00">+cols</text>
</g>
<!-- Node10 -->
<g id="node10" class="node">
<title>Node10</title>
<g id="a_node10"><a xlink:href="structvisioncpp_1_1internal_1_1ConstNeighbour.html" target="_top" xlink:title="ConstNeighbour is used to provide global access to the constant memory. It is used as an input type f...">
<polygon fill="none" stroke="black" points="131.03,-282 131.03,-372 260.03,-372 260.03,-282 131.03,-282"/>
<text text-anchor="start" x="139.03" y="-360" font-family="Helvetica,sans-Serif" font-size="10.00">visioncpp::internal</text>
<text text-anchor="middle" x="195.53" y="-349" font-family="Helvetica,sans-Serif" font-size="10.00">::ConstNeighbour&lt; T &gt;</text>
<polyline fill="none" stroke="black" points="131.03,-342 260.03,-342 "/>
<text text-anchor="middle" x="195.53" y="-330" font-family="Helvetica,sans-Serif" font-size="10.00"> </text>
<polyline fill="none" stroke="black" points="131.03,-323 260.03,-323 "/>
<text text-anchor="start" x="139.03" y="-311" font-family="Helvetica,sans-Serif" font-size="10.00">+ ConstNeighbour()</text>
<text text-anchor="start" x="139.03" y="-300" font-family="Helvetica,sans-Serif" font-size="10.00">+ at()</text>
<text text-anchor="start" x="139.03" y="-289" font-family="Helvetica,sans-Serif" font-size="10.00">+ at()</text>
</a>
</g>
</g>
<!-- Node2&#45;&gt;Node10 -->
<g id="edge12" class="edge">
<title>Node2&#45;&gt;Node10</title>
<path fill="none" stroke="#404040" d="M100.28,-437.78C114.22,-421.72 132.55,-400.58 149.41,-381.15"/>
<polygon fill="none" stroke="#404040" points="149.43,-381.14 150.34,-373.98 157.29,-372.07 156.38,-379.23 149.43,-381.14"/>
<text text-anchor="middle" x="154.03" y="-410" font-family="Helvetica,sans-Serif" font-size="10.00"> +rows</text>
<text text-anchor="middle" x="154.03" y="-399" font-family="Helvetica,sans-Serif" font-size="10.00">+cols</text>
</g>
<!-- Node3 -->
<g id="node3" class="node">
<title>Node3</title>
<g id="a_node3"><a xlink:href="structvisioncpp_1_1internal_1_1LocalNeighbour.html" target="_top" xlink:title=" ">
<polygon fill="none" stroke="black" points="466.53,-127.5 466.53,-228.5 614.53,-228.5 614.53,-127.5 466.53,-127.5"/>
<text text-anchor="start" x="474.53" y="-216.5" font-family="Helvetica,sans-Serif" font-size="10.00">visioncpp::internal</text>
<text text-anchor="middle" x="540.53" y="-205.5" font-family="Helvetica,sans-Serif" font-size="10.00">::LocalNeighbour&lt; InTp1 &gt;</text>
<polyline fill="none" stroke="black" points="466.53,-198.5 614.53,-198.5 "/>
<text text-anchor="middle" x="540.53" y="-186.5" font-family="Helvetica,sans-Serif" font-size="10.00"> </text>
<polyline fill="none" stroke="black" points="466.53,-179.5 614.53,-179.5 "/>
<text text-anchor="start" x="474.53" y="-167.5" font-family="Helvetica,sans-Serif" font-size="10.00">+ LocalNeighbour()</text>
<text text-anchor="start" x="474.53" y="-156.5" font-family="Helvetica,sans-Serif" font-size="10.00">+ set_offset()</text>
<text text-anchor="start" x="474.53" y="-145.5" font-family="Helvetica,sans-Serif" font-size="10.00">+ at()</text>
<text text-anchor="start" x="474.53" y="-134.5" font-family="Helvetica,sans-Serif" font-size="10.00">+ at()</text>
</a>
</g>
</g>
<!-- Node3&#45;&gt;Node1 -->
<g id="edge2" class="edge">
<title>Node3&#45;&gt;Node1</title>
<path fill="none" stroke="#404040" d="M466.52,-147.82C410.93,-125.91 334.81,-95.9 277.4,-73.27"/>
<polygon fill="none" stroke="#404040" points="277.34,-73.25 270.29,-74.77 266.18,-68.85 273.23,-67.33 277.34,-73.25"/>
<text text-anchor="middle" x="377.53" y="-101" font-family="Helvetica,sans-Serif" font-size="10.00"> +x</text>
</g>
<!-- Node4 -->
<g id="node4" class="node">
<title>Node4</title>
<g id="a_node4"><a xlink:title=" ">
<polygon fill="none" stroke="#bfbfbf" points="433.03,-298.5 433.03,-355.5 552.03,-355.5 552.03,-298.5 433.03,-298.5"/>
<text text-anchor="middle" x="492.53" y="-343.5" font-family="Helvetica,sans-Serif" font-size="10.00">local_ptr&lt; InTp1 &gt; &amp;</text>
<polyline fill="none" stroke="#bfbfbf" points="433.03,-336.5 552.03,-336.5 "/>
<text text-anchor="middle" x="492.53" y="-324.5" font-family="Helvetica,sans-Serif" font-size="10.00"> </text>
<polyline fill="none" stroke="#bfbfbf" points="433.03,-317.5 552.03,-317.5 "/>
<text text-anchor="middle" x="492.53" y="-305.5" font-family="Helvetica,sans-Serif" font-size="10.00"> </text>
</a>
</g>
</g>
<!-- Node4&#45;&gt;Node3 -->
<g id="edge3" class="edge">
<title>Node4&#45;&gt;Node3</title>
<path fill="none" stroke="#404040" d="M501.56,-298.35C506.94,-281.87 514,-260.26 520.62,-239.97"/>
<polygon fill="none" stroke="#404040" points="520.63,-239.95 518.69,-233.01 524.35,-228.54 526.29,-235.49 520.63,-239.95"/>
<text text-anchor="middle" x="531.03" y="-250" font-family="Helvetica,sans-Serif" font-size="10.00"> +ptr</text>
</g>
<!-- Node5 -->
<g id="node5" class="node">
<title>Node5</title>
<g id="a_node5"><a xlink:title=" ">
<polygon fill="none" stroke="#bfbfbf" points="586.03,-436.5 586.03,-493.5 615.03,-493.5 615.03,-436.5 586.03,-436.5"/>
<text text-anchor="middle" x="600.53" y="-481.5" font-family="Helvetica,sans-Serif" font-size="10.00">int</text>
<polyline fill="none" stroke="#bfbfbf" points="586.03,-474.5 615.03,-474.5 "/>
<text text-anchor="middle" x="600.53" y="-462.5" font-family="Helvetica,sans-Serif" font-size="10.00"> </text>
<polyline fill="none" stroke="#bfbfbf" points="586.03,-455.5 615.03,-455.5 "/>
<text text-anchor="middle" x="600.53" y="-443.5" font-family="Helvetica,sans-Serif" font-size="10.00"> </text>
</a>
</g>
</g>
<!-- Node5&#45;&gt;Node3 -->
<g id="edge4" class="edge">
<title>Node5&#45;&gt;Node3</title>
<path fill="none" stroke="#404040" d="M594.72,-436.41C585.27,-391.52 566.34,-301.57 553.54,-240.82"/>
<polygon fill="none" stroke="#404040" points="553.47,-240.44 548.32,-235.39 550.99,-228.7 556.14,-233.74 553.47,-240.44"/>
<text text-anchor="middle" x="595.03" y="-330" font-family="Helvetica,sans-Serif" font-size="10.00"> +I_c</text>
<text text-anchor="middle" x="595.03" y="-319" font-family="Helvetica,sans-Serif" font-size="10.00">+I_r</text>
</g>
<!-- Node6 -->
<g id="node6" class="node">
<title>Node6</title>
<g id="a_node6"><a xlink:href="structvisioncpp_1_1internal_1_1LocalNeighbour.html" target="_top" xlink:title="LocalNeighbour is used to provide local access for each element of the local memory based on the Coor...">
<polygon fill="none" stroke="black" points="632.03,-276.5 632.03,-377.5 759.03,-377.5 759.03,-276.5 632.03,-276.5"/>
<text text-anchor="start" x="640.03" y="-365.5" font-family="Helvetica,sans-Serif" font-size="10.00">visioncpp::internal</text>
<text text-anchor="middle" x="695.53" y="-354.5" font-family="Helvetica,sans-Serif" font-size="10.00">::LocalNeighbour&lt; T &gt;</text>
<polyline fill="none" stroke="black" points="632.03,-347.5 759.03,-347.5 "/>
<text text-anchor="middle" x="695.53" y="-335.5" font-family="Helvetica,sans-Serif" font-size="10.00"> </text>
<polyline fill="none" stroke="black" points="632.03,-328.5 759.03,-328.5 "/>
<text text-anchor="start" x="640.03" y="-316.5" font-family="Helvetica,sans-Serif" font-size="10.00">+ LocalNeighbour()</text>
<text text-anchor="start" x="640.03" y="-305.5" font-family="Helvetica,sans-Serif" font-size="10.00">+ set_offset()</text>
<text text-anchor="start" x="640.03" y="-294.5" font-family="Helvetica,sans-Serif" font-size="10.00">+ at()</text>
<text text-anchor="start" x="640.03" y="-283.5" font-family="Helvetica,sans-Serif" font-size="10.00">+ at()</text>
</a>
</g>
</g>
<!-- Node5&#45;&gt;Node6 -->
<g id="edge7" class="edge">
<title>Node5&#45;&gt;Node6</title>
<path fill="none" stroke="#404040" d="M615.17,-443.05C625.59,-428.13 640.14,-407.29 654.01,-387.44"/>
<polygon fill="none" stroke="#404040" points="654.08,-387.34 654.24,-380.13 660.95,-377.5 660.8,-384.71 654.08,-387.34"/>
<text text-anchor="middle" x="661.03" y="-410" font-family="Helvetica,sans-Serif" font-size="10.00"> +I_c</text>
<text text-anchor="middle" x="661.03" y="-399" font-family="Helvetica,sans-Serif" font-size="10.00">+I_r</text>
</g>
<!-- Node6&#45;&gt;Node3 -->
<g id="edge5" class="edge">
<title>Node6&#45;&gt;Node3</title>
<path fill="none" stroke="orange" d="M635.76,-269.32C621.65,-255.93 606.71,-241.76 592.95,-228.72"/>
<polygon fill="orange" stroke="orange" points="633.39,-271.89 643.05,-276.23 638.21,-266.81 633.39,-271.89"/>
<text text-anchor="middle" x="650.03" y="-250" font-family="Helvetica,sans-Serif" font-size="10.00"> &lt; InTp1 &gt;</text>
</g>
<!-- Node7 -->
<g id="node7" class="node">
<title>Node7</title>
<g id="a_node7"><a xlink:title=" ">
<polygon fill="none" stroke="#bfbfbf" points="646.53,-436.5 646.53,-493.5 744.53,-493.5 744.53,-436.5 646.53,-436.5"/>
<text text-anchor="middle" x="695.53" y="-481.5" font-family="Helvetica,sans-Serif" font-size="10.00">local_ptr&lt; T &gt; &amp;</text>
<polyline fill="none" stroke="#bfbfbf" points="646.53,-474.5 744.53,-474.5 "/>
<text text-anchor="middle" x="695.53" y="-462.5" font-family="Helvetica,sans-Serif" font-size="10.00"> </text>
<polyline fill="none" stroke="#bfbfbf" points="646.53,-455.5 744.53,-455.5 "/>
<text text-anchor="middle" x="695.53" y="-443.5" font-family="Helvetica,sans-Serif" font-size="10.00"> </text>
</a>
</g>
</g>
<!-- Node7&#45;&gt;Node6 -->
<g id="edge6" class="edge">
<title>Node7&#45;&gt;Node6</title>
<path fill="none" stroke="#404040" d="M695.53,-436.48C695.53,-423.06 695.53,-406.33 695.53,-390.06"/>
<polygon fill="none" stroke="#404040" points="695.53,-389.76 691.53,-383.76 695.53,-377.76 699.53,-383.76 695.53,-389.76"/>
<text text-anchor="middle" x="708.03" y="-404.5" font-family="Helvetica,sans-Serif" font-size="10.00"> +ptr</text>
</g>
<!-- Node8&#45;&gt;Node1 -->
<g id="edge8" class="edge">
<title>Node8&#45;&gt;Node1</title>
<path fill="none" stroke="#404040" d="M195.53,-132.84C195.53,-119.78 195.53,-105.37 195.53,-91.92"/>
<polygon fill="none" stroke="#404040" points="195.53,-91.9 191.53,-85.9 195.53,-79.9 199.53,-85.9 195.53,-91.9"/>
<text text-anchor="middle" x="204.53" y="-101" font-family="Helvetica,sans-Serif" font-size="10.00"> +y</text>
</g>
<!-- Node9 -->
<g id="node9" class="node">
<title>Node9</title>
<g id="a_node9"><a xlink:title=" ">
<polygon fill="none" stroke="#bfbfbf" points="278.03,-298.5 278.03,-355.5 415.03,-355.5 415.03,-298.5 278.03,-298.5"/>
<text text-anchor="middle" x="346.53" y="-343.5" font-family="Helvetica,sans-Serif" font-size="10.00">constant_ptr&lt; InTp2 &gt; &amp;</text>
<polyline fill="none" stroke="#bfbfbf" points="278.03,-336.5 415.03,-336.5 "/>
<text text-anchor="middle" x="346.53" y="-324.5" font-family="Helvetica,sans-Serif" font-size="10.00"> </text>
<polyline fill="none" stroke="#bfbfbf" points="278.03,-317.5 415.03,-317.5 "/>
<text text-anchor="middle" x="346.53" y="-305.5" font-family="Helvetica,sans-Serif" font-size="10.00"> </text>
</a>
</g>
</g>
<!-- Node9&#45;&gt;Node8 -->
<g id="edge10" class="edge">
<title>Node9&#45;&gt;Node8</title>
<path fill="none" stroke="#404040" d="M318.13,-298.35C298.89,-279.62 272.85,-254.27 249.72,-231.75"/>
<polygon fill="none" stroke="#404040" points="249.62,-231.65 242.53,-230.33 241.02,-223.28 248.11,-224.6 249.62,-231.65"/>
<text text-anchor="middle" x="289.03" y="-250" font-family="Helvetica,sans-Serif" font-size="10.00"> +ptr</text>
</g>
<!-- Node10&#45;&gt;Node8 -->
<g id="edge11" class="edge">
<title>Node10&#45;&gt;Node8</title>
<path fill="none" stroke="orange" d="M195.53,-271.61C195.53,-255.62 195.53,-238.33 195.53,-223.07"/>
<polygon fill="orange" stroke="orange" points="192.03,-271.9 195.53,-281.9 199.03,-271.9 192.03,-271.9"/>
<text text-anchor="middle" x="222.03" y="-250" font-family="Helvetica,sans-Serif" font-size="10.00"> &lt; InTp2 &gt;</text>
</g>
<!-- Node11 -->
<g id="node11" class="node">
<title>Node11</title>
<g id="a_node11"><a xlink:title=" ">
<polygon fill="none" stroke="#bfbfbf" points="137.53,-436.5 137.53,-493.5 253.53,-493.5 253.53,-436.5 137.53,-436.5"/>
<text text-anchor="middle" x="195.53" y="-481.5" font-family="Helvetica,sans-Serif" font-size="10.00">constant_ptr&lt; T &gt; &amp;</text>
<polyline fill="none" stroke="#bfbfbf" points="137.53,-474.5 253.53,-474.5 "/>
<text text-anchor="middle" x="195.53" y="-462.5" font-family="Helvetica,sans-Serif" font-size="10.00"> </text>
<polyline fill="none" stroke="#bfbfbf" points="137.53,-455.5 253.53,-455.5 "/>
<text text-anchor="middle" x="195.53" y="-443.5" font-family="Helvetica,sans-Serif" font-size="10.00"> </text>
</a>
</g>
</g>
<!-- Node11&#45;&gt;Node10 -->
<g id="edge13" class="edge">
<title>Node11&#45;&gt;Node10</title>
<path fill="none" stroke="#404040" d="M195.53,-436.48C195.53,-421.47 195.53,-402.32 195.53,-384.31"/>
<polygon fill="none" stroke="#404040" points="195.53,-384.08 191.53,-378.08 195.53,-372.08 199.53,-378.08 195.53,-384.08"/>
<text text-anchor="middle" x="208.03" y="-404.5" font-family="Helvetica,sans-Serif" font-size="10.00"> +ptr</text>
</g>
</g>
</svg>
