<?xml version="1.0" encoding="UTF-8" standalone="no"?>
<!DOCTYPE svg PUBLIC "-//W3C//DTD SVG 1.1//EN"
 "http://www.w3.org/Graphics/SVG/1.1/DTD/svg11.dtd">
<!-- Generated by graphviz version 2.43.0 (0)
 -->
<!-- Title: visioncpp::internal::StnFilt&lt; Conv_OP, Halo_T, Halo_L, Halo_B, Halo_R, LHS, RHS, Cols, Rows, LfType, LVL &gt; Pages: 1 -->
<svg width="378pt" height="347pt"
 viewBox="0.00 0.00 377.50 347.00" xmlns="http://www.w3.org/2000/svg" xmlns:xlink="http://www.w3.org/1999/xlink">
<g id="graph0" class="graph" transform="scale(1 1) rotate(0) translate(4 343)">
<title>visioncpp::internal::StnFilt&lt; Conv_OP, Halo_T, Halo_L, Halo_B, Halo_R, LHS, RHS, Cols, Rows, LfType, LVL &gt;</title>
<!-- Node1 -->
<g id="node1" class="node">
<title>Node1</title>
<g id="a_node1"><a xlink:title="The definition is in StnFilt file.">
<polygon fill="#bfbfbf" stroke="black" points="44.5,-0.5 44.5,-123.5 212.5,-123.5 212.5,-0.5 44.5,-0.5"/>
<text text-anchor="start" x="52.5" y="-111.5" font-family="Helvetica,sans-Serif" font-size="10.00">visioncpp::internal</text>
<text text-anchor="start" x="52.5" y="-100.5" font-family="Helvetica,sans-Serif" font-size="10.00">::StnFilt&lt; Conv_OP,</text>
<text text-anchor="start" x="52.5" y="-89.5" font-family="Helvetica,sans-Serif" font-size="10.00"> Halo_T, Halo_L, Halo</text>
<text text-anchor="start" x="52.5" y="-78.5" font-family="Helvetica,sans-Serif" font-size="10.00">_B, Halo_R, LHS, RHS,</text>
<text text-anchor="middle" x="128.5" y="-67.5" font-family="Helvetica,sans-Serif" font-size="10.00"> Cols, Rows, LfType, LVL &gt;</text>
<polyline fill="none" stroke="black" points="44.5,-60.5 212.5,-60.5 "/>
<text text-anchor="middle" x="128.5" y="-48.5" font-family="Helvetica,sans-Serif" font-size="10.00"> </text>
<polyline fill="none" stroke="black" points="44.5,-41.5 212.5,-41.5 "/>
<text text-anchor="start" x="52.5" y="-29.5" font-family="Helvetica,sans-Serif" font-size="10.00">+ StnFilt()</text>
<text text-anchor="start" x="52.5" y="-18.5" font-family="Helvetica,sans-Serif" font-size="10.00">+ reset()</text>
<text text-anchor="start" x="52.5" y="-7.5" font-family="Helvetica,sans-Serif" font-size="10.00">+ sub_expression_evaluation()</text>
</a>
</g>
</g>
<!-- Node2 -->
<g id="node2" class="node">
<title>Node2</title>
<g id="a_node2"><a xlink:title=" ">
<polygon fill="none" stroke="#bfbfbf" points="0,-281.5 0,-338.5 35,-338.5 35,-281.5 0,-281.5"/>
<text text-anchor="middle" x="17.5" y="-326.5" font-family="Helvetica,sans-Serif" font-size="10.00">LHS</text>
<polyline fill="none" stroke="#bfbfbf" points="0,-319.5 35,-319.5 "/>
<text text-anchor="middle" x="17.5" y="-307.5" font-family="Helvetica,sans-Serif" font-size="10.00"> </text>
<polyline fill="none" stroke="#bfbfbf" points="0,-300.5 35,-300.5 "/>
<text text-anchor="middle" x="17.5" y="-288.5" font-family="Helvetica,sans-Serif" font-size="10.00"> </text>
</a>
</g>
</g>
<!-- Node2&#45;&gt;Node1 -->
<g id="edge1" class="edge">
<title>Node2&#45;&gt;Node1</title>
<path fill="none" stroke="#404040" d="M14.72,-281.49C12.5,-246.84 12.93,-186.48 36.5,-142 38.04,-139.09 39.74,-136.24 41.56,-133.46"/>
<polygon fill="none" stroke="#404040" points="41.63,-133.37 41.93,-126.16 48.7,-123.67 48.4,-130.87 41.63,-133.37"/>
<text text-anchor="middle" x="49.5" y="-200" font-family="Helvetica,sans-Serif" font-size="10.00"> +lhs</text>
</g>
<!-- Node3 -->
<g id="node3" class="node">
<title>Node3</title>
<g id="a_node3"><a xlink:title=" ">
<polygon fill="none" stroke="#bfbfbf" points="53,-281.5 53,-338.5 98,-338.5 98,-281.5 53,-281.5"/>
<text text-anchor="middle" x="75.5" y="-326.5" font-family="Helvetica,sans-Serif" font-size="10.00">size_t</text>
<polyline fill="none" stroke="#bfbfbf" points="53,-319.5 98,-319.5 "/>
<text text-anchor="middle" x="75.5" y="-307.5" font-family="Helvetica,sans-Serif" font-size="10.00"> </text>
<polyline fill="none" stroke="#bfbfbf" points="53,-300.5 98,-300.5 "/>
<text text-anchor="middle" x="75.5" y="-288.5" font-family="Helvetica,sans-Serif" font-size="10.00"> </text>
</a>
</g>
</g>
<!-- Node3&#45;&gt;Node1 -->
<g id="edge2" class="edge">
<title>Node3&#45;&gt;Node1</title>
<path fill="none" stroke="#404040" d="M70.97,-281.39C66.49,-247.68 62.17,-189.31 76.5,-142 77.2,-139.7 77.98,-137.41 78.85,-135.13"/>
<polygon fill="none" stroke="#404040" points="78.97,-134.85 77.69,-127.75 83.75,-123.85 85.03,-130.94 78.97,-134.85"/>
<text text-anchor="middle" x="118.5" y="-255" font-family="Helvetica,sans-Serif" font-size="10.00"> +CThread</text>
<text text-anchor="middle" x="118.5" y="-244" font-family="Helvetica,sans-Serif" font-size="10.00">+Halo_Butt</text>
<text text-anchor="middle" x="118.5" y="-233" font-family="Helvetica,sans-Serif" font-size="10.00">+Halo_Left</text>
<text text-anchor="middle" x="118.5" y="-222" font-family="Helvetica,sans-Serif" font-size="10.00">+Halo_Right</text>
<text text-anchor="middle" x="118.5" y="-211" font-family="Helvetica,sans-Serif" font-size="10.00">+Halo_Top</text>
<text text-anchor="middle" x="118.5" y="-200" font-family="Helvetica,sans-Serif" font-size="10.00">+LeafType</text>
<text text-anchor="middle" x="118.5" y="-189" font-family="Helvetica,sans-Serif" font-size="10.00">+Level</text>
<text text-anchor="middle" x="118.5" y="-178" font-family="Helvetica,sans-Serif" font-size="10.00">+ND_Category</text>
<text text-anchor="middle" x="118.5" y="-167" font-family="Helvetica,sans-Serif" font-size="10.00">+Operation_type</text>
<text text-anchor="middle" x="118.5" y="-156" font-family="Helvetica,sans-Serif" font-size="10.00">+RThread</text>
<text text-anchor="middle" x="118.5" y="-145" font-family="Helvetica,sans-Serif" font-size="10.00">...</text>
</g>
<!-- Node4 -->
<g id="node4" class="node">
<title>Node4</title>
<g id="a_node4"><a xlink:title=" ">
<polygon fill="none" stroke="#bfbfbf" points="164,-281.5 164,-338.5 201,-338.5 201,-281.5 164,-281.5"/>
<text text-anchor="middle" x="182.5" y="-326.5" font-family="Helvetica,sans-Serif" font-size="10.00">RHS</text>
<polyline fill="none" stroke="#bfbfbf" points="164,-319.5 201,-319.5 "/>
<text text-anchor="middle" x="182.5" y="-307.5" font-family="Helvetica,sans-Serif" font-size="10.00"> </text>
<polyline fill="none" stroke="#bfbfbf" points="164,-300.5 201,-300.5 "/>
<text text-anchor="middle" x="182.5" y="-288.5" font-family="Helvetica,sans-Serif" font-size="10.00"> </text>
</a>
</g>
</g>
<!-- Node4&#45;&gt;Node1 -->
<g id="edge3" class="edge">
<title>Node4&#45;&gt;Node1</title>
<path fill="none" stroke="#404040" d="M181.01,-281.4C178.72,-247.94 173.18,-190.07 160.5,-142 159.91,-139.75 159.26,-137.47 158.58,-135.19"/>
<polygon fill="none" stroke="#404040" points="158.57,-135.14 152.91,-130.66 154.88,-123.72 160.53,-128.2 158.57,-135.14"/>
<text text-anchor="middle" x="192" y="-200" font-family="Helvetica,sans-Serif" font-size="10.00"> +rhs</text>
</g>
<!-- Node5 -->
<g id="node5" class="node">
<title>Node5</title>
<g id="a_node5"><a xlink:title=" ">
<polygon fill="none" stroke="#bfbfbf" points="219.5,-281.5 219.5,-338.5 257.5,-338.5 257.5,-281.5 219.5,-281.5"/>
<text text-anchor="middle" x="238.5" y="-326.5" font-family="Helvetica,sans-Serif" font-size="10.00">bool</text>
<polyline fill="none" stroke="#bfbfbf" points="219.5,-319.5 257.5,-319.5 "/>
<text text-anchor="middle" x="238.5" y="-307.5" font-family="Helvetica,sans-Serif" font-size="10.00"> </text>
<polyline fill="none" stroke="#bfbfbf" points="219.5,-300.5 257.5,-300.5 "/>
<text text-anchor="middle" x="238.5" y="-288.5" font-family="Helvetica,sans-Serif" font-size="10.00"> </text>
</a>
</g>
</g>
<!-- Node5&#45;&gt;Node1 -->
<g id="edge4" class="edge">
<title>Node5&#45;&gt;Node1</title>
<path fill="none" stroke="#404040" d="M238.8,-281.32C238.07,-246.77 233.09,-186.78 209.5,-142 208.06,-139.26 206.49,-136.56 204.81,-133.91"/>
<polygon fill="none" stroke="#404040" points="204.69,-133.74 197.98,-131.1 197.84,-123.89 204.55,-126.53 204.69,-133.74"/>
<text text-anchor="middle" x="303.5" y="-227.5" font-family="Helvetica,sans-Serif" font-size="10.00"> +Stencil_Conds</text>
<text text-anchor="start" x="237.5" y="-216.5" font-family="Helvetica,sans-Serif" font-size="10.00">+SubExpressionEvaluation</text>
<text text-anchor="middle" x="303.5" y="-205.5" font-family="Helvetica,sans-Serif" font-size="10.00">Needed</text>
<text text-anchor="middle" x="303.5" y="-194.5" font-family="Helvetica,sans-Serif" font-size="10.00">+has_out</text>
<text text-anchor="start" x="237.5" y="-183.5" font-family="Helvetica,sans-Serif" font-size="10.00">+subexpr_execution</text>
<text text-anchor="middle" x="303.5" y="-172.5" font-family="Helvetica,sans-Serif" font-size="10.00">_reseter</text>
</g>
</g>
</svg>
