<?xml version="1.0" encoding="UTF-8" standalone="no"?>
<!DOCTYPE svg PUBLIC "-//W3C//DTD SVG 1.1//EN"
 "http://www.w3.org/Graphics/SVG/1.1/DTD/svg11.dtd">
<!-- Generated by graphviz version 2.36.0 (20140111.2315)
 -->
<!-- Title: visioncpp::internal::LocalUnaryOp&lt; USROP, InTp &gt; Pages: 1 -->
<svg width="312pt" height="504pt"
 viewBox="0.00 0.00 312.00 504.00" xmlns="http://www.w3.org/2000/svg" xmlns:xlink="http://www.w3.org/1999/xlink">
<g id="graph0" class="graph" transform="scale(1 1) rotate(0) translate(4 500)">
<title>visioncpp::internal::LocalUnaryOp&lt; USROP, InTp &gt;</title>
<!-- Node1 -->
<g id="node1" class="node"><title>Node1</title>
<polygon fill="#bfbfbf" stroke="black" points="148.5,-0.5 148.5,-79.5 281.5,-79.5 281.5,-0.5 148.5,-0.5"/>
<text text-anchor="start" x="156.5" y="-67.5" font-family="Helvetica,sans-Serif" font-size="10.00">visioncpp::internal</text>
<text text-anchor="start" x="156.5" y="-56.5" font-family="Helvetica,sans-Serif" font-size="10.00">::LocalUnaryOp&lt; USROP,</text>
<text text-anchor="middle" x="215" y="-45.5" font-family="Helvetica,sans-Serif" font-size="10.00"> InTp &gt;</text>
<polyline fill="none" stroke="black" points="148.5,-38.5 281.5,-38.5 "/>
<text text-anchor="middle" x="215" y="-26.5" font-family="Helvetica,sans-Serif" font-size="10.00"> </text>
<polyline fill="none" stroke="black" points="148.5,-19.5 281.5,-19.5 "/>
<text text-anchor="middle" x="215" y="-7.5" font-family="Helvetica,sans-Serif" font-size="10.00"> </text>
</g>
<!-- Node2 -->
<g id="node2" class="node"><title>Node2</title>
<g id="a_node2"><a xlink:href="structvisioncpp_1_1internal_1_1LocalNeighbour.html" target="_top" xlink:title="{visioncpp::internal\l::LocalNeighbour\&lt; InTp \&gt;\n||+ LocalNeighbour()\l+ set_offset()\l+ at()\l+ at()\l}">
<polygon fill="none" stroke="black" points="73,-128.5 73,-229.5 201,-229.5 201,-128.5 73,-128.5"/>
<text text-anchor="start" x="81" y="-217.5" font-family="Helvetica,sans-Serif" font-size="10.00">visioncpp::internal</text>
<text text-anchor="middle" x="137" y="-206.5" font-family="Helvetica,sans-Serif" font-size="10.00">::LocalNeighbour&lt; InTp &gt;</text>
<polyline fill="none" stroke="black" points="73,-199.5 201,-199.5 "/>
<text text-anchor="middle" x="137" y="-187.5" font-family="Helvetica,sans-Serif" font-size="10.00"> </text>
<polyline fill="none" stroke="black" points="73,-180.5 201,-180.5 "/>
<text text-anchor="start" x="81" y="-168.5" font-family="Helvetica,sans-Serif" font-size="10.00">+ LocalNeighbour()</text>
<text text-anchor="start" x="81" y="-157.5" font-family="Helvetica,sans-Serif" font-size="10.00">+ set_offset()</text>
<text text-anchor="start" x="81" y="-146.5" font-family="Helvetica,sans-Serif" font-size="10.00">+ at()</text>
<text text-anchor="start" x="81" y="-135.5" font-family="Helvetica,sans-Serif" font-size="10.00">+ at()</text>
</a>
</g>
</g>
<!-- Node2&#45;&gt;Node1 -->
<g id="edge1" class="edge"><title>Node2&#45;&gt;Node1</title>
<path fill="none" stroke="#404040" d="M165.38,-128.152C172.388,-115.844 179.891,-102.666 186.885,-90.3806"/>
<polygon fill="none" stroke="#404040" points="186.939,-90.2862 186.432,-83.093 192.877,-79.8579 193.384,-87.0512 186.939,-90.2862"/>
<text text-anchor="middle" x="188.5" y="-101.5" font-family="Helvetica,sans-Serif" font-size="10.00"> +x</text>
</g>
<!-- Node3 -->
<g id="node3" class="node"><title>Node3</title>
<polygon fill="none" stroke="#bfbfbf" points="-0.5,-300.5 -0.5,-357.5 100.5,-357.5 100.5,-300.5 -0.5,-300.5"/>
<text text-anchor="middle" x="50" y="-345.5" font-family="Helvetica,sans-Serif" font-size="10.00">local_ptr&lt; InTp &gt; &amp;</text>
<polyline fill="none" stroke="#bfbfbf" points="-0.5,-338.5 100.5,-338.5 "/>
<text text-anchor="middle" x="50" y="-326.5" font-family="Helvetica,sans-Serif" font-size="10.00"> </text>
<polyline fill="none" stroke="#bfbfbf" points="-0.5,-319.5 100.5,-319.5 "/>
<text text-anchor="middle" x="50" y="-307.5" font-family="Helvetica,sans-Serif" font-size="10.00"> </text>
</g>
<!-- Node3&#45;&gt;Node2 -->
<g id="edge2" class="edge"><title>Node3&#45;&gt;Node2</title>
<path fill="none" stroke="#404040" d="M66.364,-300.162C76.3436,-283.186 89.4958,-260.812 101.743,-239.977"/>
<polygon fill="none" stroke="#404040" points="101.772,-239.928 101.365,-232.728 107.854,-229.583 108.261,-236.782 101.772,-239.928"/>
<text text-anchor="middle" x="107.5" y="-251.5" font-family="Helvetica,sans-Serif" font-size="10.00"> +ptr</text>
</g>
<!-- Node4 -->
<g id="node4" class="node"><title>Node4</title>
<polygon fill="none" stroke="#bfbfbf" points="133.5,-438.5 133.5,-495.5 162.5,-495.5 162.5,-438.5 133.5,-438.5"/>
<text text-anchor="middle" x="148" y="-483.5" font-family="Helvetica,sans-Serif" font-size="10.00">int</text>
<polyline fill="none" stroke="#bfbfbf" points="133.5,-476.5 162.5,-476.5 "/>
<text text-anchor="middle" x="148" y="-464.5" font-family="Helvetica,sans-Serif" font-size="10.00"> </text>
<polyline fill="none" stroke="#bfbfbf" points="133.5,-457.5 162.5,-457.5 "/>
<text text-anchor="middle" x="148" y="-445.5" font-family="Helvetica,sans-Serif" font-size="10.00"> </text>
</g>
<!-- Node4&#45;&gt;Node2 -->
<g id="edge3" class="edge"><title>Node4&#45;&gt;Node2</title>
<path fill="none" stroke="#404040" d="M146.935,-438.317C145.2,-393.202 141.721,-302.741 139.376,-241.766"/>
<polygon fill="none" stroke="#404040" points="139.369,-241.599 135.142,-235.757 138.908,-229.608 143.136,-235.45 139.369,-241.599"/>
<text text-anchor="middle" x="156.5" y="-332" font-family="Helvetica,sans-Serif" font-size="10.00"> +I_c</text>
<text text-anchor="middle" x="156.5" y="-321" font-family="Helvetica,sans-Serif" font-size="10.00">+I_r</text>
</g>
<!-- Node5 -->
<g id="node5" class="node"><title>Node5</title>
<g id="a_node5"><a xlink:href="structvisioncpp_1_1internal_1_1LocalNeighbour.html" target="_top" xlink:title="LocalNeighbour is used to provide local access for each element of the local memory based on the Coor...">
<polygon fill="none" stroke="black" points="178,-278.5 178,-379.5 292,-379.5 292,-278.5 178,-278.5"/>
<text text-anchor="start" x="186" y="-367.5" font-family="Helvetica,sans-Serif" font-size="10.00">visioncpp::internal</text>
<text text-anchor="middle" x="235" y="-356.5" font-family="Helvetica,sans-Serif" font-size="10.00">::LocalNeighbour&lt; T &gt;</text>
<polyline fill="none" stroke="black" points="178,-349.5 292,-349.5 "/>
<text text-anchor="middle" x="235" y="-337.5" font-family="Helvetica,sans-Serif" font-size="10.00"> </text>
<polyline fill="none" stroke="black" points="178,-330.5 292,-330.5 "/>
<text text-anchor="start" x="186" y="-318.5" font-family="Helvetica,sans-Serif" font-size="10.00">+ LocalNeighbour()</text>
<text text-anchor="start" x="186" y="-307.5" font-family="Helvetica,sans-Serif" font-size="10.00">+ set_offset()</text>
<text text-anchor="start" x="186" y="-296.5" font-family="Helvetica,sans-Serif" font-size="10.00">+ at()</text>
<text text-anchor="start" x="186" y="-285.5" font-family="Helvetica,sans-Serif" font-size="10.00">+ at()</text>
</a>
</g>
</g>
<!-- Node4&#45;&gt;Node5 -->
<g id="edge6" class="edge"><title>Node4&#45;&gt;Node5</title>
<path fill="none" stroke="#404040" d="M162.562,-443.237C171.908,-428.626 184.517,-408.916 196.594,-390.037"/>
<polygon fill="none" stroke="#404040" points="196.758,-389.78 196.622,-382.57 203.225,-379.671 203.361,-386.881 196.758,-389.78"/>
<text text-anchor="middle" x="203.5" y="-412" font-family="Helvetica,sans-Serif" font-size="10.00"> +I_c</text>
<text text-anchor="middle" x="203.5" y="-401" font-family="Helvetica,sans-Serif" font-size="10.00">+I_r</text>
</g>
<!-- Node5&#45;&gt;Node2 -->
<g id="edge4" class="edge"><title>Node5&#45;&gt;Node2</title>
<path fill="none" stroke="orange" d="M196.397,-269.701C187.604,-256.422 178.343,-242.437 169.818,-229.562"/>
<polygon fill="orange" stroke="orange" points="193.656,-271.901 202.095,-278.306 199.492,-268.036 193.656,-271.901"/>
<text text-anchor="middle" x="209.5" y="-251.5" font-family="Helvetica,sans-Serif" font-size="10.00"> &lt; InTp &gt;</text>
</g>
<!-- Node6 -->
<g id="node6" class="node"><title>Node6</title>
<polygon fill="none" stroke="#bfbfbf" points="191.5,-438.5 191.5,-495.5 278.5,-495.5 278.5,-438.5 191.5,-438.5"/>
<text text-anchor="middle" x="235" y="-483.5" font-family="Helvetica,sans-Serif" font-size="10.00">local_ptr&lt; T &gt; &amp;</text>
<polyline fill="none" stroke="#bfbfbf" points="191.5,-476.5 278.5,-476.5 "/>
<text text-anchor="middle" x="235" y="-464.5" font-family="Helvetica,sans-Serif" font-size="10.00"> </text>
<polyline fill="none" stroke="#bfbfbf" points="191.5,-457.5 278.5,-457.5 "/>
<text text-anchor="middle" x="235" y="-445.5" font-family="Helvetica,sans-Serif" font-size="10.00"> </text>
</g>
<!-- Node6&#45;&gt;Node5 -->
<g id="edge5" class="edge"><title>Node6&#45;&gt;Node5</title>
<path fill="none" stroke="#404040" d="M235,-438.478C235,-425.057 235,-408.327 235,-392.055"/>
<polygon fill="none" stroke="#404040" points="235,-391.764 231,-385.764 235,-379.764 239,-385.764 235,-391.764"/>
<text text-anchor="middle" x="245.5" y="-406.5" font-family="Helvetica,sans-Serif" font-size="10.00"> +ptr</text>
</g>
<!-- Node7 -->
<g id="node7" class="node"><title>Node7</title>
<polygon fill="none" stroke="#bfbfbf" points="219.5,-150.5 219.5,-207.5 262.5,-207.5 262.5,-150.5 219.5,-150.5"/>
<text text-anchor="middle" x="241" y="-195.5" font-family="Helvetica,sans-Serif" font-size="10.00">size_t</text>
<polyline fill="none" stroke="#bfbfbf" points="219.5,-188.5 262.5,-188.5 "/>
<text text-anchor="middle" x="241" y="-176.5" font-family="Helvetica,sans-Serif" font-size="10.00"> </text>
<polyline fill="none" stroke="#bfbfbf" points="219.5,-169.5 262.5,-169.5 "/>
<text text-anchor="middle" x="241" y="-157.5" font-family="Helvetica,sans-Serif" font-size="10.00"> </text>
</g>
<!-- Node7&#45;&gt;Node1 -->
<g id="edge7" class="edge"><title>Node7&#45;&gt;Node1</title>
<path fill="none" stroke="#404040" d="M235.739,-150.276C232.544,-133.441 228.368,-111.441 224.602,-91.5958"/>
<polygon fill="none" stroke="#404040" points="224.56,-91.3733 219.511,-86.2244 222.322,-79.5838 227.371,-84.7327 224.56,-91.3733"/>
<text text-anchor="middle" x="266" y="-101.5" font-family="Helvetica,sans-Serif" font-size="10.00"> +Operation_type</text>
</g>
</g>
</svg>
