<?xml version="1.0" encoding="UTF-8" standalone="no"?>
<!DOCTYPE svg PUBLIC "-//W3C//DTD SVG 1.1//EN"
 "http://www.w3.org/Graphics/SVG/1.1/DTD/svg11.dtd">
<!-- Generated by graphviz version 2.36.0 (20140111.2315)
 -->
<!-- Title: visioncpp::internal::EvalExpr&lt; RDCN&lt; C_OP, RHS, Cols, Rows, LfType, LVL &gt;, Loc, Params...&gt;::eval_neighbour Pages: 1 -->
<svg width="446pt" height="146pt"
 viewBox="0.00 0.00 446.00 146.00" xmlns="http://www.w3.org/2000/svg" xmlns:xlink="http://www.w3.org/1999/xlink">
<g id="graph0" class="graph" transform="scale(1 1) rotate(0) translate(4 142)">
<title>visioncpp::internal::EvalExpr&lt; RDCN&lt; C_OP, RHS, Cols, Rows, LfType, LVL &gt;, Loc, Params...&gt;::eval_neighbour</title>
<!-- Node1 -->
<g id="node1" class="node"><title>Node1</title>
<polygon fill="#bfbfbf" stroke="black" points="0,-42.5 0,-105.5 158,-105.5 158,-42.5 0,-42.5"/>
<text text-anchor="start" x="8" y="-93.5" font-family="Helvetica,sans-Serif" font-size="10.00">visioncpp::internal</text>
<text text-anchor="start" x="8" y="-82.5" font-family="Helvetica,sans-Serif" font-size="10.00">::EvalExpr&lt; RDCN&lt; C</text>
<text text-anchor="start" x="8" y="-71.5" font-family="Helvetica,sans-Serif" font-size="10.00">_OP, RHS, Cols, Rows,</text>
<text text-anchor="start" x="8" y="-60.5" font-family="Helvetica,sans-Serif" font-size="10.00"> LfType, LVL &gt;, Loc, Params...&gt;</text>
<text text-anchor="middle" x="79" y="-49.5" font-family="Helvetica,sans-Serif" font-size="10.00">::eval_neighbour</text>
</g>
<!-- Node2 -->
<g id="node2" class="node"><title>Node2</title>
<g id="a_node2"><a xlink:href="namespacevisioncpp_1_1internal.html#a432878bd5a7c47c218a371ecf9eefe6a" target="_top" xlink:title="function calculate_index ">
<polygon fill="none" stroke="black" points="201.5,-108 201.5,-138 296.5,-138 296.5,-108 201.5,-108"/>
<text text-anchor="start" x="209.5" y="-126" font-family="Helvetica,sans-Serif" font-size="10.00">visioncpp::internal</text>
<text text-anchor="middle" x="249" y="-115" font-family="Helvetica,sans-Serif" font-size="10.00">::calculate_index</text>
</a>
</g>
</g>
<!-- Node1&#45;&gt;Node2 -->
<g id="edge1" class="edge"><title>Node1&#45;&gt;Node2</title>
<path fill="none" stroke="midnightblue" d="M158.098,-96.7786C169.382,-100.07 180.809,-103.403 191.558,-106.538"/>
<polygon fill="midnightblue" stroke="midnightblue" points="190.637,-109.915 201.217,-109.355 192.597,-103.195 190.637,-109.915"/>
</g>
<!-- Node3 -->
<g id="node3" class="node"><title>Node3</title>
<g id="a_node3"><a xlink:href="namespacevisioncpp_1_1internal_1_1tools.html#ad0890ca41e9275137b7a578b24136dbe" target="_top" xlink:title="function convert ">
<polygon fill="none" stroke="black" points="201.5,-59 201.5,-89 296.5,-89 296.5,-59 201.5,-59"/>
<text text-anchor="start" x="209.5" y="-77" font-family="Helvetica,sans-Serif" font-size="10.00">visioncpp::internal</text>
<text text-anchor="middle" x="249" y="-66" font-family="Helvetica,sans-Serif" font-size="10.00">::tools::convert</text>
</a>
</g>
</g>
<!-- Node1&#45;&gt;Node3 -->
<g id="edge2" class="edge"><title>Node1&#45;&gt;Node3</title>
<path fill="none" stroke="midnightblue" d="M158.098,-74C169.152,-74 180.342,-74 190.899,-74"/>
<polygon fill="midnightblue" stroke="midnightblue" points="191.217,-77.5001 201.217,-74 191.217,-70.5001 191.217,-77.5001"/>
</g>
<!-- Node5 -->
<g id="node5" class="node"><title>Node5</title>
<g id="a_node5"><a xlink:href="structvisioncpp_1_1internal_1_1LocalNeighbour.html#ac28120780a83770f8396f28aeae0f4f7" target="_top" xlink:title="function set_offset: ">
<polygon fill="none" stroke="black" points="194,0.5 194,-40.5 304,-40.5 304,0.5 194,0.5"/>
<text text-anchor="start" x="202" y="-28.5" font-family="Helvetica,sans-Serif" font-size="10.00">visioncpp::internal</text>
<text text-anchor="start" x="202" y="-17.5" font-family="Helvetica,sans-Serif" font-size="10.00">::LocalNeighbour::set</text>
<text text-anchor="middle" x="249" y="-6.5" font-family="Helvetica,sans-Serif" font-size="10.00">_offset</text>
</a>
</g>
</g>
<!-- Node1&#45;&gt;Node5 -->
<g id="edge4" class="edge"><title>Node1&#45;&gt;Node5</title>
<path fill="none" stroke="midnightblue" d="M158.098,-48.897C166.72,-46.1256 175.426,-43.3273 183.849,-40.6199"/>
<polygon fill="midnightblue" stroke="midnightblue" points="185.137,-43.8826 193.586,-37.4903 182.994,-37.2184 185.137,-43.8826"/>
</g>
<!-- Node4 -->
<g id="node4" class="node"><title>Node4</title>
<g id="a_node4"><a xlink:href="structvisioncpp_1_1internal_1_1tools_1_1Convertor.html#a50519510c30e56ead8657c8a06d8c9d4" target="_top" xlink:title="function convert ">
<polygon fill="none" stroke="black" points="340,-53.5 340,-94.5 438,-94.5 438,-53.5 340,-53.5"/>
<text text-anchor="start" x="348" y="-82.5" font-family="Helvetica,sans-Serif" font-size="10.00">visioncpp::internal</text>
<text text-anchor="start" x="348" y="-71.5" font-family="Helvetica,sans-Serif" font-size="10.00">::tools::Convertor::</text>
<text text-anchor="middle" x="389" y="-60.5" font-family="Helvetica,sans-Serif" font-size="10.00">convert</text>
</a>
</g>
</g>
<!-- Node3&#45;&gt;Node4 -->
<g id="edge3" class="edge"><title>Node3&#45;&gt;Node4</title>
<path fill="none" stroke="midnightblue" d="M296.721,-74C307.377,-74 318.827,-74 329.894,-74"/>
<polygon fill="midnightblue" stroke="midnightblue" points="329.916,-77.5001 339.916,-74 329.916,-70.5001 329.916,-77.5001"/>
</g>
</g>
</svg>
