<?xml version="1.0" encoding="UTF-8" standalone="no"?>
<!DOCTYPE svg PUBLIC "-//W3C//DTD SVG 1.1//EN"
 "http://www.w3.org/Graphics/SVG/1.1/DTD/svg11.dtd">
<!-- Generated by graphviz version 2.36.0 (20140111.2315)
 -->
<!-- Title: visioncpp::internal::tools::IfConst&lt; false, X, Y &gt; Pages: 1 -->
<svg width="122pt" height="194pt"
 viewBox="0.00 0.00 122.00 194.00" xmlns="http://www.w3.org/2000/svg" xmlns:xlink="http://www.w3.org/1999/xlink">
<g id="graph0" class="graph" transform="scale(1 1) rotate(0) translate(4 190)">
<title>visioncpp::internal::tools::IfConst&lt; false, X, Y &gt;</title>
<!-- Node1 -->
<g id="node1" class="node"><title>Node1</title>
<polygon fill="#bfbfbf" stroke="black" points="-0.5,-0.5 -0.5,-79.5 114.5,-79.5 114.5,-0.5 -0.5,-0.5"/>
<text text-anchor="start" x="7.5" y="-67.5" font-family="Helvetica,sans-Serif" font-size="10.00">visioncpp::internal</text>
<text text-anchor="start" x="7.5" y="-56.5" font-family="Helvetica,sans-Serif" font-size="10.00">::tools::IfConst&lt; false,</text>
<text text-anchor="middle" x="57" y="-45.5" font-family="Helvetica,sans-Serif" font-size="10.00"> X, Y &gt;</text>
<polyline fill="none" stroke="black" points="-0.5,-38.5 114.5,-38.5 "/>
<text text-anchor="middle" x="57" y="-26.5" font-family="Helvetica,sans-Serif" font-size="10.00"> </text>
<polyline fill="none" stroke="black" points="-0.5,-19.5 114.5,-19.5 "/>
<text text-anchor="middle" x="57" y="-7.5" font-family="Helvetica,sans-Serif" font-size="10.00"> </text>
</g>
<!-- Node2 -->
<g id="node2" class="node"><title>Node2</title>
<polygon fill="none" stroke="#bfbfbf" points="35.5,-128.5 35.5,-185.5 78.5,-185.5 78.5,-128.5 35.5,-128.5"/>
<text text-anchor="middle" x="57" y="-173.5" font-family="Helvetica,sans-Serif" font-size="10.00">size_t</text>
<polyline fill="none" stroke="#bfbfbf" points="35.5,-166.5 78.5,-166.5 "/>
<text text-anchor="middle" x="57" y="-154.5" font-family="Helvetica,sans-Serif" font-size="10.00"> </text>
<polyline fill="none" stroke="#bfbfbf" points="35.5,-147.5 78.5,-147.5 "/>
<text text-anchor="middle" x="57" y="-135.5" font-family="Helvetica,sans-Serif" font-size="10.00"> </text>
</g>
<!-- Node2&#45;&gt;Node1 -->
<g id="edge1" class="edge"><title>Node2&#45;&gt;Node1</title>
<path fill="none" stroke="#404040" d="M57,-128.455C57,-117.491 57,-104.511 57,-91.9527"/>
<polygon fill="none" stroke="#404040" points="57.0001,-91.6258 53,-85.6258 57,-79.6258 61,-85.6257 57.0001,-91.6258"/>
<text text-anchor="middle" x="74" y="-101.5" font-family="Helvetica,sans-Serif" font-size="10.00"> +Value</text>
</g>
</g>
</svg>
