<?xml version="1.0" encoding="UTF-8" standalone="no"?>
<!DOCTYPE svg PUBLIC "-//W3C//DTD SVG 1.1//EN"
 "http://www.w3.org/Graphics/SVG/1.1/DTD/svg11.dtd">
<!-- Generated by graphviz version 2.36.0 (20140111.2315)
 -->
<!-- Title: visioncpp::internal::Trait&lt; visioncpp::internal::ConstMemory&lt; T &gt; &gt; Pages: 1 -->
<svg width="122pt" height="206pt"
 viewBox="0.00 0.00 122.00 206.00" xmlns="http://www.w3.org/2000/svg" xmlns:xlink="http://www.w3.org/1999/xlink">
<g id="graph0" class="graph" transform="scale(1 1) rotate(0) translate(4 202)">
<title>visioncpp::internal::Trait&lt; visioncpp::internal::ConstMemory&lt; T &gt; &gt;</title>
<!-- Node1 -->
<g id="node1" class="node"><title>Node1</title>
<polygon fill="#bfbfbf" stroke="black" points="-1,-1 -1,-91 115,-91 115,-1 -1,-1"/>
<text text-anchor="start" x="7" y="-79" font-family="Helvetica,sans-Serif" font-size="10.00">visioncpp::internal</text>
<text text-anchor="start" x="7" y="-68" font-family="Helvetica,sans-Serif" font-size="10.00">::Trait&lt; visioncpp::</text>
<text text-anchor="start" x="7" y="-57" font-family="Helvetica,sans-Serif" font-size="10.00">internal::ConstMemory</text>
<text text-anchor="middle" x="57" y="-46" font-family="Helvetica,sans-Serif" font-size="10.00">&lt; T &gt; &gt;</text>
<polyline fill="none" stroke="black" points="-1,-39 115,-39 "/>
<text text-anchor="middle" x="57" y="-27" font-family="Helvetica,sans-Serif" font-size="10.00"> </text>
<polyline fill="none" stroke="black" points="-1,-20 115,-20 "/>
<text text-anchor="middle" x="57" y="-8" font-family="Helvetica,sans-Serif" font-size="10.00"> </text>
</g>
<!-- Node2 -->
<g id="node2" class="node"><title>Node2</title>
<polygon fill="none" stroke="#bfbfbf" points="35.5,-140.5 35.5,-197.5 78.5,-197.5 78.5,-140.5 35.5,-140.5"/>
<text text-anchor="middle" x="57" y="-185.5" font-family="Helvetica,sans-Serif" font-size="10.00">size_t</text>
<polyline fill="none" stroke="#bfbfbf" points="35.5,-178.5 78.5,-178.5 "/>
<text text-anchor="middle" x="57" y="-166.5" font-family="Helvetica,sans-Serif" font-size="10.00"> </text>
<polyline fill="none" stroke="#bfbfbf" points="35.5,-159.5 78.5,-159.5 "/>
<text text-anchor="middle" x="57" y="-147.5" font-family="Helvetica,sans-Serif" font-size="10.00"> </text>
</g>
<!-- Node2&#45;&gt;Node1 -->
<g id="edge1" class="edge"><title>Node2&#45;&gt;Node1</title>
<path fill="none" stroke="#404040" d="M57,-140.24C57,-129.242 57,-116.179 57,-103.364"/>
<polygon fill="none" stroke="#404040" points="57.0001,-103.23 53,-97.2296 57,-91.2295 61,-97.2295 57.0001,-103.23"/>
<text text-anchor="middle" x="75" y="-113.5" font-family="Helvetica,sans-Serif" font-size="10.00"> +scope</text>
</g>
</g>
</svg>
