<?xml version="1.0" encoding="UTF-8" standalone="no"?>
<!DOCTYPE svg PUBLIC "-//W3C//DTD SVG 1.1//EN"
 "http://www.w3.org/Graphics/SVG/1.1/DTD/svg11.dtd">
<!-- Generated by graphviz version 2.43.0 (0)
 -->
<!-- Title: visioncpp::internal::LeafNode&lt; PlaceHolder&lt; Memory_Type, N, C, R, Sc &gt;, LVL &gt; Pages: 1 -->
<svg width="271pt" height="259pt"
 viewBox="0.00 0.00 271.00 259.00" xmlns="http://www.w3.org/2000/svg" xmlns:xlink="http://www.w3.org/1999/xlink">
<g id="graph0" class="graph" transform="scale(1 1) rotate(0) translate(4 255)">
<title>visioncpp::internal::LeafNode&lt; PlaceHolder&lt; Memory_Type, N, C, R, Sc &gt;, LVL &gt;</title>
<!-- Node1 -->
<g id="node1" class="node">
<title>Node1</title>
<g id="a_node1"><a xlink:title="The specialisation of LeafNode for the PlaceHolder.">
<polygon fill="#bfbfbf" stroke="black" points="0,-0.5 0,-90.5 168,-90.5 168,-0.5 0,-0.5"/>
<text text-anchor="start" x="8" y="-78.5" font-family="Helvetica,sans-Serif" font-size="10.00">visioncpp::internal</text>
<text text-anchor="start" x="8" y="-67.5" font-family="Helvetica,sans-Serif" font-size="10.00">::LeafNode&lt; PlaceHolder</text>
<text text-anchor="start" x="8" y="-56.5" font-family="Helvetica,sans-Serif" font-size="10.00">&lt; Memory_Type, N, C, R,</text>
<text text-anchor="middle" x="84" y="-45.5" font-family="Helvetica,sans-Serif" font-size="10.00"> Sc &gt;, LVL &gt;</text>
<polyline fill="none" stroke="black" points="0,-38.5 168,-38.5 "/>
<text text-anchor="middle" x="84" y="-26.5" font-family="Helvetica,sans-Serif" font-size="10.00"> </text>
<polyline fill="none" stroke="black" points="0,-19.5 168,-19.5 "/>
<text text-anchor="start" x="8" y="-7.5" font-family="Helvetica,sans-Serif" font-size="10.00">+ sub_expression_evaluation()</text>
</a>
</g>
</g>
<!-- Node2 -->
<g id="node2" class="node">
<title>Node2</title>
<g id="a_node2"><a xlink:title=" ">
<polygon fill="none" stroke="#bfbfbf" points="8.5,-193.5 8.5,-250.5 53.5,-250.5 53.5,-193.5 8.5,-193.5"/>
<text text-anchor="middle" x="31" y="-238.5" font-family="Helvetica,sans-Serif" font-size="10.00">size_t</text>
<polyline fill="none" stroke="#bfbfbf" points="8.5,-231.5 53.5,-231.5 "/>
<text text-anchor="middle" x="31" y="-219.5" font-family="Helvetica,sans-Serif" font-size="10.00"> </text>
<polyline fill="none" stroke="#bfbfbf" points="8.5,-212.5 53.5,-212.5 "/>
<text text-anchor="middle" x="31" y="-200.5" font-family="Helvetica,sans-Serif" font-size="10.00"> </text>
</a>
</g>
</g>
<!-- Node2&#45;&gt;Node1 -->
<g id="edge1" class="edge">
<title>Node2&#45;&gt;Node1</title>
<path fill="none" stroke="#404040" d="M26.21,-193.38C23.34,-170.13 21.96,-136.39 32,-109 32.98,-106.32 34.14,-103.67 35.43,-101.06"/>
<polygon fill="none" stroke="#404040" points="35.44,-101.04 34.96,-93.84 41.42,-90.63 41.9,-97.83 35.44,-101.04"/>
<text text-anchor="middle" x="74" y="-167" font-family="Helvetica,sans-Serif" font-size="10.00"> +CThread</text>
<text text-anchor="middle" x="74" y="-156" font-family="Helvetica,sans-Serif" font-size="10.00">+LeafType</text>
<text text-anchor="middle" x="74" y="-145" font-family="Helvetica,sans-Serif" font-size="10.00">+Level</text>
<text text-anchor="middle" x="74" y="-134" font-family="Helvetica,sans-Serif" font-size="10.00">+ND_Category</text>
<text text-anchor="middle" x="74" y="-123" font-family="Helvetica,sans-Serif" font-size="10.00">+Operation_type</text>
<text text-anchor="middle" x="74" y="-112" font-family="Helvetica,sans-Serif" font-size="10.00">+RThread</text>
</g>
<!-- Node3 -->
<g id="node3" class="node">
<title>Node3</title>
<g id="a_node3"><a xlink:title=" ">
<polygon fill="none" stroke="#bfbfbf" points="119,-193.5 119,-250.5 157,-250.5 157,-193.5 119,-193.5"/>
<text text-anchor="middle" x="138" y="-238.5" font-family="Helvetica,sans-Serif" font-size="10.00">bool</text>
<polyline fill="none" stroke="#bfbfbf" points="119,-231.5 157,-231.5 "/>
<text text-anchor="middle" x="138" y="-219.5" font-family="Helvetica,sans-Serif" font-size="10.00"> </text>
<polyline fill="none" stroke="#bfbfbf" points="119,-212.5 157,-212.5 "/>
<text text-anchor="middle" x="138" y="-200.5" font-family="Helvetica,sans-Serif" font-size="10.00"> </text>
</a>
</g>
</g>
<!-- Node3&#45;&gt;Node1 -->
<g id="edge2" class="edge">
<title>Node3&#45;&gt;Node1</title>
<path fill="none" stroke="#404040" d="M134.75,-193.28C131.53,-170.26 125.67,-136.9 116,-109 115.17,-106.62 114.27,-104.21 113.31,-101.8"/>
<polygon fill="none" stroke="#404040" points="113.22,-101.58 107.17,-97.65 108.46,-90.56 114.51,-94.48 113.22,-101.58"/>
<text text-anchor="middle" x="197" y="-150.5" font-family="Helvetica,sans-Serif" font-size="10.00"> +PointOp</text>
<text text-anchor="start" x="131" y="-139.5" font-family="Helvetica,sans-Serif" font-size="10.00">+SubExpressionEvaluation</text>
<text text-anchor="middle" x="197" y="-128.5" font-family="Helvetica,sans-Serif" font-size="10.00">Needed</text>
</g>
</g>
</svg>
