<?xml version="1.0" encoding="UTF-8" standalone="no"?>
<!DOCTYPE svg PUBLIC "-//W3C//DTD SVG 1.1//EN"
 "http://www.w3.org/Graphics/SVG/1.1/DTD/svg11.dtd">
<!-- Generated by graphviz version 2.36.0 (20140111.2315)
 -->
<!-- Title: visioncpp::internal::LocalMemCount&lt; expr_category::Unary, LeafNode&lt; PlaceHolder&lt; MemoryType, N, Cols, Rows, scope::Constant &gt;, LVL &gt; &gt; Pages: 1 -->
<svg width="170pt" height="228pt"
 viewBox="0.00 0.00 170.00 228.00" xmlns="http://www.w3.org/2000/svg" xmlns:xlink="http://www.w3.org/1999/xlink">
<g id="graph0" class="graph" transform="scale(1 1) rotate(0) translate(4 224)">
<title>visioncpp::internal::LocalMemCount&lt; expr_category::Unary, LeafNode&lt; PlaceHolder&lt; MemoryType, N, Cols, Rows, scope::Constant &gt;, LVL &gt; &gt;</title>
<!-- Node1 -->
<g id="node1" class="node"><title>Node1</title>
<polygon fill="#bfbfbf" stroke="black" points="-0.5,-1 -0.5,-113 162.5,-113 162.5,-1 -0.5,-1"/>
<text text-anchor="start" x="7.5" y="-101" font-family="Helvetica,sans-Serif" font-size="10.00">visioncpp::internal</text>
<text text-anchor="start" x="7.5" y="-90" font-family="Helvetica,sans-Serif" font-size="10.00">::LocalMemCount&lt; expr</text>
<text text-anchor="start" x="7.5" y="-79" font-family="Helvetica,sans-Serif" font-size="10.00">_category::Unary, LeafNode</text>
<text text-anchor="start" x="7.5" y="-68" font-family="Helvetica,sans-Serif" font-size="10.00">&lt; PlaceHolder&lt; MemoryType,</text>
<text text-anchor="start" x="7.5" y="-57" font-family="Helvetica,sans-Serif" font-size="10.00"> N, Cols, Rows, scope::Constant</text>
<text text-anchor="middle" x="81" y="-46" font-family="Helvetica,sans-Serif" font-size="10.00"> &gt;, LVL &gt; &gt;</text>
<polyline fill="none" stroke="black" points="-0.5,-39 162.5,-39 "/>
<text text-anchor="middle" x="81" y="-27" font-family="Helvetica,sans-Serif" font-size="10.00"> </text>
<polyline fill="none" stroke="black" points="-0.5,-20 162.5,-20 "/>
<text text-anchor="middle" x="81" y="-8" font-family="Helvetica,sans-Serif" font-size="10.00"> </text>
</g>
<!-- Node2 -->
<g id="node2" class="node"><title>Node2</title>
<polygon fill="none" stroke="#bfbfbf" points="59.5,-162.5 59.5,-219.5 102.5,-219.5 102.5,-162.5 59.5,-162.5"/>
<text text-anchor="middle" x="81" y="-207.5" font-family="Helvetica,sans-Serif" font-size="10.00">size_t</text>
<polyline fill="none" stroke="#bfbfbf" points="59.5,-200.5 102.5,-200.5 "/>
<text text-anchor="middle" x="81" y="-188.5" font-family="Helvetica,sans-Serif" font-size="10.00"> </text>
<polyline fill="none" stroke="#bfbfbf" points="59.5,-181.5 102.5,-181.5 "/>
<text text-anchor="middle" x="81" y="-169.5" font-family="Helvetica,sans-Serif" font-size="10.00"> </text>
</g>
<!-- Node2&#45;&gt;Node1 -->
<g id="edge1" class="edge"><title>Node2&#45;&gt;Node1</title>
<path fill="none" stroke="#404040" d="M81,-162.328C81,-151.389 81,-138.3 81,-125.15"/>
<polygon fill="none" stroke="#404040" points="81.0001,-125.116 77,-119.116 81,-113.116 85,-119.116 81.0001,-125.116"/>
<text text-anchor="middle" x="99" y="-135.5" font-family="Helvetica,sans-Serif" font-size="10.00"> +Count</text>
</g>
</g>
</svg>
