<?xml version="1.0" encoding="UTF-8" standalone="no"?>
<!DOCTYPE svg PUBLIC "-//W3C//DTD SVG 1.1//EN"
 "http://www.w3.org/Graphics/SVG/1.1/DTD/svg11.dtd">
<!-- Generated by graphviz version 2.36.0 (20140111.2315)
 -->
<!-- Title: visioncpp::internal::tools::Convertor::convert Pages: 1 -->
<svg width="436pt" height="680pt"
 viewBox="0.00 0.00 436.00 680.00" xmlns="http://www.w3.org/2000/svg" xmlns:xlink="http://www.w3.org/1999/xlink">
<g id="graph0" class="graph" transform="scale(1 1) rotate(0) translate(4 676)">
<title>visioncpp::internal::tools::Convertor::convert</title>
<!-- Node1 -->
<g id="node1" class="node"><title>Node1</title>
<polygon fill="#bfbfbf" stroke="black" points="0,-303.5 0,-344.5 98,-344.5 98,-303.5 0,-303.5"/>
<text text-anchor="start" x="8" y="-332.5" font-family="Helvetica,sans-Serif" font-size="10.00">visioncpp::internal</text>
<text text-anchor="start" x="8" y="-321.5" font-family="Helvetica,sans-Serif" font-size="10.00">::tools::Convertor::</text>
<text text-anchor="middle" x="49" y="-310.5" font-family="Helvetica,sans-Serif" font-size="10.00">convert</text>
</g>
<!-- Node2 -->
<g id="node2" class="node"><title>Node2</title>
<g id="a_node2"><a xlink:href="namespacevisioncpp_1_1internal_1_1tools.html#ad0890ca41e9275137b7a578b24136dbe" target="_top" xlink:title="function convert ">
<polygon fill="none" stroke="black" points="134.5,-309 134.5,-339 229.5,-339 229.5,-309 134.5,-309"/>
<text text-anchor="start" x="142.5" y="-327" font-family="Helvetica,sans-Serif" font-size="10.00">visioncpp::internal</text>
<text text-anchor="middle" x="182" y="-316" font-family="Helvetica,sans-Serif" font-size="10.00">::tools::convert</text>
</a>
</g>
</g>
<!-- Node1&#45;&gt;Node2 -->
<g id="edge1" class="edge"><title>Node1&#45;&gt;Node2</title>
<path fill="none" stroke="midnightblue" d="M108.174,-324C116.911,-324 125.824,-324 134.281,-324"/>
<polygon fill="midnightblue" stroke="midnightblue" points="108.036,-320.5 98.0357,-324 108.036,-327.5 108.036,-320.5"/>
</g>
<!-- Node3 -->
<g id="node3" class="node"><title>Node3</title>
<g id="a_node3"><a xlink:href="structvisioncpp_1_1internal_1_1EvalExpr_3_01RDCN_3_01C__OP_00_01RHS_00_01Cols_00_01Rows_00_01LfTbaaf6d19bb6434d2d27b08eb325a7b47.html#a15e3f1796f102b4851eb84b9332262c4" target="_top" xlink:title="visioncpp::internal\l::EvalExpr\&lt; RDCN\&lt; C\l_OP, RHS, Cols, Rows,\l LfType, LVL \&gt;, Loc, Params...\&gt;\l::eval_global_neighbour">
<polygon fill="none" stroke="black" points="268,-608.5 268,-671.5 426,-671.5 426,-608.5 268,-608.5"/>
<text text-anchor="start" x="276" y="-659.5" font-family="Helvetica,sans-Serif" font-size="10.00">visioncpp::internal</text>
<text text-anchor="start" x="276" y="-648.5" font-family="Helvetica,sans-Serif" font-size="10.00">::EvalExpr&lt; RDCN&lt; C</text>
<text text-anchor="start" x="276" y="-637.5" font-family="Helvetica,sans-Serif" font-size="10.00">_OP, RHS, Cols, Rows,</text>
<text text-anchor="start" x="276" y="-626.5" font-family="Helvetica,sans-Serif" font-size="10.00"> LfType, LVL &gt;, Loc, Params...&gt;</text>
<text text-anchor="middle" x="347" y="-615.5" font-family="Helvetica,sans-Serif" font-size="10.00">::eval_global_neighbour</text>
</a>
</g>
</g>
<!-- Node2&#45;&gt;Node3 -->
<g id="edge2" class="edge"><title>Node2&#45;&gt;Node3</title>
<path fill="none" stroke="midnightblue" d="M184.167,-349.075C187.846,-401.389 203.077,-523.558 266,-599 268.799,-602.356 271.943,-605.468 275.322,-608.35"/>
<polygon fill="midnightblue" stroke="midnightblue" points="187.656,-348.778 183.545,-339.014 180.669,-349.211 187.656,-348.778"/>
</g>
<!-- Node4 -->
<g id="node4" class="node"><title>Node4</title>
<g id="a_node4"><a xlink:href="structvisioncpp_1_1internal_1_1EvalExpr_3_01RDCN_3_01C__OP_00_01RHS_00_01Cols_00_01Rows_00_01LfTbaaf6d19bb6434d2d27b08eb325a7b47.html#abfb3d8e56648bba45068964b48a5f1f5" target="_top" xlink:title="evaluate function when the internal::ops_category is NeighbourOP. ">
<polygon fill="none" stroke="black" points="268,-526.5 268,-589.5 426,-589.5 426,-526.5 268,-526.5"/>
<text text-anchor="start" x="276" y="-577.5" font-family="Helvetica,sans-Serif" font-size="10.00">visioncpp::internal</text>
<text text-anchor="start" x="276" y="-566.5" font-family="Helvetica,sans-Serif" font-size="10.00">::EvalExpr&lt; RDCN&lt; C</text>
<text text-anchor="start" x="276" y="-555.5" font-family="Helvetica,sans-Serif" font-size="10.00">_OP, RHS, Cols, Rows,</text>
<text text-anchor="start" x="276" y="-544.5" font-family="Helvetica,sans-Serif" font-size="10.00"> LfType, LVL &gt;, Loc, Params...&gt;</text>
<text text-anchor="middle" x="347" y="-533.5" font-family="Helvetica,sans-Serif" font-size="10.00">::eval_neighbour</text>
</a>
</g>
</g>
<!-- Node2&#45;&gt;Node4 -->
<g id="edge3" class="edge"><title>Node2&#45;&gt;Node4</title>
<path fill="none" stroke="midnightblue" d="M188.134,-349.019C197.422,-388.764 220.424,-466.851 266,-516 269.413,-519.681 273.223,-523.098 277.277,-526.259"/>
<polygon fill="midnightblue" stroke="midnightblue" points="191.516,-348.101 185.919,-339.105 184.684,-349.628 191.516,-348.101"/>
</g>
<!-- Node5 -->
<g id="node5" class="node"><title>Node5</title>
<g id="a_node5"><a xlink:href="structvisioncpp_1_1internal_1_1EvalExpr_3_01StnNoFilt_3_01C__OP_00_01Halo__T_00_01Halo__L_00_01H81c3c41de78d96a4150f926c942e83b9.html#ace2e9ffa560dfaf1fe4715618c9f09a9" target="_top" xlink:title="evaluate function when the internal::ops_category is NeighbourOP. ">
<polygon fill="none" stroke="black" points="273,-433 273,-507 421,-507 421,-433 273,-433"/>
<text text-anchor="start" x="281" y="-495" font-family="Helvetica,sans-Serif" font-size="10.00">visioncpp::internal</text>
<text text-anchor="start" x="281" y="-484" font-family="Helvetica,sans-Serif" font-size="10.00">::EvalExpr&lt; StnNoFilt</text>
<text text-anchor="start" x="281" y="-473" font-family="Helvetica,sans-Serif" font-size="10.00">&lt; C_OP, Halo_T, Halo_L,</text>
<text text-anchor="start" x="281" y="-462" font-family="Helvetica,sans-Serif" font-size="10.00"> Halo_B, Halo_R, RHS, Cols,</text>
<text text-anchor="start" x="281" y="-451" font-family="Helvetica,sans-Serif" font-size="10.00"> Rows, LfType, LVL &gt;, Loc,</text>
<text text-anchor="middle" x="347" y="-440" font-family="Helvetica,sans-Serif" font-size="10.00"> Params...&gt;::eval_neighbour</text>
</a>
</g>
</g>
<!-- Node2&#45;&gt;Node5 -->
<g id="edge4" class="edge"><title>Node2&#45;&gt;Node5</title>
<path fill="none" stroke="midnightblue" d="M199.001,-347.351C214.448,-368.76 239.361,-400.465 266,-423 270.058,-426.433 274.4,-429.762 278.884,-432.957"/>
<polygon fill="midnightblue" stroke="midnightblue" points="201.816,-345.27 193.175,-339.14 196.107,-349.321 201.816,-345.27"/>
</g>
<!-- Node6 -->
<g id="node6" class="node"><title>Node6</title>
<g id="a_node6"><a xlink:href="structvisioncpp_1_1internal_1_1EvalExpr_3_01StnFilt_3_01C__OP_00_01Halo__T_00_01Halo__L_00_01Hal2050e544c871a5a0495aaad89df1957c.html#a0d19ab079d18adf58770c53a1698bcfb" target="_top" xlink:title="evaluate function when the internal::ops_category is NeighbourOP. ">
<polygon fill="none" stroke="black" points="278,-328.5 278,-413.5 416,-413.5 416,-328.5 278,-328.5"/>
<text text-anchor="start" x="286" y="-401.5" font-family="Helvetica,sans-Serif" font-size="10.00">visioncpp::internal</text>
<text text-anchor="start" x="286" y="-390.5" font-family="Helvetica,sans-Serif" font-size="10.00">::EvalExpr&lt; StnFilt</text>
<text text-anchor="start" x="286" y="-379.5" font-family="Helvetica,sans-Serif" font-size="10.00">&lt; C_OP, Halo_T, Halo</text>
<text text-anchor="start" x="286" y="-368.5" font-family="Helvetica,sans-Serif" font-size="10.00">_L, Halo_B, Halo_R, LHS,</text>
<text text-anchor="start" x="286" y="-357.5" font-family="Helvetica,sans-Serif" font-size="10.00"> RHS, Cols, Rows, LfType,</text>
<text text-anchor="start" x="286" y="-346.5" font-family="Helvetica,sans-Serif" font-size="10.00"> LVL &gt;, Loc, Params...&gt;::</text>
<text text-anchor="middle" x="347" y="-335.5" font-family="Helvetica,sans-Serif" font-size="10.00">eval_neighbour</text>
</a>
</g>
</g>
<!-- Node2&#45;&gt;Node6 -->
<g id="edge5" class="edge"><title>Node2&#45;&gt;Node6</title>
<path fill="none" stroke="midnightblue" d="M239.407,-340.265C251.758,-343.826 264.96,-347.633 277.719,-351.312"/>
<polygon fill="midnightblue" stroke="midnightblue" points="240.288,-336.876 229.709,-337.468 238.348,-343.602 240.288,-336.876"/>
</g>
<!-- Node7 -->
<g id="node7" class="node"><title>Node7</title>
<g id="a_node7"><a xlink:href="structvisioncpp_1_1internal_1_1EvalExpr_3_01RUnOP_3_01UN__OP_00_01Nested_00_01Cols_00_01Rows_00_7ba66833c9b555552c4410d2251c1377.html#a882040fe125f79a5ad23af91887c44f4" target="_top" xlink:title="evaluate function when the internal::ops_category is NeighbourOP. ">
<polygon fill="none" stroke="black" points="268,-246.5 268,-309.5 426,-309.5 426,-246.5 268,-246.5"/>
<text text-anchor="start" x="276" y="-297.5" font-family="Helvetica,sans-Serif" font-size="10.00">visioncpp::internal</text>
<text text-anchor="start" x="276" y="-286.5" font-family="Helvetica,sans-Serif" font-size="10.00">::EvalExpr&lt; RUnOP&lt; UN</text>
<text text-anchor="start" x="276" y="-275.5" font-family="Helvetica,sans-Serif" font-size="10.00">_OP, Nested, Cols, Rows,</text>
<text text-anchor="start" x="276" y="-264.5" font-family="Helvetica,sans-Serif" font-size="10.00"> LfType, LVL &gt;, Loc, Params...&gt;</text>
<text text-anchor="middle" x="347" y="-253.5" font-family="Helvetica,sans-Serif" font-size="10.00">::eval_neighbour</text>
</a>
</g>
</g>
<!-- Node2&#45;&gt;Node7 -->
<g id="edge6" class="edge"><title>Node2&#45;&gt;Node7</title>
<path fill="none" stroke="midnightblue" d="M239.465,-308.065C248.648,-305.474 258.301,-302.749 267.891,-300.043"/>
<polygon fill="midnightblue" stroke="midnightblue" points="238.383,-304.734 229.709,-310.818 240.284,-311.471 238.383,-304.734"/>
</g>
<!-- Node8 -->
<g id="node8" class="node"><title>Node8</title>
<g id="a_node8"><a xlink:href="structvisioncpp_1_1internal_1_1EvalExpr_3_01RBiOP_3_01BI__OP_00_01LHS_00_01RHS_00_01Cols_00_01Robff28872e27b399b52eeb97274fd2895.html#a35e15c5050836600b40ea2f047f62c7b" target="_top" xlink:title="evaluate function when the internal::ops_category is NeighbourOP. ">
<polygon fill="none" stroke="black" points="268,-164.5 268,-227.5 426,-227.5 426,-164.5 268,-164.5"/>
<text text-anchor="start" x="276" y="-215.5" font-family="Helvetica,sans-Serif" font-size="10.00">visioncpp::internal</text>
<text text-anchor="start" x="276" y="-204.5" font-family="Helvetica,sans-Serif" font-size="10.00">::EvalExpr&lt; RBiOP&lt; BI</text>
<text text-anchor="start" x="276" y="-193.5" font-family="Helvetica,sans-Serif" font-size="10.00">_OP, LHS, RHS, Cols, Rows,</text>
<text text-anchor="start" x="276" y="-182.5" font-family="Helvetica,sans-Serif" font-size="10.00"> LfType, LVL &gt;, Loc, Params...&gt;</text>
<text text-anchor="middle" x="347" y="-171.5" font-family="Helvetica,sans-Serif" font-size="10.00">::eval_neighbour</text>
</a>
</g>
</g>
<!-- Node2&#45;&gt;Node8 -->
<g id="edge7" class="edge"><title>Node2&#45;&gt;Node8</title>
<path fill="none" stroke="midnightblue" d="M201.054,-301.174C216.78,-282.32 240.936,-255.71 266,-237 270.377,-233.732 275.053,-230.592 279.864,-227.605"/>
<polygon fill="midnightblue" stroke="midnightblue" points="198.285,-299.032 194.651,-308.984 203.698,-303.47 198.285,-299.032"/>
</g>
<!-- Node9 -->
<g id="node9" class="node"><title>Node9</title>
<g id="a_node9"><a xlink:href="structvisioncpp_1_1internal_1_1EvalExpr_3_01Assign_3_01LHS_00_01RHS_00_01Cols_00_01Rows_00_01LfT43be900b4dfda243112cb67c417c428f.html#a8e25010545a89cdd62e472aee4d5a51c" target="_top" xlink:title="evaluate function when the internal::ops_category is NeighbourOP. ">
<polygon fill="none" stroke="black" points="268,-82.5 268,-145.5 426,-145.5 426,-82.5 268,-82.5"/>
<text text-anchor="start" x="276" y="-133.5" font-family="Helvetica,sans-Serif" font-size="10.00">visioncpp::internal</text>
<text text-anchor="start" x="276" y="-122.5" font-family="Helvetica,sans-Serif" font-size="10.00">::EvalExpr&lt; Assign&lt;</text>
<text text-anchor="start" x="276" y="-111.5" font-family="Helvetica,sans-Serif" font-size="10.00"> LHS, RHS, Cols, Rows,</text>
<text text-anchor="start" x="276" y="-100.5" font-family="Helvetica,sans-Serif" font-size="10.00"> LfType, LVL &gt;, Loc, Params...&gt;</text>
<text text-anchor="middle" x="347" y="-89.5" font-family="Helvetica,sans-Serif" font-size="10.00">::eval_neighbour</text>
</a>
</g>
</g>
<!-- Node2&#45;&gt;Node9 -->
<g id="edge8" class="edge"><title>Node2&#45;&gt;Node9</title>
<path fill="none" stroke="midnightblue" d="M189.822,-298.835C200.664,-262.948 224.912,-196.795 266,-155 269.282,-151.661 272.894,-148.542 276.713,-145.636"/>
<polygon fill="midnightblue" stroke="midnightblue" points="186.436,-297.946 187,-308.525 193.157,-299.903 186.436,-297.946"/>
</g>
<!-- Node10 -->
<g id="node10" class="node"><title>Node10</title>
<g id="a_node10"><a xlink:href="structvisioncpp_1_1internal_1_1Fill_3_01LeafNode_3_01PlaceHolder_3_01Memory__Type_00_01N_00_01Cof0399f7a786b33683835a8628a6d974a.html#a0339bff1274e6491c7678a83171e0f9a" target="_top" xlink:title="visioncpp::internal\l::Fill\&lt; LeafNode\&lt; PlaceHolder\l\&lt; Memory_Type, N, Cols, Rows,\l Sc \&gt;, LVL \&gt;, Loc, Params...\&gt;\l::fill_neighbour">
<polygon fill="none" stroke="black" points="266,-0.5 266,-63.5 428,-63.5 428,-0.5 266,-0.5"/>
<text text-anchor="start" x="274" y="-51.5" font-family="Helvetica,sans-Serif" font-size="10.00">visioncpp::internal</text>
<text text-anchor="start" x="274" y="-40.5" font-family="Helvetica,sans-Serif" font-size="10.00">::Fill&lt; LeafNode&lt; PlaceHolder</text>
<text text-anchor="start" x="274" y="-29.5" font-family="Helvetica,sans-Serif" font-size="10.00">&lt; Memory_Type, N, Cols, Rows,</text>
<text text-anchor="start" x="274" y="-18.5" font-family="Helvetica,sans-Serif" font-size="10.00"> Sc &gt;, LVL &gt;, Loc, Params...&gt;</text>
<text text-anchor="middle" x="347" y="-7.5" font-family="Helvetica,sans-Serif" font-size="10.00">::fill_neighbour</text>
</a>
</g>
</g>
<!-- Node2&#45;&gt;Node10 -->
<g id="edge9" class="edge"><title>Node2&#45;&gt;Node10</title>
<path fill="none" stroke="midnightblue" d="M185.067,-298.742C190.308,-249.719 208.125,-140.569 266,-73 268.843,-69.6812 272.021,-66.5978 275.426,-63.7382"/>
<polygon fill="midnightblue" stroke="midnightblue" points="181.575,-298.495 184.082,-308.789 188.542,-299.178 181.575,-298.495"/>
</g>
</g>
</svg>
