<?xml version="1.0" encoding="UTF-8" standalone="no"?>
<!DOCTYPE svg PUBLIC "-//W3C//DTD SVG 1.1//EN"
 "http://www.w3.org/Graphics/SVG/1.1/DTD/svg11.dtd">
<!-- Generated by graphviz version 2.36.0 (20140111.2315)
 -->
<!-- Title: visioncpp::internal::Trait&lt; cl::sycl::accessor&lt; elementType, dimensions, accessMode, accessTarget &gt; &gt; Pages: 1 -->
<svg width="164pt" height="206pt"
 viewBox="0.00 0.00 164.00 206.00" xmlns="http://www.w3.org/2000/svg" xmlns:xlink="http://www.w3.org/1999/xlink">
<g id="graph0" class="graph" transform="scale(1 1) rotate(0) translate(4 202)">
<title>visioncpp::internal::Trait&lt; cl::sycl::accessor&lt; elementType, dimensions, accessMode, accessTarget &gt; &gt;</title>
<!-- Node1 -->
<g id="node1" class="node"><title>Node1</title>
<polygon fill="#bfbfbf" stroke="black" points="-1,-1 -1,-91 157,-91 157,-1 -1,-1"/>
<text text-anchor="start" x="7" y="-79" font-family="Helvetica,sans-Serif" font-size="10.00">visioncpp::internal</text>
<text text-anchor="start" x="7" y="-68" font-family="Helvetica,sans-Serif" font-size="10.00">::Trait&lt; cl::sycl::accessor</text>
<text text-anchor="start" x="7" y="-57" font-family="Helvetica,sans-Serif" font-size="10.00">&lt; elementType, dimensions,</text>
<text text-anchor="middle" x="78" y="-46" font-family="Helvetica,sans-Serif" font-size="10.00"> accessMode, accessTarget &gt; &gt;</text>
<polyline fill="none" stroke="black" points="-1,-39 157,-39 "/>
<text text-anchor="middle" x="78" y="-27" font-family="Helvetica,sans-Serif" font-size="10.00"> </text>
<polyline fill="none" stroke="black" points="-1,-20 157,-20 "/>
<text text-anchor="middle" x="78" y="-8" font-family="Helvetica,sans-Serif" font-size="10.00"> </text>
</g>
<!-- Node2 -->
<g id="node2" class="node"><title>Node2</title>
<polygon fill="none" stroke="#bfbfbf" points="27.5,-140.5 27.5,-197.5 70.5,-197.5 70.5,-140.5 27.5,-140.5"/>
<text text-anchor="middle" x="49" y="-185.5" font-family="Helvetica,sans-Serif" font-size="10.00">size_t</text>
<polyline fill="none" stroke="#bfbfbf" points="27.5,-178.5 70.5,-178.5 "/>
<text text-anchor="middle" x="49" y="-166.5" font-family="Helvetica,sans-Serif" font-size="10.00"> </text>
<polyline fill="none" stroke="#bfbfbf" points="27.5,-159.5 70.5,-159.5 "/>
<text text-anchor="middle" x="49" y="-147.5" font-family="Helvetica,sans-Serif" font-size="10.00"> </text>
</g>
<!-- Node2&#45;&gt;Node1 -->
<g id="edge1" class="edge"><title>Node2&#45;&gt;Node1</title>
<path fill="none" stroke="#404040" d="M47.2369,-140.297C47.2088,-130.614 47.8463,-119.735 50,-110 50.5139,-107.677 51.1167,-105.336 51.7916,-102.992"/>
<polygon fill="none" stroke="#404040" points="51.8843,-102.714 49.9927,-95.7556 55.6884,-91.3331 57.5801,-98.2917 51.8843,-102.714"/>
<text text-anchor="middle" x="68" y="-113.5" font-family="Helvetica,sans-Serif" font-size="10.00"> +scope</text>
</g>
<!-- Node3 -->
<g id="node3" class="node"><title>Node3</title>
<polygon fill="none" stroke="#bfbfbf" points="93.5,-140.5 93.5,-197.5 122.5,-197.5 122.5,-140.5 93.5,-140.5"/>
<text text-anchor="middle" x="108" y="-185.5" font-family="Helvetica,sans-Serif" font-size="10.00">int</text>
<polyline fill="none" stroke="#bfbfbf" points="93.5,-178.5 122.5,-178.5 "/>
<text text-anchor="middle" x="108" y="-166.5" font-family="Helvetica,sans-Serif" font-size="10.00"> </text>
<polyline fill="none" stroke="#bfbfbf" points="93.5,-159.5 122.5,-159.5 "/>
<text text-anchor="middle" x="108" y="-147.5" font-family="Helvetica,sans-Serif" font-size="10.00"> </text>
</g>
<!-- Node3&#45;&gt;Node1 -->
<g id="edge2" class="edge"><title>Node3&#45;&gt;Node1</title>
<path fill="none" stroke="#404040" d="M101.117,-140.24C98.3625,-129.129 95.085,-115.909 91.8763,-102.968"/>
<polygon fill="none" stroke="#404040" points="91.8538,-102.877 86.5275,-98.0158 88.966,-91.2295 94.2924,-96.0906 91.8538,-102.877"/>
<text text-anchor="middle" x="110" y="-113.5" font-family="Helvetica,sans-Serif" font-size="10.00"> +Dim</text>
</g>
</g>
</svg>
