<?xml version="1.0" encoding="UTF-8" standalone="no"?>
<!DOCTYPE svg PUBLIC "-//W3C//DTD SVG 1.1//EN"
 "http://www.w3.org/Graphics/SVG/1.1/DTD/svg11.dtd">
<!-- Generated by graphviz version 2.43.0 (0)
 -->
<!-- Title: visioncpp::internal::Index_Finder&lt; N, Indx, LeafType, Sc &gt; Pages: 1 -->
<svg width="142pt" height="193pt"
 viewBox="0.00 0.00 142.00 193.00" xmlns="http://www.w3.org/2000/svg" xmlns:xlink="http://www.w3.org/1999/xlink">
<g id="graph0" class="graph" transform="scale(1 1) rotate(0) translate(4 189)">
<title>visioncpp::internal::Index_Finder&lt; N, Indx, LeafType, Sc &gt;</title>
<!-- Node1 -->
<g id="node1" class="node">
<title>Node1</title>
<g id="a_node1"><a xlink:title="is used to find the index required to access the accessor inside the buffer.">
<polygon fill="#bfbfbf" stroke="black" points="0,-0.5 0,-79.5 134,-79.5 134,-0.5 0,-0.5"/>
<text text-anchor="start" x="8" y="-67.5" font-family="Helvetica,sans-Serif" font-size="10.00">visioncpp::internal</text>
<text text-anchor="start" x="8" y="-56.5" font-family="Helvetica,sans-Serif" font-size="10.00">::Index_Finder&lt; N, Indx,</text>
<text text-anchor="middle" x="67" y="-45.5" font-family="Helvetica,sans-Serif" font-size="10.00"> LeafType, Sc &gt;</text>
<polyline fill="none" stroke="black" points="0,-38.5 134,-38.5 "/>
<text text-anchor="middle" x="67" y="-26.5" font-family="Helvetica,sans-Serif" font-size="10.00"> </text>
<polyline fill="none" stroke="black" points="0,-19.5 134,-19.5 "/>
<text text-anchor="middle" x="67" y="-7.5" font-family="Helvetica,sans-Serif" font-size="10.00"> </text>
</a>
</g>
</g>
<!-- Node2 -->
<g id="node2" class="node">
<title>Node2</title>
<g id="a_node2"><a xlink:title=" ">
<polygon fill="none" stroke="#bfbfbf" points="44.5,-127.5 44.5,-184.5 89.5,-184.5 89.5,-127.5 44.5,-127.5"/>
<text text-anchor="middle" x="67" y="-172.5" font-family="Helvetica,sans-Serif" font-size="10.00">size_t</text>
<polyline fill="none" stroke="#bfbfbf" points="44.5,-165.5 89.5,-165.5 "/>
<text text-anchor="middle" x="67" y="-153.5" font-family="Helvetica,sans-Serif" font-size="10.00"> </text>
<polyline fill="none" stroke="#bfbfbf" points="44.5,-146.5 89.5,-146.5 "/>
<text text-anchor="middle" x="67" y="-134.5" font-family="Helvetica,sans-Serif" font-size="10.00"> </text>
</a>
</g>
</g>
<!-- Node2&#45;&gt;Node1 -->
<g id="edge1" class="edge">
<title>Node2&#45;&gt;Node1</title>
<path fill="none" stroke="#404040" d="M67,-127.4C67,-116.63 67,-103.93 67,-91.62"/>
<polygon fill="none" stroke="#404040" points="67,-91.54 63,-85.54 67,-79.54 71,-85.54 67,-91.54"/>
<text text-anchor="middle" x="86.5" y="-101" font-family="Helvetica,sans-Serif" font-size="10.00"> +Index</text>
</g>
</g>
</svg>
