<?xml version="1.0" encoding="UTF-8" standalone="no"?>
<!DOCTYPE svg PUBLIC "-//W3C//DTD SVG 1.1//EN"
 "http://www.w3.org/Graphics/SVG/1.1/DTD/svg11.dtd">
<!-- Generated by graphviz version 2.36.0 (20140111.2315)
 -->
<!-- Title: visioncpp::internal::MemDimension&lt; LeafType &gt; Pages: 1 -->
<svg width="156pt" height="184pt"
 viewBox="0.00 0.00 156.00 184.00" xmlns="http://www.w3.org/2000/svg" xmlns:xlink="http://www.w3.org/1999/xlink">
<g id="graph0" class="graph" transform="scale(1 1) rotate(0) translate(4 180)">
<title>visioncpp::internal::MemDimension&lt; LeafType &gt;</title>
<!-- Node1 -->
<g id="node1" class="node"><title>Node1</title>
<polygon fill="#bfbfbf" stroke="black" points="-0.5,-1 -0.5,-69 148.5,-69 148.5,-1 -0.5,-1"/>
<text text-anchor="start" x="7.5" y="-57" font-family="Helvetica,sans-Serif" font-size="10.00">visioncpp::internal</text>
<text text-anchor="middle" x="74" y="-46" font-family="Helvetica,sans-Serif" font-size="10.00">::MemDimension&lt; LeafType &gt;</text>
<polyline fill="none" stroke="black" points="-0.5,-39 148.5,-39 "/>
<text text-anchor="middle" x="74" y="-27" font-family="Helvetica,sans-Serif" font-size="10.00"> </text>
<polyline fill="none" stroke="black" points="-0.5,-20 148.5,-20 "/>
<text text-anchor="middle" x="74" y="-8" font-family="Helvetica,sans-Serif" font-size="10.00"> </text>
</g>
<!-- Node2 -->
<g id="node2" class="node"><title>Node2</title>
<polygon fill="none" stroke="#bfbfbf" points="52.5,-118.5 52.5,-175.5 95.5,-175.5 95.5,-118.5 52.5,-118.5"/>
<text text-anchor="middle" x="74" y="-163.5" font-family="Helvetica,sans-Serif" font-size="10.00">size_t</text>
<polyline fill="none" stroke="#bfbfbf" points="52.5,-156.5 95.5,-156.5 "/>
<text text-anchor="middle" x="74" y="-144.5" font-family="Helvetica,sans-Serif" font-size="10.00"> </text>
<polyline fill="none" stroke="#bfbfbf" points="52.5,-137.5 95.5,-137.5 "/>
<text text-anchor="middle" x="74" y="-125.5" font-family="Helvetica,sans-Serif" font-size="10.00"> </text>
</g>
<!-- Node2&#45;&gt;Node1 -->
<g id="edge1" class="edge"><title>Node2&#45;&gt;Node1</title>
<path fill="none" stroke="#404040" d="M74,-118.242C74,-107.073 74,-93.8972 74,-81.4036"/>
<polygon fill="none" stroke="#404040" points="74.0001,-81.2368 70,-75.2368 74,-69.2368 78,-75.2367 74.0001,-81.2368"/>
<text text-anchor="middle" x="88" y="-91.5" font-family="Helvetica,sans-Serif" font-size="10.00"> +Dim</text>
</g>
</g>
</svg>
