<?xml version="1.0" encoding="UTF-8" standalone="no"?>
<!DOCTYPE svg PUBLIC "-//W3C//DTD SVG 1.1//EN"
 "http://www.w3.org/Graphics/SVG/1.1/DTD/svg11.dtd">
<!-- Generated by graphviz version 2.43.0 (0)
 -->
<!-- Title: visioncpp::internal::ConstNeighbour&lt; T &gt; Pages: 1 -->
<svg width="188pt" height="215pt"
 viewBox="0.00 0.00 187.50 215.00" xmlns="http://www.w3.org/2000/svg" xmlns:xlink="http://www.w3.org/1999/xlink">
<g id="graph0" class="graph" transform="scale(1 1) rotate(0) translate(4 211)">
<title>visioncpp::internal::ConstNeighbour&lt; T &gt;</title>
<!-- Node1 -->
<g id="node1" class="node">
<title>Node1</title>
<g id="a_node1"><a xlink:title="ConstNeighbour is used to provide global access to the constant memory. It is used as an input type f...">
<polygon fill="#bfbfbf" stroke="black" points="7,-0.5 7,-90.5 136,-90.5 136,-0.5 7,-0.5"/>
<text text-anchor="start" x="15" y="-78.5" font-family="Helvetica,sans-Serif" font-size="10.00">visioncpp::internal</text>
<text text-anchor="middle" x="71.5" y="-67.5" font-family="Helvetica,sans-Serif" font-size="10.00">::ConstNeighbour&lt; T &gt;</text>
<polyline fill="none" stroke="black" points="7,-60.5 136,-60.5 "/>
<text text-anchor="middle" x="71.5" y="-48.5" font-family="Helvetica,sans-Serif" font-size="10.00"> </text>
<polyline fill="none" stroke="black" points="7,-41.5 136,-41.5 "/>
<text text-anchor="start" x="15" y="-29.5" font-family="Helvetica,sans-Serif" font-size="10.00">+ ConstNeighbour()</text>
<text text-anchor="start" x="15" y="-18.5" font-family="Helvetica,sans-Serif" font-size="10.00">+ at()</text>
<text text-anchor="start" x="15" y="-7.5" font-family="Helvetica,sans-Serif" font-size="10.00">+ at()</text>
</a>
</g>
</g>
<!-- Node2 -->
<g id="node2" class="node">
<title>Node2</title>
<g id="a_node2"><a xlink:title=" ">
<polygon fill="none" stroke="#bfbfbf" points="0,-149.5 0,-206.5 45,-206.5 45,-149.5 0,-149.5"/>
<text text-anchor="middle" x="22.5" y="-194.5" font-family="Helvetica,sans-Serif" font-size="10.00">size_t</text>
<polyline fill="none" stroke="#bfbfbf" points="0,-187.5 45,-187.5 "/>
<text text-anchor="middle" x="22.5" y="-175.5" font-family="Helvetica,sans-Serif" font-size="10.00"> </text>
<polyline fill="none" stroke="#bfbfbf" points="0,-168.5 45,-168.5 "/>
<text text-anchor="middle" x="22.5" y="-156.5" font-family="Helvetica,sans-Serif" font-size="10.00"> </text>
</a>
</g>
</g>
<!-- Node2&#45;&gt;Node1 -->
<g id="edge1" class="edge">
<title>Node2&#45;&gt;Node1</title>
<path fill="none" stroke="#404040" d="M32.89,-149.32C38.05,-135.6 44.46,-118.51 50.58,-102.22"/>
<polygon fill="none" stroke="#404040" points="50.74,-101.8 49.1,-94.78 54.95,-90.57 56.59,-97.59 50.74,-101.8"/>
<text text-anchor="middle" x="65" y="-123" font-family="Helvetica,sans-Serif" font-size="10.00"> +rows</text>
<text text-anchor="middle" x="65" y="-112" font-family="Helvetica,sans-Serif" font-size="10.00">+cols</text>
</g>
<!-- Node3 -->
<g id="node3" class="node">
<title>Node3</title>
<g id="a_node3"><a xlink:title=" ">
<polygon fill="none" stroke="#bfbfbf" points="63.5,-149.5 63.5,-206.5 179.5,-206.5 179.5,-149.5 63.5,-149.5"/>
<text text-anchor="middle" x="121.5" y="-194.5" font-family="Helvetica,sans-Serif" font-size="10.00">constant_ptr&lt; T &gt; &amp;</text>
<polyline fill="none" stroke="#bfbfbf" points="63.5,-187.5 179.5,-187.5 "/>
<text text-anchor="middle" x="121.5" y="-175.5" font-family="Helvetica,sans-Serif" font-size="10.00"> </text>
<polyline fill="none" stroke="#bfbfbf" points="63.5,-168.5 179.5,-168.5 "/>
<text text-anchor="middle" x="121.5" y="-156.5" font-family="Helvetica,sans-Serif" font-size="10.00"> </text>
</a>
</g>
</g>
<!-- Node3&#45;&gt;Node1 -->
<g id="edge2" class="edge">
<title>Node3&#45;&gt;Node1</title>
<path fill="none" stroke="#404040" d="M110.9,-149.32C105.64,-135.6 99.09,-118.51 92.85,-102.22"/>
<polygon fill="none" stroke="#404040" points="92.68,-101.77 86.8,-97.6 88.38,-90.57 94.27,-94.74 92.68,-101.77"/>
<text text-anchor="middle" x="114" y="-117.5" font-family="Helvetica,sans-Serif" font-size="10.00"> +ptr</text>
</g>
</g>
</svg>
