<?xml version="1.0" encoding="UTF-8" standalone="no"?>
<!DOCTYPE svg PUBLIC "-//W3C//DTD SVG 1.1//EN"
 "http://www.w3.org/Graphics/SVG/1.1/DTD/svg11.dtd">
<!-- Generated by graphviz version 2.43.0 (0)
 -->
<!-- Title: visioncpp::internal::LocalBinaryOp&lt; USROP, InTp1, InTp2 &gt; Pages: 1 -->
<svg width="375pt" height="524pt"
 viewBox="0.00 0.00 374.50 524.00" xmlns="http://www.w3.org/2000/svg" xmlns:xlink="http://www.w3.org/1999/xlink">
<g id="graph0" class="graph" transform="scale(1 1) rotate(0) translate(4 520)">
<title>visioncpp::internal::LocalBinaryOp&lt; USROP, InTp1, InTp2 &gt;</title>
<!-- Node1 -->
<g id="node1" class="node">
<title>Node1</title>
<g id="a_node1"><a xlink:title="This class is used to encapsulate the local binary functor and the types of each operand in this func...">
<polygon fill="#bfbfbf" stroke="black" points="55,-0.5 55,-79.5 196,-79.5 196,-0.5 55,-0.5"/>
<text text-anchor="start" x="63" y="-67.5" font-family="Helvetica,sans-Serif" font-size="10.00">visioncpp::internal</text>
<text text-anchor="start" x="63" y="-56.5" font-family="Helvetica,sans-Serif" font-size="10.00">::LocalBinaryOp&lt; USROP,</text>
<text text-anchor="middle" x="125.5" y="-45.5" font-family="Helvetica,sans-Serif" font-size="10.00"> InTp1, InTp2 &gt;</text>
<polyline fill="none" stroke="black" points="55,-38.5 196,-38.5 "/>
<text text-anchor="middle" x="125.5" y="-26.5" font-family="Helvetica,sans-Serif" font-size="10.00"> </text>
<polyline fill="none" stroke="black" points="55,-19.5 196,-19.5 "/>
<text text-anchor="middle" x="125.5" y="-7.5" font-family="Helvetica,sans-Serif" font-size="10.00"> </text>
</a>
</g>
</g>
<!-- Node2 -->
<g id="node2" class="node">
<title>Node2</title>
<g id="a_node2"><a xlink:title=" ">
<polygon fill="none" stroke="#bfbfbf" points="0,-458.5 0,-515.5 45,-515.5 45,-458.5 0,-458.5"/>
<text text-anchor="middle" x="22.5" y="-503.5" font-family="Helvetica,sans-Serif" font-size="10.00">size_t</text>
<polyline fill="none" stroke="#bfbfbf" points="0,-496.5 45,-496.5 "/>
<text text-anchor="middle" x="22.5" y="-484.5" font-family="Helvetica,sans-Serif" font-size="10.00"> </text>
<polyline fill="none" stroke="#bfbfbf" points="0,-477.5 45,-477.5 "/>
<text text-anchor="middle" x="22.5" y="-465.5" font-family="Helvetica,sans-Serif" font-size="10.00"> </text>
</a>
</g>
</g>
<!-- Node2&#45;&gt;Node1 -->
<g id="edge1" class="edge">
<title>Node2&#45;&gt;Node1</title>
<path fill="none" stroke="#404040" d="M17.63,-458.39C7.97,-396.13 -8.63,-241.32 41.5,-127 47.65,-112.97 57.18,-99.92 67.64,-88.44"/>
<polygon fill="none" stroke="#404040" points="67.85,-88.22 69.14,-81.12 76.18,-79.58 74.9,-86.67 67.85,-88.22"/>
<text text-anchor="middle" x="53" y="-272" font-family="Helvetica,sans-Serif" font-size="10.00"> +Operation_type</text>
</g>
<!-- Node8 -->
<g id="node8" class="node">
<title>Node8</title>
<g id="a_node8"><a xlink:href="structvisioncpp_1_1internal_1_1ConstNeighbour.html" target="_top" xlink:title="ConstNeighbour is used to provide global access to the constant memory.">
<polygon fill="none" stroke="black" points="60,-304 60,-394 189,-394 189,-304 60,-304"/>
<text text-anchor="start" x="68" y="-382" font-family="Helvetica,sans-Serif" font-size="10.00">visioncpp::internal</text>
<text text-anchor="middle" x="124.5" y="-371" font-family="Helvetica,sans-Serif" font-size="10.00">::ConstNeighbour&lt; T &gt;</text>
<polyline fill="none" stroke="black" points="60,-364 189,-364 "/>
<text text-anchor="middle" x="124.5" y="-352" font-family="Helvetica,sans-Serif" font-size="10.00"> </text>
<polyline fill="none" stroke="black" points="60,-345 189,-345 "/>
<text text-anchor="start" x="68" y="-333" font-family="Helvetica,sans-Serif" font-size="10.00">+ ConstNeighbour()</text>
<text text-anchor="start" x="68" y="-322" font-family="Helvetica,sans-Serif" font-size="10.00">+ at()</text>
<text text-anchor="start" x="68" y="-311" font-family="Helvetica,sans-Serif" font-size="10.00">+ at()</text>
</a>
</g>
</g>
<!-- Node2&#45;&gt;Node8 -->
<g id="edge8" class="edge">
<title>Node2&#45;&gt;Node8</title>
<path fill="none" stroke="#404040" d="M43.14,-458.48C54.94,-442.75 70.15,-422.47 84.21,-403.72"/>
<polygon fill="none" stroke="#404040" points="84.24,-403.68 84.64,-396.48 91.44,-394.08 91.04,-401.28 84.24,-403.68"/>
<text text-anchor="middle" x="89.5" y="-432" font-family="Helvetica,sans-Serif" font-size="10.00"> +cols</text>
<text text-anchor="middle" x="89.5" y="-421" font-family="Helvetica,sans-Serif" font-size="10.00">+rows</text>
</g>
<!-- Node3 -->
<g id="node3" class="node">
<title>Node3</title>
<g id="a_node3"><a xlink:href="structvisioncpp_1_1internal_1_1LocalNeighbour.html" target="_top" xlink:title=" ">
<polygon fill="none" stroke="black" points="218.5,-127.5 218.5,-250.5 366.5,-250.5 366.5,-127.5 218.5,-127.5"/>
<text text-anchor="start" x="226.5" y="-238.5" font-family="Helvetica,sans-Serif" font-size="10.00">visioncpp::internal</text>
<text text-anchor="middle" x="292.5" y="-227.5" font-family="Helvetica,sans-Serif" font-size="10.00">::LocalNeighbour&lt; InTp1 &gt;</text>
<polyline fill="none" stroke="black" points="218.5,-220.5 366.5,-220.5 "/>
<text text-anchor="start" x="226.5" y="-208.5" font-family="Helvetica,sans-Serif" font-size="10.00">+ ptr</text>
<text text-anchor="start" x="226.5" y="-197.5" font-family="Helvetica,sans-Serif" font-size="10.00">+ I_c</text>
<text text-anchor="start" x="226.5" y="-186.5" font-family="Helvetica,sans-Serif" font-size="10.00">+ I_r</text>
<polyline fill="none" stroke="black" points="218.5,-179.5 366.5,-179.5 "/>
<text text-anchor="start" x="226.5" y="-167.5" font-family="Helvetica,sans-Serif" font-size="10.00">+ LocalNeighbour()</text>
<text text-anchor="start" x="226.5" y="-156.5" font-family="Helvetica,sans-Serif" font-size="10.00">+ set_offset()</text>
<text text-anchor="start" x="226.5" y="-145.5" font-family="Helvetica,sans-Serif" font-size="10.00">+ at()</text>
<text text-anchor="start" x="226.5" y="-134.5" font-family="Helvetica,sans-Serif" font-size="10.00">+ at()</text>
</a>
</g>
</g>
<!-- Node3&#45;&gt;Node1 -->
<g id="edge2" class="edge">
<title>Node3&#45;&gt;Node1</title>
<path fill="none" stroke="#404040" d="M223.61,-127.36C208.58,-114.13 192.89,-100.32 178.58,-87.72"/>
<polygon fill="none" stroke="#404040" points="178.41,-87.57 171.26,-86.61 169.4,-79.64 176.54,-80.6 178.41,-87.57"/>
<text text-anchor="middle" x="208.5" y="-101" font-family="Helvetica,sans-Serif" font-size="10.00"> +x</text>
</g>
<!-- Node4 -->
<g id="node4" class="node">
<title>Node4</title>
<g id="a_node4"><a xlink:href="structvisioncpp_1_1internal_1_1LocalNeighbour.html" target="_top" xlink:title="LocalNeighbour is used to provide local access for each element of the local memory based on the Coor...">
<polygon fill="none" stroke="black" points="229,-298.5 229,-399.5 356,-399.5 356,-298.5 229,-298.5"/>
<text text-anchor="start" x="237" y="-387.5" font-family="Helvetica,sans-Serif" font-size="10.00">visioncpp::internal</text>
<text text-anchor="middle" x="292.5" y="-376.5" font-family="Helvetica,sans-Serif" font-size="10.00">::LocalNeighbour&lt; T &gt;</text>
<polyline fill="none" stroke="black" points="229,-369.5 356,-369.5 "/>
<text text-anchor="middle" x="292.5" y="-357.5" font-family="Helvetica,sans-Serif" font-size="10.00"> </text>
<polyline fill="none" stroke="black" points="229,-350.5 356,-350.5 "/>
<text text-anchor="start" x="237" y="-338.5" font-family="Helvetica,sans-Serif" font-size="10.00">+ LocalNeighbour()</text>
<text text-anchor="start" x="237" y="-327.5" font-family="Helvetica,sans-Serif" font-size="10.00">+ set_offset()</text>
<text text-anchor="start" x="237" y="-316.5" font-family="Helvetica,sans-Serif" font-size="10.00">+ at()</text>
<text text-anchor="start" x="237" y="-305.5" font-family="Helvetica,sans-Serif" font-size="10.00">+ at()</text>
</a>
</g>
</g>
<!-- Node4&#45;&gt;Node3 -->
<g id="edge3" class="edge">
<title>Node4&#45;&gt;Node3</title>
<path fill="none" stroke="orange" d="M292.5,-288.31C292.5,-276.03 292.5,-263.09 292.5,-250.77"/>
<polygon fill="orange" stroke="orange" points="289,-288.44 292.5,-298.44 296,-288.44 289,-288.44"/>
<text text-anchor="middle" x="319" y="-272" font-family="Helvetica,sans-Serif" font-size="10.00"> &lt; InTp1 &gt;</text>
</g>
<!-- Node5 -->
<g id="node5" class="node">
<title>Node5</title>
<g id="a_node5"><a xlink:title=" ">
<polygon fill="none" stroke="#bfbfbf" points="220.5,-458.5 220.5,-515.5 318.5,-515.5 318.5,-458.5 220.5,-458.5"/>
<text text-anchor="middle" x="269.5" y="-503.5" font-family="Helvetica,sans-Serif" font-size="10.00">local_ptr&lt; T &gt; &amp;</text>
<polyline fill="none" stroke="#bfbfbf" points="220.5,-496.5 318.5,-496.5 "/>
<text text-anchor="middle" x="269.5" y="-484.5" font-family="Helvetica,sans-Serif" font-size="10.00"> </text>
<polyline fill="none" stroke="#bfbfbf" points="220.5,-477.5 318.5,-477.5 "/>
<text text-anchor="middle" x="269.5" y="-465.5" font-family="Helvetica,sans-Serif" font-size="10.00"> </text>
</a>
</g>
</g>
<!-- Node5&#45;&gt;Node4 -->
<g id="edge4" class="edge">
<title>Node5&#45;&gt;Node4</title>
<path fill="none" stroke="#404040" d="M274.15,-458.48C276.42,-445.06 279.25,-428.33 282.01,-412.06"/>
<polygon fill="none" stroke="#404040" points="282.08,-411.6 279.14,-405.01 284.08,-399.76 287.03,-406.35 282.08,-411.6"/>
<text text-anchor="middle" x="294" y="-426.5" font-family="Helvetica,sans-Serif" font-size="10.00"> +ptr</text>
</g>
<!-- Node6 -->
<g id="node6" class="node">
<title>Node6</title>
<g id="a_node6"><a xlink:title=" ">
<polygon fill="none" stroke="#bfbfbf" points="337,-458.5 337,-515.5 366,-515.5 366,-458.5 337,-458.5"/>
<text text-anchor="middle" x="351.5" y="-503.5" font-family="Helvetica,sans-Serif" font-size="10.00">int</text>
<polyline fill="none" stroke="#bfbfbf" points="337,-496.5 366,-496.5 "/>
<text text-anchor="middle" x="351.5" y="-484.5" font-family="Helvetica,sans-Serif" font-size="10.00"> </text>
<polyline fill="none" stroke="#bfbfbf" points="337,-477.5 366,-477.5 "/>
<text text-anchor="middle" x="351.5" y="-465.5" font-family="Helvetica,sans-Serif" font-size="10.00"> </text>
</a>
</g>
</g>
<!-- Node6&#45;&gt;Node4 -->
<g id="edge5" class="edge">
<title>Node6&#45;&gt;Node4</title>
<path fill="none" stroke="#404040" d="M339.56,-458.48C333.62,-444.79 326.2,-427.67 319.01,-411.1"/>
<polygon fill="none" stroke="#404040" points="318.86,-410.77 312.81,-406.86 314.09,-399.76 320.15,-403.68 318.86,-410.77"/>
<text text-anchor="middle" x="344" y="-432" font-family="Helvetica,sans-Serif" font-size="10.00"> +I_c</text>
<text text-anchor="middle" x="344" y="-421" font-family="Helvetica,sans-Serif" font-size="10.00">+I_r</text>
</g>
<!-- Node7 -->
<g id="node7" class="node">
<title>Node7</title>
<g id="a_node7"><a xlink:href="structvisioncpp_1_1internal_1_1ConstNeighbour.html" target="_top" xlink:title=" ">
<polygon fill="none" stroke="black" points="50.5,-133 50.5,-245 200.5,-245 200.5,-133 50.5,-133"/>
<text text-anchor="start" x="58.5" y="-233" font-family="Helvetica,sans-Serif" font-size="10.00">visioncpp::internal</text>
<text text-anchor="middle" x="125.5" y="-222" font-family="Helvetica,sans-Serif" font-size="10.00">::ConstNeighbour&lt; InTp2 &gt;</text>
<polyline fill="none" stroke="black" points="50.5,-215 200.5,-215 "/>
<text text-anchor="start" x="58.5" y="-203" font-family="Helvetica,sans-Serif" font-size="10.00">+ ptr</text>
<text text-anchor="start" x="58.5" y="-192" font-family="Helvetica,sans-Serif" font-size="10.00">+ cols</text>
<text text-anchor="start" x="58.5" y="-181" font-family="Helvetica,sans-Serif" font-size="10.00">+ rows</text>
<polyline fill="none" stroke="black" points="50.5,-174 200.5,-174 "/>
<text text-anchor="start" x="58.5" y="-162" font-family="Helvetica,sans-Serif" font-size="10.00">+ ConstNeighbour()</text>
<text text-anchor="start" x="58.5" y="-151" font-family="Helvetica,sans-Serif" font-size="10.00">+ at()</text>
<text text-anchor="start" x="58.5" y="-140" font-family="Helvetica,sans-Serif" font-size="10.00">+ at()</text>
</a>
</g>
</g>
<!-- Node7&#45;&gt;Node1 -->
<g id="edge6" class="edge">
<title>Node7&#45;&gt;Node1</title>
<path fill="none" stroke="#404040" d="M125.5,-132.84C125.5,-119.39 125.5,-105.05 125.5,-91.8"/>
<polygon fill="none" stroke="#404040" points="125.5,-91.5 121.5,-85.5 125.5,-79.5 129.5,-85.5 125.5,-91.5"/>
<text text-anchor="middle" x="134.5" y="-101" font-family="Helvetica,sans-Serif" font-size="10.00"> +y</text>
</g>
<!-- Node8&#45;&gt;Node7 -->
<g id="edge7" class="edge">
<title>Node8&#45;&gt;Node7</title>
<path fill="none" stroke="orange" d="M124.84,-293.87C124.94,-278.11 125.05,-260.87 125.15,-245.05"/>
<polygon fill="orange" stroke="orange" points="121.34,-293.97 124.78,-303.99 128.34,-294.01 121.34,-293.97"/>
<text text-anchor="middle" x="152" y="-272" font-family="Helvetica,sans-Serif" font-size="10.00"> &lt; InTp2 &gt;</text>
</g>
<!-- Node9 -->
<g id="node9" class="node">
<title>Node9</title>
<g id="a_node9"><a xlink:title=" ">
<polygon fill="none" stroke="#bfbfbf" points="66.5,-458.5 66.5,-515.5 182.5,-515.5 182.5,-458.5 66.5,-458.5"/>
<text text-anchor="middle" x="124.5" y="-503.5" font-family="Helvetica,sans-Serif" font-size="10.00">constant_ptr&lt; T &gt; &amp;</text>
<polyline fill="none" stroke="#bfbfbf" points="66.5,-496.5 182.5,-496.5 "/>
<text text-anchor="middle" x="124.5" y="-484.5" font-family="Helvetica,sans-Serif" font-size="10.00"> </text>
<polyline fill="none" stroke="#bfbfbf" points="66.5,-477.5 182.5,-477.5 "/>
<text text-anchor="middle" x="124.5" y="-465.5" font-family="Helvetica,sans-Serif" font-size="10.00"> </text>
</a>
</g>
</g>
<!-- Node9&#45;&gt;Node8 -->
<g id="edge9" class="edge">
<title>Node9&#45;&gt;Node8</title>
<path fill="none" stroke="#404040" d="M124.5,-458.48C124.5,-443.47 124.5,-424.32 124.5,-406.31"/>
<polygon fill="none" stroke="#404040" points="124.5,-406.08 120.5,-400.08 124.5,-394.08 128.5,-400.08 124.5,-406.08"/>
<text text-anchor="middle" x="137" y="-426.5" font-family="Helvetica,sans-Serif" font-size="10.00"> +ptr</text>
</g>
</g>
</svg>
