<?xml version="1.0" encoding="UTF-8" standalone="no"?>
<!DOCTYPE svg PUBLIC "-//W3C//DTD SVG 1.1//EN"
 "http://www.w3.org/Graphics/SVG/1.1/DTD/svg11.dtd">
<!-- Generated by graphviz version 2.43.0 (0)
 -->
<!-- Title: visioncpp::internal::PyramidLeafNode&lt; PyramidT, N &gt; Pages: 1 -->
<svg width="333pt" height="281pt"
 viewBox="0.00 0.00 332.50 281.00" xmlns="http://www.w3.org/2000/svg" xmlns:xlink="http://www.w3.org/1999/xlink">
<g id="graph0" class="graph" transform="scale(1 1) rotate(0) translate(4 277)">
<title>visioncpp::internal::PyramidLeafNode&lt; PyramidT, N &gt;</title>
<!-- Node1 -->
<g id="node1" class="node">
<title>Node1</title>
<g id="a_node1"><a xlink:title=" ">
<polygon fill="#bfbfbf" stroke="black" points="48.5,-0.5 48.5,-101.5 216.5,-101.5 216.5,-0.5 48.5,-0.5"/>
<text text-anchor="start" x="56.5" y="-89.5" font-family="Helvetica,sans-Serif" font-size="10.00">visioncpp::internal</text>
<text text-anchor="start" x="56.5" y="-78.5" font-family="Helvetica,sans-Serif" font-size="10.00">::PyramidLeafNode&lt; Pyramid</text>
<text text-anchor="middle" x="132.5" y="-67.5" font-family="Helvetica,sans-Serif" font-size="10.00">T, N &gt;</text>
<polyline fill="none" stroke="black" points="48.5,-60.5 216.5,-60.5 "/>
<text text-anchor="middle" x="132.5" y="-48.5" font-family="Helvetica,sans-Serif" font-size="10.00"> </text>
<polyline fill="none" stroke="black" points="48.5,-41.5 216.5,-41.5 "/>
<text text-anchor="start" x="56.5" y="-29.5" font-family="Helvetica,sans-Serif" font-size="10.00">+ PyramidLeafNode()</text>
<text text-anchor="start" x="56.5" y="-18.5" font-family="Helvetica,sans-Serif" font-size="10.00">+ reset()</text>
<text text-anchor="start" x="56.5" y="-7.5" font-family="Helvetica,sans-Serif" font-size="10.00">+ sub_expression_evaluation()</text>
</a>
</g>
</g>
<!-- Node2 -->
<g id="node2" class="node">
<title>Node2</title>
<g id="a_node2"><a xlink:title=" ">
<polygon fill="none" stroke="#bfbfbf" points="0,-215.5 0,-272.5 45,-272.5 45,-215.5 0,-215.5"/>
<text text-anchor="middle" x="22.5" y="-260.5" font-family="Helvetica,sans-Serif" font-size="10.00">size_t</text>
<polyline fill="none" stroke="#bfbfbf" points="0,-253.5 45,-253.5 "/>
<text text-anchor="middle" x="22.5" y="-241.5" font-family="Helvetica,sans-Serif" font-size="10.00"> </text>
<polyline fill="none" stroke="#bfbfbf" points="0,-234.5 45,-234.5 "/>
<text text-anchor="middle" x="22.5" y="-222.5" font-family="Helvetica,sans-Serif" font-size="10.00"> </text>
</a>
</g>
</g>
<!-- Node2&#45;&gt;Node1 -->
<g id="edge1" class="edge">
<title>Node2&#45;&gt;Node1</title>
<path fill="none" stroke="#404040" d="M20.99,-215.34C20.82,-189 23.97,-149.17 41.5,-120 43.42,-116.81 45.55,-113.71 47.85,-110.73"/>
<polygon fill="none" stroke="#404040" points="47.92,-110.64 48.79,-103.49 55.73,-101.54 54.86,-108.69 47.92,-110.64"/>
<text text-anchor="middle" x="85" y="-189" font-family="Helvetica,sans-Serif" font-size="10.00"> +Operation_type</text>
<text text-anchor="middle" x="85" y="-178" font-family="Helvetica,sans-Serif" font-size="10.00">+Level</text>
<text text-anchor="middle" x="85" y="-167" font-family="Helvetica,sans-Serif" font-size="10.00">+Depth</text>
<text text-anchor="middle" x="85" y="-156" font-family="Helvetica,sans-Serif" font-size="10.00">+LeafType</text>
<text text-anchor="middle" x="85" y="-145" font-family="Helvetica,sans-Serif" font-size="10.00">+RThread</text>
<text text-anchor="middle" x="85" y="-134" font-family="Helvetica,sans-Serif" font-size="10.00">+CThread</text>
<text text-anchor="middle" x="85" y="-123" font-family="Helvetica,sans-Serif" font-size="10.00">+ND_Category</text>
</g>
<!-- Node3 -->
<g id="node3" class="node">
<title>Node3</title>
<g id="a_node3"><a xlink:title=" ">
<polygon fill="none" stroke="#bfbfbf" points="113.5,-215.5 113.5,-272.5 151.5,-272.5 151.5,-215.5 113.5,-215.5"/>
<text text-anchor="middle" x="132.5" y="-260.5" font-family="Helvetica,sans-Serif" font-size="10.00">bool</text>
<polyline fill="none" stroke="#bfbfbf" points="113.5,-253.5 151.5,-253.5 "/>
<text text-anchor="middle" x="132.5" y="-241.5" font-family="Helvetica,sans-Serif" font-size="10.00"> </text>
<polyline fill="none" stroke="#bfbfbf" points="113.5,-234.5 151.5,-234.5 "/>
<text text-anchor="middle" x="132.5" y="-222.5" font-family="Helvetica,sans-Serif" font-size="10.00"> </text>
</a>
</g>
</g>
<!-- Node3&#45;&gt;Node1 -->
<g id="edge2" class="edge">
<title>Node3&#45;&gt;Node1</title>
<path fill="none" stroke="#404040" d="M132.5,-215.23C132.5,-188.78 132.5,-148.06 132.5,-113.9"/>
<polygon fill="none" stroke="#404040" points="132.5,-113.66 128.5,-107.66 132.5,-101.66 136.5,-107.66 132.5,-113.66"/>
<text text-anchor="middle" x="198.5" y="-178" font-family="Helvetica,sans-Serif" font-size="10.00"> +has_out</text>
<text text-anchor="start" x="132.5" y="-167" font-family="Helvetica,sans-Serif" font-size="10.00">+SubExpressionEvaluation</text>
<text text-anchor="middle" x="198.5" y="-156" font-family="Helvetica,sans-Serif" font-size="10.00">Needed</text>
<text text-anchor="start" x="132.5" y="-145" font-family="Helvetica,sans-Serif" font-size="10.00">+subexpr_execution</text>
<text text-anchor="middle" x="198.5" y="-134" font-family="Helvetica,sans-Serif" font-size="10.00">_reseter</text>
</g>
<!-- Node4 -->
<g id="node4" class="node">
<title>Node4</title>
<g id="a_node4"><a xlink:title=" ">
<polygon fill="none" stroke="#bfbfbf" points="250.5,-215.5 250.5,-272.5 324.5,-272.5 324.5,-215.5 250.5,-215.5"/>
<text text-anchor="middle" x="287.5" y="-260.5" font-family="Helvetica,sans-Serif" font-size="10.00">PyramidT &amp;</text>
<polyline fill="none" stroke="#bfbfbf" points="250.5,-253.5 324.5,-253.5 "/>
<text text-anchor="middle" x="287.5" y="-241.5" font-family="Helvetica,sans-Serif" font-size="10.00"> </text>
<polyline fill="none" stroke="#bfbfbf" points="250.5,-234.5 324.5,-234.5 "/>
<text text-anchor="middle" x="287.5" y="-222.5" font-family="Helvetica,sans-Serif" font-size="10.00"> </text>
</a>
</g>
</g>
<!-- Node4&#45;&gt;Node1 -->
<g id="edge3" class="edge">
<title>Node4&#45;&gt;Node1</title>
<path fill="none" stroke="#404040" d="M289.26,-215.34C289.55,-188.45 286.03,-147.72 265.5,-120 255.5,-106.5 242.05,-95.48 227.52,-86.55"/>
<polygon fill="none" stroke="#404040" points="227.21,-86.37 220.02,-86.86 216.8,-80.41 223.99,-79.92 227.21,-86.37"/>
<text text-anchor="middle" x="302" y="-156" font-family="Helvetica,sans-Serif" font-size="10.00"> +rhs</text>
</g>
</g>
</svg>
