<?xml version="1.0" encoding="UTF-8" standalone="no"?>
<!DOCTYPE svg PUBLIC "-//W3C//DTD SVG 1.1//EN"
 "http://www.w3.org/Graphics/SVG/1.1/DTD/svg11.dtd">
<!-- Generated by graphviz version 2.43.0 (0)
 -->
<!-- Title: visioncpp::internal::GlobalUnaryOp&lt; USROP, InTp &gt; Pages: 1 -->
<svg width="413pt" height="524pt"
 viewBox="0.00 0.00 413.00 524.00" xmlns="http://www.w3.org/2000/svg" xmlns:xlink="http://www.w3.org/1999/xlink">
<g id="graph0" class="graph" transform="scale(1 1) rotate(0) translate(4 520)">
<title>visioncpp::internal::GlobalUnaryOp&lt; USROP, InTp &gt;</title>
<!-- Node1 -->
<g id="node1" class="node">
<title>Node1</title>
<g id="a_node1"><a xlink:title="This class is used to encapsulate the global unary functor and the types of each operand in this func...">
<polygon fill="#bfbfbf" stroke="black" points="0,-0.5 0,-79.5 145,-79.5 145,-0.5 0,-0.5"/>
<text text-anchor="start" x="8" y="-67.5" font-family="Helvetica,sans-Serif" font-size="10.00">visioncpp::internal</text>
<text text-anchor="start" x="8" y="-56.5" font-family="Helvetica,sans-Serif" font-size="10.00">::GlobalUnaryOp&lt; USROP,</text>
<text text-anchor="middle" x="72.5" y="-45.5" font-family="Helvetica,sans-Serif" font-size="10.00"> InTp &gt;</text>
<polyline fill="none" stroke="black" points="0,-38.5 145,-38.5 "/>
<text text-anchor="middle" x="72.5" y="-26.5" font-family="Helvetica,sans-Serif" font-size="10.00"> </text>
<polyline fill="none" stroke="black" points="0,-19.5 145,-19.5 "/>
<text text-anchor="middle" x="72.5" y="-7.5" font-family="Helvetica,sans-Serif" font-size="10.00"> </text>
</a>
</g>
</g>
<!-- Node2 -->
<g id="node2" class="node">
<title>Node2</title>
<g id="a_node2"><a xlink:href="structvisioncpp_1_1internal_1_1GlobalNeighbour.html" target="_top" xlink:title=" ">
<polygon fill="none" stroke="black" points="110.5,-127.5 110.5,-228.5 258.5,-228.5 258.5,-127.5 110.5,-127.5"/>
<text text-anchor="start" x="118.5" y="-216.5" font-family="Helvetica,sans-Serif" font-size="10.00">visioncpp::internal</text>
<text text-anchor="middle" x="184.5" y="-205.5" font-family="Helvetica,sans-Serif" font-size="10.00">::GlobalNeighbour&lt; InTp &gt;</text>
<polyline fill="none" stroke="black" points="110.5,-198.5 258.5,-198.5 "/>
<text text-anchor="middle" x="184.5" y="-186.5" font-family="Helvetica,sans-Serif" font-size="10.00"> </text>
<polyline fill="none" stroke="black" points="110.5,-179.5 258.5,-179.5 "/>
<text text-anchor="start" x="118.5" y="-167.5" font-family="Helvetica,sans-Serif" font-size="10.00">+ GlobalNeighbour()</text>
<text text-anchor="start" x="118.5" y="-156.5" font-family="Helvetica,sans-Serif" font-size="10.00">+ set_offset()</text>
<text text-anchor="start" x="118.5" y="-145.5" font-family="Helvetica,sans-Serif" font-size="10.00">+ at()</text>
<text text-anchor="start" x="118.5" y="-134.5" font-family="Helvetica,sans-Serif" font-size="10.00">+ at()</text>
</a>
</g>
</g>
<!-- Node2&#45;&gt;Node1 -->
<g id="edge1" class="edge">
<title>Node2&#45;&gt;Node1</title>
<path fill="none" stroke="#404040" d="M143.43,-127.13C133.28,-114.81 122.43,-101.63 112.34,-89.38"/>
<polygon fill="none" stroke="#404040" points="112.07,-89.05 105.17,-86.96 104.44,-79.79 111.34,-81.88 112.07,-89.05"/>
<text text-anchor="middle" x="137.5" y="-101" font-family="Helvetica,sans-Serif" font-size="10.00"> +x</text>
</g>
<!-- Node3 -->
<g id="node3" class="node">
<title>Node3</title>
<g id="a_node3"><a xlink:title=" ">
<polygon fill="none" stroke="#bfbfbf" points="66,-298.5 66,-355.5 185,-355.5 185,-298.5 66,-298.5"/>
<text text-anchor="middle" x="125.5" y="-343.5" font-family="Helvetica,sans-Serif" font-size="10.00">global_ptr&lt; InTp &gt; &amp;</text>
<polyline fill="none" stroke="#bfbfbf" points="66,-336.5 185,-336.5 "/>
<text text-anchor="middle" x="125.5" y="-324.5" font-family="Helvetica,sans-Serif" font-size="10.00"> </text>
<polyline fill="none" stroke="#bfbfbf" points="66,-317.5 185,-317.5 "/>
<text text-anchor="middle" x="125.5" y="-305.5" font-family="Helvetica,sans-Serif" font-size="10.00"> </text>
</a>
</g>
</g>
<!-- Node3&#45;&gt;Node2 -->
<g id="edge2" class="edge">
<title>Node3&#45;&gt;Node2</title>
<path fill="none" stroke="#404040" d="M136.6,-298.35C143.24,-281.79 151.97,-260.06 160.14,-239.68"/>
<polygon fill="none" stroke="#404040" points="160.15,-239.68 158.67,-232.62 164.62,-228.54 166.09,-235.6 160.15,-239.68"/>
<text text-anchor="middle" x="170" y="-250" font-family="Helvetica,sans-Serif" font-size="10.00"> +ptr</text>
</g>
<!-- Node4 -->
<g id="node4" class="node">
<title>Node4</title>
<g id="a_node4"><a xlink:title=" ">
<polygon fill="none" stroke="#bfbfbf" points="199,-458.5 199,-515.5 244,-515.5 244,-458.5 199,-458.5"/>
<text text-anchor="middle" x="221.5" y="-503.5" font-family="Helvetica,sans-Serif" font-size="10.00">size_t</text>
<polyline fill="none" stroke="#bfbfbf" points="199,-496.5 244,-496.5 "/>
<text text-anchor="middle" x="221.5" y="-484.5" font-family="Helvetica,sans-Serif" font-size="10.00"> </text>
<polyline fill="none" stroke="#bfbfbf" points="199,-477.5 244,-477.5 "/>
<text text-anchor="middle" x="221.5" y="-465.5" font-family="Helvetica,sans-Serif" font-size="10.00"> </text>
</a>
</g>
</g>
<!-- Node4&#45;&gt;Node1 -->
<g id="edge7" class="edge">
<title>Node4&#45;&gt;Node1</title>
<path fill="none" stroke="#404040" d="M198.94,-479.07C161.35,-466.16 87.03,-434.47 56.5,-378 7.23,-286.86 33.68,-160.78 54.74,-91.56"/>
<polygon fill="none" stroke="#404040" points="54.86,-91.17 52.84,-84.25 58.46,-79.72 60.48,-86.64 54.86,-91.17"/>
<text text-anchor="middle" x="73" y="-250" font-family="Helvetica,sans-Serif" font-size="10.00"> +Operation_type</text>
</g>
<!-- Node4&#45;&gt;Node2 -->
<g id="edge3" class="edge">
<title>Node4&#45;&gt;Node2</title>
<path fill="none" stroke="#404040" d="M218.18,-458.49C212.31,-409.72 199.93,-307 191.92,-240.6"/>
<polygon fill="none" stroke="#404040" points="191.92,-240.56 187.23,-235.08 190.48,-228.64 195.17,-234.12 191.92,-240.56"/>
<text text-anchor="middle" x="224.5" y="-341" font-family="Helvetica,sans-Serif" font-size="10.00"> +I_c</text>
<text text-anchor="middle" x="224.5" y="-330" font-family="Helvetica,sans-Serif" font-size="10.00">+rows</text>
<text text-anchor="middle" x="224.5" y="-319" font-family="Helvetica,sans-Serif" font-size="10.00">+cols</text>
<text text-anchor="middle" x="224.5" y="-308" font-family="Helvetica,sans-Serif" font-size="10.00">+I_r</text>
</g>
<!-- Node5 -->
<g id="node5" class="node">
<title>Node5</title>
<g id="a_node5"><a xlink:href="structvisioncpp_1_1internal_1_1GlobalNeighbour.html" target="_top" xlink:title="GlobalNeighbour is used to provide local access for each element of the global memory based on the Co...">
<polygon fill="none" stroke="black" points="272,-276.5 272,-377.5 405,-377.5 405,-276.5 272,-276.5"/>
<text text-anchor="start" x="280" y="-365.5" font-family="Helvetica,sans-Serif" font-size="10.00">visioncpp::internal</text>
<text text-anchor="middle" x="338.5" y="-354.5" font-family="Helvetica,sans-Serif" font-size="10.00">::GlobalNeighbour&lt; T &gt;</text>
<polyline fill="none" stroke="black" points="272,-347.5 405,-347.5 "/>
<text text-anchor="middle" x="338.5" y="-335.5" font-family="Helvetica,sans-Serif" font-size="10.00"> </text>
<polyline fill="none" stroke="black" points="272,-328.5 405,-328.5 "/>
<text text-anchor="start" x="280" y="-316.5" font-family="Helvetica,sans-Serif" font-size="10.00">+ GlobalNeighbour()</text>
<text text-anchor="start" x="280" y="-305.5" font-family="Helvetica,sans-Serif" font-size="10.00">+ set_offset()</text>
<text text-anchor="start" x="280" y="-294.5" font-family="Helvetica,sans-Serif" font-size="10.00">+ at()</text>
<text text-anchor="start" x="280" y="-283.5" font-family="Helvetica,sans-Serif" font-size="10.00">+ at()</text>
</a>
</g>
</g>
<!-- Node4&#45;&gt;Node5 -->
<g id="edge5" class="edge">
<title>Node4&#45;&gt;Node5</title>
<path fill="none" stroke="#404040" d="M241.88,-458.48C256.38,-438.9 276.42,-411.84 294.48,-387.44"/>
<polygon fill="none" stroke="#404040" points="294.68,-387.18 295.04,-379.97 301.82,-377.53 301.47,-384.73 294.68,-387.18"/>
<text text-anchor="middle" x="303.5" y="-432" font-family="Helvetica,sans-Serif" font-size="10.00"> +I_c</text>
<text text-anchor="middle" x="303.5" y="-421" font-family="Helvetica,sans-Serif" font-size="10.00">+rows</text>
<text text-anchor="middle" x="303.5" y="-410" font-family="Helvetica,sans-Serif" font-size="10.00">+cols</text>
<text text-anchor="middle" x="303.5" y="-399" font-family="Helvetica,sans-Serif" font-size="10.00">+I_r</text>
</g>
<!-- Node5&#45;&gt;Node2 -->
<g id="edge4" class="edge">
<title>Node5&#45;&gt;Node2</title>
<path fill="none" stroke="orange" d="M279.12,-269.32C265.1,-255.93 250.25,-241.76 236.58,-228.72"/>
<polygon fill="orange" stroke="orange" points="276.71,-271.86 286.36,-276.23 281.55,-266.8 276.71,-271.86"/>
<text text-anchor="middle" x="290" y="-250" font-family="Helvetica,sans-Serif" font-size="10.00"> &lt; InTp &gt;</text>
</g>
<!-- Node6 -->
<g id="node6" class="node">
<title>Node6</title>
<g id="a_node6"><a xlink:title=" ">
<polygon fill="none" stroke="#bfbfbf" points="286.5,-458.5 286.5,-515.5 390.5,-515.5 390.5,-458.5 286.5,-458.5"/>
<text text-anchor="middle" x="338.5" y="-503.5" font-family="Helvetica,sans-Serif" font-size="10.00">global_ptr&lt; T &gt; &amp;</text>
<polyline fill="none" stroke="#bfbfbf" points="286.5,-496.5 390.5,-496.5 "/>
<text text-anchor="middle" x="338.5" y="-484.5" font-family="Helvetica,sans-Serif" font-size="10.00"> </text>
<polyline fill="none" stroke="#bfbfbf" points="286.5,-477.5 390.5,-477.5 "/>
<text text-anchor="middle" x="338.5" y="-465.5" font-family="Helvetica,sans-Serif" font-size="10.00"> </text>
</a>
</g>
</g>
<!-- Node6&#45;&gt;Node5 -->
<g id="edge6" class="edge">
<title>Node6&#45;&gt;Node5</title>
<path fill="none" stroke="#404040" d="M338.5,-458.48C338.5,-439.51 338.5,-413.52 338.5,-389.72"/>
<polygon fill="none" stroke="#404040" points="338.5,-389.53 334.5,-383.53 338.5,-377.53 342.5,-383.53 338.5,-389.53"/>
<text text-anchor="middle" x="351" y="-415.5" font-family="Helvetica,sans-Serif" font-size="10.00"> +ptr</text>
</g>
</g>
</svg>
