<?xml version="1.0" encoding="UTF-8" standalone="no"?>
<!DOCTYPE svg PUBLIC "-//W3C//DTD SVG 1.1//EN"
 "http://www.w3.org/Graphics/SVG/1.1/DTD/svg11.dtd">
<!-- Generated by graphviz version 2.43.0 (0)
 -->
<!-- Title: visioncpp::internal::Trait&lt; cl::sycl::accessor&lt; elementType, dimensions, accessMode, accessTarget &gt; &gt; Pages: 1 -->
<svg width="179pt" height="204pt"
 viewBox="0.00 0.00 179.00 204.00" xmlns="http://www.w3.org/2000/svg" xmlns:xlink="http://www.w3.org/1999/xlink">
<g id="graph0" class="graph" transform="scale(1 1) rotate(0) translate(4 200)">
<title>visioncpp::internal::Trait&lt; cl::sycl::accessor&lt; elementType, dimensions, accessMode, accessTarget &gt; &gt;</title>
<!-- Node1 -->
<g id="node1" class="node">
<title>Node1</title>
<g id="a_node1"><a xlink:title="specialisation of the Trait class when the accessor is sycl accessor">
<polygon fill="#bfbfbf" stroke="black" points="0,-0.5 0,-90.5 171,-90.5 171,-0.5 0,-0.5"/>
<text text-anchor="start" x="8" y="-78.5" font-family="Helvetica,sans-Serif" font-size="10.00">visioncpp::internal</text>
<text text-anchor="start" x="8" y="-67.5" font-family="Helvetica,sans-Serif" font-size="10.00">::Trait&lt; cl::sycl::accessor</text>
<text text-anchor="start" x="8" y="-56.5" font-family="Helvetica,sans-Serif" font-size="10.00">&lt; elementType, dimensions,</text>
<text text-anchor="middle" x="85.5" y="-45.5" font-family="Helvetica,sans-Serif" font-size="10.00"> accessMode, accessTarget &gt; &gt;</text>
<polyline fill="none" stroke="black" points="0,-38.5 171,-38.5 "/>
<text text-anchor="middle" x="85.5" y="-26.5" font-family="Helvetica,sans-Serif" font-size="10.00"> </text>
<polyline fill="none" stroke="black" points="0,-19.5 171,-19.5 "/>
<text text-anchor="middle" x="85.5" y="-7.5" font-family="Helvetica,sans-Serif" font-size="10.00"> </text>
</a>
</g>
</g>
<!-- Node2 -->
<g id="node2" class="node">
<title>Node2</title>
<g id="a_node2"><a xlink:title=" ">
<polygon fill="none" stroke="#bfbfbf" points="32,-138.5 32,-195.5 77,-195.5 77,-138.5 32,-138.5"/>
<text text-anchor="middle" x="54.5" y="-183.5" font-family="Helvetica,sans-Serif" font-size="10.00">size_t</text>
<polyline fill="none" stroke="#bfbfbf" points="32,-176.5 77,-176.5 "/>
<text text-anchor="middle" x="54.5" y="-164.5" font-family="Helvetica,sans-Serif" font-size="10.00"> </text>
<polyline fill="none" stroke="#bfbfbf" points="32,-157.5 77,-157.5 "/>
<text text-anchor="middle" x="54.5" y="-145.5" font-family="Helvetica,sans-Serif" font-size="10.00"> </text>
</a>
</g>
</g>
<!-- Node2&#45;&gt;Node1 -->
<g id="edge1" class="edge">
<title>Node2&#45;&gt;Node1</title>
<path fill="none" stroke="#404040" d="M52.62,-138.45C52.59,-129 53.26,-118.44 55.5,-109 56.04,-106.72 56.67,-104.42 57.38,-102.12"/>
<polygon fill="none" stroke="#404040" points="57.42,-102.01 55.67,-95.01 61.46,-90.71 63.21,-97.71 57.42,-102.01"/>
<text text-anchor="middle" x="75.5" y="-112" font-family="Helvetica,sans-Serif" font-size="10.00"> +scope</text>
</g>
<!-- Node3 -->
<g id="node3" class="node">
<title>Node3</title>
<g id="a_node3"><a xlink:title=" ">
<polygon fill="none" stroke="#bfbfbf" points="103,-138.5 103,-195.5 132,-195.5 132,-138.5 103,-138.5"/>
<text text-anchor="middle" x="117.5" y="-183.5" font-family="Helvetica,sans-Serif" font-size="10.00">int</text>
<polyline fill="none" stroke="#bfbfbf" points="103,-176.5 132,-176.5 "/>
<text text-anchor="middle" x="117.5" y="-164.5" font-family="Helvetica,sans-Serif" font-size="10.00"> </text>
<polyline fill="none" stroke="#bfbfbf" points="103,-157.5 132,-157.5 "/>
<text text-anchor="middle" x="117.5" y="-145.5" font-family="Helvetica,sans-Serif" font-size="10.00"> </text>
</a>
</g>
</g>
<!-- Node3&#45;&gt;Node1 -->
<g id="edge2" class="edge">
<title>Node3&#45;&gt;Node1</title>
<path fill="none" stroke="#404040" d="M110.08,-138.28C107.22,-127.62 103.85,-115.03 100.54,-102.65"/>
<polygon fill="none" stroke="#404040" points="100.5,-102.5 95.08,-97.74 97.39,-90.91 102.81,-95.67 100.5,-102.5"/>
<text text-anchor="middle" x="119.5" y="-112" font-family="Helvetica,sans-Serif" font-size="10.00"> +Dim</text>
</g>
</g>
</svg>
