<?xml version="1.0" encoding="UTF-8" standalone="no"?>
<!DOCTYPE svg PUBLIC "-//W3C//DTD SVG 1.1//EN"
 "http://www.w3.org/Graphics/SVG/1.1/DTD/svg11.dtd">
<!-- Generated by graphviz version 2.43.0 (0)
 -->
<!-- Title: visioncpp::internal::RBiOP&lt; BI_OP, LHS, RHS, Cols, Rows, LfType, LVL &gt; Pages: 1 -->
<svg width="370pt" height="281pt"
 viewBox="0.00 0.00 369.50 281.00" xmlns="http://www.w3.org/2000/svg" xmlns:xlink="http://www.w3.org/1999/xlink">
<g id="graph0" class="graph" transform="scale(1 1) rotate(0) translate(4 277)">
<title>visioncpp::internal::RBiOP&lt; BI_OP, LHS, RHS, Cols, Rows, LfType, LVL &gt;</title>
<!-- Node1 -->
<g id="node1" class="node">
<title>Node1</title>
<g id="a_node1"><a xlink:title="The definition is in RBiOP file.">
<polygon fill="#bfbfbf" stroke="black" points="44.5,-0.5 44.5,-112.5 212.5,-112.5 212.5,-0.5 44.5,-0.5"/>
<text text-anchor="start" x="52.5" y="-100.5" font-family="Helvetica,sans-Serif" font-size="10.00">visioncpp::internal</text>
<text text-anchor="start" x="52.5" y="-89.5" font-family="Helvetica,sans-Serif" font-size="10.00">::RBiOP&lt; BI_OP, LHS,</text>
<text text-anchor="start" x="52.5" y="-78.5" font-family="Helvetica,sans-Serif" font-size="10.00"> RHS, Cols, Rows, LfType,</text>
<text text-anchor="middle" x="128.5" y="-67.5" font-family="Helvetica,sans-Serif" font-size="10.00"> LVL &gt;</text>
<polyline fill="none" stroke="black" points="44.5,-60.5 212.5,-60.5 "/>
<text text-anchor="middle" x="128.5" y="-48.5" font-family="Helvetica,sans-Serif" font-size="10.00"> </text>
<polyline fill="none" stroke="black" points="44.5,-41.5 212.5,-41.5 "/>
<text text-anchor="start" x="52.5" y="-29.5" font-family="Helvetica,sans-Serif" font-size="10.00">+ RBiOP()</text>
<text text-anchor="start" x="52.5" y="-18.5" font-family="Helvetica,sans-Serif" font-size="10.00">+ reset()</text>
<text text-anchor="start" x="52.5" y="-7.5" font-family="Helvetica,sans-Serif" font-size="10.00">+ sub_expression_evaluation()</text>
</a>
</g>
</g>
<!-- Node2 -->
<g id="node2" class="node">
<title>Node2</title>
<g id="a_node2"><a xlink:title=" ">
<polygon fill="none" stroke="#bfbfbf" points="0,-215.5 0,-272.5 35,-272.5 35,-215.5 0,-215.5"/>
<text text-anchor="middle" x="17.5" y="-260.5" font-family="Helvetica,sans-Serif" font-size="10.00">LHS</text>
<polyline fill="none" stroke="#bfbfbf" points="0,-253.5 35,-253.5 "/>
<text text-anchor="middle" x="17.5" y="-241.5" font-family="Helvetica,sans-Serif" font-size="10.00"> </text>
<polyline fill="none" stroke="#bfbfbf" points="0,-234.5 35,-234.5 "/>
<text text-anchor="middle" x="17.5" y="-222.5" font-family="Helvetica,sans-Serif" font-size="10.00"> </text>
</a>
</g>
</g>
<!-- Node2&#45;&gt;Node1 -->
<g id="edge1" class="edge">
<title>Node2&#45;&gt;Node1</title>
<path fill="none" stroke="#404040" d="M17.48,-215.37C18.63,-191.49 23.15,-156.86 38.5,-131 40.29,-127.99 42.24,-125.05 44.34,-122.19"/>
<polygon fill="none" stroke="#404040" points="44.42,-122.08 45.08,-114.9 51.96,-112.75 51.31,-119.93 44.42,-122.08"/>
<text text-anchor="middle" x="51.5" y="-161.5" font-family="Helvetica,sans-Serif" font-size="10.00"> +lhs</text>
</g>
<!-- Node3 -->
<g id="node3" class="node">
<title>Node3</title>
<g id="a_node3"><a xlink:title=" ">
<polygon fill="none" stroke="#bfbfbf" points="53,-215.5 53,-272.5 98,-272.5 98,-215.5 53,-215.5"/>
<text text-anchor="middle" x="75.5" y="-260.5" font-family="Helvetica,sans-Serif" font-size="10.00">size_t</text>
<polyline fill="none" stroke="#bfbfbf" points="53,-253.5 98,-253.5 "/>
<text text-anchor="middle" x="75.5" y="-241.5" font-family="Helvetica,sans-Serif" font-size="10.00"> </text>
<polyline fill="none" stroke="#bfbfbf" points="53,-234.5 98,-234.5 "/>
<text text-anchor="middle" x="75.5" y="-222.5" font-family="Helvetica,sans-Serif" font-size="10.00"> </text>
</a>
</g>
</g>
<!-- Node3&#45;&gt;Node1 -->
<g id="edge2" class="edge">
<title>Node3&#45;&gt;Node1</title>
<path fill="none" stroke="#404040" d="M71.21,-215.11C68.72,-191.99 67.6,-158.57 76.5,-131 77.29,-128.56 78.19,-126.13 79.18,-123.72"/>
<polygon fill="none" stroke="#404040" points="79.31,-123.45 78.28,-116.32 84.47,-112.62 85.5,-119.75 79.31,-123.45"/>
<text text-anchor="middle" x="118.5" y="-189" font-family="Helvetica,sans-Serif" font-size="10.00"> +CThread</text>
<text text-anchor="middle" x="118.5" y="-178" font-family="Helvetica,sans-Serif" font-size="10.00">+LeafType</text>
<text text-anchor="middle" x="118.5" y="-167" font-family="Helvetica,sans-Serif" font-size="10.00">+Level</text>
<text text-anchor="middle" x="118.5" y="-156" font-family="Helvetica,sans-Serif" font-size="10.00">+ND_Category</text>
<text text-anchor="middle" x="118.5" y="-145" font-family="Helvetica,sans-Serif" font-size="10.00">+Operation_type</text>
<text text-anchor="middle" x="118.5" y="-134" font-family="Helvetica,sans-Serif" font-size="10.00">+RThread</text>
</g>
<!-- Node4 -->
<g id="node4" class="node">
<title>Node4</title>
<g id="a_node4"><a xlink:title=" ">
<polygon fill="none" stroke="#bfbfbf" points="164,-215.5 164,-272.5 201,-272.5 201,-215.5 164,-215.5"/>
<text text-anchor="middle" x="182.5" y="-260.5" font-family="Helvetica,sans-Serif" font-size="10.00">RHS</text>
<polyline fill="none" stroke="#bfbfbf" points="164,-253.5 201,-253.5 "/>
<text text-anchor="middle" x="182.5" y="-241.5" font-family="Helvetica,sans-Serif" font-size="10.00"> </text>
<polyline fill="none" stroke="#bfbfbf" points="164,-234.5 201,-234.5 "/>
<text text-anchor="middle" x="182.5" y="-222.5" font-family="Helvetica,sans-Serif" font-size="10.00"> </text>
</a>
</g>
</g>
<!-- Node4&#45;&gt;Node1 -->
<g id="edge3" class="edge">
<title>Node4&#45;&gt;Node1</title>
<path fill="none" stroke="#404040" d="M178.79,-215.43C175.3,-192.5 169.29,-159.19 160.5,-131 159.8,-128.76 159.05,-126.49 158.27,-124.22"/>
<polygon fill="none" stroke="#404040" points="158.22,-124.07 152.39,-119.81 154.08,-112.8 159.9,-117.05 158.22,-124.07"/>
<text text-anchor="middle" x="188" y="-161.5" font-family="Helvetica,sans-Serif" font-size="10.00"> +rhs</text>
</g>
<!-- Node5 -->
<g id="node5" class="node">
<title>Node5</title>
<g id="a_node5"><a xlink:title=" ">
<polygon fill="none" stroke="#bfbfbf" points="219.5,-215.5 219.5,-272.5 257.5,-272.5 257.5,-215.5 219.5,-215.5"/>
<text text-anchor="middle" x="238.5" y="-260.5" font-family="Helvetica,sans-Serif" font-size="10.00">bool</text>
<polyline fill="none" stroke="#bfbfbf" points="219.5,-253.5 257.5,-253.5 "/>
<text text-anchor="middle" x="238.5" y="-241.5" font-family="Helvetica,sans-Serif" font-size="10.00"> </text>
<polyline fill="none" stroke="#bfbfbf" points="219.5,-234.5 257.5,-234.5 "/>
<text text-anchor="middle" x="238.5" y="-222.5" font-family="Helvetica,sans-Serif" font-size="10.00"> </text>
</a>
</g>
</g>
<!-- Node5&#45;&gt;Node1 -->
<g id="edge4" class="edge">
<title>Node5&#45;&gt;Node1</title>
<path fill="none" stroke="#404040" d="M234.44,-215.12C230.05,-191.4 221.44,-157.13 205.5,-131 203.7,-128.04 201.74,-125.12 199.67,-122.25"/>
<polygon fill="none" stroke="#404040" points="199.6,-122.16 192.76,-119.89 192.23,-112.7 199.07,-114.97 199.6,-122.16"/>
<text text-anchor="middle" x="295.5" y="-189" font-family="Helvetica,sans-Serif" font-size="10.00"> +Binary_Conds</text>
<text text-anchor="start" x="229.5" y="-178" font-family="Helvetica,sans-Serif" font-size="10.00">+SubExpressionEvaluation</text>
<text text-anchor="middle" x="295.5" y="-167" font-family="Helvetica,sans-Serif" font-size="10.00">Needed</text>
<text text-anchor="middle" x="295.5" y="-156" font-family="Helvetica,sans-Serif" font-size="10.00">+has_out</text>
<text text-anchor="start" x="229.5" y="-145" font-family="Helvetica,sans-Serif" font-size="10.00">+subexpr_execution</text>
<text text-anchor="middle" x="295.5" y="-134" font-family="Helvetica,sans-Serif" font-size="10.00">_reseter</text>
</g>
</g>
</svg>
