<?xml version="1.0" encoding="UTF-8" standalone="no"?>
<!DOCTYPE svg PUBLIC "-//W3C//DTD SVG 1.1//EN"
 "http://www.w3.org/Graphics/SVG/1.1/DTD/svg11.dtd">
<!-- Generated by graphviz version 2.43.0 (0)
 -->
<!-- Title: visioncpp::internal::Coordinate&lt; LC, LR, ItemID &gt; Pages: 1 -->
<svg width="141pt" height="314pt"
 viewBox="0.00 0.00 141.00 314.00" xmlns="http://www.w3.org/2000/svg" xmlns:xlink="http://www.w3.org/1999/xlink">
<g id="graph0" class="graph" transform="scale(1 1) rotate(0) translate(4 310)">
<title>visioncpp::internal::Coordinate&lt; LC, LR, ItemID &gt;</title>
<!-- Node1 -->
<g id="node1" class="node">
<title>Node1</title>
<g id="a_node1"><a xlink:title="Coordinate is used to specify local/global offset for local/global access to the local/global memory ...">
<polygon fill="#bfbfbf" stroke="black" points="0,-0.5 0,-101.5 120,-101.5 120,-0.5 0,-0.5"/>
<text text-anchor="start" x="8" y="-89.5" font-family="Helvetica,sans-Serif" font-size="10.00">visioncpp::internal</text>
<text text-anchor="start" x="8" y="-78.5" font-family="Helvetica,sans-Serif" font-size="10.00">::Coordinate&lt; LC, LR,</text>
<text text-anchor="middle" x="60" y="-67.5" font-family="Helvetica,sans-Serif" font-size="10.00"> ItemID &gt;</text>
<polyline fill="none" stroke="black" points="0,-60.5 120,-60.5 "/>
<text text-anchor="middle" x="60" y="-48.5" font-family="Helvetica,sans-Serif" font-size="10.00"> </text>
<polyline fill="none" stroke="black" points="0,-41.5 120,-41.5 "/>
<text text-anchor="start" x="8" y="-29.5" font-family="Helvetica,sans-Serif" font-size="10.00">+ Coordinate()</text>
<text text-anchor="start" x="8" y="-18.5" font-family="Helvetica,sans-Serif" font-size="10.00">+ barrier()</text>
<text text-anchor="start" x="8" y="-7.5" font-family="Helvetica,sans-Serif" font-size="10.00">+ global_barrier()</text>
</a>
</g>
</g>
<!-- Node2 -->
<g id="node2" class="node">
<title>Node2</title>
<g id="a_node2"><a xlink:title=" ">
<polygon fill="none" stroke="#bfbfbf" points="2.5,-248.5 2.5,-305.5 47.5,-305.5 47.5,-248.5 2.5,-248.5"/>
<text text-anchor="middle" x="25" y="-293.5" font-family="Helvetica,sans-Serif" font-size="10.00">size_t</text>
<polyline fill="none" stroke="#bfbfbf" points="2.5,-286.5 47.5,-286.5 "/>
<text text-anchor="middle" x="25" y="-274.5" font-family="Helvetica,sans-Serif" font-size="10.00"> </text>
<polyline fill="none" stroke="#bfbfbf" points="2.5,-267.5 47.5,-267.5 "/>
<text text-anchor="middle" x="25" y="-255.5" font-family="Helvetica,sans-Serif" font-size="10.00"> </text>
</a>
</g>
</g>
<!-- Node2&#45;&gt;Node1 -->
<g id="edge1" class="edge">
<title>Node2&#45;&gt;Node1</title>
<path fill="none" stroke="#404040" d="M21.46,-248.49C18.25,-216.97 15.47,-163.99 26,-120 26.55,-117.69 27.2,-115.37 27.92,-113.05"/>
<polygon fill="none" stroke="#404040" points="28,-112.81 26.27,-105.81 32.06,-101.52 33.79,-108.52 28,-112.81"/>
<text text-anchor="middle" x="49.5" y="-222" font-family="Helvetica,sans-Serif" font-size="10.00"> +cLRng</text>
<text text-anchor="middle" x="49.5" y="-211" font-family="Helvetica,sans-Serif" font-size="10.00">+g_c</text>
<text text-anchor="middle" x="49.5" y="-200" font-family="Helvetica,sans-Serif" font-size="10.00">+g_r</text>
<text text-anchor="middle" x="49.5" y="-189" font-family="Helvetica,sans-Serif" font-size="10.00">+l_c</text>
<text text-anchor="middle" x="49.5" y="-178" font-family="Helvetica,sans-Serif" font-size="10.00">+l_r</text>
<text text-anchor="start" x="26" y="-167" font-family="Helvetica,sans-Serif" font-size="10.00">+pointOp</text>
<text text-anchor="middle" x="49.5" y="-156" font-family="Helvetica,sans-Serif" font-size="10.00">_gc</text>
<text text-anchor="start" x="26" y="-145" font-family="Helvetica,sans-Serif" font-size="10.00">+pointOp</text>
<text text-anchor="middle" x="49.5" y="-134" font-family="Helvetica,sans-Serif" font-size="10.00">_gr</text>
<text text-anchor="middle" x="49.5" y="-123" font-family="Helvetica,sans-Serif" font-size="10.00">+rLRng</text>
</g>
<!-- Node3 -->
<g id="node3" class="node">
<title>Node3</title>
<g id="a_node3"><a xlink:title=" ">
<polygon fill="none" stroke="#bfbfbf" points="70,-248.5 70,-305.5 120,-305.5 120,-248.5 70,-248.5"/>
<text text-anchor="middle" x="95" y="-293.5" font-family="Helvetica,sans-Serif" font-size="10.00">ItemID</text>
<polyline fill="none" stroke="#bfbfbf" points="70,-286.5 120,-286.5 "/>
<text text-anchor="middle" x="95" y="-274.5" font-family="Helvetica,sans-Serif" font-size="10.00"> </text>
<polyline fill="none" stroke="#bfbfbf" points="70,-267.5 120,-267.5 "/>
<text text-anchor="middle" x="95" y="-255.5" font-family="Helvetica,sans-Serif" font-size="10.00"> </text>
</a>
</g>
</g>
<!-- Node3&#45;&gt;Node1 -->
<g id="edge2" class="edge">
<title>Node3&#45;&gt;Node1</title>
<path fill="none" stroke="#404040" d="M91.51,-248.32C87.48,-217.09 80.44,-164.79 73,-120 72.66,-117.96 72.31,-115.89 71.95,-113.8"/>
<polygon fill="none" stroke="#404040" points="71.9,-113.53 66.91,-108.32 69.79,-101.71 74.79,-106.92 71.9,-113.53"/>
<text text-anchor="middle" x="110.5" y="-172.5" font-family="Helvetica,sans-Serif" font-size="10.00"> +itemID</text>
</g>
</g>
</svg>
