<?xml version="1.0" encoding="UTF-8" standalone="no"?>
<!DOCTYPE svg PUBLIC "-//W3C//DTD SVG 1.1//EN"
 "http://www.w3.org/Graphics/SVG/1.1/DTD/svg11.dtd">
<!-- Generated by graphviz version 2.43.0 (0)
 -->
<!-- Title: visioncpp::internal::LocalOutput&lt; false, IsRoot, LC, LR, RDCN&lt; OP, RHSExpr, Cols, Rows, LeafType, LVL &gt; &gt; Pages: 1 -->
<svg width="160pt" height="248pt"
 viewBox="0.00 0.00 160.00 248.00" xmlns="http://www.w3.org/2000/svg" xmlns:xlink="http://www.w3.org/1999/xlink">
<g id="graph0" class="graph" transform="scale(1 1) rotate(0) translate(4 244)">
<title>visioncpp::internal::LocalOutput&lt; false, IsRoot, LC, LR, RDCN&lt; OP, RHSExpr, Cols, Rows, LeafType, LVL &gt; &gt;</title>
<!-- Node1 -->
<g id="node1" class="node">
<title>Node1</title>
<g id="a_node1"><a xlink:title="LocalOutput specialisation for reduction neighbour operation(RDCN).">
<polygon fill="#bfbfbf" stroke="black" points="0,-0.5 0,-101.5 152,-101.5 152,-0.5 0,-0.5"/>
<text text-anchor="start" x="8" y="-89.5" font-family="Helvetica,sans-Serif" font-size="10.00">visioncpp::internal</text>
<text text-anchor="start" x="8" y="-78.5" font-family="Helvetica,sans-Serif" font-size="10.00">::LocalOutput&lt; false,</text>
<text text-anchor="start" x="8" y="-67.5" font-family="Helvetica,sans-Serif" font-size="10.00"> IsRoot, LC, LR, RDCN</text>
<text text-anchor="start" x="8" y="-56.5" font-family="Helvetica,sans-Serif" font-size="10.00">&lt; OP, RHSExpr, Cols, Rows,</text>
<text text-anchor="middle" x="76" y="-45.5" font-family="Helvetica,sans-Serif" font-size="10.00"> LeafType, LVL &gt; &gt;</text>
<polyline fill="none" stroke="black" points="0,-38.5 152,-38.5 "/>
<text text-anchor="middle" x="76" y="-26.5" font-family="Helvetica,sans-Serif" font-size="10.00"> </text>
<polyline fill="none" stroke="black" points="0,-19.5 152,-19.5 "/>
<text text-anchor="start" x="8" y="-7.5" font-family="Helvetica,sans-Serif" font-size="10.00">+ getTuple()</text>
</a>
</g>
</g>
<!-- Node2 -->
<g id="node2" class="node">
<title>Node2</title>
<g id="a_node2"><a xlink:title=" ">
<polygon fill="none" stroke="#bfbfbf" points="53.5,-182.5 53.5,-239.5 98.5,-239.5 98.5,-182.5 53.5,-182.5"/>
<text text-anchor="middle" x="76" y="-227.5" font-family="Helvetica,sans-Serif" font-size="10.00">size_t</text>
<polyline fill="none" stroke="#bfbfbf" points="53.5,-220.5 98.5,-220.5 "/>
<text text-anchor="middle" x="76" y="-208.5" font-family="Helvetica,sans-Serif" font-size="10.00"> </text>
<polyline fill="none" stroke="#bfbfbf" points="53.5,-201.5 98.5,-201.5 "/>
<text text-anchor="middle" x="76" y="-189.5" font-family="Helvetica,sans-Serif" font-size="10.00"> </text>
</a>
</g>
</g>
<!-- Node2&#45;&gt;Node1 -->
<g id="edge1" class="edge">
<title>Node2&#45;&gt;Node1</title>
<path fill="none" stroke="#404040" d="M76,-182.48C76,-163.51 76,-137.52 76,-113.72"/>
<polygon fill="none" stroke="#404040" points="76,-113.53 72,-107.53 76,-101.53 80,-107.53 76,-113.53"/>
<text text-anchor="middle" x="102" y="-156" font-family="Helvetica,sans-Serif" font-size="10.00"> +Out_LR</text>
<text text-anchor="middle" x="102" y="-145" font-family="Helvetica,sans-Serif" font-size="10.00">+Out_LC</text>
<text text-anchor="middle" x="102" y="-134" font-family="Helvetica,sans-Serif" font-size="10.00">+LR_Ratio</text>
<text text-anchor="middle" x="102" y="-123" font-family="Helvetica,sans-Serif" font-size="10.00">+LC_Ratio</text>
</g>
</g>
</svg>
