<?xml version="1.0" encoding="UTF-8" standalone="no"?>
<!DOCTYPE svg PUBLIC "-//W3C//DTD SVG 1.1//EN"
 "http://www.w3.org/Graphics/SVG/1.1/DTD/svg11.dtd">
<!-- Generated by graphviz version 2.43.0 (0)
 -->
<!-- Title: visioncpp::internal::LocalMemCount&lt; expr_category::Binary, Assign&lt; LHSExpr, RHSExpr, Cols, Rows, LeafType, LVL &gt; &gt; Pages: 1 -->
<svg width="154pt" height="215pt"
 viewBox="0.00 0.00 154.00 215.00" xmlns="http://www.w3.org/2000/svg" xmlns:xlink="http://www.w3.org/1999/xlink">
<g id="graph0" class="graph" transform="scale(1 1) rotate(0) translate(4 211)">
<title>visioncpp::internal::LocalMemCount&lt; expr_category::Binary, Assign&lt; LHSExpr, RHSExpr, Cols, Rows, LeafType, LVL &gt; &gt;</title>
<!-- Node1 -->
<g id="node1" class="node">
<title>Node1</title>
<g id="a_node1"><a xlink:title="Specialisation of ExtractAccessor class where the expression node is Assign.">
<polygon fill="#bfbfbf" stroke="black" points="0,-0.5 0,-101.5 146,-101.5 146,-0.5 0,-0.5"/>
<text text-anchor="start" x="8" y="-89.5" font-family="Helvetica,sans-Serif" font-size="10.00">visioncpp::internal</text>
<text text-anchor="start" x="8" y="-78.5" font-family="Helvetica,sans-Serif" font-size="10.00">::LocalMemCount&lt; expr</text>
<text text-anchor="start" x="8" y="-67.5" font-family="Helvetica,sans-Serif" font-size="10.00">_category::Binary, Assign</text>
<text text-anchor="start" x="8" y="-56.5" font-family="Helvetica,sans-Serif" font-size="10.00">&lt; LHSExpr, RHSExpr, Cols,</text>
<text text-anchor="middle" x="73" y="-45.5" font-family="Helvetica,sans-Serif" font-size="10.00"> Rows, LeafType, LVL &gt; &gt;</text>
<polyline fill="none" stroke="black" points="0,-38.5 146,-38.5 "/>
<text text-anchor="middle" x="73" y="-26.5" font-family="Helvetica,sans-Serif" font-size="10.00"> </text>
<polyline fill="none" stroke="black" points="0,-19.5 146,-19.5 "/>
<text text-anchor="middle" x="73" y="-7.5" font-family="Helvetica,sans-Serif" font-size="10.00"> </text>
</a>
</g>
</g>
<!-- Node2 -->
<g id="node2" class="node">
<title>Node2</title>
<g id="a_node2"><a xlink:title=" ">
<polygon fill="none" stroke="#bfbfbf" points="50.5,-149.5 50.5,-206.5 95.5,-206.5 95.5,-149.5 50.5,-149.5"/>
<text text-anchor="middle" x="73" y="-194.5" font-family="Helvetica,sans-Serif" font-size="10.00">size_t</text>
<polyline fill="none" stroke="#bfbfbf" points="50.5,-187.5 95.5,-187.5 "/>
<text text-anchor="middle" x="73" y="-175.5" font-family="Helvetica,sans-Serif" font-size="10.00"> </text>
<polyline fill="none" stroke="#bfbfbf" points="50.5,-168.5 95.5,-168.5 "/>
<text text-anchor="middle" x="73" y="-156.5" font-family="Helvetica,sans-Serif" font-size="10.00"> </text>
</a>
</g>
</g>
<!-- Node2&#45;&gt;Node1 -->
<g id="edge1" class="edge">
<title>Node2&#45;&gt;Node1</title>
<path fill="none" stroke="#404040" d="M73,-149.26C73,-138.79 73,-126.42 73,-114.07"/>
<polygon fill="none" stroke="#404040" points="73,-113.8 69,-107.8 73,-101.8 77,-107.8 73,-113.8"/>
<text text-anchor="middle" x="93" y="-123" font-family="Helvetica,sans-Serif" font-size="10.00"> +Count</text>
</g>
</g>
</svg>
