<?xml version="1.0" encoding="UTF-8" standalone="no"?>
<!DOCTYPE svg PUBLIC "-//W3C//DTD SVG 1.1//EN"
 "http://www.w3.org/Graphics/SVG/1.1/DTD/svg11.dtd">
<!-- Generated by graphviz version 2.43.0 (0)
 -->
<!-- Title: visioncpp::internal::LocalUnaryOp&lt; USROP, InTp &gt; Pages: 1 -->
<svg width="329pt" height="502pt"
 viewBox="0.00 0.00 328.50 502.00" xmlns="http://www.w3.org/2000/svg" xmlns:xlink="http://www.w3.org/1999/xlink">
<g id="graph0" class="graph" transform="scale(1 1) rotate(0) translate(4 498)">
<title>visioncpp::internal::LocalUnaryOp&lt; USROP, InTp &gt;</title>
<!-- Node1 -->
<g id="node1" class="node">
<title>Node1</title>
<g id="a_node1"><a xlink:title="This class is used to encapsulate the local unary functor and the types of each operand in this funct...">
<polygon fill="#bfbfbf" stroke="black" points="136,-0.5 136,-79.5 275,-79.5 275,-0.5 136,-0.5"/>
<text text-anchor="start" x="144" y="-67.5" font-family="Helvetica,sans-Serif" font-size="10.00">visioncpp::internal</text>
<text text-anchor="start" x="144" y="-56.5" font-family="Helvetica,sans-Serif" font-size="10.00">::LocalUnaryOp&lt; USROP,</text>
<text text-anchor="middle" x="205.5" y="-45.5" font-family="Helvetica,sans-Serif" font-size="10.00"> InTp &gt;</text>
<polyline fill="none" stroke="black" points="136,-38.5 275,-38.5 "/>
<text text-anchor="middle" x="205.5" y="-26.5" font-family="Helvetica,sans-Serif" font-size="10.00"> </text>
<polyline fill="none" stroke="black" points="136,-19.5 275,-19.5 "/>
<text text-anchor="middle" x="205.5" y="-7.5" font-family="Helvetica,sans-Serif" font-size="10.00"> </text>
</a>
</g>
</g>
<!-- Node2 -->
<g id="node2" class="node">
<title>Node2</title>
<g id="a_node2"><a xlink:href="structvisioncpp_1_1internal_1_1LocalNeighbour.html" target="_top" xlink:title=" ">
<polygon fill="none" stroke="black" points="78.5,-127.5 78.5,-228.5 220.5,-228.5 220.5,-127.5 78.5,-127.5"/>
<text text-anchor="start" x="86.5" y="-216.5" font-family="Helvetica,sans-Serif" font-size="10.00">visioncpp::internal</text>
<text text-anchor="middle" x="149.5" y="-205.5" font-family="Helvetica,sans-Serif" font-size="10.00">::LocalNeighbour&lt; InTp &gt;</text>
<polyline fill="none" stroke="black" points="78.5,-198.5 220.5,-198.5 "/>
<text text-anchor="middle" x="149.5" y="-186.5" font-family="Helvetica,sans-Serif" font-size="10.00"> </text>
<polyline fill="none" stroke="black" points="78.5,-179.5 220.5,-179.5 "/>
<text text-anchor="start" x="86.5" y="-167.5" font-family="Helvetica,sans-Serif" font-size="10.00">+ LocalNeighbour()</text>
<text text-anchor="start" x="86.5" y="-156.5" font-family="Helvetica,sans-Serif" font-size="10.00">+ set_offset()</text>
<text text-anchor="start" x="86.5" y="-145.5" font-family="Helvetica,sans-Serif" font-size="10.00">+ at()</text>
<text text-anchor="start" x="86.5" y="-134.5" font-family="Helvetica,sans-Serif" font-size="10.00">+ at()</text>
</a>
</g>
</g>
<!-- Node2&#45;&gt;Node1 -->
<g id="edge1" class="edge">
<title>Node2&#45;&gt;Node1</title>
<path fill="none" stroke="#404040" d="M170.03,-127.13C174.86,-115.42 180,-102.93 184.83,-91.2"/>
<polygon fill="none" stroke="#404040" points="184.96,-90.88 183.55,-83.81 189.53,-79.79 190.94,-86.86 184.96,-90.88"/>
<text text-anchor="middle" x="190.5" y="-101" font-family="Helvetica,sans-Serif" font-size="10.00"> +x</text>
</g>
<!-- Node3 -->
<g id="node3" class="node">
<title>Node3</title>
<g id="a_node3"><a xlink:title=" ">
<polygon fill="none" stroke="#bfbfbf" points="0,-298.5 0,-355.5 113,-355.5 113,-298.5 0,-298.5"/>
<text text-anchor="middle" x="56.5" y="-343.5" font-family="Helvetica,sans-Serif" font-size="10.00">local_ptr&lt; InTp &gt; &amp;</text>
<polyline fill="none" stroke="#bfbfbf" points="0,-336.5 113,-336.5 "/>
<text text-anchor="middle" x="56.5" y="-324.5" font-family="Helvetica,sans-Serif" font-size="10.00"> </text>
<polyline fill="none" stroke="#bfbfbf" points="0,-317.5 113,-317.5 "/>
<text text-anchor="middle" x="56.5" y="-305.5" font-family="Helvetica,sans-Serif" font-size="10.00"> </text>
</a>
</g>
</g>
<!-- Node3&#45;&gt;Node2 -->
<g id="edge2" class="edge">
<title>Node3&#45;&gt;Node2</title>
<path fill="none" stroke="#404040" d="M73.99,-298.35C84.62,-281.56 98.6,-259.45 111.65,-238.83"/>
<polygon fill="none" stroke="#404040" points="111.74,-238.68 111.57,-231.48 118.16,-228.54 118.33,-235.75 111.74,-238.68"/>
<text text-anchor="middle" x="119" y="-250" font-family="Helvetica,sans-Serif" font-size="10.00"> +ptr</text>
</g>
<!-- Node4 -->
<g id="node4" class="node">
<title>Node4</title>
<g id="a_node4"><a xlink:title=" ">
<polygon fill="none" stroke="#bfbfbf" points="148,-436.5 148,-493.5 177,-493.5 177,-436.5 148,-436.5"/>
<text text-anchor="middle" x="162.5" y="-481.5" font-family="Helvetica,sans-Serif" font-size="10.00">int</text>
<polyline fill="none" stroke="#bfbfbf" points="148,-474.5 177,-474.5 "/>
<text text-anchor="middle" x="162.5" y="-462.5" font-family="Helvetica,sans-Serif" font-size="10.00"> </text>
<polyline fill="none" stroke="#bfbfbf" points="148,-455.5 177,-455.5 "/>
<text text-anchor="middle" x="162.5" y="-443.5" font-family="Helvetica,sans-Serif" font-size="10.00"> </text>
</a>
</g>
</g>
<!-- Node4&#45;&gt;Node2 -->
<g id="edge3" class="edge">
<title>Node4&#45;&gt;Node2</title>
<path fill="none" stroke="#404040" d="M161.19,-436.11C160.41,-419.28 159.39,-397.41 158.5,-378 156.39,-332.08 154.05,-280.19 152.28,-240.91"/>
<polygon fill="none" stroke="#404040" points="152.28,-240.88 148.01,-235.06 151.74,-228.89 156,-234.7 152.28,-240.88"/>
<text text-anchor="middle" x="171" y="-330" font-family="Helvetica,sans-Serif" font-size="10.00"> +I_c</text>
<text text-anchor="middle" x="171" y="-319" font-family="Helvetica,sans-Serif" font-size="10.00">+I_r</text>
</g>
<!-- Node5 -->
<g id="node5" class="node">
<title>Node5</title>
<g id="a_node5"><a xlink:href="structvisioncpp_1_1internal_1_1LocalNeighbour.html" target="_top" xlink:title="LocalNeighbour is used to provide local access for each element of the local memory based on the Coor...">
<polygon fill="none" stroke="black" points="193,-276.5 193,-377.5 320,-377.5 320,-276.5 193,-276.5"/>
<text text-anchor="start" x="201" y="-365.5" font-family="Helvetica,sans-Serif" font-size="10.00">visioncpp::internal</text>
<text text-anchor="middle" x="256.5" y="-354.5" font-family="Helvetica,sans-Serif" font-size="10.00">::LocalNeighbour&lt; T &gt;</text>
<polyline fill="none" stroke="black" points="193,-347.5 320,-347.5 "/>
<text text-anchor="middle" x="256.5" y="-335.5" font-family="Helvetica,sans-Serif" font-size="10.00"> </text>
<polyline fill="none" stroke="black" points="193,-328.5 320,-328.5 "/>
<text text-anchor="start" x="201" y="-316.5" font-family="Helvetica,sans-Serif" font-size="10.00">+ LocalNeighbour()</text>
<text text-anchor="start" x="201" y="-305.5" font-family="Helvetica,sans-Serif" font-size="10.00">+ set_offset()</text>
<text text-anchor="start" x="201" y="-294.5" font-family="Helvetica,sans-Serif" font-size="10.00">+ at()</text>
<text text-anchor="start" x="201" y="-283.5" font-family="Helvetica,sans-Serif" font-size="10.00">+ at()</text>
</a>
</g>
</g>
<!-- Node4&#45;&gt;Node5 -->
<g id="edge6" class="edge">
<title>Node4&#45;&gt;Node5</title>
<path fill="none" stroke="#404040" d="M177.19,-442.75C187.48,-427.86 201.78,-407.17 215.41,-387.46"/>
<polygon fill="none" stroke="#404040" points="215.41,-387.45 215.53,-380.24 222.23,-377.58 222.11,-384.79 215.41,-387.45"/>
<text text-anchor="middle" x="222" y="-410" font-family="Helvetica,sans-Serif" font-size="10.00"> +I_c</text>
<text text-anchor="middle" x="222" y="-399" font-family="Helvetica,sans-Serif" font-size="10.00">+I_r</text>
</g>
<!-- Node5&#45;&gt;Node2 -->
<g id="edge4" class="edge">
<title>Node5&#45;&gt;Node2</title>
<path fill="none" stroke="orange" d="M214.17,-267.84C204.74,-254.89 194.84,-241.29 185.69,-228.72"/>
<polygon fill="orange" stroke="orange" points="211.56,-270.21 220.27,-276.23 217.22,-266.09 211.56,-270.21"/>
<text text-anchor="middle" x="230" y="-250" font-family="Helvetica,sans-Serif" font-size="10.00"> &lt; InTp &gt;</text>
</g>
<!-- Node6 -->
<g id="node6" class="node">
<title>Node6</title>
<g id="a_node6"><a xlink:title=" ">
<polygon fill="none" stroke="#bfbfbf" points="207.5,-436.5 207.5,-493.5 305.5,-493.5 305.5,-436.5 207.5,-436.5"/>
<text text-anchor="middle" x="256.5" y="-481.5" font-family="Helvetica,sans-Serif" font-size="10.00">local_ptr&lt; T &gt; &amp;</text>
<polyline fill="none" stroke="#bfbfbf" points="207.5,-474.5 305.5,-474.5 "/>
<text text-anchor="middle" x="256.5" y="-462.5" font-family="Helvetica,sans-Serif" font-size="10.00"> </text>
<polyline fill="none" stroke="#bfbfbf" points="207.5,-455.5 305.5,-455.5 "/>
<text text-anchor="middle" x="256.5" y="-443.5" font-family="Helvetica,sans-Serif" font-size="10.00"> </text>
</a>
</g>
</g>
<!-- Node6&#45;&gt;Node5 -->
<g id="edge5" class="edge">
<title>Node6&#45;&gt;Node5</title>
<path fill="none" stroke="#404040" d="M256.5,-436.48C256.5,-423.06 256.5,-406.33 256.5,-390.06"/>
<polygon fill="none" stroke="#404040" points="256.5,-389.76 252.5,-383.76 256.5,-377.76 260.5,-383.76 256.5,-389.76"/>
<text text-anchor="middle" x="269" y="-404.5" font-family="Helvetica,sans-Serif" font-size="10.00"> +ptr</text>
</g>
<!-- Node7 -->
<g id="node7" class="node">
<title>Node7</title>
<g id="a_node7"><a xlink:title=" ">
<polygon fill="none" stroke="#bfbfbf" points="239,-149.5 239,-206.5 284,-206.5 284,-149.5 239,-149.5"/>
<text text-anchor="middle" x="261.5" y="-194.5" font-family="Helvetica,sans-Serif" font-size="10.00">size_t</text>
<polyline fill="none" stroke="#bfbfbf" points="239,-187.5 284,-187.5 "/>
<text text-anchor="middle" x="261.5" y="-175.5" font-family="Helvetica,sans-Serif" font-size="10.00"> </text>
<polyline fill="none" stroke="#bfbfbf" points="239,-168.5 284,-168.5 "/>
<text text-anchor="middle" x="261.5" y="-156.5" font-family="Helvetica,sans-Serif" font-size="10.00"> </text>
</a>
</g>
</g>
<!-- Node7&#45;&gt;Node1 -->
<g id="edge7" class="edge">
<title>Node7&#45;&gt;Node1</title>
<path fill="none" stroke="#404040" d="M250.17,-149.48C243.25,-132.67 234.19,-110.68 226.05,-90.9"/>
<polygon fill="none" stroke="#404040" points="225.95,-90.66 219.96,-86.63 221.38,-79.56 227.36,-83.59 225.95,-90.66"/>
<text text-anchor="middle" x="277" y="-101" font-family="Helvetica,sans-Serif" font-size="10.00"> +Operation_type</text>
</g>
</g>
</svg>
