<?xml version="1.0" encoding="UTF-8" standalone="no"?>
<!DOCTYPE svg PUBLIC "-//W3C//DTD SVG 1.1//EN"
 "http://www.w3.org/Graphics/SVG/1.1/DTD/svg11.dtd">
<!-- Generated by graphviz version 2.36.0 (20140111.2315)
 -->
<!-- Title: visioncpp::internal::RUnOP&lt; UN_OP, RHS, Cols, Rows, LfType, LVL &gt; Pages: 1 -->
<svg width="291pt" height="270pt"
 viewBox="0.00 0.00 291.00 270.00" xmlns="http://www.w3.org/2000/svg" xmlns:xlink="http://www.w3.org/1999/xlink">
<g id="graph0" class="graph" transform="scale(1 1) rotate(0) translate(4 266)">
<title>visioncpp::internal::RUnOP&lt; UN_OP, RHS, Cols, Rows, LfType, LVL &gt;</title>
<!-- Node1 -->
<g id="node1" class="node"><title>Node1</title>
<polygon fill="#bfbfbf" stroke="black" points="45.5,-0.5 45.5,-101.5 194.5,-101.5 194.5,-0.5 45.5,-0.5"/>
<text text-anchor="start" x="53.5" y="-89.5" font-family="Helvetica,sans-Serif" font-size="10.00">visioncpp::internal</text>
<text text-anchor="start" x="53.5" y="-78.5" font-family="Helvetica,sans-Serif" font-size="10.00">::RUnOP&lt; UN_OP, RHS,</text>
<text text-anchor="middle" x="120" y="-67.5" font-family="Helvetica,sans-Serif" font-size="10.00"> Cols, Rows, LfType, LVL &gt;</text>
<polyline fill="none" stroke="black" points="45.5,-60.5 194.5,-60.5 "/>
<text text-anchor="middle" x="120" y="-48.5" font-family="Helvetica,sans-Serif" font-size="10.00"> </text>
<polyline fill="none" stroke="black" points="45.5,-41.5 194.5,-41.5 "/>
<text text-anchor="start" x="53.5" y="-29.5" font-family="Helvetica,sans-Serif" font-size="10.00">+ RUnOP()</text>
<text text-anchor="start" x="53.5" y="-18.5" font-family="Helvetica,sans-Serif" font-size="10.00">+ reset()</text>
<text text-anchor="start" x="53.5" y="-7.5" font-family="Helvetica,sans-Serif" font-size="10.00">+ sub_expression_evaluation()</text>
</g>
<!-- Node2 -->
<g id="node2" class="node"><title>Node2</title>
<polygon fill="none" stroke="#bfbfbf" points="-0.5,-204.5 -0.5,-261.5 42.5,-261.5 42.5,-204.5 -0.5,-204.5"/>
<text text-anchor="middle" x="21" y="-249.5" font-family="Helvetica,sans-Serif" font-size="10.00">size_t</text>
<polyline fill="none" stroke="#bfbfbf" points="-0.5,-242.5 42.5,-242.5 "/>
<text text-anchor="middle" x="21" y="-230.5" font-family="Helvetica,sans-Serif" font-size="10.00"> </text>
<polyline fill="none" stroke="#bfbfbf" points="-0.5,-223.5 42.5,-223.5 "/>
<text text-anchor="middle" x="21" y="-211.5" font-family="Helvetica,sans-Serif" font-size="10.00"> </text>
</g>
<!-- Node2&#45;&gt;Node1 -->
<g id="edge1" class="edge"><title>Node2&#45;&gt;Node1</title>
<path fill="none" stroke="#404040" d="M20.5209,-204.467C21.2591,-180.656 25.1782,-146.057 40,-120 41.7321,-116.955 43.655,-113.984 45.7303,-111.093"/>
<polygon fill="none" stroke="#404040" points="45.835,-110.961 46.4492,-103.776 53.3177,-101.58 52.7035,-108.765 45.835,-110.961"/>
<text text-anchor="middle" x="78" y="-178" font-family="Helvetica,sans-Serif" font-size="10.00"> +Operation_type</text>
<text text-anchor="middle" x="78" y="-167" font-family="Helvetica,sans-Serif" font-size="10.00">+Level</text>
<text text-anchor="middle" x="78" y="-156" font-family="Helvetica,sans-Serif" font-size="10.00">+LeafType</text>
<text text-anchor="middle" x="78" y="-145" font-family="Helvetica,sans-Serif" font-size="10.00">+RThread</text>
<text text-anchor="middle" x="78" y="-134" font-family="Helvetica,sans-Serif" font-size="10.00">+CThread</text>
<text text-anchor="middle" x="78" y="-123" font-family="Helvetica,sans-Serif" font-size="10.00">+ND_Category</text>
</g>
<!-- Node3 -->
<g id="node3" class="node"><title>Node3</title>
<polygon fill="none" stroke="#bfbfbf" points="101,-204.5 101,-261.5 139,-261.5 139,-204.5 101,-204.5"/>
<text text-anchor="middle" x="120" y="-249.5" font-family="Helvetica,sans-Serif" font-size="10.00">RHS</text>
<polyline fill="none" stroke="#bfbfbf" points="101,-242.5 139,-242.5 "/>
<text text-anchor="middle" x="120" y="-230.5" font-family="Helvetica,sans-Serif" font-size="10.00"> </text>
<polyline fill="none" stroke="#bfbfbf" points="101,-223.5 139,-223.5 "/>
<text text-anchor="middle" x="120" y="-211.5" font-family="Helvetica,sans-Serif" font-size="10.00"> </text>
</g>
<!-- Node3&#45;&gt;Node1 -->
<g id="edge2" class="edge"><title>Node3&#45;&gt;Node1</title>
<path fill="none" stroke="#404040" d="M120,-204.269C120,-180.261 120,-144.656 120,-113.911"/>
<polygon fill="none" stroke="#404040" points="120,-113.523 116,-107.524 120,-101.523 124,-107.523 120,-113.523"/>
<text text-anchor="middle" x="131.5" y="-150.5" font-family="Helvetica,sans-Serif" font-size="10.00"> +rhs</text>
</g>
<!-- Node4 -->
<g id="node4" class="node"><title>Node4</title>
<polygon fill="none" stroke="#bfbfbf" points="157.5,-204.5 157.5,-261.5 192.5,-261.5 192.5,-204.5 157.5,-204.5"/>
<text text-anchor="middle" x="175" y="-249.5" font-family="Helvetica,sans-Serif" font-size="10.00">bool</text>
<polyline fill="none" stroke="#bfbfbf" points="157.5,-242.5 192.5,-242.5 "/>
<text text-anchor="middle" x="175" y="-230.5" font-family="Helvetica,sans-Serif" font-size="10.00"> </text>
<polyline fill="none" stroke="#bfbfbf" points="157.5,-223.5 192.5,-223.5 "/>
<text text-anchor="middle" x="175" y="-211.5" font-family="Helvetica,sans-Serif" font-size="10.00"> </text>
</g>
<!-- Node4&#45;&gt;Node1 -->
<g id="edge3" class="edge"><title>Node4&#45;&gt;Node1</title>
<path fill="none" stroke="#404040" d="M169.108,-204.094C164.029,-181.258 156.091,-148.236 147,-120 146.285,-117.778 145.533,-115.525 144.754,-113.257"/>
<polygon fill="none" stroke="#404040" points="144.718,-113.156 138.928,-108.857 140.67,-101.859 146.459,-106.158 144.718,-113.156"/>
<text text-anchor="middle" x="224" y="-178" font-family="Helvetica,sans-Serif" font-size="10.00"> +has_out</text>
<text text-anchor="start" x="165" y="-167" font-family="Helvetica,sans-Serif" font-size="10.00">+SubExpressionEvaluation</text>
<text text-anchor="middle" x="224" y="-156" font-family="Helvetica,sans-Serif" font-size="10.00">Needed</text>
<text text-anchor="middle" x="224" y="-145" font-family="Helvetica,sans-Serif" font-size="10.00">+Unary_Conds</text>
<text text-anchor="start" x="165" y="-134" font-family="Helvetica,sans-Serif" font-size="10.00">+subexpr_execution</text>
<text text-anchor="middle" x="224" y="-123" font-family="Helvetica,sans-Serif" font-size="10.00">_reseter</text>
</g>
</g>
</svg>
