<?xml version="1.0" encoding="UTF-8" standalone="no"?>
<!DOCTYPE svg PUBLIC "-//W3C//DTD SVG 1.1//EN"
 "http://www.w3.org/Graphics/SVG/1.1/DTD/svg11.dtd">
<!-- Generated by graphviz version 2.36.0 (20140111.2315)
 -->
<!-- Title: visioncpp::internal::LocalOutput&lt; false, IsRoot, LC, LR, RBiOP&lt; OP, LHSExpr, RHSExpr, Cols, Rows, LeafType, LVL &gt; &gt; Pages: 1 -->
<svg width="166pt" height="248pt"
 viewBox="0.00 0.00 166.00 248.00" xmlns="http://www.w3.org/2000/svg" xmlns:xlink="http://www.w3.org/1999/xlink">
<g id="graph0" class="graph" transform="scale(1 1) rotate(0) translate(4 244)">
<title>visioncpp::internal::LocalOutput&lt; false, IsRoot, LC, LR, RBiOP&lt; OP, LHSExpr, RHSExpr, Cols, Rows, LeafType, LVL &gt; &gt;</title>
<!-- Node1 -->
<g id="node1" class="node"><title>Node1</title>
<polygon fill="#bfbfbf" stroke="black" points="-0.5,-0.5 -0.5,-101.5 158.5,-101.5 158.5,-0.5 -0.5,-0.5"/>
<text text-anchor="start" x="7.5" y="-89.5" font-family="Helvetica,sans-Serif" font-size="10.00">visioncpp::internal</text>
<text text-anchor="start" x="7.5" y="-78.5" font-family="Helvetica,sans-Serif" font-size="10.00">::LocalOutput&lt; false,</text>
<text text-anchor="start" x="7.5" y="-67.5" font-family="Helvetica,sans-Serif" font-size="10.00"> IsRoot, LC, LR, RBiOP</text>
<text text-anchor="start" x="7.5" y="-56.5" font-family="Helvetica,sans-Serif" font-size="10.00">&lt; OP, LHSExpr, RHSExpr,</text>
<text text-anchor="middle" x="79" y="-45.5" font-family="Helvetica,sans-Serif" font-size="10.00"> Cols, Rows, LeafType, LVL &gt; &gt;</text>
<polyline fill="none" stroke="black" points="-0.5,-38.5 158.5,-38.5 "/>
<text text-anchor="middle" x="79" y="-26.5" font-family="Helvetica,sans-Serif" font-size="10.00"> </text>
<polyline fill="none" stroke="black" points="-0.5,-19.5 158.5,-19.5 "/>
<text text-anchor="start" x="7.5" y="-7.5" font-family="Helvetica,sans-Serif" font-size="10.00">+ getTuple()</text>
</g>
<!-- Node2 -->
<g id="node2" class="node"><title>Node2</title>
<polygon fill="none" stroke="#bfbfbf" points="24.5,-182.5 24.5,-239.5 67.5,-239.5 67.5,-182.5 24.5,-182.5"/>
<text text-anchor="middle" x="46" y="-227.5" font-family="Helvetica,sans-Serif" font-size="10.00">size_t</text>
<polyline fill="none" stroke="#bfbfbf" points="24.5,-220.5 67.5,-220.5 "/>
<text text-anchor="middle" x="46" y="-208.5" font-family="Helvetica,sans-Serif" font-size="10.00"> </text>
<polyline fill="none" stroke="#bfbfbf" points="24.5,-201.5 67.5,-201.5 "/>
<text text-anchor="middle" x="46" y="-189.5" font-family="Helvetica,sans-Serif" font-size="10.00"> </text>
</g>
<!-- Node2&#45;&gt;Node1 -->
<g id="edge1" class="edge"><title>Node2&#45;&gt;Node1</title>
<path fill="none" stroke="#404040" d="M43.2981,-182.468C42.2636,-164.465 42.2838,-140.561 47,-120 47.5251,-117.711 48.1345,-115.408 48.8138,-113.103"/>
<polygon fill="none" stroke="#404040" points="48.8515,-112.993 47.003,-106.022 52.7261,-101.635 54.5746,-108.606 48.8515,-112.993"/>
<text text-anchor="middle" x="68.5" y="-156" font-family="Helvetica,sans-Serif" font-size="10.00"> +Out_LR</text>
<text text-anchor="middle" x="68.5" y="-145" font-family="Helvetica,sans-Serif" font-size="10.00">+Out_LC</text>
<text text-anchor="middle" x="68.5" y="-134" font-family="Helvetica,sans-Serif" font-size="10.00">+lhs</text>
<text text-anchor="middle" x="68.5" y="-123" font-family="Helvetica,sans-Serif" font-size="10.00">+rhs</text>
</g>
<!-- Node3 -->
<g id="node3" class="node"><title>Node3</title>
<polygon fill="none" stroke="#bfbfbf" points="94.5,-182.5 94.5,-239.5 129.5,-239.5 129.5,-182.5 94.5,-182.5"/>
<text text-anchor="middle" x="112" y="-227.5" font-family="Helvetica,sans-Serif" font-size="10.00">bool</text>
<polyline fill="none" stroke="#bfbfbf" points="94.5,-220.5 129.5,-220.5 "/>
<text text-anchor="middle" x="112" y="-208.5" font-family="Helvetica,sans-Serif" font-size="10.00"> </text>
<polyline fill="none" stroke="#bfbfbf" points="94.5,-201.5 129.5,-201.5 "/>
<text text-anchor="middle" x="112" y="-189.5" font-family="Helvetica,sans-Serif" font-size="10.00"> </text>
</g>
<!-- Node3&#45;&gt;Node1 -->
<g id="edge2" class="edge"><title>Node3&#45;&gt;Node1</title>
<path fill="none" stroke="#404040" d="M106.252,-182.479C102.271,-163.418 96.811,-137.277 91.8234,-113.397"/>
<polygon fill="none" stroke="#404040" points="91.7987,-113.278 86.6564,-108.223 89.3452,-101.532 94.4875,-106.587 91.7987,-113.278"/>
<text text-anchor="middle" x="113.5" y="-139.5" font-family="Helvetica,sans-Serif" font-size="10.00"> +res</text>
</g>
</g>
</svg>
