<?xml version="1.0" encoding="UTF-8" standalone="no"?>
<!DOCTYPE svg PUBLIC "-//W3C//DTD SVG 1.1//EN"
 "http://www.w3.org/Graphics/SVG/1.1/DTD/svg11.dtd">
<!-- Generated by graphviz version 2.43.0 (0)
 -->
<!-- Title: visioncpp::internal::LocalNeighbour&lt; T &gt; Pages: 1 -->
<svg width="162pt" height="226pt"
 viewBox="0.00 0.00 161.50 226.00" xmlns="http://www.w3.org/2000/svg" xmlns:xlink="http://www.w3.org/1999/xlink">
<g id="graph0" class="graph" transform="scale(1 1) rotate(0) translate(4 222)">
<title>visioncpp::internal::LocalNeighbour&lt; T &gt;</title>
<!-- Node1 -->
<g id="node1" class="node">
<title>Node1</title>
<g id="a_node1"><a xlink:title="LocalNeighbour is used to provide local access for each element of the local memory based on the Coor...">
<polygon fill="#bfbfbf" stroke="black" points="26.5,-0.5 26.5,-101.5 153.5,-101.5 153.5,-0.5 26.5,-0.5"/>
<text text-anchor="start" x="34.5" y="-89.5" font-family="Helvetica,sans-Serif" font-size="10.00">visioncpp::internal</text>
<text text-anchor="middle" x="90" y="-78.5" font-family="Helvetica,sans-Serif" font-size="10.00">::LocalNeighbour&lt; T &gt;</text>
<polyline fill="none" stroke="black" points="26.5,-71.5 153.5,-71.5 "/>
<text text-anchor="middle" x="90" y="-59.5" font-family="Helvetica,sans-Serif" font-size="10.00"> </text>
<polyline fill="none" stroke="black" points="26.5,-52.5 153.5,-52.5 "/>
<text text-anchor="start" x="34.5" y="-40.5" font-family="Helvetica,sans-Serif" font-size="10.00">+ LocalNeighbour()</text>
<text text-anchor="start" x="34.5" y="-29.5" font-family="Helvetica,sans-Serif" font-size="10.00">+ set_offset()</text>
<text text-anchor="start" x="34.5" y="-18.5" font-family="Helvetica,sans-Serif" font-size="10.00">+ at()</text>
<text text-anchor="start" x="34.5" y="-7.5" font-family="Helvetica,sans-Serif" font-size="10.00">+ at()</text>
</a>
</g>
</g>
<!-- Node2 -->
<g id="node2" class="node">
<title>Node2</title>
<g id="a_node2"><a xlink:title=" ">
<polygon fill="none" stroke="#bfbfbf" points="0,-160.5 0,-217.5 98,-217.5 98,-160.5 0,-160.5"/>
<text text-anchor="middle" x="49" y="-205.5" font-family="Helvetica,sans-Serif" font-size="10.00">local_ptr&lt; T &gt; &amp;</text>
<polyline fill="none" stroke="#bfbfbf" points="0,-198.5 98,-198.5 "/>
<text text-anchor="middle" x="49" y="-186.5" font-family="Helvetica,sans-Serif" font-size="10.00"> </text>
<polyline fill="none" stroke="#bfbfbf" points="0,-179.5 98,-179.5 "/>
<text text-anchor="middle" x="49" y="-167.5" font-family="Helvetica,sans-Serif" font-size="10.00"> </text>
</a>
</g>
</g>
<!-- Node2&#45;&gt;Node1 -->
<g id="edge1" class="edge">
<title>Node2&#45;&gt;Node1</title>
<path fill="none" stroke="#404040" d="M57.3,-160.48C61.38,-146.93 66.49,-130 71.44,-113.58"/>
<polygon fill="none" stroke="#404040" points="71.53,-113.25 69.44,-106.35 75,-101.76 77.1,-108.66 71.53,-113.25"/>
<text text-anchor="middle" x="82.5" y="-128.5" font-family="Helvetica,sans-Serif" font-size="10.00"> +ptr</text>
</g>
<!-- Node3 -->
<g id="node3" class="node">
<title>Node3</title>
<g id="a_node3"><a xlink:title=" ">
<polygon fill="none" stroke="#bfbfbf" points="116.5,-160.5 116.5,-217.5 145.5,-217.5 145.5,-160.5 116.5,-160.5"/>
<text text-anchor="middle" x="131" y="-205.5" font-family="Helvetica,sans-Serif" font-size="10.00">int</text>
<polyline fill="none" stroke="#bfbfbf" points="116.5,-198.5 145.5,-198.5 "/>
<text text-anchor="middle" x="131" y="-186.5" font-family="Helvetica,sans-Serif" font-size="10.00"> </text>
<polyline fill="none" stroke="#bfbfbf" points="116.5,-179.5 145.5,-179.5 "/>
<text text-anchor="middle" x="131" y="-167.5" font-family="Helvetica,sans-Serif" font-size="10.00"> </text>
</a>
</g>
</g>
<!-- Node3&#45;&gt;Node1 -->
<g id="edge2" class="edge">
<title>Node3&#45;&gt;Node1</title>
<path fill="none" stroke="#404040" d="M122.7,-160.48C118.62,-146.93 113.51,-130 108.56,-113.58"/>
<polygon fill="none" stroke="#404040" points="108.47,-113.25 102.9,-108.66 105,-101.76 110.56,-106.35 108.47,-113.25"/>
<text text-anchor="middle" x="128.5" y="-134" font-family="Helvetica,sans-Serif" font-size="10.00"> +I_c</text>
<text text-anchor="middle" x="128.5" y="-123" font-family="Helvetica,sans-Serif" font-size="10.00">+I_r</text>
</g>
</g>
</svg>
