<?xml version="1.0" encoding="UTF-8" standalone="no"?>
<!DOCTYPE svg PUBLIC "-//W3C//DTD SVG 1.1//EN"
 "http://www.w3.org/Graphics/SVG/1.1/DTD/svg11.dtd">
<!-- Generated by graphviz version 2.36.0 (20140111.2315)
 -->
<!-- Title: visioncpp::internal::LocalBinaryOp&lt; USROP, InTp1, InTp2 &gt; Pages: 1 -->
<svg width="698pt" height="504pt"
 viewBox="0.00 0.00 698.00 504.00" xmlns="http://www.w3.org/2000/svg" xmlns:xlink="http://www.w3.org/1999/xlink">
<g id="graph0" class="graph" transform="scale(1 1) rotate(0) translate(4 500)">
<title>visioncpp::internal::LocalBinaryOp&lt; USROP, InTp1, InTp2 &gt;</title>
<!-- Node1 -->
<g id="node1" class="node"><title>Node1</title>
<polygon fill="#bfbfbf" stroke="black" points="107.999,-0.5 107.999,-79.5 241.999,-79.5 241.999,-0.5 107.999,-0.5"/>
<text text-anchor="start" x="115.999" y="-67.5" font-family="Helvetica,sans-Serif" font-size="10.00">visioncpp::internal</text>
<text text-anchor="start" x="115.999" y="-56.5" font-family="Helvetica,sans-Serif" font-size="10.00">::LocalBinaryOp&lt; USROP,</text>
<text text-anchor="middle" x="174.999" y="-45.5" font-family="Helvetica,sans-Serif" font-size="10.00"> InTp1, InTp2 &gt;</text>
<polyline fill="none" stroke="black" points="107.999,-38.5 241.999,-38.5 "/>
<text text-anchor="middle" x="174.999" y="-26.5" font-family="Helvetica,sans-Serif" font-size="10.00"> </text>
<polyline fill="none" stroke="black" points="107.999,-19.5 241.999,-19.5 "/>
<text text-anchor="middle" x="174.999" y="-7.5" font-family="Helvetica,sans-Serif" font-size="10.00"> </text>
</g>
<!-- Node2 -->
<g id="node2" class="node"><title>Node2</title>
<polygon fill="none" stroke="#bfbfbf" points="45.4989,-438.5 45.4989,-495.5 88.4989,-495.5 88.4989,-438.5 45.4989,-438.5"/>
<text text-anchor="middle" x="66.9989" y="-483.5" font-family="Helvetica,sans-Serif" font-size="10.00">size_t</text>
<polyline fill="none" stroke="#bfbfbf" points="45.4989,-476.5 88.4989,-476.5 "/>
<text text-anchor="middle" x="66.9989" y="-464.5" font-family="Helvetica,sans-Serif" font-size="10.00"> </text>
<polyline fill="none" stroke="#bfbfbf" points="45.4989,-457.5 88.4989,-457.5 "/>
<text text-anchor="middle" x="66.9989" y="-445.5" font-family="Helvetica,sans-Serif" font-size="10.00"> </text>
</g>
<!-- Node2&#45;&gt;Node1 -->
<g id="edge1" class="edge"><title>Node2&#45;&gt;Node1</title>
<path fill="none" stroke="#404040" d="M48.7354,-438.171C23.7227,-396.437 -15.6483,-315.345 6.9989,-248 28.3951,-184.375 79.4685,-126.403 119.726,-88.1"/>
<polygon fill="none" stroke="#404040" points="119.89,-87.9468 121.542,-80.9275 128.657,-79.7529 127.005,-86.7722 119.89,-87.9468"/>
<text text-anchor="middle" x="44.9989" y="-251.5" font-family="Helvetica,sans-Serif" font-size="10.00"> +Operation_type</text>
</g>
<!-- Node8 -->
<g id="node8" class="node"><title>Node8</title>
<g id="a_node8"><a xlink:href="structvisioncpp_1_1internal_1_1ConstNeighbour.html" target="_top" xlink:title="{visioncpp::internal\l::ConstNeighbour\&lt; InTp2 \&gt;\n||+ ConstNeighbour()\l+ at()\l+ at()\l}">
<polygon fill="none" stroke="black" points="106.999,-134 106.999,-224 242.999,-224 242.999,-134 106.999,-134"/>
<text text-anchor="start" x="114.999" y="-212" font-family="Helvetica,sans-Serif" font-size="10.00">visioncpp::internal</text>
<text text-anchor="middle" x="174.999" y="-201" font-family="Helvetica,sans-Serif" font-size="10.00">::ConstNeighbour&lt; InTp2 &gt;</text>
<polyline fill="none" stroke="black" points="106.999,-194 242.999,-194 "/>
<text text-anchor="middle" x="174.999" y="-182" font-family="Helvetica,sans-Serif" font-size="10.00"> </text>
<polyline fill="none" stroke="black" points="106.999,-175 242.999,-175 "/>
<text text-anchor="start" x="114.999" y="-163" font-family="Helvetica,sans-Serif" font-size="10.00">+ ConstNeighbour()</text>
<text text-anchor="start" x="114.999" y="-152" font-family="Helvetica,sans-Serif" font-size="10.00">+ at()</text>
<text text-anchor="start" x="114.999" y="-141" font-family="Helvetica,sans-Serif" font-size="10.00">+ at()</text>
</a>
</g>
</g>
<!-- Node2&#45;&gt;Node8 -->
<g id="edge9" class="edge"><title>Node2&#45;&gt;Node8</title>
<path fill="none" stroke="#404040" d="M62.3163,-438.433C57.1685,-400.478 52.4599,-330.83 75.9989,-278 83.4271,-261.328 95.0794,-245.969 107.82,-232.598"/>
<polygon fill="none" stroke="#404040" points="107.829,-232.589 109.244,-225.518 116.316,-224.104 114.901,-231.175 107.829,-232.589"/>
<text text-anchor="middle" x="91.4989" y="-332" font-family="Helvetica,sans-Serif" font-size="10.00"> +rows</text>
<text text-anchor="middle" x="91.4989" y="-321" font-family="Helvetica,sans-Serif" font-size="10.00">+cols</text>
</g>
<!-- Node10 -->
<g id="node10" class="node"><title>Node10</title>
<g id="a_node10"><a xlink:href="structvisioncpp_1_1internal_1_1ConstNeighbour.html" target="_top" xlink:title="ConstNeighbour is used to provide global access to the constant memory. ">
<polygon fill="none" stroke="black" points="116.499,-284 116.499,-374 233.499,-374 233.499,-284 116.499,-284"/>
<text text-anchor="start" x="124.499" y="-362" font-family="Helvetica,sans-Serif" font-size="10.00">visioncpp::internal</text>
<text text-anchor="middle" x="174.999" y="-351" font-family="Helvetica,sans-Serif" font-size="10.00">::ConstNeighbour&lt; T &gt;</text>
<polyline fill="none" stroke="black" points="116.499,-344 233.499,-344 "/>
<text text-anchor="middle" x="174.999" y="-332" font-family="Helvetica,sans-Serif" font-size="10.00"> </text>
<polyline fill="none" stroke="black" points="116.499,-325 233.499,-325 "/>
<text text-anchor="start" x="124.499" y="-313" font-family="Helvetica,sans-Serif" font-size="10.00">+ ConstNeighbour()</text>
<text text-anchor="start" x="124.499" y="-302" font-family="Helvetica,sans-Serif" font-size="10.00">+ at()</text>
<text text-anchor="start" x="124.499" y="-291" font-family="Helvetica,sans-Serif" font-size="10.00">+ at()</text>
</a>
</g>
</g>
<!-- Node2&#45;&gt;Node10 -->
<g id="edge12" class="edge"><title>Node2&#45;&gt;Node10</title>
<path fill="none" stroke="#404040" d="M88.5947,-438.805C101.18,-422.957 117.493,-402.415 132.549,-383.456"/>
<polygon fill="none" stroke="#404040" points="132.585,-383.41 133.184,-376.223 140.048,-374.012 139.449,-381.198 132.585,-383.41"/>
<text text-anchor="middle" x="136.499" y="-412" font-family="Helvetica,sans-Serif" font-size="10.00"> +rows</text>
<text text-anchor="middle" x="136.499" y="-401" font-family="Helvetica,sans-Serif" font-size="10.00">+cols</text>
</g>
<!-- Node3 -->
<g id="node3" class="node"><title>Node3</title>
<g id="a_node3"><a xlink:href="structvisioncpp_1_1internal_1_1LocalNeighbour.html" target="_top" xlink:title="{visioncpp::internal\l::LocalNeighbour\&lt; InTp1 \&gt;\n||+ LocalNeighbour()\l+ set_offset()\l+ at()\l+ at()\l}">
<polygon fill="none" stroke="black" points="423.499,-128.5 423.499,-229.5 556.499,-229.5 556.499,-128.5 423.499,-128.5"/>
<text text-anchor="start" x="431.499" y="-217.5" font-family="Helvetica,sans-Serif" font-size="10.00">visioncpp::internal</text>
<text text-anchor="middle" x="489.999" y="-206.5" font-family="Helvetica,sans-Serif" font-size="10.00">::LocalNeighbour&lt; InTp1 &gt;</text>
<polyline fill="none" stroke="black" points="423.499,-199.5 556.499,-199.5 "/>
<text text-anchor="middle" x="489.999" y="-187.5" font-family="Helvetica,sans-Serif" font-size="10.00"> </text>
<polyline fill="none" stroke="black" points="423.499,-180.5 556.499,-180.5 "/>
<text text-anchor="start" x="431.499" y="-168.5" font-family="Helvetica,sans-Serif" font-size="10.00">+ LocalNeighbour()</text>
<text text-anchor="start" x="431.499" y="-157.5" font-family="Helvetica,sans-Serif" font-size="10.00">+ set_offset()</text>
<text text-anchor="start" x="431.499" y="-146.5" font-family="Helvetica,sans-Serif" font-size="10.00">+ at()</text>
<text text-anchor="start" x="431.499" y="-135.5" font-family="Helvetica,sans-Serif" font-size="10.00">+ at()</text>
</a>
</g>
</g>
<!-- Node3&#45;&gt;Node1 -->
<g id="edge2" class="edge"><title>Node3&#45;&gt;Node1</title>
<path fill="none" stroke="#404040" d="M423.196,-148.946C373.561,-127.359 305.698,-97.8438 253.477,-75.1319"/>
<polygon fill="none" stroke="#404040" points="253.253,-75.0342 246.155,-76.3093 242.248,-70.2481 249.346,-68.9731 253.253,-75.0342"/>
<text text-anchor="middle" x="340.499" y="-101.5" font-family="Helvetica,sans-Serif" font-size="10.00"> +x</text>
</g>
<!-- Node4 -->
<g id="node4" class="node"><title>Node4</title>
<polygon fill="none" stroke="#bfbfbf" points="392.999,-300.5 392.999,-357.5 498.999,-357.5 498.999,-300.5 392.999,-300.5"/>
<text text-anchor="middle" x="445.999" y="-345.5" font-family="Helvetica,sans-Serif" font-size="10.00">local_ptr&lt; InTp1 &gt; &amp;</text>
<polyline fill="none" stroke="#bfbfbf" points="392.999,-338.5 498.999,-338.5 "/>
<text text-anchor="middle" x="445.999" y="-326.5" font-family="Helvetica,sans-Serif" font-size="10.00"> </text>
<polyline fill="none" stroke="#bfbfbf" points="392.999,-319.5 498.999,-319.5 "/>
<text text-anchor="middle" x="445.999" y="-307.5" font-family="Helvetica,sans-Serif" font-size="10.00"> </text>
</g>
<!-- Node4&#45;&gt;Node3 -->
<g id="edge3" class="edge"><title>Node4&#45;&gt;Node3</title>
<path fill="none" stroke="#404040" d="M454.275,-300.162C459.23,-283.496 465.731,-261.627 471.828,-241.12"/>
<polygon fill="none" stroke="#404040" points="471.838,-241.085 469.714,-234.194 475.258,-229.583 477.382,-236.474 471.838,-241.085"/>
<text text-anchor="middle" x="480.499" y="-251.5" font-family="Helvetica,sans-Serif" font-size="10.00"> +ptr</text>
</g>
<!-- Node5 -->
<g id="node5" class="node"><title>Node5</title>
<polygon fill="none" stroke="#bfbfbf" points="531.499,-438.5 531.499,-495.5 560.499,-495.5 560.499,-438.5 531.499,-438.5"/>
<text text-anchor="middle" x="545.999" y="-483.5" font-family="Helvetica,sans-Serif" font-size="10.00">int</text>
<polyline fill="none" stroke="#bfbfbf" points="531.499,-476.5 560.499,-476.5 "/>
<text text-anchor="middle" x="545.999" y="-464.5" font-family="Helvetica,sans-Serif" font-size="10.00"> </text>
<polyline fill="none" stroke="#bfbfbf" points="531.499,-457.5 560.499,-457.5 "/>
<text text-anchor="middle" x="545.999" y="-445.5" font-family="Helvetica,sans-Serif" font-size="10.00"> </text>
</g>
<!-- Node5&#45;&gt;Node3 -->
<g id="edge4" class="edge"><title>Node5&#45;&gt;Node3</title>
<path fill="none" stroke="#404040" d="M540.579,-438.317C531.726,-393.107 513.958,-302.363 502.018,-241.385"/>
<polygon fill="none" stroke="#404040" points="502.018,-241.385 496.94,-236.265 499.712,-229.608 504.791,-234.728 502.018,-241.385"/>
<text text-anchor="middle" x="540.499" y="-332" font-family="Helvetica,sans-Serif" font-size="10.00"> +I_c</text>
<text text-anchor="middle" x="540.499" y="-321" font-family="Helvetica,sans-Serif" font-size="10.00">+I_r</text>
</g>
<!-- Node6 -->
<g id="node6" class="node"><title>Node6</title>
<g id="a_node6"><a xlink:href="structvisioncpp_1_1internal_1_1LocalNeighbour.html" target="_top" xlink:title="LocalNeighbour is used to provide local access for each element of the local memory based on the Coor...">
<polygon fill="none" stroke="black" points="575.999,-278.5 575.999,-379.5 689.999,-379.5 689.999,-278.5 575.999,-278.5"/>
<text text-anchor="start" x="583.999" y="-367.5" font-family="Helvetica,sans-Serif" font-size="10.00">visioncpp::internal</text>
<text text-anchor="middle" x="632.999" y="-356.5" font-family="Helvetica,sans-Serif" font-size="10.00">::LocalNeighbour&lt; T &gt;</text>
<polyline fill="none" stroke="black" points="575.999,-349.5 689.999,-349.5 "/>
<text text-anchor="middle" x="632.999" y="-337.5" font-family="Helvetica,sans-Serif" font-size="10.00"> </text>
<polyline fill="none" stroke="black" points="575.999,-330.5 689.999,-330.5 "/>
<text text-anchor="start" x="583.999" y="-318.5" font-family="Helvetica,sans-Serif" font-size="10.00">+ LocalNeighbour()</text>
<text text-anchor="start" x="583.999" y="-307.5" font-family="Helvetica,sans-Serif" font-size="10.00">+ set_offset()</text>
<text text-anchor="start" x="583.999" y="-296.5" font-family="Helvetica,sans-Serif" font-size="10.00">+ at()</text>
<text text-anchor="start" x="583.999" y="-285.5" font-family="Helvetica,sans-Serif" font-size="10.00">+ at()</text>
</a>
</g>
</g>
<!-- Node5&#45;&gt;Node6 -->
<g id="edge7" class="edge"><title>Node5&#45;&gt;Node6</title>
<path fill="none" stroke="#404040" d="M560.561,-443.237C569.907,-428.626 582.516,-408.916 594.593,-390.037"/>
<polygon fill="none" stroke="#404040" points="594.757,-389.78 594.621,-382.57 601.224,-379.671 601.36,-386.881 594.757,-389.78"/>
<text text-anchor="middle" x="601.499" y="-412" font-family="Helvetica,sans-Serif" font-size="10.00"> +I_c</text>
<text text-anchor="middle" x="601.499" y="-401" font-family="Helvetica,sans-Serif" font-size="10.00">+I_r</text>
</g>
<!-- Node6&#45;&gt;Node3 -->
<g id="edge5" class="edge"><title>Node6&#45;&gt;Node3</title>
<path fill="none" stroke="orange" d="M577.768,-270.838C564.613,-257.223 550.682,-242.804 537.887,-229.562"/>
<polygon fill="orange" stroke="orange" points="575.519,-273.547 584.984,-278.306 580.553,-268.683 575.519,-273.547"/>
<text text-anchor="middle" x="588.999" y="-251.5" font-family="Helvetica,sans-Serif" font-size="10.00"> &lt; InTp1 &gt;</text>
</g>
<!-- Node7 -->
<g id="node7" class="node"><title>Node7</title>
<polygon fill="none" stroke="#bfbfbf" points="589.499,-438.5 589.499,-495.5 676.499,-495.5 676.499,-438.5 589.499,-438.5"/>
<text text-anchor="middle" x="632.999" y="-483.5" font-family="Helvetica,sans-Serif" font-size="10.00">local_ptr&lt; T &gt; &amp;</text>
<polyline fill="none" stroke="#bfbfbf" points="589.499,-476.5 676.499,-476.5 "/>
<text text-anchor="middle" x="632.999" y="-464.5" font-family="Helvetica,sans-Serif" font-size="10.00"> </text>
<polyline fill="none" stroke="#bfbfbf" points="589.499,-457.5 676.499,-457.5 "/>
<text text-anchor="middle" x="632.999" y="-445.5" font-family="Helvetica,sans-Serif" font-size="10.00"> </text>
</g>
<!-- Node7&#45;&gt;Node6 -->
<g id="edge6" class="edge"><title>Node7&#45;&gt;Node6</title>
<path fill="none" stroke="#404040" d="M632.999,-438.478C632.999,-425.057 632.999,-408.327 632.999,-392.055"/>
<polygon fill="none" stroke="#404040" points="632.999,-391.764 628.999,-385.764 632.999,-379.764 636.999,-385.764 632.999,-391.764"/>
<text text-anchor="middle" x="643.499" y="-406.5" font-family="Helvetica,sans-Serif" font-size="10.00"> +ptr</text>
</g>
<!-- Node8&#45;&gt;Node1 -->
<g id="edge8" class="edge"><title>Node8&#45;&gt;Node1</title>
<path fill="none" stroke="#404040" d="M174.999,-133.898C174.999,-120.603 174.999,-105.897 174.999,-92.1826"/>
<polygon fill="none" stroke="#404040" points="174.999,-91.9351 170.999,-85.9352 174.999,-79.9351 178.999,-85.9351 174.999,-91.9351"/>
<text text-anchor="middle" x="182.499" y="-101.5" font-family="Helvetica,sans-Serif" font-size="10.00"> +y</text>
</g>
<!-- Node9 -->
<g id="node9" class="node"><title>Node9</title>
<polygon fill="none" stroke="#bfbfbf" points="251.499,-300.5 251.499,-357.5 374.499,-357.5 374.499,-300.5 251.499,-300.5"/>
<text text-anchor="middle" x="312.999" y="-345.5" font-family="Helvetica,sans-Serif" font-size="10.00">constant_ptr&lt; InTp2 &gt; &amp;</text>
<polyline fill="none" stroke="#bfbfbf" points="251.499,-338.5 374.499,-338.5 "/>
<text text-anchor="middle" x="312.999" y="-326.5" font-family="Helvetica,sans-Serif" font-size="10.00"> </text>
<polyline fill="none" stroke="#bfbfbf" points="251.499,-319.5 374.499,-319.5 "/>
<text text-anchor="middle" x="312.999" y="-307.5" font-family="Helvetica,sans-Serif" font-size="10.00"> </text>
</g>
<!-- Node9&#45;&gt;Node8 -->
<g id="edge10" class="edge"><title>Node9&#45;&gt;Node8</title>
<path fill="none" stroke="#404040" d="M287.042,-300.162C269.397,-281.238 245.499,-255.608 224.306,-232.88"/>
<polygon fill="none" stroke="#404040" points="224.213,-232.781 217.196,-231.12 216.03,-224.004 223.047,-225.665 224.213,-232.781"/>
<text text-anchor="middle" x="259.499" y="-251.5" font-family="Helvetica,sans-Serif" font-size="10.00"> +ptr</text>
</g>
<!-- Node10&#45;&gt;Node8 -->
<g id="edge11" class="edge"><title>Node10&#45;&gt;Node8</title>
<path fill="none" stroke="orange" d="M174.999,-273.995C174.999,-257.588 174.999,-239.763 174.999,-224.09"/>
<polygon fill="orange" stroke="orange" points="171.499,-273.996 174.999,-283.996 178.499,-273.996 171.499,-273.996"/>
<text text-anchor="middle" x="197.999" y="-251.5" font-family="Helvetica,sans-Serif" font-size="10.00"> &lt; InTp2 &gt;</text>
</g>
<!-- Node11 -->
<g id="node11" class="node"><title>Node11</title>
<polygon fill="none" stroke="#bfbfbf" points="122.999,-438.5 122.999,-495.5 226.999,-495.5 226.999,-438.5 122.999,-438.5"/>
<text text-anchor="middle" x="174.999" y="-483.5" font-family="Helvetica,sans-Serif" font-size="10.00">constant_ptr&lt; T &gt; &amp;</text>
<polyline fill="none" stroke="#bfbfbf" points="122.999,-476.5 226.999,-476.5 "/>
<text text-anchor="middle" x="174.999" y="-464.5" font-family="Helvetica,sans-Serif" font-size="10.00"> </text>
<polyline fill="none" stroke="#bfbfbf" points="122.999,-457.5 226.999,-457.5 "/>
<text text-anchor="middle" x="174.999" y="-445.5" font-family="Helvetica,sans-Serif" font-size="10.00"> </text>
</g>
<!-- Node11&#45;&gt;Node10 -->
<g id="edge13" class="edge"><title>Node11&#45;&gt;Node10</title>
<path fill="none" stroke="#404040" d="M174.999,-438.478C174.999,-423.469 174.999,-404.324 174.999,-386.307"/>
<polygon fill="none" stroke="#404040" points="174.999,-386.079 170.999,-380.079 174.999,-374.079 178.999,-380.079 174.999,-386.079"/>
<text text-anchor="middle" x="185.499" y="-406.5" font-family="Helvetica,sans-Serif" font-size="10.00"> +ptr</text>
</g>
</g>
</svg>
