<?xml version="1.0" encoding="UTF-8" standalone="no"?>
<!DOCTYPE svg PUBLIC "-//W3C//DTD SVG 1.1//EN"
 "http://www.w3.org/Graphics/SVG/1.1/DTD/svg11.dtd">
<!-- Generated by graphviz version 2.36.0 (20140111.2315)
 -->
<!-- Title: visioncpp::internal::RBiOP&lt; BI_OP, LHS, RHS, Cols, Rows, LfType, LVL &gt; Pages: 1 -->
<svg width="347pt" height="282pt"
 viewBox="0.00 0.00 347.00 282.00" xmlns="http://www.w3.org/2000/svg" xmlns:xlink="http://www.w3.org/1999/xlink">
<g id="graph0" class="graph" transform="scale(1 1) rotate(0) translate(4 278)">
<title>visioncpp::internal::RBiOP&lt; BI_OP, LHS, RHS, Cols, Rows, LfType, LVL &gt;</title>
<!-- Node1 -->
<g id="node1" class="node"><title>Node1</title>
<polygon fill="#bfbfbf" stroke="black" points="50.5,-1 50.5,-113 199.5,-113 199.5,-1 50.5,-1"/>
<text text-anchor="start" x="58.5" y="-101" font-family="Helvetica,sans-Serif" font-size="10.00">visioncpp::internal</text>
<text text-anchor="start" x="58.5" y="-90" font-family="Helvetica,sans-Serif" font-size="10.00">::RBiOP&lt; BI_OP, LHS,</text>
<text text-anchor="start" x="58.5" y="-79" font-family="Helvetica,sans-Serif" font-size="10.00"> RHS, Cols, Rows, LfType,</text>
<text text-anchor="middle" x="125" y="-68" font-family="Helvetica,sans-Serif" font-size="10.00"> LVL &gt;</text>
<polyline fill="none" stroke="black" points="50.5,-61 199.5,-61 "/>
<text text-anchor="middle" x="125" y="-49" font-family="Helvetica,sans-Serif" font-size="10.00"> </text>
<polyline fill="none" stroke="black" points="50.5,-42 199.5,-42 "/>
<text text-anchor="start" x="58.5" y="-30" font-family="Helvetica,sans-Serif" font-size="10.00">+ RBiOP()</text>
<text text-anchor="start" x="58.5" y="-19" font-family="Helvetica,sans-Serif" font-size="10.00">+ reset()</text>
<text text-anchor="start" x="58.5" y="-8" font-family="Helvetica,sans-Serif" font-size="10.00">+ sub_expression_evaluation()</text>
</g>
<!-- Node2 -->
<g id="node2" class="node"><title>Node2</title>
<polygon fill="none" stroke="#bfbfbf" points="0,-216.5 0,-273.5 36,-273.5 36,-216.5 0,-216.5"/>
<text text-anchor="middle" x="18" y="-261.5" font-family="Helvetica,sans-Serif" font-size="10.00">LHS</text>
<polyline fill="none" stroke="#bfbfbf" points="0,-254.5 36,-254.5 "/>
<text text-anchor="middle" x="18" y="-242.5" font-family="Helvetica,sans-Serif" font-size="10.00"> </text>
<polyline fill="none" stroke="#bfbfbf" points="0,-235.5 36,-235.5 "/>
<text text-anchor="middle" x="18" y="-223.5" font-family="Helvetica,sans-Serif" font-size="10.00"> </text>
</g>
<!-- Node2&#45;&gt;Node1 -->
<g id="edge1" class="edge"><title>Node2&#45;&gt;Node1</title>
<path fill="none" stroke="#404040" d="M20.1889,-216.079C23.072,-192.337 29.7201,-158.052 45,-132 46.8545,-128.838 48.8866,-125.731 51.0587,-122.688"/>
<polygon fill="none" stroke="#404040" points="51.0651,-122.68 51.5866,-115.488 58.4262,-113.203 57.9047,-120.395 51.0651,-122.68"/>
<text text-anchor="middle" x="56" y="-162.5" font-family="Helvetica,sans-Serif" font-size="10.00"> +lhs</text>
</g>
<!-- Node3 -->
<g id="node3" class="node"><title>Node3</title>
<polygon fill="none" stroke="#bfbfbf" points="54.5,-216.5 54.5,-273.5 97.5,-273.5 97.5,-216.5 54.5,-216.5"/>
<text text-anchor="middle" x="76" y="-261.5" font-family="Helvetica,sans-Serif" font-size="10.00">size_t</text>
<polyline fill="none" stroke="#bfbfbf" points="54.5,-254.5 97.5,-254.5 "/>
<text text-anchor="middle" x="76" y="-242.5" font-family="Helvetica,sans-Serif" font-size="10.00"> </text>
<polyline fill="none" stroke="#bfbfbf" points="54.5,-235.5 97.5,-235.5 "/>
<text text-anchor="middle" x="76" y="-223.5" font-family="Helvetica,sans-Serif" font-size="10.00"> </text>
</g>
<!-- Node3&#45;&gt;Node1 -->
<g id="edge2" class="edge"><title>Node3&#45;&gt;Node1</title>
<path fill="none" stroke="#404040" d="M72.0043,-216.199C69.685,-193.135 68.6546,-159.745 77,-132 77.7705,-129.438 78.6594,-126.882 79.6468,-124.341"/>
<polygon fill="none" stroke="#404040" points="79.6635,-124.304 78.4513,-117.195 84.5468,-113.342 85.759,-120.451 79.6635,-124.304"/>
<text text-anchor="middle" x="115" y="-190" font-family="Helvetica,sans-Serif" font-size="10.00"> +Operation_type</text>
<text text-anchor="middle" x="115" y="-179" font-family="Helvetica,sans-Serif" font-size="10.00">+Level</text>
<text text-anchor="middle" x="115" y="-168" font-family="Helvetica,sans-Serif" font-size="10.00">+LeafType</text>
<text text-anchor="middle" x="115" y="-157" font-family="Helvetica,sans-Serif" font-size="10.00">+RThread</text>
<text text-anchor="middle" x="115" y="-146" font-family="Helvetica,sans-Serif" font-size="10.00">+CThread</text>
<text text-anchor="middle" x="115" y="-135" font-family="Helvetica,sans-Serif" font-size="10.00">+ND_Category</text>
</g>
<!-- Node4 -->
<g id="node4" class="node"><title>Node4</title>
<polygon fill="none" stroke="#bfbfbf" points="156,-216.5 156,-273.5 194,-273.5 194,-216.5 156,-216.5"/>
<text text-anchor="middle" x="175" y="-261.5" font-family="Helvetica,sans-Serif" font-size="10.00">RHS</text>
<polyline fill="none" stroke="#bfbfbf" points="156,-254.5 194,-254.5 "/>
<text text-anchor="middle" x="175" y="-242.5" font-family="Helvetica,sans-Serif" font-size="10.00"> </text>
<polyline fill="none" stroke="#bfbfbf" points="156,-235.5 194,-235.5 "/>
<text text-anchor="middle" x="175" y="-223.5" font-family="Helvetica,sans-Serif" font-size="10.00"> </text>
</g>
<!-- Node4&#45;&gt;Node1 -->
<g id="edge3" class="edge"><title>Node4&#45;&gt;Node1</title>
<path fill="none" stroke="#404040" d="M170.852,-216.077C167.14,-193.23 161.044,-160.203 153,-132 152.308,-129.575 151.572,-127.117 150.8,-124.643"/>
<polygon fill="none" stroke="#404040" points="150.726,-124.417 145.051,-119.969 146.974,-113.019 152.65,-117.468 150.726,-124.417"/>
<text text-anchor="middle" x="179.5" y="-162.5" font-family="Helvetica,sans-Serif" font-size="10.00"> +rhs</text>
</g>
<!-- Node5 -->
<g id="node5" class="node"><title>Node5</title>
<polygon fill="none" stroke="#bfbfbf" points="212.5,-216.5 212.5,-273.5 247.5,-273.5 247.5,-216.5 212.5,-216.5"/>
<text text-anchor="middle" x="230" y="-261.5" font-family="Helvetica,sans-Serif" font-size="10.00">bool</text>
<polyline fill="none" stroke="#bfbfbf" points="212.5,-254.5 247.5,-254.5 "/>
<text text-anchor="middle" x="230" y="-242.5" font-family="Helvetica,sans-Serif" font-size="10.00"> </text>
<polyline fill="none" stroke="#bfbfbf" points="212.5,-235.5 247.5,-235.5 "/>
<text text-anchor="middle" x="230" y="-223.5" font-family="Helvetica,sans-Serif" font-size="10.00"> </text>
</g>
<!-- Node5&#45;&gt;Node1 -->
<g id="edge4" class="edge"><title>Node5&#45;&gt;Node1</title>
<path fill="none" stroke="#404040" d="M225.018,-216.324C219.939,-192.735 210.558,-158.537 195,-132 193.239,-128.996 191.335,-126.017 189.32,-123.076"/>
<polygon fill="none" stroke="#404040" points="189.2,-122.913 182.423,-120.449 182.091,-113.246 188.868,-115.709 189.2,-122.913"/>
<text text-anchor="middle" x="280" y="-190" font-family="Helvetica,sans-Serif" font-size="10.00"> +has_out</text>
<text text-anchor="start" x="221" y="-179" font-family="Helvetica,sans-Serif" font-size="10.00">+SubExpressionEvaluation</text>
<text text-anchor="middle" x="280" y="-168" font-family="Helvetica,sans-Serif" font-size="10.00">Needed</text>
<text text-anchor="start" x="221" y="-157" font-family="Helvetica,sans-Serif" font-size="10.00">+subexpr_execution</text>
<text text-anchor="middle" x="280" y="-146" font-family="Helvetica,sans-Serif" font-size="10.00">_reseter</text>
<text text-anchor="middle" x="280" y="-135" font-family="Helvetica,sans-Serif" font-size="10.00">+Binary_Conds</text>
</g>
</g>
</svg>
