<?xml version="1.0" encoding="UTF-8" standalone="no"?>
<!DOCTYPE svg PUBLIC "-//W3C//DTD SVG 1.1//EN"
 "http://www.w3.org/Graphics/SVG/1.1/DTD/svg11.dtd">
<!-- Generated by graphviz version 2.43.0 (0)
 -->
<!-- Title: visioncpp::internal::EvalExpr&lt; StnNoFilt&lt; C_OP, Halo_T, Halo_L, Halo_B, Halo_R, RHS, Cols, Rows, LfType, LVL &gt;, Loc, Params... &gt;::eval_neighbour Pages: 1 -->
<svg width="451pt" height="94pt"
 viewBox="0.00 0.00 451.00 93.50" xmlns="http://www.w3.org/2000/svg" xmlns:xlink="http://www.w3.org/1999/xlink">
<g id="graph0" class="graph" transform="scale(1 1) rotate(0) translate(4 89.5)">
<title>visioncpp::internal::EvalExpr&lt; StnNoFilt&lt; C_OP, Halo_T, Halo_L, Halo_B, Halo_R, RHS, Cols, Rows, LfType, LVL &gt;, Loc, Params... &gt;::eval_neighbour</title>
<!-- Node1 -->
<g id="node1" class="node">
<title>Node1</title>
<g id="a_node1"><a xlink:title="evaluate function when the internal::ops_category is NeighbourOP.">
<polygon fill="#bfbfbf" stroke="black" points="0,-8 0,-82 157,-82 157,-8 0,-8"/>
<text text-anchor="start" x="8" y="-70" font-family="Helvetica,sans-Serif" font-size="10.00">visioncpp::internal</text>
<text text-anchor="start" x="8" y="-59" font-family="Helvetica,sans-Serif" font-size="10.00">::EvalExpr&lt; StnNoFilt</text>
<text text-anchor="start" x="8" y="-48" font-family="Helvetica,sans-Serif" font-size="10.00">&lt; C_OP, Halo_T, Halo_L,</text>
<text text-anchor="start" x="8" y="-37" font-family="Helvetica,sans-Serif" font-size="10.00"> Halo_B, Halo_R, RHS, Cols,</text>
<text text-anchor="start" x="8" y="-26" font-family="Helvetica,sans-Serif" font-size="10.00"> Rows, LfType, LVL &gt;, Loc,</text>
<text text-anchor="middle" x="78.5" y="-15" font-family="Helvetica,sans-Serif" font-size="10.00"> Params... &gt;::eval_neighbour</text>
</a>
</g>
</g>
<!-- Node2 -->
<g id="node2" class="node">
<title>Node2</title>
<g id="a_node2"><a xlink:href="namespacevisioncpp_1_1internal.html#a432878bd5a7c47c218a371ecf9eefe6a" target="_top" xlink:title="function calculate_index">
<polygon fill="none" stroke="black" points="193,-55 193,-85 300,-85 300,-55 193,-55"/>
<text text-anchor="start" x="201" y="-73" font-family="Helvetica,sans-Serif" font-size="10.00">visioncpp::internal</text>
<text text-anchor="middle" x="246.5" y="-62" font-family="Helvetica,sans-Serif" font-size="10.00">::calculate_index</text>
</a>
</g>
</g>
<!-- Node1&#45;&gt;Node2 -->
<g id="edge1" class="edge">
<title>Node1&#45;&gt;Node2</title>
<path fill="none" stroke="midnightblue" d="M157.15,-56.69C165.67,-57.98 174.27,-59.27 182.57,-60.52"/>
<polygon fill="midnightblue" stroke="midnightblue" points="182.13,-64 192.54,-62.02 183.18,-57.07 182.13,-64"/>
</g>
<!-- Node3 -->
<g id="node3" class="node">
<title>Node3</title>
<g id="a_node3"><a xlink:href="namespacevisioncpp_1_1internal_1_1tools.html#ad0890ca41e9275137b7a578b24136dbe" target="_top" xlink:title="function convert">
<polygon fill="none" stroke="black" points="193,-6 193,-36 300,-36 300,-6 193,-6"/>
<text text-anchor="start" x="201" y="-24" font-family="Helvetica,sans-Serif" font-size="10.00">visioncpp::internal</text>
<text text-anchor="middle" x="246.5" y="-13" font-family="Helvetica,sans-Serif" font-size="10.00">::tools::convert</text>
</a>
</g>
</g>
<!-- Node1&#45;&gt;Node3 -->
<g id="edge2" class="edge">
<title>Node1&#45;&gt;Node3</title>
<path fill="none" stroke="midnightblue" d="M157.15,-33.77C165.67,-32.54 174.27,-31.3 182.57,-30.1"/>
<polygon fill="midnightblue" stroke="midnightblue" points="183.15,-33.55 192.54,-28.66 182.15,-26.62 183.15,-33.55"/>
</g>
<!-- Node4 -->
<g id="node4" class="node">
<title>Node4</title>
<g id="a_node4"><a xlink:href="structvisioncpp_1_1internal_1_1tools_1_1Convertor.html#a50519510c30e56ead8657c8a06d8c9d4" target="_top" xlink:title="function convert">
<polygon fill="none" stroke="black" points="336,-0.5 336,-41.5 443,-41.5 443,-0.5 336,-0.5"/>
<text text-anchor="start" x="344" y="-29.5" font-family="Helvetica,sans-Serif" font-size="10.00">visioncpp::internal</text>
<text text-anchor="start" x="344" y="-18.5" font-family="Helvetica,sans-Serif" font-size="10.00">::tools::Convertor::</text>
<text text-anchor="middle" x="389.5" y="-7.5" font-family="Helvetica,sans-Serif" font-size="10.00">convert</text>
</a>
</g>
</g>
<!-- Node3&#45;&gt;Node4 -->
<g id="edge3" class="edge">
<title>Node3&#45;&gt;Node4</title>
<path fill="none" stroke="midnightblue" d="M300,-21C308.44,-21 317.26,-21 325.9,-21"/>
<polygon fill="midnightblue" stroke="midnightblue" points="325.95,-24.5 335.95,-21 325.95,-17.5 325.95,-24.5"/>
</g>
</g>
</svg>
