<?xml version="1.0" encoding="UTF-8" standalone="no"?>
<!DOCTYPE svg PUBLIC "-//W3C//DTD SVG 1.1//EN"
 "http://www.w3.org/Graphics/SVG/1.1/DTD/svg11.dtd">
<!-- Generated by graphviz version 2.36.0 (20140111.2315)
 -->
<!-- Title: visioncpp::internal::EvalExpr&lt; Assign&lt; LHS, RHS, Cols, Rows, LfType, LVL &gt;, Loc, Params...&gt;::eval_neighbour Pages: 1 -->
<svg width="432pt" height="136pt"
 viewBox="0.00 0.00 432.00 136.00" xmlns="http://www.w3.org/2000/svg" xmlns:xlink="http://www.w3.org/1999/xlink">
<g id="graph0" class="graph" transform="scale(1 1) rotate(0) translate(4 132)">
<title>visioncpp::internal::EvalExpr&lt; Assign&lt; LHS, RHS, Cols, Rows, LfType, LVL &gt;, Loc, Params...&gt;::eval_neighbour</title>
<!-- Node1 -->
<g id="node1" class="node"><title>Node1</title>
<polygon fill="#bfbfbf" stroke="black" points="0,-32.5 0,-95.5 158,-95.5 158,-32.5 0,-32.5"/>
<text text-anchor="start" x="8" y="-83.5" font-family="Helvetica,sans-Serif" font-size="10.00">visioncpp::internal</text>
<text text-anchor="start" x="8" y="-72.5" font-family="Helvetica,sans-Serif" font-size="10.00">::EvalExpr&lt; Assign&lt;</text>
<text text-anchor="start" x="8" y="-61.5" font-family="Helvetica,sans-Serif" font-size="10.00"> LHS, RHS, Cols, Rows,</text>
<text text-anchor="start" x="8" y="-50.5" font-family="Helvetica,sans-Serif" font-size="10.00"> LfType, LVL &gt;, Loc, Params...&gt;</text>
<text text-anchor="middle" x="79" y="-39.5" font-family="Helvetica,sans-Serif" font-size="10.00">::eval_neighbour</text>
</g>
<!-- Node2 -->
<g id="node2" class="node"><title>Node2</title>
<g id="a_node2"><a xlink:href="namespacevisioncpp_1_1internal.html#a432878bd5a7c47c218a371ecf9eefe6a" target="_top" xlink:title="function calculate_index ">
<polygon fill="none" stroke="black" points="194.5,-98 194.5,-128 289.5,-128 289.5,-98 194.5,-98"/>
<text text-anchor="start" x="202.5" y="-116" font-family="Helvetica,sans-Serif" font-size="10.00">visioncpp::internal</text>
<text text-anchor="middle" x="242" y="-105" font-family="Helvetica,sans-Serif" font-size="10.00">::calculate_index</text>
</a>
</g>
</g>
<!-- Node1&#45;&gt;Node2 -->
<g id="edge1" class="edge"><title>Node1&#45;&gt;Node2</title>
<path fill="none" stroke="midnightblue" d="M158.142,-87.7823C167.01,-90.4813 175.916,-93.1919 184.43,-95.783"/>
<polygon fill="midnightblue" stroke="midnightblue" points="183.632,-99.1985 194.218,-98.7619 185.67,-92.5018 183.632,-99.1985"/>
</g>
<!-- Node3 -->
<g id="node3" class="node"><title>Node3</title>
<g id="a_node3"><a xlink:href="namespacevisioncpp_1_1internal_1_1tools.html#ad0890ca41e9275137b7a578b24136dbe" target="_top" xlink:title="function convert ">
<polygon fill="none" stroke="black" points="194.5,-49 194.5,-79 289.5,-79 289.5,-49 194.5,-49"/>
<text text-anchor="start" x="202.5" y="-67" font-family="Helvetica,sans-Serif" font-size="10.00">visioncpp::internal</text>
<text text-anchor="middle" x="242" y="-56" font-family="Helvetica,sans-Serif" font-size="10.00">::tools::convert</text>
</a>
</g>
</g>
<!-- Node1&#45;&gt;Node3 -->
<g id="edge2" class="edge"><title>Node1&#45;&gt;Node3</title>
<path fill="none" stroke="midnightblue" d="M158.142,-64C166.914,-64 175.723,-64 184.152,-64"/>
<polygon fill="midnightblue" stroke="midnightblue" points="184.218,-67.5001 194.218,-64 184.218,-60.5001 184.218,-67.5001"/>
</g>
<!-- Node5 -->
<g id="node5" class="node"><title>Node5</title>
<g id="a_node5"><a xlink:href="namespacevisioncpp_1_1internal_1_1tools_1_1tuple.html#ab1645d3d3ed77aaec1d5c958de2a96a0" target="_top" xlink:title="get ">
<polygon fill="none" stroke="black" points="194.5,-0 194.5,-30 289.5,-30 289.5,-0 194.5,-0"/>
<text text-anchor="start" x="202.5" y="-18" font-family="Helvetica,sans-Serif" font-size="10.00">visioncpp::internal</text>
<text text-anchor="middle" x="242" y="-7" font-family="Helvetica,sans-Serif" font-size="10.00">::tools::tuple::get</text>
</a>
</g>
</g>
<!-- Node1&#45;&gt;Node5 -->
<g id="edge4" class="edge"><title>Node1&#45;&gt;Node5</title>
<path fill="none" stroke="midnightblue" d="M158.142,-40.2177C167.01,-37.5187 175.916,-34.8081 184.43,-32.217"/>
<polygon fill="midnightblue" stroke="midnightblue" points="185.67,-35.4982 194.218,-29.2381 183.632,-28.8015 185.67,-35.4982"/>
</g>
<!-- Node4 -->
<g id="node4" class="node"><title>Node4</title>
<g id="a_node4"><a xlink:href="structvisioncpp_1_1internal_1_1tools_1_1Convertor.html#a50519510c30e56ead8657c8a06d8c9d4" target="_top" xlink:title="function convert ">
<polygon fill="none" stroke="black" points="326,-43.5 326,-84.5 424,-84.5 424,-43.5 326,-43.5"/>
<text text-anchor="start" x="334" y="-72.5" font-family="Helvetica,sans-Serif" font-size="10.00">visioncpp::internal</text>
<text text-anchor="start" x="334" y="-61.5" font-family="Helvetica,sans-Serif" font-size="10.00">::tools::Convertor::</text>
<text text-anchor="middle" x="375" y="-50.5" font-family="Helvetica,sans-Serif" font-size="10.00">convert</text>
</a>
</g>
</g>
<!-- Node3&#45;&gt;Node4 -->
<g id="edge3" class="edge"><title>Node3&#45;&gt;Node4</title>
<path fill="none" stroke="midnightblue" d="M289.555,-64C298.012,-64 306.93,-64 315.676,-64"/>
<polygon fill="midnightblue" stroke="midnightblue" points="315.825,-67.5001 325.825,-64 315.825,-60.5001 315.825,-67.5001"/>
</g>
</g>
</svg>
