<?xml version="1.0" encoding="UTF-8" standalone="no"?>
<!DOCTYPE svg PUBLIC "-//W3C//DTD SVG 1.1//EN"
 "http://www.w3.org/Graphics/SVG/1.1/DTD/svg11.dtd">
<!-- Generated by graphviz version 2.36.0 (20140111.2315)
 -->
<!-- Title: visioncpp::internal::EvalExpr&lt; RDCN&lt; C_OP, RHS, Cols, Rows, LfType, LVL &gt;, Loc, Params...&gt;::eval_global_neighbour Pages: 1 -->
<svg width="450pt" height="146pt"
 viewBox="0.00 0.00 450.00 146.00" xmlns="http://www.w3.org/2000/svg" xmlns:xlink="http://www.w3.org/1999/xlink">
<g id="graph0" class="graph" transform="scale(1 1) rotate(0) translate(4 142)">
<title>visioncpp::internal::EvalExpr&lt; RDCN&lt; C_OP, RHS, Cols, Rows, LfType, LVL &gt;, Loc, Params...&gt;::eval_global_neighbour</title>
<!-- Node1 -->
<g id="node1" class="node"><title>Node1</title>
<polygon fill="#bfbfbf" stroke="black" points="0,-42.5 0,-105.5 158,-105.5 158,-42.5 0,-42.5"/>
<text text-anchor="start" x="8" y="-93.5" font-family="Helvetica,sans-Serif" font-size="10.00">visioncpp::internal</text>
<text text-anchor="start" x="8" y="-82.5" font-family="Helvetica,sans-Serif" font-size="10.00">::EvalExpr&lt; RDCN&lt; C</text>
<text text-anchor="start" x="8" y="-71.5" font-family="Helvetica,sans-Serif" font-size="10.00">_OP, RHS, Cols, Rows,</text>
<text text-anchor="start" x="8" y="-60.5" font-family="Helvetica,sans-Serif" font-size="10.00"> LfType, LVL &gt;, Loc, Params...&gt;</text>
<text text-anchor="middle" x="79" y="-49.5" font-family="Helvetica,sans-Serif" font-size="10.00">::eval_global_neighbour</text>
</g>
<!-- Node2 -->
<g id="node2" class="node"><title>Node2</title>
<g id="a_node2"><a xlink:href="namespacevisioncpp_1_1internal.html#a432878bd5a7c47c218a371ecf9eefe6a" target="_top" xlink:title="function calculate_index ">
<polygon fill="none" stroke="black" points="203.5,-108 203.5,-138 298.5,-138 298.5,-108 203.5,-108"/>
<text text-anchor="start" x="211.5" y="-126" font-family="Helvetica,sans-Serif" font-size="10.00">visioncpp::internal</text>
<text text-anchor="middle" x="251" y="-115" font-family="Helvetica,sans-Serif" font-size="10.00">::calculate_index</text>
</a>
</g>
</g>
<!-- Node1&#45;&gt;Node2 -->
<g id="edge1" class="edge"><title>Node1&#45;&gt;Node2</title>
<path fill="none" stroke="midnightblue" d="M158.034,-96.4922C170.051,-99.9559 182.255,-103.473 193.676,-106.765"/>
<polygon fill="midnightblue" stroke="midnightblue" points="192.909,-110.187 203.487,-109.593 194.848,-103.461 192.909,-110.187"/>
</g>
<!-- Node3 -->
<g id="node3" class="node"><title>Node3</title>
<g id="a_node3"><a xlink:href="namespacevisioncpp_1_1internal_1_1tools.html#ad0890ca41e9275137b7a578b24136dbe" target="_top" xlink:title="function convert ">
<polygon fill="none" stroke="black" points="203.5,-59 203.5,-89 298.5,-89 298.5,-59 203.5,-59"/>
<text text-anchor="start" x="211.5" y="-77" font-family="Helvetica,sans-Serif" font-size="10.00">visioncpp::internal</text>
<text text-anchor="middle" x="251" y="-66" font-family="Helvetica,sans-Serif" font-size="10.00">::tools::convert</text>
</a>
</g>
</g>
<!-- Node1&#45;&gt;Node3 -->
<g id="edge2" class="edge"><title>Node1&#45;&gt;Node3</title>
<path fill="none" stroke="midnightblue" d="M158.034,-74C169.93,-74 182.008,-74 193.33,-74"/>
<polygon fill="midnightblue" stroke="midnightblue" points="193.487,-77.5001 203.487,-74 193.487,-70.5001 193.487,-77.5001"/>
</g>
<!-- Node5 -->
<g id="node5" class="node"><title>Node5</title>
<g id="a_node5"><a xlink:href="structvisioncpp_1_1internal_1_1GlobalNeighbour.html#a5ac361558e9816f6cf4503c4993040c1" target="_top" xlink:title="function set_offset: ">
<polygon fill="none" stroke="black" points="194,0.5 194,-40.5 308,-40.5 308,0.5 194,0.5"/>
<text text-anchor="start" x="202" y="-28.5" font-family="Helvetica,sans-Serif" font-size="10.00">visioncpp::internal</text>
<text text-anchor="start" x="202" y="-17.5" font-family="Helvetica,sans-Serif" font-size="10.00">::GlobalNeighbour::set</text>
<text text-anchor="middle" x="251" y="-6.5" font-family="Helvetica,sans-Serif" font-size="10.00">_offset</text>
</a>
</g>
</g>
<!-- Node1&#45;&gt;Node5 -->
<g id="edge4" class="edge"><title>Node1&#45;&gt;Node5</title>
<path fill="none" stroke="midnightblue" d="M158.034,-49.2126C166.786,-46.4327 175.637,-43.6212 184.212,-40.8972"/>
<polygon fill="midnightblue" stroke="midnightblue" points="185.287,-44.2285 193.758,-37.8652 183.167,-37.5569 185.287,-44.2285"/>
</g>
<!-- Node4 -->
<g id="node4" class="node"><title>Node4</title>
<g id="a_node4"><a xlink:href="structvisioncpp_1_1internal_1_1tools_1_1Convertor.html#a50519510c30e56ead8657c8a06d8c9d4" target="_top" xlink:title="function convert ">
<polygon fill="none" stroke="black" points="344,-53.5 344,-94.5 442,-94.5 442,-53.5 344,-53.5"/>
<text text-anchor="start" x="352" y="-82.5" font-family="Helvetica,sans-Serif" font-size="10.00">visioncpp::internal</text>
<text text-anchor="start" x="352" y="-71.5" font-family="Helvetica,sans-Serif" font-size="10.00">::tools::Convertor::</text>
<text text-anchor="middle" x="393" y="-60.5" font-family="Helvetica,sans-Serif" font-size="10.00">convert</text>
</a>
</g>
</g>
<!-- Node3&#45;&gt;Node4 -->
<g id="edge3" class="edge"><title>Node3&#45;&gt;Node4</title>
<path fill="none" stroke="midnightblue" d="M298.618,-74C309.815,-74 321.914,-74 333.572,-74"/>
<polygon fill="midnightblue" stroke="midnightblue" points="333.67,-77.5001 343.67,-74 333.67,-70.5001 333.67,-77.5001"/>
</g>
</g>
</svg>
