<?xml version="1.0" encoding="UTF-8" standalone="no"?>
<!DOCTYPE svg PUBLIC "-//W3C//DTD SVG 1.1//EN"
 "http://www.w3.org/Graphics/SVG/1.1/DTD/svg11.dtd">
<!-- Generated by graphviz version 2.36.0 (20140111.2315)
 -->
<!-- Title: visioncpp::internal::LocalOutput&lt; false, IsRoot, LC, LR, RBiOP&lt; OP, LHSExpr, RHSExpr, Cols, Rows, LeafType, LVL &gt; &gt;::getTuple Pages: 1 -->
<svg width="626pt" height="87pt"
 viewBox="0.00 0.00 626.00 87.00" xmlns="http://www.w3.org/2000/svg" xmlns:xlink="http://www.w3.org/1999/xlink">
<g id="graph0" class="graph" transform="scale(1 1) rotate(0) translate(4 83)">
<title>visioncpp::internal::LocalOutput&lt; false, IsRoot, LC, LR, RBiOP&lt; OP, LHSExpr, RHSExpr, Cols, Rows, LeafType, LVL &gt; &gt;::getTuple</title>
<!-- Node1 -->
<g id="node1" class="node"><title>Node1</title>
<polygon fill="#bfbfbf" stroke="black" points="0.5,-2 0.5,-76 141.5,-76 141.5,-2 0.5,-2"/>
<text text-anchor="start" x="8.5" y="-64" font-family="Helvetica,sans-Serif" font-size="10.00">visioncpp::internal</text>
<text text-anchor="start" x="8.5" y="-53" font-family="Helvetica,sans-Serif" font-size="10.00">::LocalOutput&lt; false,</text>
<text text-anchor="start" x="8.5" y="-42" font-family="Helvetica,sans-Serif" font-size="10.00"> IsRoot, LC, LR, RBiOP</text>
<text text-anchor="start" x="8.5" y="-31" font-family="Helvetica,sans-Serif" font-size="10.00">&lt; OP, LHSExpr, RHSExpr,</text>
<text text-anchor="start" x="8.5" y="-20" font-family="Helvetica,sans-Serif" font-size="10.00"> Cols, Rows, LeafType, LVL</text>
<text text-anchor="middle" x="71" y="-9" font-family="Helvetica,sans-Serif" font-size="10.00"> &gt; &gt;::getTuple</text>
</g>
<!-- Node2 -->
<g id="node2" class="node"><title>Node2</title>
<g id="a_node2"><a xlink:href="namespacevisioncpp_1_1internal_1_1tools_1_1tuple.html#a047c9626073a7719080ae711a7fbcd12" target="_top" xlink:title="append ">
<polygon fill="none" stroke="black" points="178,-47 178,-77 286,-77 286,-47 178,-47"/>
<text text-anchor="start" x="186" y="-65" font-family="Helvetica,sans-Serif" font-size="10.00">visioncpp::internal</text>
<text text-anchor="middle" x="232" y="-54" font-family="Helvetica,sans-Serif" font-size="10.00">::tools::tuple::append</text>
</a>
</g>
</g>
<!-- Node1&#45;&gt;Node2 -->
<g id="edge1" class="edge"><title>Node1&#45;&gt;Node2</title>
<path fill="none" stroke="midnightblue" d="M141.74,-49.0881C150.282,-50.3238 158.977,-51.5815 167.422,-52.8031"/>
<polygon fill="midnightblue" stroke="midnightblue" points="167.173,-56.3036 177.571,-54.2713 168.176,-49.3757 167.173,-56.3036"/>
</g>
<!-- Node5 -->
<g id="node5" class="node"><title>Node5</title>
<g id="a_node5"><a xlink:href="structvisioncpp_1_1internal_1_1LocalOutput.html#abc63292a957140f2a601692f3c2983c4" target="_top" xlink:title="getTuple function is used to create and wrap local memory into a tuple ">
<polygon fill="none" stroke="black" points="328.5,-0 328.5,-30 447.5,-30 447.5,-0 328.5,-0"/>
<text text-anchor="start" x="336.5" y="-18" font-family="Helvetica,sans-Serif" font-size="10.00">visioncpp::internal</text>
<text text-anchor="middle" x="388" y="-7" font-family="Helvetica,sans-Serif" font-size="10.00">::LocalOutput::getTuple</text>
</a>
</g>
</g>
<!-- Node1&#45;&gt;Node5 -->
<g id="edge4" class="edge"><title>Node1&#45;&gt;Node5</title>
<path fill="none" stroke="midnightblue" d="M141.518,-33.7034C194.089,-29.698 265.914,-24.2256 318.287,-20.2353"/>
<polygon fill="midnightblue" stroke="midnightblue" points="318.785,-23.7076 328.49,-19.4579 318.253,-16.7278 318.785,-23.7076"/>
</g>
<!-- Node3 -->
<g id="node3" class="node"><title>Node3</title>
<g id="a_node3"><a xlink:href="namespacevisioncpp_1_1internal_1_1tools_1_1tuple.html#a0739601d962b2f5d67f9733bdd49624b" target="_top" xlink:title="append_impl ">
<polygon fill="none" stroke="black" points="322.5,-49 322.5,-79 453.5,-79 453.5,-49 322.5,-49"/>
<text text-anchor="start" x="330.5" y="-67" font-family="Helvetica,sans-Serif" font-size="10.00">visioncpp::internal</text>
<text text-anchor="middle" x="388" y="-56" font-family="Helvetica,sans-Serif" font-size="10.00">::tools::tuple::append_impl</text>
</a>
</g>
</g>
<!-- Node2&#45;&gt;Node3 -->
<g id="edge2" class="edge"><title>Node2&#45;&gt;Node3</title>
<path fill="none" stroke="midnightblue" d="M286.43,-62.6939C294.734,-62.8017 303.443,-62.9148 312.117,-63.0275"/>
<polygon fill="midnightblue" stroke="midnightblue" points="312.211,-66.5289 322.256,-63.1592 312.302,-59.5295 312.211,-66.5289"/>
</g>
<!-- Node4 -->
<g id="node4" class="node"><title>Node4</title>
<g id="a_node4"><a xlink:href="namespacevisioncpp_1_1internal_1_1tools_1_1tuple.html#a327306360f5729315416bf96f49a4d73" target="_top" xlink:title="make_tuple ">
<polygon fill="none" stroke="black" points="490.5,-24 490.5,-54 617.5,-54 617.5,-24 490.5,-24"/>
<text text-anchor="start" x="498.5" y="-42" font-family="Helvetica,sans-Serif" font-size="10.00">visioncpp::internal</text>
<text text-anchor="middle" x="554" y="-31" font-family="Helvetica,sans-Serif" font-size="10.00">::tools::tuple::make_tuple</text>
</a>
</g>
</g>
<!-- Node3&#45;&gt;Node4 -->
<g id="edge3" class="edge"><title>Node3&#45;&gt;Node4</title>
<path fill="none" stroke="midnightblue" d="M453.817,-54.1193C462.534,-52.7905 471.522,-51.4204 480.363,-50.0727"/>
<polygon fill="midnightblue" stroke="midnightblue" points="480.902,-53.5311 490.26,-48.564 479.847,-46.6111 480.902,-53.5311"/>
</g>
<!-- Node5&#45;&gt;Node4 -->
<g id="edge5" class="edge"><title>Node5&#45;&gt;Node4</title>
<path fill="none" stroke="midnightblue" d="M447.745,-23.5968C458.3,-25.1414 469.416,-26.7681 480.309,-28.3623"/>
<polygon fill="midnightblue" stroke="midnightblue" points="479.827,-31.829 490.229,-29.814 480.841,-24.9028 479.827,-31.829"/>
</g>
</g>
</svg>
