<?xml version="1.0" encoding="UTF-8" standalone="no"?>
<!DOCTYPE svg PUBLIC "-//W3C//DTD SVG 1.1//EN"
 "http://www.w3.org/Graphics/SVG/1.1/DTD/svg11.dtd">
<!-- Generated by graphviz version 2.43.0 (0)
 -->
<!-- Title: visioncpp::internal::Coordinate&lt; LC, LR, ItemID &gt; Pages: 1 -->
<svg width="156pt" height="292pt"
 viewBox="0.00 0.00 155.50 292.00" xmlns="http://www.w3.org/2000/svg" xmlns:xlink="http://www.w3.org/1999/xlink">
<g id="graph0" class="graph" transform="scale(1 1) rotate(0) translate(4 288)">
<title>visioncpp::internal::Coordinate&lt; LC, LR, ItemID &gt;</title>
<!-- Node1 -->
<g id="node1" class="node">
<title>Node1</title>
<g id="a_node1"><a xlink:title="Coordinate is used to specify local/global offset for local/global access to the local/global memory ...">
<polygon fill="#bfbfbf" stroke="black" points="5.5,-0.5 5.5,-101.5 125.5,-101.5 125.5,-0.5 5.5,-0.5"/>
<text text-anchor="start" x="13.5" y="-89.5" font-family="Helvetica,sans-Serif" font-size="10.00">visioncpp::internal</text>
<text text-anchor="start" x="13.5" y="-78.5" font-family="Helvetica,sans-Serif" font-size="10.00">::Coordinate&lt; LC, LR,</text>
<text text-anchor="middle" x="65.5" y="-67.5" font-family="Helvetica,sans-Serif" font-size="10.00"> ItemID &gt;</text>
<polyline fill="none" stroke="black" points="5.5,-60.5 125.5,-60.5 "/>
<text text-anchor="middle" x="65.5" y="-48.5" font-family="Helvetica,sans-Serif" font-size="10.00"> </text>
<polyline fill="none" stroke="black" points="5.5,-41.5 125.5,-41.5 "/>
<text text-anchor="start" x="13.5" y="-29.5" font-family="Helvetica,sans-Serif" font-size="10.00">+ Coordinate()</text>
<text text-anchor="start" x="13.5" y="-18.5" font-family="Helvetica,sans-Serif" font-size="10.00">+ barrier()</text>
<text text-anchor="start" x="13.5" y="-7.5" font-family="Helvetica,sans-Serif" font-size="10.00">+ global_barrier()</text>
</a>
</g>
</g>
<!-- Node2 -->
<g id="node2" class="node">
<title>Node2</title>
<g id="a_node2"><a xlink:title=" ">
<polygon fill="none" stroke="#bfbfbf" points="0,-226.5 0,-283.5 45,-283.5 45,-226.5 0,-226.5"/>
<text text-anchor="middle" x="22.5" y="-271.5" font-family="Helvetica,sans-Serif" font-size="10.00">size_t</text>
<polyline fill="none" stroke="#bfbfbf" points="0,-264.5 45,-264.5 "/>
<text text-anchor="middle" x="22.5" y="-252.5" font-family="Helvetica,sans-Serif" font-size="10.00"> </text>
<polyline fill="none" stroke="#bfbfbf" points="0,-245.5 45,-245.5 "/>
<text text-anchor="middle" x="22.5" y="-233.5" font-family="Helvetica,sans-Serif" font-size="10.00"> </text>
</a>
</g>
</g>
<!-- Node2&#45;&gt;Node1 -->
<g id="edge1" class="edge">
<title>Node2&#45;&gt;Node1</title>
<path fill="none" stroke="#404040" d="M18.44,-226.43C15.37,-198.9 13.23,-155.66 23.5,-120 24.16,-117.7 24.93,-115.4 25.77,-113.11"/>
<polygon fill="none" stroke="#404040" points="25.89,-112.84 24.6,-105.74 30.65,-101.82 31.94,-108.91 25.89,-112.84"/>
<text text-anchor="middle" x="55.5" y="-200" font-family="Helvetica,sans-Serif" font-size="10.00"> +l_c</text>
<text text-anchor="middle" x="55.5" y="-189" font-family="Helvetica,sans-Serif" font-size="10.00">+pointOp_gr</text>
<text text-anchor="middle" x="55.5" y="-178" font-family="Helvetica,sans-Serif" font-size="10.00">+rLRng</text>
<text text-anchor="middle" x="55.5" y="-167" font-family="Helvetica,sans-Serif" font-size="10.00">+pointOp_gc</text>
<text text-anchor="middle" x="55.5" y="-156" font-family="Helvetica,sans-Serif" font-size="10.00">+cLRng</text>
<text text-anchor="middle" x="55.5" y="-145" font-family="Helvetica,sans-Serif" font-size="10.00">+g_r</text>
<text text-anchor="middle" x="55.5" y="-134" font-family="Helvetica,sans-Serif" font-size="10.00">+g_c</text>
<text text-anchor="middle" x="55.5" y="-123" font-family="Helvetica,sans-Serif" font-size="10.00">+l_r</text>
</g>
<!-- Node3 -->
<g id="node3" class="node">
<title>Node3</title>
<g id="a_node3"><a xlink:title=" ">
<polygon fill="none" stroke="#bfbfbf" points="84.5,-226.5 84.5,-283.5 134.5,-283.5 134.5,-226.5 84.5,-226.5"/>
<text text-anchor="middle" x="109.5" y="-271.5" font-family="Helvetica,sans-Serif" font-size="10.00">ItemID</text>
<polyline fill="none" stroke="#bfbfbf" points="84.5,-264.5 134.5,-264.5 "/>
<text text-anchor="middle" x="109.5" y="-252.5" font-family="Helvetica,sans-Serif" font-size="10.00"> </text>
<polyline fill="none" stroke="#bfbfbf" points="84.5,-245.5 134.5,-245.5 "/>
<text text-anchor="middle" x="109.5" y="-233.5" font-family="Helvetica,sans-Serif" font-size="10.00"> </text>
</a>
</g>
</g>
<!-- Node3&#45;&gt;Node1 -->
<g id="edge2" class="edge">
<title>Node3&#45;&gt;Node1</title>
<path fill="none" stroke="#404040" d="M106.19,-226.3C102.64,-199.03 96.3,-156.32 87.5,-120 86.95,-117.74 86.37,-115.44 85.75,-113.13"/>
<polygon fill="none" stroke="#404040" points="85.73,-113.07 80.25,-108.38 82.47,-101.52 87.95,-106.21 85.73,-113.07"/>
<text text-anchor="middle" x="125" y="-161.5" font-family="Helvetica,sans-Serif" font-size="10.00"> +itemID</text>
</g>
</g>
</svg>
