<?xml version="1.0" encoding="UTF-8" standalone="no"?>
<!DOCTYPE svg PUBLIC "-//W3C//DTD SVG 1.1//EN"
 "http://www.w3.org/Graphics/SVG/1.1/DTD/svg11.dtd">
<!-- Generated by graphviz version 2.43.0 (0)
 -->
<!-- Title: visioncpp::internal::LeafCount&lt; expr_category::Binary, Expr &gt; Pages: 1 -->
<svg width="161pt" height="193pt"
 viewBox="0.00 0.00 161.00 193.00" xmlns="http://www.w3.org/2000/svg" xmlns:xlink="http://www.w3.org/1999/xlink">
<g id="graph0" class="graph" transform="scale(1 1) rotate(0) translate(4 189)">
<title>visioncpp::internal::LeafCount&lt; expr_category::Binary, Expr &gt;</title>
<!-- Node1 -->
<g id="node1" class="node">
<title>Node1</title>
<g id="a_node1"><a xlink:title="specialisation of LeafCount when the node has two children template parameters:">
<polygon fill="#bfbfbf" stroke="black" points="0,-0.5 0,-79.5 153,-79.5 153,-0.5 0,-0.5"/>
<text text-anchor="start" x="8" y="-67.5" font-family="Helvetica,sans-Serif" font-size="10.00">visioncpp::internal</text>
<text text-anchor="start" x="8" y="-56.5" font-family="Helvetica,sans-Serif" font-size="10.00">::LeafCount&lt; expr_category</text>
<text text-anchor="middle" x="76.5" y="-45.5" font-family="Helvetica,sans-Serif" font-size="10.00">::Binary, Expr &gt;</text>
<polyline fill="none" stroke="black" points="0,-38.5 153,-38.5 "/>
<text text-anchor="middle" x="76.5" y="-26.5" font-family="Helvetica,sans-Serif" font-size="10.00"> </text>
<polyline fill="none" stroke="black" points="0,-19.5 153,-19.5 "/>
<text text-anchor="middle" x="76.5" y="-7.5" font-family="Helvetica,sans-Serif" font-size="10.00"> </text>
</a>
</g>
</g>
<!-- Node2 -->
<g id="node2" class="node">
<title>Node2</title>
<g id="a_node2"><a xlink:title=" ">
<polygon fill="none" stroke="#bfbfbf" points="54,-127.5 54,-184.5 99,-184.5 99,-127.5 54,-127.5"/>
<text text-anchor="middle" x="76.5" y="-172.5" font-family="Helvetica,sans-Serif" font-size="10.00">size_t</text>
<polyline fill="none" stroke="#bfbfbf" points="54,-165.5 99,-165.5 "/>
<text text-anchor="middle" x="76.5" y="-153.5" font-family="Helvetica,sans-Serif" font-size="10.00"> </text>
<polyline fill="none" stroke="#bfbfbf" points="54,-146.5 99,-146.5 "/>
<text text-anchor="middle" x="76.5" y="-134.5" font-family="Helvetica,sans-Serif" font-size="10.00"> </text>
</a>
</g>
</g>
<!-- Node2&#45;&gt;Node1 -->
<g id="edge1" class="edge">
<title>Node2&#45;&gt;Node1</title>
<path fill="none" stroke="#404040" d="M76.5,-127.4C76.5,-116.63 76.5,-103.93 76.5,-91.62"/>
<polygon fill="none" stroke="#404040" points="76.5,-91.54 72.5,-85.54 76.5,-79.54 80.5,-85.54 76.5,-91.54"/>
<text text-anchor="middle" x="96.5" y="-101" font-family="Helvetica,sans-Serif" font-size="10.00"> +Count</text>
</g>
</g>
</svg>
