<?xml version="1.0" encoding="UTF-8" standalone="no"?>
<!DOCTYPE svg PUBLIC "-//W3C//DTD SVG 1.1//EN"
 "http://www.w3.org/Graphics/SVG/1.1/DTD/svg11.dtd">
<!-- Generated by graphviz version 2.36.0 (20140111.2315)
 -->
<!-- Title: visioncpp::internal::MemoryProperties&lt; unsigned char &gt; Pages: 1 -->
<svg width="144pt" height="204pt"
 viewBox="0.00 0.00 144.00 204.00" xmlns="http://www.w3.org/2000/svg" xmlns:xlink="http://www.w3.org/1999/xlink">
<g id="graph0" class="graph" transform="scale(1 1) rotate(0) translate(4 200)">
<title>visioncpp::internal::MemoryProperties&lt; unsigned char &gt;</title>
<!-- Node1 -->
<g id="node1" class="node"><title>Node1</title>
<polygon fill="#bfbfbf" stroke="black" points="0,-0.5 0,-79.5 108,-79.5 108,-0.5 0,-0.5"/>
<text text-anchor="start" x="8" y="-67.5" font-family="Helvetica,sans-Serif" font-size="10.00">visioncpp::internal</text>
<text text-anchor="start" x="8" y="-56.5" font-family="Helvetica,sans-Serif" font-size="10.00">::MemoryProperties&lt;</text>
<text text-anchor="middle" x="54" y="-45.5" font-family="Helvetica,sans-Serif" font-size="10.00"> unsigned char &gt;</text>
<polyline fill="none" stroke="black" points="0,-38.5 108,-38.5 "/>
<text text-anchor="middle" x="54" y="-26.5" font-family="Helvetica,sans-Serif" font-size="10.00"> </text>
<polyline fill="none" stroke="black" points="0,-19.5 108,-19.5 "/>
<text text-anchor="middle" x="54" y="-7.5" font-family="Helvetica,sans-Serif" font-size="10.00"> </text>
</g>
<!-- Node2 -->
<g id="node2" class="node"><title>Node2</title>
<polygon fill="none" stroke="#bfbfbf" points="32.5,-138.5 32.5,-195.5 75.5,-195.5 75.5,-138.5 32.5,-138.5"/>
<text text-anchor="middle" x="54" y="-183.5" font-family="Helvetica,sans-Serif" font-size="10.00">size_t</text>
<polyline fill="none" stroke="#bfbfbf" points="32.5,-176.5 75.5,-176.5 "/>
<text text-anchor="middle" x="54" y="-164.5" font-family="Helvetica,sans-Serif" font-size="10.00"> </text>
<polyline fill="none" stroke="#bfbfbf" points="32.5,-157.5 75.5,-157.5 "/>
<text text-anchor="middle" x="54" y="-145.5" font-family="Helvetica,sans-Serif" font-size="10.00"> </text>
</g>
<!-- Node2&#45;&gt;Node1 -->
<g id="edge1" class="edge"><title>Node2&#45;&gt;Node1</title>
<path fill="none" stroke="#404040" d="M54,-138.258C54,-124.637 54,-107.787 54,-91.9595"/>
<polygon fill="none" stroke="#404040" points="54.0001,-91.5667 50,-85.5668 54,-79.5667 58,-85.5667 54.0001,-91.5667"/>
<text text-anchor="middle" x="95" y="-112" font-family="Helvetica,sans-Serif" font-size="10.00"> +ChannelSize</text>
<text text-anchor="middle" x="95" y="-101" font-family="Helvetica,sans-Serif" font-size="10.00">+ElementCategory</text>
</g>
</g>
</svg>
