<?xml version="1.0" encoding="UTF-8" standalone="no"?>
<!DOCTYPE svg PUBLIC "-//W3C//DTD SVG 1.1//EN"
 "http://www.w3.org/Graphics/SVG/1.1/DTD/svg11.dtd">
<!-- Generated by graphviz version 2.43.0 (0)
 -->
<!-- Title: visioncpp::internal::RDCN&lt; DownSmplOP, RHS, Cols, Rows, LfType, LVL &gt; Pages: 1 -->
<svg width="322pt" height="303pt"
 viewBox="0.00 0.00 321.50 303.00" xmlns="http://www.w3.org/2000/svg" xmlns:xlink="http://www.w3.org/1999/xlink">
<g id="graph0" class="graph" transform="scale(1 1) rotate(0) translate(4 299)">
<title>visioncpp::internal::RDCN&lt; DownSmplOP, RHS, Cols, Rows, LfType, LVL &gt;</title>
<!-- Node1 -->
<g id="node1" class="node">
<title>Node1</title>
<g id="a_node1"><a xlink:title="The definition is in RDCN file.">
<polygon fill="#bfbfbf" stroke="black" points="45.5,-0.5 45.5,-112.5 213.5,-112.5 213.5,-0.5 45.5,-0.5"/>
<text text-anchor="start" x="53.5" y="-100.5" font-family="Helvetica,sans-Serif" font-size="10.00">visioncpp::internal</text>
<text text-anchor="start" x="53.5" y="-89.5" font-family="Helvetica,sans-Serif" font-size="10.00">::RDCN&lt; DownSmplOP,</text>
<text text-anchor="start" x="53.5" y="-78.5" font-family="Helvetica,sans-Serif" font-size="10.00"> RHS, Cols, Rows, LfType,</text>
<text text-anchor="middle" x="129.5" y="-67.5" font-family="Helvetica,sans-Serif" font-size="10.00"> LVL &gt;</text>
<polyline fill="none" stroke="black" points="45.5,-60.5 213.5,-60.5 "/>
<text text-anchor="middle" x="129.5" y="-48.5" font-family="Helvetica,sans-Serif" font-size="10.00"> </text>
<polyline fill="none" stroke="black" points="45.5,-41.5 213.5,-41.5 "/>
<text text-anchor="start" x="53.5" y="-29.5" font-family="Helvetica,sans-Serif" font-size="10.00">+ RDCN()</text>
<text text-anchor="start" x="53.5" y="-18.5" font-family="Helvetica,sans-Serif" font-size="10.00">+ reset()</text>
<text text-anchor="start" x="53.5" y="-7.5" font-family="Helvetica,sans-Serif" font-size="10.00">+ sub_expression_evaluation()</text>
</a>
</g>
</g>
<!-- Node2 -->
<g id="node2" class="node">
<title>Node2</title>
<g id="a_node2"><a xlink:title=" ">
<polygon fill="none" stroke="#bfbfbf" points="0,-237.5 0,-294.5 45,-294.5 45,-237.5 0,-237.5"/>
<text text-anchor="middle" x="22.5" y="-282.5" font-family="Helvetica,sans-Serif" font-size="10.00">size_t</text>
<polyline fill="none" stroke="#bfbfbf" points="0,-275.5 45,-275.5 "/>
<text text-anchor="middle" x="22.5" y="-263.5" font-family="Helvetica,sans-Serif" font-size="10.00"> </text>
<polyline fill="none" stroke="#bfbfbf" points="0,-256.5 45,-256.5 "/>
<text text-anchor="middle" x="22.5" y="-244.5" font-family="Helvetica,sans-Serif" font-size="10.00"> </text>
</a>
</g>
</g>
<!-- Node2&#45;&gt;Node1 -->
<g id="edge1" class="edge">
<title>Node2&#45;&gt;Node1</title>
<path fill="none" stroke="#404040" d="M20.81,-237.26C20.31,-208.81 23.04,-164.16 41.5,-131 43.12,-128.08 44.91,-125.23 46.84,-122.46"/>
<polygon fill="none" stroke="#404040" points="47.02,-122.21 47.52,-115.02 54.35,-112.71 53.85,-119.9 47.02,-122.21"/>
<text text-anchor="middle" x="83.5" y="-211" font-family="Helvetica,sans-Serif" font-size="10.00"> +CThread</text>
<text text-anchor="middle" x="83.5" y="-200" font-family="Helvetica,sans-Serif" font-size="10.00">+LC_Ratio</text>
<text text-anchor="middle" x="83.5" y="-189" font-family="Helvetica,sans-Serif" font-size="10.00">+LR_Ratio</text>
<text text-anchor="middle" x="83.5" y="-178" font-family="Helvetica,sans-Serif" font-size="10.00">+LeafType</text>
<text text-anchor="middle" x="83.5" y="-167" font-family="Helvetica,sans-Serif" font-size="10.00">+Level</text>
<text text-anchor="middle" x="83.5" y="-156" font-family="Helvetica,sans-Serif" font-size="10.00">+ND_Category</text>
<text text-anchor="middle" x="83.5" y="-145" font-family="Helvetica,sans-Serif" font-size="10.00">+Operation_type</text>
<text text-anchor="middle" x="83.5" y="-134" font-family="Helvetica,sans-Serif" font-size="10.00">+RThread</text>
</g>
<!-- Node3 -->
<g id="node3" class="node">
<title>Node3</title>
<g id="a_node3"><a xlink:title=" ">
<polygon fill="none" stroke="#bfbfbf" points="111,-237.5 111,-294.5 148,-294.5 148,-237.5 111,-237.5"/>
<text text-anchor="middle" x="129.5" y="-282.5" font-family="Helvetica,sans-Serif" font-size="10.00">RHS</text>
<polyline fill="none" stroke="#bfbfbf" points="111,-275.5 148,-275.5 "/>
<text text-anchor="middle" x="129.5" y="-263.5" font-family="Helvetica,sans-Serif" font-size="10.00"> </text>
<polyline fill="none" stroke="#bfbfbf" points="111,-256.5 148,-256.5 "/>
<text text-anchor="middle" x="129.5" y="-244.5" font-family="Helvetica,sans-Serif" font-size="10.00"> </text>
</a>
</g>
</g>
<!-- Node3&#45;&gt;Node1 -->
<g id="edge2" class="edge">
<title>Node3&#45;&gt;Node1</title>
<path fill="none" stroke="#404040" d="M129.5,-237.45C129.5,-208.9 129.5,-163.19 129.5,-124.99"/>
<polygon fill="none" stroke="#404040" points="129.5,-124.88 125.5,-118.88 129.5,-112.88 133.5,-118.88 129.5,-124.88"/>
<text text-anchor="middle" x="143" y="-172.5" font-family="Helvetica,sans-Serif" font-size="10.00"> +rhs</text>
</g>
<!-- Node4 -->
<g id="node4" class="node">
<title>Node4</title>
<g id="a_node4"><a xlink:title=" ">
<polygon fill="none" stroke="#bfbfbf" points="166.5,-237.5 166.5,-294.5 204.5,-294.5 204.5,-237.5 166.5,-237.5"/>
<text text-anchor="middle" x="185.5" y="-282.5" font-family="Helvetica,sans-Serif" font-size="10.00">bool</text>
<polyline fill="none" stroke="#bfbfbf" points="166.5,-275.5 204.5,-275.5 "/>
<text text-anchor="middle" x="185.5" y="-263.5" font-family="Helvetica,sans-Serif" font-size="10.00"> </text>
<polyline fill="none" stroke="#bfbfbf" points="166.5,-256.5 204.5,-256.5 "/>
<text text-anchor="middle" x="185.5" y="-244.5" font-family="Helvetica,sans-Serif" font-size="10.00"> </text>
</a>
</g>
</g>
<!-- Node4&#45;&gt;Node1 -->
<g id="edge3" class="edge">
<title>Node4&#45;&gt;Node1</title>
<path fill="none" stroke="#404040" d="M182.11,-237.39C178.35,-210 171.32,-167.04 160.5,-131 159.83,-128.76 159.11,-126.5 158.35,-124.23"/>
<polygon fill="none" stroke="#404040" points="158.32,-124.13 152.55,-119.81 154.31,-112.82 160.08,-117.14 158.32,-124.13"/>
<text text-anchor="start" x="178.5" y="-194.5" font-family="Helvetica,sans-Serif" font-size="10.00"> +SubExpressionEvaluation</text>
<text text-anchor="middle" x="246" y="-183.5" font-family="Helvetica,sans-Serif" font-size="10.00">Needed</text>
<text text-anchor="middle" x="246" y="-172.5" font-family="Helvetica,sans-Serif" font-size="10.00">+has_out</text>
<text text-anchor="start" x="178.5" y="-161.5" font-family="Helvetica,sans-Serif" font-size="10.00">+subexpr_execution</text>
<text text-anchor="middle" x="246" y="-150.5" font-family="Helvetica,sans-Serif" font-size="10.00">_reseter</text>
</g>
</g>
</svg>
