<?xml version="1.0" encoding="UTF-8" standalone="no"?>
<!DOCTYPE svg PUBLIC "-//W3C//DTD SVG 1.1//EN"
 "http://www.w3.org/Graphics/SVG/1.1/DTD/svg11.dtd">
<!-- Generated by graphviz version 2.43.0 (0)
 -->
<!-- Title: visioncpp::internal::LocalOutput&lt; false, IsRoot, LC, LR, Assign&lt; LHSExpr, RHSExpr, Cols, Rows, LeafType, LVL &gt; &gt;::getTuple Pages: 1 -->
<svg width="494pt" height="83pt"
 viewBox="0.00 0.00 494.00 83.00" xmlns="http://www.w3.org/2000/svg" xmlns:xlink="http://www.w3.org/1999/xlink">
<g id="graph0" class="graph" transform="scale(1 1) rotate(0) translate(4 79)">
<title>visioncpp::internal::LocalOutput&lt; false, IsRoot, LC, LR, Assign&lt; LHSExpr, RHSExpr, Cols, Rows, LeafType, LVL &gt; &gt;::getTuple</title>
<!-- Node1 -->
<g id="node1" class="node">
<title>Node1</title>
<g id="a_node1"><a xlink:title=" ">
<polygon fill="#bfbfbf" stroke="black" points="0,-0.5 0,-74.5 146,-74.5 146,-0.5 0,-0.5"/>
<text text-anchor="start" x="8" y="-62.5" font-family="Helvetica,sans-Serif" font-size="10.00">visioncpp::internal</text>
<text text-anchor="start" x="8" y="-51.5" font-family="Helvetica,sans-Serif" font-size="10.00">::LocalOutput&lt; false,</text>
<text text-anchor="start" x="8" y="-40.5" font-family="Helvetica,sans-Serif" font-size="10.00"> IsRoot, LC, LR, Assign</text>
<text text-anchor="start" x="8" y="-29.5" font-family="Helvetica,sans-Serif" font-size="10.00">&lt; LHSExpr, RHSExpr, Cols,</text>
<text text-anchor="start" x="8" y="-18.5" font-family="Helvetica,sans-Serif" font-size="10.00"> Rows, LeafType, LVL &gt; &gt;</text>
<text text-anchor="middle" x="73" y="-7.5" font-family="Helvetica,sans-Serif" font-size="10.00">::getTuple</text>
</a>
</g>
</g>
<!-- Node2 -->
<g id="node2" class="node">
<title>Node2</title>
<g id="a_node2"><a xlink:href="structvisioncpp_1_1internal_1_1LocalOutput.html#abc63292a957140f2a601692f3c2983c4" target="_top" xlink:title="getTuple function is used to create and wrap local memory into a tuple">
<polygon fill="none" stroke="black" points="182,-22.5 182,-52.5 310,-52.5 310,-22.5 182,-22.5"/>
<text text-anchor="start" x="190" y="-40.5" font-family="Helvetica,sans-Serif" font-size="10.00">visioncpp::internal</text>
<text text-anchor="middle" x="246" y="-29.5" font-family="Helvetica,sans-Serif" font-size="10.00">::LocalOutput::getTuple</text>
</a>
</g>
</g>
<!-- Node1&#45;&gt;Node2 -->
<g id="edge1" class="edge">
<title>Node1&#45;&gt;Node2</title>
<path fill="none" stroke="midnightblue" d="M146.02,-37.5C154.46,-37.5 163.08,-37.5 171.53,-37.5"/>
<polygon fill="midnightblue" stroke="midnightblue" points="171.74,-41 181.74,-37.5 171.74,-34 171.74,-41"/>
</g>
<!-- Node3 -->
<g id="node3" class="node">
<title>Node3</title>
<g id="a_node3"><a xlink:href="namespacevisioncpp_1_1internal_1_1tools_1_1tuple.html#ab2c7fe8e219c5f9e016a8ea40356005f" target="_top" xlink:title="make_tuple">
<polygon fill="none" stroke="black" points="346,-22.5 346,-52.5 486,-52.5 486,-22.5 346,-22.5"/>
<text text-anchor="start" x="354" y="-40.5" font-family="Helvetica,sans-Serif" font-size="10.00">visioncpp::internal</text>
<text text-anchor="middle" x="416" y="-29.5" font-family="Helvetica,sans-Serif" font-size="10.00">::tools::tuple::make_tuple</text>
</a>
</g>
</g>
<!-- Node2&#45;&gt;Node3 -->
<g id="edge2" class="edge">
<title>Node2&#45;&gt;Node3</title>
<path fill="none" stroke="midnightblue" d="M310.03,-37.5C318.47,-37.5 327.2,-37.5 335.86,-37.5"/>
<polygon fill="midnightblue" stroke="midnightblue" points="335.98,-41 345.98,-37.5 335.98,-34 335.98,-41"/>
</g>
</g>
</svg>
