<?xml version="1.0" encoding="UTF-8" standalone="no"?>
<!DOCTYPE svg PUBLIC "-//W3C//DTD SVG 1.1//EN"
 "http://www.w3.org/Graphics/SVG/1.1/DTD/svg11.dtd">
<!-- Generated by graphviz version 2.36.0 (20140111.2315)
 -->
<!-- Title: visioncpp::internal::LeafNode&lt; PlaceHolder&lt; Memory_Type, N, C, R, Sc &gt;, LVL &gt; Pages: 1 -->
<svg width="243pt" height="260pt"
 viewBox="0.00 0.00 243.00 260.00" xmlns="http://www.w3.org/2000/svg" xmlns:xlink="http://www.w3.org/1999/xlink">
<g id="graph0" class="graph" transform="scale(1 1) rotate(0) translate(4 256)">
<title>visioncpp::internal::LeafNode&lt; PlaceHolder&lt; Memory_Type, N, C, R, Sc &gt;, LVL &gt;</title>
<!-- Node1 -->
<g id="node1" class="node"><title>Node1</title>
<polygon fill="#bfbfbf" stroke="black" points="-0.5,-1 -0.5,-91 148.5,-91 148.5,-1 -0.5,-1"/>
<text text-anchor="start" x="7.5" y="-79" font-family="Helvetica,sans-Serif" font-size="10.00">visioncpp::internal</text>
<text text-anchor="start" x="7.5" y="-68" font-family="Helvetica,sans-Serif" font-size="10.00">::LeafNode&lt; PlaceHolder</text>
<text text-anchor="start" x="7.5" y="-57" font-family="Helvetica,sans-Serif" font-size="10.00">&lt; Memory_Type, N, C, R,</text>
<text text-anchor="middle" x="74" y="-46" font-family="Helvetica,sans-Serif" font-size="10.00"> Sc &gt;, LVL &gt;</text>
<polyline fill="none" stroke="black" points="-0.5,-39 148.5,-39 "/>
<text text-anchor="middle" x="74" y="-27" font-family="Helvetica,sans-Serif" font-size="10.00"> </text>
<polyline fill="none" stroke="black" points="-0.5,-20 148.5,-20 "/>
<text text-anchor="start" x="7.5" y="-8" font-family="Helvetica,sans-Serif" font-size="10.00">+ sub_expression_evaluation()</text>
</g>
<!-- Node2 -->
<g id="node2" class="node"><title>Node2</title>
<polygon fill="none" stroke="#bfbfbf" points="3.5,-194.5 3.5,-251.5 46.5,-251.5 46.5,-194.5 3.5,-194.5"/>
<text text-anchor="middle" x="25" y="-239.5" font-family="Helvetica,sans-Serif" font-size="10.00">size_t</text>
<polyline fill="none" stroke="#bfbfbf" points="3.5,-232.5 46.5,-232.5 "/>
<text text-anchor="middle" x="25" y="-220.5" font-family="Helvetica,sans-Serif" font-size="10.00"> </text>
<polyline fill="none" stroke="#bfbfbf" points="3.5,-213.5 46.5,-213.5 "/>
<text text-anchor="middle" x="25" y="-201.5" font-family="Helvetica,sans-Serif" font-size="10.00"> </text>
</g>
<!-- Node2&#45;&gt;Node1 -->
<g id="edge1" class="edge"><title>Node2&#45;&gt;Node1</title>
<path fill="none" stroke="#404040" d="M20.5109,-194.488C17.8295,-171.303 16.5483,-137.594 26,-110 26.9399,-107.256 28.0508,-104.537 29.2981,-101.856"/>
<polygon fill="none" stroke="#404040" points="29.4068,-101.655 28.7361,-94.4747 35.1057,-91.0941 35.7764,-98.274 29.4068,-101.655"/>
<text text-anchor="middle" x="64" y="-168" font-family="Helvetica,sans-Serif" font-size="10.00"> +Operation_type</text>
<text text-anchor="middle" x="64" y="-157" font-family="Helvetica,sans-Serif" font-size="10.00">+Level</text>
<text text-anchor="middle" x="64" y="-146" font-family="Helvetica,sans-Serif" font-size="10.00">+LeafType</text>
<text text-anchor="middle" x="64" y="-135" font-family="Helvetica,sans-Serif" font-size="10.00">+RThread</text>
<text text-anchor="middle" x="64" y="-124" font-family="Helvetica,sans-Serif" font-size="10.00">+CThread</text>
<text text-anchor="middle" x="64" y="-113" font-family="Helvetica,sans-Serif" font-size="10.00">+ND_Category</text>
</g>
<!-- Node3 -->
<g id="node3" class="node"><title>Node3</title>
<polygon fill="none" stroke="#bfbfbf" points="106.5,-194.5 106.5,-251.5 141.5,-251.5 141.5,-194.5 106.5,-194.5"/>
<text text-anchor="middle" x="124" y="-239.5" font-family="Helvetica,sans-Serif" font-size="10.00">bool</text>
<polyline fill="none" stroke="#bfbfbf" points="106.5,-232.5 141.5,-232.5 "/>
<text text-anchor="middle" x="124" y="-220.5" font-family="Helvetica,sans-Serif" font-size="10.00"> </text>
<polyline fill="none" stroke="#bfbfbf" points="106.5,-213.5 141.5,-213.5 "/>
<text text-anchor="middle" x="124" y="-201.5" font-family="Helvetica,sans-Serif" font-size="10.00"> </text>
</g>
<!-- Node3&#45;&gt;Node1 -->
<g id="edge2" class="edge"><title>Node3&#45;&gt;Node1</title>
<path fill="none" stroke="#404040" d="M120.346,-194.413C116.89,-171.476 110.897,-138.153 102,-110 101.239,-107.593 100.414,-105.154 99.5393,-102.706"/>
<polygon fill="none" stroke="#404040" points="99.4472,-102.466 93.5639,-98.2962 95.1502,-91.2617 101.033,-95.4315 99.4472,-102.466"/>
<text text-anchor="middle" x="176" y="-151.5" font-family="Helvetica,sans-Serif" font-size="10.00"> +PointOp</text>
<text text-anchor="start" x="117" y="-140.5" font-family="Helvetica,sans-Serif" font-size="10.00">+SubExpressionEvaluation</text>
<text text-anchor="middle" x="176" y="-129.5" font-family="Helvetica,sans-Serif" font-size="10.00">Needed</text>
</g>
</g>
</svg>
