<?xml version="1.0" encoding="UTF-8" standalone="no"?>
<!DOCTYPE svg PUBLIC "-//W3C//DTD SVG 1.1//EN"
 "http://www.w3.org/Graphics/SVG/1.1/DTD/svg11.dtd">
<!-- Generated by graphviz version 2.43.0 (0)
 -->
<!-- Title: visioncpp::internal::SubExprExecute&lt; false, ExecPolicy, LC, LR, LCT, LRT, Expr, DeviceT &gt;::execute Pages: 1 -->
<svg width="460pt" height="61pt"
 viewBox="0.00 0.00 460.00 61.00" xmlns="http://www.w3.org/2000/svg" xmlns:xlink="http://www.w3.org/1999/xlink">
<g id="graph0" class="graph" transform="scale(1 1) rotate(0) translate(4 57)">
<title>visioncpp::internal::SubExprExecute&lt; false, ExecPolicy, LC, LR, LCT, LRT, Expr, DeviceT &gt;::execute</title>
<!-- Node1 -->
<g id="node1" class="node">
<title>Node1</title>
<g id="a_node1"><a xlink:title=" ">
<polygon fill="#bfbfbf" stroke="black" points="0,-0.5 0,-52.5 166,-52.5 166,-0.5 0,-0.5"/>
<text text-anchor="start" x="8" y="-40.5" font-family="Helvetica,sans-Serif" font-size="10.00">visioncpp::internal</text>
<text text-anchor="start" x="8" y="-29.5" font-family="Helvetica,sans-Serif" font-size="10.00">::SubExprExecute&lt; false,</text>
<text text-anchor="start" x="8" y="-18.5" font-family="Helvetica,sans-Serif" font-size="10.00"> ExecPolicy, LC, LR, LCT,</text>
<text text-anchor="middle" x="83" y="-7.5" font-family="Helvetica,sans-Serif" font-size="10.00"> LRT, Expr, DeviceT &gt;::execute</text>
</a>
</g>
</g>
<!-- Node2 -->
<g id="node2" class="node">
<title>Node2</title>
<g id="a_node2"><a xlink:href="namespacevisioncpp.html#a76942b49bab20ba8ffc240a9790c548d" target="_top" xlink:title="special case of the execute function with default value for local memory and workgroup size template ...">
<polygon fill="none" stroke="black" points="202,-17 202,-36 309,-36 309,-17 202,-17"/>
<text text-anchor="middle" x="255.5" y="-24" font-family="Helvetica,sans-Serif" font-size="10.00">visioncpp::execute</text>
</a>
</g>
</g>
<!-- Node1&#45;&gt;Node2 -->
<g id="edge1" class="edge">
<title>Node1&#45;&gt;Node2</title>
<path fill="none" stroke="midnightblue" d="M166.25,-26.5C174.76,-26.5 183.3,-26.5 191.54,-26.5"/>
<polygon fill="midnightblue" stroke="midnightblue" points="191.8,-30 201.8,-26.5 191.8,-23 191.8,-30"/>
</g>
<!-- Node3 -->
<g id="node3" class="node">
<title>Node3</title>
<g id="a_node3"><a xlink:href="namespacevisioncpp.html#a1047ae9a8641a453f2c673cf7fbea8d9" target="_top" xlink:title="execute function is called by user in order to execute an expression template parameters:">
<polygon fill="none" stroke="black" points="345,-17 345,-36 452,-36 452,-17 345,-17"/>
<text text-anchor="middle" x="398.5" y="-24" font-family="Helvetica,sans-Serif" font-size="10.00">visioncpp::execute</text>
</a>
</g>
</g>
<!-- Node2&#45;&gt;Node3 -->
<g id="edge2" class="edge">
<title>Node2&#45;&gt;Node3</title>
<path fill="none" stroke="midnightblue" d="M309,-26.5C317.44,-26.5 326.26,-26.5 334.9,-26.5"/>
<polygon fill="midnightblue" stroke="midnightblue" points="334.95,-30 344.95,-26.5 334.95,-23 334.95,-30"/>
</g>
</g>
</svg>
