<?xml version="1.0" encoding="UTF-8" standalone="no"?>
<!DOCTYPE svg PUBLIC "-//W3C//DTD SVG 1.1//EN"
 "http://www.w3.org/Graphics/SVG/1.1/DTD/svg11.dtd">
<!-- Generated by graphviz version 2.36.0 (20140111.2315)
 -->
<!-- Title: visioncpp::internal::VirtualMemory&lt; PlcType, Node, LC, LR, LCT, LRT &gt; Pages: 1 -->
<svg width="283pt" height="250pt"
 viewBox="0.00 0.00 283.00 250.00" xmlns="http://www.w3.org/2000/svg" xmlns:xlink="http://www.w3.org/1999/xlink">
<g id="graph0" class="graph" transform="scale(1 1) rotate(0) translate(4 246)">
<title>visioncpp::internal::VirtualMemory&lt; PlcType, Node, LC, LR, LCT, LRT &gt;</title>
<!-- Node1 -->
<g id="node1" class="node"><title>Node1</title>
<polygon fill="#bfbfbf" stroke="black" points="13.5,-1 13.5,-91 162.5,-91 162.5,-1 13.5,-1"/>
<text text-anchor="start" x="21.5" y="-79" font-family="Helvetica,sans-Serif" font-size="10.00">visioncpp::internal</text>
<text text-anchor="start" x="21.5" y="-68" font-family="Helvetica,sans-Serif" font-size="10.00">::VirtualMemory&lt; PlcType,</text>
<text text-anchor="middle" x="88" y="-57" font-family="Helvetica,sans-Serif" font-size="10.00"> Node, LC, LR, LCT, LRT &gt;</text>
<polyline fill="none" stroke="black" points="13.5,-50 162.5,-50 "/>
<text text-anchor="middle" x="88" y="-38" font-family="Helvetica,sans-Serif" font-size="10.00"> </text>
<polyline fill="none" stroke="black" points="13.5,-31 162.5,-31 "/>
<text text-anchor="start" x="21.5" y="-19" font-family="Helvetica,sans-Serif" font-size="10.00">+ VirtualMemory()</text>
<text text-anchor="start" x="21.5" y="-8" font-family="Helvetica,sans-Serif" font-size="10.00">+ sub_expression_evaluation()</text>
</g>
<!-- Node2 -->
<g id="node2" class="node"><title>Node2</title>
<polygon fill="none" stroke="#bfbfbf" points="0,-184.5 0,-241.5 40,-241.5 40,-184.5 0,-184.5"/>
<text text-anchor="middle" x="20" y="-229.5" font-family="Helvetica,sans-Serif" font-size="10.00">Node</text>
<polyline fill="none" stroke="#bfbfbf" points="0,-222.5 40,-222.5 "/>
<text text-anchor="middle" x="20" y="-210.5" font-family="Helvetica,sans-Serif" font-size="10.00"> </text>
<polyline fill="none" stroke="#bfbfbf" points="0,-203.5 40,-203.5 "/>
<text text-anchor="middle" x="20" y="-191.5" font-family="Helvetica,sans-Serif" font-size="10.00"> </text>
</g>
<!-- Node2&#45;&gt;Node1 -->
<g id="edge1" class="edge"><title>Node2&#45;&gt;Node1</title>
<path fill="none" stroke="#404040" d="M21.6193,-184.097C23.6797,-162.973 28.3616,-133.657 39,-110 40.268,-107.18 41.6872,-104.374 43.2216,-101.599"/>
<polygon fill="none" stroke="#404040" points="43.3809,-101.338 43.0941,-94.1326 49.6349,-91.0966 49.9217,-98.302 43.3809,-101.338"/>
<text text-anchor="middle" x="61.5" y="-135.5" font-family="Helvetica,sans-Serif" font-size="10.00"> +subTree</text>
</g>
<!-- Node3 -->
<g id="node3" class="node"><title>Node3</title>
<polygon fill="none" stroke="#bfbfbf" points="66.5,-184.5 66.5,-241.5 109.5,-241.5 109.5,-184.5 66.5,-184.5"/>
<text text-anchor="middle" x="88" y="-229.5" font-family="Helvetica,sans-Serif" font-size="10.00">size_t</text>
<polyline fill="none" stroke="#bfbfbf" points="66.5,-222.5 109.5,-222.5 "/>
<text text-anchor="middle" x="88" y="-210.5" font-family="Helvetica,sans-Serif" font-size="10.00"> </text>
<polyline fill="none" stroke="#bfbfbf" points="66.5,-203.5 109.5,-203.5 "/>
<text text-anchor="middle" x="88" y="-191.5" font-family="Helvetica,sans-Serif" font-size="10.00"> </text>
</g>
<!-- Node3&#45;&gt;Node1 -->
<g id="edge2" class="edge"><title>Node3&#45;&gt;Node1</title>
<path fill="none" stroke="#404040" d="M88,-184.383C88,-162.345 88,-130.747 88,-103.409"/>
<polygon fill="none" stroke="#404040" points="88.0001,-103.197 84,-97.1975 88,-91.1975 92,-97.1975 88.0001,-103.197"/>
<text text-anchor="middle" x="112" y="-157.5" font-family="Helvetica,sans-Serif" font-size="10.00"> +Rows</text>
<text text-anchor="middle" x="112" y="-146.5" font-family="Helvetica,sans-Serif" font-size="10.00">+Channels</text>
<text text-anchor="middle" x="112" y="-135.5" font-family="Helvetica,sans-Serif" font-size="10.00">+Level</text>
<text text-anchor="middle" x="112" y="-124.5" font-family="Helvetica,sans-Serif" font-size="10.00">+LeafType</text>
<text text-anchor="middle" x="112" y="-113.5" font-family="Helvetica,sans-Serif" font-size="10.00">+Cols</text>
</g>
<!-- Node4 -->
<g id="node4" class="node"><title>Node4</title>
<polygon fill="none" stroke="#bfbfbf" points="141.5,-184.5 141.5,-241.5 176.5,-241.5 176.5,-184.5 141.5,-184.5"/>
<text text-anchor="middle" x="159" y="-229.5" font-family="Helvetica,sans-Serif" font-size="10.00">bool</text>
<polyline fill="none" stroke="#bfbfbf" points="141.5,-222.5 176.5,-222.5 "/>
<text text-anchor="middle" x="159" y="-210.5" font-family="Helvetica,sans-Serif" font-size="10.00"> </text>
<polyline fill="none" stroke="#bfbfbf" points="141.5,-203.5 176.5,-203.5 "/>
<text text-anchor="middle" x="159" y="-191.5" font-family="Helvetica,sans-Serif" font-size="10.00"> </text>
</g>
<!-- Node4&#45;&gt;Node1 -->
<g id="edge3" class="edge"><title>Node4&#45;&gt;Node1</title>
<path fill="none" stroke="#404040" d="M156.388,-184.086C153.616,-162.957 148.034,-133.638 137,-110 135.692,-107.199 134.24,-104.407 132.679,-101.644"/>
<polygon fill="none" stroke="#404040" points="132.513,-101.376 125.952,-98.3838 126.19,-91.1766 132.751,-94.1689 132.513,-101.376"/>
<text text-anchor="start" x="154" y="-146.5" font-family="Helvetica,sans-Serif" font-size="10.00"> +SubExpressionEvaluation</text>
<text text-anchor="middle" x="214.5" y="-135.5" font-family="Helvetica,sans-Serif" font-size="10.00">Needed</text>
<text text-anchor="middle" x="214.5" y="-124.5" font-family="Helvetica,sans-Serif" font-size="10.00">+policyType</text>
</g>
</g>
</svg>
