<?xml version="1.0" encoding="UTF-8" standalone="no"?>
<!DOCTYPE svg PUBLIC "-//W3C//DTD SVG 1.1//EN"
 "http://www.w3.org/Graphics/SVG/1.1/DTD/svg11.dtd">
<!-- Generated by graphviz version 2.36.0 (20140111.2315)
 -->
<!-- Title: visioncpp::internal::Coordinate&lt; LC, LR, ItemID &gt; Pages: 1 -->
<svg width="140pt" height="292pt"
 viewBox="0.00 0.00 140.00 292.00" xmlns="http://www.w3.org/2000/svg" xmlns:xlink="http://www.w3.org/1999/xlink">
<g id="graph0" class="graph" transform="scale(1 1) rotate(0) translate(4 288)">
<title>visioncpp::internal::Coordinate&lt; LC, LR, ItemID &gt;</title>
<!-- Node1 -->
<g id="node1" class="node"><title>Node1</title>
<polygon fill="#bfbfbf" stroke="black" points="3.5,-0.5 3.5,-101.5 116.5,-101.5 116.5,-0.5 3.5,-0.5"/>
<text text-anchor="start" x="11.5" y="-89.5" font-family="Helvetica,sans-Serif" font-size="10.00">visioncpp::internal</text>
<text text-anchor="start" x="11.5" y="-78.5" font-family="Helvetica,sans-Serif" font-size="10.00">::Coordinate&lt; LC, LR,</text>
<text text-anchor="middle" x="60" y="-67.5" font-family="Helvetica,sans-Serif" font-size="10.00"> ItemID &gt;</text>
<polyline fill="none" stroke="black" points="3.5,-60.5 116.5,-60.5 "/>
<text text-anchor="middle" x="60" y="-48.5" font-family="Helvetica,sans-Serif" font-size="10.00"> </text>
<polyline fill="none" stroke="black" points="3.5,-41.5 116.5,-41.5 "/>
<text text-anchor="start" x="11.5" y="-29.5" font-family="Helvetica,sans-Serif" font-size="10.00">+ Coordinate()</text>
<text text-anchor="start" x="11.5" y="-18.5" font-family="Helvetica,sans-Serif" font-size="10.00">+ barrier()</text>
<text text-anchor="start" x="11.5" y="-7.5" font-family="Helvetica,sans-Serif" font-size="10.00">+ global_barrier()</text>
</g>
<!-- Node2 -->
<g id="node2" class="node"><title>Node2</title>
<polygon fill="none" stroke="#bfbfbf" points="-0.5,-226.5 -0.5,-283.5 42.5,-283.5 42.5,-226.5 -0.5,-226.5"/>
<text text-anchor="middle" x="21" y="-271.5" font-family="Helvetica,sans-Serif" font-size="10.00">size_t</text>
<polyline fill="none" stroke="#bfbfbf" points="-0.5,-264.5 42.5,-264.5 "/>
<text text-anchor="middle" x="21" y="-252.5" font-family="Helvetica,sans-Serif" font-size="10.00"> </text>
<polyline fill="none" stroke="#bfbfbf" points="-0.5,-245.5 42.5,-245.5 "/>
<text text-anchor="middle" x="21" y="-233.5" font-family="Helvetica,sans-Serif" font-size="10.00"> </text>
</g>
<!-- Node2&#45;&gt;Node1 -->
<g id="edge1" class="edge"><title>Node2&#45;&gt;Node1</title>
<path fill="none" stroke="#404040" d="M17.2487,-226.267C14.4477,-198.792 12.5431,-155.761 22,-120 22.6094,-117.696 23.315,-115.386 24.1006,-113.083"/>
<polygon fill="none" stroke="#404040" points="24.1995,-112.834 22.692,-105.782 28.6215,-101.678 30.1291,-108.73 24.1995,-112.834"/>
<text text-anchor="middle" x="50" y="-200" font-family="Helvetica,sans-Serif" font-size="10.00"> +l_c</text>
<text text-anchor="middle" x="50" y="-189" font-family="Helvetica,sans-Serif" font-size="10.00">+pointOp_gr</text>
<text text-anchor="middle" x="50" y="-178" font-family="Helvetica,sans-Serif" font-size="10.00">+rLRng</text>
<text text-anchor="middle" x="50" y="-167" font-family="Helvetica,sans-Serif" font-size="10.00">+pointOp_gc</text>
<text text-anchor="middle" x="50" y="-156" font-family="Helvetica,sans-Serif" font-size="10.00">+cLRng</text>
<text text-anchor="middle" x="50" y="-145" font-family="Helvetica,sans-Serif" font-size="10.00">+g_r</text>
<text text-anchor="middle" x="50" y="-134" font-family="Helvetica,sans-Serif" font-size="10.00">+g_c</text>
<text text-anchor="middle" x="50" y="-123" font-family="Helvetica,sans-Serif" font-size="10.00">+l_r</text>
</g>
<!-- Node3 -->
<g id="node3" class="node"><title>Node3</title>
<polygon fill="none" stroke="#bfbfbf" points="76.5,-226.5 76.5,-283.5 123.5,-283.5 123.5,-226.5 76.5,-226.5"/>
<text text-anchor="middle" x="100" y="-271.5" font-family="Helvetica,sans-Serif" font-size="10.00">ItemID</text>
<polyline fill="none" stroke="#bfbfbf" points="76.5,-264.5 123.5,-264.5 "/>
<text text-anchor="middle" x="100" y="-252.5" font-family="Helvetica,sans-Serif" font-size="10.00"> </text>
<polyline fill="none" stroke="#bfbfbf" points="76.5,-245.5 123.5,-245.5 "/>
<text text-anchor="middle" x="100" y="-233.5" font-family="Helvetica,sans-Serif" font-size="10.00"> </text>
</g>
<!-- Node3&#45;&gt;Node1 -->
<g id="edge2" class="edge"><title>Node3&#45;&gt;Node1</title>
<path fill="none" stroke="#404040" d="M96.2588,-226.395C92.3876,-199.2 85.8169,-156.54 78,-120 77.541,-117.854 77.0577,-115.675 76.5558,-113.477"/>
<polygon fill="none" stroke="#404040" points="76.5147,-113.304 71.2302,-108.397 73.727,-101.632 79.0114,-106.539 76.5147,-113.304"/>
<text text-anchor="middle" x="112.5" y="-161.5" font-family="Helvetica,sans-Serif" font-size="10.00"> +itemID</text>
</g>
</g>
</svg>
