<?xml version="1.0" encoding="UTF-8" standalone="no"?>
<!DOCTYPE svg PUBLIC "-//W3C//DTD SVG 1.1//EN"
 "http://www.w3.org/Graphics/SVG/1.1/DTD/svg11.dtd">
<!-- Generated by graphviz version 2.36.0 (20140111.2315)
 -->
<!-- Title: visioncpp::internal::LocalOutput&lt; false, IsRoot, LC, LR, StnFilt&lt; OP, Halo_T, Halo_L, Halo_B, Halo_R, LHSExpr, RHSExpr, Cols, Rows, LeafType, LVL &gt; &gt; Pages: 1 -->
<svg width="172pt" height="260pt"
 viewBox="0.00 0.00 172.00 260.00" xmlns="http://www.w3.org/2000/svg" xmlns:xlink="http://www.w3.org/1999/xlink">
<g id="graph0" class="graph" transform="scale(1 1) rotate(0) translate(4 256)">
<title>visioncpp::internal::LocalOutput&lt; false, IsRoot, LC, LR, StnFilt&lt; OP, Halo_T, Halo_L, Halo_B, Halo_R, LHSExpr, RHSExpr, Cols, Rows, LeafType, LVL &gt; &gt;</title>
<!-- Node1 -->
<g id="node1" class="node"><title>Node1</title>
<polygon fill="#bfbfbf" stroke="black" points="0,-1 0,-113 164,-113 164,-1 0,-1"/>
<text text-anchor="start" x="8" y="-101" font-family="Helvetica,sans-Serif" font-size="10.00">visioncpp::internal</text>
<text text-anchor="start" x="8" y="-90" font-family="Helvetica,sans-Serif" font-size="10.00">::LocalOutput&lt; false,</text>
<text text-anchor="start" x="8" y="-79" font-family="Helvetica,sans-Serif" font-size="10.00"> IsRoot, LC, LR, StnFilt</text>
<text text-anchor="start" x="8" y="-68" font-family="Helvetica,sans-Serif" font-size="10.00">&lt; OP, Halo_T, Halo_L, Halo</text>
<text text-anchor="start" x="8" y="-57" font-family="Helvetica,sans-Serif" font-size="10.00">_B, Halo_R, LHSExpr, RHSExpr,</text>
<text text-anchor="middle" x="82" y="-46" font-family="Helvetica,sans-Serif" font-size="10.00"> Cols, Rows, LeafType, LVL &gt; &gt;</text>
<polyline fill="none" stroke="black" points="0,-39 164,-39 "/>
<text text-anchor="middle" x="82" y="-27" font-family="Helvetica,sans-Serif" font-size="10.00"> </text>
<polyline fill="none" stroke="black" points="0,-20 164,-20 "/>
<text text-anchor="start" x="8" y="-8" font-family="Helvetica,sans-Serif" font-size="10.00">+ getTuple()</text>
</g>
<!-- Node2 -->
<g id="node2" class="node"><title>Node2</title>
<polygon fill="none" stroke="#bfbfbf" points="60.5,-194.5 60.5,-251.5 103.5,-251.5 103.5,-194.5 60.5,-194.5"/>
<text text-anchor="middle" x="82" y="-239.5" font-family="Helvetica,sans-Serif" font-size="10.00">size_t</text>
<polyline fill="none" stroke="#bfbfbf" points="60.5,-232.5 103.5,-232.5 "/>
<text text-anchor="middle" x="82" y="-220.5" font-family="Helvetica,sans-Serif" font-size="10.00"> </text>
<polyline fill="none" stroke="#bfbfbf" points="60.5,-213.5 103.5,-213.5 "/>
<text text-anchor="middle" x="82" y="-201.5" font-family="Helvetica,sans-Serif" font-size="10.00"> </text>
</g>
<!-- Node2&#45;&gt;Node1 -->
<g id="edge1" class="edge"><title>Node2&#45;&gt;Node1</title>
<path fill="none" stroke="#404040" d="M82,-194.18C82,-175.26 82,-149.377 82,-125.253"/>
<polygon fill="none" stroke="#404040" points="82.0001,-125.219 78,-119.219 82,-113.219 86,-119.219 82.0001,-125.219"/>
<text text-anchor="middle" x="110.5" y="-168" font-family="Helvetica,sans-Serif" font-size="10.00"> +Out_LR</text>
<text text-anchor="middle" x="110.5" y="-157" font-family="Helvetica,sans-Serif" font-size="10.00">+Out_LC</text>
<text text-anchor="middle" x="110.5" y="-146" font-family="Helvetica,sans-Serif" font-size="10.00">+Halo_COL</text>
<text text-anchor="middle" x="110.5" y="-135" font-family="Helvetica,sans-Serif" font-size="10.00">+Halo_ROW</text>
</g>
</g>
</svg>
