<?xml version="1.0" encoding="UTF-8" standalone="no"?>
<!DOCTYPE svg PUBLIC "-//W3C//DTD SVG 1.1//EN"
 "http://www.w3.org/Graphics/SVG/1.1/DTD/svg11.dtd">
<!-- Generated by graphviz version 2.43.0 (0)
 -->
<!-- Title: visioncpp::internal::VisionMemory&lt; MapAllocator, ScalarType, MemoryType, Sclr, Col, Row, ElementTp, Elements, Sc, LVL &gt; Pages: 1 -->
<svg width="534pt" height="424pt"
 viewBox="0.00 0.00 534.00 424.00" xmlns="http://www.w3.org/2000/svg" xmlns:xlink="http://www.w3.org/1999/xlink">
<g id="graph0" class="graph" transform="scale(1 1) rotate(0) translate(4 420)">
<title>visioncpp::internal::VisionMemory&lt; MapAllocator, ScalarType, MemoryType, Sclr, Col, Row, ElementTp, Elements, Sc, LVL &gt;</title>
<!-- Node1 -->
<g id="node1" class="node">
<title>Node1</title>
<g id="a_node1"><a xlink:title="Definition of VisionMemory.">
<polygon fill="#bfbfbf" stroke="black" points="153,-0.5 153,-211.5 325,-211.5 325,-0.5 153,-0.5"/>
<text text-anchor="start" x="161" y="-199.5" font-family="Helvetica,sans-Serif" font-size="10.00">visioncpp::internal</text>
<text text-anchor="start" x="161" y="-188.5" font-family="Helvetica,sans-Serif" font-size="10.00">::VisionMemory&lt; MapAllocator,</text>
<text text-anchor="start" x="161" y="-177.5" font-family="Helvetica,sans-Serif" font-size="10.00"> ScalarType, MemoryType,</text>
<text text-anchor="start" x="161" y="-166.5" font-family="Helvetica,sans-Serif" font-size="10.00"> Sclr, Col, Row, ElementTp,</text>
<text text-anchor="middle" x="239" y="-155.5" font-family="Helvetica,sans-Serif" font-size="10.00"> Elements, Sc, LVL &gt;</text>
<polyline fill="none" stroke="black" points="153,-148.5 325,-148.5 "/>
<text text-anchor="middle" x="239" y="-136.5" font-family="Helvetica,sans-Serif" font-size="10.00"> </text>
<polyline fill="none" stroke="black" points="153,-129.5 325,-129.5 "/>
<text text-anchor="start" x="161" y="-117.5" font-family="Helvetica,sans-Serif" font-size="10.00">+ VisionMemory()</text>
<text text-anchor="start" x="161" y="-106.5" font-family="Helvetica,sans-Serif" font-size="10.00">+ VisionMemory()</text>
<text text-anchor="start" x="161" y="-95.5" font-family="Helvetica,sans-Serif" font-size="10.00">+ VisionMemory()</text>
<text text-anchor="start" x="161" y="-84.5" font-family="Helvetica,sans-Serif" font-size="10.00">+ sub_expression_evaluation()</text>
<text text-anchor="start" x="161" y="-73.5" font-family="Helvetica,sans-Serif" font-size="10.00">+ get_device_accessor()</text>
<text text-anchor="start" x="161" y="-62.5" font-family="Helvetica,sans-Serif" font-size="10.00">+ reset_input()</text>
<text text-anchor="start" x="161" y="-51.5" font-family="Helvetica,sans-Serif" font-size="10.00">+ set_output()</text>
<text text-anchor="start" x="161" y="-40.5" font-family="Helvetica,sans-Serif" font-size="10.00">+ lock()</text>
<text text-anchor="start" x="161" y="-29.5" font-family="Helvetica,sans-Serif" font-size="10.00">+ unlock()</text>
<text text-anchor="start" x="161" y="-18.5" font-family="Helvetica,sans-Serif" font-size="10.00">+ used_memory()</text>
<text text-anchor="start" x="161" y="-7.5" font-family="Helvetica,sans-Serif" font-size="10.00">+ get_size()</text>
</a>
</g>
</g>
<!-- Node2 -->
<g id="node2" class="node">
<title>Node2</title>
<g id="a_node2"><a xlink:title=" ">
<polygon fill="none" stroke="#bfbfbf" points="0,-347.5 0,-404.5 140,-404.5 140,-347.5 0,-347.5"/>
<text text-anchor="middle" x="70" y="-392.5" font-family="Helvetica,sans-Serif" font-size="10.00">shared_ptr&lt; syclBuffer &gt;</text>
<polyline fill="none" stroke="#bfbfbf" points="0,-385.5 140,-385.5 "/>
<text text-anchor="middle" x="70" y="-373.5" font-family="Helvetica,sans-Serif" font-size="10.00"> </text>
<polyline fill="none" stroke="#bfbfbf" points="0,-366.5 140,-366.5 "/>
<text text-anchor="middle" x="70" y="-354.5" font-family="Helvetica,sans-Serif" font-size="10.00"> </text>
</a>
</g>
</g>
<!-- Node2&#45;&gt;Node1 -->
<g id="edge1" class="edge">
<title>Node2&#45;&gt;Node1</title>
<path fill="none" stroke="#404040" d="M74.67,-347.45C80.72,-317.01 93.29,-267.35 116,-230 124.13,-216.63 134,-203.64 144.58,-191.42"/>
<polygon fill="none" stroke="#404040" points="144.8,-191.18 145.81,-184.04 152.79,-182.23 151.78,-189.37 144.8,-191.18"/>
<text text-anchor="middle" x="143.5" y="-271.5" font-family="Helvetica,sans-Serif" font-size="10.00"> +syclData</text>
</g>
<!-- Node3 -->
<g id="node3" class="node">
<title>Node3</title>
<g id="a_node3"><a xlink:title=" ">
<polygon fill="none" stroke="#bfbfbf" points="158.5,-347.5 158.5,-404.5 203.5,-404.5 203.5,-347.5 158.5,-347.5"/>
<text text-anchor="middle" x="181" y="-392.5" font-family="Helvetica,sans-Serif" font-size="10.00">size_t</text>
<polyline fill="none" stroke="#bfbfbf" points="158.5,-385.5 203.5,-385.5 "/>
<text text-anchor="middle" x="181" y="-373.5" font-family="Helvetica,sans-Serif" font-size="10.00"> </text>
<polyline fill="none" stroke="#bfbfbf" points="158.5,-366.5 203.5,-366.5 "/>
<text text-anchor="middle" x="181" y="-354.5" font-family="Helvetica,sans-Serif" font-size="10.00"> </text>
</a>
</g>
</g>
<!-- Node3&#45;&gt;Node1 -->
<g id="edge2" class="edge">
<title>Node3&#45;&gt;Node1</title>
<path fill="none" stroke="#404040" d="M177.75,-347.35C175.08,-317.88 173.03,-270.04 182,-230 182.49,-227.81 183.02,-225.62 183.59,-223.42"/>
<polygon fill="none" stroke="#404040" points="183.66,-223.17 181.49,-216.3 186.99,-211.65 189.17,-218.52 183.66,-223.17"/>
<text text-anchor="middle" x="229" y="-310" font-family="Helvetica,sans-Serif" font-size="10.00"> +Channels</text>
<text text-anchor="middle" x="229" y="-299" font-family="Helvetica,sans-Serif" font-size="10.00">+Cols</text>
<text text-anchor="middle" x="229" y="-288" font-family="Helvetica,sans-Serif" font-size="10.00">+Dim</text>
<text text-anchor="middle" x="229" y="-277" font-family="Helvetica,sans-Serif" font-size="10.00">+LeafType</text>
<text text-anchor="middle" x="229" y="-266" font-family="Helvetica,sans-Serif" font-size="10.00">+Level</text>
<text text-anchor="middle" x="229" y="-255" font-family="Helvetica,sans-Serif" font-size="10.00">+MemoryCategory</text>
<text text-anchor="middle" x="229" y="-244" font-family="Helvetica,sans-Serif" font-size="10.00">+Rows</text>
<text text-anchor="middle" x="229" y="-233" font-family="Helvetica,sans-Serif" font-size="10.00">+scope</text>
</g>
<!-- Node4 -->
<g id="node4" class="node">
<title>Node4</title>
<g id="a_node4"><a xlink:title=" ">
<polygon fill="none" stroke="#bfbfbf" points="279,-347.5 279,-404.5 317,-404.5 317,-347.5 279,-347.5"/>
<text text-anchor="middle" x="298" y="-392.5" font-family="Helvetica,sans-Serif" font-size="10.00">bool</text>
<polyline fill="none" stroke="#bfbfbf" points="279,-385.5 317,-385.5 "/>
<text text-anchor="middle" x="298" y="-373.5" font-family="Helvetica,sans-Serif" font-size="10.00"> </text>
<polyline fill="none" stroke="#bfbfbf" points="279,-366.5 317,-366.5 "/>
<text text-anchor="middle" x="298" y="-354.5" font-family="Helvetica,sans-Serif" font-size="10.00"> </text>
</a>
</g>
</g>
<!-- Node4&#45;&gt;Node1 -->
<g id="edge3" class="edge">
<title>Node4&#45;&gt;Node1</title>
<path fill="none" stroke="#404040" d="M294.98,-347.26C291.5,-317.91 285.09,-270.37 276,-230 275.52,-227.85 275.01,-225.68 274.5,-223.5"/>
<polygon fill="none" stroke="#404040" points="274.47,-223.4 269.15,-218.53 271.59,-211.75 276.91,-216.61 274.47,-223.4"/>
<text text-anchor="middle" x="356" y="-282.5" font-family="Helvetica,sans-Serif" font-size="10.00"> +HasMapAllocator</text>
<text text-anchor="start" x="290" y="-271.5" font-family="Helvetica,sans-Serif" font-size="10.00">+SubExpressionEvaluation</text>
<text text-anchor="middle" x="356" y="-260.5" font-family="Helvetica,sans-Serif" font-size="10.00">Needed</text>
</g>
<!-- Node5 -->
<g id="node5" class="node">
<title>Node5</title>
<g id="a_node5"><a xlink:title=" ">
<polygon fill="none" stroke="#bfbfbf" points="380,-336.5 380,-415.5 526,-415.5 526,-336.5 380,-336.5"/>
<text text-anchor="start" x="388" y="-403.5" font-family="Helvetica,sans-Serif" font-size="10.00">shared_ptr&lt; HostAccessor</text>
<text text-anchor="start" x="388" y="-392.5" font-family="Helvetica,sans-Serif" font-size="10.00">&lt; cl::sycl::access::mode</text>
<text text-anchor="middle" x="453" y="-381.5" font-family="Helvetica,sans-Serif" font-size="10.00">::read &gt; &gt;</text>
<polyline fill="none" stroke="#bfbfbf" points="380,-374.5 526,-374.5 "/>
<text text-anchor="middle" x="453" y="-362.5" font-family="Helvetica,sans-Serif" font-size="10.00"> </text>
<polyline fill="none" stroke="#bfbfbf" points="380,-355.5 526,-355.5 "/>
<text text-anchor="middle" x="453" y="-343.5" font-family="Helvetica,sans-Serif" font-size="10.00"> </text>
</a>
</g>
</g>
<!-- Node5&#45;&gt;Node1 -->
<g id="edge4" class="edge">
<title>Node5&#45;&gt;Node1</title>
<path fill="none" stroke="#404040" d="M453.84,-336.21C452.72,-305.09 446.98,-261.56 426,-230 403.88,-196.71 369.34,-170.31 335.94,-150.64"/>
<polygon fill="none" stroke="#404040" points="335.57,-150.44 328.38,-150.94 325.15,-144.49 332.34,-143.99 335.57,-150.44"/>
<text text-anchor="middle" x="477" y="-271.5" font-family="Helvetica,sans-Serif" font-size="10.00"> +hostAcc</text>
</g>
</g>
</svg>
