<?xml version="1.0" encoding="UTF-8" standalone="no"?>
<!DOCTYPE svg PUBLIC "-//W3C//DTD SVG 1.1//EN"
 "http://www.w3.org/Graphics/SVG/1.1/DTD/svg11.dtd">
<!-- Generated by graphviz version 2.43.0 (0)
 -->
<!-- Title: visioncpp::internal::MemoryProperties&lt; int &gt; Pages: 1 -->
<svg width="176pt" height="193pt"
 viewBox="0.00 0.00 176.00 193.00" xmlns="http://www.w3.org/2000/svg" xmlns:xlink="http://www.w3.org/1999/xlink">
<g id="graph0" class="graph" transform="scale(1 1) rotate(0) translate(4 189)">
<title>visioncpp::internal::MemoryProperties&lt; int &gt;</title>
<!-- Node1 -->
<g id="node1" class="node">
<title>Node1</title>
<g id="a_node1"><a xlink:title="Specialisation of the MemoryProperties when the output is int.">
<polygon fill="#bfbfbf" stroke="black" points="0,-0.5 0,-68.5 148,-68.5 148,-0.5 0,-0.5"/>
<text text-anchor="start" x="8" y="-56.5" font-family="Helvetica,sans-Serif" font-size="10.00">visioncpp::internal</text>
<text text-anchor="middle" x="74" y="-45.5" font-family="Helvetica,sans-Serif" font-size="10.00">::MemoryProperties&lt; int &gt;</text>
<polyline fill="none" stroke="black" points="0,-38.5 148,-38.5 "/>
<text text-anchor="middle" x="74" y="-26.5" font-family="Helvetica,sans-Serif" font-size="10.00"> </text>
<polyline fill="none" stroke="black" points="0,-19.5 148,-19.5 "/>
<text text-anchor="middle" x="74" y="-7.5" font-family="Helvetica,sans-Serif" font-size="10.00"> </text>
</a>
</g>
</g>
<!-- Node2 -->
<g id="node2" class="node">
<title>Node2</title>
<g id="a_node2"><a xlink:title=" ">
<polygon fill="none" stroke="#bfbfbf" points="51.5,-127.5 51.5,-184.5 96.5,-184.5 96.5,-127.5 51.5,-127.5"/>
<text text-anchor="middle" x="74" y="-172.5" font-family="Helvetica,sans-Serif" font-size="10.00">size_t</text>
<polyline fill="none" stroke="#bfbfbf" points="51.5,-165.5 96.5,-165.5 "/>
<text text-anchor="middle" x="74" y="-153.5" font-family="Helvetica,sans-Serif" font-size="10.00"> </text>
<polyline fill="none" stroke="#bfbfbf" points="51.5,-146.5 96.5,-146.5 "/>
<text text-anchor="middle" x="74" y="-134.5" font-family="Helvetica,sans-Serif" font-size="10.00"> </text>
</a>
</g>
</g>
<!-- Node2&#45;&gt;Node1 -->
<g id="edge1" class="edge">
<title>Node2&#45;&gt;Node1</title>
<path fill="none" stroke="#404040" d="M74,-127.28C74,-113.47 74,-96.4 74,-80.75"/>
<polygon fill="none" stroke="#404040" points="74,-80.59 70,-74.59 74,-68.59 78,-74.59 74,-80.59"/>
<text text-anchor="middle" x="121" y="-101" font-family="Helvetica,sans-Serif" font-size="10.00"> +ChannelSize</text>
<text text-anchor="middle" x="121" y="-90" font-family="Helvetica,sans-Serif" font-size="10.00">+ElementCategory</text>
</g>
</g>
</svg>
