<?xml version="1.0" encoding="UTF-8" standalone="no"?>
<!DOCTYPE svg PUBLIC "-//W3C//DTD SVG 1.1//EN"
 "http://www.w3.org/Graphics/SVG/1.1/DTD/svg11.dtd">
<!-- Generated by graphviz version 2.43.0 (0)
 -->
<!-- Title: visioncpp::internal::SyclScope&lt; memory_type::Image, scope::Global &gt; Pages: 1 -->
<svg width="133pt" height="204pt"
 viewBox="0.00 0.00 133.00 204.00" xmlns="http://www.w3.org/2000/svg" xmlns:xlink="http://www.w3.org/1999/xlink">
<g id="graph0" class="graph" transform="scale(1 1) rotate(0) translate(4 200)">
<title>visioncpp::internal::SyclScope&lt; memory_type::Image, scope::Global &gt;</title>
<!-- Node1 -->
<g id="node1" class="node">
<title>Node1</title>
<g id="a_node1"><a xlink:title="specialisation of the SyclScope when the memory type is Image">
<polygon fill="#bfbfbf" stroke="black" points="0,-0.5 0,-90.5 125,-90.5 125,-0.5 0,-0.5"/>
<text text-anchor="start" x="8" y="-78.5" font-family="Helvetica,sans-Serif" font-size="10.00">visioncpp::internal</text>
<text text-anchor="start" x="8" y="-67.5" font-family="Helvetica,sans-Serif" font-size="10.00">::SyclScope&lt; memory</text>
<text text-anchor="start" x="8" y="-56.5" font-family="Helvetica,sans-Serif" font-size="10.00">_type::Image, scope::</text>
<text text-anchor="middle" x="62.5" y="-45.5" font-family="Helvetica,sans-Serif" font-size="10.00">Global &gt;</text>
<polyline fill="none" stroke="black" points="0,-38.5 125,-38.5 "/>
<text text-anchor="middle" x="62.5" y="-26.5" font-family="Helvetica,sans-Serif" font-size="10.00"> </text>
<polyline fill="none" stroke="black" points="0,-19.5 125,-19.5 "/>
<text text-anchor="middle" x="62.5" y="-7.5" font-family="Helvetica,sans-Serif" font-size="10.00"> </text>
</a>
</g>
</g>
<!-- Node2 -->
<g id="node2" class="node">
<title>Node2</title>
<g id="a_node2"><a xlink:title=" ">
<polygon fill="none" stroke="#bfbfbf" points="39.5,-138.5 39.5,-195.5 85.5,-195.5 85.5,-138.5 39.5,-138.5"/>
<text text-anchor="middle" x="62.5" y="-183.5" font-family="Helvetica,sans-Serif" font-size="10.00">target</text>
<polyline fill="none" stroke="#bfbfbf" points="39.5,-176.5 85.5,-176.5 "/>
<text text-anchor="middle" x="62.5" y="-164.5" font-family="Helvetica,sans-Serif" font-size="10.00"> </text>
<polyline fill="none" stroke="#bfbfbf" points="39.5,-157.5 85.5,-157.5 "/>
<text text-anchor="middle" x="62.5" y="-145.5" font-family="Helvetica,sans-Serif" font-size="10.00"> </text>
</a>
</g>
</g>
<!-- Node2&#45;&gt;Node1 -->
<g id="edge1" class="edge">
<title>Node2&#45;&gt;Node1</title>
<path fill="none" stroke="#404040" d="M62.5,-138.28C62.5,-127.73 62.5,-115.29 62.5,-103.03"/>
<polygon fill="none" stroke="#404040" points="62.5,-102.91 58.5,-96.91 62.5,-90.91 66.5,-96.91 62.5,-102.91"/>
<text text-anchor="middle" x="82.5" y="-112" font-family="Helvetica,sans-Serif" font-size="10.00"> +scope</text>
</g>
</g>
</svg>
