<?xml version="1.0" encoding="UTF-8" standalone="no"?>
<!DOCTYPE svg PUBLIC "-//W3C//DTD SVG 1.1//EN"
 "http://www.w3.org/Graphics/SVG/1.1/DTD/svg11.dtd">
<!-- Generated by graphviz version 2.43.0 (0)
 -->
<!-- Title: visioncpp::internal::LeafCount&lt; expr_category::Unary, LeafNode&lt; RHS, LVL &gt; &gt; Pages: 1 -->
<svg width="161pt" height="204pt"
 viewBox="0.00 0.00 161.00 204.00" xmlns="http://www.w3.org/2000/svg" xmlns:xlink="http://www.w3.org/1999/xlink">
<g id="graph0" class="graph" transform="scale(1 1) rotate(0) translate(4 200)">
<title>visioncpp::internal::LeafCount&lt; expr_category::Unary, LeafNode&lt; RHS, LVL &gt; &gt;</title>
<!-- Node1 -->
<g id="node1" class="node">
<title>Node1</title>
<g id="a_node1"><a xlink:title="specialisation of LeafCount when the node is a LeafNode template parameters:">
<polygon fill="#bfbfbf" stroke="black" points="0,-0.5 0,-90.5 153,-90.5 153,-0.5 0,-0.5"/>
<text text-anchor="start" x="8" y="-78.5" font-family="Helvetica,sans-Serif" font-size="10.00">visioncpp::internal</text>
<text text-anchor="start" x="8" y="-67.5" font-family="Helvetica,sans-Serif" font-size="10.00">::LeafCount&lt; expr_category</text>
<text text-anchor="start" x="8" y="-56.5" font-family="Helvetica,sans-Serif" font-size="10.00">::Unary, LeafNode&lt; RHS,</text>
<text text-anchor="middle" x="76.5" y="-45.5" font-family="Helvetica,sans-Serif" font-size="10.00"> LVL &gt; &gt;</text>
<polyline fill="none" stroke="black" points="0,-38.5 153,-38.5 "/>
<text text-anchor="middle" x="76.5" y="-26.5" font-family="Helvetica,sans-Serif" font-size="10.00"> </text>
<polyline fill="none" stroke="black" points="0,-19.5 153,-19.5 "/>
<text text-anchor="middle" x="76.5" y="-7.5" font-family="Helvetica,sans-Serif" font-size="10.00"> </text>
</a>
</g>
</g>
<!-- Node2 -->
<g id="node2" class="node">
<title>Node2</title>
<g id="a_node2"><a xlink:title=" ">
<polygon fill="none" stroke="#bfbfbf" points="54,-138.5 54,-195.5 99,-195.5 99,-138.5 54,-138.5"/>
<text text-anchor="middle" x="76.5" y="-183.5" font-family="Helvetica,sans-Serif" font-size="10.00">size_t</text>
<polyline fill="none" stroke="#bfbfbf" points="54,-176.5 99,-176.5 "/>
<text text-anchor="middle" x="76.5" y="-164.5" font-family="Helvetica,sans-Serif" font-size="10.00"> </text>
<polyline fill="none" stroke="#bfbfbf" points="54,-157.5 99,-157.5 "/>
<text text-anchor="middle" x="76.5" y="-145.5" font-family="Helvetica,sans-Serif" font-size="10.00"> </text>
</a>
</g>
</g>
<!-- Node2&#45;&gt;Node1 -->
<g id="edge1" class="edge">
<title>Node2&#45;&gt;Node1</title>
<path fill="none" stroke="#404040" d="M76.5,-138.28C76.5,-127.73 76.5,-115.29 76.5,-103.03"/>
<polygon fill="none" stroke="#404040" points="76.5,-102.91 72.5,-96.91 76.5,-90.91 80.5,-96.91 76.5,-102.91"/>
<text text-anchor="middle" x="96.5" y="-112" font-family="Helvetica,sans-Serif" font-size="10.00"> +Count</text>
</g>
</g>
</svg>
