<?xml version="1.0" encoding="UTF-8" standalone="no"?>
<!DOCTYPE svg PUBLIC "-//W3C//DTD SVG 1.1//EN"
 "http://www.w3.org/Graphics/SVG/1.1/DTD/svg11.dtd">
<!-- Generated by graphviz version 2.36.0 (20140111.2315)
 -->
<!-- Title: visioncpp::internal::Fill&lt; LeafNode&lt; PlaceHolder&lt; Memory_Type, N, Cols, Rows, Sc &gt;, LVL &gt;, Loc, Params...&gt;::fill_neighbour Pages: 1 -->
<svg width="436pt" height="92pt"
 viewBox="0.00 0.00 436.00 92.00" xmlns="http://www.w3.org/2000/svg" xmlns:xlink="http://www.w3.org/1999/xlink">
<g id="graph0" class="graph" transform="scale(1 1) rotate(0) translate(4 88)">
<title>visioncpp::internal::Fill&lt; LeafNode&lt; PlaceHolder&lt; Memory_Type, N, Cols, Rows, Sc &gt;, LVL &gt;, Loc, Params...&gt;::fill_neighbour</title>
<!-- Node1 -->
<g id="node1" class="node"><title>Node1</title>
<polygon fill="#bfbfbf" stroke="black" points="0,-12.5 0,-75.5 162,-75.5 162,-12.5 0,-12.5"/>
<text text-anchor="start" x="8" y="-63.5" font-family="Helvetica,sans-Serif" font-size="10.00">visioncpp::internal</text>
<text text-anchor="start" x="8" y="-52.5" font-family="Helvetica,sans-Serif" font-size="10.00">::Fill&lt; LeafNode&lt; PlaceHolder</text>
<text text-anchor="start" x="8" y="-41.5" font-family="Helvetica,sans-Serif" font-size="10.00">&lt; Memory_Type, N, Cols, Rows,</text>
<text text-anchor="start" x="8" y="-30.5" font-family="Helvetica,sans-Serif" font-size="10.00"> Sc &gt;, LVL &gt;, Loc, Params...&gt;</text>
<text text-anchor="middle" x="81" y="-19.5" font-family="Helvetica,sans-Serif" font-size="10.00">::fill_neighbour</text>
</g>
<!-- Node2 -->
<g id="node2" class="node"><title>Node2</title>
<g id="a_node2"><a xlink:href="namespacevisioncpp_1_1internal.html#a432878bd5a7c47c218a371ecf9eefe6a" target="_top" xlink:title="function calculate_index ">
<polygon fill="none" stroke="black" points="198.5,-54 198.5,-84 293.5,-84 293.5,-54 198.5,-54"/>
<text text-anchor="start" x="206.5" y="-72" font-family="Helvetica,sans-Serif" font-size="10.00">visioncpp::internal</text>
<text text-anchor="middle" x="246" y="-61" font-family="Helvetica,sans-Serif" font-size="10.00">::calculate_index</text>
</a>
</g>
</g>
<!-- Node1&#45;&gt;Node2 -->
<g id="edge1" class="edge"><title>Node1&#45;&gt;Node2</title>
<path fill="none" stroke="midnightblue" d="M162.067,-56.2803C170.882,-57.6322 179.719,-58.9876 188.166,-60.2831"/>
<polygon fill="midnightblue" stroke="midnightblue" points="187.833,-63.7729 198.248,-61.8295 188.894,-56.8538 187.833,-63.7729"/>
</g>
<!-- Node3 -->
<g id="node3" class="node"><title>Node3</title>
<g id="a_node3"><a xlink:href="namespacevisioncpp_1_1internal_1_1tools.html#ad0890ca41e9275137b7a578b24136dbe" target="_top" xlink:title="function convert ">
<polygon fill="none" stroke="black" points="198.5,-5 198.5,-35 293.5,-35 293.5,-5 198.5,-5"/>
<text text-anchor="start" x="206.5" y="-23" font-family="Helvetica,sans-Serif" font-size="10.00">visioncpp::internal</text>
<text text-anchor="middle" x="246" y="-12" font-family="Helvetica,sans-Serif" font-size="10.00">::tools::convert</text>
</a>
</g>
</g>
<!-- Node1&#45;&gt;Node3 -->
<g id="edge2" class="edge"><title>Node1&#45;&gt;Node3</title>
<path fill="none" stroke="midnightblue" d="M162.067,-32.2109C170.882,-30.9131 179.719,-29.6119 188.166,-28.3682"/>
<polygon fill="midnightblue" stroke="midnightblue" points="188.865,-31.8032 198.248,-26.8837 187.845,-24.8778 188.865,-31.8032"/>
</g>
<!-- Node4 -->
<g id="node4" class="node"><title>Node4</title>
<g id="a_node4"><a xlink:href="structvisioncpp_1_1internal_1_1tools_1_1Convertor.html#a50519510c30e56ead8657c8a06d8c9d4" target="_top" xlink:title="function convert ">
<polygon fill="none" stroke="black" points="330,0.5 330,-40.5 428,-40.5 428,0.5 330,0.5"/>
<text text-anchor="start" x="338" y="-28.5" font-family="Helvetica,sans-Serif" font-size="10.00">visioncpp::internal</text>
<text text-anchor="start" x="338" y="-17.5" font-family="Helvetica,sans-Serif" font-size="10.00">::tools::Convertor::</text>
<text text-anchor="middle" x="379" y="-6.5" font-family="Helvetica,sans-Serif" font-size="10.00">convert</text>
</a>
</g>
</g>
<!-- Node3&#45;&gt;Node4 -->
<g id="edge3" class="edge"><title>Node3&#45;&gt;Node4</title>
<path fill="none" stroke="midnightblue" d="M293.555,-20C302.012,-20 310.93,-20 319.676,-20"/>
<polygon fill="midnightblue" stroke="midnightblue" points="319.825,-23.5001 329.825,-20 319.825,-16.5001 319.825,-23.5001"/>
</g>
</g>
</svg>
