<?xml version="1.0" encoding="UTF-8" standalone="no"?>
<!DOCTYPE svg PUBLIC "-//W3C//DTD SVG 1.1//EN"
 "http://www.w3.org/Graphics/SVG/1.1/DTD/svg11.dtd">
<!-- Generated by graphviz version 2.43.0 (0)
 -->
<!-- Title: visioncpp::internal::PixelBinaryOp&lt; USROP, InTp1, InTp2 &gt; Pages: 1 -->
<svg width="147pt" height="193pt"
 viewBox="0.00 0.00 147.00 193.00" xmlns="http://www.w3.org/2000/svg" xmlns:xlink="http://www.w3.org/1999/xlink">
<g id="graph0" class="graph" transform="scale(1 1) rotate(0) translate(4 189)">
<title>visioncpp::internal::PixelBinaryOp&lt; USROP, InTp1, InTp2 &gt;</title>
<!-- Node1 -->
<g id="node1" class="node">
<title>Node1</title>
<g id="a_node1"><a xlink:title="This class is used to encapsulate the binary point operation functor and the types of each operand in...">
<polygon fill="#bfbfbf" stroke="black" points="0,-0.5 0,-79.5 139,-79.5 139,-0.5 0,-0.5"/>
<text text-anchor="start" x="8" y="-67.5" font-family="Helvetica,sans-Serif" font-size="10.00">visioncpp::internal</text>
<text text-anchor="start" x="8" y="-56.5" font-family="Helvetica,sans-Serif" font-size="10.00">::PixelBinaryOp&lt; USROP,</text>
<text text-anchor="middle" x="69.5" y="-45.5" font-family="Helvetica,sans-Serif" font-size="10.00"> InTp1, InTp2 &gt;</text>
<polyline fill="none" stroke="black" points="0,-38.5 139,-38.5 "/>
<text text-anchor="middle" x="69.5" y="-26.5" font-family="Helvetica,sans-Serif" font-size="10.00"> </text>
<polyline fill="none" stroke="black" points="0,-19.5 139,-19.5 "/>
<text text-anchor="middle" x="69.5" y="-7.5" font-family="Helvetica,sans-Serif" font-size="10.00"> </text>
</a>
</g>
</g>
<!-- Node2 -->
<g id="node2" class="node">
<title>Node2</title>
<g id="a_node2"><a xlink:title=" ">
<polygon fill="none" stroke="#bfbfbf" points="16.5,-127.5 16.5,-184.5 60.5,-184.5 60.5,-127.5 16.5,-127.5"/>
<text text-anchor="middle" x="38.5" y="-172.5" font-family="Helvetica,sans-Serif" font-size="10.00">InTp1</text>
<polyline fill="none" stroke="#bfbfbf" points="16.5,-165.5 60.5,-165.5 "/>
<text text-anchor="middle" x="38.5" y="-153.5" font-family="Helvetica,sans-Serif" font-size="10.00"> </text>
<polyline fill="none" stroke="#bfbfbf" points="16.5,-146.5 60.5,-146.5 "/>
<text text-anchor="middle" x="38.5" y="-134.5" font-family="Helvetica,sans-Serif" font-size="10.00"> </text>
</a>
</g>
</g>
<!-- Node2&#45;&gt;Node1 -->
<g id="edge1" class="edge">
<title>Node2&#45;&gt;Node1</title>
<path fill="none" stroke="#404040" d="M46,-127.4C48.96,-116.52 52.46,-103.66 55.84,-91.24"/>
<polygon fill="none" stroke="#404040" points="55.87,-91.12 53.59,-84.28 59.02,-79.54 61.31,-86.38 55.87,-91.12"/>
<text text-anchor="middle" x="63.5" y="-101" font-family="Helvetica,sans-Serif" font-size="10.00"> +x</text>
</g>
<!-- Node3 -->
<g id="node3" class="node">
<title>Node3</title>
<g id="a_node3"><a xlink:title=" ">
<polygon fill="none" stroke="#bfbfbf" points="78.5,-127.5 78.5,-184.5 122.5,-184.5 122.5,-127.5 78.5,-127.5"/>
<text text-anchor="middle" x="100.5" y="-172.5" font-family="Helvetica,sans-Serif" font-size="10.00">InTp2</text>
<polyline fill="none" stroke="#bfbfbf" points="78.5,-165.5 122.5,-165.5 "/>
<text text-anchor="middle" x="100.5" y="-153.5" font-family="Helvetica,sans-Serif" font-size="10.00"> </text>
<polyline fill="none" stroke="#bfbfbf" points="78.5,-146.5 122.5,-146.5 "/>
<text text-anchor="middle" x="100.5" y="-134.5" font-family="Helvetica,sans-Serif" font-size="10.00"> </text>
</a>
</g>
</g>
<!-- Node3&#45;&gt;Node1 -->
<g id="edge2" class="edge">
<title>Node3&#45;&gt;Node1</title>
<path fill="none" stroke="#404040" d="M93,-127.4C90.04,-116.52 86.54,-103.66 83.16,-91.24"/>
<polygon fill="none" stroke="#404040" points="83.13,-91.12 77.69,-86.38 79.98,-79.54 85.41,-84.28 83.13,-91.12"/>
<text text-anchor="middle" x="96.5" y="-101" font-family="Helvetica,sans-Serif" font-size="10.00"> +y</text>
</g>
</g>
</svg>
