<?xml version="1.0" encoding="UTF-8" standalone="no"?>
<!DOCTYPE svg PUBLIC "-//W3C//DTD SVG 1.1//EN"
 "http://www.w3.org/Graphics/SVG/1.1/DTD/svg11.dtd">
<!-- Generated by graphviz version 2.43.0 (0)
 -->
<!-- Title: visioncpp::internal::GlobalUnaryOp&lt; USROP, InTp &gt; Pages: 1 -->
<svg width="227pt" height="568pt"
 viewBox="0.00 0.00 226.50 568.00" xmlns="http://www.w3.org/2000/svg" xmlns:xlink="http://www.w3.org/1999/xlink">
<g id="graph0" class="graph" transform="scale(1 1) rotate(0) translate(4 564)">
<title>visioncpp::internal::GlobalUnaryOp&lt; USROP, InTp &gt;</title>
<!-- Node1 -->
<g id="node1" class="node">
<title>Node1</title>
<g id="a_node1"><a xlink:title="This class is used to encapsulate the global unary functor and the types of each operand in this func...">
<polygon fill="#bfbfbf" stroke="black" points="0,-0.5 0,-79.5 145,-79.5 145,-0.5 0,-0.5"/>
<text text-anchor="start" x="8" y="-67.5" font-family="Helvetica,sans-Serif" font-size="10.00">visioncpp::internal</text>
<text text-anchor="start" x="8" y="-56.5" font-family="Helvetica,sans-Serif" font-size="10.00">::GlobalUnaryOp&lt; USROP,</text>
<text text-anchor="middle" x="72.5" y="-45.5" font-family="Helvetica,sans-Serif" font-size="10.00"> InTp &gt;</text>
<polyline fill="none" stroke="black" points="0,-38.5 145,-38.5 "/>
<text text-anchor="middle" x="72.5" y="-26.5" font-family="Helvetica,sans-Serif" font-size="10.00"> </text>
<polyline fill="none" stroke="black" points="0,-19.5 145,-19.5 "/>
<text text-anchor="middle" x="72.5" y="-7.5" font-family="Helvetica,sans-Serif" font-size="10.00"> </text>
</a>
</g>
</g>
<!-- Node2 -->
<g id="node2" class="node">
<title>Node2</title>
<g id="a_node2"><a xlink:href="structvisioncpp_1_1internal_1_1GlobalNeighbour.html" target="_top" xlink:title=" ">
<polygon fill="none" stroke="black" points="70.5,-127.5 70.5,-272.5 218.5,-272.5 218.5,-127.5 70.5,-127.5"/>
<text text-anchor="start" x="78.5" y="-260.5" font-family="Helvetica,sans-Serif" font-size="10.00">visioncpp::internal</text>
<text text-anchor="middle" x="144.5" y="-249.5" font-family="Helvetica,sans-Serif" font-size="10.00">::GlobalNeighbour&lt; InTp &gt;</text>
<polyline fill="none" stroke="black" points="70.5,-242.5 218.5,-242.5 "/>
<text text-anchor="start" x="78.5" y="-230.5" font-family="Helvetica,sans-Serif" font-size="10.00">+ I_c</text>
<text text-anchor="start" x="78.5" y="-219.5" font-family="Helvetica,sans-Serif" font-size="10.00">+ I_r</text>
<text text-anchor="start" x="78.5" y="-208.5" font-family="Helvetica,sans-Serif" font-size="10.00">+ cols</text>
<text text-anchor="start" x="78.5" y="-197.5" font-family="Helvetica,sans-Serif" font-size="10.00">+ rows</text>
<text text-anchor="start" x="78.5" y="-186.5" font-family="Helvetica,sans-Serif" font-size="10.00">+ ptr</text>
<polyline fill="none" stroke="black" points="70.5,-179.5 218.5,-179.5 "/>
<text text-anchor="start" x="78.5" y="-167.5" font-family="Helvetica,sans-Serif" font-size="10.00">+ GlobalNeighbour()</text>
<text text-anchor="start" x="78.5" y="-156.5" font-family="Helvetica,sans-Serif" font-size="10.00">+ set_offset()</text>
<text text-anchor="start" x="78.5" y="-145.5" font-family="Helvetica,sans-Serif" font-size="10.00">+ at()</text>
<text text-anchor="start" x="78.5" y="-134.5" font-family="Helvetica,sans-Serif" font-size="10.00">+ at()</text>
</a>
</g>
</g>
<!-- Node2&#45;&gt;Node1 -->
<g id="edge1" class="edge">
<title>Node2&#45;&gt;Node1</title>
<path fill="none" stroke="#404040" d="M111.87,-127.4C106.23,-115.03 100.49,-102.41 95.19,-90.78"/>
<polygon fill="none" stroke="#404040" points="95.03,-90.44 88.9,-86.64 90.06,-79.52 96.18,-83.33 95.03,-90.44"/>
<text text-anchor="middle" x="111.5" y="-101" font-family="Helvetica,sans-Serif" font-size="10.00"> +x</text>
</g>
<!-- Node3 -->
<g id="node3" class="node">
<title>Node3</title>
<g id="a_node3"><a xlink:href="structvisioncpp_1_1internal_1_1GlobalNeighbour.html" target="_top" xlink:title="GlobalNeighbour is used to provide local access for each element of the global memory based on the Co...">
<polygon fill="none" stroke="black" points="74,-320.5 74,-421.5 207,-421.5 207,-320.5 74,-320.5"/>
<text text-anchor="start" x="82" y="-409.5" font-family="Helvetica,sans-Serif" font-size="10.00">visioncpp::internal</text>
<text text-anchor="middle" x="140.5" y="-398.5" font-family="Helvetica,sans-Serif" font-size="10.00">::GlobalNeighbour&lt; T &gt;</text>
<polyline fill="none" stroke="black" points="74,-391.5 207,-391.5 "/>
<text text-anchor="middle" x="140.5" y="-379.5" font-family="Helvetica,sans-Serif" font-size="10.00"> </text>
<polyline fill="none" stroke="black" points="74,-372.5 207,-372.5 "/>
<text text-anchor="start" x="82" y="-360.5" font-family="Helvetica,sans-Serif" font-size="10.00">+ GlobalNeighbour()</text>
<text text-anchor="start" x="82" y="-349.5" font-family="Helvetica,sans-Serif" font-size="10.00">+ set_offset()</text>
<text text-anchor="start" x="82" y="-338.5" font-family="Helvetica,sans-Serif" font-size="10.00">+ at()</text>
<text text-anchor="start" x="82" y="-327.5" font-family="Helvetica,sans-Serif" font-size="10.00">+ at()</text>
</a>
</g>
</g>
<!-- Node3&#45;&gt;Node2 -->
<g id="edge2" class="edge">
<title>Node3&#45;&gt;Node2</title>
<path fill="none" stroke="orange" d="M141.92,-310.21C142.2,-298.06 142.51,-285.17 142.8,-272.66"/>
<polygon fill="orange" stroke="orange" points="138.42,-310.13 141.68,-320.21 145.41,-310.29 138.42,-310.13"/>
<text text-anchor="middle" x="165" y="-294" font-family="Helvetica,sans-Serif" font-size="10.00"> &lt; InTp &gt;</text>
</g>
<!-- Node4 -->
<g id="node4" class="node">
<title>Node4</title>
<g id="a_node4"><a xlink:title=" ">
<polygon fill="none" stroke="#bfbfbf" points="24,-502.5 24,-559.5 69,-559.5 69,-502.5 24,-502.5"/>
<text text-anchor="middle" x="46.5" y="-547.5" font-family="Helvetica,sans-Serif" font-size="10.00">size_t</text>
<polyline fill="none" stroke="#bfbfbf" points="24,-540.5 69,-540.5 "/>
<text text-anchor="middle" x="46.5" y="-528.5" font-family="Helvetica,sans-Serif" font-size="10.00"> </text>
<polyline fill="none" stroke="#bfbfbf" points="24,-521.5 69,-521.5 "/>
<text text-anchor="middle" x="46.5" y="-509.5" font-family="Helvetica,sans-Serif" font-size="10.00"> </text>
</a>
</g>
</g>
<!-- Node4&#45;&gt;Node1 -->
<g id="edge5" class="edge">
<title>Node4&#45;&gt;Node1</title>
<path fill="none" stroke="#404040" d="M46.51,-502.39C46.63,-457.87 47.3,-367.5 50.5,-291 53.56,-218.01 54.42,-199.71 61.5,-127 62.6,-115.67 64.02,-103.52 65.46,-92.04"/>
<polygon fill="none" stroke="#404040" points="65.49,-91.8 62.29,-85.34 67.02,-79.9 70.22,-86.36 65.49,-91.8"/>
<text text-anchor="middle" x="94" y="-294" font-family="Helvetica,sans-Serif" font-size="10.00"> +Operation_type</text>
</g>
<!-- Node4&#45;&gt;Node3 -->
<g id="edge3" class="edge">
<title>Node4&#45;&gt;Node3</title>
<path fill="none" stroke="#404040" d="M62.87,-502.48C74.42,-483.07 90.34,-456.32 104.75,-432.09"/>
<polygon fill="none" stroke="#404040" points="104.9,-431.84 104.53,-424.64 111.03,-421.53 111.4,-428.73 104.9,-431.84"/>
<text text-anchor="middle" x="115.5" y="-476" font-family="Helvetica,sans-Serif" font-size="10.00"> +I_c</text>
<text text-anchor="middle" x="115.5" y="-465" font-family="Helvetica,sans-Serif" font-size="10.00">+I_r</text>
<text text-anchor="middle" x="115.5" y="-454" font-family="Helvetica,sans-Serif" font-size="10.00">+cols</text>
<text text-anchor="middle" x="115.5" y="-443" font-family="Helvetica,sans-Serif" font-size="10.00">+rows</text>
</g>
<!-- Node5 -->
<g id="node5" class="node">
<title>Node5</title>
<g id="a_node5"><a xlink:title=" ">
<polygon fill="none" stroke="#bfbfbf" points="88.5,-502.5 88.5,-559.5 192.5,-559.5 192.5,-502.5 88.5,-502.5"/>
<text text-anchor="middle" x="140.5" y="-547.5" font-family="Helvetica,sans-Serif" font-size="10.00">global_ptr&lt; T &gt; &amp;</text>
<polyline fill="none" stroke="#bfbfbf" points="88.5,-540.5 192.5,-540.5 "/>
<text text-anchor="middle" x="140.5" y="-528.5" font-family="Helvetica,sans-Serif" font-size="10.00"> </text>
<polyline fill="none" stroke="#bfbfbf" points="88.5,-521.5 192.5,-521.5 "/>
<text text-anchor="middle" x="140.5" y="-509.5" font-family="Helvetica,sans-Serif" font-size="10.00"> </text>
</a>
</g>
</g>
<!-- Node5&#45;&gt;Node3 -->
<g id="edge4" class="edge">
<title>Node5&#45;&gt;Node3</title>
<path fill="none" stroke="#404040" d="M140.5,-502.48C140.5,-483.51 140.5,-457.52 140.5,-433.72"/>
<polygon fill="none" stroke="#404040" points="140.5,-433.53 136.5,-427.53 140.5,-421.53 144.5,-427.53 140.5,-433.53"/>
<text text-anchor="middle" x="153" y="-459.5" font-family="Helvetica,sans-Serif" font-size="10.00"> +ptr</text>
</g>
</g>
</svg>
