<?xml version="1.0" encoding="UTF-8" standalone="no"?>
<!DOCTYPE svg PUBLIC "-//W3C//DTD SVG 1.1//EN"
 "http://www.w3.org/Graphics/SVG/1.1/DTD/svg11.dtd">
<!-- Generated by graphviz version 2.36.0 (20140111.2315)
 -->
<!-- Title: visioncpp::internal::VisionMemory&lt; MapAllocator, ScalarType, MemoryType, Sclr, Col, Row, ElementTp, Elements, Sc, LVL &gt; Pages: 1 -->
<svg width="488pt" height="424pt"
 viewBox="0.00 0.00 488.00 424.00" xmlns="http://www.w3.org/2000/svg" xmlns:xlink="http://www.w3.org/1999/xlink">
<g id="graph0" class="graph" transform="scale(1 1) rotate(0) translate(4 420)">
<title>visioncpp::internal::VisionMemory&lt; MapAllocator, ScalarType, MemoryType, Sclr, Col, Row, ElementTp, Elements, Sc, LVL &gt;</title>
<!-- Node1 -->
<g id="node1" class="node"><title>Node1</title>
<polygon fill="#bfbfbf" stroke="black" points="139,-0.5 139,-211.5 293,-211.5 293,-0.5 139,-0.5"/>
<text text-anchor="start" x="147" y="-199.5" font-family="Helvetica,sans-Serif" font-size="10.00">visioncpp::internal</text>
<text text-anchor="start" x="147" y="-188.5" font-family="Helvetica,sans-Serif" font-size="10.00">::VisionMemory&lt; MapAllocator,</text>
<text text-anchor="start" x="147" y="-177.5" font-family="Helvetica,sans-Serif" font-size="10.00"> ScalarType, MemoryType,</text>
<text text-anchor="start" x="147" y="-166.5" font-family="Helvetica,sans-Serif" font-size="10.00"> Sclr, Col, Row, ElementTp,</text>
<text text-anchor="middle" x="216" y="-155.5" font-family="Helvetica,sans-Serif" font-size="10.00"> Elements, Sc, LVL &gt;</text>
<polyline fill="none" stroke="black" points="139,-148.5 293,-148.5 "/>
<text text-anchor="middle" x="216" y="-136.5" font-family="Helvetica,sans-Serif" font-size="10.00"> </text>
<polyline fill="none" stroke="black" points="139,-129.5 293,-129.5 "/>
<text text-anchor="start" x="147" y="-117.5" font-family="Helvetica,sans-Serif" font-size="10.00">+ VisionMemory()</text>
<text text-anchor="start" x="147" y="-106.5" font-family="Helvetica,sans-Serif" font-size="10.00">+ VisionMemory()</text>
<text text-anchor="start" x="147" y="-95.5" font-family="Helvetica,sans-Serif" font-size="10.00">+ VisionMemory()</text>
<text text-anchor="start" x="147" y="-84.5" font-family="Helvetica,sans-Serif" font-size="10.00">+ sub_expression_evaluation()</text>
<text text-anchor="start" x="147" y="-73.5" font-family="Helvetica,sans-Serif" font-size="10.00">+ get_device_accessor()</text>
<text text-anchor="start" x="147" y="-62.5" font-family="Helvetica,sans-Serif" font-size="10.00">+ reset_input()</text>
<text text-anchor="start" x="147" y="-51.5" font-family="Helvetica,sans-Serif" font-size="10.00">+ set_output()</text>
<text text-anchor="start" x="147" y="-40.5" font-family="Helvetica,sans-Serif" font-size="10.00">+ lock()</text>
<text text-anchor="start" x="147" y="-29.5" font-family="Helvetica,sans-Serif" font-size="10.00">+ unlock()</text>
<text text-anchor="start" x="147" y="-18.5" font-family="Helvetica,sans-Serif" font-size="10.00">+ used_memory()</text>
<text text-anchor="start" x="147" y="-7.5" font-family="Helvetica,sans-Serif" font-size="10.00">+ get_size()</text>
</g>
<!-- Node2 -->
<g id="node2" class="node"><title>Node2</title>
<polygon fill="none" stroke="#bfbfbf" points="-0.5,-347.5 -0.5,-404.5 124.5,-404.5 124.5,-347.5 -0.5,-347.5"/>
<text text-anchor="middle" x="62" y="-392.5" font-family="Helvetica,sans-Serif" font-size="10.00">shared_ptr&lt; syclBuffer &gt;</text>
<polyline fill="none" stroke="#bfbfbf" points="-0.5,-385.5 124.5,-385.5 "/>
<text text-anchor="middle" x="62" y="-373.5" font-family="Helvetica,sans-Serif" font-size="10.00"> </text>
<polyline fill="none" stroke="#bfbfbf" points="-0.5,-366.5 124.5,-366.5 "/>
<text text-anchor="middle" x="62" y="-354.5" font-family="Helvetica,sans-Serif" font-size="10.00"> </text>
</g>
<!-- Node2&#45;&gt;Node1 -->
<g id="edge1" class="edge"><title>Node2&#45;&gt;Node1</title>
<path fill="none" stroke="#404040" d="M66.9242,-347.424C73.1305,-317.175 85.6541,-267.892 107,-230 113.947,-217.667 122.295,-205.496 131.24,-193.885"/>
<polygon fill="none" stroke="#404040" points="131.412,-193.669 132.013,-186.483 138.877,-184.274 138.276,-191.46 131.412,-193.669"/>
<text text-anchor="middle" x="131.5" y="-271.5" font-family="Helvetica,sans-Serif" font-size="10.00"> +syclData</text>
</g>
<!-- Node3 -->
<g id="node3" class="node"><title>Node3</title>
<polygon fill="none" stroke="#bfbfbf" points="142.5,-347.5 142.5,-404.5 185.5,-404.5 185.5,-347.5 142.5,-347.5"/>
<text text-anchor="middle" x="164" y="-392.5" font-family="Helvetica,sans-Serif" font-size="10.00">size_t</text>
<polyline fill="none" stroke="#bfbfbf" points="142.5,-385.5 185.5,-385.5 "/>
<text text-anchor="middle" x="164" y="-373.5" font-family="Helvetica,sans-Serif" font-size="10.00"> </text>
<polyline fill="none" stroke="#bfbfbf" points="142.5,-366.5 185.5,-366.5 "/>
<text text-anchor="middle" x="164" y="-354.5" font-family="Helvetica,sans-Serif" font-size="10.00"> </text>
</g>
<!-- Node3&#45;&gt;Node1 -->
<g id="edge2" class="edge"><title>Node3&#45;&gt;Node1</title>
<path fill="none" stroke="#404040" d="M161.073,-347.418C158.672,-318.004 156.849,-270.216 165,-230 165.437,-227.842 165.913,-225.675 166.423,-223.502"/>
<polygon fill="none" stroke="#404040" points="166.435,-223.455 164.077,-216.641 169.46,-211.843 171.818,-218.658 166.435,-223.455"/>
<text text-anchor="middle" x="206" y="-310" font-family="Helvetica,sans-Serif" font-size="10.00"> +Rows</text>
<text text-anchor="middle" x="206" y="-299" font-family="Helvetica,sans-Serif" font-size="10.00">+Channels</text>
<text text-anchor="middle" x="206" y="-288" font-family="Helvetica,sans-Serif" font-size="10.00">+scope</text>
<text text-anchor="middle" x="206" y="-277" font-family="Helvetica,sans-Serif" font-size="10.00">+Level</text>
<text text-anchor="middle" x="206" y="-266" font-family="Helvetica,sans-Serif" font-size="10.00">+LeafType</text>
<text text-anchor="middle" x="206" y="-255" font-family="Helvetica,sans-Serif" font-size="10.00">+Cols</text>
<text text-anchor="middle" x="206" y="-244" font-family="Helvetica,sans-Serif" font-size="10.00">+MemoryCategory</text>
<text text-anchor="middle" x="206" y="-233" font-family="Helvetica,sans-Serif" font-size="10.00">+Dim</text>
</g>
<!-- Node4 -->
<g id="node4" class="node"><title>Node4</title>
<polygon fill="none" stroke="#bfbfbf" points="251.5,-347.5 251.5,-404.5 286.5,-404.5 286.5,-347.5 251.5,-347.5"/>
<text text-anchor="middle" x="269" y="-392.5" font-family="Helvetica,sans-Serif" font-size="10.00">bool</text>
<polyline fill="none" stroke="#bfbfbf" points="251.5,-385.5 286.5,-385.5 "/>
<text text-anchor="middle" x="269" y="-373.5" font-family="Helvetica,sans-Serif" font-size="10.00"> </text>
<polyline fill="none" stroke="#bfbfbf" points="251.5,-366.5 286.5,-366.5 "/>
<text text-anchor="middle" x="269" y="-354.5" font-family="Helvetica,sans-Serif" font-size="10.00"> </text>
</g>
<!-- Node4&#45;&gt;Node1 -->
<g id="edge3" class="edge"><title>Node4&#45;&gt;Node1</title>
<path fill="none" stroke="#404040" d="M265.609,-347.334C261.831,-318.053 255.169,-270.561 247,-230 246.563,-227.828 246.112,-225.636 245.649,-223.43"/>
<polygon fill="none" stroke="#404040" points="245.61,-223.252 240.431,-218.234 243.072,-211.523 248.25,-216.541 245.61,-223.252"/>
<text text-anchor="start" x="262" y="-282.5" font-family="Helvetica,sans-Serif" font-size="10.00"> +SubExpressionEvaluation</text>
<text text-anchor="middle" x="322.5" y="-271.5" font-family="Helvetica,sans-Serif" font-size="10.00">Needed</text>
<text text-anchor="middle" x="322.5" y="-260.5" font-family="Helvetica,sans-Serif" font-size="10.00">+HasMapAllocator</text>
</g>
<!-- Node5 -->
<g id="node5" class="node"><title>Node5</title>
<polygon fill="none" stroke="#bfbfbf" points="346,-336.5 346,-415.5 480,-415.5 480,-336.5 346,-336.5"/>
<text text-anchor="start" x="354" y="-403.5" font-family="Helvetica,sans-Serif" font-size="10.00">shared_ptr&lt; HostAccessor</text>
<text text-anchor="start" x="354" y="-392.5" font-family="Helvetica,sans-Serif" font-size="10.00">&lt; cl::sycl::access::mode</text>
<text text-anchor="middle" x="413" y="-381.5" font-family="Helvetica,sans-Serif" font-size="10.00">::read &gt; &gt;</text>
<polyline fill="none" stroke="#bfbfbf" points="346,-374.5 480,-374.5 "/>
<text text-anchor="middle" x="413" y="-362.5" font-family="Helvetica,sans-Serif" font-size="10.00"> </text>
<polyline fill="none" stroke="#bfbfbf" points="346,-355.5 480,-355.5 "/>
<text text-anchor="middle" x="413" y="-343.5" font-family="Helvetica,sans-Serif" font-size="10.00"> </text>
</g>
<!-- Node5&#45;&gt;Node1 -->
<g id="edge4" class="edge"><title>Node5&#45;&gt;Node1</title>
<path fill="none" stroke="#404040" d="M413.797,-336.452C412.717,-305.482 407.181,-262.023 387,-230 366.68,-197.756 334.564,-171.38 303.625,-151.439"/>
<polygon fill="none" stroke="#404040" points="303.373,-151.281 296.165,-151.495 293.196,-144.923 300.404,-144.71 303.373,-151.281"/>
<text text-anchor="middle" x="435" y="-271.5" font-family="Helvetica,sans-Serif" font-size="10.00"> +hostAcc</text>
</g>
</g>
</svg>
