<?xml version="1.0" encoding="UTF-8" standalone="no"?>
<!DOCTYPE svg PUBLIC "-//W3C//DTD SVG 1.1//EN"
 "http://www.w3.org/Graphics/SVG/1.1/DTD/svg11.dtd">
<!-- Generated by graphviz version 2.43.0 (0)
 -->
<!-- Title: visioncpp::internal::PlaceHolder&lt; Memory_Type, N, C, R, Sc &gt; Pages: 1 -->
<svg width="141pt" height="237pt"
 viewBox="0.00 0.00 141.00 237.00" xmlns="http://www.w3.org/2000/svg" xmlns:xlink="http://www.w3.org/1999/xlink">
<g id="graph0" class="graph" transform="scale(1 1) rotate(0) translate(4 233)">
<title>visioncpp::internal::PlaceHolder&lt; Memory_Type, N, C, R, Sc &gt;</title>
<!-- Node1 -->
<g id="node1" class="node">
<title>Node1</title>
<g id="a_node1"><a xlink:title="PlaceHolder is used to replace the Vision Memory in the LeafNode containing sycl buffer.">
<polygon fill="#bfbfbf" stroke="black" points="0,-0.5 0,-79.5 133,-79.5 133,-0.5 0,-0.5"/>
<text text-anchor="start" x="8" y="-67.5" font-family="Helvetica,sans-Serif" font-size="10.00">visioncpp::internal</text>
<text text-anchor="start" x="8" y="-56.5" font-family="Helvetica,sans-Serif" font-size="10.00">::PlaceHolder&lt; Memory</text>
<text text-anchor="middle" x="66.5" y="-45.5" font-family="Helvetica,sans-Serif" font-size="10.00">_Type, N, C, R, Sc &gt;</text>
<polyline fill="none" stroke="black" points="0,-38.5 133,-38.5 "/>
<text text-anchor="middle" x="66.5" y="-26.5" font-family="Helvetica,sans-Serif" font-size="10.00"> </text>
<polyline fill="none" stroke="black" points="0,-19.5 133,-19.5 "/>
<text text-anchor="middle" x="66.5" y="-7.5" font-family="Helvetica,sans-Serif" font-size="10.00"> </text>
</a>
</g>
</g>
<!-- Node2 -->
<g id="node2" class="node">
<title>Node2</title>
<g id="a_node2"><a xlink:title=" ">
<polygon fill="none" stroke="#bfbfbf" points="44,-171.5 44,-228.5 89,-228.5 89,-171.5 44,-171.5"/>
<text text-anchor="middle" x="66.5" y="-216.5" font-family="Helvetica,sans-Serif" font-size="10.00">size_t</text>
<polyline fill="none" stroke="#bfbfbf" points="44,-209.5 89,-209.5 "/>
<text text-anchor="middle" x="66.5" y="-197.5" font-family="Helvetica,sans-Serif" font-size="10.00"> </text>
<polyline fill="none" stroke="#bfbfbf" points="44,-190.5 89,-190.5 "/>
<text text-anchor="middle" x="66.5" y="-178.5" font-family="Helvetica,sans-Serif" font-size="10.00"> </text>
</a>
</g>
</g>
<!-- Node2&#45;&gt;Node1 -->
<g id="edge1" class="edge">
<title>Node2&#45;&gt;Node1</title>
<path fill="none" stroke="#404040" d="M66.5,-171.48C66.5,-149.57 66.5,-118.31 66.5,-91.88"/>
<polygon fill="none" stroke="#404040" points="66.5,-91.75 62.5,-85.75 66.5,-79.75 70.5,-85.75 66.5,-91.75"/>
<text text-anchor="middle" x="92.5" y="-145" font-family="Helvetica,sans-Serif" font-size="10.00"> +Cols</text>
<text text-anchor="middle" x="92.5" y="-134" font-family="Helvetica,sans-Serif" font-size="10.00">+I</text>
<text text-anchor="middle" x="92.5" y="-123" font-family="Helvetica,sans-Serif" font-size="10.00">+LeafType</text>
<text text-anchor="middle" x="92.5" y="-112" font-family="Helvetica,sans-Serif" font-size="10.00">+Rows</text>
<text text-anchor="middle" x="92.5" y="-101" font-family="Helvetica,sans-Serif" font-size="10.00">+Scope</text>
</g>
</g>
</svg>
