<?xml version="1.0" encoding="UTF-8" standalone="no"?>
<!DOCTYPE svg PUBLIC "-//W3C//DTD SVG 1.1//EN"
 "http://www.w3.org/Graphics/SVG/1.1/DTD/svg11.dtd">
<!-- Generated by graphviz version 2.43.0 (0)
 -->
<!-- Title: visioncpp::internal::ParallelCopy&lt; LHS, RHS, Cols, Rows, OffsetColIn, OffsetRowIn, OffsetColOut, OffsetRowOut, LfType, LVL &gt; Pages: 1 -->
<svg width="373pt" height="292pt"
 viewBox="0.00 0.00 372.50 292.00" xmlns="http://www.w3.org/2000/svg" xmlns:xlink="http://www.w3.org/1999/xlink">
<g id="graph0" class="graph" transform="scale(1 1) rotate(0) translate(4 288)">
<title>visioncpp::internal::ParallelCopy&lt; LHS, RHS, Cols, Rows, OffsetColIn, OffsetRowIn, OffsetColOut, OffsetRowOut, LfType, LVL &gt;</title>
<!-- Node1 -->
<g id="node1" class="node">
<title>Node1</title>
<g id="a_node1"><a xlink:title="The definition is in ParallelCopy file.">
<polygon fill="#bfbfbf" stroke="black" points="46.5,-0.5 46.5,-123.5 214.5,-123.5 214.5,-0.5 46.5,-0.5"/>
<text text-anchor="start" x="54.5" y="-111.5" font-family="Helvetica,sans-Serif" font-size="10.00">visioncpp::internal</text>
<text text-anchor="start" x="54.5" y="-100.5" font-family="Helvetica,sans-Serif" font-size="10.00">::ParallelCopy&lt; LHS,</text>
<text text-anchor="start" x="54.5" y="-89.5" font-family="Helvetica,sans-Serif" font-size="10.00"> RHS, Cols, Rows, OffsetCol</text>
<text text-anchor="start" x="54.5" y="-78.5" font-family="Helvetica,sans-Serif" font-size="10.00">In, OffsetRowIn, OffsetColOut,</text>
<text text-anchor="middle" x="130.5" y="-67.5" font-family="Helvetica,sans-Serif" font-size="10.00"> OffsetRowOut, LfType, LVL &gt;</text>
<polyline fill="none" stroke="black" points="46.5,-60.5 214.5,-60.5 "/>
<text text-anchor="middle" x="130.5" y="-48.5" font-family="Helvetica,sans-Serif" font-size="10.00"> </text>
<polyline fill="none" stroke="black" points="46.5,-41.5 214.5,-41.5 "/>
<text text-anchor="start" x="54.5" y="-29.5" font-family="Helvetica,sans-Serif" font-size="10.00">+ ParallelCopy()</text>
<text text-anchor="start" x="54.5" y="-18.5" font-family="Helvetica,sans-Serif" font-size="10.00">+ reset()</text>
<text text-anchor="start" x="54.5" y="-7.5" font-family="Helvetica,sans-Serif" font-size="10.00">+ sub_expression_evaluation()</text>
</a>
</g>
</g>
<!-- Node2 -->
<g id="node2" class="node">
<title>Node2</title>
<g id="a_node2"><a xlink:title=" ">
<polygon fill="none" stroke="#bfbfbf" points="0,-226.5 0,-283.5 35,-283.5 35,-226.5 0,-226.5"/>
<text text-anchor="middle" x="17.5" y="-271.5" font-family="Helvetica,sans-Serif" font-size="10.00">LHS</text>
<polyline fill="none" stroke="#bfbfbf" points="0,-264.5 35,-264.5 "/>
<text text-anchor="middle" x="17.5" y="-252.5" font-family="Helvetica,sans-Serif" font-size="10.00"> </text>
<polyline fill="none" stroke="#bfbfbf" points="0,-245.5 35,-245.5 "/>
<text text-anchor="middle" x="17.5" y="-233.5" font-family="Helvetica,sans-Serif" font-size="10.00"> </text>
</a>
</g>
</g>
<!-- Node2&#45;&gt;Node1 -->
<g id="edge1" class="edge">
<title>Node2&#45;&gt;Node1</title>
<path fill="none" stroke="#404040" d="M17.97,-226.47C19.48,-202.66 24.41,-168.07 39.5,-142 41.16,-139.13 42.97,-136.31 44.89,-133.55"/>
<polygon fill="none" stroke="#404040" points="45.05,-133.34 45.52,-126.14 52.34,-123.81 51.88,-131 45.05,-133.34"/>
<text text-anchor="middle" x="52.5" y="-172.5" font-family="Helvetica,sans-Serif" font-size="10.00"> +lhs</text>
</g>
<!-- Node3 -->
<g id="node3" class="node">
<title>Node3</title>
<g id="a_node3"><a xlink:title=" ">
<polygon fill="none" stroke="#bfbfbf" points="53,-226.5 53,-283.5 98,-283.5 98,-226.5 53,-226.5"/>
<text text-anchor="middle" x="75.5" y="-271.5" font-family="Helvetica,sans-Serif" font-size="10.00">size_t</text>
<polyline fill="none" stroke="#bfbfbf" points="53,-264.5 98,-264.5 "/>
<text text-anchor="middle" x="75.5" y="-252.5" font-family="Helvetica,sans-Serif" font-size="10.00"> </text>
<polyline fill="none" stroke="#bfbfbf" points="53,-245.5 98,-245.5 "/>
<text text-anchor="middle" x="75.5" y="-233.5" font-family="Helvetica,sans-Serif" font-size="10.00"> </text>
</a>
</g>
</g>
<!-- Node3&#45;&gt;Node1 -->
<g id="edge2" class="edge">
<title>Node3&#45;&gt;Node1</title>
<path fill="none" stroke="#404040" d="M71.33,-226.14C68.91,-203.05 67.82,-169.64 76.5,-142 77.26,-139.59 78.12,-137.18 79.06,-134.79"/>
<polygon fill="none" stroke="#404040" points="79.12,-134.67 77.94,-127.55 84.06,-123.73 85.23,-130.85 79.12,-134.67"/>
<text text-anchor="middle" x="120" y="-200" font-family="Helvetica,sans-Serif" font-size="10.00"> +Operation_type</text>
<text text-anchor="middle" x="120" y="-189" font-family="Helvetica,sans-Serif" font-size="10.00">+Level</text>
<text text-anchor="middle" x="120" y="-178" font-family="Helvetica,sans-Serif" font-size="10.00">+LeafType</text>
<text text-anchor="middle" x="120" y="-167" font-family="Helvetica,sans-Serif" font-size="10.00">+RThread</text>
<text text-anchor="middle" x="120" y="-156" font-family="Helvetica,sans-Serif" font-size="10.00">+CThread</text>
<text text-anchor="middle" x="120" y="-145" font-family="Helvetica,sans-Serif" font-size="10.00">+ND_Category</text>
</g>
<!-- Node4 -->
<g id="node4" class="node">
<title>Node4</title>
<g id="a_node4"><a xlink:title=" ">
<polygon fill="none" stroke="#bfbfbf" points="167,-226.5 167,-283.5 204,-283.5 204,-226.5 167,-226.5"/>
<text text-anchor="middle" x="185.5" y="-271.5" font-family="Helvetica,sans-Serif" font-size="10.00">RHS</text>
<polyline fill="none" stroke="#bfbfbf" points="167,-264.5 204,-264.5 "/>
<text text-anchor="middle" x="185.5" y="-252.5" font-family="Helvetica,sans-Serif" font-size="10.00"> </text>
<polyline fill="none" stroke="#bfbfbf" points="167,-245.5 204,-245.5 "/>
<text text-anchor="middle" x="185.5" y="-233.5" font-family="Helvetica,sans-Serif" font-size="10.00"> </text>
</a>
</g>
</g>
<!-- Node4&#45;&gt;Node1 -->
<g id="edge3" class="edge">
<title>Node4&#45;&gt;Node1</title>
<path fill="none" stroke="#404040" d="M181.68,-226.46C178.12,-203.56 172.08,-170.25 163.5,-142 162.82,-139.76 162.1,-137.5 161.34,-135.22"/>
<polygon fill="none" stroke="#404040" points="161.31,-135.12 155.54,-130.78 157.32,-123.8 163.09,-128.13 161.31,-135.12"/>
<text text-anchor="middle" x="191" y="-172.5" font-family="Helvetica,sans-Serif" font-size="10.00"> +rhs</text>
</g>
<!-- Node5 -->
<g id="node5" class="node">
<title>Node5</title>
<g id="a_node5"><a xlink:title=" ">
<polygon fill="none" stroke="#bfbfbf" points="222.5,-226.5 222.5,-283.5 260.5,-283.5 260.5,-226.5 222.5,-226.5"/>
<text text-anchor="middle" x="241.5" y="-271.5" font-family="Helvetica,sans-Serif" font-size="10.00">bool</text>
<polyline fill="none" stroke="#bfbfbf" points="222.5,-264.5 260.5,-264.5 "/>
<text text-anchor="middle" x="241.5" y="-252.5" font-family="Helvetica,sans-Serif" font-size="10.00"> </text>
<polyline fill="none" stroke="#bfbfbf" points="222.5,-245.5 260.5,-245.5 "/>
<text text-anchor="middle" x="241.5" y="-233.5" font-family="Helvetica,sans-Serif" font-size="10.00"> </text>
</a>
</g>
</g>
<!-- Node5&#45;&gt;Node1 -->
<g id="edge4" class="edge">
<title>Node5&#45;&gt;Node1</title>
<path fill="none" stroke="#404040" d="M237.25,-226.24C232.73,-202.6 224.05,-168.37 208.5,-142 206.76,-139.04 204.88,-136.11 202.89,-133.23"/>
<polygon fill="none" stroke="#404040" points="202.89,-133.22 196.11,-130.77 195.76,-123.57 202.54,-126.02 202.89,-133.22"/>
<text text-anchor="middle" x="298.5" y="-194.5" font-family="Helvetica,sans-Serif" font-size="10.00"> +has_out</text>
<text text-anchor="start" x="232.5" y="-183.5" font-family="Helvetica,sans-Serif" font-size="10.00">+SubExpressionEvaluation</text>
<text text-anchor="middle" x="298.5" y="-172.5" font-family="Helvetica,sans-Serif" font-size="10.00">Needed</text>
<text text-anchor="start" x="232.5" y="-161.5" font-family="Helvetica,sans-Serif" font-size="10.00">+subexpr_execution</text>
<text text-anchor="middle" x="298.5" y="-150.5" font-family="Helvetica,sans-Serif" font-size="10.00">_reseter</text>
</g>
</g>
</svg>
