<?xml version="1.0" encoding="UTF-8" standalone="no"?>
<!DOCTYPE svg PUBLIC "-//W3C//DTD SVG 1.1//EN"
 "http://www.w3.org/Graphics/SVG/1.1/DTD/svg11.dtd">
<!-- Generated by graphviz version 2.36.0 (20140111.2315)
 -->
<!-- Title: visioncpp::internal::StnFilt&lt; Conv_OP, Halo_T, Halo_L, Halo_B, Halo_R, LHS, RHS, Cols, Rows, LfType, LVL &gt; Pages: 1 -->
<svg width="352pt" height="348pt"
 viewBox="0.00 0.00 352.00 348.00" xmlns="http://www.w3.org/2000/svg" xmlns:xlink="http://www.w3.org/1999/xlink">
<g id="graph0" class="graph" transform="scale(1 1) rotate(0) translate(4 344)">
<title>visioncpp::internal::StnFilt&lt; Conv_OP, Halo_T, Halo_L, Halo_B, Halo_R, LHS, RHS, Cols, Rows, LfType, LVL &gt;</title>
<!-- Node1 -->
<g id="node1" class="node"><title>Node1</title>
<polygon fill="#bfbfbf" stroke="black" points="49.5,-0.5 49.5,-123.5 198.5,-123.5 198.5,-0.5 49.5,-0.5"/>
<text text-anchor="start" x="57.5" y="-111.5" font-family="Helvetica,sans-Serif" font-size="10.00">visioncpp::internal</text>
<text text-anchor="start" x="57.5" y="-100.5" font-family="Helvetica,sans-Serif" font-size="10.00">::StnFilt&lt; Conv_OP,</text>
<text text-anchor="start" x="57.5" y="-89.5" font-family="Helvetica,sans-Serif" font-size="10.00"> Halo_T, Halo_L, Halo</text>
<text text-anchor="start" x="57.5" y="-78.5" font-family="Helvetica,sans-Serif" font-size="10.00">_B, Halo_R, LHS, RHS,</text>
<text text-anchor="middle" x="124" y="-67.5" font-family="Helvetica,sans-Serif" font-size="10.00"> Cols, Rows, LfType, LVL &gt;</text>
<polyline fill="none" stroke="black" points="49.5,-60.5 198.5,-60.5 "/>
<text text-anchor="middle" x="124" y="-48.5" font-family="Helvetica,sans-Serif" font-size="10.00"> </text>
<polyline fill="none" stroke="black" points="49.5,-41.5 198.5,-41.5 "/>
<text text-anchor="start" x="57.5" y="-29.5" font-family="Helvetica,sans-Serif" font-size="10.00">+ StnFilt()</text>
<text text-anchor="start" x="57.5" y="-18.5" font-family="Helvetica,sans-Serif" font-size="10.00">+ reset()</text>
<text text-anchor="start" x="57.5" y="-7.5" font-family="Helvetica,sans-Serif" font-size="10.00">+ sub_expression_evaluation()</text>
</g>
<!-- Node2 -->
<g id="node2" class="node"><title>Node2</title>
<polygon fill="none" stroke="#bfbfbf" points="0,-282.5 0,-339.5 36,-339.5 36,-282.5 0,-282.5"/>
<text text-anchor="middle" x="18" y="-327.5" font-family="Helvetica,sans-Serif" font-size="10.00">LHS</text>
<polyline fill="none" stroke="#bfbfbf" points="0,-320.5 36,-320.5 "/>
<text text-anchor="middle" x="18" y="-308.5" font-family="Helvetica,sans-Serif" font-size="10.00"> </text>
<polyline fill="none" stroke="#bfbfbf" points="0,-301.5 36,-301.5 "/>
<text text-anchor="middle" x="18" y="-289.5" font-family="Helvetica,sans-Serif" font-size="10.00"> </text>
</g>
<!-- Node2&#45;&gt;Node1 -->
<g id="edge1" class="edge"><title>Node2&#45;&gt;Node1</title>
<path fill="none" stroke="#404040" d="M16.6052,-282.48C16.0003,-247.794 18.8487,-187.244 42,-142 43.4183,-139.228 44.9724,-136.499 46.6403,-133.816"/>
<polygon fill="none" stroke="#404040" points="46.788,-133.602 46.8944,-126.391 53.591,-123.716 53.4846,-130.927 46.788,-133.602"/>
<text text-anchor="middle" x="53" y="-200.5" font-family="Helvetica,sans-Serif" font-size="10.00"> +lhs</text>
</g>
<!-- Node3 -->
<g id="node3" class="node"><title>Node3</title>
<polygon fill="none" stroke="#bfbfbf" points="54.5,-282.5 54.5,-339.5 97.5,-339.5 97.5,-282.5 54.5,-282.5"/>
<text text-anchor="middle" x="76" y="-327.5" font-family="Helvetica,sans-Serif" font-size="10.00">size_t</text>
<polyline fill="none" stroke="#bfbfbf" points="54.5,-320.5 97.5,-320.5 "/>
<text text-anchor="middle" x="76" y="-308.5" font-family="Helvetica,sans-Serif" font-size="10.00"> </text>
<polyline fill="none" stroke="#bfbfbf" points="54.5,-301.5 97.5,-301.5 "/>
<text text-anchor="middle" x="76" y="-289.5" font-family="Helvetica,sans-Serif" font-size="10.00"> </text>
</g>
<!-- Node3&#45;&gt;Node1 -->
<g id="edge2" class="edge"><title>Node3&#45;&gt;Node1</title>
<path fill="none" stroke="#404040" d="M71.8001,-282.331C67.6538,-248.524 63.6722,-189.911 77,-142 77.6416,-139.694 78.3693,-137.386 79.1709,-135.086"/>
<polygon fill="none" stroke="#404040" points="79.2768,-134.822 77.7939,-127.765 83.7377,-123.682 85.2206,-130.739 79.2768,-134.822"/>
<text text-anchor="middle" x="113.5" y="-255.5" font-family="Helvetica,sans-Serif" font-size="10.00"> +Halo_Right</text>
<text text-anchor="middle" x="113.5" y="-244.5" font-family="Helvetica,sans-Serif" font-size="10.00">+Halo_Top</text>
<text text-anchor="middle" x="113.5" y="-233.5" font-family="Helvetica,sans-Serif" font-size="10.00">+Operation_type</text>
<text text-anchor="middle" x="113.5" y="-222.5" font-family="Helvetica,sans-Serif" font-size="10.00">+Level</text>
<text text-anchor="middle" x="113.5" y="-211.5" font-family="Helvetica,sans-Serif" font-size="10.00">+LeafType</text>
<text text-anchor="middle" x="113.5" y="-200.5" font-family="Helvetica,sans-Serif" font-size="10.00">+Halo_Left</text>
<text text-anchor="middle" x="113.5" y="-189.5" font-family="Helvetica,sans-Serif" font-size="10.00">+RThread</text>
<text text-anchor="middle" x="113.5" y="-178.5" font-family="Helvetica,sans-Serif" font-size="10.00">+CThread</text>
<text text-anchor="middle" x="113.5" y="-167.5" font-family="Helvetica,sans-Serif" font-size="10.00">+Halo_Butt</text>
<text text-anchor="middle" x="113.5" y="-156.5" font-family="Helvetica,sans-Serif" font-size="10.00">+ND_Category</text>
<text text-anchor="middle" x="113.5" y="-145.5" font-family="Helvetica,sans-Serif" font-size="10.00">...</text>
</g>
<!-- Node4 -->
<g id="node4" class="node"><title>Node4</title>
<polygon fill="none" stroke="#bfbfbf" points="153,-282.5 153,-339.5 191,-339.5 191,-282.5 153,-282.5"/>
<text text-anchor="middle" x="172" y="-327.5" font-family="Helvetica,sans-Serif" font-size="10.00">RHS</text>
<polyline fill="none" stroke="#bfbfbf" points="153,-320.5 191,-320.5 "/>
<text text-anchor="middle" x="172" y="-308.5" font-family="Helvetica,sans-Serif" font-size="10.00"> </text>
<polyline fill="none" stroke="#bfbfbf" points="153,-301.5 191,-301.5 "/>
<text text-anchor="middle" x="172" y="-289.5" font-family="Helvetica,sans-Serif" font-size="10.00"> </text>
</g>
<!-- Node4&#45;&gt;Node1 -->
<g id="edge3" class="edge"><title>Node4&#45;&gt;Node1</title>
<path fill="none" stroke="#404040" d="M169.982,-282.367C167.167,-248.843 161.112,-190.756 150,-142 149.516,-139.875 148.998,-137.726 148.453,-135.563"/>
<polygon fill="none" stroke="#404040" points="148.438,-135.507 143.01,-130.759 145.305,-123.923 150.733,-128.671 148.438,-135.507"/>
<text text-anchor="middle" x="180.5" y="-200.5" font-family="Helvetica,sans-Serif" font-size="10.00"> +rhs</text>
</g>
<!-- Node5 -->
<g id="node5" class="node"><title>Node5</title>
<polygon fill="none" stroke="#bfbfbf" points="209.5,-282.5 209.5,-339.5 244.5,-339.5 244.5,-282.5 209.5,-282.5"/>
<text text-anchor="middle" x="227" y="-327.5" font-family="Helvetica,sans-Serif" font-size="10.00">bool</text>
<polyline fill="none" stroke="#bfbfbf" points="209.5,-320.5 244.5,-320.5 "/>
<text text-anchor="middle" x="227" y="-308.5" font-family="Helvetica,sans-Serif" font-size="10.00"> </text>
<polyline fill="none" stroke="#bfbfbf" points="209.5,-301.5 244.5,-301.5 "/>
<text text-anchor="middle" x="227" y="-289.5" font-family="Helvetica,sans-Serif" font-size="10.00"> </text>
</g>
<!-- Node5&#45;&gt;Node1 -->
<g id="edge4" class="edge"><title>Node5&#45;&gt;Node1</title>
<path fill="none" stroke="#404040" d="M226.504,-282.365C224.879,-247.824 218.683,-187.693 196,-142 194.628,-139.237 193.131,-136.499 191.53,-133.796"/>
<polygon fill="none" stroke="#404040" points="191.419,-133.623 184.798,-130.765 184.891,-123.554 191.511,-126.413 191.419,-133.623"/>
<text text-anchor="middle" x="285" y="-228" font-family="Helvetica,sans-Serif" font-size="10.00"> +has_out</text>
<text text-anchor="start" x="226" y="-217" font-family="Helvetica,sans-Serif" font-size="10.00">+SubExpressionEvaluation</text>
<text text-anchor="middle" x="285" y="-206" font-family="Helvetica,sans-Serif" font-size="10.00">Needed</text>
<text text-anchor="middle" x="285" y="-195" font-family="Helvetica,sans-Serif" font-size="10.00">+Stencil_Conds</text>
<text text-anchor="start" x="226" y="-184" font-family="Helvetica,sans-Serif" font-size="10.00">+subexpr_execution</text>
<text text-anchor="middle" x="285" y="-173" font-family="Helvetica,sans-Serif" font-size="10.00">_reseter</text>
</g>
</g>
</svg>
