<?xml version="1.0" encoding="UTF-8" standalone="no"?>
<!DOCTYPE svg PUBLIC "-//W3C//DTD SVG 1.1//EN"
 "http://www.w3.org/Graphics/SVG/1.1/DTD/svg11.dtd">
<!-- Generated by graphviz version 2.43.0 (0)
 -->
<!-- Title: visioncpp::internal::LocalOutput&lt; false, IsRoot, LC, LR, StnNoFilt&lt; OP, Halo_T, Halo_L, Halo_B, Halo_R, RHSExpr, Cols, Rows, LeafType, LVL &gt; &gt;::getTuple Pages: 1 -->
<svg width="709pt" height="88pt"
 viewBox="0.00 0.00 709.00 88.00" xmlns="http://www.w3.org/2000/svg" xmlns:xlink="http://www.w3.org/1999/xlink">
<g id="graph0" class="graph" transform="scale(1 1) rotate(0) translate(4 84)">
<title>visioncpp::internal::LocalOutput&lt; false, IsRoot, LC, LR, StnNoFilt&lt; OP, Halo_T, Halo_L, Halo_B, Halo_R, RHSExpr, Cols, Rows, LeafType, LVL &gt; &gt;::getTuple</title>
<!-- Node1 -->
<g id="node1" class="node">
<title>Node1</title>
<g id="a_node1"><a xlink:title=" ">
<polygon fill="#bfbfbf" stroke="black" points="0,-2.5 0,-76.5 188,-76.5 188,-2.5 0,-2.5"/>
<text text-anchor="start" x="8" y="-64.5" font-family="Helvetica,sans-Serif" font-size="10.00">visioncpp::internal</text>
<text text-anchor="start" x="8" y="-53.5" font-family="Helvetica,sans-Serif" font-size="10.00">::LocalOutput&lt; false,</text>
<text text-anchor="start" x="8" y="-42.5" font-family="Helvetica,sans-Serif" font-size="10.00"> IsRoot, LC, LR, StnNoFilt</text>
<text text-anchor="start" x="8" y="-31.5" font-family="Helvetica,sans-Serif" font-size="10.00">&lt; OP, Halo_T, Halo_L, Halo</text>
<text text-anchor="start" x="8" y="-20.5" font-family="Helvetica,sans-Serif" font-size="10.00">_B, Halo_R, RHSExpr, Cols,</text>
<text text-anchor="middle" x="94" y="-9.5" font-family="Helvetica,sans-Serif" font-size="10.00"> Rows, LeafType, LVL &gt; &gt;::getTuple</text>
</a>
</g>
</g>
<!-- Node2 -->
<g id="node2" class="node">
<title>Node2</title>
<g id="a_node2"><a xlink:href="namespacevisioncpp_1_1internal_1_1tools_1_1tuple.html#a8c1631050539cb92a3ac408ab976fb96" target="_top" xlink:title="append">
<polygon fill="none" stroke="black" points="224,-47.5 224,-77.5 343,-77.5 343,-47.5 224,-47.5"/>
<text text-anchor="start" x="232" y="-65.5" font-family="Helvetica,sans-Serif" font-size="10.00">visioncpp::internal</text>
<text text-anchor="middle" x="283.5" y="-54.5" font-family="Helvetica,sans-Serif" font-size="10.00">::tools::tuple::append</text>
</a>
</g>
</g>
<!-- Node1&#45;&gt;Node2 -->
<g id="edge1" class="edge">
<title>Node1&#45;&gt;Node2</title>
<path fill="none" stroke="midnightblue" d="M188.2,-50.93C196.83,-51.99 205.46,-53.05 213.8,-54.07"/>
<polygon fill="midnightblue" stroke="midnightblue" points="213.47,-57.56 223.82,-55.3 214.32,-50.61 213.47,-57.56"/>
</g>
<!-- Node5 -->
<g id="node5" class="node">
<title>Node5</title>
<g id="a_node5"><a xlink:href="structvisioncpp_1_1internal_1_1LocalOutput.html#abc63292a957140f2a601692f3c2983c4" target="_top" xlink:title="getTuple function is used to create and wrap local memory into a tuple">
<polygon fill="none" stroke="black" points="388,-0.5 388,-30.5 516,-30.5 516,-0.5 388,-0.5"/>
<text text-anchor="start" x="396" y="-18.5" font-family="Helvetica,sans-Serif" font-size="10.00">visioncpp::internal</text>
<text text-anchor="middle" x="452" y="-7.5" font-family="Helvetica,sans-Serif" font-size="10.00">::LocalOutput::getTuple</text>
</a>
</g>
</g>
<!-- Node1&#45;&gt;Node5 -->
<g id="edge4" class="edge">
<title>Node1&#45;&gt;Node5</title>
<path fill="none" stroke="midnightblue" d="M188.07,-33.23C247.32,-29.23 322.97,-24.13 377.9,-20.43"/>
<polygon fill="midnightblue" stroke="midnightblue" points="378.16,-23.92 387.9,-19.75 377.69,-16.93 378.16,-23.92"/>
</g>
<!-- Node3 -->
<g id="node3" class="node">
<title>Node3</title>
<g id="a_node3"><a xlink:href="namespacevisioncpp_1_1internal_1_1tools_1_1tuple.html#a250b510103551795245a4f26c6472dc5" target="_top" xlink:title="append_impl">
<polygon fill="none" stroke="black" points="379,-49.5 379,-79.5 525,-79.5 525,-49.5 379,-49.5"/>
<text text-anchor="start" x="387" y="-67.5" font-family="Helvetica,sans-Serif" font-size="10.00">visioncpp::internal</text>
<text text-anchor="middle" x="452" y="-56.5" font-family="Helvetica,sans-Serif" font-size="10.00">::tools::tuple::append_impl</text>
</a>
</g>
</g>
<!-- Node2&#45;&gt;Node3 -->
<g id="edge2" class="edge">
<title>Node2&#45;&gt;Node3</title>
<path fill="none" stroke="midnightblue" d="M343.2,-63.21C351.48,-63.3 360.11,-63.41 368.73,-63.51"/>
<polygon fill="midnightblue" stroke="midnightblue" points="368.78,-67.01 378.82,-63.63 368.86,-60.01 368.78,-67.01"/>
</g>
<!-- Node4 -->
<g id="node4" class="node">
<title>Node4</title>
<g id="a_node4"><a xlink:href="namespacevisioncpp_1_1internal_1_1tools_1_1tuple.html#ab2c7fe8e219c5f9e016a8ea40356005f" target="_top" xlink:title="make_tuple">
<polygon fill="none" stroke="black" points="561,-24.5 561,-54.5 701,-54.5 701,-24.5 561,-24.5"/>
<text text-anchor="start" x="569" y="-42.5" font-family="Helvetica,sans-Serif" font-size="10.00">visioncpp::internal</text>
<text text-anchor="middle" x="631" y="-31.5" font-family="Helvetica,sans-Serif" font-size="10.00">::tools::tuple::make_tuple</text>
</a>
</g>
</g>
<!-- Node3&#45;&gt;Node4 -->
<g id="edge3" class="edge">
<title>Node3&#45;&gt;Node4</title>
<path fill="none" stroke="midnightblue" d="M525.25,-54.3C533.7,-53.1 542.35,-51.88 550.89,-50.67"/>
<polygon fill="midnightblue" stroke="midnightblue" points="551.43,-54.13 560.84,-49.27 550.45,-47.2 551.43,-54.13"/>
</g>
<!-- Node5&#45;&gt;Node4 -->
<g id="edge5" class="edge">
<title>Node5&#45;&gt;Node4</title>
<path fill="none" stroke="midnightblue" d="M516.4,-24.1C527.53,-25.61 539.23,-27.19 550.72,-28.75"/>
<polygon fill="midnightblue" stroke="midnightblue" points="550.36,-32.23 560.74,-30.11 551.31,-25.3 550.36,-32.23"/>
</g>
</g>
</svg>
