<?xml version="1.0" encoding="UTF-8" standalone="no"?>
<!DOCTYPE svg PUBLIC "-//W3C//DTD SVG 1.1//EN"
 "http://www.w3.org/Graphics/SVG/1.1/DTD/svg11.dtd">
<!-- Generated by graphviz version 2.36.0 (20140111.2315)
 -->
<!-- Title: visioncpp::pixel::Storage&lt; LHSScalar, Channels &gt; Pages: 1 -->
<svg width="148pt" height="206pt"
 viewBox="0.00 0.00 148.00 206.00" xmlns="http://www.w3.org/2000/svg" xmlns:xlink="http://www.w3.org/1999/xlink">
<g id="graph0" class="graph" transform="scale(1 1) rotate(0) translate(4 202)">
<title>visioncpp::pixel::Storage&lt; LHSScalar, Channels &gt;</title>
<!-- Node1 -->
<g id="node1" class="node"><title>Node1</title>
<polygon fill="#bfbfbf" stroke="black" points="3.5,-1 3.5,-91 132.5,-91 132.5,-1 3.5,-1"/>
<text text-anchor="start" x="11.5" y="-79" font-family="Helvetica,sans-Serif" font-size="10.00">visioncpp::pixel::Storage</text>
<text text-anchor="middle" x="68" y="-68" font-family="Helvetica,sans-Serif" font-size="10.00">&lt; LHSScalar, Channels &gt;</text>
<polyline fill="none" stroke="black" points="3.5,-61 132.5,-61 "/>
<text text-anchor="middle" x="68" y="-49" font-family="Helvetica,sans-Serif" font-size="10.00"> </text>
<polyline fill="none" stroke="black" points="3.5,-42 132.5,-42 "/>
<text text-anchor="start" x="11.5" y="-30" font-family="Helvetica,sans-Serif" font-size="10.00">+ operator[]()</text>
<text text-anchor="start" x="11.5" y="-19" font-family="Helvetica,sans-Serif" font-size="10.00">+ operator[]()</text>
<text text-anchor="start" x="11.5" y="-8" font-family="Helvetica,sans-Serif" font-size="10.00">+ Storage()</text>
</g>
<!-- Node2 -->
<g id="node2" class="node"><title>Node2</title>
<polygon fill="none" stroke="#bfbfbf" points="0,-140.5 0,-197.5 64,-197.5 64,-140.5 0,-140.5"/>
<text text-anchor="middle" x="32" y="-185.5" font-family="Helvetica,sans-Serif" font-size="10.00">LHSScalar</text>
<polyline fill="none" stroke="#bfbfbf" points="0,-178.5 64,-178.5 "/>
<text text-anchor="middle" x="32" y="-166.5" font-family="Helvetica,sans-Serif" font-size="10.00"> </text>
<polyline fill="none" stroke="#bfbfbf" points="0,-159.5 64,-159.5 "/>
<text text-anchor="middle" x="32" y="-147.5" font-family="Helvetica,sans-Serif" font-size="10.00"> </text>
</g>
<!-- Node2&#45;&gt;Node1 -->
<g id="edge1" class="edge"><title>Node2&#45;&gt;Node1</title>
<path fill="none" stroke="#404040" d="M34.2239,-140.233C35.4205,-130.544 37.2418,-119.678 40,-110 40.692,-107.572 41.4601,-105.116 42.287,-102.654"/>
<polygon fill="none" stroke="#404040" points="42.3721,-102.423 40.6932,-95.4099 46.5209,-91.1629 48.1999,-98.1758 42.3721,-102.423"/>
<text text-anchor="middle" x="61" y="-113.5" font-family="Helvetica,sans-Serif" font-size="10.00"> +m_data</text>
</g>
<!-- Node3 -->
<g id="node3" class="node"><title>Node3</title>
<polygon fill="none" stroke="#bfbfbf" points="82.5,-140.5 82.5,-197.5 125.5,-197.5 125.5,-140.5 82.5,-140.5"/>
<text text-anchor="middle" x="104" y="-185.5" font-family="Helvetica,sans-Serif" font-size="10.00">size_t</text>
<polyline fill="none" stroke="#bfbfbf" points="82.5,-178.5 125.5,-178.5 "/>
<text text-anchor="middle" x="104" y="-166.5" font-family="Helvetica,sans-Serif" font-size="10.00"> </text>
<polyline fill="none" stroke="#bfbfbf" points="82.5,-159.5 125.5,-159.5 "/>
<text text-anchor="middle" x="104" y="-147.5" font-family="Helvetica,sans-Serif" font-size="10.00"> </text>
</g>
<!-- Node3&#45;&gt;Node1 -->
<g id="edge2" class="edge"><title>Node3&#45;&gt;Node1</title>
<path fill="none" stroke="#404040" d="M95.7409,-140.24C92.4351,-129.129 88.502,-115.909 84.6516,-102.968"/>
<polygon fill="none" stroke="#404040" points="84.5813,-102.731 79.0363,-98.1211 81.1592,-91.2295 86.7042,-95.8397 84.5813,-102.731"/>
<text text-anchor="middle" x="115.5" y="-113.5" font-family="Helvetica,sans-Serif" font-size="10.00"> +elements</text>
</g>
</g>
</svg>
