<?xml version="1.0" encoding="UTF-8" standalone="no"?>
<!DOCTYPE svg PUBLIC "-//W3C//DTD SVG 1.1//EN"
 "http://www.w3.org/Graphics/SVG/1.1/DTD/svg11.dtd">
<!-- Generated by graphviz version 2.36.0 (20140111.2315)
 -->
<!-- Title: visioncpp::internal::LocalOutput&lt; false, IsRoot, LC, LR, LeafNode&lt; RHS, LVL &gt; &gt; Pages: 1 -->
<svg width="142pt" height="216pt"
 viewBox="0.00 0.00 142.00 216.00" xmlns="http://www.w3.org/2000/svg" xmlns:xlink="http://www.w3.org/1999/xlink">
<g id="graph0" class="graph" transform="scale(1 1) rotate(0) translate(4 212)">
<title>visioncpp::internal::LocalOutput&lt; false, IsRoot, LC, LR, LeafNode&lt; RHS, LVL &gt; &gt;</title>
<!-- Node1 -->
<g id="node1" class="node"><title>Node1</title>
<polygon fill="#bfbfbf" stroke="black" points="0,-1 0,-91 134,-91 134,-1 0,-1"/>
<text text-anchor="start" x="8" y="-79" font-family="Helvetica,sans-Serif" font-size="10.00">visioncpp::internal</text>
<text text-anchor="start" x="8" y="-68" font-family="Helvetica,sans-Serif" font-size="10.00">::LocalOutput&lt; false,</text>
<text text-anchor="start" x="8" y="-57" font-family="Helvetica,sans-Serif" font-size="10.00"> IsRoot, LC, LR, LeafNode</text>
<text text-anchor="middle" x="67" y="-46" font-family="Helvetica,sans-Serif" font-size="10.00">&lt; RHS, LVL &gt; &gt;</text>
<polyline fill="none" stroke="black" points="0,-39 134,-39 "/>
<text text-anchor="middle" x="67" y="-27" font-family="Helvetica,sans-Serif" font-size="10.00"> </text>
<polyline fill="none" stroke="black" points="0,-20 134,-20 "/>
<text text-anchor="start" x="8" y="-8" font-family="Helvetica,sans-Serif" font-size="10.00">+ getTuple()</text>
</g>
<!-- Node2 -->
<g id="node2" class="node"><title>Node2</title>
<polygon fill="none" stroke="#bfbfbf" points="45.5,-150.5 45.5,-207.5 88.5,-207.5 88.5,-150.5 45.5,-150.5"/>
<text text-anchor="middle" x="67" y="-195.5" font-family="Helvetica,sans-Serif" font-size="10.00">size_t</text>
<polyline fill="none" stroke="#bfbfbf" points="45.5,-188.5 88.5,-188.5 "/>
<text text-anchor="middle" x="67" y="-176.5" font-family="Helvetica,sans-Serif" font-size="10.00"> </text>
<polyline fill="none" stroke="#bfbfbf" points="45.5,-169.5 88.5,-169.5 "/>
<text text-anchor="middle" x="67" y="-157.5" font-family="Helvetica,sans-Serif" font-size="10.00"> </text>
</g>
<!-- Node2&#45;&gt;Node1 -->
<g id="edge1" class="edge"><title>Node2&#45;&gt;Node1</title>
<path fill="none" stroke="#404040" d="M67,-150.218C67,-136.573 67,-119.614 67,-103.412"/>
<polygon fill="none" stroke="#404040" points="67.0001,-103.236 63,-97.2365 67,-91.2365 71,-97.2364 67.0001,-103.236"/>
<text text-anchor="middle" x="88.5" y="-124" font-family="Helvetica,sans-Serif" font-size="10.00"> +Out_LR</text>
<text text-anchor="middle" x="88.5" y="-113" font-family="Helvetica,sans-Serif" font-size="10.00">+Out_LC</text>
</g>
</g>
</svg>
