<?xml version="1.0" encoding="UTF-8" standalone="no"?>
<!DOCTYPE svg PUBLIC "-//W3C//DTD SVG 1.1//EN"
 "http://www.w3.org/Graphics/SVG/1.1/DTD/svg11.dtd">
<!-- Generated by graphviz version 2.36.0 (20140111.2315)
 -->
<!-- Title: visioncpp::internal::LocalMemCount&lt; expr_category::Binary, ParallelCopy&lt; LHSExpr, RHSExpr, Cols, Rows, OffsetColIn, OffsetRowIn, OffsetColOut, OffsetRowOut, LeafType, LVL &gt; &gt; Pages: 1 -->
<svg width="206pt" height="228pt"
 viewBox="0.00 0.00 206.00 228.00" xmlns="http://www.w3.org/2000/svg" xmlns:xlink="http://www.w3.org/1999/xlink">
<g id="graph0" class="graph" transform="scale(1 1) rotate(0) translate(4 224)">
<title>visioncpp::internal::LocalMemCount&lt; expr_category::Binary, ParallelCopy&lt; LHSExpr, RHSExpr, Cols, Rows, OffsetColIn, OffsetRowIn, OffsetColOut, OffsetRowOut, LeafType, LVL &gt; &gt;</title>
<!-- Node1 -->
<g id="node1" class="node"><title>Node1</title>
<polygon fill="#bfbfbf" stroke="black" points="0,-1 0,-113 198,-113 198,-1 0,-1"/>
<text text-anchor="start" x="8" y="-101" font-family="Helvetica,sans-Serif" font-size="10.00">visioncpp::internal</text>
<text text-anchor="start" x="8" y="-90" font-family="Helvetica,sans-Serif" font-size="10.00">::LocalMemCount&lt; expr</text>
<text text-anchor="start" x="8" y="-79" font-family="Helvetica,sans-Serif" font-size="10.00">_category::Binary, ParallelCopy</text>
<text text-anchor="start" x="8" y="-68" font-family="Helvetica,sans-Serif" font-size="10.00">&lt; LHSExpr, RHSExpr, Cols, Rows,</text>
<text text-anchor="start" x="8" y="-57" font-family="Helvetica,sans-Serif" font-size="10.00"> OffsetColIn, OffsetRowIn, OffsetColOut,</text>
<text text-anchor="middle" x="99" y="-46" font-family="Helvetica,sans-Serif" font-size="10.00"> OffsetRowOut, LeafType, LVL &gt; &gt;</text>
<polyline fill="none" stroke="black" points="0,-39 198,-39 "/>
<text text-anchor="middle" x="99" y="-27" font-family="Helvetica,sans-Serif" font-size="10.00"> </text>
<polyline fill="none" stroke="black" points="0,-20 198,-20 "/>
<text text-anchor="middle" x="99" y="-8" font-family="Helvetica,sans-Serif" font-size="10.00"> </text>
</g>
<!-- Node2 -->
<g id="node2" class="node"><title>Node2</title>
<polygon fill="none" stroke="#bfbfbf" points="77.5,-162.5 77.5,-219.5 120.5,-219.5 120.5,-162.5 77.5,-162.5"/>
<text text-anchor="middle" x="99" y="-207.5" font-family="Helvetica,sans-Serif" font-size="10.00">size_t</text>
<polyline fill="none" stroke="#bfbfbf" points="77.5,-200.5 120.5,-200.5 "/>
<text text-anchor="middle" x="99" y="-188.5" font-family="Helvetica,sans-Serif" font-size="10.00"> </text>
<polyline fill="none" stroke="#bfbfbf" points="77.5,-181.5 120.5,-181.5 "/>
<text text-anchor="middle" x="99" y="-169.5" font-family="Helvetica,sans-Serif" font-size="10.00"> </text>
</g>
<!-- Node2&#45;&gt;Node1 -->
<g id="edge1" class="edge"><title>Node2&#45;&gt;Node1</title>
<path fill="none" stroke="#404040" d="M99,-162.328C99,-151.389 99,-138.3 99,-125.15"/>
<polygon fill="none" stroke="#404040" points="99.0001,-125.116 95,-119.116 99,-113.116 103,-119.116 99.0001,-125.116"/>
<text text-anchor="middle" x="117" y="-135.5" font-family="Helvetica,sans-Serif" font-size="10.00"> +Count</text>
</g>
</g>
</svg>
