<?xml version="1.0" encoding="UTF-8" standalone="no"?>
<!DOCTYPE svg PUBLIC "-//W3C//DTD SVG 1.1//EN"
 "http://www.w3.org/Graphics/SVG/1.1/DTD/svg11.dtd">
<!-- Generated by graphviz version 2.36.0 (20140111.2315)
 -->
<!-- Title: visioncpp::internal::RDCN&lt; DownSmplOP, RHS, Cols, Rows, LfType, LVL &gt; Pages: 1 -->
<svg width="293pt" height="304pt"
 viewBox="0.00 0.00 293.00 304.00" xmlns="http://www.w3.org/2000/svg" xmlns:xlink="http://www.w3.org/1999/xlink">
<g id="graph0" class="graph" transform="scale(1 1) rotate(0) translate(4 300)">
<title>visioncpp::internal::RDCN&lt; DownSmplOP, RHS, Cols, Rows, LfType, LVL &gt;</title>
<!-- Node1 -->
<g id="node1" class="node"><title>Node1</title>
<polygon fill="#bfbfbf" stroke="black" points="45.5,-1 45.5,-113 194.5,-113 194.5,-1 45.5,-1"/>
<text text-anchor="start" x="53.5" y="-101" font-family="Helvetica,sans-Serif" font-size="10.00">visioncpp::internal</text>
<text text-anchor="start" x="53.5" y="-90" font-family="Helvetica,sans-Serif" font-size="10.00">::RDCN&lt; DownSmplOP,</text>
<text text-anchor="start" x="53.5" y="-79" font-family="Helvetica,sans-Serif" font-size="10.00"> RHS, Cols, Rows, LfType,</text>
<text text-anchor="middle" x="120" y="-68" font-family="Helvetica,sans-Serif" font-size="10.00"> LVL &gt;</text>
<polyline fill="none" stroke="black" points="45.5,-61 194.5,-61 "/>
<text text-anchor="middle" x="120" y="-49" font-family="Helvetica,sans-Serif" font-size="10.00"> </text>
<polyline fill="none" stroke="black" points="45.5,-42 194.5,-42 "/>
<text text-anchor="start" x="53.5" y="-30" font-family="Helvetica,sans-Serif" font-size="10.00">+ RDCN()</text>
<text text-anchor="start" x="53.5" y="-19" font-family="Helvetica,sans-Serif" font-size="10.00">+ reset()</text>
<text text-anchor="start" x="53.5" y="-8" font-family="Helvetica,sans-Serif" font-size="10.00">+ sub_expression_evaluation()</text>
</g>
<!-- Node2 -->
<g id="node2" class="node"><title>Node2</title>
<polygon fill="none" stroke="#bfbfbf" points="-0.5,-238.5 -0.5,-295.5 42.5,-295.5 42.5,-238.5 -0.5,-238.5"/>
<text text-anchor="middle" x="21" y="-283.5" font-family="Helvetica,sans-Serif" font-size="10.00">size_t</text>
<polyline fill="none" stroke="#bfbfbf" points="-0.5,-276.5 42.5,-276.5 "/>
<text text-anchor="middle" x="21" y="-264.5" font-family="Helvetica,sans-Serif" font-size="10.00"> </text>
<polyline fill="none" stroke="#bfbfbf" points="-0.5,-257.5 42.5,-257.5 "/>
<text text-anchor="middle" x="21" y="-245.5" font-family="Helvetica,sans-Serif" font-size="10.00"> </text>
</g>
<!-- Node2&#45;&gt;Node1 -->
<g id="edge1" class="edge"><title>Node2&#45;&gt;Node1</title>
<path fill="none" stroke="#404040" d="M19.6566,-238.443C19.4369,-210.146 22.3896,-165.613 40,-132 41.6051,-128.936 43.389,-125.933 45.3178,-122.996"/>
<polygon fill="none" stroke="#404040" points="45.3256,-122.986 45.6211,-115.781 52.3856,-113.282 52.0901,-120.487 45.3256,-122.986"/>
<text text-anchor="middle" x="78" y="-212" font-family="Helvetica,sans-Serif" font-size="10.00"> +Operation_type</text>
<text text-anchor="middle" x="78" y="-201" font-family="Helvetica,sans-Serif" font-size="10.00">+Level</text>
<text text-anchor="middle" x="78" y="-190" font-family="Helvetica,sans-Serif" font-size="10.00">+LeafType</text>
<text text-anchor="middle" x="78" y="-179" font-family="Helvetica,sans-Serif" font-size="10.00">+RThread</text>
<text text-anchor="middle" x="78" y="-168" font-family="Helvetica,sans-Serif" font-size="10.00">+CThread</text>
<text text-anchor="middle" x="78" y="-157" font-family="Helvetica,sans-Serif" font-size="10.00">+LR_Ratio</text>
<text text-anchor="middle" x="78" y="-146" font-family="Helvetica,sans-Serif" font-size="10.00">+LC_Ratio</text>
<text text-anchor="middle" x="78" y="-135" font-family="Helvetica,sans-Serif" font-size="10.00">+ND_Category</text>
</g>
<!-- Node3 -->
<g id="node3" class="node"><title>Node3</title>
<polygon fill="none" stroke="#bfbfbf" points="101,-238.5 101,-295.5 139,-295.5 139,-238.5 101,-238.5"/>
<text text-anchor="middle" x="120" y="-283.5" font-family="Helvetica,sans-Serif" font-size="10.00">RHS</text>
<polyline fill="none" stroke="#bfbfbf" points="101,-276.5 139,-276.5 "/>
<text text-anchor="middle" x="120" y="-264.5" font-family="Helvetica,sans-Serif" font-size="10.00"> </text>
<polyline fill="none" stroke="#bfbfbf" points="101,-257.5 139,-257.5 "/>
<text text-anchor="middle" x="120" y="-245.5" font-family="Helvetica,sans-Serif" font-size="10.00"> </text>
</g>
<!-- Node3&#45;&gt;Node1 -->
<g id="edge2" class="edge"><title>Node3&#45;&gt;Node1</title>
<path fill="none" stroke="#404040" d="M120,-238.379C120,-209.661 120,-163.625 120,-125.25"/>
<polygon fill="none" stroke="#404040" points="120,-125.092 116,-119.092 120,-113.092 124,-119.092 120,-125.092"/>
<text text-anchor="middle" x="131.5" y="-173.5" font-family="Helvetica,sans-Serif" font-size="10.00"> +rhs</text>
</g>
<!-- Node4 -->
<g id="node4" class="node"><title>Node4</title>
<polygon fill="none" stroke="#bfbfbf" points="157.5,-238.5 157.5,-295.5 192.5,-295.5 192.5,-238.5 157.5,-238.5"/>
<text text-anchor="middle" x="175" y="-283.5" font-family="Helvetica,sans-Serif" font-size="10.00">bool</text>
<polyline fill="none" stroke="#bfbfbf" points="157.5,-276.5 192.5,-276.5 "/>
<text text-anchor="middle" x="175" y="-264.5" font-family="Helvetica,sans-Serif" font-size="10.00"> </text>
<polyline fill="none" stroke="#bfbfbf" points="157.5,-257.5 192.5,-257.5 "/>
<text text-anchor="middle" x="175" y="-245.5" font-family="Helvetica,sans-Serif" font-size="10.00"> </text>
</g>
<!-- Node4&#45;&gt;Node1 -->
<g id="edge3" class="edge"><title>Node4&#45;&gt;Node1</title>
<path fill="none" stroke="#404040" d="M170.407,-238.257C165.606,-210.96 157.335,-168.224 147,-132 146.311,-129.586 145.582,-127.137 144.823,-124.671"/>
<polygon fill="none" stroke="#404040" points="144.765,-124.493 139.115,-120.013 141.078,-113.074 146.728,-117.554 144.765,-124.493"/>
<text text-anchor="middle" x="226" y="-195.5" font-family="Helvetica,sans-Serif" font-size="10.00"> +has_out</text>
<text text-anchor="start" x="167" y="-184.5" font-family="Helvetica,sans-Serif" font-size="10.00">+SubExpressionEvaluation</text>
<text text-anchor="middle" x="226" y="-173.5" font-family="Helvetica,sans-Serif" font-size="10.00">Needed</text>
<text text-anchor="start" x="167" y="-162.5" font-family="Helvetica,sans-Serif" font-size="10.00">+subexpr_execution</text>
<text text-anchor="middle" x="226" y="-151.5" font-family="Helvetica,sans-Serif" font-size="10.00">_reseter</text>
</g>
</g>
</svg>
