<?xml version="1.0" encoding="UTF-8" standalone="no"?>
<!DOCTYPE svg PUBLIC "-//W3C//DTD SVG 1.1//EN"
 "http://www.w3.org/Graphics/SVG/1.1/DTD/svg11.dtd">
<!-- Generated by graphviz version 2.36.0 (20140111.2315)
 -->
<!-- Title: visioncpp::internal::GlobalUnaryOp&lt; USROP, InTp &gt; Pages: 1 -->
<svg width="371pt" height="526pt"
 viewBox="0.00 0.00 371.00 526.00" xmlns="http://www.w3.org/2000/svg" xmlns:xlink="http://www.w3.org/1999/xlink">
<g id="graph0" class="graph" transform="scale(1 1) rotate(0) translate(4 522)">
<title>visioncpp::internal::GlobalUnaryOp&lt; USROP, InTp &gt;</title>
<!-- Node1 -->
<g id="node1" class="node"><title>Node1</title>
<polygon fill="#bfbfbf" stroke="black" points="-0.5,-0.5 -0.5,-79.5 136.5,-79.5 136.5,-0.5 -0.5,-0.5"/>
<text text-anchor="start" x="7.5" y="-67.5" font-family="Helvetica,sans-Serif" font-size="10.00">visioncpp::internal</text>
<text text-anchor="start" x="7.5" y="-56.5" font-family="Helvetica,sans-Serif" font-size="10.00">::GlobalUnaryOp&lt; USROP,</text>
<text text-anchor="middle" x="68" y="-45.5" font-family="Helvetica,sans-Serif" font-size="10.00"> InTp &gt;</text>
<polyline fill="none" stroke="black" points="-0.5,-38.5 136.5,-38.5 "/>
<text text-anchor="middle" x="68" y="-26.5" font-family="Helvetica,sans-Serif" font-size="10.00"> </text>
<polyline fill="none" stroke="black" points="-0.5,-19.5 136.5,-19.5 "/>
<text text-anchor="middle" x="68" y="-7.5" font-family="Helvetica,sans-Serif" font-size="10.00"> </text>
</g>
<!-- Node2 -->
<g id="node2" class="node"><title>Node2</title>
<g id="a_node2"><a xlink:href="structvisioncpp_1_1internal_1_1GlobalNeighbour.html" target="_top" xlink:title="{visioncpp::internal\l::GlobalNeighbour\&lt; InTp \&gt;\n||+ GlobalNeighbour()\l+ set_offset()\l+ at()\l+ at()\l}">
<polygon fill="none" stroke="black" points="95,-128.5 95,-229.5 227,-229.5 227,-128.5 95,-128.5"/>
<text text-anchor="start" x="103" y="-217.5" font-family="Helvetica,sans-Serif" font-size="10.00">visioncpp::internal</text>
<text text-anchor="middle" x="161" y="-206.5" font-family="Helvetica,sans-Serif" font-size="10.00">::GlobalNeighbour&lt; InTp &gt;</text>
<polyline fill="none" stroke="black" points="95,-199.5 227,-199.5 "/>
<text text-anchor="middle" x="161" y="-187.5" font-family="Helvetica,sans-Serif" font-size="10.00"> </text>
<polyline fill="none" stroke="black" points="95,-180.5 227,-180.5 "/>
<text text-anchor="start" x="103" y="-168.5" font-family="Helvetica,sans-Serif" font-size="10.00">+ GlobalNeighbour()</text>
<text text-anchor="start" x="103" y="-157.5" font-family="Helvetica,sans-Serif" font-size="10.00">+ set_offset()</text>
<text text-anchor="start" x="103" y="-146.5" font-family="Helvetica,sans-Serif" font-size="10.00">+ at()</text>
<text text-anchor="start" x="103" y="-135.5" font-family="Helvetica,sans-Serif" font-size="10.00">+ at()</text>
</a>
</g>
</g>
<!-- Node2&#45;&gt;Node1 -->
<g id="edge1" class="edge"><title>Node2&#45;&gt;Node1</title>
<path fill="none" stroke="#404040" d="M127.162,-128.152C118.722,-115.72 109.68,-102.4 101.269,-90.0086"/>
<polygon fill="none" stroke="#404040" points="101.118,-89.7865 94.4384,-87.0688 94.378,-79.8579 101.057,-82.5756 101.118,-89.7865"/>
<text text-anchor="middle" x="122.5" y="-101.5" font-family="Helvetica,sans-Serif" font-size="10.00"> +x</text>
</g>
<!-- Node3 -->
<g id="node3" class="node"><title>Node3</title>
<polygon fill="none" stroke="#bfbfbf" points="55,-300.5 55,-357.5 161,-357.5 161,-300.5 55,-300.5"/>
<text text-anchor="middle" x="108" y="-345.5" font-family="Helvetica,sans-Serif" font-size="10.00">global_ptr&lt; InTp &gt; &amp;</text>
<polyline fill="none" stroke="#bfbfbf" points="55,-338.5 161,-338.5 "/>
<text text-anchor="middle" x="108" y="-326.5" font-family="Helvetica,sans-Serif" font-size="10.00"> </text>
<polyline fill="none" stroke="#bfbfbf" points="55,-319.5 161,-319.5 "/>
<text text-anchor="middle" x="108" y="-307.5" font-family="Helvetica,sans-Serif" font-size="10.00"> </text>
</g>
<!-- Node3&#45;&gt;Node2 -->
<g id="edge2" class="edge"><title>Node3&#45;&gt;Node2</title>
<path fill="none" stroke="#404040" d="M117.969,-300.162C123.937,-283.496 131.769,-261.627 139.112,-241.12"/>
<polygon fill="none" stroke="#404040" points="139.198,-240.88 137.455,-233.883 143.244,-229.583 144.987,-236.58 139.198,-240.88"/>
<text text-anchor="middle" x="147.5" y="-251.5" font-family="Helvetica,sans-Serif" font-size="10.00"> +ptr</text>
</g>
<!-- Node4 -->
<g id="node4" class="node"><title>Node4</title>
<polygon fill="none" stroke="#bfbfbf" points="175.5,-460.5 175.5,-517.5 218.5,-517.5 218.5,-460.5 175.5,-460.5"/>
<text text-anchor="middle" x="197" y="-505.5" font-family="Helvetica,sans-Serif" font-size="10.00">size_t</text>
<polyline fill="none" stroke="#bfbfbf" points="175.5,-498.5 218.5,-498.5 "/>
<text text-anchor="middle" x="197" y="-486.5" font-family="Helvetica,sans-Serif" font-size="10.00"> </text>
<polyline fill="none" stroke="#bfbfbf" points="175.5,-479.5 218.5,-479.5 "/>
<text text-anchor="middle" x="197" y="-467.5" font-family="Helvetica,sans-Serif" font-size="10.00"> </text>
</g>
<!-- Node4&#45;&gt;Node1 -->
<g id="edge7" class="edge"><title>Node4&#45;&gt;Node1</title>
<path fill="none" stroke="#404040" d="M175.454,-480.149C140.704,-466.168 73.4147,-433.313 46,-380 -1.80471,-287.035 27.1336,-160.294 49.4625,-91.1135"/>
<polygon fill="none" stroke="#404040" points="49.4703,-91.09 47.567,-84.1345 53.2553,-79.7025 55.1586,-86.6579 49.4703,-91.09"/>
<text text-anchor="middle" x="59" y="-251.5" font-family="Helvetica,sans-Serif" font-size="10.00"> +Operation_type</text>
</g>
<!-- Node4&#45;&gt;Node2 -->
<g id="edge3" class="edge"><title>Node4&#45;&gt;Node2</title>
<path fill="none" stroke="#404040" d="M193.774,-460.396C188.046,-411.398 175.976,-308.126 168.19,-241.517"/>
<polygon fill="none" stroke="#404040" points="168.182,-241.446 163.513,-235.951 166.789,-229.527 171.458,-235.022 168.182,-241.446"/>
<text text-anchor="middle" x="199" y="-343" font-family="Helvetica,sans-Serif" font-size="10.00"> +I_c</text>
<text text-anchor="middle" x="199" y="-332" font-family="Helvetica,sans-Serif" font-size="10.00">+rows</text>
<text text-anchor="middle" x="199" y="-321" font-family="Helvetica,sans-Serif" font-size="10.00">+cols</text>
<text text-anchor="middle" x="199" y="-310" font-family="Helvetica,sans-Serif" font-size="10.00">+I_r</text>
</g>
<!-- Node5 -->
<g id="node5" class="node"><title>Node5</title>
<g id="a_node5"><a xlink:href="structvisioncpp_1_1internal_1_1GlobalNeighbour.html" target="_top" xlink:title="GlobalNeighbour is used to provide local access for each element of the global memory based on the Co...">
<polygon fill="none" stroke="black" points="243.5,-278.5 243.5,-379.5 362.5,-379.5 362.5,-278.5 243.5,-278.5"/>
<text text-anchor="start" x="251.5" y="-367.5" font-family="Helvetica,sans-Serif" font-size="10.00">visioncpp::internal</text>
<text text-anchor="middle" x="303" y="-356.5" font-family="Helvetica,sans-Serif" font-size="10.00">::GlobalNeighbour&lt; T &gt;</text>
<polyline fill="none" stroke="black" points="243.5,-349.5 362.5,-349.5 "/>
<text text-anchor="middle" x="303" y="-337.5" font-family="Helvetica,sans-Serif" font-size="10.00"> </text>
<polyline fill="none" stroke="black" points="243.5,-330.5 362.5,-330.5 "/>
<text text-anchor="start" x="251.5" y="-318.5" font-family="Helvetica,sans-Serif" font-size="10.00">+ GlobalNeighbour()</text>
<text text-anchor="start" x="251.5" y="-307.5" font-family="Helvetica,sans-Serif" font-size="10.00">+ set_offset()</text>
<text text-anchor="start" x="251.5" y="-296.5" font-family="Helvetica,sans-Serif" font-size="10.00">+ at()</text>
<text text-anchor="start" x="251.5" y="-285.5" font-family="Helvetica,sans-Serif" font-size="10.00">+ at()</text>
</a>
</g>
</g>
<!-- Node4&#45;&gt;Node5 -->
<g id="edge5" class="edge"><title>Node4&#45;&gt;Node5</title>
<path fill="none" stroke="#404040" d="M215.464,-460.479C228.543,-440.983 246.592,-414.08 262.905,-389.765"/>
<polygon fill="none" stroke="#404040" points="263.084,-389.497 263.105,-382.286 269.77,-379.532 269.749,-386.743 263.084,-389.497"/>
<text text-anchor="middle" x="271" y="-434" font-family="Helvetica,sans-Serif" font-size="10.00"> +I_c</text>
<text text-anchor="middle" x="271" y="-423" font-family="Helvetica,sans-Serif" font-size="10.00">+rows</text>
<text text-anchor="middle" x="271" y="-412" font-family="Helvetica,sans-Serif" font-size="10.00">+cols</text>
<text text-anchor="middle" x="271" y="-401" font-family="Helvetica,sans-Serif" font-size="10.00">+I_r</text>
</g>
<!-- Node5&#45;&gt;Node2 -->
<g id="edge4" class="edge"><title>Node5&#45;&gt;Node2</title>
<path fill="none" stroke="orange" d="M248.155,-270.838C235.092,-257.223 221.258,-242.804 208.553,-229.562"/>
<polygon fill="orange" stroke="orange" points="245.872,-273.514 255.321,-278.306 250.923,-268.667 245.872,-273.514"/>
<text text-anchor="middle" x="257.5" y="-251.5" font-family="Helvetica,sans-Serif" font-size="10.00"> &lt; InTp &gt;</text>
</g>
<!-- Node6 -->
<g id="node6" class="node"><title>Node6</title>
<polygon fill="none" stroke="#bfbfbf" points="257,-460.5 257,-517.5 349,-517.5 349,-460.5 257,-460.5"/>
<text text-anchor="middle" x="303" y="-505.5" font-family="Helvetica,sans-Serif" font-size="10.00">global_ptr&lt; T &gt; &amp;</text>
<polyline fill="none" stroke="#bfbfbf" points="257,-498.5 349,-498.5 "/>
<text text-anchor="middle" x="303" y="-486.5" font-family="Helvetica,sans-Serif" font-size="10.00"> </text>
<polyline fill="none" stroke="#bfbfbf" points="257,-479.5 349,-479.5 "/>
<text text-anchor="middle" x="303" y="-467.5" font-family="Helvetica,sans-Serif" font-size="10.00"> </text>
</g>
<!-- Node6&#45;&gt;Node5 -->
<g id="edge6" class="edge"><title>Node6&#45;&gt;Node5</title>
<path fill="none" stroke="#404040" d="M303,-460.479C303,-441.505 303,-415.516 303,-391.724"/>
<polygon fill="none" stroke="#404040" points="303,-391.532 299,-385.532 303,-379.532 307,-385.532 303,-391.532"/>
<text text-anchor="middle" x="313.5" y="-417.5" font-family="Helvetica,sans-Serif" font-size="10.00"> +ptr</text>
</g>
</g>
</svg>
