<?xml version="1.0" encoding="UTF-8" standalone="no"?>
<!DOCTYPE svg PUBLIC "-//W3C//DTD SVG 1.1//EN"
 "http://www.w3.org/Graphics/SVG/1.1/DTD/svg11.dtd">
<!-- Generated by graphviz version 2.36.0 (20140111.2315)
 -->
<!-- Title: device.hpp Pages: 1 -->
<svg width="229pt" height="84pt"
 viewBox="0.00 0.00 229.00 84.00" xmlns="http://www.w3.org/2000/svg" xmlns:xlink="http://www.w3.org/1999/xlink">
<g id="graph0" class="graph" transform="scale(1 1) rotate(0) translate(4 80)">
<title>device.hpp</title>
<!-- Node1 -->
<g id="node1" class="node"><title>Node1</title>
<polygon fill="#bfbfbf" stroke="black" points="86,-56.5 86,-75.5 150,-75.5 150,-56.5 86,-56.5"/>
<text text-anchor="middle" x="118" y="-63.5" font-family="Helvetica,sans-Serif" font-size="10.00">device.hpp</text>
</g>
<!-- Node2 -->
<g id="node2" class="node"><title>Node2</title>
<g id="a_node2"><a xlink:href="extract__accessors_8hpp.html" target="_top" xlink:title="This files is used to provide an access mechanism for terminal nodes on the device. ">
<polygon fill="none" stroke="black" points="0,-0.5 0,-19.5 116,-19.5 116,-0.5 0,-0.5"/>
<text text-anchor="middle" x="58" y="-7.5" font-family="Helvetica,sans-Serif" font-size="10.00">extract_accessors.hpp</text>
</a>
</g>
</g>
<!-- Node1&#45;&gt;Node2 -->
<g id="edge1" class="edge"><title>Node1&#45;&gt;Node2</title>
<path fill="none" stroke="midnightblue" d="M108.36,-56.324C99.4904,-48.3414 86.1253,-36.3128 75.3921,-26.6529"/>
<polygon fill="midnightblue" stroke="midnightblue" points="77.5898,-23.922 67.8154,-19.8339 72.907,-29.1251 77.5898,-23.922"/>
</g>
<!-- Node3 -->
<g id="node3" class="node"><title>Node3</title>
<g id="a_node3"><a xlink:href="sycl__device_8hpp.html" target="_top" xlink:title="This fill contains features related to sycl devices. ">
<polygon fill="none" stroke="black" points="134.5,-0.5 134.5,-19.5 221.5,-19.5 221.5,-0.5 134.5,-0.5"/>
<text text-anchor="middle" x="178" y="-7.5" font-family="Helvetica,sans-Serif" font-size="10.00">sycl_device.hpp</text>
</a>
</g>
</g>
<!-- Node1&#45;&gt;Node3 -->
<g id="edge2" class="edge"><title>Node1&#45;&gt;Node3</title>
<path fill="none" stroke="midnightblue" d="M127.64,-56.324C136.51,-48.3414 149.875,-36.3128 160.608,-26.6529"/>
<polygon fill="midnightblue" stroke="midnightblue" points="163.093,-29.1251 168.185,-19.8339 158.41,-23.922 163.093,-29.1251"/>
</g>
</g>
</svg>
