<?xml version="1.0" encoding="UTF-8" standalone="no"?>
<!DOCTYPE svg PUBLIC "-//W3C//DTD SVG 1.1//EN"
 "http://www.w3.org/Graphics/SVG/1.1/DTD/svg11.dtd">
<!-- Generated by graphviz version 2.43.0 (0)
 -->
<!-- Title: device.hpp Pages: 1 -->
<svg width="246pt" height="84pt"
 viewBox="0.00 0.00 246.00 84.00" xmlns="http://www.w3.org/2000/svg" xmlns:xlink="http://www.w3.org/1999/xlink">
<g id="graph0" class="graph" transform="scale(1 1) rotate(0) translate(4 80)">
<title>device.hpp</title>
<!-- Node1 -->
<g id="node1" class="node">
<title>Node1</title>
<g id="a_node1"><a xlink:title="This file contains the include headers for sycl devices.">
<polygon fill="#bfbfbf" stroke="black" points="91.5,-56.5 91.5,-75.5 161.5,-75.5 161.5,-56.5 91.5,-56.5"/>
<text text-anchor="middle" x="126.5" y="-63.5" font-family="Helvetica,sans-Serif" font-size="10.00">device.hpp</text>
</a>
</g>
</g>
<!-- Node2 -->
<g id="node2" class="node">
<title>Node2</title>
<g id="a_node2"><a xlink:href="extract__accessors_8hpp.html" target="_top" xlink:title="This files is used to provide an access mechanism for terminal nodes on the device.">
<polygon fill="none" stroke="black" points="0,-0.5 0,-19.5 125,-19.5 125,-0.5 0,-0.5"/>
<text text-anchor="middle" x="62.5" y="-7.5" font-family="Helvetica,sans-Serif" font-size="10.00">extract_accessors.hpp</text>
</a>
</g>
</g>
<!-- Node1&#45;&gt;Node2 -->
<g id="edge1" class="edge">
<title>Node1&#45;&gt;Node2</title>
<path fill="none" stroke="midnightblue" d="M116.22,-56.32C106.66,-48.26 92.22,-36.08 80.72,-26.37"/>
<polygon fill="midnightblue" stroke="midnightblue" points="82.87,-23.61 72.97,-19.83 78.36,-28.96 82.87,-23.61"/>
</g>
<!-- Node3 -->
<g id="node3" class="node">
<title>Node3</title>
<g id="a_node3"><a xlink:href="sycl__device_8hpp.html" target="_top" xlink:title="This fill contains features related to sycl devices.">
<polygon fill="none" stroke="black" points="143,-0.5 143,-19.5 238,-19.5 238,-0.5 143,-0.5"/>
<text text-anchor="middle" x="190.5" y="-7.5" font-family="Helvetica,sans-Serif" font-size="10.00">sycl_device.hpp</text>
</a>
</g>
</g>
<!-- Node1&#45;&gt;Node3 -->
<g id="edge2" class="edge">
<title>Node1&#45;&gt;Node3</title>
<path fill="none" stroke="midnightblue" d="M136.78,-56.32C146.34,-48.26 160.78,-36.08 172.28,-26.37"/>
<polygon fill="midnightblue" stroke="midnightblue" points="174.64,-28.96 180.03,-19.83 170.13,-23.61 174.64,-28.96"/>
</g>
</g>
</svg>
