<?xml version="1.0" encoding="UTF-8" standalone="no"?>
<!DOCTYPE svg PUBLIC "-//W3C//DTD SVG 1.1//EN"
 "http://www.w3.org/Graphics/SVG/1.1/DTD/svg11.dtd">
<!-- Generated by graphviz version 2.43.0 (0)
 -->
<!-- Title: tools.hpp Pages: 1 -->
<svg width="478pt" height="140pt"
 viewBox="0.00 0.00 478.00 140.00" xmlns="http://www.w3.org/2000/svg" xmlns:xlink="http://www.w3.org/1999/xlink">
<g id="graph0" class="graph" transform="scale(1 1) rotate(0) translate(4 136)">
<title>tools.hpp</title>
<!-- Node1 -->
<g id="node1" class="node">
<title>Node1</title>
<g id="a_node1"><a xlink:title="Collection of tools headers.">
<polygon fill="#bfbfbf" stroke="black" points="185,-112.5 185,-131.5 247,-131.5 247,-112.5 185,-112.5"/>
<text text-anchor="middle" x="216" y="-119.5" font-family="Helvetica,sans-Serif" font-size="10.00">tools.hpp</text>
</a>
</g>
</g>
<!-- Node2 -->
<g id="node2" class="node">
<title>Node2</title>
<g id="a_node2"><a xlink:href="convert_8hpp.html" target="_top" xlink:title="Series of pixel convert functions.">
<polygon fill="none" stroke="black" points="0,-56.5 0,-75.5 74,-75.5 74,-56.5 0,-56.5"/>
<text text-anchor="middle" x="37" y="-63.5" font-family="Helvetica,sans-Serif" font-size="10.00">convert.hpp</text>
</a>
</g>
</g>
<!-- Node1&#45;&gt;Node2 -->
<g id="edge1" class="edge">
<title>Node1&#45;&gt;Node2</title>
<path fill="none" stroke="midnightblue" d="M187.64,-112.44C157.26,-103.28 108.89,-88.69 75.18,-78.52"/>
<polygon fill="midnightblue" stroke="midnightblue" points="75.82,-75.05 65.23,-75.52 73.79,-81.76 75.82,-75.05"/>
</g>
<!-- Node3 -->
<g id="node3" class="node">
<title>Node3</title>
<g id="a_node3"><a xlink:href="static__if_8hpp.html" target="_top" xlink:title="This file provides a set of static_if functions used at to calculate the result of if statement at co...">
<polygon fill="none" stroke="black" points="92,-56.5 92,-75.5 168,-75.5 168,-56.5 92,-56.5"/>
<text text-anchor="middle" x="130" y="-63.5" font-family="Helvetica,sans-Serif" font-size="10.00">static_if.hpp</text>
</a>
</g>
</g>
<!-- Node1&#45;&gt;Node3 -->
<g id="edge2" class="edge">
<title>Node1&#45;&gt;Node3</title>
<path fill="none" stroke="midnightblue" d="M202.18,-112.32C188.77,-103.9 168.18,-90.97 152.41,-81.07"/>
<polygon fill="midnightblue" stroke="midnightblue" points="154.11,-78.01 143.78,-75.65 150.39,-83.94 154.11,-78.01"/>
</g>
<!-- Node4 -->
<g id="node4" class="node">
<title>Node4</title>
<g id="a_node4"><a xlink:href="time_8hpp.html" target="_top" xlink:title="Basic time operations.">
<polygon fill="none" stroke="black" points="186,-56.5 186,-75.5 246,-75.5 246,-56.5 186,-56.5"/>
<text text-anchor="middle" x="216" y="-63.5" font-family="Helvetica,sans-Serif" font-size="10.00">time.hpp</text>
</a>
</g>
</g>
<!-- Node1&#45;&gt;Node4 -->
<g id="edge3" class="edge">
<title>Node1&#45;&gt;Node4</title>
<path fill="none" stroke="midnightblue" d="M216,-112.08C216,-105.01 216,-94.86 216,-85.99"/>
<polygon fill="midnightblue" stroke="midnightblue" points="219.5,-85.75 216,-75.75 212.5,-85.75 219.5,-85.75"/>
</g>
<!-- Node6 -->
<g id="node6" class="node">
<title>Node6</title>
<g id="a_node6"><a xlink:href="tuple_8hpp.html" target="_top" xlink:title="Tuples standard layout implementation.">
<polygon fill="none" stroke="black" points="264,-56.5 264,-75.5 326,-75.5 326,-56.5 264,-56.5"/>
<text text-anchor="middle" x="295" y="-63.5" font-family="Helvetica,sans-Serif" font-size="10.00">tuple.hpp</text>
</a>
</g>
</g>
<!-- Node1&#45;&gt;Node6 -->
<g id="edge5" class="edge">
<title>Node1&#45;&gt;Node6</title>
<path fill="none" stroke="midnightblue" d="M228.69,-112.32C240.9,-103.98 259.58,-91.21 274,-81.35"/>
<polygon fill="midnightblue" stroke="midnightblue" points="276.06,-84.19 282.34,-75.65 272.11,-78.41 276.06,-84.19"/>
</g>
<!-- Node7 -->
<g id="node7" class="node">
<title>Node7</title>
<g id="a_node7"><a xlink:href="type__dereferencer_8hpp.html" target="_top" xlink:title="These methods are used to remove all the &amp; const and * from a type.">
<polygon fill="none" stroke="black" points="344,-56.5 344,-75.5 470,-75.5 470,-56.5 344,-56.5"/>
<text text-anchor="middle" x="407" y="-63.5" font-family="Helvetica,sans-Serif" font-size="10.00">type_dereferencer.hpp</text>
</a>
</g>
</g>
<!-- Node1&#45;&gt;Node7 -->
<g id="edge6" class="edge">
<title>Node1&#45;&gt;Node7</title>
<path fill="none" stroke="midnightblue" d="M246.26,-112.44C278.96,-103.2 331.18,-88.44 367.18,-78.26"/>
<polygon fill="midnightblue" stroke="midnightblue" points="368.21,-81.61 376.88,-75.52 366.3,-74.87 368.21,-81.61"/>
</g>
<!-- Node5 -->
<g id="node5" class="node">
<title>Node5</title>
<g id="a_node5"><a xlink:title=" ">
<polygon fill="none" stroke="#bfbfbf" points="191,-0.5 191,-19.5 241,-19.5 241,-0.5 191,-0.5"/>
<text text-anchor="middle" x="216" y="-7.5" font-family="Helvetica,sans-Serif" font-size="10.00">chrono</text>
</a>
</g>
</g>
<!-- Node4&#45;&gt;Node5 -->
<g id="edge4" class="edge">
<title>Node4&#45;&gt;Node5</title>
<path fill="none" stroke="midnightblue" d="M216,-56.08C216,-49.01 216,-38.86 216,-29.99"/>
<polygon fill="midnightblue" stroke="midnightblue" points="219.5,-29.75 216,-19.75 212.5,-29.75 219.5,-29.75"/>
</g>
</g>
</svg>
