<?xml version="1.0" encoding="UTF-8" standalone="no"?>
<!DOCTYPE svg PUBLIC "-//W3C//DTD SVG 1.1//EN"
 "http://www.w3.org/Graphics/SVG/1.1/DTD/svg11.dtd">
<!-- Generated by graphviz version 2.36.0 (20140111.2315)
 -->
<!-- Title: tools.hpp Pages: 1 -->
<svg width="441pt" height="140pt"
 viewBox="0.00 0.00 441.00 140.00" xmlns="http://www.w3.org/2000/svg" xmlns:xlink="http://www.w3.org/1999/xlink">
<g id="graph0" class="graph" transform="scale(1 1) rotate(0) translate(4 136)">
<title>tools.hpp</title>
<!-- Node1 -->
<g id="node1" class="node"><title>Node1</title>
<polygon fill="#bfbfbf" stroke="black" points="173,-112.5 173,-131.5 229,-131.5 229,-112.5 173,-112.5"/>
<text text-anchor="middle" x="201" y="-119.5" font-family="Helvetica,sans-Serif" font-size="10.00">tools.hpp</text>
</g>
<!-- Node2 -->
<g id="node2" class="node"><title>Node2</title>
<g id="a_node2"><a xlink:href="convert_8hpp.html" target="_top" xlink:title="Series of pixel convert functions. ">
<polygon fill="none" stroke="black" points="0,-56.5 0,-75.5 68,-75.5 68,-56.5 0,-56.5"/>
<text text-anchor="middle" x="34" y="-63.5" font-family="Helvetica,sans-Serif" font-size="10.00">convert.hpp</text>
</a>
</g>
</g>
<!-- Node1&#45;&gt;Node2 -->
<g id="edge1" class="edge"><title>Node1&#45;&gt;Node2</title>
<path fill="none" stroke="midnightblue" d="M174.538,-112.444C146.322,-103.32 101.46,-88.8133 70.0315,-78.6509"/>
<polygon fill="midnightblue" stroke="midnightblue" points="70.9296,-75.263 60.3378,-75.5164 68.7759,-81.9234 70.9296,-75.263"/>
</g>
<!-- Node3 -->
<g id="node3" class="node"><title>Node3</title>
<g id="a_node3"><a xlink:href="static__if_8hpp.html" target="_top" xlink:title="This file provides a set of static_if functions used at to calculate the result of if statement at co...">
<polygon fill="none" stroke="black" points="86,-56.5 86,-75.5 156,-75.5 156,-56.5 86,-56.5"/>
<text text-anchor="middle" x="121" y="-63.5" font-family="Helvetica,sans-Serif" font-size="10.00">static_if.hpp</text>
</a>
</g>
</g>
<!-- Node1&#45;&gt;Node3 -->
<g id="edge2" class="edge"><title>Node1&#45;&gt;Node3</title>
<path fill="none" stroke="midnightblue" d="M188.147,-112.324C175.784,-103.979 156.87,-91.2122 142.263,-81.3524"/>
<polygon fill="midnightblue" stroke="midnightblue" points="144.068,-78.3483 133.821,-75.6545 140.152,-84.1503 144.068,-78.3483"/>
</g>
<!-- Node4 -->
<g id="node4" class="node"><title>Node4</title>
<g id="a_node4"><a xlink:href="time_8hpp.html" target="_top" xlink:title="Basic time operations. ">
<polygon fill="none" stroke="black" points="174,-56.5 174,-75.5 228,-75.5 228,-56.5 174,-56.5"/>
<text text-anchor="middle" x="201" y="-63.5" font-family="Helvetica,sans-Serif" font-size="10.00">time.hpp</text>
</a>
</g>
</g>
<!-- Node1&#45;&gt;Node4 -->
<g id="edge3" class="edge"><title>Node1&#45;&gt;Node4</title>
<path fill="none" stroke="midnightblue" d="M201,-112.083C201,-105.006 201,-94.8611 201,-85.9865"/>
<polygon fill="midnightblue" stroke="midnightblue" points="204.5,-85.751 201,-75.7511 197.5,-85.7511 204.5,-85.751"/>
</g>
<!-- Node6 -->
<g id="node6" class="node"><title>Node6</title>
<g id="a_node6"><a xlink:href="tuple_8hpp.html" target="_top" xlink:title="Tuples standard layout implementation. ">
<polygon fill="none" stroke="black" points="246,-56.5 246,-75.5 302,-75.5 302,-56.5 246,-56.5"/>
<text text-anchor="middle" x="274" y="-63.5" font-family="Helvetica,sans-Serif" font-size="10.00">tuple.hpp</text>
</a>
</g>
</g>
<!-- Node1&#45;&gt;Node6 -->
<g id="edge5" class="edge"><title>Node1&#45;&gt;Node6</title>
<path fill="none" stroke="midnightblue" d="M212.729,-112.324C223.837,-104.107 240.742,-91.6017 253.983,-81.8069"/>
<polygon fill="midnightblue" stroke="midnightblue" points="256.1,-84.5948 262.058,-75.8339 251.937,-78.9671 256.1,-84.5948"/>
</g>
<!-- Node7 -->
<g id="node7" class="node"><title>Node7</title>
<g id="a_node7"><a xlink:href="type__dereferencer_8hpp.html" target="_top" xlink:title="These methods are used to remove all the &amp; const and * from a type. ">
<polygon fill="none" stroke="black" points="320.5,-56.5 320.5,-75.5 433.5,-75.5 433.5,-56.5 320.5,-56.5"/>
<text text-anchor="middle" x="377" y="-63.5" font-family="Helvetica,sans-Serif" font-size="10.00">type_dereferencer.hpp</text>
</a>
</g>
</g>
<!-- Node1&#45;&gt;Node7 -->
<g id="edge6" class="edge"><title>Node1&#45;&gt;Node7</title>
<path fill="none" stroke="midnightblue" d="M228.888,-112.444C258.754,-103.28 306.315,-88.6876 339.456,-78.5192"/>
<polygon fill="midnightblue" stroke="midnightblue" points="340.709,-81.7958 349.243,-75.5164 338.656,-75.1037 340.709,-81.7958"/>
</g>
<!-- Node5 -->
<g id="node5" class="node"><title>Node5</title>
<polygon fill="none" stroke="#bfbfbf" points="178,-0.5 178,-19.5 224,-19.5 224,-0.5 178,-0.5"/>
<text text-anchor="middle" x="201" y="-7.5" font-family="Helvetica,sans-Serif" font-size="10.00">chrono</text>
</g>
<!-- Node4&#45;&gt;Node5 -->
<g id="edge4" class="edge"><title>Node4&#45;&gt;Node5</title>
<path fill="none" stroke="midnightblue" d="M201,-56.083C201,-49.0059 201,-38.8611 201,-29.9865"/>
<polygon fill="midnightblue" stroke="midnightblue" points="204.5,-29.751 201,-19.7511 197.5,-29.7511 204.5,-29.751"/>
</g>
</g>
</svg>
