<?xml version="1.0" encoding="UTF-8" standalone="no"?>
<!DOCTYPE svg PUBLIC "-//W3C//DTD SVG 1.1//EN"
 "http://www.w3.org/Graphics/SVG/1.1/DTD/svg11.dtd">
<!-- Generated by graphviz version 2.43.0 (0)
 -->
<!-- Title: tuple.hpp Pages: 1 -->
<svg width="178pt" height="196pt"
 viewBox="0.00 0.00 178.00 196.00" xmlns="http://www.w3.org/2000/svg" xmlns:xlink="http://www.w3.org/1999/xlink">
<g id="graph0" class="graph" transform="scale(1 1) rotate(0) translate(4 192)">
<title>tuple.hpp</title>
<!-- Node1 -->
<g id="node1" class="node">
<title>Node1</title>
<g id="a_node1"><a xlink:title="Tuples standard layout implementation.">
<polygon fill="#bfbfbf" stroke="black" points="61.5,-168.5 61.5,-187.5 123.5,-187.5 123.5,-168.5 61.5,-168.5"/>
<text text-anchor="middle" x="92.5" y="-175.5" font-family="Helvetica,sans-Serif" font-size="10.00">tuple.hpp</text>
</a>
</g>
</g>
<!-- Node2 -->
<g id="node2" class="node">
<title>Node2</title>
<g id="a_node2"><a xlink:href="tools_8hpp.html" target="_top" xlink:title="Collection of tools headers.">
<polygon fill="none" stroke="black" points="23.5,-112.5 23.5,-131.5 85.5,-131.5 85.5,-112.5 23.5,-112.5"/>
<text text-anchor="middle" x="54.5" y="-119.5" font-family="Helvetica,sans-Serif" font-size="10.00">tools.hpp</text>
</a>
</g>
</g>
<!-- Node1&#45;&gt;Node2 -->
<g id="edge1" class="edge">
<title>Node1&#45;&gt;Node2</title>
<path fill="none" stroke="midnightblue" d="M80.44,-159.86C73.86,-150.5 65.99,-139.33 60.66,-131.75"/>
<polygon fill="midnightblue" stroke="midnightblue" points="77.61,-161.92 86.23,-168.08 83.33,-157.89 77.61,-161.92"/>
</g>
<!-- Node5 -->
<g id="node5" class="node">
<title>Node5</title>
<g id="a_node5"><a xlink:href="pixel_8hpp.html" target="_top" xlink:title="This file contains definition of underlying pixel types used in VisionCpp.">
<polygon fill="none" stroke="black" points="109,-56.5 109,-75.5 170,-75.5 170,-56.5 109,-56.5"/>
<text text-anchor="middle" x="139.5" y="-63.5" font-family="Helvetica,sans-Serif" font-size="10.00">pixel.hpp</text>
</a>
</g>
</g>
<!-- Node1&#45;&gt;Node5 -->
<g id="edge4" class="edge">
<title>Node1&#45;&gt;Node5</title>
<path fill="none" stroke="midnightblue" d="M100.19,-159C110.45,-135 128.19,-93.47 135.83,-75.59"/>
<polygon fill="midnightblue" stroke="midnightblue" points="96.9,-157.8 96.19,-168.37 103.34,-160.55 96.9,-157.8"/>
</g>
<!-- Node3 -->
<g id="node3" class="node">
<title>Node3</title>
<g id="a_node3"><a xlink:href="framework_8hpp.html" target="_top" xlink:title="Collection of VisionCpp framework headers.">
<polygon fill="none" stroke="black" points="0,-56.5 0,-75.5 91,-75.5 91,-56.5 0,-56.5"/>
<text text-anchor="middle" x="45.5" y="-63.5" font-family="Helvetica,sans-Serif" font-size="10.00">framework.hpp</text>
</a>
</g>
</g>
<!-- Node2&#45;&gt;Node3 -->
<g id="edge2" class="edge">
<title>Node2&#45;&gt;Node3</title>
<path fill="none" stroke="midnightblue" d="M51.35,-102.1C49.86,-93.14 48.14,-82.86 46.96,-75.75"/>
<polygon fill="midnightblue" stroke="midnightblue" points="47.92,-102.79 53.01,-112.08 54.82,-101.64 47.92,-102.79"/>
</g>
<!-- Node4 -->
<g id="node4" class="node">
<title>Node4</title>
<g id="a_node4"><a xlink:href="visioncpp_8hpp.html" target="_top" xlink:title="This file is collection of headers that makes VisionCpp library.">
<polygon fill="none" stroke="black" points="50.5,-0.5 50.5,-19.5 134.5,-19.5 134.5,-0.5 50.5,-0.5"/>
<text text-anchor="middle" x="92.5" y="-7.5" font-family="Helvetica,sans-Serif" font-size="10.00">visioncpp.hpp</text>
</a>
</g>
</g>
<!-- Node3&#45;&gt;Node4 -->
<g id="edge3" class="edge">
<title>Node3&#45;&gt;Node4</title>
<path fill="none" stroke="midnightblue" d="M59.92,-48.43C68.16,-38.97 78.15,-27.48 84.88,-19.75"/>
<polygon fill="midnightblue" stroke="midnightblue" points="57.19,-46.24 53.26,-56.08 62.47,-50.84 57.19,-46.24"/>
</g>
<!-- Node5&#45;&gt;Node4 -->
<g id="edge5" class="edge">
<title>Node5&#45;&gt;Node4</title>
<path fill="none" stroke="midnightblue" d="M125.08,-48.43C116.84,-38.97 106.85,-27.48 100.12,-19.75"/>
<polygon fill="midnightblue" stroke="midnightblue" points="122.53,-50.84 131.74,-56.08 127.81,-46.24 122.53,-50.84"/>
</g>
</g>
</svg>
