<?xml version="1.0" encoding="UTF-8" standalone="no"?>
<!DOCTYPE svg PUBLIC "-//W3C//DTD SVG 1.1//EN"
 "http://www.w3.org/Graphics/SVG/1.1/DTD/svg11.dtd">
<!-- Generated by graphviz version 2.36.0 (20140111.2315)
 -->
<!-- Title: tuple.hpp Pages: 1 -->
<svg width="163pt" height="196pt"
 viewBox="0.00 0.00 163.00 196.00" xmlns="http://www.w3.org/2000/svg" xmlns:xlink="http://www.w3.org/1999/xlink">
<g id="graph0" class="graph" transform="scale(1 1) rotate(0) translate(4 192)">
<title>tuple.hpp</title>
<!-- Node1 -->
<g id="node1" class="node"><title>Node1</title>
<polygon fill="#bfbfbf" stroke="black" points="55,-168.5 55,-187.5 111,-187.5 111,-168.5 55,-168.5"/>
<text text-anchor="middle" x="83" y="-175.5" font-family="Helvetica,sans-Serif" font-size="10.00">tuple.hpp</text>
</g>
<!-- Node2 -->
<g id="node2" class="node"><title>Node2</title>
<g id="a_node2"><a xlink:href="tools_8hpp.html" target="_top" xlink:title="Collection of tools headers. ">
<polygon fill="none" stroke="black" points="20,-112.5 20,-131.5 76,-131.5 76,-112.5 20,-112.5"/>
<text text-anchor="middle" x="48" y="-119.5" font-family="Helvetica,sans-Serif" font-size="10.00">tools.hpp</text>
</a>
</g>
</g>
<!-- Node1&#45;&gt;Node2 -->
<g id="edge1" class="edge"><title>Node1&#45;&gt;Node2</title>
<path fill="none" stroke="midnightblue" d="M71.6999,-159.566C65.6781,-150.275 58.5314,-139.248 53.672,-131.751"/>
<polygon fill="midnightblue" stroke="midnightblue" points="68.8444,-161.595 77.2205,-168.083 74.7185,-157.788 68.8444,-161.595"/>
</g>
<!-- Node5 -->
<g id="node5" class="node"><title>Node5</title>
<g id="a_node5"><a xlink:href="pixel_8hpp.html" target="_top" xlink:title="This file contains definition of underlying pixel types used in VisionCpp. ">
<polygon fill="none" stroke="black" points="99,-56.5 99,-75.5 155,-75.5 155,-56.5 99,-56.5"/>
<text text-anchor="middle" x="127" y="-63.5" font-family="Helvetica,sans-Serif" font-size="10.00">pixel.hpp</text>
</a>
</g>
</g>
<!-- Node1&#45;&gt;Node5 -->
<g id="edge4" class="edge"><title>Node1&#45;&gt;Node5</title>
<path fill="none" stroke="midnightblue" d="M90.2008,-158.998C99.8013,-134.997 116.413,-93.4683 123.563,-75.5914"/>
<polygon fill="midnightblue" stroke="midnightblue" points="86.9169,-157.784 86.4526,-168.368 93.4162,-160.384 86.9169,-157.784"/>
</g>
<!-- Node3 -->
<g id="node3" class="node"><title>Node3</title>
<g id="a_node3"><a xlink:href="framework_8hpp.html" target="_top" xlink:title="Collection of VisionCpp framework headers. ">
<polygon fill="none" stroke="black" points="-0.5,-56.5 -0.5,-75.5 80.5,-75.5 80.5,-56.5 -0.5,-56.5"/>
<text text-anchor="middle" x="40" y="-63.5" font-family="Helvetica,sans-Serif" font-size="10.00">framework.hpp</text>
</a>
</g>
</g>
<!-- Node2&#45;&gt;Node3 -->
<g id="edge2" class="edge"><title>Node2&#45;&gt;Node3</title>
<path fill="none" stroke="midnightblue" d="M45.2001,-102.101C43.872,-93.1357 42.3493,-82.8579 41.2965,-75.7511"/>
<polygon fill="midnightblue" stroke="midnightblue" points="41.7512,-102.704 46.679,-112.083 48.6756,-101.678 41.7512,-102.704"/>
</g>
<!-- Node4 -->
<g id="node4" class="node"><title>Node4</title>
<g id="a_node4"><a xlink:href="visioncpp_8hpp.html" target="_top" xlink:title="This file is collection of headers that makes VisionCpp library. ">
<polygon fill="none" stroke="black" points="44.5,-0.5 44.5,-19.5 121.5,-19.5 121.5,-0.5 44.5,-0.5"/>
<text text-anchor="middle" x="83" y="-7.5" font-family="Helvetica,sans-Serif" font-size="10.00">visioncpp.hpp</text>
</a>
</g>
</g>
<!-- Node3&#45;&gt;Node4 -->
<g id="edge3" class="edge"><title>Node3&#45;&gt;Node4</title>
<path fill="none" stroke="midnightblue" d="M53.4224,-48.144C60.9142,-38.7357 69.9371,-27.4046 76.0315,-19.7511"/>
<polygon fill="midnightblue" stroke="midnightblue" points="50.5919,-46.0799 47.1006,-56.083 56.0679,-50.4404 50.5919,-46.0799"/>
</g>
<!-- Node5&#45;&gt;Node4 -->
<g id="edge5" class="edge"><title>Node5&#45;&gt;Node4</title>
<path fill="none" stroke="midnightblue" d="M113.265,-48.144C105.599,-38.7357 96.3667,-27.4046 90.1305,-19.7511"/>
<polygon fill="midnightblue" stroke="midnightblue" points="110.704,-50.5415 119.734,-56.083 116.131,-46.1198 110.704,-50.5415"/>
</g>
</g>
</svg>
