<?xml version="1.0" encoding="UTF-8" standalone="no"?>
<!DOCTYPE svg PUBLIC "-//W3C//DTD SVG 1.1//EN"
 "http://www.w3.org/Graphics/SVG/1.1/DTD/svg11.dtd">
<!-- Generated by graphviz version 2.43.0 (0)
 -->
<!-- Title: type_dereferencer.hpp Pages: 1 -->
<svg width="134pt" height="196pt"
 viewBox="0.00 0.00 134.00 196.00" xmlns="http://www.w3.org/2000/svg" xmlns:xlink="http://www.w3.org/1999/xlink">
<g id="graph0" class="graph" transform="scale(1 1) rotate(0) translate(4 192)">
<title>type_dereferencer.hpp</title>
<!-- Node1 -->
<g id="node1" class="node">
<title>Node1</title>
<g id="a_node1"><a xlink:title="These methods are used to remove all the &amp; const and * from a type.">
<polygon fill="#bfbfbf" stroke="black" points="0,-168.5 0,-187.5 126,-187.5 126,-168.5 0,-168.5"/>
<text text-anchor="middle" x="63" y="-175.5" font-family="Helvetica,sans-Serif" font-size="10.00">type_dereferencer.hpp</text>
</a>
</g>
</g>
<!-- Node2 -->
<g id="node2" class="node">
<title>Node2</title>
<g id="a_node2"><a xlink:href="tools_8hpp.html" target="_top" xlink:title="Collection of tools headers.">
<polygon fill="none" stroke="black" points="32,-112.5 32,-131.5 94,-131.5 94,-112.5 32,-112.5"/>
<text text-anchor="middle" x="63" y="-119.5" font-family="Helvetica,sans-Serif" font-size="10.00">tools.hpp</text>
</a>
</g>
</g>
<!-- Node1&#45;&gt;Node2 -->
<g id="edge1" class="edge">
<title>Node1&#45;&gt;Node2</title>
<path fill="none" stroke="midnightblue" d="M63,-157.8C63,-148.91 63,-138.78 63,-131.75"/>
<polygon fill="midnightblue" stroke="midnightblue" points="59.5,-158.08 63,-168.08 66.5,-158.08 59.5,-158.08"/>
</g>
<!-- Node3 -->
<g id="node3" class="node">
<title>Node3</title>
<g id="a_node3"><a xlink:href="framework_8hpp.html" target="_top" xlink:title="Collection of VisionCpp framework headers.">
<polygon fill="none" stroke="black" points="17.5,-56.5 17.5,-75.5 108.5,-75.5 108.5,-56.5 17.5,-56.5"/>
<text text-anchor="middle" x="63" y="-63.5" font-family="Helvetica,sans-Serif" font-size="10.00">framework.hpp</text>
</a>
</g>
</g>
<!-- Node2&#45;&gt;Node3 -->
<g id="edge2" class="edge">
<title>Node2&#45;&gt;Node3</title>
<path fill="none" stroke="midnightblue" d="M63,-101.8C63,-92.91 63,-82.78 63,-75.75"/>
<polygon fill="midnightblue" stroke="midnightblue" points="59.5,-102.08 63,-112.08 66.5,-102.08 59.5,-102.08"/>
</g>
<!-- Node4 -->
<g id="node4" class="node">
<title>Node4</title>
<g id="a_node4"><a xlink:href="visioncpp_8hpp.html" target="_top" xlink:title="This file is collection of headers that makes VisionCpp library.">
<polygon fill="none" stroke="black" points="21,-0.5 21,-19.5 105,-19.5 105,-0.5 21,-0.5"/>
<text text-anchor="middle" x="63" y="-7.5" font-family="Helvetica,sans-Serif" font-size="10.00">visioncpp.hpp</text>
</a>
</g>
</g>
<!-- Node3&#45;&gt;Node4 -->
<g id="edge3" class="edge">
<title>Node3&#45;&gt;Node4</title>
<path fill="none" stroke="midnightblue" d="M63,-45.8C63,-36.91 63,-26.78 63,-19.75"/>
<polygon fill="midnightblue" stroke="midnightblue" points="59.5,-46.08 63,-56.08 66.5,-46.08 59.5,-46.08"/>
</g>
</g>
</svg>
